<svg xmlns="http://www.w3.org/2000/svg" xmlns:xlink="http://www.w3.org/1999/xlink" fill="none" version="1.1" width="18" height="18.000167846679688" viewBox="0 0 18 18.000167846679688"><g><g><path d="M17.0573,7.87126C16.8224,7.38617,16.5371,6.85989,16.2107,6.30769C15.9961,5.94543,15.5286,5.82554,15.1661,6.03981C14.8037,6.25408,14.6834,6.72149,14.8973,7.08413C15.2024,7.59973,15.4678,8.08787,15.6859,8.53788C16.3373,9.88179,16.4746,10.6781,16.4746,11.096C16.4746,13.9944,14.0614,16.3466,10.9831,16.4747C7.90475,16.3466,5.49152,13.9883,5.49152,11.0976C5.49152,10.672,5.62881,9.87721,6.28017,8.53788C6.82932,7.44407,7.45424,6.38996,8.15034,5.38327C8.87339,4.31394,9.61017,3.35596,10.0892,2.72748C10.5102,2.18748,10.8305,1.79391,10.9831,1.61696C11.1356,1.79392,11.4559,2.18748,11.8769,2.72748C12.298,3.26749,12.719,3.82885,13.1125,4.37496C13.3587,4.71659,13.8351,4.79419,14.1769,4.54833C14.5188,4.30248,14.5968,3.82615,14.3512,3.4841C13.9383,2.9109,13.5141,2.34587,13.079,1.78934C12.5329,1.08916,12.1439,0.625429,12.0585,0.526276C11.5131,-0.175203,10.453,-0.175203,9.90763,0.526276C9.8222,0.625429,9.43322,1.08916,8.88712,1.78934C8.40203,2.40867,7.68051,3.35596,6.95593,4.42377C6.75763,4.15224,6.57763,3.91122,6.42661,3.71139C5.95983,3.10122,5.63797,2.70613,5.59373,2.65426C5.39902,2.36542,4.97386,2.36542,4.77915,2.65426C4.73492,2.70613,4.41305,3.09816,3.94627,3.71139C3.53898,4.24834,2.92424,5.08428,2.31254,6.01023C1.71715,6.89527,1.18449,7.82093,0.718475,8.78042C0.241017,9.78873,0,10.617,0,11.244C0,14.0661,2.30492,16.3649,5.18644,16.4747C5.60623,16.4585,6.02281,16.3945,6.42814,16.2841C7.70402,17.3434,9.29659,17.9472,10.9541,18.0002L11.012,18.0002C14.9263,17.8476,17.9954,14.8227,18,11.0976C18,10.2326,17.6949,9.17856,17.0573,7.87126ZM1.52542,11.244C1.52542,11.0625,1.58186,10.524,2.09746,9.43178C2.53344,8.53853,3.03091,7.67662,3.58627,6.85227C4.17356,5.96141,4.76695,5.15598,5.16051,4.63733L5.18644,4.60377L5.21237,4.63733C5.44119,4.94242,5.74017,5.34056,6.06356,5.79819C5.64386,6.46926,5.25845,7.16117,4.90881,7.87126C4.27119,9.17856,3.9661,10.2326,3.9661,11.0976C3.9675,12.4778,4.39708,13.8235,5.19559,14.9493L5.18644,14.9493C3.1317,14.841,1.52542,13.224,1.52542,11.244Z" fill="#D8FFE9" fill-opacity="1"/></g><g><path d="M6.7819976806640625,9.854300609375L6.7819976806640625,13.565694609375L7.932167680664063,13.565694609375L7.932167680664063,12.192794609375L8.560637680664062,12.192794609375C9.018267680664064,12.192794609375,9.367587680664062,12.087544609375,9.591827680664062,11.877034609375C9.825257680664063,11.646114609375001,9.948537680664062,11.326234609375,9.930467680664062,10.998374609375C9.951537680664062,10.686854609375,9.840847680664062,10.380794609375,9.625387680664062,10.154814609375C9.417927680664063,9.956505609375,9.106737680664063,9.858877609375,8.691827680664062,9.858877609375L6.7819976806640625,9.854300609375ZM8.815387680664063,11.025834609375C8.818337680664062,11.139834609375,8.768867680664062,11.248894609375,8.681147680664063,11.321774609375C8.542907680664062,11.411454609375,8.378417680664063,11.451764609375001,8.214367680664063,11.436184609375001L7.932167680664063,11.436184609375001L7.932167680664063,10.607864609375L8.258607680664063,10.607864609375C8.414887680664062,10.589674609375,8.572067680664063,10.633484609375,8.696407680664063,10.729904609375C8.774197680664063,10.808564609375,8.817077680664063,10.915214609374999,8.815387680664063,11.025834609375ZM15.016237680664062,13.565694609375L15.016237680664062,8.980224609375L13.593017680664062,8.980224609375L13.593017680664062,10.584984609375L12.044707680664063,10.584984609375L12.044707680664063,8.980224609375L10.627587680664062,8.980224609375L10.627587680664062,13.565694609375L12.044707680664063,13.565694609375L12.044707680664063,11.710754609375L13.593017680664062,11.710754609375L13.593017680664062,13.565694609375L15.016237680664062,13.565694609375Z" fill="#D8FFE9" fill-opacity="1"/></g></g></svg>