<svg xmlns="http://www.w3.org/2000/svg" xmlns:xlink="http://www.w3.org/1999/xlink" fill="none" version="1.1" width="10.000000011988156" height="10" viewBox="0 0 10.000000011988156 10"><g transform="matrix(1,0,-1.198815713365775e-9,1,0,0)"><path d="M0.7692310119881571,0C0.7692310119881571,0,5.000000011988157,4.23077,5.000000011988157,4.23077C5.000000011988157,4.23077,9.230750011988157,6.44141e-16,9.230750011988157,6.44141e-16C9.230750011988157,6.44141e-16,10.000000011988156,0.769231,10.000000011988156,0.769231C10.000000011988156,0.769231,5.769100011988157,5.00012,5.769100011988157,5.00012C5.769100011988157,5.00012,10.000000011988156,9.23075,10.000000011988156,9.23075C10.000000011988156,9.23075,9.230750011988157,10,9.230750011988157,10C9.230750011988157,10,4.999870011988157,5.76936,4.999870011988157,5.76936C4.999870011988157,5.76936,0.7692310119881571,10,0.7692310119881571,10C0.7692310119881571,10,1.198815713365775e-8,9.23075,1.198815713365775e-8,9.23075C1.198815713365775e-8,9.23075,4.230770011988157,5,4.230770011988157,5C4.230770011988157,5,1.198815906607775e-8,0.769231,1.198815906607775e-8,0.769231C1.198815906607775e-8,0.769231,0.7692310119881571,0,0.7692310119881571,0C0.7692310119881571,0,0.7692310119881571,0,0.7692310119881571,0Z" fill-rule="evenodd" fill="#FFFFFF" fill-opacity="1"/></g></svg>