<svg xmlns="http://www.w3.org/2000/svg" xmlns:xlink="http://www.w3.org/1999/xlink" fill="none" version="1.1" width="13.999866505973891" height="16.998600006103516" viewBox="0 0 13.999866505973891 16.998600006103516"><defs><clipPath id="master_svg0_289_55310"><rect x="2.0378188025915733e-8" y="0" width="13.999866485595703" height="16.998600006103516" rx="0"/></clipPath></defs><g transform="matrix(1,0,-1.198815713365775e-9,1,0,0)" clip-path="url(#master_svg0_289_55310)"><g><path d="M6.761430645378188,16.185538677120206C6.793010645378188,16.21713867712021,6.830500645378188,16.24223867712021,6.871760645378188,16.25933867712021C6.913030645378188,16.27643867712021,6.957260645378188,16.28523867712021,7.001930645378188,16.28523867712021C7.046600645378188,16.28523867712021,7.090830645378188,16.27643867712021,7.132090645378188,16.25933867712021C7.173360645378188,16.24223867712021,7.210850645378188,16.21713867712021,7.242430645378188,16.185538677120206C7.242430645378188,16.185538677120206,12.071340645378188,11.350638677120209,12.084340645378187,11.331638677120209C12.916540645378188,10.359338677120208,13.452440645378188,9.168958677120209,13.628740645378189,7.901448677120209C13.804940645378188,6.6339386771202085,13.614140645378187,5.342468677120209,13.078940645378188,4.180078677120209C12.543640645378188,3.0176986771202086,11.686340645378188,2.033138677120209,10.608640645378188,1.3430786771202088C9.530920645378188,0.6530166771202087,8.277960645378188,0.28638709512020877,6.998260645378188,0.28663880664320873C5.718550645378188,0.2868905181202087,4.465740645378188,0.6540126771202087,3.388300645378188,1.3444986771202088C2.310860645378188,2.0349786771202085,1.453960645378188,3.0198786771202086,0.9191486453781881,4.1824786771202085C0.384337045378188,5.345068677120209,0.19403664537818804,6.636618677120209,0.37080144537818804,7.904058677120209C0.5475656453781881,9.171498677120208,1.0839836453781881,10.36173867712021,1.916480645378188,11.33363867712021C1.931480645378188,11.35263867712021,6.761430645378188,16.185538677120206,6.761430645378188,16.185538677120206C6.761430645378188,16.185538677120206,6.761430645378188,16.185538677120206,6.761430645378188,16.185538677120206C6.761430645378188,16.185538677120206,6.761430645378188,16.185538677120206,6.761430645378188,16.185538677120206ZM7.000430645378188,3.924668677120209C7.378110645378188,3.924668677120209,7.752090645378188,3.9990586771202086,8.101010645378189,4.143588677120208C8.449940645378188,4.288118677120209,8.766990645378188,4.499958677120209,9.034050645378189,4.767018677120209C9.301110645378188,5.034078677120209,9.512950645378188,5.351118677120208,9.657480645378188,5.700048677120209C9.802010645378187,6.048978677120209,9.876400645378189,6.422958677120209,9.876400645378189,6.800638677120209C9.876400645378189,7.178318677120209,9.802010645378187,7.552298677120208,9.657480645378188,7.901218677120209C9.512950645378188,8.250148677120208,9.301110645378188,8.567198677120208,9.034050645378189,8.834258677120209C8.766990645378188,9.101318677120208,8.449940645378188,9.313158677120208,8.101010645378189,9.457688677120208C7.752090645378188,9.60221867712021,7.378110645378188,9.676608677120209,7.000430645378188,9.676608677120209C6.622750645378188,9.676608677120209,6.248770645378188,9.60221867712021,5.899840645378188,9.457688677120208C5.550910645378188,9.313158677120208,5.233870645378188,9.101318677120208,4.966810645378188,8.834258677120209C4.699750645378188,8.567198677120208,4.487910645378188,8.250148677120208,4.343380645378188,7.901218677120209C4.198850645378188,7.552298677120208,4.124460645378188,7.178318677120209,4.124460645378188,6.800638677120209C4.124460645378188,6.422958677120209,4.198850645378188,6.048978677120209,4.343380645378188,5.700048677120209C4.487910645378188,5.351118677120208,4.699750645378188,5.034078677120209,4.966810645378188,4.767018677120209C5.233870645378188,4.499958677120209,5.550910645378188,4.288118677120209,5.899840645378188,4.143588677120208C6.248770645378188,3.9990586771202086,6.622750645378188,3.924668677120209,7.000430645378188,3.924668677120209C7.000430645378188,3.924668677120209,7.000430645378188,3.924668677120209,7.000430645378188,3.924668677120209Z" fill="#6AE6FF" fill-opacity="1"/></g></g></svg>