<svg xmlns="http://www.w3.org/2000/svg" xmlns:xlink="http://www.w3.org/1999/xlink" fill="none" version="1.1" width="26.69482421875" height="26.760009765625" viewBox="0 0 26.69482421875 26.760009765625"><defs><radialGradient cx="0" cy="0" r="1" gradientUnits="userSpaceOnUse" id="master_svg0_5_3866" gradientTransform="translate(36.089155197143555 12.89990234375) rotate(90) scale(12 10.316205978393555)"><stop offset="0%" stop-color="#00FF22" stop-opacity="1"/><stop offset="93.99454593658447%" stop-color="#00FF22" stop-opacity="0"/></radialGradient><filter id="master_svg1_488_20049" filterUnits="objectBoundingBox" color-interpolation-filters="sRGB" x="-2.282886408988801" y="-2.2569445416009395" width="5.565772817977602" height="5.513889083201879"><feFlood flood-opacity="0" result="BackgroundImageFix"/><feColorMatrix in="SourceAlpha" type="matrix" values="0 0 0 0 0 0 0 0 0 0 0 0 0 0 0 0 0 0 127 0"/><feMorphology radius="3" operator="dilate" in="SourceAlpha" result="effect1_dropShadow"/><feOffset dy="0" dx="0"/><feGaussianBlur stdDeviation="2.5"/><feColorMatrix type="matrix" values="0 0 0 0 0 0 0 0 0 1 0 0 0 0 0.8999999761581421 0 0 0 0.7400000095367432 0"/><feBlend mode="normal" in2="BackgroundImageFix" result="effect1_dropShadow"/><feBlend mode="normal" in="SourceGraphic" in2="effect1_dropShadow" result="shape"/></filter></defs><g><g><path d="M25.07544921875,13.379902322292327Q25.07544921875,13.662702322292327,25.06144921875,13.945202322292328Q25.04734921875,14.227602322292327,25.01934921875,14.509102322292328Q24.99124921875,14.790502322292328,24.94934921875,15.070202322292328Q24.90734921875,15.350002322292328,24.85154921875,15.627302322292328Q24.79574921875,15.904702322292328,24.72624921875,16.179002322292327Q24.65674921875,16.453402322292327,24.57374921875,16.72400232229233Q24.49074921875,16.99460232229233,24.39434921875,17.260902322292328Q24.29794921875,17.52710232229233,24.18854921875,17.788402322292328Q24.07904921875,18.04970232229233,23.95674921875,18.305302322292327Q23.83454921875,18.561002322292328,23.69964921875,18.81040232229233Q23.56484921875,19.059802322292327,23.41774921875,19.302402322292327Q23.27074921875,19.544902322292327,23.11184921875,19.78010232229233Q22.95294921875,20.01520232229233,22.78254921875,20.242402322292328Q22.61214921875,20.46950232229233,22.43074921875,20.688102322292327Q22.24924921875,20.90670232229233,22.05714921875,21.116302322292327Q21.86514921875,21.32580232229233,21.66284921875,21.52580232229233Q21.46064921875,21.725702322292328,21.24864921875,21.91570232229233Q21.03674921875,22.105602322292327,20.81564921875,22.28500232229233Q20.59454921875,22.46440232229233,20.36484921875,22.632802322292328Q20.13504921875,22.80130232229233,19.89724921875,22.95840232229233Q19.65944921875,23.11550232229233,19.41414921875,23.260902322292328Q19.16874921875,23.406302322292326,18.91654921875,23.53960232229233Q18.66424921875,23.672902322292327,18.40574921875,23.79390232229233Q18.14714921875,23.914802322292328,17.88294921875,24.023002322292328Q17.61864921875,24.131202322292328,17.34934921875,24.226502322292326Q17.08004921875,24.321802322292328,16.80634921875,24.40390232229233Q16.532649218750002,24.48590232229233,16.255249218750002,24.55470232229233Q15.97774921875,24.62340232229233,15.69724921875,24.678502322292328Q15.41674921875,24.733702322292327,15.13374921875,24.775202322292326Q14.85084921875,24.81670232229233,14.56624921875,24.84440232229233Q14.28154921875,24.872102322292328,13.99584921875,24.886002322292327Q13.71024921875,24.899902322292327,13.42414921875,24.899902322292327Q13.13814921875,24.899902322292327,12.85244921875,24.886002322292327Q12.56684921875,24.872102322292328,12.28214921875,24.84440232229233Q11.99754921875,24.81670232229233,11.71459921875,24.775202322292326Q11.43166921875,24.733702322292327,11.15114921875,24.678502322292328Q10.87061921875,24.62340232229233,10.59316921875,24.55470232229233Q10.31571921875,24.48590232229233,10.04201921875,24.40380232229233Q9.76830921875,24.321802322292328,9.49900921875,24.226502322292326Q9.22970921875,24.131202322292328,8.96545921875,24.023002322292328Q8.70120921875,23.914802322292328,8.44263921875,23.79390232229233Q8.18407921875,23.672902322292327,7.93183921875,23.53960232229233Q7.67958921875,23.406302322292326,7.43425921875,23.260902322292328Q7.18892921875,23.11550232229233,6.95110921875,22.95840232229233Q6.71328921875,22.80130232229233,6.48355921875,22.632802322292328Q6.25381921875,22.46440232229233,6.03271921875,22.28500232229233Q5.81161921875,22.105602322292327,5.5996992187500005,21.91570232229233Q5.38776921875,21.725702322292328,5.1855192187500005,21.52580232229233Q4.983269218749999,21.32580232229233,4.7911892187500005,21.116302322292327Q4.59910921875,20.90670232229233,4.41765921875,20.688102322292327Q4.23620921875,20.46950232229233,4.06582921875,20.242402322292328Q3.89543921875,20.01520232229233,3.73653921875,19.78010232229233Q3.5776292187500003,19.544902322292327,3.43058921875,19.302402322292327Q3.28353921875,19.059802322292327,3.14870921875,18.81040232229233Q3.01387921875,18.561002322292328,2.89158921875,18.305302322292327Q2.76930321875,18.04970232229233,2.65984721875,17.788402322292328Q2.5503912187499997,17.52710232229233,2.4540332187500002,17.260902322292328Q2.35767521875,16.99460232229233,2.27464821875,16.72400232229233Q2.19162021875,16.453402322292327,2.12212221875,16.179002322292327Q2.05262421875,15.904702322292328,1.99682421875,15.627302322292328Q1.94102421875,15.350002322292328,1.89905621875,15.070202322292328Q1.85708821875,14.790502322292328,1.82905311875,14.509102322292328Q1.80101811875,14.227602322292327,1.78698361875,13.945202322292328Q1.77294921875,13.662702322292327,1.77294921875,13.379902322292327Q1.77294921875,13.097102322292328,1.78698361875,12.814602322292329Q1.80101811875,12.532202322292328,1.82905311875,12.250702322292328Q1.85708821875,11.969302322292329,1.89905621875,11.689562322292328Q1.94102421875,11.409822322292328,1.99682421875,11.132462322292328Q2.05262421875,10.855092322292327,2.12212221875,10.580772322292328Q2.19162021875,10.306442322292328,2.27464821875,10.035822322292328Q2.35767521875,9.765202322292328,2.4540332187500002,9.498932322292328Q2.5503912187499997,9.232662322292327,2.65984721875,8.971392322292328Q2.76930321875,8.710112322292328,2.89158921875,8.45446232229233Q3.01387921875,8.198822322292328,3.14870921875,7.949412322292328Q3.28353921875,7.7000023222923275,3.43058921875,7.457442322292328Q3.5776292187500003,7.214872322292328,3.73653921875,6.979732322292328Q3.89543921875,6.744592322292328,4.06582921875,6.517442322292328Q4.23620921875,6.2903023222923276,4.41765921875,6.071692322292328Q4.59910921875,5.8530823222923285,4.7911892187500005,5.643542322292328Q4.983269218749999,5.4340023222923275,5.1855192187500005,5.234032322292328Q5.38776921875,5.034062322292328,5.5996992187500005,4.844142322292328Q5.81161921875,4.654232322292328,6.03271921875,4.474822322292328Q6.25381921875,4.295412322292328,6.48355921875,4.126952322292327Q6.71328921875,3.958492322292328,6.95110921875,3.8013723222923277Q7.18892921875,3.6442523222923278,7.43425921875,3.498872322292328Q7.67958921875,3.3534823222923276,7.93183921875,3.2201723222923277Q8.18407921875,3.086862322292328,8.44263921875,2.965942322292328Q8.70120921875,2.845033322292328,8.96545921875,2.736810322292328Q9.22970921875,2.628587322292328,9.49900921875,2.533314322292328Q9.76830921875,2.4380423222923278,10.04201921875,2.355949322292328Q10.31571921875,2.273857322292328,10.59316921875,2.205142322292328Q10.87061921875,2.136427322292328,11.15114921875,2.0812563222923277Q11.43166921875,2.026084322292328,11.71459921875,1.9845893222923279Q11.99754921875,1.9430935222923278,12.28214921875,1.9153742222923278Q12.56684921875,1.8876550222923278,12.85244921875,1.8737786222923278Q13.13814921875,1.8599023222923279,13.42414921875,1.8599023222923279Q13.71024921875,1.8599023222923279,13.99584921875,1.8737786222923278Q14.28154921875,1.8876550222923278,14.56624921875,1.9153742222923278Q14.85084921875,1.9430935222923278,15.13374921875,1.9845893222923279Q15.41674921875,2.026084322292328,15.69724921875,2.0812563222923277Q15.97774921875,2.136427322292328,16.255249218750002,2.205142322292328Q16.532649218750002,2.273857322292328,16.80634921875,2.355949322292328Q17.08004921875,2.4380423222923278,17.34934921875,2.533314322292328Q17.61864921875,2.628587322292328,17.88294921875,2.736810322292328Q18.14714921875,2.845033322292328,18.40574921875,2.965942322292328Q18.66424921875,3.086862322292328,18.91654921875,3.2201723222923277Q19.16874921875,3.3534823222923276,19.41414921875,3.498872322292328Q19.65944921875,3.6442523222923278,19.89724921875,3.8013723222923277Q20.13504921875,3.958492322292328,20.36484921875,4.126952322292327Q20.59454921875,4.295412322292328,20.81564921875,4.474822322292328Q21.03674921875,4.654232322292328,21.24864921875,4.844142322292328Q21.46064921875,5.034062322292328,21.66284921875,5.234032322292328Q21.86514921875,5.4340023222923275,22.05714921875,5.643542322292328Q22.24924921875,5.8530823222923285,22.43074921875,6.071692322292328Q22.61214921875,6.2903023222923276,22.78254921875,6.517442322292328Q22.95294921875,6.744592322292328,23.11184921875,6.979732322292328Q23.27074921875,7.214872322292328,23.41774921875,7.457442322292328Q23.56484921875,7.7000023222923275,23.69964921875,7.949412322292328Q23.83454921875,8.198822322292328,23.95674921875,8.45446232229233Q24.07904921875,8.710112322292328,24.18854921875,8.971392322292328Q24.29794921875,9.232662322292327,24.39434921875,9.498932322292328Q24.49074921875,9.765202322292328,24.57374921875,10.035822322292328Q24.65674921875,10.306442322292328,24.72624921875,10.580772322292328Q24.79574921875,10.855092322292327,24.85154921875,11.132462322292328Q24.90734921875,11.409822322292328,24.94934921875,11.689562322292328Q24.99124921875,11.969302322292329,25.01934921875,12.250702322292328Q25.04734921875,12.532202322292328,25.06144921875,12.814602322292329Q25.07544921875,13.097102322292328,25.07544921875,13.379902322292327Z" fill="#025834" fill-opacity="1"/></g><g transform="matrix(-1,0,0,1,51.5458984375,0)"><path d="M25.77294921875,12.89990234375Q25.77294921875,15.18880234375,26.62508821875,17.31700234375Q27.55032921875,19.62780234375,29.32770921875,21.38520234375Q31.10508921875,23.14250234375,33.44219921875,24.05740234375Q35.37268921875,24.81300234375,37.43394921875,24.89090234375C37.69884921875,24.90100234375,37.90964921875,24.68500234375,37.90964921875,24.41990234375C37.90964921875,24.15480234375,37.69724921875,23.94100234375,37.43234921875,23.93010234375Q35.55707921875,23.85270234375,33.799599218750004,23.16480234375Q31.64944921875,22.32310234375,30.01426921875,20.70640234375Q28.37907921875,19.08960234375,27.52785921875,16.96370234375Q26.74388621875,15.00570234375,26.74388621875,12.89990234375Q26.74388621875,10.79409234375,27.52785921875,8.83613234375Q28.37907921875,6.71021234375,30.01426921875,5.09344234375Q31.64945921875,3.47667234375,33.799599218750004,2.63504234375Q35.77984921875,1.85990234375,37.90964921875,1.85990234375Q40.03944921875,1.85990234375,42.01974921875,2.63504234375Q44.16984921875,3.47667234375,45.80504921875,5.09344234375Q47.44024921875,6.71021234375,48.29144921875,8.83613234375Q49.075449218749995,10.79408234375,49.075449218749995,12.89990234375Q49.075449218749995,15.00570234375,48.29144921875,16.96370234375Q47.44024921875,19.08960234375,45.80504921875,20.70640234375Q44.34154921875,22.15340234375,42.46554921875,22.97950234375C42.22124921875,23.08710234375,42.100549218750004,23.36670234375,42.19984921875,23.61450234375C42.29794921875,23.85960234375,42.57694921875,23.98020234375,42.81894921875,23.87470234375Q44.88424921875,22.97450234375,46.49164921875,21.38520234375Q48.268949218749995,19.62780234375,49.19424921875,17.31700234375Q50.046349218749995,15.18880234375,50.046349218749995,12.89990234375Q50.046349218749995,10.61097234375,49.19424921875,8.48276234375Q48.268949218749995,6.17198234375,46.49164921875,4.4146223437500005Q44.71424921875,2.6572623437500003,42.37714921875,1.74244234375Q40.22464921875,0.89990234375,37.90964921875,0.89990234375Q35.594659218749996,0.89990234375,33.44219921875,1.74244234375Q31.10508921875,2.6572623437500003,29.32770921875,4.4146223437500005Q27.55032921875,6.17198234375,26.62508821875,8.48276234375Q25.77294921875,10.61097234375,25.77294921875,12.89990234375Z" fill="url(#master_svg0_5_3866)" fill-opacity="1"/></g><g filter="url(#master_svg1_488_20049)"><ellipse cx="13.347492933273315" cy="13.379901647567749" rx="2.8472726345062256" ry="2.879999876022339" fill="#FFFFFF" fill-opacity="1"/></g></g></svg>