<svg xmlns="http://www.w3.org/2000/svg" xmlns:xlink="http://www.w3.org/1999/xlink" fill="none" version="1.1" width="32" height="32" viewBox="0 0 32 32"><defs><radialGradient cx="0" cy="0" r="1" gradientUnits="userSpaceOnUse" id="master_svg0_422_15051" gradientTransform="translate(2.0485458374023438 32) rotate(98.1239173467939) scale(22.60081289247802 22.60081289247802)"><stop offset="0%" stop-color="#FFFFFF" stop-opacity="1"/><stop offset="100%" stop-color="#001C78" stop-opacity="0"/></radialGradient><radialGradient cx="0" cy="0" r="1" gradientUnits="userSpaceOnUse" id="master_svg1_422_15052" gradientTransform="translate(6.58056640625 3.7451171875) rotate(56.070028996172184) scale(24.437589722153476 24.437589722153476)"><stop offset="0%" stop-color="#ACFFB7" stop-opacity="1"/><stop offset="100%" stop-color="#00FF22" stop-opacity="0"/></radialGradient><radialGradient cx="0" cy="0" r="1" gradientUnits="userSpaceOnUse" id="master_svg2_422_15055" gradientTransform="translate(31.16988754272461 3.481212854385376) rotate(94.05338493195609) scale(18.732870015588603 18.732870015588603)"><stop offset="0%" stop-color="#ABFFA9" stop-opacity="1"/><stop offset="100%" stop-color="#00DDFF" stop-opacity="0"/></radialGradient><radialGradient cx="0" cy="0" r="1" gradientUnits="userSpaceOnUse" id="master_svg3_422_15056" gradientTransform="translate(1.28125 28.87803840637207) rotate(90.97799264247828) scale(19.824751147344667 19.824751147344667)"><stop offset="0%" stop-color="#0DFF00" stop-opacity="1"/><stop offset="100%" stop-color="#00DDFF" stop-opacity="0"/></radialGradient></defs><g><rect x="0" y="0" width="32" height="32" rx="16" fill="url(#master_svg0_422_15051)" fill-opacity="0.800000011920929"/><rect x="0" y="0" width="32" height="32" rx="16" fill="url(#master_svg1_422_15052)" fill-opacity="1"/><rect x="0" y="0" width="32" height="32" rx="16" fill="#00FF22" fill-opacity="0.45098039507865906"/><rect x="0.5" y="0.5" width="31" height="31" rx="15.5" stroke="url(#master_svg2_422_15055)" fill-opacity="0" fill="none" stroke-width="1"/><rect x="0.5" y="0.5" width="31" height="31" rx="15.5" stroke="url(#master_svg3_422_15056)" fill-opacity="0" fill="none" stroke-width="1"/><g><path d="M25,8.5L7,8.5L7,10L25,10L25,8.5ZM19.9269,17.44045C19.917299999999997,17.40759,19.8994,17.377299999999998,19.874499999999998,17.35192L16.552880000000002,12.335799999999999L16.552880000000002,12.335799999999999L15.9999,11.5L15.44637,12.33557L15.44637,12.33557L12.104140000000001,17.383879999999998C12.096,17.39621,12.089310000000001,17.409280000000003,12.084019999999999,17.4229C11.702,18.0348,11.5,18.726,11.5,19.425C11.5,21.672,13.518550000000001,23.5,16.0001,23.5C18.4812,23.5,20.5,21.672,20.5,19.425C20.5,18.7327,20.302,18.04805,19.9269,17.44045ZM16.046,22.246000000000002C17.4467,22.3234,19.0841,21.596899999999998,19.4589,19.7925C19.482,19.6633,19.4414,19.5313,19.3477,19.4316C19.2541,19.331899999999997,19.1169,19.2744,18.9723,19.2743C18.7289,19.2743,18.5317,19.4292,18.4857,19.6436C18.2161,20.965600000000002,16.98637,21.4182,16.092010000000002,21.3527C15.80924,21.3408,15.5725,21.5432,15.5725,21.799300000000002C15.5725,22.0375,15.78296,22.234099999999998,16.046,22.246000000000002Z" fill-rule="evenodd" fill="#FFFFFF" fill-opacity="1"/></g></g></svg>