<svg xmlns="http://www.w3.org/2000/svg" xmlns:xlink="http://www.w3.org/1999/xlink" fill="none" version="1.1" width="32" height="32" viewBox="0 0 32 32"><defs><radialGradient cx="0" cy="0" r="1" gradientUnits="userSpaceOnUse" id="master_svg0_414_20288" gradientTransform="translate(2.0485458374023438 32) rotate(98.1239173467939) scale(22.60081289247802 22.60081289247802)"><stop offset="0%" stop-color="#1BA8FF" stop-opacity="1"/><stop offset="100%" stop-color="#001C78" stop-opacity="0"/></radialGradient><radialGradient cx="0" cy="0" r="1" gradientUnits="userSpaceOnUse" id="master_svg1_414_20289" gradientTransform="translate(6.58056640625 3.7451171875) rotate(56.070028996172184) scale(24.437589722153476 24.437589722153476)"><stop offset="0%" stop-color="#8ED9FF" stop-opacity="1"/><stop offset="100%" stop-color="#000B6C" stop-opacity="0"/></radialGradient><radialGradient cx="0" cy="0" r="1" gradientUnits="userSpaceOnUse" id="master_svg2_414_20292" gradientTransform="translate(31.16988754272461 3.481212854385376) rotate(94.05338493195609) scale(18.732870015588603 18.732870015588603)"><stop offset="0%" stop-color="#9CF2FF" stop-opacity="1"/><stop offset="100%" stop-color="#00DDFF" stop-opacity="0"/></radialGradient><radialGradient cx="0" cy="0" r="1" gradientUnits="userSpaceOnUse" id="master_svg3_414_20293" gradientTransform="translate(1.28125 28.87803840637207) rotate(90.97799264247828) scale(19.824751147344667 19.824751147344667)"><stop offset="0%" stop-color="#00DDFF" stop-opacity="1"/><stop offset="100%" stop-color="#00DDFF" stop-opacity="0"/></radialGradient></defs><g><rect x="0" y="0" width="32" height="32" rx="16" fill="url(#master_svg0_414_20288)" fill-opacity="0.800000011920929"/><rect x="0" y="0" width="32" height="32" rx="16" fill="url(#master_svg1_414_20289)" fill-opacity="1"/><rect x="0" y="0" width="32" height="32" rx="16" fill="#0095FF" fill-opacity="0.44999998807907104"/><rect x="0.5" y="0.5" width="31" height="31" rx="15.5" stroke="url(#master_svg2_414_20292)" fill-opacity="0" fill="none" stroke-width="1"/><rect x="0.5" y="0.5" width="31" height="31" rx="15.5" stroke="url(#master_svg3_414_20293)" fill-opacity="0" fill="none" stroke-width="1"/><g><path d="M23.1804,23.6247C23.076900000000002,23.8826,22.9234,24.1179,22.7283,24.3175L22.6961,24.339C22.4937,24.5359,22.2573,24.6946,21.9976,24.8076L21.9759,24.8177C21.7031,24.939,21.4073,25.001,21.1087,25C20.8108,25.0014,20.5175,24.939,20.2461,24.8177C19.9759,24.7057,19.7297,24.5432,19.521,24.339C19.3154,24.1342,19.151400000000002,23.8923,19.0381,23.6264C18.915,23.353,18.853099999999998,23.0566,18.8552,22.7575C18.979300000000002,21.6921,19.4958,20.7091,20.3049,19.9972L20.3049,19.9875C20.451,19.8291,20.590899999999998,19.6662,20.7255,19.4988C20.7556,19.477,20.7821,19.450699999999998,20.8049,19.4212C20.9052,19.3387,21.035600000000002,19.3002,21.165399999999998,19.314799999999998C21.295099999999998,19.3294,21.4133,19.3956,21.4934,19.4985C21.602800000000002,19.625,21.7591,19.8215,21.924799999999998,20.0049C22.7339,20.711199999999998,23.247500000000002,21.6921,23.3643,22.7551C23.3661,23.0542,23.3035,23.3502,23.1804,23.6247L23.1804,23.6247ZM19.3926,18.4189C19.174799999999998,18.4192,18.9657,18.3336,18.8119,18.1804C18.658,18.027900000000002,18.5717,17.8203,18.572400000000002,17.6044L18.572400000000002,16.61553C18.558,16.03014,18.08145,15.55946,17.490560000000002,15.54803L10.14616,15.54803L10.14616,15.78094C10.13988,16.22838,9.77205,16.587809999999998,9.32099,16.58746C9.103867,16.58953,8.89511,16.50566,8.740901,16.3542C8.5867336,16.2024,8.50000400143,15.99617,8.50000400143,15.78094L8.50000400143,10.26108C8.499321091,10.0448,8.5856665,9.83685,8.739535,9.6833C8.893702,9.53011,9.103142,9.44346,9.321331,9.44312C9.77517,9.448319999999999,10.14163,9.81154,10.1465,10.26108L10.1465,10.667629999999999L13.503129999999999,10.667629999999999L13.503129999999999,8.51528L11.85177,8.51528C11.4626,8.47334,11.16783,8.14755,11.16783,7.759711C11.16783,7.371866,11.4626,7.046077,11.85177,7.0044768L16.80492,7.0044768C17.0972,6.9729461,17.38112,7.109847,17.53708,7.356624C17.692999999999998,7.60339,17.692999999999998,7.91637,17.53708,8.16315C17.38146,8.40957,17.0972,8.54648,16.80492,8.51528L15.14404,8.51528L15.14404,10.667629999999999L17.49299,10.667629999999999C19.0825,10.67283,20.606,11.297740000000001,21.7336,12.40822L21.7706,12.46507C22.875500000000002,13.569320000000001,23.4972,15.06036,23.5,16.61588L23.5,17.6057C23.500700000000002,17.8217,23.4147,18.0289,23.2601,18.181800000000003C23.1066,18.3343,22.8975,18.4202,22.6797,18.4199L19.3926,18.4189Z" fill="#FFFFFF" fill-opacity="1"/></g></g></svg>