<svg xmlns="http://www.w3.org/2000/svg" xmlns:xlink="http://www.w3.org/1999/xlink" fill="none" version="1.1" width="32" height="32" viewBox="0 0 32 32"><defs><radialGradient cx="0" cy="0" r="1" gradientUnits="userSpaceOnUse" id="master_svg0_422_15051" gradientTransform="translate(2.0485458374023438 32) rotate(98.1239173467939) scale(22.60081289247802 22.60081289247802)"><stop offset="0%" stop-color="#FFFFFF" stop-opacity="1"/><stop offset="100%" stop-color="#001C78" stop-opacity="0"/></radialGradient><radialGradient cx="0" cy="0" r="1" gradientUnits="userSpaceOnUse" id="master_svg1_422_15052" gradientTransform="translate(6.58056640625 3.7451171875) rotate(56.070028996172184) scale(24.437589722153476 24.437589722153476)"><stop offset="0%" stop-color="#ACFFB7" stop-opacity="1"/><stop offset="100%" stop-color="#00FF22" stop-opacity="0"/></radialGradient><radialGradient cx="0" cy="0" r="1" gradientUnits="userSpaceOnUse" id="master_svg2_422_15055" gradientTransform="translate(31.16988754272461 3.481212854385376) rotate(94.05338493195609) scale(18.732870015588603 18.732870015588603)"><stop offset="0%" stop-color="#ABFFA9" stop-opacity="1"/><stop offset="100%" stop-color="#00DDFF" stop-opacity="0"/></radialGradient><radialGradient cx="0" cy="0" r="1" gradientUnits="userSpaceOnUse" id="master_svg3_422_15056" gradientTransform="translate(1.28125 28.87803840637207) rotate(90.97799264247828) scale(19.824751147344667 19.824751147344667)"><stop offset="0%" stop-color="#0DFF00" stop-opacity="1"/><stop offset="100%" stop-color="#00DDFF" stop-opacity="0"/></radialGradient></defs><g><rect x="0" y="0" width="32" height="32" rx="16" fill="url(#master_svg0_422_15051)" fill-opacity="0.800000011920929"/><rect x="0" y="0" width="32" height="32" rx="16" fill="url(#master_svg1_422_15052)" fill-opacity="1"/><rect x="0" y="0" width="32" height="32" rx="16" fill="#00FF22" fill-opacity="0.45098039507865906"/><rect x="0.5" y="0.5" width="31" height="31" rx="15.5" stroke="url(#master_svg2_422_15055)" fill-opacity="0" fill="none" stroke-width="1"/><rect x="0.5" y="0.5" width="31" height="31" rx="15.5" stroke="url(#master_svg3_422_15056)" fill-opacity="0" fill="none" stroke-width="1"/><g><path d="M15.984499725341797,19C18.201499725341797,19,19.967499725341796,17.23,19.967499725341796,15.04C19.967499725341796,12.85,18.409499725341796,10.6,15.984499725341797,7C13.558499725341797,10.6,12.002499725341796,12.85,12.002499725341796,15.04C12.002499725341796,17.23,13.768499725341798,19,15.984499725341797,19ZM15.955499725341797,9.55C16.193499725341795,9.91,16.464499725341796,10.54,16.464499725341796,11.2C16.464499725341796,13.15,14.457499725341798,13.48,14.457499725341798,12.279C14.486499725341798,11.5,15.476499725341798,10.27,15.955499725341797,9.55ZM15.984499725341797,22C14.217499725341796,22,11.701499725341797,21.55,10.533499725341796,20.23C10.892499725341796,20.019,11.402499725341798,19.779,12.060499725341796,19.57C12.719499725341798,20.019,14.068499725341796,20.5,15.984499725341797,20.5C17.901499725341797,20.5,19.2494997253418,20.02,19.937499725341794,19.57C20.597499725341798,19.779,21.105499725341797,20.019,21.464499725341796,20.23C20.268499725341798,21.55,17.7524997253418,22,15.984499725341797,22ZM24.970499725341796,20.5C24.970499725341796,22.990000000000002,20.957499725341798,25,15.985499725341796,25C11.014499725341796,25,7.001500365341797,22.990000000000002,7.001500365341797,20.5L7.001500365341797,20.41C7.030500425341797,19.66,7.450500725341797,18.97,8.139499725341796,18.609C8.798499725341797,18.25,9.607499725341796,18.28,10.265499725341797,18.67L10.295499725341797,18.67C9.127499725341796,19.240000000000002,8.498499725341796,19.93,8.498499725341796,20.5C8.498499725341796,21.73,11.403499725341796,23.5,15.985499725341796,23.5C20.567499725341797,23.5,23.473499725341796,21.73,23.473499725341796,20.5C23.473499725341796,19.93,22.844499725341798,19.240000000000002,21.705499725341795,18.67L21.7344997253418,18.67C22.394499725341795,18.28,23.2024997253418,18.25,23.891499725341795,18.64C24.550499725341798,19,24.969499725341798,19.72,24.999499725341796,20.471Q24.970499725341796,20.471,24.970499725341796,20.5ZM21.227499725341797,17.47C22.305499725341797,16.42,23.533499725341798,17.320999999999998,24.521499725341798,16.36C24.8214997253418,16.061,24.970499725341796,15.671,24.970499725341796,15.311C24.970499725341796,14.35,23.862499725341795,13.6,22.6944997253418,14.231C21.7954997253418,14.74,21.256499725341797,16.029,21.227499725341797,17.47ZM21.346499725341797,13.689C21.825499725341796,12.91,22.6644997253418,13.269,23.083499725341795,12.549C23.592499725341796,11.709,22.543499725341796,10.839,21.705499725341795,11.589C21.256499725341797,12.01,21.166499725341797,12.82,21.346499725341797,13.689ZM9.275499725341797,14.26C8.107499725341796,13.629999999999999,7.000499725341797,14.379999999999999,7.000499725341797,15.34C7.000499725341797,15.699,7.149499725341797,16.09,7.449499725341797,16.39C8.437499725341796,17.35,9.665499725341796,16.451,10.744499725341797,17.5C10.713499725341798,16.029,10.174499725341796,14.74,9.275499725341797,14.26ZM10.234499725341797,11.59C9.425499725341798,10.811,8.347499725341796,11.68,8.856499725341797,12.55C9.305499725341797,13.27,10.115499725341797,12.91,10.593499725341797,13.690000000000001C10.803499725341798,12.82,10.713499725341798,12.01,10.234499725341797,11.59Z" fill="#FFFFFF" fill-opacity="1"/></g></g></svg>