<svg xmlns="http://www.w3.org/2000/svg" xmlns:xlink="http://www.w3.org/1999/xlink" fill="none" version="1.1" width="20" height="20" viewBox="0 0 20 20"><defs><clipPath id="master_svg0_1439_120506"><rect x="0" y="0" width="20" height="20" rx="0"/></clipPath></defs><g clip-path="url(#master_svg0_1439_120506)"><g><path d="M8.96667,9.05263C9.03333,9.05263,9.06667,9.01939,9.1,8.98615C9.13333,8.95291,9.16667,8.88643,9.16667,8.85319L9.16667,4.598338C9.16667,4.565097,9.16667,4.531856,9.13333,4.531856L9.06667,4.531856L7.6,5.99446L5.66667,4.066482C5.63333,4.033241,5.56667,4,5.53333,4C5.46667,4,5.4,4.033241,5.36667,4.066482L4.0666667,5.3628800000000005C4.0333333,5.39612,4,5.4626,4,5.49584C4,5.56233,4.0333333,5.62881,4.0666667,5.66205L6,7.5567899999999995L4.6,8.95291C4.566667,8.98615,4.566667,8.98615,4.6,9.01939C4.6,9.05263,4.633333,9.05263,4.666667,9.05263L8.96667,9.05263ZM8.96667,10.88089C9.03333,10.88089,9.06667,10.91413,9.1,10.94737C9.13333,10.98061,9.16667,11.04709,9.16667,11.08033L9.16667,15.3684C9.16667,15.4017,9.16667,15.4349,9.13333,15.4349L9.06667,15.4349L7.6,13.9723L5.66667,15.9003C5.63333,15.9335,5.56667,15.9668,5.53333,15.9668C5.46667,15.9668,5.43333,15.9335,5.4,15.9003L4.1,14.6039C4.0333333,14.5706,4,14.5042,4,14.4709C4,14.4377,4.0333333,14.3712,4.0666667,14.3379L6,12.40997L4.6,11.01385C4.566667,10.98061,4.566667,10.98061,4.6,10.94737C4.6,10.91413,4.633333,10.91413,4.666667,10.91413L8.96667,10.88089ZM11.03333,9.05263C10.96667,9.05263,10.93333,9.01939,10.9,8.98615C10.86667,8.95291,10.83333,8.88643,10.83333,8.85319L10.83333,4.598338C10.83333,4.565097,10.83333,4.531856,10.86667,4.531856L10.93333,4.531856L12.4,5.99446L14.3333,4.066482C14.3667,4.033241,14.4333,4,14.4667,4C14.5333,4,14.5667,4.033241,14.6,4.066482L15.9,5.3628800000000005C15.9667,5.39612,16,5.4626,16,5.49584C16,5.56233,15.9667,5.59557,15.9333,5.62881L14,7.5567899999999995L15.4,8.95291C15.4333,8.98615,15.4333,8.98615,15.4,9.01939C15.4,9.05263,15.3667,9.05263,15.3333,9.05263L11.03333,9.05263ZM11.03333,10.88089C10.96667,10.88089,10.93333,10.91413,10.9,10.94737C10.86667,10.98061,10.83333,11.04709,10.83333,11.08033L10.83333,15.3684C10.83333,15.4017,10.83333,15.4349,10.86667,15.4349L10.93333,15.4349L12.36667,14.0055L14.3,15.9335C14.3333,15.9668,14.4,16,14.4333,16C14.5,16,14.5333,15.9668,14.5667,15.9335L15.8667,14.6371C15.9,14.6039,15.9333,14.5374,15.9333,14.5042C15.9333,14.4709,15.9,14.4044,15.8667,14.3712L14,12.40997L15.4,11.01385C15.4333,10.98061,15.4333,10.98061,15.4,10.94737C15.4,10.91413,15.3667,10.91413,15.3333,10.91413L11.03333,10.88089Z" fill="#FFFFFF" fill-opacity="1"/></g></g></svg>