<svg xmlns="http://www.w3.org/2000/svg" xmlns:xlink="http://www.w3.org/1999/xlink" fill="none" version="1.1" width="216" height="235.062744140625" viewBox="0 0 216 235.062744140625"><defs><filter id="master_svg0_470_72391" filterUnits="objectBoundingBox" color-interpolation-filters="sRGB" x="-5" y="-5" width="7.8" height="7.8"><feFlood flood-opacity="0" result="BackgroundImageFix"/><feColorMatrix in="SourceAlpha" type="matrix" values="0 0 0 0 0 0 0 0 0 0 0 0 0 0 0 0 0 0 127 0"/><feMorphology radius="1" operator="dilate" in="SourceAlpha" result="effect1_dropShadow"/><feOffset dy="0" dx="0"/><feGaussianBlur stdDeviation="4"/><feColorMatrix type="matrix" values="0 0 0 0 0.9725490212440491 0 0 0 0 0.8752940893173218 0 0 0 0 0 0 0 0 1 0"/><feBlend mode="normal" in2="BackgroundImageFix" result="effect1_dropShadow"/><feColorMatrix in="SourceAlpha" type="matrix" values="0 0 0 0 0 0 0 0 0 0 0 0 0 0 0 0 0 0 127 0"/><feOffset dy="0" dx="0"/><feGaussianBlur stdDeviation="2"/><feColorMatrix type="matrix" values="0 0 0 0 0.7647058963775635 0 0 0 0 0.658823549747467 0 0 0 0 0.12941177189350128 0 0 0 0.8799999952316284 0"/><feBlend mode="normal" in2="effect1_dropShadow" result="effect2_dropShadow"/><feBlend mode="normal" in="SourceGraphic" in2="effect2_dropShadow" result="shape"/></filter><filter id="master_svg1_470_72384" filterUnits="objectBoundingBox" color-interpolation-filters="sRGB" x="-0.20512820512820512" y="-0.6666666666666666" width="1.4102564102564104" height="2.3333333333333335"><feFlood flood-opacity="0" result="BackgroundImageFix"/><feColorMatrix in="SourceAlpha" type="matrix" values="0 0 0 0 0 0 0 0 0 0 0 0 0 0 0 0 0 0 127 0"/><feOffset dy="0" dx="0"/><feGaussianBlur stdDeviation="4"/><feColorMatrix type="matrix" values="0 0 0 0 0 0 0 0 0 0.6509804129600525 0 0 0 0 1 0 0 0 1 0"/><feBlend mode="normal" in2="BackgroundImageFix" result="effect1_dropShadow"/><feBlend mode="normal" in="SourceGraphic" in2="effect1_dropShadow" result="shape"/></filter><clipPath id="master_svg2_470_72408"><rect x="132.5" y="202.062744140625" width="14" height="14" rx="0"/></clipPath></defs><g><rect x="0" y="0" width="216" height="235.062744140625" rx="16" fill="#003586" fill-opacity="0.949999988079071"/><rect x="0.5" y="0.5" width="215" height="234.062744140625" rx="15.5" fill-opacity="0" stroke-opacity="0.6000000238418579" stroke="#1470CC" fill="none" stroke-width="1"/><g><path d="M0 16C9.81054792658386e-16 7.163444002707305 7.1634440027073065 0 16 0L200 0C208.8365559972927 0 216 7.1634440027073065 216 16L216 47.062744140625C216 47.062744140625 216 47.062744140625 216 47.062744140625L0 47.062744140625C0 47.062744140625 0 47.062744140625 0 47.062744140625Z" fill="#1470CC" fill-opacity="0.30000001192092896"/><path d="M16,0C7.16344,0,0,7.16344,0,16L0,47.0627L216,47.0627L216,16C216,7.16344,208.837,0,200,0L16,0ZM215,46.0627L215,16Q215,9.78675,210.607,5.3934Q206.213,1,200,1L16,1Q9.7868,1,5.3934,5.3934Q1,9.7868,1,16L1,46.0627L215,46.0627Z" fill-rule="evenodd" fill="#1470CC" fill-opacity="0.6000000238418579"/><g><g><g><g></g><g style="opacity:0.4000000059604645;"><path d="M32,15.531372070313068L16,15.531372070313068L16,31.53137207031307L32,31.53137207031307L32,15.531372070313068ZM17,30.53137207031307L17,16.53137207031307L31,16.53137207031307L31,30.53137207031307L17,30.53137207031307Z" fill-rule="evenodd" fill="#FFA940" fill-opacity="1"/></g><g transform="matrix(1,2.4492937051703357e-16,-2.4492937051703357e-16,1,3.552713678800501e-15,-3.552713678800501e-15)" filter="url(#master_svg0_470_72391)"><rect x="21.601643562316895" y="21.133079528808594" width="5" height="5" rx="0" fill="#FFE066" fill-opacity="1"/></g></g><g><g><g filter="url(#master_svg1_470_72384)"><path d="M50.32031,20.678832070312502L55.52344,20.678832070312502L55.52344,15.581172070312501L58.0195,15.581172070312501L58.0195,17.0577420703125L65.3848,17.0577420703125L65.3848,19.2725820703125L58.0195,19.2725820703125L58.0195,20.678832070312502L63.9609,20.678832070312502L63.9609,27.3584720703125L50.32031,27.3584720703125L50.32031,20.678832070312502ZM61.3945,22.8233720703125L52.88672,22.8233720703125L52.88672,25.2139720703125L61.3945,25.2139720703125L61.3945,22.8233720703125ZM63.6094,27.7452720703125Q64.7168,29.8370720703125,65.6484,31.9639720703125L63.4512,32.8252720703125Q62.3965,30.4346720703125,61.5,28.6241720703125L63.6094,27.7452720703125ZM50.4082,27.8858720703125L52.57031,28.7999720703125Q51.72656,30.6456720703125,50.39062,33.0713720703125L48.333984,31.9815720703125Q49.54688,29.8370720703125,50.4082,27.8858720703125ZM59.5664,28.0088720703125Q60.3398,29.7139720703125,61.1133,31.7002720703125L58.8105,32.4034720703125Q58.1602,30.4874720703125,57.4043,28.6944720703125L59.5664,28.0088720703125ZM55.41797,28.1846720703125Q56.24414,30.3643720703125,56.75391,31.9639720703125L54.46875,32.544072070312495Q53.74805,30.2061720703125,53.2207,28.7823720703125L55.41797,28.1846720703125ZM73.6137,18.4464120703125L78.2543,18.4464120703125Q77.8588,17.4180920703125,77.2875,16.1788320703125L79.8188,15.4932820703125Q80.4692,16.8116420703125,81.0141,18.0772720703125L79.6254,18.4464120703125L84.9516,18.4464120703125L84.9516,20.7139920703125L73.6137,20.7139920703125L73.6137,18.4464120703125ZM71.6098,15.633912070312501L73.8598,16.3194620703125Q73.1743,18.1915320703125,72.4711,19.8702420703125L72.4711,32.9659720703125L70.1157,32.9659720703125L70.1157,24.7657720703125Q69.4565,25.9522720703125,68.77969999999999,26.9893720703125Q68.5161,25.7237720703125,68.0063,23.9834720703125Q69.7993,21.012822070312502,71.6098,15.633912070312501ZM73.24459999999999,29.8721720703125L79.1596,29.8721720703125Q80.6186,25.8292720703125,81.6293,21.3468020703125L84.3891,22.120272070312502Q83.96719999999999,23.2627720703125,81.6645,29.8721720703125L85.5493,29.8721720703125L85.5493,32.1397720703125L73.24459999999999,32.1397720703125L73.24459999999999,29.8721720703125ZM76.4262,21.4522720703125Q77.0942,23.2276720703125,78.7817,28.1846720703125L76.3735,28.9581720703125Q75.143,24.7217720703125,74.2114,22.1729720703125L76.4262,21.4522720703125ZM87.74889999999999,25.7413720703125Q89.1024,23.394672070312502,89.75280000000001,20.9952420703125L87.872,20.9952420703125L87.872,18.6925020703125L89.8934,18.6925020703125L89.8934,15.616332070312499L92.0556,15.616332070312499L92.0556,18.6925020703125L93.7431,18.6925020703125L93.7431,20.9952420703125L92.0556,20.9952420703125L92.0556,23.0254720703125Q93.1893,23.658372070312502,94.21770000000001,24.2647720703125L93.12780000000001,26.2510720703125Q92.7587,25.9346720703125,92.0556,25.4600720703125L92.0556,32.8956720703125L89.8934,32.8956720703125L89.8934,25.6534720703125Q89.2255,27.3760720703125,88.31139999999999,28.9581720703125Q88.01259999999999,27.129972070312498,87.74889999999999,25.7413720703125ZM94.49889999999999,16.5303920703125L104.4306,16.5303920703125L104.4306,18.8155520703125L94.49889999999999,18.8155520703125L94.49889999999999,16.5303920703125ZM93.7958,20.924922070312498L105.0985,20.924922070312498L105.0985,23.2100720703125L100.6688,23.2100720703125L100.6688,30.7334720703125Q100.6688,31.6739720703125,100.1503,32.1792720703125Q99.6317,32.6846720703125,98.6605,32.7461720703125Q97.6893,32.807772070312495,96.0106,32.807772070312495Q95.7645,31.3838720703125,95.536,30.3643720703125Q96.46770000000001,30.4522720703125,97.2059,30.4522720703125Q98.2255,30.4522720703125,98.2255,29.5030720703125L98.2255,23.2100720703125L93.7958,23.2100720703125L93.7958,20.924922070312498ZM95.202,24.317472070312498L97.2938,24.9151720703125Q96.2216,28.3252720703125,95.0966,30.8038720703125Q93.9892,30.2413720703125,93.0224,29.9600720703125Q94.1825,27.5870720703125,95.202,24.317472070312498ZM103.23519999999999,24.4581720703125Q104.34270000000001,27.1124720703125,105.3622,30.0303720703125L103.20009999999999,30.8565720703125Q102.1806,27.7452720703125,101.1434,25.2139720703125L103.23519999999999,24.4581720703125ZM110.7435,15.6514920703125Q111.8861,17.1280520703125,113.099,18.9034420703125Q112.2552,19.3956320703125,110.8138,20.3272720703125Q109.75909999999999,18.3936720703125,108.68690000000001,16.8643820703125L110.7435,15.6514920703125ZM122.5208,26.532372070312498Q123.6458,26.9366720703125,125.1048,27.3409720703125Q124.639,30.1270720703125,124.3314,30.8389720703125Q124.0238,31.5508720703125,123.3119,31.9156720703125Q122.5999,32.280372070312495,121.4837,32.280372070312495L117.0892,32.280372070312495Q114.5052,32.280372070312495,114.5052,29.3799720703125L114.5052,22.067472070312498L121.2376,22.067472070312498L121.2376,18.7452420703125L114.1888,18.7452420703125L114.1888,16.4952420703125L123.7689,16.4952420703125L123.7689,24.317472070312498L117.0365,24.317472070312498L117.0365,28.9053720703125Q117.0365,30.0655720703125,118.1966,30.0655720703125L120.8158,30.0655720703125Q121.7035,30.0655720703125,122.0023,29.5425720703125Q122.3011,29.0196720703125,122.5208,26.532372070312498ZM113.6439,26.9893720703125Q113.8197,28.6592720703125,114.0482,29.6260720703125Q111.429,31.5420720703125,110.2689,32.719872070312505L109.0033,30.9795720703125Q109.39,30.5225720703125,109.4076,29.5381720703125L109.4076,23.7725720703125L107.6849,23.7725720703125L107.6849,21.3995320703125L111.8158,21.3995320703125L111.8158,28.4131720703125Q112.3431,28.0440720703125,113.6439,26.9893720703125Z" fill="#FFFFFF" fill-opacity="1"/></g></g></g></g></g><g><g><rect x="176" y="11.5313720703125" width="24" height="24" rx="4" fill="#1470CC" fill-opacity="0.30000001192092896"/><rect x="176.5" y="12.0313720703125" width="23" height="23" rx="3.5" fill-opacity="0" stroke-opacity="1" stroke="#0073CB" fill="none" stroke-width="1"/><g><path d="M183.3446756057129,29.88431167602539C183.0816726057129,29.88421167602539,182.82946160571288,29.779711676025393,182.6435186057129,29.593711676025393C182.4574626057129,29.40761167602539,182.3529401180169,29.15541167602539,182.3529396057129,28.892511676025393C182.3529959592129,28.62951167602539,182.4575186057129,28.377311676025393,182.6435186057129,28.19141167602539L186.9506296057129,23.88421167602539L182.6435186057129,19.57702167602539C182.2563631057129,19.189741676025392,182.2563631057129,18.56196367602539,182.6435186057129,18.17468467602539C183.0307916057129,17.78752177602539,183.6585596057129,17.78752177602539,184.0458296057129,18.17468467602539L188.3529396057129,22.481871676025392L192.66003960571288,18.17468467602539C193.0473396057129,17.787520776025392,193.6751396057129,17.787520776025392,194.06233960571288,18.17468467602539C194.2484396057129,18.36076567602539,194.3529396057129,18.61298067602539,194.3529396057129,18.87585367602539C194.3528396057129,19.138861676025392,194.24833960571289,19.39108167602539,194.06233960571288,19.57702167602539L189.7552596057129,23.88421167602539L194.06233960571288,28.19141167602539C194.44953960571289,28.578711676025392,194.44953960571289,29.20641167602539,194.06233960571288,29.593711676025393C193.6751396057129,29.980911676025393,193.0473396057129,29.980911676025393,192.66003960571288,29.593711676025393L188.3519496057129,25.28654167602539L184.0448396057129,29.593711676025393C183.8591396057129,29.779511676025393,183.6073396057129,29.88401167602539,183.3446756057129,29.88431167602539Z" fill="#FFFFFF" fill-opacity="1"/></g></g></g></g><g><g><path d="M27.3467,82.062744140625L25.21094,82.062744140625L22.16992,76.938744140625Q22.06445,76.762944140625,21.8623,76.235644140625L21.81836,76.235644140625Q21.80078,76.305944140625,21.50195,76.947544140625L18.37305,82.062744140625L16.228516,82.062744140625L20.75488,75.224844140625L16.588867,68.448484140625L18.74219,68.448484140625L21.43164,73.159444140625Q21.66895,73.572544140625,21.90625,74.126244140625L21.94141,74.126244140625Q22.15234,73.651644140625,22.45996,73.115444140625L25.272460000000002,68.448484140625L27.2852,68.448484140625L23.03125,75.198444140625L27.3467,82.062744140625ZM40.736999999999995,82.062744140625L38.601299999999995,82.062744140625L35.5603,76.938744140625Q35.4548,76.762944140625,35.252700000000004,76.235644140625L35.2087,76.235644140625Q35.1911,76.305944140625,34.8923,76.947544140625L31.7634,82.062744140625L29.6189,82.062744140625L34.1452,75.224844140625L29.9792,68.448484140625L32.1325,68.448484140625L34.822,73.159444140625Q35.0593,73.572544140625,35.2966,74.126244140625L35.3318,74.126244140625Q35.542699999999996,73.651644140625,35.850300000000004,73.115444140625L38.662800000000004,68.448484140625L40.6755,68.448484140625L36.4216,75.198444140625L40.736999999999995,82.062744140625ZM54.1274,82.062744140625L51.9916,82.062744140625L48.9506,76.938744140625Q48.8452,76.762944140625,48.643,76.235644140625L48.5991,76.235644140625Q48.5815,76.305944140625,48.2827,76.947544140625L45.1537,82.062744140625L43.0092,82.062744140625L47.5356,75.224844140625L43.3696,68.448484140625L45.5229,68.448484140625L48.2123,73.159444140625Q48.4496,73.572544140625,48.687,74.126244140625L48.7221,74.126244140625Q48.933,73.651644140625,49.2407,73.115444140625L52.0532,68.448484140625L54.0659,68.448484140625L49.812,75.198444140625L54.1274,82.062744140625ZM56.4699,74.512944140625Q64.87219999999999,72.843014140625,69.7765,70.874264140625L70.4796,72.052004140625Q66.964,73.37034414062501,61.5939,74.671144140625L71.88589999999999,74.671144140625L71.88589999999999,84.286344140625L70.5851,84.286344140625L70.5851,83.512944140625L60.7062,83.512944140625L60.7062,84.32154414062501L59.4054,84.32154414062501L59.4054,75.189744140625Q58.2189,75.453344140625,56.9445,75.725844140625Q56.7511,75.145744140625,56.4699,74.512944140625ZM60.7062,82.31764414062499L70.5851,82.31764414062499L70.5851,80.92894414062499L60.7062,80.92894414062499L60.7062,82.31764414062499ZM70.5851,75.86644414062499L60.7062,75.86644414062499L60.7062,77.237544140625L70.5851,77.237544140625L70.5851,75.86644414062499ZM60.7062,79.76884414062499L70.5851,79.76884414062499L70.5851,78.39774414062501L60.7062,78.39774414062501L60.7062,79.76884414062499ZM61.8839,68.184814140625L62.8507,69.221924140625Q60.3371,71.19067414062499,57.7531,72.930904140625Q57.3664,72.385984140625,56.9269,71.788334140625Q59.6515,70.048094140625,61.8839,68.184814140625ZM68.00110000000001,69.204344140625L68.7218,68.167234140625Q71.34100000000001,69.591064140625,73.9074,71.19067414062499L73.06360000000001,72.421144140625Q70.7257,70.786374140625,68.00110000000001,69.204344140625ZM64.4855,67.147704140625L65.8214,67.147704140625L65.8214,71.964114140625L64.4855,71.964114140625L64.4855,67.147704140625ZM84.8456,72.342044140625L81.5936,77.237544140625L84.8016,82.062744140625L82.7977,82.062744140625L80.9432,78.968944140625Q80.7938,78.722944140625,80.5214,78.213144140625L80.4862,78.213144140625Q80.4774,78.265844140625,80.0468,78.968944140625L78.1571,82.062744140625L76.1796,82.062744140625L79.48429999999999,77.29024414062499L76.32900000000001,72.342044140625L78.3329,72.342044140625L80.1522,75.593944140625Q80.3192,75.892844140625,80.5565,76.367444140625L80.5917,76.367444140625L82.9559,72.342044140625L84.8456,72.342044140625ZM95.7486,72.342044140625L92.4967,77.237544140625L95.7047,82.062744140625L93.7008,82.062744140625L91.8463,78.968944140625Q91.6969,78.722944140625,91.4244,78.213144140625L91.3893,78.213144140625Q91.3805,78.265844140625,90.9498,78.968944140625L89.0602,82.062744140625L87.0826,82.062744140625L90.3873,77.29024414062499L87.232,72.342044140625L89.2359,72.342044140625L91.0553,75.593944140625Q91.2223,75.892844140625,91.4596,76.367444140625L91.4947,76.367444140625L93.859,72.342044140625L95.7486,72.342044140625ZM106.6517,72.342044140625L103.3997,77.237544140625L106.6077,82.062744140625L104.6038,82.062744140625L102.7493,78.968944140625Q102.5999,78.722944140625,102.3275,78.213144140625L102.2923,78.213144140625Q102.2835,78.265844140625,101.8528,78.968944140625L99.9632,82.062744140625L97.9857,82.062744140625L101.2903,77.29024414062499L98.1351,72.342044140625L100.139,72.342044140625L101.9583,75.593944140625Q102.1253,75.892844140625,102.3626,76.367444140625L102.3978,76.367444140625L104.762,72.342044140625L106.6517,72.342044140625ZM112.0528,82.598844140625L110.6817,82.598844140625L110.6817,73.510944140625L116.957,73.510944140625L116.957,71.085204140625L109.1875,71.085204140625L109.1875,69.749264140625L117.388,69.749264140625Q116.843,68.650634140625,116.113,67.534424140625L117.467,66.901614140625Q118.223,68.009034140625,118.855,69.169194140625L117.695,69.749264140625L126.203,69.749264140625L126.203,71.085204140625L118.363,71.085204140625L118.363,73.510944140625L124.744,73.510944140625L124.744,80.08524414062501Q124.744,82.300044140625,122.652,82.300044140625Q121.686,82.300044140625,120.139,82.264844140625Q120.051,81.684844140625,119.893,80.858644140625Q121.352,80.94654414062501,122.23,80.94654414062501Q123.373,80.94654414062501,123.373,79.786344140625L123.373,74.811744140625L118.363,74.811744140625L118.363,84.427044140625L116.957,84.427044140625L116.957,74.811744140625L112.0528,74.811744140625L112.0528,82.598844140625ZM137.33499999999998,72.342044140625L134.083,77.237544140625L137.291,82.062744140625L135.287,82.062744140625L133.43200000000002,78.968944140625Q133.28300000000002,78.722944140625,133.01,78.213144140625L132.975,78.213144140625Q132.96699999999998,78.265844140625,132.536,78.968944140625L130.64600000000002,82.062744140625L128.66899999999998,82.062744140625L131.973,77.29024414062499L128.81799999999998,72.342044140625L130.822,72.342044140625L132.64100000000002,75.593944140625Q132.808,75.892844140625,133.046,76.367444140625L133.08100000000002,76.367444140625L135.445,72.342044140625L137.33499999999998,72.342044140625ZM148.238,72.342044140625L144.986,77.237544140625L148.194,82.062744140625L146.19,82.062744140625L144.335,78.968944140625Q144.186,78.722944140625,143.914,78.213144140625L143.878,78.213144140625Q143.87,78.265844140625,143.439,78.968944140625L141.549,82.062744140625L139.572,82.062744140625L142.876,77.29024414062499L139.721,72.342044140625L141.725,72.342044140625L143.54399999999998,75.593944140625Q143.711,75.892844140625,143.949,76.367444140625L143.98399999999998,76.367444140625L146.348,72.342044140625L148.238,72.342044140625ZM159.141,72.342044140625L155.889,77.237544140625L159.097,82.062744140625L157.093,82.062744140625L155.238,78.968944140625Q155.089,78.722944140625,154.817,78.213144140625L154.781,78.213144140625Q154.773,78.265844140625,154.342,78.968944140625L152.452,82.062744140625L150.475,82.062744140625L153.779,77.29024414062499L150.624,72.342044140625L152.628,72.342044140625L154.447,75.593944140625Q154.614,75.892844140625,154.852,76.367444140625L154.887,76.367444140625L157.251,72.342044140625L159.141,72.342044140625ZM162.837,68.360594140625L177.954,68.360594140625L177.954,69.731694140625L164.331,69.731694140625L164.331,82.001244140625L178.235,82.001244140625L178.235,83.337144140625L162.837,83.337144140625L162.837,68.360594140625ZM165.684,71.665284140625L166.669,70.733644140625Q168.866,72.544194140625,171.266,74.70634414062499Q173.102,72.719974140625,174.79,70.382084140625L176.073,71.243404140625Q174.227,73.63404414062501,172.329,75.673144140625Q174.517,77.668244140625,176.864,79.944544140625L175.651,81.175044140625Q173.524,78.951444140625,171.274,76.780544140625Q168.734,79.355744140625,166.106,81.315644140625Q165.684,80.770744140625,164.981,80.173144140625Q167.741,78.292244140625,170.228,75.787344140625Q168.022,73.704344140625,165.684,71.665284140625Z" fill="#FFFFFF" fill-opacity="1"/></g><g><path d="M23.17188,109.204344140625L23.17188,107.938724140625L31.6445,107.938724140625L31.6445,109.221924140625Q30.502000000000002,110.865474140625,28.9551,112.271724140625Q31.6006,113.63404414062501,33.7715,114.952344140625L32.875,116.14774414062501Q30.625,114.600844140625,27.9619,113.124244140625Q25.87012,114.838144140625,22.62695,116.112544140625Q22.27539,115.479744140625,21.7832,114.899644140625Q26.898400000000002,113.229744140625,30.0273,109.204344140625L23.17188,109.204344140625ZM22.04688,122.300044140625L27.0566,122.300044140625L27.0566,118.010944140625L23.24219,118.010944140625L23.24219,116.74534414062501L32.1719,116.74534414062501L32.1719,118.010944140625L28.4453,118.010944140625L28.4453,122.300044140625L33.3672,122.300044140625L33.3672,123.565644140625L22.04688,123.565644140625L22.04688,122.300044140625ZM18.49609,117.589144140625Q20.21875,117.360644140625,22.27539,117.026644140625Q22.16992,117.764844140625,22.11719,118.327344140625Q19.95508,118.626244140625,16.878906,119.153544140625L16.5625,117.85274414062499Q17.9248,116.44654414062501,19.33984,114.310744140625Q17.63477,114.416244140625,16.703125,114.49534414062501L16.369141,113.300044140625Q18.28516,110.751224140625,19.91992,107.024654140625L21.25586,107.552004140625Q19.62109,110.698484140625,17.95117,113.194544140625Q19.06738,113.168244140625,20.08691,113.141844140625Q20.77246,112.025634140625,21.4668,110.733644140625L22.76758,111.384034140625Q20.5,115.04024414062499,18.49609,117.589144140625ZM16.351562,121.667244140625Q20.00781,120.92894414062499,22.52148,120.296144140625Q22.46875,121.016844140625,22.46875,121.596944140625Q20.07812,122.089144140625,16.755859,122.968044140625L16.351562,121.667244140625ZM40.139399999999995,118.64384414062499L40.139399999999995,117.483644140625L51.1609,117.483644140625L51.1609,118.626244140625Q49.57,120.340044140625,47.4431,121.605744140625Q49.9831,122.625244140625,53.3933,122.93284414062501L52.7077,124.30394414062499Q48.7878,123.75904414062501,46.028,122.37034414062501Q43.0925,123.802944140625,39.2956,124.497344140625Q39.014399999999995,123.934844140625,38.5749,123.23164414062501Q42.0554,122.686744140625,44.6833,121.596944140625Q42.802499999999995,120.375244140625,41.589600000000004,118.64384414062499L40.139399999999995,118.64384414062499ZM39.611999999999995,112.104734140625L42.2312,112.104734140625L42.2312,110.628174140625L43.567099999999996,110.628174140625L43.567099999999996,112.104734140625L48.5417,112.104734140625L48.5417,110.610594140625L49.8777,110.610594140625L49.8777,112.104734140625L53.0769,112.104734140625L53.0769,113.264844140625L49.8777,113.264844140625L49.8777,116.639844140625L48.5417,116.639844140625L48.5417,116.024644140625L43.567099999999996,116.024644140625L43.567099999999996,116.657444140625L42.2312,116.657444140625L42.2312,113.264844140625L39.611999999999995,113.264844140625L39.611999999999995,112.104734140625ZM44.287800000000004,107.516844140625L45.571,106.901614140625Q46.1687,107.842044140625,46.775099999999995,109.028564140625L53.2527,109.028564140625L53.2527,110.259034140625L39.225300000000004,110.259034140625L39.225300000000004,115.550044140625Q39.225300000000004,121.561744140625,36.8874,124.514844140625Q36.448,123.934844140625,35.8855,123.319544140625Q37.8191,120.94654414062501,37.8542,115.462144140625L37.8542,109.028564140625L45.149100000000004,109.028564140625Q44.7448,108.255124140625,44.287800000000004,107.516844140625ZM43.567099999999996,114.899644140625L48.5417,114.899644140625L48.5417,113.264844140625L43.567099999999996,113.264844140625L43.567099999999996,114.899644140625ZM49.3327,118.64384414062499L43.0573,118.64384414062499Q44.3054,120.014844140625,46.063199999999995,120.964144140625Q47.9704,119.979744140625,49.3327,118.64384414062499ZM60.0776,112.131104140625Q60.5434,112.131104140625,60.8774,112.456294140625Q61.2114,112.781494140625,61.2114,113.238544140625Q61.2114,113.695544140625,60.8862,114.025144140625Q60.561,114.354744140625,60.0776,114.354744140625Q59.5942,114.354744140625,59.269,114.025144140625Q58.9438,113.695544140625,58.9438,113.238544140625Q58.9438,112.781494140625,59.2778,112.456294140625Q59.6118,112.131104140625,60.0776,112.131104140625ZM60.0776,120.050044140625Q60.5434,120.050044140625,60.8774,120.375244140625Q61.2114,120.700444140625,61.2114,121.166244140625Q61.2114,121.640844140625,60.8774,121.961644140625Q60.5434,122.282444140625,60.0776,122.282444140625Q59.6118,122.282444140625,59.2778,121.961644140625Q58.9438,121.640844140625,58.9438,121.166244140625Q58.9438,120.700444140625,59.2778,120.375244140625Q59.6118,120.050044140625,60.0776,120.050044140625ZM80.3498,122.062744140625L80.3498,110.417234140625Q79.94550000000001,110.821534140625,78.98310000000001,111.322514140625Q78.0207,111.823484140625,77.2033,112.025634140625L77.2033,110.338134140625Q78.2843,110.039304140625,79.51480000000001,109.384524140625Q80.7453,108.729734140625,81.4044,108.149654140625L82.0548,108.149654140625L82.0548,122.062744140625L80.3498,122.062744140625ZM88.9325,119.786344140625Q90.33,120.867444140625,92.0878,120.867444140625Q93.494,120.867444140625,94.3158,120.177444140625Q95.1376,119.487544140625,95.1376,118.327344140625Q95.1376,115.743444140625,91.4374,115.743444140625L90.3036,115.743444140625L90.3036,114.319544140625L91.3846,114.319544140625Q94.663,114.319544140625,94.663,111.893794140625Q94.663,109.652584140625,92.1581,109.652584140625Q90.7255,109.652584140625,89.4598,110.619384140625L89.4598,108.993404140625Q90.7958,108.219974140625,92.58,108.219974140625Q94.3202,108.219974140625,95.3749,109.129634140625Q96.4296,110.039304140625,96.4296,111.489504140625Q96.4296,114.161344140625,93.705,114.926044140625L93.705,114.961144140625Q95.1815,115.119344140625,96.0385,116.002644140625Q96.8954,116.885944140625,96.8954,118.204344140625Q96.8954,120.041244140625,95.5726,121.166244140625Q94.2499,122.291244140625,92.0526,122.291244140625Q90.119,122.291244140625,88.9325,121.570544140625L88.9325,119.786344140625ZM105.0211,122.062744140625L105.0211,110.417234140625Q104.6168,110.821534140625,103.6544,111.322514140625Q102.692,111.823484140625,101.8746,112.025634140625L101.8746,110.338134140625Q102.9557,110.039304140625,104.1861,109.384524140625Q105.4166,108.729734140625,106.0758,108.149654140625L106.7262,108.149654140625L106.7262,122.062744140625L105.0211,122.062744140625ZM119.844,112.016844140625Q119.844,110.918214140625,119.15,110.289794140625Q118.455,109.661374140625,117.26,109.661374140625Q116.416,109.661374140625,115.555,110.092044140625Q114.6937,110.522704140625,113.9466,111.322514140625L113.9466,109.652584140625Q114.6146,108.958254140625,115.4627,108.589114140625Q116.311,108.219974140625,117.453,108.219974140625Q119.299,108.219974140625,120.424,109.208744140625Q121.549,110.197514140625,121.549,111.885014140625Q121.549,113.387944140625,120.859,114.486544140625Q120.169,115.58524414062501,118.499,116.736544140625Q116.794,117.914344140625,116.219,118.424044140625Q115.6429,118.933844140625,115.4144,119.399644140625Q115.1859,119.865444140625,115.1859,120.533444140625L121.953,120.533444140625L121.953,122.062744140625L113.3929,122.062744140625L113.3929,121.385944140625Q113.3929,120.208244140625,113.7137,119.386444140625Q114.0345,118.564744140625,114.7728,117.78684414062499Q115.511,117.00904414062501,117.076,115.91914414062501Q118.675,114.79414414062501,119.26,113.946044140625Q119.844,113.097944140625,119.844,112.016844140625ZM125.729,121.157444140625Q125.729,120.68284414062501,126.054,120.357644140625Q126.379,120.032444140625,126.862,120.032444140625Q127.355,120.032444140625,127.68,120.362044140625Q128.005,120.691644140625,128.005,121.157444140625Q128.005,121.614544140625,127.68,121.944044140625Q127.355,122.273644140625,126.854,122.273644140625Q126.37,122.273644140625,126.049,121.944044140625Q125.729,121.614544140625,125.729,121.157444140625ZM138.293,112.016844140625Q138.293,110.918214140625,137.598,110.289794140625Q136.904,109.661374140625,135.709,109.661374140625Q134.865,109.661374140625,134.00400000000002,110.092044140625Q133.142,110.522704140625,132.39499999999998,111.322514140625L132.39499999999998,109.652584140625Q133.063,108.958254140625,133.911,108.589114140625Q134.76,108.219974140625,135.902,108.219974140625Q137.748,108.219974140625,138.873,109.208744140625Q139.998,110.197514140625,139.998,111.885014140625Q139.998,113.387944140625,139.308,114.486544140625Q138.618,115.58524414062501,136.94799999999998,116.736544140625Q135.243,117.914344140625,134.667,118.424044140625Q134.09199999999998,118.933844140625,133.863,119.399644140625Q133.635,119.865444140625,133.635,120.533444140625L140.402,120.533444140625L140.402,122.062744140625L131.84199999999998,122.062744140625L131.84199999999998,121.385944140625Q131.84199999999998,120.208244140625,132.162,119.386444140625Q132.483,118.564744140625,133.221,117.78684414062499Q133.95999999999998,117.00904414062501,135.524,115.91914414062501Q137.124,114.79414414062501,137.708,113.946044140625Q138.293,113.097944140625,138.293,112.016844140625ZM144.388,119.786344140625Q145.786,120.867444140625,147.543,120.867444140625Q148.95,120.867444140625,149.771,120.177444140625Q150.593,119.487544140625,150.593,118.327344140625Q150.593,115.743444140625,146.893,115.743444140625L145.759,115.743444140625L145.759,114.319544140625L146.84,114.319544140625Q150.119,114.319544140625,150.119,111.893794140625Q150.119,109.652584140625,147.614,109.652584140625Q146.181,109.652584140625,144.915,110.619384140625L144.915,108.993404140625Q146.251,108.219974140625,148.036,108.219974140625Q149.776,108.219974140625,150.831,109.129634140625Q151.885,110.039304140625,151.885,111.489504140625Q151.885,114.161344140625,149.161,114.926044140625L149.161,114.961144140625Q150.637,115.119344140625,151.494,116.002644140625Q152.351,116.885944140625,152.351,118.204344140625Q152.351,120.041244140625,151.028,121.166244140625Q149.706,122.291244140625,147.508,122.291244140625Q145.575,122.291244140625,144.388,121.570544140625L144.388,119.786344140625Z" fill="#FFFFFF" fill-opacity="1"/></g><g><path d="M22.31055,156.182844140625L26.6348,156.182844140625L26.6348,154.003144140625L22.80273,154.003144140625L22.80273,152.737544140625L26.6348,152.737544140625L26.6348,150.768794140625L22.50391,150.768794140625L22.50391,149.503174140625L26.6348,149.503174140625L26.6348,147.094974140625L28.041,147.094974140625L28.041,149.503174140625L33.050799999999995,149.503174140625L33.050799999999995,150.768794140625L28.041,150.768794140625L28.041,152.737544140625L32.3301,152.737544140625L32.3301,154.003144140625L28.041,154.003144140625L28.041,156.182844140625L33.226600000000005,156.182844140625Q33.085899999999995,158.837144140625,32.9277,160.331344140625Q32.664100000000005,162.264844140625,30.800800000000002,162.264844140625Q29.9922,162.264844140625,28.8672,162.247344140625Q28.761699999999998,161.649644140625,28.5684,160.858644140625Q29.675800000000002,160.946544140625,30.4668,160.946544140625Q31.5039,160.946544140625,31.6094,159.909444140625Q31.7324,159.065644140625,31.7852,157.44844414062499L28.041,157.44844414062499L28.041,164.444544140625L26.6348,164.444544140625L26.6348,157.44844414062499L22.31055,157.44844414062499L22.31055,156.182844140625ZM18.51367,157.659444140625Q20.64062,157.343044140625,22.0293,157.096944140625Q21.92383,157.764844140625,21.87109,158.450444140625Q19.28711,158.819544140625,16.896484,159.241444140625L16.615234,157.958244140625Q17.78418,156.701444140625,19.30469,154.205344140625Q17.88086,154.293244140625,16.615234,154.407444140625L16.28125,153.212144140625Q17.89844,151.050044140625,19.63867,146.971924140625L20.97461,147.499264140625Q19.07617,151.225834140625,17.86328,153.106644140625Q19.03223,153.080344140625,19.99902,153.053954140625Q20.58789,152.025634140625,21.23828,150.821534140625L22.53906,151.471924140625Q20.32422,155.110644140625,18.51367,157.659444140625ZM16.246094,161.737544140625Q18.68945,161.245344140625,22.50391,160.313744140625Q22.45117,161.016844140625,22.45117,161.649644140625Q18.77734,162.51094414062499,16.632812,163.091044140625L16.246094,161.737544140625ZM40.139399999999995,158.643844140625L40.139399999999995,157.483644140625L51.1609,157.483644140625L51.1609,158.626244140625Q49.57,160.340044140625,47.4431,161.605744140625Q49.9831,162.625244140625,53.3933,162.932844140625L52.7077,164.303944140625Q48.7878,163.759044140625,46.028,162.370344140625Q43.0925,163.80294414062502,39.2956,164.497344140625Q39.014399999999995,163.934844140625,38.5749,163.231644140625Q42.0554,162.686744140625,44.6833,161.596944140625Q42.802499999999995,160.375244140625,41.589600000000004,158.643844140625L40.139399999999995,158.643844140625ZM39.611999999999995,152.104734140625L42.2312,152.104734140625L42.2312,150.628174140625L43.567099999999996,150.628174140625L43.567099999999996,152.104734140625L48.5417,152.104734140625L48.5417,150.610594140625L49.8777,150.610594140625L49.8777,152.104734140625L53.0769,152.104734140625L53.0769,153.264844140625L49.8777,153.264844140625L49.8777,156.639844140625L48.5417,156.639844140625L48.5417,156.024644140625L43.567099999999996,156.024644140625L43.567099999999996,156.657444140625L42.2312,156.657444140625L42.2312,153.264844140625L39.611999999999995,153.264844140625L39.611999999999995,152.104734140625ZM44.287800000000004,147.516844140625L45.571,146.901614140625Q46.1687,147.842044140625,46.775099999999995,149.028564140625L53.2527,149.028564140625L53.2527,150.259034140625L39.225300000000004,150.259034140625L39.225300000000004,155.550044140625Q39.225300000000004,161.561744140625,36.8874,164.514844140625Q36.448,163.934844140625,35.8855,163.319544140625Q37.8191,160.946544140625,37.8542,155.462144140625L37.8542,149.028564140625L45.149100000000004,149.028564140625Q44.7448,148.255124140625,44.287800000000004,147.516844140625ZM43.567099999999996,154.899644140625L48.5417,154.899644140625L48.5417,153.264844140625L43.567099999999996,153.264844140625L43.567099999999996,154.899644140625ZM49.3327,158.643844140625L43.0573,158.643844140625Q44.3054,160.014844140625,46.063199999999995,160.964144140625Q47.9704,159.979744140625,49.3327,158.643844140625ZM60.0776,152.131104140625Q60.5434,152.131104140625,60.8774,152.456294140625Q61.2114,152.781494140625,61.2114,153.238544140625Q61.2114,153.695544140625,60.8862,154.025144140625Q60.561,154.354744140625,60.0776,154.354744140625Q59.5942,154.354744140625,59.269,154.025144140625Q58.9438,153.695544140625,58.9438,153.238544140625Q58.9438,152.781494140625,59.2778,152.456294140625Q59.6118,152.131104140625,60.0776,152.131104140625ZM60.0776,160.050044140625Q60.5434,160.050044140625,60.8774,160.375244140625Q61.2114,160.700444140625,61.2114,161.166244140625Q61.2114,161.640844140625,60.8774,161.961644140625Q60.5434,162.282444140625,60.0776,162.282444140625Q59.6118,162.282444140625,59.2778,161.961644140625Q58.9438,161.640844140625,58.9438,161.166244140625Q58.9438,160.700444140625,59.2778,160.375244140625Q59.6118,160.050044140625,60.0776,160.050044140625ZM80.3498,162.062744140625L80.3498,150.417234140625Q79.94550000000001,150.821534140625,78.98310000000001,151.322514140625Q78.0207,151.823484140625,77.2033,152.025634140625L77.2033,150.338134140625Q78.2843,150.039304140625,79.51480000000001,149.384524140625Q80.7453,148.729734140625,81.4044,148.149654140625L82.0548,148.149654140625L82.0548,162.062744140625L80.3498,162.062744140625ZM88.9325,159.786344140625Q90.33,160.867444140625,92.0878,160.867444140625Q93.494,160.867444140625,94.3158,160.177444140625Q95.1376,159.487544140625,95.1376,158.327344140625Q95.1376,155.743444140625,91.4374,155.743444140625L90.3036,155.743444140625L90.3036,154.319544140625L91.3846,154.319544140625Q94.663,154.319544140625,94.663,151.893794140625Q94.663,149.652584140625,92.1581,149.652584140625Q90.7255,149.652584140625,89.4598,150.619384140625L89.4598,148.993404140625Q90.7958,148.219974140625,92.58,148.219974140625Q94.3202,148.219974140625,95.3749,149.129634140625Q96.4296,150.039304140625,96.4296,151.489504140625Q96.4296,154.161344140625,93.705,154.926044140625L93.705,154.961144140625Q95.1815,155.119344140625,96.0385,156.002644140625Q96.8954,156.88594414062499,96.8954,158.204344140625Q96.8954,160.041244140625,95.5726,161.166244140625Q94.2499,162.291244140625,92.0526,162.291244140625Q90.119,162.291244140625,88.9325,161.570544140625L88.9325,159.786344140625ZM105.0211,162.062744140625L105.0211,150.417234140625Q104.6168,150.821534140625,103.6544,151.322514140625Q102.692,151.823484140625,101.8746,152.025634140625L101.8746,150.338134140625Q102.9557,150.039304140625,104.1861,149.384524140625Q105.4166,148.729734140625,106.0758,148.149654140625L106.7262,148.149654140625L106.7262,162.062744140625L105.0211,162.062744140625ZM119.844,152.016844140625Q119.844,150.918214140625,119.15,150.289794140625Q118.455,149.661374140625,117.26,149.661374140625Q116.416,149.661374140625,115.555,150.092044140625Q114.6937,150.522704140625,113.9466,151.322514140625L113.9466,149.652584140625Q114.6146,148.958254140625,115.4627,148.589114140625Q116.311,148.219974140625,117.453,148.219974140625Q119.299,148.219974140625,120.424,149.208744140625Q121.549,150.197514140625,121.549,151.885014140625Q121.549,153.387944140625,120.859,154.486544140625Q120.169,155.585244140625,118.499,156.736544140625Q116.794,157.914344140625,116.219,158.424044140625Q115.6429,158.933844140625,115.4144,159.399644140625Q115.1859,159.86544414062502,115.1859,160.533444140625L121.953,160.533444140625L121.953,162.062744140625L113.3929,162.062744140625L113.3929,161.38594414062499Q113.3929,160.208244140625,113.7137,159.386444140625Q114.0345,158.564744140625,114.7728,157.786844140625Q115.511,157.009044140625,117.076,155.919144140625Q118.675,154.794144140625,119.26,153.946044140625Q119.844,153.097944140625,119.844,152.016844140625ZM125.729,161.157444140625Q125.729,160.682844140625,126.054,160.35764414062498Q126.379,160.032444140625,126.862,160.032444140625Q127.355,160.032444140625,127.68,160.362044140625Q128.005,160.691644140625,128.005,161.157444140625Q128.005,161.61454414062501,127.68,161.944044140625Q127.355,162.273644140625,126.854,162.273644140625Q126.37,162.273644140625,126.049,161.944044140625Q125.729,161.61454414062501,125.729,161.157444140625ZM138.293,152.016844140625Q138.293,150.918214140625,137.598,150.289794140625Q136.904,149.661374140625,135.709,149.661374140625Q134.865,149.661374140625,134.00400000000002,150.092044140625Q133.142,150.522704140625,132.39499999999998,151.322514140625L132.39499999999998,149.652584140625Q133.063,148.958254140625,133.911,148.589114140625Q134.76,148.219974140625,135.902,148.219974140625Q137.748,148.219974140625,138.873,149.208744140625Q139.998,150.197514140625,139.998,151.885014140625Q139.998,153.387944140625,139.308,154.486544140625Q138.618,155.585244140625,136.94799999999998,156.736544140625Q135.243,157.914344140625,134.667,158.424044140625Q134.09199999999998,158.933844140625,133.863,159.399644140625Q133.635,159.86544414062502,133.635,160.533444140625L140.402,160.533444140625L140.402,162.062744140625L131.84199999999998,162.062744140625L131.84199999999998,161.38594414062499Q131.84199999999998,160.208244140625,132.162,159.386444140625Q132.483,158.564744140625,133.221,157.786844140625Q133.95999999999998,157.009044140625,135.524,155.919144140625Q137.124,154.794144140625,137.708,153.946044140625Q138.293,153.097944140625,138.293,152.016844140625ZM144.388,159.786344140625Q145.786,160.867444140625,147.543,160.867444140625Q148.95,160.867444140625,149.771,160.177444140625Q150.593,159.487544140625,150.593,158.327344140625Q150.593,155.743444140625,146.893,155.743444140625L145.759,155.743444140625L145.759,154.319544140625L146.84,154.319544140625Q150.119,154.319544140625,150.119,151.893794140625Q150.119,149.652584140625,147.614,149.652584140625Q146.181,149.652584140625,144.915,150.619384140625L144.915,148.993404140625Q146.251,148.219974140625,148.036,148.219974140625Q149.776,148.219974140625,150.831,149.129634140625Q151.885,150.039304140625,151.885,151.489504140625Q151.885,154.161344140625,149.161,154.926044140625L149.161,154.961144140625Q150.637,155.119344140625,151.494,156.002644140625Q152.351,156.88594414062499,152.351,158.204344140625Q152.351,160.041244140625,151.028,161.166244140625Q149.706,162.291244140625,147.508,162.291244140625Q145.575,162.291244140625,144.388,161.570544140625L144.388,159.786344140625Z" fill="#FFFFFF" fill-opacity="1"/></g></g><g><g><rect x="110" y="195.062744140625" width="90" height="28" rx="14" fill="#1470CC" fill-opacity="0.30000001192092896"/><g clip-path="url(#master_svg2_470_72408)"><g><path d="M133.16218445849418,211.6876233203125Q133.68043445849418,212.9390533203125,134.6511244584942,213.9097533203125Q135.62197445849418,214.8806533203125,136.87403445849418,215.3994533203125Q138.1265644584942,215.9185533203125,139.4996244584942,215.9185533203125L139.5248644584942,215.9185533203125L139.5296844584942,215.9169533203125Q140.8747844584942,215.9120533203125,142.1220244584942,215.39595332031251Q143.37573445849418,214.8782533203125,144.3417344584942,213.9146533203125Q144.51273445849418,213.7419533203125,144.51273445849418,213.4975533203125Q144.51273445849418,213.2531533203125,144.34243445849418,213.0812533203125L139.92820445849418,208.6685833203125Q139.91103445849419,208.6514033203125,139.89595445849417,208.6400933203125Q139.73478445849418,208.5184033203125,139.5355444584942,208.5184033203125Q139.28994445849418,208.5184033203125,139.11787445849419,208.6904633203125Q138.9604844584942,208.8478533203125,138.9468744584942,209.0733833203125Q138.93330445849418,209.2980533203125,139.0692844584942,209.4724233203125Q139.07880445849418,209.4851733203125,139.09599445849418,209.5023633203125L142.9162344584942,213.3210533203125L143.08553445849418,213.4932533203125Q142.3382744584942,214.0745533203125,141.3943344584942,214.4029533203125Q140.4414144584942,214.7343533203125,139.50118445849418,214.7343533203125Q137.4381044584942,214.7343533203125,135.8605344584942,213.4134533203125Q134.3514044584942,212.1491733203125,133.94819445849419,210.2180233203125Q133.54565145849418,208.2900633203125,134.42858445849419,206.5242033203125Q135.1592844584942,205.0720933203125,136.53997445849419,204.2274433203125Q137.90457445849418,203.3928733203125,139.4996244584942,203.3928733203125Q140.14926445849417,203.3928733203125,140.8057644584942,203.5465233203125Q142.7246344584942,203.9996833203125,143.94743445849417,205.5453433203125Q145.17273445849418,207.0963833203125,145.17273445849418,209.0644033203125Q145.17273445849418,209.3100133203125,145.34483445849418,209.4820733203125Q145.51683445849417,209.6541433203125,145.7624344584942,209.6541433203125Q145.79453445849418,209.6541433203125,145.81663445849418,209.6518533203125Q146.04023445849418,209.6319233203125,146.19853445849418,209.4531433203125Q146.35533445849418,209.2760433203125,146.35533445849418,209.0472233203125Q146.35173445849418,207.6774833203125,145.8340344584942,206.4307133203125Q145.31573445849418,205.1823633203125,144.3480344584942,204.2158333203125Q143.37723445849417,203.2450533203125,142.12521445849418,202.7261993203125Q140.87268445849418,202.2071533203125,139.4996244584942,202.2071533203125Q138.1263144584942,202.2071533203125,136.87484445849418,202.7254033203125Q135.6233644584942,203.2436633203125,134.65268445849418,204.2143433203125Q133.6818244584942,205.1851933203125,133.1629804584942,206.4372533203125Q132.6439344584942,207.6897833203125,132.6439344584942,209.0628433203125Q132.6439344584942,210.4361433203125,133.16218445849418,211.6876233203125ZM139.4997744584942,215.7629533203125C137.7099544584942,215.7629533203125,136.02632445849417,215.0648533203125,134.7612644584942,213.7997533203125C133.49620645849419,212.5346533203125,132.7996414584942,210.8526333203125,132.7996414584942,209.0628033203125C132.7996414584942,207.2729833203125,133.4977674584942,205.5893533203125,134.76282445849418,204.3242933203125C135.63130445849418,203.4558233203125,136.69630445849418,202.8552753203125,137.8577944584942,202.5640943203125C136.6962444584942,202.8552603203125,135.63118445849418,203.4558233203125,134.76282445849418,204.3242933203125C133.49761545849418,205.5893933203125,132.79949045849418,207.2730133203125,132.7996414584942,209.0628033203125C132.79949045849418,210.8526733203125,133.4960544584942,212.5347533203125,134.7612644584942,213.7997533203125C136.02617445849418,215.0648533203125,137.70979445849417,215.7629533203125,139.4997744584942,215.7629533203125ZM139.50431445849418,215.7614533203125C139.91450445849418,215.7614533203125,140.3199844584942,215.7242533203125,140.7183844584942,215.6506533203125C140.32003445849418,215.7242533203125,139.91460445849418,215.7613533203125,139.50431445849418,215.7614533203125ZM139.4271544584942,208.6872433203125C139.35270445849417,208.7059533203125,139.28415445849419,208.7441833203125,139.2278744584942,208.8004633203125C139.07325445849418,208.9550733203125,139.05919445849418,209.2065333203125,139.1919544584942,209.3767633203125C139.19663445849417,209.3830133203125,139.20132445849418,209.3876933203125,139.2060044584942,209.3923833203125L143.0261344584942,213.2109533203125L143.2057344584942,213.3937533203125C143.2339344584942,213.4218533203125,143.2495344584942,213.4624533203125,143.24643445849418,213.5030533203125C143.24483445849418,213.5436533203125,143.2245344584942,213.5826533203125,143.19173445849418,213.6076533203125C142.53940445849418,214.1180533203125,141.74633445849418,214.4977533203125,140.92365445849418,214.7066533203125C141.7463844584942,214.4977533203125,142.53952445849418,214.1180533203125,143.19173445849418,213.6076533203125C143.2246344584942,213.5826533203125,143.24493445849419,213.5436533203125,143.24643445849418,213.5030533203125C143.2496344584942,213.4623533203125,143.2340344584942,213.4217533203125,143.2057344584942,213.3937533203125L143.0261344584942,213.2109533203125L139.2060044584942,209.3923833203125C139.20147445849418,209.3876633203125,139.1967844584942,209.3829733203125,139.1919544584942,209.3767633203125C139.0593444584942,209.2064933203125,139.0734044584942,208.9550433203125,139.2278744584942,208.8004633203125C139.2842644584942,208.7441833203125,139.3527644584942,208.7059633203125,139.4271544584942,208.6872433203125ZM145.8640344584942,209.4863533203125C145.8436344584942,209.4915633203125,145.82283445849419,209.49516332031249,145.8016344584942,209.4969833203125C145.78763445849418,209.4985533203125,145.7766344584942,209.4985533203125,145.76263445849418,209.4985533203125C145.64543445849418,209.4985533203125,145.5361344584942,209.4532533203125,145.4549344584942,209.3720433203125C145.3737344584942,209.2908233203125,145.3284344584942,209.1799433203125,145.3284344584942,209.0643633203125C145.3284344584942,207.7571333203125,144.8802344584942,206.4748933203125,144.0696344584942,205.4487933203125C143.2590344584942,204.4242533203125,142.1111144584942,203.6948933203125,140.84136445849418,203.3950233203125C140.4009344584942,203.2919433203125,139.95113445849418,203.2372833203125,139.4997744584942,203.2372833203125C139.0205544584942,203.2372833203125,138.54507445849418,203.2966533203125,138.08383445849418,203.4124533203125C138.5450244584942,203.2966733203125,139.02045445849419,203.2373233203125,139.4997744584942,203.2372833203125C139.9509844584942,203.2373233203125,140.40078445849417,203.2919833203125,140.84136445849418,203.3950233203125C142.11095445849418,203.6949233203125,143.2588344584942,204.4242933203125,144.0696344584942,205.4487933203125C144.88003445849418,206.4749333203125,145.3282344584942,207.7571733203125,145.3284344584942,209.0643633203125C145.3282344584942,209.1799733203125,145.3735344584942,209.2908633203125,145.4549344584942,209.3720433203125C145.53603445849419,209.4532933203125,145.64533445849418,209.4985833203125,145.76263445849418,209.4985533203125C145.77653445849418,209.4985833203125,145.78743445849418,209.4985833203125,145.8016344584942,209.4969833203125C145.82273445849418,209.4951933203125,145.8436344584942,209.4915833203125,145.8640344584942,209.4863533203125ZM135.7799744584942,208.9112133203125Q135.7141544584942,210.4957833203125,136.81494445849418,211.6396733203125Q137.9153644584942,212.7854533203125,139.4994344584942,212.7854533203125Q139.75305445849418,212.7854533203125,139.9368344584942,212.5983533203125L139.93920445849417,212.5958533203125L139.94147445849418,212.5933533203125Q140.1189944584942,212.3961533203125,140.0897844584942,212.1332233203125Q140.0654344584942,211.9157033203125,139.88684445849418,211.7606133203125Q139.7105844584942,211.6075433203125,139.4880444584942,211.6059633203125Q138.4136744584942,211.6013933203125,137.6657044584942,210.8214133203125Q136.9212444584942,210.0450833203125,136.96232445849418,208.9655533203125Q137.0034844584942,207.9870333203125,137.69243445849418,207.2867133203125Q138.38504445849418,206.5826733203125,139.35943445849418,206.5301833203125Q139.4330844584942,206.5257233203125,139.5025544584942,206.5257233203125Q140.5532544584942,206.5257233203125,141.2979644584942,207.2704433203125Q142.0426744584942,208.0151533203125,142.0426744584942,209.0658433203125Q142.0426744584942,209.3114433203125,142.21474445849418,209.4835133203125Q142.3868144584942,209.6555833203125,142.6324144584942,209.6555833203125Q142.66273445849419,209.6555833203125,142.68383445849418,209.6532533203125Q142.9130344584942,209.6332333203125,143.06933445849418,209.4578833203125Q143.22523445849419,209.2828833203125,143.2237344584942,209.0476233203125Q143.2176344584942,207.5146533203125,142.12646445849418,206.4274833203125Q141.03503445849418,205.3400033203125,139.50099445849418,205.3400033203125Q139.4242144584942,205.3400033203125,139.3849144584942,205.3417133203125Q137.9286944584942,205.3844233203125,136.8834944584942,206.4191233203125Q135.83867445849418,207.4534433203125,135.7799744584942,208.9112133203125ZM139.49958445849418,212.6298533203125C138.52033445849418,212.6298533203125,137.6082444584942,212.24095332031249,136.92729445849417,211.5318933203125C136.2479144584942,210.8259533203125,135.8949444584942,209.8951233203125,135.93555445849418,208.9174333203125C135.93643445849418,208.8954533203125,135.9374744584942,208.8735133203125,135.93866445849417,208.8516333203125C135.9373744584942,208.8735333203125,135.93628445849419,208.8954733203125,135.93555445849418,208.9174333203125C135.89479445849418,209.8951633203125,136.24776445849417,210.8259933203125,136.92729445849417,211.5318933203125C137.60809445849418,212.24095332031249,138.52018445849419,212.6298533203125,139.49958445849418,212.6298533203125C139.53512445849418,212.6298533203125,139.57029445849417,212.6254533203125,139.60433445849418,212.6169533203125C139.5703444584942,212.6254533203125,139.53522445849418,212.6298533203125,139.49958445849418,212.6298533203125ZM139.42040445849418,206.3708433203125C139.42284445849418,206.3709833203125,139.42559445849417,206.3711433203125,139.42829445849418,206.3713133203125C139.44225445849418,206.3708833203125,139.4561644584942,206.3705833203125,139.4700444584942,206.3703933203125C139.45561445849418,206.37016332031249,139.44117445849417,206.3700533203125,139.42670445849419,206.3700533203125C139.4063844584942,206.3700533203125,139.41110445849418,206.3703133203125,139.42040445849418,206.3708433203125ZM142.19577445849418,208.9498533203125C142.1974044584942,208.9883133203125,142.1982344584942,209.0269833203125,142.1982344584942,209.0658433203125C142.1982344584942,209.1814133203125,142.2435244584942,209.2923033203125,142.3247344584942,209.3735233203125C142.4059544584942,209.4547333203125,142.5152744584942,209.5000233203125,142.6324144584942,209.5000233203125C142.6449344584942,209.5000233203125,142.65583445849418,209.5000233203125,142.6683344584942,209.4984633203125C142.6912344584942,209.4965533203125,142.7135344584942,209.4928133203125,142.73533445849418,209.48737332031249C142.7136344584942,209.4927933203125,142.6913344584942,209.4965233203125,142.6683344584942,209.4984633203125C142.6560344584942,209.4999833203125,142.6450344584942,209.4999833203125,142.6324144584942,209.5000233203125C142.51542445849418,209.4999833203125,142.40610445849418,209.4546933203125,142.3247344584942,209.3735233203125C142.24367445849418,209.2922633203125,142.1983844584942,209.1813833203125,142.1982344584942,209.0658433203125C142.1983844584942,209.0269633203125,142.1975044584942,208.9883033203125,142.19577445849418,208.9498533203125ZM139.44523445849418,205.4957733203125C139.4545644584942,205.4959433203125,139.4652244584942,205.4963233203125,139.44645445849417,205.4971333203125C139.30489445849418,205.5012133203125,139.1676744584942,205.5107933203125,139.03477445849418,205.5256233203125C139.1520944584942,205.5102533203125,139.27116445849418,205.5006633203125,139.39167445849418,205.4971233203125C139.4092744584942,205.4963633203125,139.4272444584942,205.4959733203125,139.44523445849418,205.4957733203125Z" fill-rule="evenodd" fill="#00FFFF" fill-opacity="1"/></g></g><g><path d="M158.29156,204.309814140625L162.1334,204.309814140625L162.1334,215.110644140625Q162.1334,216.723844140625,160.6841,216.723844140625Q160.06889999999999,216.723844140625,159.3306,216.710244140625Q159.2896,216.354744140625,159.1666,215.69844414062499Q159.8912,215.766844140625,160.4791,215.766844140625Q161.149,215.766844140625,161.149,214.973844140625L161.149,212.321544140625L159.2076,212.321544140625Q159.1119,214.891844140625,157.23883,217.01094414062499Q156.85601,216.587144140625,156.40484,216.259044140625Q157.52594,215.055944140625,157.90875,213.852744140625Q158.29156,212.690644140625,158.29156,210.544144140625L158.29156,204.309814140625ZM156.36383,208.028564140625L157.30719,208.028564140625L157.30719,213.169144140625L156.36383,213.169144140625L156.36383,212.594944140625L155.22906,212.594944140625Q155.065,215.219944140625,152.74078,216.997344140625Q152.27594,216.423144140625,151.93414,216.122344140625Q153.99859,214.727744140625,154.24469,212.594944140625L152.38531,212.594944140625L152.38531,208.028564140625L153.32867,208.028564140625L153.32867,211.692644140625L154.34039,211.692644140625Q154.36773,211.255144140625,154.36773,207.030514140625L152.01617,207.030514140625L152.01617,206.128174140625L155.05133,206.128174140625Q155.80328,204.802004140625,156.35015,203.557864140625L157.33453,203.981694140625Q156.52789,205.376224140625,156.04937,206.128174140625L157.75836,206.128174140625L157.75836,207.030514140625L155.32476,207.030514140625Q155.32476,210.790244140625,155.29742,211.692644140625L156.36383,211.692644140625L156.36383,208.028564140625ZM150.67633,211.104744140625Q151.14117,211.32344414062499,151.68805,211.514844140625Q151.15484,213.716044140625,150.45758,216.751244140625L149.363827,216.382044140625Q150.18414,213.729744140625,150.67633,211.104744140625ZM159.2623,211.405544140625L161.149,211.405544140625L161.149,208.780514140625L159.2759,208.780514140625Q159.2759,210.626244140625,159.2623,211.405544140625ZM161.149,205.253174140625L159.2759,205.253174140625L159.2759,207.850834140625L161.149,207.850834140625L161.149,205.253174140625ZM149.76031,207.221924140625Q150.79937,208.001224140625,151.74273,208.807864140625Q151.29156,209.327394140625,151.00445,209.655514140625Q150.08844,208.739504140625,149.131405,207.960204140625L149.76031,207.221924140625ZM150.27984,203.776614140625Q151.18219,204.473874140625,152.11187,205.266844140625Q151.71539,205.677004140625,151.38726,206.032474140625Q150.27984,204.966064140625,149.66461,204.473874140625L150.27984,203.776614140625ZM152.42633,204.050044140625L153.19195,203.544194140625Q153.99859,204.569584140625,154.44976,205.307864140625L153.58844,205.895754140625Q153.00055,204.829344140625,152.42633,204.050044140625ZM169.9121,206.880124140625L171.6895,206.880124140625Q171.9834,206.107664140625,172.2637,205.266844140625L168.8047,205.266844140625L168.8047,209.204344140625Q168.8047,214.577344140625,166.6992,216.901644140625Q166.3711,216.477744140625,165.9062,216.053944140625Q167.793,213.94844414062499,167.793,209.218014140625L167.793,204.337154140625L177.2812,204.337154140625L177.2812,205.266844140625L173.4463,205.266844140625Q173.0703,206.087154140625,172.6738,206.880124140625L176.2832,206.880124140625L176.2832,212.485644140625L175.2988,212.485644140625L175.2988,212.130144140625L173.5352,212.130144140625L173.5352,215.343044140625Q173.5352,216.805944140625,172.1133,216.805944140625Q171.6484,216.805944140625,170.9238,216.792244140625Q170.8555,216.382044140625,170.73239999999998,215.848844140625Q171.416,215.903544140625,171.9219,215.903544140625Q172.5508,215.903544140625,172.5508,215.247344140625L172.5508,212.130144140625L170.8965,212.130144140625L170.8965,212.485644140625L169.9121,212.485644140625L169.9121,206.880124140625ZM165.3184,210.954344140625Q165.8105,211.268844140625,166.2891,211.419144140625Q165.7285,213.743444140625,165.0312,216.737544140625L163.9785,216.382044140625Q164.7715,213.579344140625,165.3184,210.954344140625ZM170.8965,211.227744140625L175.2988,211.227744140625L175.2988,209.928954140625L170.8965,209.928954140625L170.8965,211.227744140625ZM175.2988,207.782474140625L170.8965,207.782474140625L170.8965,209.053954140625L175.2988,209.053954140625L175.2988,207.782474140625ZM177.2539,215.589144140625L176.39260000000002,216.245344140625Q175.4219,214.782444140625,174.2871,213.401644140625L175.08010000000002,212.841044140625Q176.3242,214.290244140625,177.2539,215.589144140625ZM168.668,215.712144140625Q169.83010000000002,214.468044140625,170.73239999999998,212.909444140625L171.60739999999998,213.442644140625Q170.5684,215.096944140625,169.4746,216.341044140625L168.668,215.712144140625ZM164.375,207.139894140625Q165.4414,207.905514140625,166.7812,208.971924140625Q166.30270000000002,209.546144140625,166.002,209.860594140625Q164.6895,208.698484140625,163.6914,207.919194140625L164.375,207.139894140625ZM164.9629,203.626224140625Q166.043,204.432864140625,167.1914,205.471924140625Q166.7129,205.936764140625,166.3711,206.305904140625Q165.1816,205.130124140625,164.2656,204.378174140625L164.9629,203.626224140625Z" fill="#00FFFF" fill-opacity="1"/></g></g></g></g></svg>