<svg xmlns="http://www.w3.org/2000/svg" xmlns:xlink="http://www.w3.org/1999/xlink" fill="none" version="1.1" width="39" height="34" viewBox="0 0 39 34"><defs><filter id="master_svg0_600_72520" filterUnits="objectBoundingBox" color-interpolation-filters="sRGB" x="0" y="0" width="1" height="1"><feFlood flood-opacity="0" result="BackgroundImageFix"/><feBlend mode="normal" in="SourceGraphic" in2="BackgroundImageFix" result="shape"/><feColorMatrix in="SourceAlpha" type="matrix" result="hardAlpha" values="0 0 0 0 0 0 0 0 0 0 0 0 0 0 0 0 0 0 127 0"/><feOffset dy="0" dx="0"/><feGaussianBlur stdDeviation="5.5"/><feComposite in2="hardAlpha" operator="arithmetic" k2="-1" k3="1"/><feColorMatrix type="matrix" values="0 0 0 0 0.18141593039035797 0 0 0 0 0.6316371560096741 0 0 0 0 1 0 0 0 1 0"/><feBlend mode="normal" in2="shape" result="effect1_innerShadow"/></filter><clipPath id="master_svg1_600_72527"><rect x="9" y="6.5" width="21" height="21" rx="0"/></clipPath></defs><g filter="url(#master_svg0_600_72520)"><rect x="0" y="0" width="39" height="34" rx="10" fill="#29A6FF" fill-opacity="0.05999999865889549"/><rect x="0" y="0" width="39" height="34" rx="10" fill="#29A6FF" fill-opacity="0.11999999731779099"/><rect x="0.5" y="0.5" width="38" height="33" rx="9.5" fill-opacity="0" stroke-opacity="1" stroke="#00B7FF" fill="none" stroke-width="1"/><g clip-path="url(#master_svg1_600_72527)"><g><path d="M9.99327768774128,20.93731376953125Q10.77065168774128,22.81451376953125,12.22668168774128,24.27051376953125Q13.68296168774128,25.72681376953125,15.56105168774128,26.50511376953125Q17.43985168774128,27.28371376953125,19.49940168774128,27.28371376953125L19.53730168774128,27.28371376953125L19.54450168774128,27.28131376953125Q21.56220168774128,27.27401376953125,23.43300168774128,26.49991376953125Q25.31360168774128,25.72321376953125,26.76260168774128,24.27781376953125Q27.01920168774128,24.01881376953125,27.01920168774128,23.65221376953125Q27.01920168774128,23.28561376953125,26.76360168774128,23.02771376953125L20.14230168774128,16.408753769531252Q20.11650168774128,16.38299376953125,20.09390168774128,16.36603376953125Q19.852201687741278,16.18348376953125,19.553301687741282,16.18348376953125Q19.18492168774128,16.18348376953125,18.926811687741278,16.44158376953125Q18.69073168774128,16.67766376953125,18.67031168774128,17.015913769531252Q18.649961687741282,17.353013769531252,18.853921687741277,17.61451376953125Q18.86821168774128,17.63361376953125,18.893991687741277,17.65941376953125L24.62430168774128,23.38741376953125L24.878301687741278,23.64581376953125Q23.75740168774128,24.51781376953125,22.341501687741278,25.01031376953125Q20.912101687741277,25.50741376953125,19.501801687741278,25.50741376953125Q16.40715168774128,25.50741376953125,14.04080168774128,23.52611376953125Q11.777101687741279,21.62961376953125,11.17229168774128,18.73291376953125Q10.56848168774128,15.84097376953125,11.89287168774128,13.192183769531251Q12.98893168774128,11.01402376953125,15.059961687741279,9.747043769531249Q17.10686168774128,8.49519376953125,19.49940168774128,8.49519376953125Q20.47390168774128,8.49519376953125,21.45860168774128,8.72566376953125Q24.336901687741282,9.405403769531251,26.17120168774128,11.723903769531251Q28.00910168774128,14.05045376953125,28.00910168774128,17.002513769531248Q28.00910168774128,17.37091376953125,28.26720168774128,17.629013769531248Q28.52530168774128,17.88711376953125,28.89370168774128,17.88711376953125Q28.94180168774128,17.88711376953125,28.97490168774128,17.88361376953125Q29.31030168774128,17.85381376953125,29.54770168774128,17.58561376953125Q29.78300168774128,17.31991376953125,29.78300168774128,16.97671376953125Q29.777601687741278,14.92211376953125,29.00110168774128,13.05195376953125Q28.22370168774128,11.179423769531251,26.77210168774128,9.729633769531251Q25.31590168774128,8.27346376953125,23.437801687741278,7.49518276953125Q21.55900168774128,6.71661376953125,19.49940168774128,6.71661376953125Q17.439481687741278,6.71661376953125,15.56227168774128,7.49398976953125Q13.685041687741279,8.27137376953125,12.22902168774128,9.72739376953125Q10.772741687741279,11.18367376953125,9.994470687741279,13.06176376953125Q9.21590168774128,14.94056376953125,9.21590168774128,17.00011376953125Q9.21590168774128,19.06011376953125,9.99327768774128,20.93731376953125ZM19.49970168774128,27.05031376953125C16.81492168774128,27.05031376953125,14.289491687741279,26.00311376953125,12.39190168774128,24.10551376953125C10.49431168774128,22.207913769531253,9.44946268774128,19.68481376953125,9.44946268774128,17.00011376953125C9.44946268774128,14.31535376953125,10.496651687741279,11.78991376953125,12.39424168774128,9.89232376953125C13.69695168774128,8.58961376953125,15.29446168774128,7.68879576953125,17.03668168774128,7.25202476953125C15.294371687741279,7.68877476953125,13.696781687741279,8.58961376953125,12.39424168774128,9.89232376953125C10.496421687741279,11.789973769531251,9.44923468774128,14.315403769531251,9.44946268774128,17.00011376953125C9.44923468774128,19.68491376953125,10.49408168774128,22.20801376953125,12.39190168774128,24.10551376953125C14.28926168774128,26.00311376953125,16.81469168774128,27.05031376953125,19.49970168774128,27.05031376953125ZM19.506501687741277,27.04801376953125C20.121801687741282,27.04801376953125,20.73000168774128,26.99231376953125,21.32760168774128,26.88191376953125C20.73000168774128,26.99231376953125,20.12190168774128,27.04791376953125,19.506501687741277,27.04801376953125ZM19.390701687741277,16.436743769531247C19.27910168774128,16.46480376953125,19.17622168774128,16.52215376953125,19.09180168774128,16.606573769531252C18.85988168774128,16.83851376953125,18.838791687741278,17.21571376953125,19.03792168774128,17.47101376953125C19.044951687741282,17.48041376953125,19.051981687741282,17.48741376953125,19.05901168774128,17.49441376953125L24.78930168774128,23.22241376953125L25.05870168774128,23.49651376953125C25.10080168774128,23.53861376953125,25.12430168774128,23.59951376953125,25.11960168774128,23.66041376953125C25.11720168774128,23.72141376953125,25.08680168774128,23.77991376953125,25.03760168774128,23.81741376953125C24.05910168774128,24.58291376953125,22.86950168774128,25.15241376953125,21.635501687741282,25.46581376953125C22.86960168774128,25.15241376953125,24.059301687741282,24.58291376953125,25.03760168774128,23.81741376953125C25.087001687741278,23.77991376953125,25.11750168774128,23.72131376953125,25.11960168774128,23.66041376953125C25.12450168774128,23.59951376953125,25.101101687741277,23.53861376953125,25.05870168774128,23.49651376953125L24.78930168774128,23.22241376953125L19.05901168774128,17.49441376953125C19.052211687741277,17.48741376953125,19.04518168774128,17.48031376953125,19.03792168774128,17.47101376953125C18.83902168774128,17.215613769531252,18.860101687741277,16.83841376953125,19.09180168774128,16.606573769531252C19.17640168774128,16.52215376953125,19.27910168774128,16.46482376953125,19.390701687741277,16.436743769531247ZM29.04600168774128,17.635413769531247C29.01550168774128,17.64321376953125,28.98420168774128,17.648613769531252,28.95250168774128,17.65131376953125C28.93140168774128,17.65371376953125,28.91500168774128,17.65371376953125,28.89390168774128,17.65371376953125C28.71820168774128,17.65371376953125,28.55420168774128,17.58581376953125,28.43240168774128,17.46391376953125C28.31060168774128,17.342113769531252,28.24260168774128,17.17581376953125,28.24260168774128,17.002413769531252C28.24260168774128,15.04159376953125,27.570301687741278,13.118233769531251,26.35440168774128,11.579073769531249C25.13860168774128,10.04226376953125,23.41670168774128,8.94821376953125,21.51200168774128,8.49841376953125C20.85140168774128,8.34380376953125,20.17670168774128,8.26180376953125,19.49970168774128,8.26180376953125C18.78083168774128,8.26180376953125,18.06761168774128,8.35085376953125,17.37575168774128,8.52456376953125C18.06754168774128,8.35089376953125,18.78068168774128,8.26186376953125,19.49970168774128,8.26180376953125C20.17650168774128,8.26186376953125,20.85120168774128,8.34385376953125,21.51200168774128,8.49841376953125C23.416401687741278,8.94827376953125,25.13830168774128,10.04231376953125,26.35440168774128,11.579073769531249C27.57010168774128,13.11828376953125,28.24240168774128,15.04164376953125,28.24260168774128,17.002413769531252C28.24240168774128,17.17581376953125,28.31030168774128,17.34221376953125,28.43240168774128,17.46391376953125C28.55400168774128,17.58581376953125,28.71800168774128,17.65381376953125,28.89390168774128,17.65371376953125C28.914801687741278,17.65381376953125,28.93120168774128,17.65381376953125,28.95250168774128,17.65131376953125C28.98410168774128,17.64871376953125,29.015401687741278,17.64321376953125,29.04600168774128,17.635413769531247ZM13.919951687741278,16.77271376953125Q13.82123168774128,19.14951376953125,15.47242168774128,20.86541376953125Q17.123041687741278,22.58401376953125,19.49910168774128,22.58401376953125Q19.87960168774128,22.58401376953125,20.15520168774128,22.30331376953125L20.15880168774128,22.29971376953125L20.16220168774128,22.29591376953125Q20.42850168774128,22.00011376953125,20.384701687741277,21.60571376953125Q20.348101687741277,21.27941376953125,20.08030168774128,21.046813769531248Q19.81590168774128,20.81721376953125,19.482101687741277,20.81481376953125Q17.87050168774128,20.80801376953125,16.74855168774128,19.63801376953125Q15.63187168774128,18.47351376953125,15.693491687741279,16.85421376953125Q15.75523168774128,15.38643376953125,16.78864168774128,14.335953769531251Q17.82756168774128,13.279893769531249,19.28910168774128,13.201163769531249Q19.39960168774128,13.19447376953125,19.50380168774128,13.19447376953125Q21.07990168774128,13.19447376953125,22.19690168774128,14.31154376953125Q23.314001687741282,15.42860376953125,23.314001687741282,17.00461376953125Q23.314001687741282,17.373013769531248,23.57210168774128,17.63111376953125Q23.83020168774128,17.88921376953125,24.19860168774128,17.88921376953125Q24.24420168774128,17.88921376953125,24.27580168774128,17.88581376953125Q24.61950168774128,17.85571376953125,24.853901687741278,17.59271376953125Q25.08790168774128,17.330213769531248,25.08560168774128,16.97731376953125Q25.07640168774128,14.67786376953125,23.43970168774128,13.047103769531251Q21.80250168774128,11.41589376953125,19.501501687741282,11.41589376953125Q19.38630168774128,11.41589376953125,19.32740168774128,11.41845376953125Q17.14304168774128,11.48251376953125,15.575251687741279,13.03456376953125Q14.00801168774128,14.58605376953125,13.919951687741278,16.77271376953125ZM19.49940168774128,22.35061376953125C18.03050168774128,22.35061376953125,16.66236168774128,21.76731376953125,15.640941687741279,20.703713769531248C14.62187168774128,19.64481376953125,14.092421687741279,18.24861376953125,14.153331687741279,16.78201376953125C14.154651687741278,16.749013769531253,14.15621168774128,16.71616376953125,14.15799168774128,16.68334376953125C14.156061687741278,16.71618376953125,14.15443168774128,16.74911376953125,14.153331687741279,16.78201376953125C14.09219168774128,18.24861376953125,14.62164168774128,19.64491376953125,15.640941687741279,20.703713769531248C16.66213168774128,21.767413769531252,18.03027168774128,22.35071376953125,19.49940168774128,22.35061376953125C19.55270168774128,22.35071376953125,19.605401687741278,22.34401376953125,19.65650168774128,22.331413769531252C19.60550168774128,22.34401376953125,19.55280168774128,22.35061376953125,19.49940168774128,22.35061376953125ZM19.38060168774128,12.96215376953125C19.384301687741278,12.962363769531251,19.38840168774128,12.96259376953125,19.39240168774128,12.96285376953125C19.413401687741278,12.96221376953125,19.43420168774128,12.96175376953125,19.45510168774128,12.96147376953125C19.43340168774128,12.96113376953125,19.41180168774128,12.960953769531251,19.39010168774128,12.960953769531251C19.359601687741282,12.960953769531251,19.36670168774128,12.96136376953125,19.38060168774128,12.96215376953125ZM23.54370168774128,16.83061376953125C23.546101687741277,16.88831376953125,23.54730168774128,16.94631376953125,23.54730168774128,17.00461376953125C23.54730168774128,17.178013769531248,23.61530168774128,17.34431376953125,23.73710168774128,17.466113769531248C23.85890168774128,17.58801376953125,24.02290168774128,17.65591376953125,24.19860168774128,17.65591376953125C24.21740168774128,17.65591376953125,24.233801687741277,17.65591376953125,24.25250168774128,17.653613769531248C24.28680168774128,17.65071376953125,24.32040168774128,17.64511376953125,24.35300168774128,17.636913769531247C24.32040168774128,17.64511376953125,24.28700168774128,17.65071376953125,24.25250168774128,17.653613769531248C24.23400168774128,17.65581376953125,24.21760168774128,17.65581376953125,24.19860168774128,17.65591376953125C24.02310168774128,17.65581376953125,23.85910168774128,17.587913769531248,23.73710168774128,17.466113769531248C23.61550168774128,17.34431376953125,23.547601687741277,17.17791376953125,23.54730168774128,17.00461376953125C23.547601687741277,16.94631376953125,23.546301687741277,16.88831376953125,23.54370168774128,16.83061376953125ZM19.41780168774128,11.64953376953125C19.431801687741277,11.64980376953125,19.44780168774128,11.65036376953125,19.41970168774128,11.65159376953125C19.20734168774128,11.657713769531249,19.001511687741278,11.67207376953125,18.80216168774128,11.69432376953125C18.978141687741278,11.67127376953125,19.15674168774128,11.65687376953125,19.33750168774128,11.65157376953125C19.36390168774128,11.650423769531251,19.39090168774128,11.64983376953125,19.41780168774128,11.64953376953125Z" fill-rule="evenodd" fill="#FFFFFF" fill-opacity="1" style="mix-blend-mode:passthrough"/></g></g></g></svg>