<svg xmlns="http://www.w3.org/2000/svg" xmlns:xlink="http://www.w3.org/1999/xlink" fill="none" version="1.1" width="13.999866485595703" height="16.428348541259766" viewBox="0 0 13.999866485595703 16.428348541259766"><defs><clipPath id="master_svg0_425_24229/5_5875"><rect x="0" y="0" width="13.999866485595703" height="16.428348541259766" rx="0"/></clipPath></defs><g clip-path="url(#master_svg0_425_24229/5_5875)"><g><path d="M6.76191890625,16.113774267578123C6.79349890625,16.145374267578127,6.83098890625,16.170474267578125,6.87224890625,16.187574267578125C6.91351890625,16.204674267578127,6.95774890625,16.213474267578125,7.00241890625,16.213474267578125C7.04708890625,16.213474267578125,7.09131890625,16.204674267578127,7.13257890625,16.187574267578125C7.17384890625,16.170474267578125,7.21133890625,16.145374267578127,7.24291890625,16.113774267578123C7.24291890625,16.113774267578123,12.07182890625,11.278874267578125,12.08482890625,11.259874267578125C12.91702890625,10.287574267578124,13.45292890625,9.097194267578125,13.62922890625,7.829684267578125C13.80542890625,6.562174267578125,13.61462890625,5.270704267578125,13.07942890625,4.108314267578125C12.54412890625,2.945934267578125,11.68682890625,1.961374267578125,10.60912890625,1.271314267578125C9.53140890625,0.581252267578125,8.27844890625,0.214622685578125,6.99874890625,0.214874397101125C5.71903890625,0.215126108578125,4.46622890625,0.582248267578125,3.38878890625,1.272734267578125C2.31134890625,1.963214267578125,1.45444890625,2.948114267578125,0.91963690625,4.110714267578125C0.38482530625,5.273304267578125,0.19452490625000002,6.564854267578125,0.37128970625,7.832294267578125C0.5480539062500001,9.099734267578125,1.0844719062500001,10.289974267578126,1.91696890625,11.261874267578126C1.93196890625,11.280874267578126,6.76191890625,16.113774267578123,6.76191890625,16.113774267578123C6.76191890625,16.113774267578123,6.76191890625,16.113774267578123,6.76191890625,16.113774267578123C6.76191890625,16.113774267578123,6.76191890625,16.113774267578123,6.76191890625,16.113774267578123ZM7.00091890625,3.852904267578125C7.37859890625,3.852904267578125,7.75257890625,3.927294267578125,8.10149890625,4.071824267578124C8.45042890625,4.216354267578125,8.76747890625,4.428194267578125,9.03453890625,4.695254267578125C9.30159890625,4.962314267578125,9.51343890625,5.279354267578125,9.65796890625,5.628284267578125C9.80249890625,5.977214267578125,9.87688890625,6.351194267578125,9.87688890625,6.728874267578125C9.87688890625,7.106554267578125,9.80249890625,7.480534267578125,9.65796890625,7.829454267578125C9.51343890625,8.178384267578124,9.30159890625,8.495434267578124,9.03453890625,8.762494267578125C8.76747890625,9.029554267578124,8.45042890625,9.241394267578125,8.10149890625,9.385924267578124C7.75257890625,9.530454267578126,7.37859890625,9.604844267578125,7.00091890625,9.604844267578125C6.62323890625,9.604844267578125,6.24925890625,9.530454267578126,5.90032890625,9.385924267578124C5.55139890625,9.241394267578125,5.23435890625,9.029554267578124,4.96729890625,8.762494267578125C4.70023890625,8.495434267578124,4.48839890625,8.178384267578124,4.34386890625,7.829454267578125C4.19933890625,7.480534267578125,4.12494890625,7.106554267578125,4.12494890625,6.728874267578125C4.12494890625,6.351194267578125,4.19933890625,5.977214267578125,4.34386890625,5.628284267578125C4.48839890625,5.279354267578125,4.70023890625,4.962314267578125,4.96729890625,4.695254267578125C5.23435890625,4.428194267578125,5.55139890625,4.216354267578125,5.90032890625,4.071824267578124C6.24925890625,3.927294267578125,6.62323890625,3.852904267578125,7.00091890625,3.852904267578125C7.00091890625,3.852904267578125,7.00091890625,3.852904267578125,7.00091890625,3.852904267578125Z" fill="gray" fill-opacity="1"/></g></g></svg>