<svg xmlns="http://www.w3.org/2000/svg" xmlns:xlink="http://www.w3.org/1999/xlink" fill="none" version="1.1" width="27" height="27" viewBox="0 0 27 27"><defs><radialGradient cx="0" cy="0" r="1" gradientUnits="userSpaceOnUse" id="master_svg0_5_5843" gradientTransform="translate(13.500000953674316 13.5) rotate(90) scale(12.5 12.500000953674316)"><stop offset="5.9739600867033005%" stop-color="#FFD500" stop-opacity="0"/><stop offset="100%" stop-color="#FFD500" stop-opacity="1"/></radialGradient><filter id="master_svg1_488_22941/5_5840" filterUnits="objectBoundingBox" color-interpolation-filters="sRGB" x="-2.1666666666666665" y="-2.1666666666666665" width="5.333333333333333" height="5.333333333333333"><feFlood flood-opacity="0" result="BackgroundImageFix"/><feColorMatrix in="SourceAlpha" type="matrix" values="0 0 0 0 0 0 0 0 0 0 0 0 0 0 0 0 0 0 127 0"/><feMorphology radius="3" operator="dilate" in="SourceAlpha" result="effect1_dropShadow"/><feOffset dy="0" dx="0"/><feGaussianBlur stdDeviation="2.5"/><feColorMatrix type="matrix" values="0 0 0 0 1 0 0 0 0 0.8999999761581421 0 0 0 0 0 0 0 0 0.7400000095367432 0"/><feBlend mode="normal" in2="BackgroundImageFix" result="effect1_dropShadow"/><feBlend mode="normal" in="SourceGraphic" in2="effect1_dropShadow" result="shape"/></filter></defs><g><g><path d="M25.5,13.5Q25.5,13.7946,25.4855,14.0888Q25.4711,14.383,25.4422,14.6762Q25.4133,14.9694,25.3701,15.2608Q25.3269,15.5522,25.2694,15.8411Q25.212,16.130000000000003,25.1404,16.4158Q25.0688,16.7015,24.9833,16.9834Q24.8978,17.2653,24.7985,17.5427Q24.6993,17.82,24.5866,18.0922Q24.4738,18.3644,24.3479,18.6307Q24.2219,18.897,24.0831,19.1568Q23.9442,19.4166,23.7927,19.6692Q23.6413,19.9219,23.4776,20.1668Q23.314,20.4118,23.1385,20.6484Q22.963,20.885,22.7761,21.1127Q22.5892,21.3404,22.3914,21.5587Q22.1936,21.777,21.9853,21.9853Q21.777,22.1936,21.5587,22.3914Q21.3404,22.5892,21.1127,22.7761Q20.885,22.963,20.6484,23.1385Q20.4118,23.314,20.1668,23.4776Q19.9219,23.6413,19.6692,23.7927Q19.4166,23.9442,19.1568,24.0831Q18.897,24.2219,18.6307,24.3479Q18.3644,24.4738,18.0922,24.5866Q17.82,24.6993,17.5427,24.7985Q17.2653,24.8978,16.9834,24.9833Q16.7015,25.0688,16.4158,25.1404Q16.130000000000003,25.212,15.8411,25.2694Q15.5522,25.3269,15.2608,25.3701Q14.9694,25.4133,14.6762,25.4422Q14.383,25.4711,14.0888,25.4855Q13.7946,25.5,13.5,25.5Q13.2054,25.5,12.9112,25.4855Q12.617,25.4711,12.3238,25.4422Q12.0306,25.4133,11.7392,25.3701Q11.44784,25.3269,11.15892,25.2694Q10.86999,25.212,10.58424,25.1404Q10.29848,25.0688,10.01658,24.9833Q9.73468,24.8978,9.45732,24.7985Q9.179960000000001,24.6993,8.9078,24.5866Q8.63564,24.4738,8.369340000000001,24.3479Q8.10304,24.2219,7.84324,24.0831Q7.58344,23.9442,7.33077,23.7927Q7.07809,23.6413,6.83316,23.4776Q6.58822,23.314,6.35161,23.1385Q6.115,22.963,5.88728,22.7761Q5.65956,22.5892,5.44129,22.3914Q5.22302,22.1936,5.0147200000000005,21.9853Q4.80642,21.777,4.6085899999999995,21.5587Q4.41076,21.3404,4.22387,21.1127Q4.036989999999999,20.885,3.86151,20.6484Q3.68603,20.4118,3.52236,20.1668Q3.3587,19.9219,3.2072599999999998,19.6692Q3.05581,19.4166,2.9169400000000003,19.1568Q2.77808,18.897,2.65213,18.6307Q2.52618,18.3644,2.413446,18.0922Q2.300713,17.82,2.2014709999999997,17.5427Q2.102229,17.2653,2.0167159999999997,16.9834Q1.931203,16.7015,1.8596249999999999,16.4158Q1.788047,16.130000000000003,1.730577,15.8411Q1.673106,15.5522,1.629882,15.2608Q1.5866575,14.9694,1.5577833,14.6762Q1.528909,14.383,1.5144545,14.0888Q1.5,13.7946,1.5,13.5Q1.5,13.2054,1.5144545,12.9112Q1.528909,12.617,1.5577833,12.3238Q1.5866575,12.0306,1.629882,11.7392Q1.673106,11.44784,1.730577,11.15892Q1.788047,10.86999,1.8596249999999999,10.58424Q1.931203,10.29848,2.0167159999999997,10.01658Q2.102229,9.73468,2.2014709999999997,9.45732Q2.300713,9.179960000000001,2.413446,8.9078Q2.52618,8.63564,2.65213,8.369340000000001Q2.77808,8.10304,2.9169400000000003,7.84324Q3.05581,7.58344,3.2072599999999998,7.33077Q3.3587,7.07809,3.52236,6.83316Q3.68603,6.58822,3.86151,6.35161Q4.036989999999999,6.115,4.22387,5.88728Q4.41076,5.65956,4.6085899999999995,5.44129Q4.80642,5.22302,5.0147200000000005,5.0147200000000005Q5.22302,4.80642,5.44129,4.6085899999999995Q5.65956,4.41076,5.88728,4.22387Q6.115,4.036989999999999,6.35161,3.86151Q6.58822,3.68603,6.83316,3.52236Q7.07809,3.3587,7.33077,3.2072599999999998Q7.58344,3.05581,7.84324,2.9169400000000003Q8.10304,2.77808,8.369340000000001,2.65213Q8.63564,2.52618,8.9078,2.413446Q9.179960000000001,2.300713,9.45732,2.2014709999999997Q9.73468,2.102229,10.01658,2.0167159999999997Q10.29848,1.931203,10.58424,1.8596249999999999Q10.86999,1.788047,11.15892,1.730577Q11.44784,1.673106,11.7392,1.629882Q12.0306,1.5866575,12.3238,1.5577833Q12.617,1.528909,12.9112,1.5144545Q13.2054,1.5,13.5,1.5Q13.7946,1.5,14.0888,1.5144545Q14.383,1.528909,14.6762,1.5577833Q14.9694,1.5866575,15.2608,1.629882Q15.5522,1.673106,15.8411,1.730577Q16.130000000000003,1.788047,16.4158,1.8596249999999999Q16.7015,1.931203,16.9834,2.0167159999999997Q17.2653,2.102229,17.5427,2.2014709999999997Q17.82,2.300713,18.0922,2.413446Q18.3644,2.52618,18.6307,2.65213Q18.897,2.77808,19.1568,2.9169400000000003Q19.4166,3.05581,19.6692,3.2072599999999998Q19.9219,3.3587,20.1668,3.52236Q20.4118,3.68603,20.6484,3.86151Q20.885,4.036989999999999,21.1127,4.22387Q21.3404,4.41076,21.5587,4.6085899999999995Q21.777,4.80642,21.9853,5.0147200000000005Q22.1936,5.22302,22.3914,5.44129Q22.5892,5.65956,22.7761,5.88728Q22.963,6.115,23.1385,6.35161Q23.314,6.58822,23.4776,6.83316Q23.6413,7.07809,23.7927,7.33077Q23.9442,7.58344,24.0831,7.84324Q24.2219,8.10304,24.3479,8.369340000000001Q24.4738,8.63564,24.5866,8.9078Q24.6993,9.179960000000001,24.7985,9.45732Q24.8978,9.73468,24.9833,10.01658Q25.0688,10.29848,25.1404,10.58424Q25.212,10.86999,25.2694,11.15892Q25.3269,11.44784,25.3701,11.7392Q25.4133,12.0306,25.4422,12.3238Q25.4711,12.617,25.4855,12.9112Q25.5,13.2054,25.5,13.5Z" fill="#655102" fill-opacity="1"/></g><g><path d="M1,13.5Q1,15.8843,1.877646,18.1012Q2.8305800000000003,20.5082,4.66117,22.3388Q6.31326,23.9909,8.43492,24.9282C8.68751,25.0398,8.98122,24.9142,9.08286,24.6575C9.18451,24.4007,9.05997,24.1119,8.80771,23.9996Q6.87557,23.139,5.36827,21.6317Q3.68414,19.9476,2.80743,17.7331Q2,15.6936,2,13.5Q2,11.3064,2.80743,9.26691Q3.68414,7.05241,5.36827,5.36827Q7.05241,3.68414,9.26691,2.80743Q11.3064,2,13.5,2Q15.6936,2,17.7331,2.80743Q19.9465,3.68371,21.6301,5.36664L21.6334,5.3699Q23.3163,7.05347,24.1926,9.26691Q25,11.3064,25,13.5Q25,15.6936,24.1926,17.7331Q23.3159,19.9476,21.6317,21.6317Q19.9476,23.3159,17.7331,24.1926Q15.923,24.9092,13.9916,24.9898C13.7157,25.0013,13.5,25.2239,13.5,25.5C13.5,25.7761,13.7229,26.0011,13.9989,25.9903Q16.1171,25.9078,18.1012,25.1224Q20.5083,24.1694,22.3388,22.3388Q24.1694,20.5083,25.1224,18.1012Q26,15.8843,26,13.5Q26,11.1157,25.1224,8.89882Q24.1694,6.49174,22.3388,4.66117Q20.5082,2.8305800000000003,18.1012,1.877646Q15.8843,1,13.5,1Q11.1157,1,8.89882,1.877646Q6.49175,2.8305800000000003,4.66117,4.66117Q2.83139,6.49094,1.878484,8.8967L1.876798,8.900960000000001Q1,11.1169,1,13.5Z" fill="url(#master_svg0_5_5843)" fill-opacity="1"/></g><g filter="url(#master_svg1_488_22941/5_5840)"><ellipse cx="13.5" cy="13.5" rx="3" ry="3" fill="#FFFFFF" fill-opacity="1"/></g></g></svg>