<svg xmlns="http://www.w3.org/2000/svg" xmlns:xlink="http://www.w3.org/1999/xlink" fill="none" version="1.1" width="42" height="42" viewBox="0 0 42 42"><defs><linearGradient x1="0.5" y1="0" x2="0.5" y2="1" id="master_svg0_488_25368"><stop offset="2.142857201397419%" stop-color="#1BFFB7" stop-opacity="0.7099999785423279"/><stop offset="16.428571939468384%" stop-color="#00FFA6" stop-opacity="0.46000000834465027"/><stop offset="100%" stop-color="#00936A" stop-opacity="0.20000000298023224"/></linearGradient><filter id="master_svg1_488_19255" filterUnits="objectBoundingBox" color-interpolation-filters="sRGB" x="0" y="0" width="1" height="1"><feFlood flood-opacity="0" result="BackgroundImageFix"/><feBlend mode="normal" in="SourceGraphic" in2="BackgroundImageFix" result="shape"/><feColorMatrix in="SourceAlpha" type="matrix" result="hardAlpha" values="0 0 0 0 0 0 0 0 0 0 0 0 0 0 0 0 0 0 127 0"/><feOffset dy="0" dx="0"/><feGaussianBlur stdDeviation="4"/><feComposite in2="hardAlpha" operator="arithmetic" k2="-1" k3="1"/><feColorMatrix type="matrix" values="0 0 0 0 0 0 0 0 0 0.7450980544090271 0 0 0 0 0.5339869260787964 0 0 0 0.30000001192092896 0"/><feBlend mode="normal" in2="shape" result="effect1_innerShadow"/></filter><linearGradient x1="0.5" y1="0" x2="0.5" y2="1" id="master_svg2_488_25380"><stop offset="0.7142857182770967%" stop-color="#4AFFA8" stop-opacity="1"/><stop offset="8.584871888160706%" stop-color="#79FFE9" stop-opacity="0"/></linearGradient></defs><g><g><rect x="0" y="0" width="42" height="42" rx="0" fill="url(#master_svg0_488_25368)" fill-opacity="1"/><path d="M42,0L0,0L0,1L42,1L42,0ZM42,41L0,41L0,42L42,42L42,41Z" fill-rule="evenodd" fill="#79FFD5" fill-opacity="0.30000001192092896"/></g><g filter="url(#master_svg1_488_19255)"><rect x="5.25" y="5.25" width="31.5" height="31.5" rx="0" fill="#005037" fill-opacity="0.10000000149011612"/><rect x="5.25" y="5.25" width="31.5" height="31.5" rx="0" fill="url(#master_svg2_488_25380)" fill-opacity="0.30000001192092896"/><rect x="5.5" y="5.5" width="31" height="31" rx="0" fill-opacity="0" stroke-opacity="0.30000001192092896" stroke="#79FFD5" fill="none" stroke-width="0.5"/></g><g><g><g><path d="M21.00486,11.8125L26.241300000000003,16.43898C29.9068,19.75609,29.7322,25.517400000000002,25.8049,28.4853C23.01216,30.7549,18.99757,30.7549,16.117539999999998,28.4853C12.277507,25.4301,12.10296,19.66879,15.76845,16.43898L21.00486,11.8125ZM21.00327,13.945219999999999L25.1995,17.65266C28.1368,20.31083,27.997,24.9277,24.849800000000002,27.305999999999997C22.61181,29.1248,19.39472,29.1248,17.0868,27.305999999999997C14.00958,24.8577,13.869706,20.24088,16.80705,17.65266L21.00327,13.945219999999999Z" fill-rule="evenodd" fill="#FFFFFF" fill-opacity="1"/></g><g><path d="M21,18.375L21,26.25C23.205,26.25,24.9375,24.5175,24.9375,22.3125C24.9375,20.1075,23.205,18.374999279022,21,18.375Z" fill="#FFFFFF" fill-opacity="1"/></g></g></g></g></svg>