<svg xmlns="http://www.w3.org/2000/svg" xmlns:xlink="http://www.w3.org/1999/xlink" fill="none" version="1.1" width="45.6806640625" height="39.722900390625" viewBox="0 0 45.6806640625 39.722900390625"><defs><linearGradient x1="0.5" y1="0" x2="0.5" y2="1" id="master_svg0_436_26084"><stop offset="31.66660964488983%" stop-color="#FFFFFF" stop-opacity="1"/><stop offset="78.09517979621887%" stop-color="#FFE381" stop-opacity="1"/></linearGradient></defs><g transform="matrix(-1,0,-0.11749928444623947,0.9930729866027832,91.361328125,0)"><g><path d="M66.1716109375,36.66661298828125C64.03721093749999,36.66661298828125,50.8037109375,26.61751298828125,50.8037109375,18.33331298828125C50.8037109375,10.04914298828125,57.684250937499996,3.33331298828125,66.1716109375,3.33331298828125C74.6589109375,3.33331298828125,81.5395109375,10.04914298828125,81.5395109375,18.33331298828125C81.5395109375,26.61751298828125,68.3060109375,36.66661298828125,66.1716109375,36.66661298828125ZM66.1716109375,22.91661298828125C68.7649109375,22.91661298828125,70.86731093750001,20.86451298828125,70.86731093750001,18.33331298828125C70.86731093750001,15.80201298828125,68.7649109375,13.75001298828125,66.1716109375,13.75001298828125C63.5782109375,13.75001298828125,61.4758109375,15.80201298828125,61.4758109375,18.33331298828125C61.4758109375,20.86451298828125,63.5782109375,22.91661298828125,66.1716109375,22.91661298828125Z" fill="url(#master_svg0_436_26084)" fill-opacity="1"/></g></g></svg>