<svg xmlns="http://www.w3.org/2000/svg" xmlns:xlink="http://www.w3.org/1999/xlink" fill="none" version="1.1" width="112" height="80" viewBox="0 0 112 80"><defs><clipPath id="master_svg0_1273_045148"><rect x="112" y="0" width="112" height="80" rx="0"/></clipPath></defs><g transform="matrix(-1,0,0,1,224,0)" clip-path="url(#master_svg0_1273_045148)"><g><path d="M35,102L35,94L37,94L37,102L35,102ZM35,86L35,78L37,78L37,86L35,86ZM35,70L35,62L37,62L37,70L35,70ZM35,54L35,46L37,46L37,54L35,54ZM35,38Q35,33.649699999999996,37.08961,29.8342L38.84377,30.79488Q37,34.161500000000004,37,38L35,38ZM42.94094,23.61482Q46.6454,21.28191,51.016,21.028503L51.1318,23.02515Q47.2754,23.24874,44.00671,25.30719L42.94094,23.61482ZM59.0292,21L67.0292,21L67.0292,23L59.0292,23L59.0292,21ZM75.0292,21L83.0292,21L83.0292,23L75.0292,23L75.0292,21ZM91.0292,21L99.0292,21L99.0292,23L91.0292,23L91.0292,21ZM107.0292,21L115.0292,21L115.0292,23L107.0292,23L107.0292,21ZM123.0292,21L131.0292,21L131.0292,23L123.0292,23L123.0292,21ZM139.029,21L147.029,21L147.029,23L139.029,23L139.029,21ZM155.029,21L163.029,21L163.029,23L155.029,23L155.029,21ZM171.029,21L179.029,21L179.029,23L171.029,23L171.029,21ZM187.029,21L195.029,21L195.029,23L187.029,23L187.029,21ZM203.029,21L211.029,21L211.029,23L203.029,23L203.029,21ZM219.029,21L227.029,21L227.029,23L219.029,23L219.029,21ZM235.029,21L243.029,21L243.029,23L235.029,23L235.029,21ZM251.029,21L259.029,21L259.029,23L251.029,23L251.029,21ZM267.029,21L275.029,21L275.029,23L267.029,23L267.029,21ZM283.029,21.000025Q287.38,21.007524,291.193,23.10456L290.22900000000004,24.85697Q286.865,23.00664,283.026,23.00002L283.029,21.000025ZM297.402,28.96744Q299.728,32.6756,299.973,37.0459L297.976,37.1581Q297.76,33.3019,295.708,30.030099999999997L297.402,28.96744ZM300,45.0584L300,53.0584L298,53.0584L298,45.0584L300,45.0584ZM300,61.0584L300,69.0584L298,69.0584L298,61.0584L300,61.0584ZM300,77.0584L300,85.0584L298,85.0584L298,77.0584L300,77.0584ZM300,93.0584L300,101.0584L298,101.0584L298,93.0584L300,93.0584ZM300,109.0584L300,117.0584L298,117.0584L298,109.0584L300,109.0584ZM298.363,125.278Q296.478,129.257,292.899,131.821L291.73400000000004,130.195Q294.893,127.933,296.556,124.422L298.363,125.278ZM284.956,134.887Q283.981,135,283,135L276.91200000000003,135L276.91200000000003,133L283,133Q283.866,133,284.726,132.9L284.956,134.887ZM268.91200000000003,135L260.91200000000003,135L260.91200000000003,133L268.91200000000003,133L268.91200000000003,135ZM252.912,135L244.912,135L244.912,133L252.912,133L252.912,135ZM236.912,135L228.912,135L228.912,133L236.912,133L236.912,135ZM220.912,135L212.912,135L212.912,133L220.912,133L220.912,135ZM204.912,135L196.912,135L196.912,133L204.912,133L204.912,135ZM188.912,135L180.912,135L180.912,133L188.912,133L188.912,135ZM172.912,135L164.912,135L164.912,133L172.912,133L172.912,135ZM156.912,135L148.912,135L148.912,133L156.912,133L156.912,135ZM140.912,135L132.9124,135L132.9124,133L140.912,133L140.912,135ZM124.9124,135L116.9124,135L116.9124,133L124.9124,133L124.9124,135ZM108.9124,135L100.9124,135L100.9124,133L108.9124,133L108.9124,135ZM92.91239999999999,135L84.91239999999999,135L84.91239999999999,133L92.91239999999999,133L92.91239999999999,135ZM76.91239999999999,135L68.91239999999999,135L68.91239999999999,133L76.91239999999999,133L76.91239999999999,135ZM60.912400000000005,135L52.912400000000005,135L52.912400000000005,133L60.912400000000005,133L60.912400000000005,135ZM44.694050000000004,133.35Q40.71821,131.458,38.16093,127.873L39.78906,126.712Q42.04549,129.874,45.55358,131.54399999999998L44.694050000000004,133.35ZM35.109443,119.9259Q35,118.9661,35,118L35,110L37,110L37,118Q37,118.8524,37.09657,119.6993L35.109443,119.9259Z" fill="#32F3FF" fill-opacity="1"/></g></g></svg>