<svg xmlns="http://www.w3.org/2000/svg" xmlns:xlink="http://www.w3.org/1999/xlink" fill="none" version="1.1" width="22" height="2" viewBox="0 0 22 2"><defs><clipPath id="master_svg0_1289_045110"><rect x="22" y="0" width="22" height="2" rx="0"/></clipPath></defs><g transform="matrix(-1,0,0,1,44,0)" clip-path="url(#master_svg0_1289_045110)"><g><path d="M-107,81L-107,73L-105,73L-105,81L-107,81ZM-107,65L-107,57L-105,57L-105,65L-107,65ZM-107,49L-107,41L-105,41L-105,49L-107,49ZM-107,33L-107,25L-105,25L-105,33L-107,33ZM-107,17Q-107,12.6497,-104.91039,8.8342L-103.15623,9.79488Q-105,13.1615,-105,17L-107,17ZM-99.05906,2.61482Q-95.3546,0.28191,-90.984,0.028502999999999945L-90.8682,2.02515Q-94.7246,2.2487399999999997,-97.99329,4.30719L-99.05906,2.61482ZM-82.9708,0L-74.9708,0L-74.9708,2L-82.9708,2L-82.9708,0ZM-66.9708,0L-58.9708,0L-58.9708,2L-66.9708,2L-66.9708,0ZM-50.9708,0L-42.9708,0L-42.9708,2L-50.9708,2L-50.9708,0ZM-34.9708,0L-26.970799999999997,0L-26.970799999999997,2L-34.9708,2L-34.9708,0ZM-18.970799999999997,0L-10.970799999999997,0L-10.970799999999997,2L-18.970799999999997,2L-18.970799999999997,0ZM-2.9710000000000036,0L5.028999999999996,0L5.028999999999996,2L-2.9710000000000036,2L-2.9710000000000036,0ZM13.028999999999996,0L21.028999999999996,0L21.028999999999996,2L13.028999999999996,2L13.028999999999996,0ZM29.028999999999996,0L37.028999999999996,0L37.028999999999996,2L29.028999999999996,2L29.028999999999996,0ZM45.028999999999996,0L53.028999999999996,0L53.028999999999996,2L45.028999999999996,2L45.028999999999996,0ZM61.028999999999996,0L69.029,0L69.029,2L61.028999999999996,2L61.028999999999996,0ZM77.029,0L85.029,0L85.029,2L77.029,2L77.029,0ZM93.029,0L101.029,0L101.029,2L93.029,2L93.029,0ZM109.029,0L117.029,0L117.029,2L109.029,2L109.029,0ZM125.029,0L133.029,0L133.029,2L125.029,2L125.029,0ZM141.029,0.000025000000000052758Q145.38,0.007523999999999975,149.193,2.10456L148.229,3.85697Q144.865,2.00664,141.026,2.00002L141.029,0.000025000000000052758ZM155.402,7.96744Q157.728,11.6756,157.973,16.0459L155.976,16.158099999999997Q155.76,12.3019,153.70800000000003,9.0301L155.402,7.96744ZM158,24.0584L158,32.0584L156,32.0584L156,24.0584L158,24.0584ZM158,40.0584L158,48.0584L156,48.0584L156,40.0584L158,40.0584ZM158,56.0584L158,64.0584L156,64.0584L156,56.0584L158,56.0584ZM158,72.0584L158,80.0584L156,80.0584L156,72.0584L158,72.0584ZM158,88.0584L158,96.0584L156,96.0584L156,88.0584L158,88.0584ZM156.363,104.278Q154.478,108.257,150.899,110.821L149.734,109.195Q152.89299999999997,106.933,154.55599999999998,103.422L156.363,104.278ZM142.956,113.887Q141.981,114,141,114L134.912,114L134.912,112L141,112Q141.866,112,142.726,111.9L142.956,113.887ZM126.912,114L118.912,114L118.912,112L126.912,112L126.912,114ZM110.912,114L102.912,114L102.912,112L110.912,112L110.912,114ZM94.912,114L86.912,114L86.912,112L94.912,112L94.912,114ZM78.912,114L70.912,114L70.912,112L78.912,112L78.912,114ZM62.912000000000006,114L54.912000000000006,114L54.912000000000006,112L62.912000000000006,112L62.912000000000006,114ZM46.912000000000006,114L38.912000000000006,114L38.912000000000006,112L46.912000000000006,112L46.912000000000006,114ZM30.912000000000006,114L22.912000000000006,114L22.912000000000006,112L30.912000000000006,112L30.912000000000006,114ZM14.912000000000006,114L6.912000000000006,114L6.912000000000006,112L14.912000000000006,112L14.912000000000006,114ZM-1.0879999999999939,114L-9.087599999999995,114L-9.087599999999995,112L-1.0879999999999939,112L-1.0879999999999939,114ZM-17.087599999999995,114L-25.087599999999995,114L-25.087599999999995,112L-17.087599999999995,112L-17.087599999999995,114ZM-33.087599999999995,114L-41.087599999999995,114L-41.087599999999995,112L-33.087599999999995,112L-33.087599999999995,114ZM-49.0876,114L-57.0876,114L-57.0876,112L-49.0876,112L-49.0876,114ZM-65.08760000000001,114L-73.08760000000001,114L-73.08760000000001,112L-65.08760000000001,112L-65.08760000000001,114ZM-81.0876,114L-89.0876,114L-89.0876,112L-81.0876,112L-81.0876,114ZM-97.30595,112.35Q-101.28179,110.458,-103.83907,106.873L-102.21094,105.712Q-99.95451,108.874,-96.44642,110.544L-97.30595,112.35ZM-106.890557,98.9259Q-107,97.9661,-107,97L-107,89L-105,89L-105,97Q-105,97.8524,-104.90343,98.6993L-106.890557,98.9259Z" fill="#32F3FF" fill-opacity="1"/></g></g></svg>