<svg xmlns="http://www.w3.org/2000/svg" xmlns:xlink="http://www.w3.org/1999/xlink" fill="none" version="1.1" width="23.9609375" height="2" viewBox="0 0 23.9609375 2"><defs><clipPath id="master_svg0_1289_045110"><rect x="23.9609375" y="0" width="23.9609375" height="2" rx="0"/></clipPath></defs><g transform="matrix(-1,0,0,1,47.921875,0)" clip-path="url(#master_svg0_1289_045110)"><g><path d="M-104.078125,81L-104.078125,73L-102.078125,73L-102.078125,81L-104.078125,81ZM-104.078125,65L-104.078125,57L-102.078125,57L-102.078125,65L-104.078125,65ZM-104.078125,49L-104.078125,41L-102.078125,41L-102.078125,49L-104.078125,49ZM-104.078125,33L-104.078125,25L-102.078125,25L-102.078125,33L-104.078125,33ZM-104.078125,17Q-104.078125,12.6497,-101.988515,8.8342L-100.234355,9.79488Q-102.078125,13.1615,-102.078125,17L-104.078125,17ZM-96.137185,2.61482Q-92.432725,0.28191,-88.062125,0.028502999999999945L-87.946325,2.02515Q-91.802725,2.2487399999999997,-95.071415,4.30719L-96.137185,2.61482ZM-80.048925,0L-72.048925,0L-72.048925,2L-80.048925,2L-80.048925,0ZM-64.048925,0L-56.048925,0L-56.048925,2L-64.048925,2L-64.048925,0ZM-48.048925,0L-40.048925,0L-40.048925,2L-48.048925,2L-48.048925,0ZM-32.048925,0L-24.048924999999997,0L-24.048924999999997,2L-32.048925,2L-32.048925,0ZM-16.048924999999997,0L-8.048924999999997,0L-8.048924999999997,2L-16.048924999999997,2L-16.048924999999997,0ZM-0.04912500000000364,0L7.950874999999996,0L7.950874999999996,2L-0.04912500000000364,2L-0.04912500000000364,0ZM15.950874999999996,0L23.950874999999996,0L23.950874999999996,2L15.950874999999996,2L15.950874999999996,0ZM31.950874999999996,0L39.950874999999996,0L39.950874999999996,2L31.950874999999996,2L31.950874999999996,0ZM47.950874999999996,0L55.950874999999996,0L55.950874999999996,2L47.950874999999996,2L47.950874999999996,0ZM63.950874999999996,0L71.950875,0L71.950875,2L63.950874999999996,2L63.950874999999996,0ZM79.950875,0L87.950875,0L87.950875,2L79.950875,2L79.950875,0ZM95.950875,0L103.950875,0L103.950875,2L95.950875,2L95.950875,0ZM111.950875,0L119.950875,0L119.950875,2L111.950875,2L111.950875,0ZM127.950875,0L135.950875,0L135.950875,2L127.950875,2L127.950875,0ZM143.950875,0.000025000000000052758Q148.301875,0.007523999999999975,152.114875,2.10456L151.150875,3.85697Q147.786875,2.00664,143.947875,2.00002L143.950875,0.000025000000000052758ZM158.323875,7.96744Q160.649875,11.6756,160.894875,16.0459L158.897875,16.158099999999997Q158.681875,12.3019,156.62987500000003,9.0301L158.323875,7.96744ZM160.921875,24.0584L160.921875,32.0584L158.921875,32.0584L158.921875,24.0584L160.921875,24.0584ZM160.921875,40.0584L160.921875,48.0584L158.921875,48.0584L158.921875,40.0584L160.921875,40.0584ZM160.921875,56.0584L160.921875,64.0584L158.921875,64.0584L158.921875,56.0584L160.921875,56.0584ZM160.921875,72.0584L160.921875,80.0584L158.921875,80.0584L158.921875,72.0584L160.921875,72.0584ZM160.921875,88.0584L160.921875,96.0584L158.921875,96.0584L158.921875,88.0584L160.921875,88.0584ZM159.284875,104.278Q157.399875,108.257,153.820875,110.821L152.655875,109.195Q155.81487499999997,106.933,157.47787499999998,103.422L159.284875,104.278ZM145.877875,113.887Q144.902875,114,143.921875,114L137.833875,114L137.833875,112L143.921875,112Q144.787875,112,145.647875,111.9L145.877875,113.887ZM129.833875,114L121.833875,114L121.833875,112L129.833875,112L129.833875,114ZM113.833875,114L105.833875,114L105.833875,112L113.833875,112L113.833875,114ZM97.833875,114L89.833875,114L89.833875,112L97.833875,112L97.833875,114ZM81.833875,114L73.833875,114L73.833875,112L81.833875,112L81.833875,114ZM65.833875,114L57.833875000000006,114L57.833875000000006,112L65.833875,112L65.833875,114ZM49.833875000000006,114L41.833875000000006,114L41.833875000000006,112L49.833875000000006,112L49.833875000000006,114ZM33.833875000000006,114L25.833875000000006,114L25.833875000000006,112L33.833875000000006,112L33.833875000000006,114ZM17.833875000000006,114L9.833875000000006,114L9.833875000000006,112L17.833875000000006,112L17.833875000000006,114ZM1.8338750000000061,114L-6.165724999999995,114L-6.165724999999995,112L1.8338750000000061,112L1.8338750000000061,114ZM-14.165724999999995,114L-22.165724999999995,114L-22.165724999999995,112L-14.165724999999995,112L-14.165724999999995,114ZM-30.165724999999995,114L-38.165724999999995,114L-38.165724999999995,112L-30.165724999999995,112L-30.165724999999995,114ZM-46.165725,114L-54.165725,114L-54.165725,112L-46.165725,112L-46.165725,114ZM-62.165725,114L-70.16572500000001,114L-70.16572500000001,112L-62.165725,112L-62.165725,114ZM-78.165725,114L-86.165725,114L-86.165725,112L-78.165725,112L-78.165725,114ZM-94.384075,112.35Q-98.359915,110.458,-100.917195,106.873L-99.289065,105.712Q-97.032635,108.874,-93.524545,110.544L-94.384075,112.35ZM-103.968682,98.9259Q-104.078125,97.9661,-104.078125,97L-104.078125,89L-102.078125,89L-102.078125,97Q-102.078125,97.8524,-101.981555,98.6993L-103.968682,98.9259Z" fill="#32F3FF" fill-opacity="1"/></g></g></svg>