<svg xmlns="http://www.w3.org/2000/svg" xmlns:xlink="http://www.w3.org/1999/xlink" fill="none" version="1.1" width="80" height="80" viewBox="0 0 80 80"><defs><clipPath id="master_svg0_1273_045108"><rect x="80" y="0" width="80" height="80" rx="0"/></clipPath></defs><g transform="matrix(-1,0,0,1,160,0)" clip-path="url(#master_svg0_1273_045108)"><g><path d="M98,102L98,94L100,94L100,102L98,102ZM98,86L98,78L100,78L100,86L98,86ZM98,70L98,62L100,62L100,70L98,70ZM98,54L98,46L100,46L100,54L98,54ZM98,38Q98,33.649699999999996,100.08961,29.8342L101.84377,30.79488Q100,34.161500000000004,100,38L98,38ZM105.94094,23.61482Q109.6454,21.28191,114.016,21.028503L114.1318,23.02515Q110.2754,23.24874,107.00671,25.30719L105.94094,23.61482ZM122.0292,21L130.0292,21L130.0292,23L122.0292,23L122.0292,21ZM138.0292,21L146.0292,21L146.0292,23L138.0292,23L138.0292,21ZM154.0292,21L162.0292,21L162.0292,23L154.0292,23L154.0292,21ZM170.0292,21L178.0292,21L178.0292,23L170.0292,23L170.0292,21ZM186.0292,21L194.0292,21L194.0292,23L186.0292,23L186.0292,21ZM202.25,22.623615Q206.232,24.50121,208.80200000000002,28.07553L207.179,29.24311Q204.911,26.0893,201.397,24.4326L202.25,22.623615ZM211.88299999999998,36.0132Q212,37.0032,212,38L212,44.0584L210,44.0584L210,38Q210,37.1205,209.897,36.2469L211.88299999999998,36.0132ZM212,52.0584L212,60.0584L210,60.0584L210,52.0584L212,52.0584ZM212,68.0584L212,76.0584L210,76.0584L210,68.0584L212,68.0584ZM212,84.0584L212,92.0584L210,92.0584L210,84.0584L212,84.0584ZM212,100.0584L212,108.0584L210,108.0584L210,100.0584L212,100.0584ZM212,116.0584L212,118Q212,121.2765,210.78199999999998,124.318L208.926,123.575Q210,120.891,210,118L210,116.0584L212,116.0584ZM205.757,131.164Q202.34300000000002,133.954,198.0034,134.733L197.6501,132.764Q201.47899999999998,132.077,204.49099999999999,129.615L205.757,131.164ZM189.9124,135L181.9124,135L181.9124,133L189.9124,133L189.9124,135ZM173.9124,135L165.9124,135L165.9124,133L173.9124,133L173.9124,135ZM157.9124,135L149.9124,135L149.9124,133L157.9124,133L157.9124,135ZM141.9124,135L133.9124,135L133.9124,133L141.9124,133L141.9124,135ZM125.9124,135L117.9124,135L117.9124,133L125.9124,133L125.9124,135ZM109.6977,134.152Q105.51627,132.779,102.52621,129.55L103.99372,128.191Q106.63201,131.041,110.3215,132.252L109.6977,134.152ZM98.484181,122.028Q98,120.0433,98,118L98,110L100,110L100,118Q100,119.8029,100.42722,121.5544L98.484181,122.028Z" fill="#32F3FF" fill-opacity="1"/></g></g></svg>