<svg xmlns="http://www.w3.org/2000/svg" xmlns:xlink="http://www.w3.org/1999/xlink" fill="none" version="1.1" width="16" height="2" viewBox="0 0 16 2"><defs><clipPath id="master_svg0_1289_045110"><rect x="16" y="0" width="16" height="2" rx="0"/></clipPath></defs><g transform="matrix(-1,0,0,1,32,0)" clip-path="url(#master_svg0_1289_045110)"><g><path d="M-120,81L-120,73L-118,73L-118,81L-120,81ZM-120,65L-120,57L-118,57L-118,65L-120,65ZM-120,49L-120,41L-118,41L-118,49L-120,49ZM-120,33L-120,25L-118,25L-118,33L-120,33ZM-120,17Q-120,12.6497,-117.91039,8.8342L-116.15623,9.79488Q-118,13.1615,-118,17L-120,17ZM-112.05906,2.61482Q-108.3546,0.28191,-103.984,0.028502999999999945L-103.8682,2.02515Q-107.7246,2.2487399999999997,-110.99329,4.30719L-112.05906,2.61482ZM-95.9708,0L-87.9708,0L-87.9708,2L-95.9708,2L-95.9708,0ZM-79.9708,0L-71.9708,0L-71.9708,2L-79.9708,2L-79.9708,0ZM-63.9708,0L-55.9708,0L-55.9708,2L-63.9708,2L-63.9708,0ZM-47.9708,0L-39.9708,0L-39.9708,2L-47.9708,2L-47.9708,0ZM-31.970799999999997,0L-23.970799999999997,0L-23.970799999999997,2L-31.970799999999997,2L-31.970799999999997,0ZM-15.971000000000004,0L-7.971000000000004,0L-7.971000000000004,2L-15.971000000000004,2L-15.971000000000004,0ZM0.028999999999996362,0L8.028999999999996,0L8.028999999999996,2L0.028999999999996362,2L0.028999999999996362,0ZM16.028999999999996,0L24.028999999999996,0L24.028999999999996,2L16.028999999999996,2L16.028999999999996,0ZM32.028999999999996,0L40.028999999999996,0L40.028999999999996,2L32.028999999999996,2L32.028999999999996,0ZM48.028999999999996,0L56.028999999999996,0L56.028999999999996,2L48.028999999999996,2L48.028999999999996,0ZM64.029,0L72.029,0L72.029,2L64.029,2L64.029,0ZM80.029,0L88.029,0L88.029,2L80.029,2L80.029,0ZM96.029,0L104.029,0L104.029,2L96.029,2L96.029,0ZM112.029,0L120.029,0L120.029,2L112.029,2L112.029,0ZM128.029,0.000025000000000052758Q132.38,0.007523999999999975,136.193,2.10456L135.229,3.85697Q131.865,2.00664,128.026,2.00002L128.029,0.000025000000000052758ZM142.402,7.96744Q144.728,11.6756,144.973,16.0459L142.976,16.158099999999997Q142.76,12.3019,140.70800000000003,9.0301L142.402,7.96744ZM145,24.0584L145,32.0584L143,32.0584L143,24.0584L145,24.0584ZM145,40.0584L145,48.0584L143,48.0584L143,40.0584L145,40.0584ZM145,56.0584L145,64.0584L143,64.0584L143,56.0584L145,56.0584ZM145,72.0584L145,80.0584L143,80.0584L143,72.0584L145,72.0584ZM145,88.0584L145,96.0584L143,96.0584L143,88.0584L145,88.0584ZM143.363,104.278Q141.478,108.257,137.899,110.821L136.734,109.195Q139.89299999999997,106.933,141.55599999999998,103.422L143.363,104.278ZM129.956,113.887Q128.981,114,128,114L121.912,114L121.912,112L128,112Q128.866,112,129.726,111.9L129.956,113.887ZM113.912,114L105.912,114L105.912,112L113.912,112L113.912,114ZM97.912,114L89.912,114L89.912,112L97.912,112L97.912,114ZM81.912,114L73.912,114L73.912,112L81.912,112L81.912,114ZM65.912,114L57.912000000000006,114L57.912000000000006,112L65.912,112L65.912,114ZM49.912000000000006,114L41.912000000000006,114L41.912000000000006,112L49.912000000000006,112L49.912000000000006,114ZM33.912000000000006,114L25.912000000000006,114L25.912000000000006,112L33.912000000000006,112L33.912000000000006,114ZM17.912000000000006,114L9.912000000000006,114L9.912000000000006,112L17.912000000000006,112L17.912000000000006,114ZM1.9120000000000061,114L-6.087999999999994,114L-6.087999999999994,112L1.9120000000000061,112L1.9120000000000061,114ZM-14.087999999999994,114L-22.087599999999995,114L-22.087599999999995,112L-14.087999999999994,112L-14.087999999999994,114ZM-30.087599999999995,114L-38.087599999999995,114L-38.087599999999995,112L-30.087599999999995,112L-30.087599999999995,114ZM-46.087599999999995,114L-54.087599999999995,114L-54.087599999999995,112L-46.087599999999995,112L-46.087599999999995,114ZM-62.0876,114L-70.08760000000001,114L-70.08760000000001,112L-62.0876,112L-62.0876,114ZM-78.08760000000001,114L-86.08760000000001,114L-86.08760000000001,112L-78.08760000000001,112L-78.08760000000001,114ZM-94.0876,114L-102.0876,114L-102.0876,112L-94.0876,112L-94.0876,114ZM-110.30595,112.35Q-114.28179,110.458,-116.83907,106.873L-115.21094,105.712Q-112.95451,108.874,-109.44642,110.544L-110.30595,112.35ZM-119.890557,98.9259Q-120,97.9661,-120,97L-120,89L-118,89L-118,97Q-118,97.8524,-117.90343,98.6993L-119.890557,98.9259Z" fill="#32F3FF" fill-opacity="1"/></g></g></svg>