<svg xmlns="http://www.w3.org/2000/svg" xmlns:xlink="http://www.w3.org/1999/xlink" fill="none" version="1.1" width="200" height="80" viewBox="0 0 200 80"><defs><clipPath id="master_svg0_1273_045090"><rect x="0" y="0" width="200" height="80" rx="0"/></clipPath></defs><g clip-path="url(#master_svg0_1273_045090)"><g><path d="M18,102L18,94L20,94L20,102L18,102ZM18,86L18,78L20,78L20,86L18,86ZM18,70L18,62L20,62L20,70L18,70ZM18,54L18,46L20,46L20,54L18,54ZM18,38Q18,33.649699999999996,20.08961,29.8342L21.84377,30.79488Q20,34.161500000000004,20,38L18,38ZM25.94094,23.61482Q29.645400000000002,21.28191,34.016,21.028503L34.1318,23.02515Q30.275399999999998,23.24874,27.006709999999998,25.30719L25.94094,23.61482ZM42.0292,21L50.0292,21L50.0292,23L42.0292,23L42.0292,21ZM58.0292,21L66.0292,21L66.0292,23L58.0292,23L58.0292,21ZM74.0292,21L82.0292,21L82.0292,23L74.0292,23L74.0292,21ZM90.0292,21L98.0292,21L98.0292,23L90.0292,23L90.0292,21ZM106.0292,21L114.0292,21L114.0292,23L106.0292,23L106.0292,21ZM122.029,21L130.029,21L130.029,23L122.029,23L122.029,21ZM138.029,21L146.029,21L146.029,23L138.029,23L138.029,21ZM154.029,21L162.029,21L162.029,23L154.029,23L154.029,21ZM170.029,21L178.029,21L178.029,23L170.029,23L170.029,21ZM186.029,21L194.029,21L194.029,23L186.029,23L186.029,21ZM202.029,21L210.029,21L210.029,23L202.029,23L202.029,21ZM218.029,21L226.029,21L226.029,23L218.029,23L218.029,21ZM234.029,21L242.029,21L242.029,23L234.029,23L234.029,21ZM250.029,21L258.029,21L258.029,23L250.029,23L250.029,21ZM266.029,21.000025Q270.38,21.007524,274.193,23.10456L273.22900000000004,24.85697Q269.865,23.00664,266.026,23.00002L266.029,21.000025ZM280.402,28.96744Q282.728,32.6756,282.973,37.0459L280.976,37.1581Q280.76,33.3019,278.708,30.030099999999997L280.402,28.96744ZM283,45.0584L283,53.0584L281,53.0584L281,45.0584L283,45.0584ZM283,61.0584L283,69.0584L281,69.0584L281,61.0584L283,61.0584ZM283,77.0584L283,85.0584L281,85.0584L281,77.0584L283,77.0584ZM283,93.0584L283,101.0584L281,101.0584L281,93.0584L283,93.0584ZM283,109.0584L283,117.0584L281,117.0584L281,109.0584L283,109.0584ZM281.363,125.278Q279.478,129.257,275.899,131.821L274.73400000000004,130.195Q277.893,127.933,279.556,124.422L281.363,125.278ZM267.956,134.887Q266.981,135,266,135L259.91200000000003,135L259.91200000000003,133L266,133Q266.866,133,267.726,132.9L267.956,134.887ZM251.912,135L243.912,135L243.912,133L251.912,133L251.912,135ZM235.912,135L227.912,135L227.912,133L235.912,133L235.912,135ZM219.912,135L211.912,135L211.912,133L219.912,133L219.912,135ZM203.912,135L195.912,135L195.912,133L203.912,133L203.912,135ZM187.912,135L179.912,135L179.912,133L187.912,133L187.912,135ZM171.912,135L163.912,135L163.912,133L171.912,133L171.912,135ZM155.912,135L147.912,135L147.912,133L155.912,133L155.912,135ZM139.912,135L131.912,135L131.912,133L139.912,133L139.912,135ZM123.912,135L115.9124,135L115.9124,133L123.912,133L123.912,135ZM107.9124,135L99.9124,135L99.9124,133L107.9124,133L107.9124,135ZM91.9124,135L83.9124,135L83.9124,133L91.9124,133L91.9124,135ZM75.91239999999999,135L67.91239999999999,135L67.91239999999999,133L75.91239999999999,133L75.91239999999999,135ZM59.9124,135L51.9124,135L51.9124,133L59.9124,133L59.9124,135ZM43.912400000000005,135L35.912400000000005,135L35.912400000000005,133L43.912400000000005,133L43.912400000000005,135ZM27.69405,133.35Q23.71821,131.458,21.16093,127.873L22.78906,126.712Q25.04549,129.874,28.55358,131.54399999999998L27.69405,133.35ZM18.109443,119.9259Q18,118.9661,18,118L18,110L20,110L20,118Q20,118.8524,20.09657,119.6993L18.109443,119.9259Z" fill="#32F3FF" fill-opacity="1"/></g></g></svg>