<svg xmlns="http://www.w3.org/2000/svg" xmlns:xlink="http://www.w3.org/1999/xlink" fill="none" version="1.1" width="20" height="20" viewBox="0 0 20 20"><defs><clipPath id="master_svg0_1439_120487"><rect x="0" y="0" width="20" height="20" rx="0"/></clipPath></defs><g clip-path="url(#master_svg0_1439_120487)"><g><path d="M15.7,3.7734375L11.825,3.7734375C11.575,3.7734375,11.5,3.9984375,11.7,4.1984375L12.925,5.4234375L10.675,7.6734375C10.55,7.7984375,10.55,7.9984375,10.675,8.1484375L11.6,9.0734375C11.725,9.1984375,11.925,9.1984375,12.075,9.0734375L14.35,6.7984375L15.575,8.0234375C15.775,8.2234375,16,8.1484375,16,7.8984375L16,4.0484375C16,3.8984375,15.85,3.7734375,15.7,3.7734375ZM4.375,15.7734375L8.225,15.7734375C8.475,15.7734375,8.55,15.4984375,8.35,15.2984375L7.125,14.0484375L9.375,11.7734375C9.5,11.6484375,9.5,11.4234375,9.375,11.2984375L8.45,10.3734375C8.325,10.2484375,8.125,10.2484375,7.975,10.3734375L5.725,12.6234375L4.475,11.3984375C4.25,11.1984375,4,11.2734375,4,11.5234375L4,15.3734375C4,15.5484375,4.2,15.7734375,4.375,15.7734375ZM16,15.4734375L16,11.5984375C16,11.3484375,15.775,11.2734375,15.575,11.4734375L14.35,12.6984375L12.1,10.4484375C11.975,10.3234375,11.775,10.3234375,11.625,10.4484375L10.7,11.3734375C10.575,11.4984375,10.575,11.6984375,10.7,11.8484375L12.975,14.1234375L11.75,15.3484375C11.55,15.5484375,11.625,15.7734375,11.875,15.7734375L15.725,15.7734375C15.875,15.7734375,16,15.6234375,16,15.4734375ZM4,4.1484375L4,7.9984375C4,8.2484375,4.275,8.3234375,4.475,8.1234375L5.725,6.8984375L8,9.1484375C8.125,9.2734375,8.35,9.2734375,8.475,9.1484375L9.4,8.2234375C9.525,8.0984375,9.525,7.8984375,9.4,7.7484375L7.15,5.4984375L8.375,4.2484375C8.575,4.0234375,8.5,3.7734375,8.25,3.7734375L4.4,3.7734375C4.225,3.7734375,4,3.9734375,4,4.1484375Z" fill="#FFFFFF" fill-opacity="1"/></g></g></svg>