<svg xmlns="http://www.w3.org/2000/svg" xmlns:xlink="http://www.w3.org/1999/xlink" fill="none" version="1.1" width="16" height="16" viewBox="0 0 16 16"><g style="mix-blend-mode:passthrough"><g style="mix-blend-mode:passthrough"><path d="M11.653064375,3.3137791796875C10.684214375,2.3449451796875,9.370224375,1.8006591796875,8.000074375,1.8006591796875C6.629944375,1.8006591796875,5.315924375,2.3449451796875,4.347094375,3.3137791796875C3.378268375,4.282609179687499,2.833984375,5.5966391796875,2.833984375,6.9667691796875C2.855890275,7.9589691796875,3.127558375,8.9296391796875,3.623879375,9.7890191796875C4.0840643750000005,10.6069691796875,4.647674375,11.3622491796875,5.300794375000001,12.0362591796875C6.032604375,12.8084591796875,6.841134375,13.5041591796875,7.713874375,14.1125591796875C7.798714375,14.1690591796875,7.898384375,14.1992591796875,8.000334375000001,14.1992591796875C8.102254375000001,14.1992591796875,8.201964375,14.1690591796875,8.286794375,14.1125591796875C9.159494375000001,13.5041591796875,9.968044375,12.8084591796875,10.699874375,12.0362591796875C11.352964375,11.3622491796875,11.916584375,10.6069691796875,12.376784375,9.7890191796875C12.872884375,8.9295791796875,13.144384375,7.9589191796875,13.166184375,6.9667691796875C13.166184375,5.5966391796875,12.621864375,4.282609179687499,11.653064375,3.3137791796875ZM12.132944375,6.9667691796875C12.132944375,9.7636991796875,8.981624374999999,12.3209591796875,8.000074375,13.0477591796875C7.018514375,12.3204591796875,3.867204375,9.763189179687501,3.867204375,6.9667691796875C3.865704375,6.4238091796875,3.971924375,5.8859391796875,4.179684375,5.3842991796875C4.387454375,4.8826591796875,4.692654375,4.4271991796875,5.077614375,4.0442991796875C5.655604374999999,3.4662791796875,6.392024375,3.0726291796875,7.193754375,2.9131491796875C7.995464375,2.7536721796875,8.826494375,2.8355091796875,9.581664374999999,3.1483391796875C10.336904375,3.4611591796875,10.982354375,3.9909091796875,11.436454375,4.6705791796875005C11.890604375,5.3502591796875,12.132994375,6.1493391796875,12.132944375,6.9667691796875ZM6.852024375,8.6849691796875C7.191844375,8.912019179687501,7.591364375,9.0332191796875,8.000074375,9.0332191796875C8.548144375,9.0332191796875,9.073744375,8.815519179687499,9.461244375,8.4279491796875C9.848804375,8.0404391796875,10.066504375000001,7.5148391796875,10.066504375000001,6.9667691796875C10.066504375000001,6.5580691796875,9.945314374999999,6.1585391796875,9.718264375,5.8187191796875C9.491214375,5.4788891796875,9.168434375,5.2140291796875005,8.790844374999999,5.057619179687499C8.413254375000001,4.9012191796875,7.997774375,4.8602991796875,7.596934375,4.9400291796874995C7.196084375,5.019769179687501,6.827874375,5.2165791796875,6.538884375,5.5055691796875C6.249884375000001,5.7945691796875,6.053074375,6.1627791796875,5.973344375,6.5636291796875C5.893614375,6.9644791796875,5.934534375,7.3799591796875,6.090934375,7.7575491796875C6.247334374999999,8.1351391796875,6.512194375,8.4579191796875,6.852024375,8.6849691796875ZM7.426044375,6.1076791796875C7.595964375,5.9941491796875,7.795724375,5.9335491796875,8.000074375,5.9335491796875C8.274084375000001,5.9335491796875,8.536884375,6.0424091796875,8.730664375,6.2361691796875C8.924444375,6.4299391796875,9.033294375,6.6927491796875,9.033294375,6.9667691796875C9.033294375,7.1711391796875,8.972694375,7.3708591796875,8.859144375,7.5407791796875C8.745644375000001,7.7106891796875,8.584254375,7.8431491796875,8.395484374999999,7.9213691796875C8.206664374999999,7.9995291796875,7.998924375,8.0199891796875,7.798504375,7.9801591796875C7.598074375,7.9402691796875,7.413974375,7.8418591796875,7.269474375,7.6973591796875C7.124974375,7.5528691796875,7.026574375,7.3687491796875,6.986704375,7.1683491796875C6.946844375,6.9679091796875,6.967304375,6.7601691796875,7.045504375,6.5713791796875C7.123704375,6.3825791796875,7.256134375,6.2212091796875,7.426044375,6.1076791796875Z" fill-rule="evenodd" fill="#FFFFFF" fill-opacity="1"/></g></g></svg>