<svg xmlns="http://www.w3.org/2000/svg" xmlns:xlink="http://www.w3.org/1999/xlink" fill="none" version="1.1" width="32" height="32" viewBox="0 0 32 32"><defs><radialGradient cx="0" cy="0" r="1" gradientUnits="userSpaceOnUse" id="master_svg0_1_0329" gradientTransform="translate(2.0485458374023438 32) rotate(98.1239173467939) scale(22.60081289247802 22.60081289247802)"><stop offset="0%" stop-color="#1BA8FF" stop-opacity="1"/><stop offset="100%" stop-color="#001C78" stop-opacity="0"/></radialGradient><radialGradient cx="0" cy="0" r="1" gradientUnits="userSpaceOnUse" id="master_svg1_1_0330" gradientTransform="translate(6.58056640625 3.7451171875) rotate(56.070028996172184) scale(24.437589722153476 24.437589722153476)"><stop offset="0%" stop-color="#8ED9FF" stop-opacity="1"/><stop offset="100%" stop-color="#000B6C" stop-opacity="0"/></radialGradient><radialGradient cx="0" cy="0" r="1" gradientUnits="userSpaceOnUse" id="master_svg2_1_0333" gradientTransform="translate(31.16988754272461 3.481212854385376) rotate(94.05338493195609) scale(18.732870015588603 18.732870015588603)"><stop offset="0%" stop-color="#9CF2FF" stop-opacity="1"/><stop offset="100%" stop-color="#00DDFF" stop-opacity="0"/></radialGradient><radialGradient cx="0" cy="0" r="1" gradientUnits="userSpaceOnUse" id="master_svg3_1_0334" gradientTransform="translate(1.28125 28.87803840637207) rotate(90.97799264247828) scale(19.824751147344667 19.824751147344667)"><stop offset="0%" stop-color="#00DDFF" stop-opacity="1"/><stop offset="100%" stop-color="#00DDFF" stop-opacity="0"/></radialGradient><clipPath id="master_svg4_542_83902"><rect x="4" y="4" width="24" height="24" rx="0"/></clipPath></defs><g><rect x="0" y="0" width="32" height="32" rx="16" fill="url(#master_svg0_1_0329)" fill-opacity="0.800000011920929"/><rect x="0" y="0" width="32" height="32" rx="16" fill="url(#master_svg1_1_0330)" fill-opacity="1"/><rect x="0" y="0" width="32" height="32" rx="16" fill="#0095FF" fill-opacity="0.44999998807907104"/><rect x="0.5" y="0.5" width="31" height="31" rx="15.5" stroke="url(#master_svg2_1_0333)" fill-opacity="0" fill="none" stroke-width="1"/><rect x="0.5" y="0.5" width="31" height="31" rx="15.5" stroke="url(#master_svg3_1_0334)" fill-opacity="0" fill="none" stroke-width="1"/><g clip-path="url(#master_svg4_542_83902)"><g><path d="M16.00953080078125,6.656359515625C16.08806080078125,6.656359515625,16.14576080078125,6.679213515625,16.164590800781248,6.695143515625L24.55207080078125,13.405723515624999C24.65357080078125,13.486183515625001,24.73297080078125,13.756573515625,24.69227080078125,13.878843515625L21.344470800781252,23.921353515625C21.30757080078125,24.033753515625,21.09887080078125,24.183753515625,20.97957080078125,24.183753515625L11.03948080078125,24.183753515625C10.92021080078125,24.183753515625,10.71148080078125,24.033753515625,10.67363080078125,23.920353515625L7.32687080078125,13.877883515625C7.28602680078125,13.755643515625,7.36556080078125,13.485253515625,7.46694080078125,13.404683515624999L15.85450080078125,6.694113515625C15.87333080078125,6.679213515625,15.93104080078125,6.656359515625,16.00953080078125,6.656359515625ZM16.00953080078125,5.662353515625C15.72821080078125,5.662353515625,15.44695080078125,5.747783615625,15.23325080078125,5.918763515625L6.84568480078125,12.628403515625C6.41829490078125,12.970363515625,6.21059580078125,13.674123515625,6.38354230078125,14.192963515625L9.73134080078125,24.235553515625C9.904280800781251,24.753453515625,10.49282080078125,25.177753515625,11.03948080078125,25.177753515625L20.97957080078125,25.177753515625C21.52637080078125,25.177753515625,22.11477080078125,24.753353515625,22.28777080078125,24.234453515625L25.63557080078125,14.191933515625C25.80857080078125,13.673093515625,25.60077080078125,12.969333515625,25.17337080078125,12.628403515625L16.78587080078125,5.917828515625C16.57217080078125,5.747783615625,16.29089080078125,5.662353515625,16.00953080078125,5.662353515625ZM16.00953080078125,9.647303515625C16.07420080078125,9.647303515625,16.121870800781252,9.667253515625,16.13677080078125,9.679153515625L21.49157080078125,14.141253515625C21.60877080078125,14.239613515625,21.706270800781247,14.552813515625,21.664470800781253,14.699903515625L19.91097080078125,20.937353515625C19.88317080078125,21.035753515625,19.70527080078125,21.201753515625,19.60287080078125,21.201753515625L12.416200800781251,21.201753515625C12.314840800781251,21.201753515625,12.13590080078125,21.035753515625,12.10808080078125,20.938253515625L10.35462080078125,14.715833515625C10.31285080078125,14.568733515625,10.410290800781251,14.246633515625,10.52757080078125,14.149213515625L15.88233080078125,9.683083515625C15.89722080078125,9.671183515625,15.94490080078125,9.647303515625,16.00953080078125,9.647303515625ZM16.00953080078125,8.653393515625C15.73317080078125,8.653393515625,15.45585080078125,8.740783515625,15.24618080078125,8.915703515625001L9.89136080078125,13.377893515625C9.471900800781249,13.727823515625,9.249210800781249,14.444433515625,9.398370800781251,14.971303515625L11.151800800781249,21.208753515625C11.299920800781251,21.734553515625,11.86944080078125,22.195753515625,12.416200800781251,22.195753515625L19.603970800781248,22.195753515625C20.15057080078125,22.195753515625,20.71917080078125,21.734553515625,20.86827080078125,21.207753515625L22.62177080078125,14.986193515625C22.77077080078125,14.460353515625,22.54817080078125,13.735783515625,22.12867080078125,13.385863515625001L16.77397080078125,8.919733515625C16.56327080078125,8.744813515625001,16.28592080078125,8.653393515625,16.00953080078125,8.653393515625Z" fill="#FFFFFF" fill-opacity="1" style="mix-blend-mode:passthrough"/></g><g><path d="M16.00953163986206,9.273585319519043L11.03948163986206,18.219715319519043L22.96768163986206,21.201785319519043L16.00953163986206,9.273585319519043Z" fill="#C2EAFF" fill-opacity="1" style="mix-blend-mode:passthrough"/></g></g></g></svg>