<svg xmlns="http://www.w3.org/2000/svg" xmlns:xlink="http://www.w3.org/1999/xlink" fill="none" version="1.1" width="32" height="32" viewBox="0 0 32 32"><defs><radialGradient cx="0" cy="0" r="1" gradientUnits="userSpaceOnUse" id="master_svg0_1_0329" gradientTransform="translate(2.0485458374023438 32) rotate(98.1239173467939) scale(22.60081289247802 22.60081289247802)"><stop offset="0%" stop-color="#1BA8FF" stop-opacity="1"/><stop offset="100%" stop-color="#001C78" stop-opacity="0"/></radialGradient><radialGradient cx="0" cy="0" r="1" gradientUnits="userSpaceOnUse" id="master_svg1_1_0330" gradientTransform="translate(6.58056640625 3.7451171875) rotate(56.070028996172184) scale(24.437589722153476 24.437589722153476)"><stop offset="0%" stop-color="#8ED9FF" stop-opacity="1"/><stop offset="100%" stop-color="#000B6C" stop-opacity="0"/></radialGradient><radialGradient cx="0" cy="0" r="1" gradientUnits="userSpaceOnUse" id="master_svg2_1_0333" gradientTransform="translate(31.16988754272461 3.481212854385376) rotate(94.05338493195609) scale(18.732870015588603 18.732870015588603)"><stop offset="0%" stop-color="#9CF2FF" stop-opacity="1"/><stop offset="100%" stop-color="#00DDFF" stop-opacity="0"/></radialGradient><radialGradient cx="0" cy="0" r="1" gradientUnits="userSpaceOnUse" id="master_svg3_1_0334" gradientTransform="translate(1.28125 28.87803840637207) rotate(90.97799264247828) scale(19.824751147344667 19.824751147344667)"><stop offset="0%" stop-color="#00DDFF" stop-opacity="1"/><stop offset="100%" stop-color="#00DDFF" stop-opacity="0"/></radialGradient><clipPath id="master_svg4_542_83940"><rect x="8" y="8" width="16" height="16" rx="0"/></clipPath></defs><g><rect x="0" y="0" width="32" height="32" rx="16" fill="url(#master_svg0_1_0329)" fill-opacity="0.800000011920929"/><rect x="0" y="0" width="32" height="32" rx="16" fill="url(#master_svg1_1_0330)" fill-opacity="1"/><rect x="0" y="0" width="32" height="32" rx="16" fill="#0095FF" fill-opacity="0.44999998807907104"/><rect x="0.5" y="0.5" width="31" height="31" rx="15.5" stroke="url(#master_svg2_1_0333)" fill-opacity="0" fill="none" stroke-width="1"/><rect x="0.5" y="0.5" width="31" height="31" rx="15.5" stroke="url(#master_svg3_1_0334)" fill-opacity="0" fill="none" stroke-width="1"/><g clip-path="url(#master_svg4_542_83940)"><g><path d="M8.01458740234375,8L8.99511540234375,8L8.99511540234375,23.0305L8.01458740234375,23.0305L8.01458740234375,8Z" fill="#FFFFFF" fill-opacity="1" style="mix-blend-mode:passthrough"/></g><g><path d="M8.013336181640625,22.982177734375L23.986636181640627,22.982177734375L23.986636181640627,23.999977734375L8.013336181640625,23.999977734375L8.013336181640625,22.982177734375Z" fill="#FFFFFF" fill-opacity="1" style="mix-blend-mode:passthrough"/></g><g><path d="M14.042144775390625,20.509521484375L15.985894775390625,20.509521484375L15.985894775390625,22.986261484375L14.042144775390625,22.986261484375L14.042144775390625,20.509521484375Z" fill="#C2EAFF" fill-opacity="1" style="mix-blend-mode:passthrough"/></g><g><path d="M15.97637939453125,20.505126953125L17.92012939453125,20.505126953125L17.92012939453125,22.981866953125L15.97637939453125,22.981866953125L15.97637939453125,20.505126953125Z" fill="#FFFFFF" fill-opacity="1" style="mix-blend-mode:passthrough"/></g><g><path d="M12.124267578125,18.042724609375L14.068017578125,18.042724609375L14.068017578125,20.519464609375L12.124267578125,20.519464609375L12.124267578125,18.042724609375Z" fill="#C2EAFF" fill-opacity="1" style="mix-blend-mode:passthrough"/></g><g><path d="M14.05853271484375,18.03857421875L16.00228271484375,18.03857421875L16.00228271484375,20.51531421875L14.05853271484375,20.51531421875L14.05853271484375,18.03857421875Z" fill="#FFFFFF" fill-opacity="1" style="mix-blend-mode:passthrough"/></g><g><path d="M17.90936279296875,20.513671875L19.85311279296875,20.513671875L19.85311279296875,22.990411875L17.90936279296875,22.990411875L17.90936279296875,20.513671875Z" fill="#C2EAFF" fill-opacity="1" style="mix-blend-mode:passthrough"/></g><g><path d="M19.843597412109375,20.509521484375L21.787347412109376,20.509521484375L21.787347412109376,22.986261484375L19.843597412109375,22.986261484375L19.843597412109375,20.509521484375Z" fill="#FFFFFF" fill-opacity="1" style="mix-blend-mode:passthrough"/></g><g><path d="M15.991485595703125,18.031494140625L17.935235595703126,18.031494140625L17.935235595703126,20.508234140625L15.991485595703125,20.508234140625L15.991485595703125,18.031494140625Z" fill="#C2EAFF" fill-opacity="1" style="mix-blend-mode:passthrough"/></g><g><path d="M17.92572890625,18.042776718749998L19.86942890625,18.042776718749998L19.86942890625,20.51950671875L17.92572890625,20.51950671875L17.92572890625,18.042776718749998ZM10.17974890625,18.03575671875L12.12348890625,18.03575671875L12.12348890625,20.51248671875L10.17974890625,20.51248671875L10.17974890625,18.03575671875ZM8.99462890625,12.98388671875L10.93837890625,12.98388671875L10.93837890625,15.46062671875L8.99462890625,15.46062671875L8.99462890625,12.98388671875Z" fill="#FFFFFF" fill-opacity="1" style="mix-blend-mode:passthrough"/></g><g><path d="M14.033538818359375,15.55419921875L15.977288818359375,15.55419921875L15.977288818359375,18.03093921875L14.033538818359375,18.03093921875L14.033538818359375,15.55419921875Z" fill="#C2EAFF" fill-opacity="1" style="mix-blend-mode:passthrough"/></g><g><path d="M15.967620849609375,15.549560546875L17.911370849609376,15.549560546875L17.911370849609376,18.026300546875L15.967620849609375,18.026300546875L15.967620849609375,15.549560546875Z" fill="#FFFFFF" fill-opacity="1" style="mix-blend-mode:passthrough"/></g><g><path d="M19.83439552734375,15.582268671875L21.77814552734375,15.582268671875L21.77814552734375,18.059008671875L19.83439552734375,18.059008671875L19.83439552734375,15.582268671875ZM19.878685527343748,10.598388671875L21.82243552734375,10.598388671875L21.82243552734375,13.075128671875L19.878685527343748,13.075128671875L19.878685527343748,10.598388671875ZM14.03216552734375,10.606965221875L15.97591552734375,10.606965221875L15.97591552734375,13.083698671875L14.03216552734375,13.083698671875L14.03216552734375,10.606965221875ZM15.98308552734375,13.079798671875L17.92683552734375,13.079798671875L17.92683552734375,15.556538671875L15.98308552734375,15.556538671875L15.98308552734375,13.079798671875Z" fill="#C2EAFF" fill-opacity="1" style="mix-blend-mode:passthrough"/></g><g><path d="M14.03417439453125,13.0829725L15.97792439453125,13.0829725L15.97792439453125,15.5597125L14.03417439453125,15.5597125L14.03417439453125,13.0829725ZM17.91699439453125,10.6015625L19.86073439453125,10.6015625L19.86073439453125,13.0783025L17.91699439453125,13.0783025L17.91699439453125,10.6015625ZM12.08575439453125,15.5667325L14.02950439453125,15.5667325L14.02950439453125,18.0434625L12.08575439453125,18.0434625L12.08575439453125,15.5667325Z" fill="#FFFFFF" fill-opacity="1" style="mix-blend-mode:passthrough"/></g><g><path d="M8.989501953125,10.506591796875L10.933251953125,10.506591796875L10.933251953125,12.983331796875L8.989501953125,12.983331796875L8.989501953125,10.506591796875Z" fill="#C2EAFF" fill-opacity="1" style="mix-blend-mode:passthrough"/></g></g></g></svg>