<svg xmlns="http://www.w3.org/2000/svg" xmlns:xlink="http://www.w3.org/1999/xlink" fill="none" version="1.1" width="156" height="158" viewBox="0 0 156 158"><defs><radialGradient cx="0" cy="0" r="1" gradientUnits="userSpaceOnUse" id="master_svg0_1_0329" gradientTransform="translate(64.04854583740234 91) rotate(98.1239173467939) scale(22.60081289247802 22.60081289247802)"><stop offset="0%" stop-color="#1BA8FF" stop-opacity="1"/><stop offset="100%" stop-color="#001C78" stop-opacity="0"/></radialGradient><radialGradient cx="0" cy="0" r="1" gradientUnits="userSpaceOnUse" id="master_svg1_1_0330" gradientTransform="translate(68.58056640625 62.7451171875) rotate(56.070028996172184) scale(24.437589722153476 24.437589722153476)"><stop offset="0%" stop-color="#8ED9FF" stop-opacity="1"/><stop offset="100%" stop-color="#000B6C" stop-opacity="0"/></radialGradient><radialGradient cx="0" cy="0" r="1" gradientUnits="userSpaceOnUse" id="master_svg2_1_0333" gradientTransform="translate(93.16988754272461 62.481212854385376) rotate(94.05338493195609) scale(18.732870015588603 18.732870015588603)"><stop offset="0%" stop-color="#9CF2FF" stop-opacity="1"/><stop offset="100%" stop-color="#00DDFF" stop-opacity="0"/></radialGradient><radialGradient cx="0" cy="0" r="1" gradientUnits="userSpaceOnUse" id="master_svg3_1_0334" gradientTransform="translate(63.28125 87.87803840637207) rotate(90.97799264247828) scale(19.824751147344667 19.824751147344667)"><stop offset="0%" stop-color="#00DDFF" stop-opacity="1"/><stop offset="100%" stop-color="#00DDFF" stop-opacity="0"/></radialGradient><filter id="master_svg4_542_83851" filterUnits="objectBoundingBox" color-interpolation-filters="sRGB" x="-5.111111111111111" y="-4.400000419616739" width="11.222222222222221" height="10.200000877380456"><feFlood flood-opacity="0" result="BackgroundImageFix"/><feColorMatrix in="SourceAlpha" type="matrix" values="0 0 0 0 0 0 0 0 0 0 0 0 0 0 0 0 0 0 127 0"/><feOffset dy="4" dx="0"/><feGaussianBlur stdDeviation="23"/><feColorMatrix type="matrix" values="0 0 0 0 0 0 0 0 0 0.8196078538894653 0 0 0 0 1 0 0 0 0.5 0"/><feBlend mode="normal" in2="BackgroundImageFix" result="effect1_dropShadow"/><feBlend mode="normal" in="SourceGraphic" in2="effect1_dropShadow" result="shape"/><feColorMatrix in="SourceAlpha" type="matrix" result="hardAlpha" values="0 0 0 0 0 0 0 0 0 0 0 0 0 0 0 0 0 0 127 0"/><feOffset dy="0" dx="0"/><feGaussianBlur stdDeviation="10"/><feComposite in2="hardAlpha" operator="arithmetic" k2="-1" k3="1"/><feColorMatrix type="matrix" values="0 0 0 0 0 0 0 0 0 0.8333333134651184 0 0 0 0 1 0 0 0 0.800000011920929 0"/><feBlend mode="normal" in2="shape" result="effect2_innerShadow"/></filter><linearGradient x1="0.5" y1="1" x2="0.5" y2="0" id="master_svg5_284_69867"><stop offset="0%" stop-color="#00E6FF" stop-opacity="0.27000001072883606"/><stop offset="100%" stop-color="#006C92" stop-opacity="0.23999999463558197"/></linearGradient></defs><g><rect x="62" y="59" width="32" height="32" rx="16" fill="url(#master_svg0_1_0329)" fill-opacity="0.800000011920929"/><rect x="62" y="59" width="32" height="32" rx="16" fill="url(#master_svg1_1_0330)" fill-opacity="1"/><rect x="62" y="59" width="32" height="32" rx="16" fill="#0095FF" fill-opacity="0.44999998807907104"/><rect x="62.5" y="59.5" width="31" height="31" rx="15.5" stroke="url(#master_svg2_1_0333)" fill-opacity="0" fill="none" stroke-width="1"/><rect x="62.5" y="59.5" width="31" height="31" rx="15.5" stroke="url(#master_svg3_1_0334)" fill-opacity="0" fill="none" stroke-width="1"/><g><g filter="url(#master_svg4_542_83851)"><path d="M80.7702,71.96477L80.7456,71.91057L80.844,71.77507L80.8933,71.58537L80.8687,71.39566L80.7948,71.28726L80.69630000000001,71.26016L80.5978,71.09756L80.6224,71.04336L80.5732,70.93496L80.5239,70.93496L80.5732,70.55556L80.6224,70.55556L80.5978,70.47426L80.4993,70.42005L80.4747,70.47426L80.3516,70.36585L80.4501,70.12195L80.7209,69.79675L80.6717,69.68835L80.5486,69.66125L80.2531,70.01355L80.2038,69.98645L80.13,69.74255L80.0315,69.76965L79.8837,69.68835L79.7606,69.71545L79.6867,69.66125L79.6867,69.41734L79.5882,69.30894L79.6621,69.22764L79.5882,69.17344L79.6129,69.11924L79.6867,69.09214L79.6375,69.03794L79.6621,68.95664L79.736,68.95664L79.6867,68.76694L79.7606,68.73984L79.7606,68.68564L79.8345,68.68564L79.8591,68.63144L79.9576,68.60434L79.9083,68.57724L79.8098,68.36043L79.7606,68.36043L79.6867,68.11653L79.6129,68.06233L79.736,67.81843L79.6867,67.79133L79.5636,67.84553L79.5144,67.98103L79.3912,68.00813L79.2189,68.19783L79.1943,68.03523L79.2435,67.79133L79.3912,67.73713L79.4405,67.65583L79.4897,67.38482L79.3912,67.38482L79.342,67.43902L79.31739999999999,67.62873L79.2189,67.71003L79.0711,67.62873L79.0711,67.57453L78.89877,67.43902L78.67715,67.38482L78.65253,67.33062L78.75103,67.22222L78.70178,67.14092L78.65253,67.22222L78.60328,67.19512L78.67715,67.03252L78.65253,66.95122L78.43092,66.84282L78.28317,66.92412L78.23393,66.89702L78.08618,66.59892L78.03694,66.35501L77.93844,66.30081L77.91382,66.21951L78.01231,66.02981L78.33242,65.704607L78.40629,65.460705L78.3078,65.298103L78.13543,65.162602L78.08618,65.189702L78.01231,65.460705L77.64295,65.162602L77.64295,65.0813008L77.51984,65.0542005L77.47059,65L77.22435,65.162602L76.83037,65.162602L76.80575,65.325203L76.90424,65.542005L76.90424,65.785908L77.02736,65.840108L77.07661,65.813008L77.24897,66.00271L77.15048,66.51762L77.1751,66.86992L77.02736,66.92412L76.90424,67.27642L76.55951,67.41192L76.55951,67.46612L76.51026,67.49323L76.38714,67.79133L76.41176,67.98103L76.28865,68.11653L76.2394,68.57724L76.16553,68.63144L76.09166,68.87534L76.09166,69.30894L76.11628,69.36314L76.2394,69.41734L76.46101,69.44444L76.53488,69.36314L76.48564,69.25474L76.46101,69.01084L76.60876,68.92954L77.02736,69.01084L77.42134,69.49865L77.49521,69.85095L77.76607,69.82385L77.83995,69.87805L77.61833,70.55556L77.54446,71.04336L77.47059,71.07046L77.29822,71.34146L77.19973,71.42276L77.15048,71.69377L76.92886,71.85637L76.70725,72.18157L76.70725,72.23577L76.85499,72.10027L76.90424,72.10027L77.12586,72.23577L77.19973,72.20867L77.15048,72.26287L77.19973,72.42548L77.1751,72.39837L77.12586,72.50678L76.92886,72.69648L76.83037,72.72358L76.60876,72.66938L76.53488,73.02168L76.36252,73.02168L76.46101,72.72358L76.38714,72.64228L76.41176,72.56098L76.33789,72.42548L76.26402,72.47968L76.26402,72.83198L76.09166,72.91328L76.01778,72.66938L76.09166,72.53388L76.01778,72.47968L75.84542,72.50678L75.79617,72.53388L75.82079,72.64228L75.87004,72.66938L75.74692,72.75068L75.7223,72.96748L75.74692,73.04878L75.87004,73.04878L75.84542,73.21138L75.91929,73.50949L75.91929,73.75339L76.2394,74.10569L76.31327,74.24119L76.33789,74.9729L76.43639,75.3794L76.68263,75.7859L76.68263,76.2195L76.95349,77.0054L76.63338,77.168L76.38714,77.4119L76.31327,77.439L76.26402,77.5474L76.1409,77.5203L76.1409,77.3848L76.21477,77.3848L76.2394,77.3306L76.19015,77.2764L76.11628,77.3577L76.04241,77.3577L76.09166,77.3848L75.94391,77.4119L75.94391,77.4661L75.84542,77.4661L75.67305,77.7642L75.6238,77.7642L75.50068,77.6287L75.47606,77.5203L75.40219,77.5203L75.35294,77.6287L75.22982,77.6558L75.15595,77.8997L75.2052,78.1165L75.30369,78.1165L75.32832,78.1707L75.2052,78.3604L75.2052,78.4959L75.08208,78.7127L74.98358,78.6856L74.93434,78.76689999999999L74.86047,78.76689999999999L74.76197,78.8753L74.71272,78.8753L74.61423,78.7127L74.63885,78.523L74.54035999999999,78.4417L74.31874,78.4417L74.22025,78.5501L74.24487,78.4688L74.22025,78.5501L74.12175,78.523L74.0725,78.6043L74.14638,78.6043L74.26949,78.8753L74.31874,78.8753L74.34337,78.794L74.36799,78.8482L74.41723999999999,78.7398L74.46648,78.794L74.41723999999999,78.76689999999999L74.39261,78.8753L74.49111,78.8753L74.54035999999999,78.7398L74.51573,78.9024L74.44186,78.9295L74.46648,79.0108L74.36799,78.9024L74.34337,78.9295L74.51573,79.1463L74.44186,79.1463L74.41723999999999,79.2005L74.34337,79.1734L74.34337,79.3089L74.41723999999999,79.4444L74.36799,79.4986L74.26949,79.4986L74.19562,79.4173L74.14638,79.4173L74.12175,79.5799L73.99863,79.6883L73.85088999999999,79.6612L73.82627,79.7425L73.40765999999999,79.8238L73.30917,79.878L73.33379,79.9594L73.03829999999999,80.0678L73.01368,79.9594L72.84131,80.0949L72.79207,80.0678L72.79207,80.122L72.74282,80.1491L72.66895,80.0949L72.6197,80.122L72.6197,80.2033L72.5212,80.2575L72.27497,80.1762L72.07798,80.0407L72.0041,80.1762L72.05335,80.2304L72.0041,80.2575L72.02873,80.3388L72.07798,80.3117L72.07798,80.393L72.15185,80.5285L72.20109,80.5014L72.29959,80.6098L72.29959,80.7453L72.25034,80.7724L72.27497,80.8537L72.25034,80.9079L72.20109,80.8808L72.17647,80.9892L72.1026,80.935L72.0041,81.0705L71.90561,81.04339999999999L71.5855,81.15180000000001L71.56088,81.1247L71.51163,81.2873L71.46238,81.2873L71.41313,81.1789L71.36389,81.1789L71.31464,81.0163L71.16689,81.1247L71.0684,81.0976L70.99453,81.0163L70.94528,81.04339999999999L70.9699,81.1789L71.01915,81.23310000000001L70.9699,81.3415L70.79754,81.4228L70.72367,81.6125L70.74829,81.6396L70.64979,81.7209L70.47743,81.748L70.30506,81.85640000000001L70.23119,81.8022L70.00958,81.7751L69.763338,81.9919L69.467852,82.1003L69.270862,82.2358L69.172367,82.2629L69.0738714,82.1816L69,82.28999999999999L69.0738714,82.6423L69.0492476,82.8049L69.147743,83.2927L69.246238,83.3469L69.369357,83.6721L69.221614,83.7534L69.19699,83.9702L69.246238,83.9973L69.246238,84.1328L69.320109,84.1328L69.320109,84.24119999999999L69.393981,84.3767L69.640219,84.3767L69.71409,84.24119999999999L69.812585,84.1599L69.812585,84.0515L69.960328,83.8347L69.960328,83.7534L70.00958,83.7263L69.984952,83.645L70.05882,83.5908L70.18194,83.5908L70.30506,83.5095L70.40356,83.5637L70.40356,83.645L70.5513,83.6721L70.60055,83.645L70.62517,83.53659999999999L70.5513,83.4282L70.79754,83.2927L70.79754,83.2385L71.04378,83.1572L71.09302,83.2656L71.38851,83.1572L71.65937,83.374L71.80711,83.5637L71.80711,83.6721L71.90561,83.7534L71.97948,83.8889L72.05335,83.8347L71.97948,84.1057L71.90561,84.1057L71.80711,84.2141L71.73324,84.187L71.61012,84.24119999999999L71.65937,84.2954L71.63475,84.43090000000001L71.68399,84.5664L71.68399,84.7019L71.63475,84.7832L71.65937,84.8374L71.61012,84.86449999999999L71.80711,85L71.93023,84.86449999999999L72.1026,84.86449999999999L72.20109,84.8103L72.29959,84.6748L72.34884,84.7019L72.44733,84.5935L72.44733,84.3767L72.54583,84.1599L72.59508,84.1328L72.64432,84.187L72.76744,84.0786L72.76744,83.9973L72.54583,83.8347L72.71818999999999,83.6992L72.96443,83.5637L73.06293,83.5908L73.08755,83.6992L73.1368,83.7263L73.21067,83.5095L73.30917,83.53659999999999L73.35841,83.4282L73.50616,83.4824L73.58003,83.3198L73.58003,83.18430000000001L73.6539,83.18430000000001L73.70315,83.2385L73.85088999999999,83.18430000000001L73.92476,83.4824L74.04788,83.4553L74.0725,83.4011L73.92476,83.2656L73.94938,83.2385L74.12175,83.4282L74.19562,83.374L74.12175,83.4824L74.19562,83.4553L74.24487,83.2927L74.12175,83.1572L74.22025,83.0488L74.29412,83.0488L74.39261,83.18430000000001L74.56498,83.1572L74.44186,82.99459999999999L74.26949,82.99459999999999L74.31874,82.8862L74.22025,82.832L74.19562,82.7507L74.36799,82.6694L74.39261,82.47970000000001L74.39261,82.561L74.49111,82.5068L74.61423,82.5339L74.61423,82.6694L74.6881,82.8049L74.5896,83.0217L74.54035999999999,82.99459999999999L74.54035999999999,83.0759L74.61423,83.1572L74.71272,83.1301L74.73735,83.2114L74.66347999999999,83.374L74.56498,83.4011L74.56498,83.4553L74.51573,83.4011L74.46648,83.4553L74.36799,83.3469L74.36799,83.5095L74.46648,83.5095L74.54035999999999,83.4553L74.46648,83.5637L74.54035999999999,83.5637L74.41723999999999,83.645L74.46648,83.6721L74.41723999999999,83.6992L74.46648,83.8618L74.56498,83.7805L74.61423,83.5637L74.71272,83.53659999999999L74.71272,83.6992L74.88509,83.9431L74.95896,83.8347L75.00821,83.80760000000001L75.05746,83.8618L75.1067,83.7805L75.30369,83.9431L75.30369,83.8889L75.35294,83.8618L75.54993,83.916L75.67305,83.7534L75.79617,83.7263L75.79617,83.6721L75.84542,83.6721L76.04241,83.3469L76.41176,83.2656L76.41176,83.2114L76.46101,83.18430000000001L76.53488,82.6694L76.41176,82.6423L76.41176,82.5881L76.55951,82.3713L76.68263,82.3442L76.68263,82.1545L76.7565,82.0732L76.7565,81.9377L76.55951,81.8022L76.63338,81.748L76.63338,81.6396L76.70725,81.58539999999999L76.92886,81.5312L76.95349,81.5583L77.12586,81.3957L77.29822,81.4228L77.29822,81.15180000000001L77.24897,80.96209999999999L77.15048,80.8537L77.2736,80.7724L77.32285,80.7724L77.39672,80.8808L77.56908,80.8537L77.66758,80.5827L77.66758,80.6369L77.71683,80.6369L77.83995,80.5014L77.83995,80.5827L77.93844,80.5827L77.93844,80.6369L78.01231,80.6098L78.06156,80.664L78.11081,80.6098L78.11081,80.7453L78.16005,80.7453L78.18468,80.6369L78.28317,80.5827L78.25855,80.5285L78.3078,80.4743L78.55404,80.4201L79.2928,81.04339999999999L79.4897,81.4499L79.5882,81.5583L79.736,81.6125L80.3762,81.5583L80.8194,81.4499L81.041,81.6396L81.2873,82.1003L81.5089,83.374L81.7059,83.7534L81.8536,83.7805L81.9029,83.7263L81.9767,83.7263L82.0999,83.8618L82.3461,83.9702L82.6908,84.2141L82.7155,84.187L82.8386,84.3225L82.8878,84.2683L82.9124,84.2954L83.01089999999999,84.1599L83.1094,84.2141L83.0356,84.0786L83.33109999999999,84.3225L83.528,84.2683L83.5034,84.1328L83.6019,83.9702L83.6019,83.80760000000001L83.7004,83.7805L83.922,83.4824L84.09440000000001,83.1572L84.1683,82.8862L84.2914,82.7778L84.4884,82.8862L84.71000000000001,83.2114L84.7839,83.18430000000001L84.9316,82.99459999999999L85.0547,82.91329999999999L85.3502,82.99459999999999L85.84270000000001,82.8862L85.8181,82.7778L85.8673,82.6694L86.3598,82.3713L86.4829,82.2087L86.40899999999999,82.1003L86.3352,81.7751L86.606,81.6938L86.6553,81.7209L86.803,81.6396L87,81.3957L86.8769,81.3415L86.7784,81.206L86.6306,81.1247L86.2613,81.15180000000001L86.2613,81.206L86.212,81.23310000000001L86.1135,81.1789L85.9658,81.23310000000001L85.89189999999999,81.15180000000001L85.5226,80.96209999999999L85.4979,80.5285L85.4241,80.5285L85.301,80.3659L85.2517,80.3659L85.2517,80.2846L85.3502,80.2033L85.27629999999999,80.0407L85.32560000000001,80.0136L85.0055,79.6883L84.9316,79.6612L84.907,79.5799L84.9316,79.4444L85.0547,79.4444L85.0055,78.9024L85.0547,78.8482L85.104,78.8753L85.1286,78.8211L85.27629999999999,78.7398L85.2517,78.6585L85.104,78.41460000000001L84.8331,78.252L84.7346,78.3062L84.7346,78.2249L84.5376,78.0623L84.4145,77.8997L84.4391,77.5745L84.5622,77.439L84.5376,77.3848L84.4145,77.3306L84.4145,77.1409L84.5622,77.0325L84.6607,76.8699L84.5622,76.8699L84.513,76.5176L84.5376,76.3821L83.9713,76.4363L83.725,76.4092L83.4542,76.1382L83.2572,76.0569L83.1094,75.8401L83.1094,75.6775L83.2326,75.6504L83.4049,75.542L83.6758,75.542L83.7497,75.4336L83.7497,75.271L83.8235,75.271L83.7989,75.1626L83.6758,75.1897L83.5773,74.7561L83.7004,74.729L83.7497,74.29539L83.3803,74.26829000000001L83.2818,74.15989L83.2818,73.99728999999999L83.3803,73.78049L83.6512,73.61789L83.7004,73.53659L83.6758,73.21138L83.6019,73.02168L83.3557,72.72358L83.2326,72.72358L83.1094,72.58808L83.1341,72.42548L83.0848,72.37127L83.1094,72.26287L83.1587,72.23577L83.2079,71.93767L83.1341,71.50407L83.0356,71.39566L82.8878,71.34146L82.8632,71.20596L82.6908,71.17886L82.617,71.01626L82.6416,70.93496L82.5677,70.82656L82.4692,70.82656L82.223,70.58266L82.1737,70.71816L81.9767,70.74526L81.9767,70.69106L81.82900000000001,70.82656L81.8783,70.85366L81.9029,70.98916L81.82900000000001,71.12466L81.6813,71.07046L81.5581,71.09756L81.4843,71.20596L81.4104,71.17886L81.238,71.23306L81.21340000000001,71.28726L81.4104,71.72087L81.4104,71.91057L81.3611,71.96477L81.1888,71.99187L80.8933,71.88347L80.7702,71.96477ZM76.16553,77.3035L76.19015,77.2764L76.1409,77.2493L76.1409,77.3035L76.16553,77.3035Z" fill-rule="evenodd" fill="url(#master_svg5_284_69867)" fill-opacity="0.009999999776482582"/></g><g><path d="M80.72092585510254,79.0108393887329L80.72092585510254,78.90243938873292L80.77017585510254,78.87533938873291L80.77017585510254,78.82113938873292L80.86867585510254,78.76693938873291L81.06566585510254,78.76693938873291L81.13953585510254,78.71273938873291L81.09028585510254,78.46882938873291L81.13953585510254,78.44172938873291L81.13953585510254,78.36042938873291L81.01641585510254,78.36042938873291L80.96716585510254,78.19782938873291L80.89329585510254,78.17072938873291L80.84404585510254,77.95392938873292L80.86867585510254,77.84552938873291L80.89329585510254,77.8726293887329L80.94254585510254,77.7913293887329L80.96716585510254,77.81842938873291L80.96716585510254,77.76422938873291L81.75512585510253,77.81842938873291L81.85362585510254,77.89972938873291L81.97674585510254,77.92682938873291L82.29685585510254,77.8726293887329L82.54309585510254,77.6287293887329L82.61696585510253,77.60162938873292L82.86320585510254,77.7100293887329L82.91244585510253,77.68292938873292L82.91244585510253,77.5203293887329L82.96169585510253,77.4661193887329L82.93707585510253,77.41191938873291L82.66621585510254,77.43901938873292L82.61696585510253,77.41191938873291L82.54309585510254,77.22221938873291L82.44459585510253,77.1951193887329L82.49384585510253,77.08671938873292L82.66621585510254,77.05961938873291L82.74008585510254,76.86991838873291L82.71545585510253,76.8157173887329L82.61696585510253,76.89701838873292L82.44459585510253,76.78861738873292L82.41997585510254,76.68021638873292L82.32147585510253,76.54471438873291L82.39534585510253,76.4905143887329L82.41997585510254,76.40921338873291L82.37072585510253,76.3821133887329L82.37072585510253,76.43631338873291L82.29685585510254,76.43631338873291L82.29685585510254,76.32791238873291L82.17373585510254,76.32791238873291L82.07523585510253,76.00270938873291L81.97674585510254,76.0569098887329L81.82900585510254,76.00270938873291L81.82900585510254,76.0840101887329L81.77975585510254,76.0840101887329L81.77975585510254,76.13821038873292L81.63201585510254,76.13821038873292L81.53351585510254,76.1924113887329L81.41039585510254,76.13821038873292L81.38577585510254,76.2737123887329L80.96716585510254,76.21951138873291L80.89329585510254,76.24661138873292L80.89329585510254,76.43631338873291L80.81942585510254,76.57181538873292L80.72092585510254,76.62601538873291L80.57318785510255,76.57181538873292L80.52394085510254,76.5989153887329L80.45006885510254,76.76151738873291L80.20383085510254,76.65311538873291L80.05608785510253,76.65311538873291L79.93296885510254,76.7073163887329L79.88372185510254,76.78861738873292L79.80984985510254,76.78861738873292L79.71135485510254,76.7073163887329L79.68673105510254,77.08671938873292L79.73597885510254,77.24931938873291L79.68673105510254,77.43901938873292L79.58823585510254,77.60162938873292L79.58823585510254,77.81842938873291L79.73597885510254,77.8726293887329L79.88372185510254,78.11652938873291L79.98221685510254,78.44172938873291L80.20383085510254,78.87533938873291L80.45006885510254,79.0108393887329L80.72092585510254,79.0108393887329Z" fill-rule="evenodd" fill="#C2EAFF" fill-opacity="1"/></g><g><path d="M82.96169996246338,77.46612542984009L83.03556996246338,77.5745254298401L83.08481996246338,77.5745254298401L83.23255996246338,77.43902542984009L83.25717996246338,77.33062542984008L83.33104996246338,77.24932542984008L83.52803996246338,77.16801542984008L83.57728996246338,77.2222254298401L83.70040996246338,77.24932542984008L83.77427996246338,77.19512542984009L83.92201996246338,77.24932542984008L83.92201996246338,77.46612542984009L84.04513996246338,77.54742542984009L84.09438996246338,77.73712542984009L84.14363996246338,77.71002542984009L84.16825996246338,77.76422542984008L84.24212996246338,77.71002542984009L84.29137996246338,77.79132542984009L84.41449996246338,77.81842542984009L84.43911996246338,77.5745254298401L84.56223996246338,77.43902542984009L84.53761996246338,77.38482542984009L84.41449996246338,77.33062542984008L84.41449996246338,77.14092542984008L84.56223996246338,77.03251542984009L84.66073996246338,76.86991542984009L84.56223996246338,76.86991542984009L84.51299996246338,76.51761542984009L84.53761996246338,76.38211542984008L83.97126996246338,76.43631542984009L83.72502996246338,76.40921542984009L83.45416996246338,76.13821542984009L83.25717996246338,76.05690542984009L83.10943996246338,75.8401054298401L83.10943996246338,75.67750542984008L83.23255996246338,75.65040542984009L83.40492996246338,75.54200542984009L83.67578996246338,75.54200542984009L83.74965996246338,75.43360542984009L83.74965996246338,75.27100542984009L83.82352996246338,75.27100542984009L83.79890996246338,75.16260542984008L83.67578996246338,75.18970542984009L83.57728996246338,74.75609542984009L83.70040996246338,74.72899542984008L83.74965996246338,74.29539542984008L83.38029996246338,74.2682954298401L83.28180996246338,74.15989542984009L83.28180996246338,73.99728542984009L83.38029996246338,73.78048542984008L83.65115996246338,73.61788542984009L83.70040996246338,73.53658542984009L83.67578996246338,73.21138542984009L83.60190996246338,73.02167542984009L83.35567996246338,72.72357542984008L83.23255996246338,72.72357542984008L83.10943996246338,72.58807542984009L83.13405996246338,72.42547542984009L83.08481996246338,72.37127542984008L83.10943996246338,72.2628754298401L83.15868996246338,72.23577542984009L83.20792996246338,71.93766542984008L83.13405996246338,71.50406442984008L83.03556996246338,71.39566342984008L82.88782996246339,71.34146342984009L82.86319996246338,71.20596142984009L82.69083996246337,71.17886142984008L82.61695996246338,71.01625942984009L82.64158996246339,70.93495942984009L82.56771996246337,70.8265574298401L82.46921996246338,70.8265574298401L82.22297996246338,70.58265542984009L82.17373996246337,70.71815642984009L81.97673996246338,70.7452574298401L81.97673996246338,70.69105642984009L81.82899996246339,70.8265574298401L81.87824996246337,70.85365842984008L81.90286996246338,70.98915942984009L81.82899996246339,71.12466042984009L81.68125996246337,71.07046042984008L81.55813996246337,71.09756042984009L81.48426996246337,71.20596142984009L81.41039996246337,71.17886142984008L81.23802996246337,71.23306142984009L81.21340996246337,71.28726242984008L81.41039996246337,71.72086542984009L81.41039996246337,71.91056542984009L81.36114996246337,71.96476542984009L81.18877996246337,71.99186542984009L80.89329996246337,71.88346542984009L80.77017996246337,71.96476542984009L80.79479996246337,72.12737542984009L80.96716996246337,72.37127542984008L80.81942996246337,72.5338754298401L80.69630996246337,72.56097542984008L80.49931996246337,72.50677542984009L80.54855996246337,72.83197542984009L80.35156996246337,72.85907542984009L80.30232996246338,72.77777542984009L80.12995996246337,72.66937542984009L79.78522996246338,72.75067542984009L79.56360996246337,72.69647542984009L79.48973996246337,72.37127542984008L79.36661996246337,72.23577542984009L79.39124996246338,72.42547542984009L78.94801996246338,72.56097542984008L78.89876996246338,72.66937542984009L79.04650996246338,72.80487542984008L79.02188996246338,73.02167542984009L78.84951996246338,73.23848542984008L78.67714996246337,73.59078542984008L78.72639996246338,73.91598542984009L78.65252996246338,73.94308542984008L78.55403996246338,74.07858542984009L78.40628996246338,74.1056854298401L78.40628996246338,74.21409542984009L78.33241996246338,74.2682954298401L78.25854996246338,74.2682954298401L78.25854996246338,74.18699542984008L78.18467996246338,74.18699542984008L78.03693996246338,74.32249542984009L78.13542996246338,74.6205954298401L78.40628996246338,74.99999542984008L78.35704996246338,74.99999542984008L78.25854996246338,74.86449542984009L77.83994496246338,74.83739542984009L77.74144996246338,74.86449542984009L77.74144996246338,75.10840542984009L77.66757896246338,75.18970542984009L77.47058896246338,75.18970542984009L77.49521196246337,75.32520542984008L77.61833096246338,75.4878054298401L77.69220296246338,75.78590542984008L77.64295496246338,76.1111054298401L77.66757896246338,76.3550154298401L77.61833096246338,76.43631542984009L77.71682596246337,76.68021542984009L77.79069796246338,76.76151542984009L77.81532196246337,77.2222254298401L77.91381696246339,77.2222254298401L77.98768796246338,77.27642542984009L78.01231196246339,77.38482542984009L78.20929996246338,77.41192542984008L78.20929996246338,77.4932254298401L78.25854996246338,77.54742542984009L78.20929996246338,77.62872542984009L78.25854996246338,77.68292542984008L78.20929996246338,77.71002542984009L78.28316996246338,77.81842542984009L78.23392996246338,77.81842542984009L78.23392996246338,77.89972542984009L78.18467996246338,77.8455254298401L78.11080996246338,77.87262542984008L78.20929996246338,77.89972542984009L78.13542996246338,77.95392542984008L78.16004996246338,78.06232542984009L78.01231196246339,78.19783542984008L77.88919296246338,78.22493542984009L77.88919296246338,78.1707354298401L77.61833096246338,78.27913542984008L77.59370696246337,78.57723542984009L77.69220296246338,78.92953542984009L78.35704996246338,79.74254542984009L78.45553996246338,80.1761554298401L78.55403996246338,80.36585542984008L78.48015996246338,80.42005542984009L78.35704996246338,80.33875542984009L78.25854996246338,80.12195542984009L78.06155996246338,79.95934542984008L77.93844096246337,79.90514542984009L77.76607396246338,79.9322454298401L77.64295496246338,79.79674542984009L77.59370696246337,79.79674542984009L77.49521196246337,79.8509454298401L77.42134096246338,80.04064542984008L77.47058896246338,80.06774542984009L77.22434996246338,80.42005542984009L77.05198376246338,80.5284554298401L77.07660756246338,80.55555542984008L77.02735996246338,80.66395542984009L77.17510296246338,80.82655542984008L77.32284596246338,80.77235542984009L77.39671696246337,80.8807554298401L77.56908396246338,80.85365542984009L77.66757896246338,80.58265542984009L77.66757896246338,80.63685542984008L77.71682596246337,80.63685542984008L77.83994496246338,80.50135542984009L77.83994496246338,80.58265542984009L77.93844096246337,80.58265542984009L77.93844096246337,80.63685542984008L78.01231196246339,80.60975542984009L78.06155996246338,80.66395542984009L78.11080996246338,80.60975542984009L78.11080996246338,80.74525542984009L78.16004996246338,80.74525542984009L78.18467996246338,80.63685542984008L78.28316996246338,80.58265542984009L78.25854996246338,80.5284554298401L78.30779996246338,80.47425542984008L78.55403996246338,80.42005542984009L79.29274996246338,81.04335542984009L79.44048996246337,81.36855542984009L79.58823996246338,81.55825542984009L79.73597996246338,81.61245542984008L80.37619996246337,81.55825542984009L80.81942996246337,81.44985542984008L81.04103996246337,81.63955542984009L81.13952996246339,81.31435542984009L81.06565996246337,81.17885542984008L80.89329996246337,81.12465542984009L80.77017996246337,81.01625542984009L80.79479996246337,80.93495542984009L80.69630996246337,80.85365542984009L80.62243996246337,80.8807554298401L80.57318996246337,80.77235542984009L80.40081996246337,80.7181554298401L80.42543996246337,80.69105542984009L80.35156996246337,80.5284554298401L80.25307996246337,80.47425542984008L80.25307996246337,80.33875542984009L80.20382996246337,80.33875542984009L80.10533996246338,80.12195542984009L80.25307996246337,79.8509454298401L80.17920996246337,79.82384542984009L80.35156996246337,79.90514542984009L80.40081996246337,79.82384542984009L80.81942996246337,79.82384542984009L80.84404996246337,79.74254542984009L80.77017996246337,79.6612454298401L80.77017996246337,79.52574542984009L80.84404996246337,79.52574542984009L80.96716996246337,79.3089454298401L80.91791996246337,79.25474542984009L80.91791996246337,79.17344542984009L80.84404996246337,79.17344542984009L80.91791996246337,79.09213542984008L80.79479996246337,78.9837354298401L80.45006996246337,79.01083542984009L80.20382996246337,78.87533542984009L79.98221996246338,78.4417354298401L79.88371996246337,78.1165254298401L79.73597996246338,77.87262542984008L79.58823996246338,77.81842542984009L79.58823996246338,77.60162542984008L79.68672996246337,77.43902542984009L79.73597996246338,77.24932542984008L79.68672996246337,77.08671542984008L79.71134996246337,76.7073154298401L79.80984996246337,76.78861542984009L79.88371996246337,76.78861542984009L79.93296996246337,76.7073154298401L80.05608996246337,76.65311542984008L80.20382996246337,76.65311542984008L80.45006996246337,76.76151542984009L80.52393996246337,76.59891542984009L80.57318996246337,76.57181542984009L80.72092996246337,76.6260154298401L80.81942996246337,76.57181542984009L80.89329996246337,76.43631542984009L80.89329996246337,76.24661542984009L80.96716996246337,76.21951542984009L81.38576996246339,76.27371542984008L81.41039996246337,76.13821542984009L81.53351996246337,76.19241542984008L81.63200996246339,76.13821542984009L81.77974996246338,76.13821542984009L81.77974996246338,76.08400542984009L81.82899996246339,76.08400542984009L81.82899996246339,76.00270542984009L81.97673996246338,76.05690542984009L82.07523996246339,76.00270542984009L82.17373996246337,76.32791542984009L82.29684996246338,76.32791542984009L82.29684996246338,76.40921542984009L82.37072996246337,76.43631542984009L82.37072996246337,76.38211542984008L82.41996996246338,76.40921542984009L82.39534996246338,76.49051542984009L82.32147996246339,76.54471542984008L82.41996996246338,76.68021542984009L82.44459996246337,76.78861542984009L82.59233996246338,76.89701542984008L82.71545996246338,76.81571542984008L82.74007996246338,76.86991542984009L82.66620996246338,77.0596154298401L82.49383996246338,77.08671542984008L82.44459996246337,77.16801542984008L82.54308996246338,77.2222254298401L82.61695996246338,77.41192542984008L82.66620996246338,77.43902542984009L82.76470996246339,77.38482542984009L82.93706996246338,77.41192542984008L82.96169996246338,77.46612542984009Z" fill-rule="evenodd" fill="#FFFFFF" fill-opacity="1"/></g><g><path d="M81.04104118927002,81.6395612020874L81.28727618927002,82.1002712020874L81.50889618927002,83.3739812020874L81.70588618927002,83.7533812020874L81.85362618927002,83.7804912020874L81.90287618927002,83.7262912020874L81.97674618927002,83.7262912020874L82.09986618927002,83.8617912020874L82.34610618927002,83.9701912020874L82.69083618927002,84.2140912020874L82.71545618927001,84.1869912020874L82.83857618927001,84.3224912020874L82.88782618927002,84.2682912020874L82.91244618927001,84.2953912020874L83.01094618927002,84.15989120208741L83.10943618927001,84.2140912020874L83.03556618927001,84.07859120208741L83.33105618927002,84.3224912020874L83.52804618927001,84.2682912020874L83.50341618927001,84.1327912020874L83.60191618927001,83.9701912020874L83.60191618927001,83.80759120208741L83.70041618927002,83.7804912020874L83.92202618927001,83.4823812020874L84.21750618927003,82.8319812020874L84.29138618927001,82.7777812020874L84.38987618927001,82.8048812020874L84.48837618927001,82.8861812020874L84.70998618927003,83.21138120208741L84.78385618927003,83.1842812020874L84.93160618927001,82.9945812020874L85.05471618927002,82.9132812020874L85.35020618927003,82.9945812020874L85.84268618927003,82.8861812020874L85.81805618927002,82.7777812020874L85.86730618927002,82.6693712020874L86.35978618927003,82.3712712020874L86.48290618927003,82.2086712020874L86.40902618927002,82.1002712020874L86.33515618927002,81.7750712020874L86.60601618927002,81.6937712020874L86.65526618927002,81.72087120208741L86.80300618927002,81.6395612020874L86.99999618927002,81.3956612020874L86.87688618927002,81.3414612020874L86.77838618927002,81.20596120208741L86.63064618927002,81.1246612020874L86.26128618927002,81.1517612020874L86.26128618927002,81.20596120208741L86.21203618927002,81.2330612020874L86.11354618927002,81.1788612020874L85.96580618927003,81.2330612020874L85.89192618927002,81.1517612020874L85.52257618927001,80.9620612020874L85.49794618927002,80.5284512020874L85.42407618927002,80.5284512020874L85.30095618927002,80.3658512020874L85.25171618927001,80.3658512020874L85.25171618927001,80.2845512020874L85.35020618927003,80.2032512020874L85.27633618927003,80.0406512020874L85.32558618927001,80.0135512020874L85.00547618927001,79.6883412020874L84.93160618927001,79.6612412020874L84.90697618927003,79.5799412020874L84.93160618927001,79.4444412020874L85.05471618927002,79.4444412020874L85.00547618927001,78.9024412020874L85.05471618927002,78.84824120208741L85.10396618927003,78.8753412020874L85.12859618927001,78.8211412020874L85.27633618927003,78.7398412020874L85.25171618927001,78.6585312020874L85.10396618927003,78.4146312020874L84.83310618927001,78.25203120208741L84.73460618927002,78.3062312020874L84.73460618927002,78.2249312020874L84.46374618927003,77.9810292020874L84.41450618927001,77.8184272020874L84.29138618927001,77.7913272020874L84.24213618927001,77.7100262020874L84.16826618927001,77.7642272020874L84.14363618927001,77.7100262020874L84.09439618927001,77.73712720208741L84.04514618927001,77.5474252020874L83.92202618927001,77.4661242020874L83.92202618927001,77.2493220020874L83.77428618927001,77.1951215020874L83.70041618927002,77.2493220020874L83.57729618927002,77.2222217020874L83.52804618927001,77.1680212020874L83.33105618927002,77.2493220020874L83.25718618927002,77.33062320208741L83.23255618927001,77.4390242020874L83.08481618927001,77.5745252020874L83.03556618927001,77.5745252020874L82.96169618927001,77.4661242020874L82.91244618927001,77.5203252020874L82.91244618927001,77.6829262020874L82.86320618927002,77.7100262020874L82.61696618927002,77.6016252020874L82.54309618927002,77.6287262020874L82.29685618927002,77.8726282020874L81.97674618927002,77.9268292020874L81.85362618927002,77.8997282020874L81.75512618927002,77.8184272020874L81.50889618927002,77.8184272020874L81.36114618927002,77.7642272020874L80.96716918927002,77.7642272020874L80.96716918927002,77.8184272020874L80.94254518927002,77.7913272020874L80.89329818927001,77.8726282020874L80.86867418927002,77.84552820208741L80.84405018927002,77.95392920208741L80.89329818927001,78.1707312020874L80.96716918927002,78.1978312020874L81.01641718927002,78.3604312020874L81.13953618927002,78.3604312020874L81.13953618927002,78.4417312020874L81.09028818927003,78.4688312020874L81.13953618927002,78.7127412020874L81.06566418927002,78.76694120208741L80.86867418927002,78.76694120208741L80.77017918927002,78.8211412020874L80.77017918927002,78.8753412020874L80.72093118927002,78.9024412020874L80.72093118927002,79.0108412020874L80.79480218927002,78.9837412020874L80.91792118927002,79.0921412020874L80.84405018927002,79.1734412020874L80.91792118927002,79.1734412020874L80.91792118927002,79.2547412020874L80.96716918927002,79.3089412020874L80.84405018927002,79.5257412020874L80.77017918927002,79.5257412020874L80.77017918927002,79.6612412020874L80.84405018927002,79.7425512020874L80.81942618927002,79.8238512020874L80.40082218927002,79.8238512020874L80.35157418927002,79.9051512020874L80.17920758927002,79.7967512020874L80.25307918927003,79.8509512020874L80.10533618927002,80.1219512020874L80.20383138927002,80.33875120208741L80.25307918927003,80.33875120208741L80.25307918927003,80.4742512020874L80.35157418927002,80.5284512020874L80.42544518927002,80.69105120208741L80.40082218927002,80.7181612020874L80.57318818927001,80.7723612020874L80.62243618927002,80.8807612020874L80.69630718927002,80.85366120208741L80.79480218927002,80.93496120208741L80.77017918927002,81.0162612020874L80.89329818927001,81.1246612020874L81.06566418927002,81.1788612020874L81.13953618927002,81.3143612020874L81.06566418927002,81.5040612020874L81.04104118927002,81.6395612020874Z" fill-rule="evenodd" fill="#FFFFFF" fill-opacity="1"/></g><g><path d="M80.77017766845704,71.96477L80.74555766845702,71.91057L80.84404766845704,71.77507L80.89329766845704,71.58536L80.86867766845702,71.39566L80.79479766845704,71.28726L80.69630766845702,71.26016L80.59780766845704,71.09756L80.62243766845702,71.04336L80.57318766845702,70.93496L80.52393766845704,70.93496L80.57318766845702,70.55556L80.62243766845702,70.55556L80.59780766845704,70.47425L80.49931766845702,70.42005L80.47468766845704,70.47425L80.35156766845704,70.36585L80.45006766845702,70.12195L80.72092766845704,69.79675L80.67167766845704,69.68835L80.54856766845703,69.66125L80.25307766845702,70.01355L80.20382766845704,69.98645L80.12995766845702,69.74255L80.03146766845703,69.76965L79.88371766845702,69.68835L79.76059766845702,69.71545L79.68672766845702,69.66125L79.68672766845702,69.41734L79.58823766845703,69.30894L79.66210766845703,69.22764L79.58823766845703,69.17344L79.61285766845702,69.11924L79.68672766845702,69.09214L79.63747766845704,69.03794L79.66210766845703,68.95664L79.73597766845702,68.95664L79.68672766845702,68.76694L79.76059766845702,68.73984L79.76059766845702,68.68564L79.83446766845704,68.68564L79.85909766845703,68.63144L79.95758766845704,68.60434L79.90834766845703,68.57724L79.80984766845702,68.36043L79.76059766845702,68.36043L79.68672766845702,68.11653L79.61285766845702,68.06233L79.73597766845702,67.81843L79.68672766845702,67.79133L79.56360766845702,67.84553L79.51436766845703,67.98103L79.39124766845703,68.00813L79.21887766845703,68.19783L79.19425766845703,68.03523L79.24349766845702,67.79133L79.39124766845703,67.73713L79.44048766845702,67.65583L79.48973766845702,67.38482L79.39124766845703,67.38482L79.34199766845703,67.43902L79.31737766845703,67.62873L79.21887766845703,67.71003L79.07113766845703,67.62873L79.07113766845703,67.57453L78.89876766845703,67.43902L78.67715766845703,67.38482L78.65252766845703,67.33062L78.75102766845703,67.22222L78.70177766845703,67.14092L78.65252766845703,67.22222L78.60327766845703,67.19512L78.67715766845703,67.03252L78.65252766845703,66.95122L78.43091766845703,66.84282L78.28317766845703,66.92412L78.23392766845703,66.89702L78.08618766845703,66.59892L78.03693766845703,66.35501L77.93843766845703,66.30081L77.91381766845703,66.21951L78.01230766845703,66.02981L78.33241766845703,65.704607L78.40628766845703,65.460705L78.30779766845703,65.298103L78.13542766845703,65.162602L78.08618766845703,65.189702L78.01230766845703,65.460705L77.64295766845703,65.162602L77.64295766845703,65.0813008L77.51983766845703,65.0542005L77.47058766845703,65L77.22434766845703,65.162602L76.83036766845703,65.162602L76.80574766845703,65.325203L76.90423766845703,65.542005L76.90423766845703,65.785908L77.02735766845703,65.840108L77.07660766845703,65.813008L77.24897766845703,66.00271L77.15047766845703,66.51762L77.17509766845703,66.86992L77.02735766845703,66.92412L76.90423766845703,67.27642L76.55950666845703,67.41192L76.55950666845703,67.46612L76.51025966845702,67.49322L76.38714066845704,67.79133L76.41176366845703,67.98103L76.28864466845702,68.11653L76.23939766845703,68.57724L76.16552666845703,68.63144L76.09165466845702,68.87534L76.09165466845702,69.30894L76.11627866845703,69.36314L76.23939766845703,69.41734L76.46101166845703,69.44444L76.53488266845703,69.36314L76.48563566845704,69.25474L76.46101166845703,69.01084L76.60875466845704,68.92954L77.02735766845703,69.01084L77.42133766845703,69.49864L77.49520766845703,69.85095L77.76607766845703,69.82385L77.83994766845703,69.87805L77.61832766845703,70.55556L77.54445766845703,71.04336L77.47058766845703,71.07046L77.29821766845703,71.34146L77.19972766845703,71.42276L77.15047766845703,71.69377L76.92886766845703,71.85637L76.70724966845704,72.18157L76.70724966845704,72.23577L76.85498766845703,72.10027L76.90423766845703,72.10027L77.12585766845703,72.23577L77.19972766845703,72.20867L77.15047766845703,72.26287L77.19972766845703,72.42547L77.17509766845703,72.39837L77.12585766845703,72.50677L76.92886766845703,72.69648L76.83036766845703,72.72358L76.60875466845704,72.66938L76.53488266845703,73.02168L76.36251666845703,73.02168L76.46101166845703,72.72358L76.38714066845704,72.64228L76.41176366845703,72.56097L76.33789266845703,72.42547L76.26402166845703,72.47967L76.26402166845703,72.83198L76.09165466845702,72.91328L76.01778366845703,72.66938L76.09165466845702,72.53387000000001L76.01778366845703,72.47967L75.84541666845703,72.50677L75.79616906845703,72.53387000000001L75.82079286845703,72.64228L75.87004066845704,72.66938L75.74692146845703,72.75068L75.72229766845703,72.96748L75.74692146845703,73.04878L75.87004066845704,73.04878L75.84541666845703,73.21138L75.91928766845703,73.50948L75.91928766845703,73.75339L76.23939766845703,74.10569L76.31326866845703,74.24119L76.33789266845703,74.9729L76.43638766845703,75.3794L76.68262566845704,75.7859L76.68262566845704,76.2195L77.05198766845703,77.3035L77.37208766845703,77.6287L77.56908766845703,78.0081L77.61832766845703,78.2791L77.88918766845703,78.1707L77.88918766845703,78.2249L78.01230766845703,78.1978L78.16005766845703,78.0623L78.13542766845703,77.9539L78.20929766845703,77.8997L78.11080766845703,77.8726L78.18467766845703,77.8455L78.23392766845703,77.8997L78.23392766845703,77.8184L78.28317766845703,77.8184L78.20929766845703,77.71000000000001L78.25854766845703,77.6829L78.20929766845703,77.6287L78.25854766845703,77.5474L78.20929766845703,77.4932L78.20929766845703,77.4119L78.01230766845703,77.3848L77.98768766845703,77.2764L77.91381766845703,77.2222L77.81531766845703,77.2222L77.79069766845703,76.7615L77.71682766845703,76.6802L77.61832766845703,76.4363L77.66757766845703,76.355L77.64295766845703,76.1111L77.69219766845703,75.7859L77.61832766845703,75.4878L77.49520766845703,75.3252L77.47058766845703,75.2168L77.66757766845703,75.1897L77.74144766845703,75.1084L77.74144766845703,74.86449999999999L77.83994766845703,74.8374L78.25854766845703,74.86449999999999L78.35704766845703,75L78.40628766845703,75L78.13542766845703,74.6206L78.03693766845703,74.32249L78.18467766845703,74.18699L78.25854766845703,74.18699L78.25854766845703,74.26829000000001L78.33241766845703,74.26829000000001L78.40628766845703,74.21409L78.40628766845703,74.10569L78.55403766845703,74.07859L78.65252766845703,73.94309L78.72639766845703,73.91599L78.67715766845703,73.59079L78.84951766845703,73.23848L79.02188766845703,73.02168L79.04650766845702,72.80488L78.89876766845703,72.66938L78.94801766845703,72.56097L79.39124766845703,72.42547L79.36661766845702,72.23577L79.48973766845702,72.37127L79.56360766845702,72.69648L79.78522766845703,72.75068L80.12995766845702,72.66938L80.30232766845702,72.77778L80.35156766845704,72.85908L80.54856766845703,72.83198L80.49931766845702,72.50677L80.69630766845702,72.56097L80.81942766845702,72.53387000000001L80.96716766845704,72.37127L80.79479766845704,72.12737L80.77017766845704,71.96477Z" fill-rule="evenodd" fill="#FFFFFF" fill-opacity="1"/></g><g><path d="M77.1751,80.82656068481445L77.02736,80.66396068481446L77.07661,80.55556068481445L77.05198,80.52845068481446L77.22435,80.42005068481446L77.47059,80.06775068481446L77.42134,80.04065068481445L77.49521,79.85095068481445L77.59371,79.79675068481446L77.64295,79.79675068481446L77.76607,79.93225068481445L77.93844,79.90515068481446L78.06156,79.95935068481445L78.25855,80.12195068481445L78.35705,80.33875068481446L78.48016,80.42005068481446L78.55404,80.36585068481445L78.45554,80.17615068481446L78.35705,79.74255068481445L77.6922,78.92954068481446L77.59371,78.57724068481446L77.61833,78.27913068481445L77.56908,78.00813068481445L77.37209,77.62872668481445L77.05198,77.30352368481445L76.95349,77.00542068481445L76.63338,77.16802268481446L76.38714,77.41192468481445L76.31327,77.43902468481446L76.26402,77.54742568481446L76.1409,77.52032568481445L76.1409,77.38482468481445L76.21477,77.38482468481445L76.2394,77.33062368481446L76.19015,77.27642368481445L76.11628,77.35772468481446L76.04241,77.35772468481446L76.09166,77.38482468481445L75.94391,77.41192468481445L75.94391,77.46612568481446L75.84542,77.46612568481446L75.67305,77.76422868481446L75.6238,77.76422868481446L75.50068,77.62872668481445L75.47606,77.52032568481445L75.40219,77.52032568481445L75.35294,77.62872668481445L75.22982,77.65582668481446L75.15595,77.89972968481446L75.2052,78.11653068481445L75.30369,78.11653068481445L75.32832,78.17073068481446L75.2052,78.36043068481445L75.2052,78.49593068481445L75.08208,78.71274068481445L74.98358,78.68564068481446L74.93434,78.76694068481446L74.86047,78.76694068481446L74.76197,78.87534068481445L74.71272,78.87534068481445L74.61423,78.71274068481445L74.63885,78.52304068481445L74.54035999999999,78.44173068481446L74.31874,78.44173068481446L74.22025,78.55014068481445L74.24487,78.46883068481445L74.22025,78.55014068481445L74.12175,78.52304068481445L74.0725,78.60434068481446L74.14638,78.60434068481446L74.26949,78.87534068481445L74.31874,78.87534068481445L74.34337,78.79404068481445L74.36799,78.84824068481446L74.41723999999999,78.73984068481445L74.46648,78.79404068481445L74.41723999999999,78.76694068481446L74.39261,78.87534068481445L74.49111,78.87534068481445L74.54035999999999,78.73984068481445L74.51573,78.90244068481445L74.44186,78.92954068481446L74.46648,79.01084068481445L74.36799,78.90244068481445L74.34337,78.92954068481446L74.51573,79.14634068481445L74.44186,79.14634068481445L74.41723999999999,79.20054068481446L74.34337,79.17344068481445L74.34337,79.30894068481446L74.41723999999999,79.44444068481445L74.36799,79.49864068481445L74.26949,79.49864068481445L74.19562,79.41734068481445L74.14638,79.41734068481445L74.12175,79.57995068481445L73.99863,79.68835068481445L73.85088999999999,79.66125068481445L73.82627,79.74255068481445L73.40765999999999,79.82385068481446L73.30917,79.87805068481445L73.33379,79.95935068481445L73.03829999999999,80.06775068481446L73.01368,79.95935068481445L72.84131,80.09485068481445L72.79207,80.06775068481446L72.79207,80.12195068481445L72.74282,80.14905068481445L72.66895,80.09485068481445L72.6197,80.12195068481445L72.6197,80.20325068481445L72.5212,80.25745068481446L72.27497,80.17615068481446L72.07798,80.04065068481445L72.0041,80.17615068481446L72.05335,80.23035068481445L72.0041,80.25745068481446L72.02873,80.33875068481446L72.07798,80.31165068481445L72.07798,80.39295068481445L72.15185,80.52845068481446L72.20109,80.50135068481445L72.29959,80.60976068481445L72.29959,80.74526068481445L72.25034,80.77236068481446L72.27497,80.85366068481446L72.25034,80.90786068481445L72.20109,80.88076068481445L72.17647,80.98916068481445L72.1026,80.93496068481446L72.0041,81.07046068481445L71.90561,81.04336068481446L71.5855,81.15176068481445L71.56088,81.12466068481446L71.51163,81.28726068481446L71.46238,81.28726068481446L71.41313,81.17886068481445L71.36389,81.17886068481445L71.31464,81.01626068481445L71.16689,81.12466068481446L71.0684,81.09756068481445L70.99453,81.01626068481445L70.94528,81.04336068481446L70.9699,81.17886068481445L71.01915,81.23306068481445L70.9699,81.34146068481445L70.79754,81.42276068481445L70.72367,81.61247068481445L70.74829,81.63957068481446L70.64979,81.72087068481446L70.47743,81.74797068481445L70.30506,81.85637068481445L70.23119,81.80217068481446L70.00958,81.77507068481445L69.763338,81.99187068481446L69.467852,82.10027068481445L69.270862,82.23577068481445L69.172367,82.26287068481446L69.0738714,82.18157068481446L69,82.28997068481445L69.0738714,82.64228068481445L69.0492476,82.80488068481445L69.147743,83.29268068481446L69.246238,83.34688068481445L69.369357,83.67209068481445L69.221614,83.75339068481445L69.19699,83.97019068481445L69.246238,83.99729068481446L69.246238,84.13279068481445L69.320109,84.13279068481445L69.320109,84.24119068481446L69.393981,84.37669068481445L69.640219,84.37669068481445L69.71409,84.24119068481446L69.812585,84.15989068481446L69.812585,84.05149068481445L69.960328,83.83469068481445L69.960328,83.75339068481445L70.00958,83.72629068481446L69.984952,83.64499068481446L70.05882,83.59078068481445L70.18194,83.59078068481445L70.30506,83.50948068481445L70.40356,83.56369068481445L70.40356,83.64499068481446L70.5513,83.67209068481445L70.60055,83.64499068481446L70.62517,83.53659068481446L70.5513,83.42818068481445L70.79754,83.29268068481446L70.79754,83.23848068481445L71.04378,83.15718068481445L71.09302,83.26558068481445L71.38851,83.15718068481445L71.65937,83.37398068481446L71.80711,83.56369068481445L71.80711,83.67209068481445L71.90561,83.75339068481445L71.97948,83.88889068481446L72.05335,83.83469068481445L71.97948,84.10569068481445L71.90561,84.10569068481445L71.80711,84.21409068481445L71.73324,84.18699068481445L71.61012,84.24119068481446L71.65937,84.29539068481445L71.63475,84.43089068481446L71.68399,84.56639068481445L71.68399,84.70190068481445L71.63475,84.78320068481446L71.65937,84.83740068481445L71.61012,84.86450068481446L71.80711,85.00000068481445L71.93023,84.86450068481446L72.1026,84.86450068481446L72.20109,84.81030068481445L72.29959,84.67480068481446L72.34884,84.70190068481445L72.44733,84.59350068481446L72.44733,84.37669068481445L72.54583,84.15989068481446L72.59508,84.13279068481445L72.64432,84.18699068481445L72.76744,84.07859068481446L72.76744,83.99729068481446L72.54583,83.83469068481445L72.71818999999999,83.69919068481445L72.96443,83.56369068481445L73.06293,83.59078068481445L73.08755,83.69919068481445L73.1368,83.72629068481446L73.21067,83.50948068481445L73.30917,83.53659068481446L73.35841,83.42818068481445L73.50616,83.48238068481446L73.58003,83.31978068481445L73.58003,83.18428068481445L73.6539,83.18428068481445L73.70315,83.23848068481445L73.85088999999999,83.18428068481445L73.92476,83.48238068481446L74.04788,83.45528068481445L74.0725,83.40108068481446L73.92476,83.26558068481445L73.94938,83.23848068481445L74.12175,83.42818068481445L74.19562,83.37398068481446L74.12175,83.48238068481446L74.19562,83.45528068481445L74.24487,83.29268068481446L74.12175,83.15718068481445L74.22025,83.04878068481446L74.29412,83.04878068481446L74.39261,83.18428068481445L74.56498,83.15718068481445L74.44186,82.99458068481445L74.26949,82.99458068481445L74.31874,82.88618068481445L74.22025,82.83198068481445L74.19562,82.75068068481445L74.36799,82.66938068481446L74.39261,82.47967068481445L74.39261,82.56098068481445L74.49111,82.50677068481446L74.61423,82.53387068481446L74.61423,82.66938068481446L74.6881,82.80488068481445L74.5896,83.02168068481446L74.54035999999999,82.99458068481445L74.54035999999999,83.07588068481445L74.61423,83.15718068481445L74.71272,83.13008068481446L74.73735,83.21138068481446L74.66347999999999,83.37398068481446L74.56498,83.40108068481446L74.56498,83.45528068481445L74.51573,83.40108068481446L74.46648,83.45528068481445L74.36799,83.34688068481445L74.36799,83.50948068481445L74.46648,83.50948068481445L74.54035999999999,83.45528068481445L74.46648,83.56369068481445L74.54035999999999,83.56369068481445L74.41723999999999,83.64499068481446L74.46648,83.67209068481445L74.41723999999999,83.69919068481445L74.46648,83.86179068481445L74.56498,83.78049068481445L74.61423,83.56369068481445L74.71272,83.53659068481446L74.71272,83.69919068481445L74.88509,83.94309068481445L74.95896,83.83469068481445L75.00821,83.80759068481446L75.05746,83.86179068481445L75.1067,83.78049068481445L75.30369,83.94309068481445L75.30369,83.88889068481446L75.35294,83.86179068481445L75.54993,83.91599068481446L75.67305,83.75339068481445L75.79617,83.72629068481446L75.79617,83.67209068481445L75.84542,83.67209068481445L76.04241,83.34688068481445L76.41176,83.26558068481445L76.41176,83.21138068481446L76.46101,83.18428068481445L76.53488,82.66938068481446L76.41176,82.64228068481445L76.41176,82.58808068481446L76.55951,82.37127068481445L76.68263,82.34417068481446L76.68263,82.15447068481446L76.7565,82.07317068481446L76.7565,81.93767068481445L76.55951,81.80217068481446L76.63338,81.74797068481445L76.63338,81.63957068481446L76.70725,81.58537068481445L76.92886,81.53117068481446L76.95349,81.55827068481446L77.12586,81.39566068481446L77.29822,81.42276068481445L77.29822,81.15176068481445L77.24897,80.96206068481445L77.15048,80.85366068481446L77.1751,80.82656068481445ZM76.16553,77.30352368481445L76.19015,77.27642368481445L76.1409,77.24932268481446L76.1409,77.30352368481445L76.16553,77.30352368481445Z" fill-rule="evenodd" fill="#C2EAFF" fill-opacity="1"/></g></g></g></svg>