<svg xmlns="http://www.w3.org/2000/svg" xmlns:xlink="http://www.w3.org/1999/xlink" fill="none" version="1.1" width="32" height="32" viewBox="0 0 32 32"><defs><radialGradient cx="0" cy="0" r="1" gradientUnits="userSpaceOnUse" id="master_svg0_1_0329" gradientTransform="translate(2.0485458374023438 32) rotate(98.1239173467939) scale(22.60081289247802 22.60081289247802)"><stop offset="0%" stop-color="#1BA8FF" stop-opacity="1"/><stop offset="100%" stop-color="#001C78" stop-opacity="0"/></radialGradient><radialGradient cx="0" cy="0" r="1" gradientUnits="userSpaceOnUse" id="master_svg1_1_0330" gradientTransform="translate(6.58056640625 3.7451171875) rotate(56.070028996172184) scale(24.437589722153476 24.437589722153476)"><stop offset="0%" stop-color="#8ED9FF" stop-opacity="1"/><stop offset="100%" stop-color="#000B6C" stop-opacity="0"/></radialGradient><radialGradient cx="0" cy="0" r="1" gradientUnits="userSpaceOnUse" id="master_svg2_1_0333" gradientTransform="translate(31.16988754272461 3.481212854385376) rotate(94.05338493195609) scale(18.732870015588603 18.732870015588603)"><stop offset="0%" stop-color="#9CF2FF" stop-opacity="1"/><stop offset="100%" stop-color="#00DDFF" stop-opacity="0"/></radialGradient><radialGradient cx="0" cy="0" r="1" gradientUnits="userSpaceOnUse" id="master_svg3_1_0334" gradientTransform="translate(1.28125 28.87803840637207) rotate(90.97799264247828) scale(19.824751147344667 19.824751147344667)"><stop offset="0%" stop-color="#00DDFF" stop-opacity="1"/><stop offset="100%" stop-color="#00DDFF" stop-opacity="0"/></radialGradient><clipPath id="master_svg4_542_84031"><rect x="8" y="8" width="16" height="16" rx="0"/></clipPath></defs><g><rect x="0" y="0" width="32" height="32" rx="16" fill="url(#master_svg0_1_0329)" fill-opacity="0.800000011920929"/><rect x="0" y="0" width="32" height="32" rx="16" fill="url(#master_svg1_1_0330)" fill-opacity="1"/><rect x="0" y="0" width="32" height="32" rx="16" fill="#0095FF" fill-opacity="0.44999998807907104"/><rect x="0.5" y="0.5" width="31" height="31" rx="15.5" stroke="url(#master_svg2_1_0333)" fill-opacity="0" fill="none" stroke-width="1"/><rect x="0.5" y="0.5" width="31" height="31" rx="15.5" stroke="url(#master_svg3_1_0334)" fill-opacity="0" fill="none" stroke-width="1"/><g clip-path="url(#master_svg4_542_84031)"><g><path d="M15.37415,8.038818359375L15.36735,15.994188359375L15.370190000000001,16.051948359375C15.37217,16.073228359375,15.37514,16.094378359375,15.37898,16.115408359375C15.35979,16.275258359375,15.40595,16.436088359375,15.507,16.561428359375L15.5488,16.608058359375L20.9571,22.210818359375C19.544,23.346218359375,17.78493,23.963918359375,15.972190000000001,23.961018359375C11.56908,23.960918359375,8,20.392018359375,8,15.988868359375001C8,11.787248359374999,11.2507,8.344456359375,15.37415,8.038818359375Z" fill="#FFFFFF" fill-opacity="1" style="mix-blend-mode:passthrough"/></g><g><path d="M17.1898193359375,16.586936318125L23.9222693359375,16.585699717125C23.7899393359375,18.379175078125,23.0528793359375,20.074655078125,21.831659335937502,21.394765078125L17.1898193359375,16.586441678125L23.9222693359375,16.585205078125L17.1898193359375,16.586441678125L17.1898193359375,16.586936318125Z" fill="#FFFFFF" fill-opacity="1" style="mix-blend-mode:passthrough"/></g><g><path d="M16.56329345703125,15.390948359374999L16.56997235703125,8.038818359375C20.49552345703125,8.329737359375,23.63007345703125,11.464038359375,23.92186345703125,15.389098359375L16.56366411803125,15.390578359374999L16.56997235703125,8.038818359375L16.56329345703125,15.390948359374999L16.56329345703125,15.390948359374999L16.56329345703125,15.390948359374999Z" fill="#C2EAFF" fill-opacity="1" style="mix-blend-mode:passthrough"/></g></g></g></svg>