<svg xmlns="http://www.w3.org/2000/svg" xmlns:xlink="http://www.w3.org/1999/xlink" fill="none" version="1.1" width="32" height="32" viewBox="0 0 32 32"><defs><radialGradient cx="0" cy="0" r="1" gradientUnits="userSpaceOnUse" id="master_svg0_1_0329" gradientTransform="translate(2.0485458374023438 32) rotate(98.1239173467939) scale(22.60081289247802 22.60081289247802)"><stop offset="0%" stop-color="#1BA8FF" stop-opacity="1"/><stop offset="100%" stop-color="#001C78" stop-opacity="0"/></radialGradient><radialGradient cx="0" cy="0" r="1" gradientUnits="userSpaceOnUse" id="master_svg1_1_0330" gradientTransform="translate(6.58056640625 3.7451171875) rotate(56.070028996172184) scale(24.437589722153476 24.437589722153476)"><stop offset="0%" stop-color="#8ED9FF" stop-opacity="1"/><stop offset="100%" stop-color="#000B6C" stop-opacity="0"/></radialGradient><radialGradient cx="0" cy="0" r="1" gradientUnits="userSpaceOnUse" id="master_svg2_1_0333" gradientTransform="translate(31.16988754272461 3.481212854385376) rotate(94.05338493195609) scale(18.732870015588603 18.732870015588603)"><stop offset="0%" stop-color="#9CF2FF" stop-opacity="1"/><stop offset="100%" stop-color="#00DDFF" stop-opacity="0"/></radialGradient><radialGradient cx="0" cy="0" r="1" gradientUnits="userSpaceOnUse" id="master_svg3_1_0334" gradientTransform="translate(1.28125 28.87803840637207) rotate(90.97799264247828) scale(19.824751147344667 19.824751147344667)"><stop offset="0%" stop-color="#00DDFF" stop-opacity="1"/><stop offset="100%" stop-color="#00DDFF" stop-opacity="0"/></radialGradient><clipPath id="master_svg4_542_83966"><rect x="8" y="8" width="16" height="16" rx="0"/></clipPath></defs><g><rect x="0" y="0" width="32" height="32" rx="16" fill="url(#master_svg0_1_0329)" fill-opacity="0.800000011920929"/><rect x="0" y="0" width="32" height="32" rx="16" fill="url(#master_svg1_1_0330)" fill-opacity="1"/><rect x="0" y="0" width="32" height="32" rx="16" fill="#0095FF" fill-opacity="0.44999998807907104"/><rect x="0.5" y="0.5" width="31" height="31" rx="15.5" stroke="url(#master_svg2_1_0333)" fill-opacity="0" fill="none" stroke-width="1"/><rect x="0.5" y="0.5" width="31" height="31" rx="15.5" stroke="url(#master_svg3_1_0334)" fill-opacity="0" fill="none" stroke-width="1"/><g clip-path="url(#master_svg4_542_83966)"><g><path d="M10.47344,20.79073515625L10.47344,9.68603515625L9,9.68603515625L9,22.27823515625L23.0031,22.27823515625L23.0031,20.79223515625L10.47344,20.79223515625L10.47344,20.79073515625Z" fill="#FFFFFF" fill-opacity="1" style="mix-blend-mode:passthrough"/></g><g><path d="M14.71718557220459,17.50322741783142L19.51875557220459,17.77978741783142L22.20312557220459,11.63603541783142L20.854685572204588,11.037597417831421L18.58125557220459,16.23759741783142L14.00312557220459,15.973537417831421L11.35312557220459,19.60790741783142L12.54062557220459,20.48759741783142L14.71718557220459,17.50322741783142Z" fill="#C2EAFF" fill-opacity="1" style="mix-blend-mode:passthrough"/></g></g></g></svg>