<svg xmlns="http://www.w3.org/2000/svg" xmlns:xlink="http://www.w3.org/1999/xlink" fill="none" version="1.1" width="32" height="32" viewBox="0 0 32 32"><defs><radialGradient cx="0" cy="0" r="1" gradientUnits="userSpaceOnUse" id="master_svg0_1_0329" gradientTransform="translate(2.0485458374023438 32) rotate(98.1239173467939) scale(22.60081289247802 22.60081289247802)"><stop offset="0%" stop-color="#1BA8FF" stop-opacity="1"/><stop offset="100%" stop-color="#001C78" stop-opacity="0"/></radialGradient><radialGradient cx="0" cy="0" r="1" gradientUnits="userSpaceOnUse" id="master_svg1_1_0330" gradientTransform="translate(6.58056640625 3.7451171875) rotate(56.070028996172184) scale(24.437589722153476 24.437589722153476)"><stop offset="0%" stop-color="#8ED9FF" stop-opacity="1"/><stop offset="100%" stop-color="#000B6C" stop-opacity="0"/></radialGradient><radialGradient cx="0" cy="0" r="1" gradientUnits="userSpaceOnUse" id="master_svg2_1_0333" gradientTransform="translate(31.16988754272461 3.481212854385376) rotate(94.05338493195609) scale(18.732870015588603 18.732870015588603)"><stop offset="0%" stop-color="#9CF2FF" stop-opacity="1"/><stop offset="100%" stop-color="#00DDFF" stop-opacity="0"/></radialGradient><radialGradient cx="0" cy="0" r="1" gradientUnits="userSpaceOnUse" id="master_svg3_1_0334" gradientTransform="translate(1.28125 28.87803840637207) rotate(90.97799264247828) scale(19.824751147344667 19.824751147344667)"><stop offset="0%" stop-color="#00DDFF" stop-opacity="1"/><stop offset="100%" stop-color="#00DDFF" stop-opacity="0"/></radialGradient><clipPath id="master_svg4_542_83884"><rect x="4" y="4" width="24" height="24" rx="0"/></clipPath></defs><g><rect x="0" y="0" width="32" height="32" rx="16" fill="url(#master_svg0_1_0329)" fill-opacity="0.800000011920929"/><rect x="0" y="0" width="32" height="32" rx="16" fill="url(#master_svg1_1_0330)" fill-opacity="1"/><rect x="0" y="0" width="32" height="32" rx="16" fill="#0095FF" fill-opacity="0.44999998807907104"/><rect x="0.5" y="0.5" width="31" height="31" rx="15.5" stroke="url(#master_svg2_1_0333)" fill-opacity="0" fill="none" stroke-width="1"/><rect x="0.5" y="0.5" width="31" height="31" rx="15.5" stroke="url(#master_svg3_1_0334)" fill-opacity="0" fill="none" stroke-width="1"/><g clip-path="url(#master_svg4_542_83884)"><g><path d="M8.64000244140625,23.35994140625L24.32000244140625,23.35994140625C24.48000244140625,23.35994140625,24.56000244140625,23.43994140625,24.56000244140625,23.59994140625L24.56000244140625,24.31994140625C24.56000244140625,24.47994140625,24.48000244140625,24.55994140625,24.32000244140625,24.55994140625L7.68000244140625,24.55994140625C7.52000234140625,24.55994140625,7.44000244140625,24.47994140625,7.44000244140625,24.31994140625L7.44000244140625,7.67994140625C7.44000244140625,7.51994130625,7.52000234140625,7.43994140625,7.68000244140625,7.43994140625L8.40000244140625,7.43994140625C8.560002441406251,7.43994140625,8.64000244140625,7.51994130625,8.64000244140625,7.67994140625L8.64000244140625,23.35994140625Z" fill="#FFFFFF" fill-opacity="1" style="mix-blend-mode:passthrough"/></g><g><path d="M19.0399658203125,19.68013671875C19.3599658203125,19.68013671875,19.6799658203125,19.92013671875,19.6799658203125,20.32013671875L19.6799658203125,21.520136718750003C19.6799658203125,21.84013671875,19.3599658203125,22.16013671875,19.0399658203125,22.16013671875L10.4799658203125,22.16013671875C10.1599658203125,22.16013671875,9.8399658203125,21.92013671875,9.8399658203125,21.520136718750003L9.8399658203125,20.32013671875C9.8399658203125,20.00013671875,10.0799658203125,19.68013671875,10.4799658203125,19.68013671875L19.0399658203125,19.68013671875ZM15.3599658203125,16.00013671875C15.6799658203125,16.00013671875,15.9999658203125,16.24013671875,15.9999658203125,16.64013671875L15.9999658203125,17.84013671875C15.9999658203125,18.16013671875,15.7599658203125,18.48013671875,15.3599658203125,18.48013671875L10.4799658203125,18.48013671875C10.3199658203125,18.48013671875,10.1599658203125,18.400136718749998,10.0799658203125,18.32013671875C9.9999658203125,18.24013671875,9.9199657203125,18.080136718749998,9.9199657203125,17.92013671875L9.9199657203125,16.72013671875C9.9199657203125,16.56013671875,9.9999658203125,16.400136718749998,10.0799658203125,16.32013671875C10.1599658203125,16.08013671875,10.3199658203125,16.00013671875,10.4799658203125,16.00013671875L15.3599658203125,16.00013671875ZM22.719965820312503,12.40013671875C23.0399658203125,12.40013671875,23.3599658203125,12.64013671875,23.3599658203125,13.04013671875L23.3599658203125,14.24013671875C23.3599658203125,14.56013671875,23.0399658203125,14.88013671875,22.719965820312503,14.88013671875L10.4799658203125,14.88013671875C10.3199658203125,14.88013671875,10.1599658203125,14.80013671875,10.0799658203125,14.72013671875C9.9999658203125,14.64013671875,9.9199657203125,14.48013671875,9.9199657203125,14.32013671875L9.9199657203125,13.12013671875C9.9199657203125,12.80013671875,10.1599658203125,12.48013671875,10.5599658203125,12.48013671875L22.719965820312503,12.48013671875L22.719965820312503,12.40013671875ZM17.8399658203125,8.72013571875C18.1599658203125,8.72013571875,18.4799658203125,8.96013571875,18.4799658203125,9.36013571875L18.4799658203125,10.56013671875C18.4799658203125,10.88013671875,18.1599658203125,11.20013671875,17.8399658203125,11.20013671875L10.4799658203125,11.20013671875C10.3199658203125,11.20013671875,10.1599658203125,11.12013671875,10.0799658203125,11.04013671875C9.9199657203125,10.88013671875,9.8399658203125,10.72013671875,9.9199657203125,10.56013671875L9.9199657203125,9.28013671875C9.9199657203125,8.96013671875,10.1599658203125,8.64013671875,10.5599658203125,8.64013671875L17.8399658203125,8.64013671875L17.8399658203125,8.72013571875Z" fill="#C2EAFF" fill-opacity="1" style="mix-blend-mode:passthrough"/></g></g></g></svg>