<svg xmlns="http://www.w3.org/2000/svg" xmlns:xlink="http://www.w3.org/1999/xlink" fill="none" version="1.1" width="32" height="32" viewBox="0 0 32 32"><defs><radialGradient cx="0" cy="0" r="1" gradientUnits="userSpaceOnUse" id="master_svg0_1_0329" gradientTransform="translate(2.0485458374023438 32) rotate(98.1239173467939) scale(22.60081289247802 22.60081289247802)"><stop offset="0%" stop-color="#1BA8FF" stop-opacity="1"/><stop offset="100%" stop-color="#001C78" stop-opacity="0"/></radialGradient><radialGradient cx="0" cy="0" r="1" gradientUnits="userSpaceOnUse" id="master_svg1_1_0330" gradientTransform="translate(6.58056640625 3.7451171875) rotate(56.070028996172184) scale(24.437589722153476 24.437589722153476)"><stop offset="0%" stop-color="#8ED9FF" stop-opacity="1"/><stop offset="100%" stop-color="#000B6C" stop-opacity="0"/></radialGradient><radialGradient cx="0" cy="0" r="1" gradientUnits="userSpaceOnUse" id="master_svg2_1_0333" gradientTransform="translate(31.16988754272461 3.481212854385376) rotate(94.05338493195609) scale(18.732870015588603 18.732870015588603)"><stop offset="0%" stop-color="#9CF2FF" stop-opacity="1"/><stop offset="100%" stop-color="#00DDFF" stop-opacity="0"/></radialGradient><radialGradient cx="0" cy="0" r="1" gradientUnits="userSpaceOnUse" id="master_svg3_1_0334" gradientTransform="translate(1.28125 28.87803840637207) rotate(90.97799264247828) scale(19.824751147344667 19.824751147344667)"><stop offset="0%" stop-color="#00DDFF" stop-opacity="1"/><stop offset="100%" stop-color="#00DDFF" stop-opacity="0"/></radialGradient><clipPath id="master_svg4_542_84001"><rect x="7" y="7" width="18" height="18" rx="0"/></clipPath></defs><g><rect x="0" y="0" width="32" height="32" rx="16" fill="url(#master_svg0_1_0329)" fill-opacity="0.800000011920929"/><rect x="0" y="0" width="32" height="32" rx="16" fill="url(#master_svg1_1_0330)" fill-opacity="1"/><rect x="0" y="0" width="32" height="32" rx="16" fill="#0095FF" fill-opacity="0.44999998807907104"/><rect x="0.5" y="0.5" width="31" height="31" rx="15.5" stroke="url(#master_svg2_1_0333)" fill-opacity="0" fill="none" stroke-width="1"/><rect x="0.5" y="0.5" width="31" height="31" rx="15.5" stroke="url(#master_svg3_1_0334)" fill-opacity="0" fill="none" stroke-width="1"/><g clip-path="url(#master_svg4_542_84001)"><g><path d="M17.599979951171875,10.611328125C14.168209951171875,10.611328482628,11.386199951171875,13.393338125,11.386199951171875,16.825108125C11.386199951171875,20.256888125,14.168209951171875,23.038928124999998,17.599979951171875,23.038928124999998C21.031759951171875,23.038928124999998,23.813799951171873,20.256888125,23.813799951171873,16.825108125C23.813799951171873,13.393338125,21.031759951171875,10.611328482628,17.599979951171875,10.611328125ZM17.599979951171875,19.932008125C15.884099951171875,19.932008125,14.493089951171875,18.540998125,14.493089951171875,16.825108125C14.493089951171875,15.109228125,15.884099951171875,13.718218125,17.599989951171874,13.718218125C19.315879951171876,13.718218125,20.706879951171874,15.109228125,20.706879951171874,16.825108125C20.706879951171874,18.540998125,19.315869951171877,19.932008125,17.599979951171875,19.932008125Z" fill="#FFFFFF" fill-opacity="1" style="mix-blend-mode:passthrough"/></g><g><path d="M22.86758580078125,12.6806640625L19.59078380078125,15.1519140625C19.94249580078125,15.6208440625,20.13397680078125,16.1905040625,20.13691580078125,16.7766640625C20.13748580078125,17.501104062499998,19.85016480078125,18.1960740625,19.33819580078125,18.7086140625L22.23270580078125,21.603114062499998C24.63476580078125,19.2011640625,24.905345800781248,15.3985340625,22.86758580078125,12.6806640625Z" fill="#C2EAFF" fill-opacity="1" style="mix-blend-mode:passthrough"/></g><g><path d="M19.33820259765625,18.70849609375C18.27156259765625,19.77631609375,16.54094259765625,19.77631609375,15.47430259765625,18.70849609375L11.61041259765625,22.57238609375C14.81187259765625,25.78498609375,20.014282597656248,25.78498609375,23.21571259765625,22.57238609375L19.33820259765625,18.70849609375Z" fill="#FFFFFF" fill-opacity="1" style="mix-blend-mode:passthrough"/></g><g><path d="M14.675601425781249,16.77656828125C14.675601425781249,15.26846828125,15.89816142578125,14.04590828125,17.40626142578125,14.04590828125L17.40626142578125,7.2192383036017C13.54047142578125,7.21895997925,10.05520142578125,9.54753828125,8.57578742578125,13.11904828125C7.09637542578125,16.69055828125,7.91419502578125,20.80153828125,10.647861425781251,23.53493828125L15.47432142578125,18.70853828125C14.96235142578125,18.19593828125,14.675031425781249,17.50103828125,14.675601425781249,16.77656828125Z" fill="#C2EAFF" fill-opacity="1" style="mix-blend-mode:passthrough"/></g></g></g></svg>