<svg xmlns="http://www.w3.org/2000/svg" xmlns:xlink="http://www.w3.org/1999/xlink" fill="none" version="1.1" width="18" height="18" viewBox="0 0 18 18"><defs><clipPath id="master_svg0_5_18901"><rect x="0" y="0" width="18" height="18" rx="0"/></clipPath><linearGradient x1="0.5" y1="0" x2="0.5" y2="1" id="master_svg1_4_00183"><stop offset="41.428571939468384%" stop-color="#F8FADE" stop-opacity="1"/><stop offset="100%" stop-color="#FFE594" stop-opacity="1"/></linearGradient></defs><g clip-path="url(#master_svg0_5_18901)"><g><path d="M13.8611,1.5C15.0424,1.5,16,2.49824,16,3.72957L16,15.8909C16,16.3765,15.4808,16.6661,15.0931,16.3968L13.6865,15.4194L12.5778,16.286099999999998C12.3012,16.502299999999998,11.92099,16.502299999999998,11.64444,16.286099999999998L10.55556,15.4348L9.46667,16.286099999999998C9.19012,16.502299999999998,8.80988,16.502299999999998,8.53333,16.286099999999998L7.44444,15.4348L6.35556,16.286099999999998C6.07901,16.502299999999998,5.69877,16.502299999999998,5.422219999999999,16.286099999999998L4.3134999999999994,15.4194L2.9068899999999998,16.3968C2.519167,16.6664,2,16.3765,2,15.8909L2,3.72957C2,2.49824,2.957639,1.5,4.13889,1.5L13.8611,1.5ZM13.8611,2.7161299999999997L4.13889,2.7161299999999997C3.60195,2.7161299999999997,3.16667,3.16986,3.16667,3.72957L3.16667,14.7546L3.89525,14.2483C4.16967,14.0576,4.5296,14.0681,4.7933900000000005,14.2744L5.88889,15.1308L6.97778,14.2795C7.25432,14.0633,7.63457,14.0633,7.91111,14.2795L9,15.1308L10.08889,14.2795C10.36543,14.0633,10.74568,14.0633,11.02222,14.2795L12.1111,15.1308L13.2066,14.2744C13.4704,14.0681,13.8303,14.0576,14.1047,14.2483L14.8333,14.7546L14.8333,3.72957C14.8333,3.16986,14.3981,2.7161299999999997,13.8611,2.7161299999999997ZM9.97222,9.20215C10.29439,9.20215,10.55556,9.47439,10.55556,9.81022C10.55556,10.14604,10.29439,10.41828,9.97222,10.41828L6.08333,10.41828C5.76117,10.41828,5.5,10.14604,5.5,9.81022C5.5,9.47439,5.76117,9.20215,6.08333,9.20215L9.97222,9.20215ZM11.91667,5.95914C12.2388,5.95914,12.5,6.23138,12.5,6.56721C12.5,6.90303,12.2388,7.17527,11.91667,7.17527L6.08333,7.17527C5.76117,7.17527,5.5,6.90303,5.5,6.56721C5.5,6.23138,5.76117,5.95914,6.08333,5.95914L11.91667,5.95914Z" fill="url(#master_svg1_4_00183)" fill-opacity="1"/></g></g></svg>