<svg xmlns="http://www.w3.org/2000/svg" xmlns:xlink="http://www.w3.org/1999/xlink" fill="none" version="1.1" width="18" height="18" viewBox="0 0 18 18"><defs><clipPath id="master_svg0_7_20202"><rect x="0" y="0" width="18" height="18" rx="0"/></clipPath><linearGradient x1="0.5" y1="0" x2="0.5" y2="1" id="master_svg1_4_00183"><stop offset="41.428571939468384%" stop-color="#F8FADE" stop-opacity="1"/><stop offset="100%" stop-color="#FFE594" stop-opacity="1"/></linearGradient><linearGradient x1="0.5" y1="0" x2="0.5" y2="1" id="master_svg2_4_00183"><stop offset="41.428571939468384%" stop-color="#F8FADE" stop-opacity="1"/><stop offset="100%" stop-color="#FFE594" stop-opacity="1"/></linearGradient></defs><g clip-path="url(#master_svg0_7_20202)"><g><g><path d="M16.162,7.99668C15.9532,7.56548,15.6997,7.09768,15.4095,6.60683C15.2187,6.28483,14.8032,6.17826,14.481,6.36872C14.1588,6.55918,14.0519,6.97466,14.242,7.29701C14.5132,7.75532,14.7492,8.189219999999999,14.9431,8.589220000000001C15.522,9.78381,15.6441,10.49161,15.6441,10.86314C15.6441,13.4394,13.499,15.5303,10.76271,15.6442C8.026440000000001,15.5303,5.88136,13.434,5.88136,10.8645C5.88136,10.48619,6.00339,9.77974,6.58237,8.589220000000001C7.07051,7.61695,7.62599,6.67997,8.24475,5.78513C8.88746,4.83461,9.54237,3.98308,9.96814,3.42443C10.34237,2.94442,10.62712,2.59459,10.76271,2.4373C10.8983,2.59459,11.1831,2.94442,11.5573,3.42443C11.9315,3.90443,12.3058,4.403420000000001,12.6556,4.88885C12.8744,5.19252,13.2978,5.2615,13.6017,5.04296C13.9056,4.82442,13.9749,4.40102,13.7566,4.09698C13.3896,3.58747,13.0125,3.08522,12.6258,2.5905199999999997C12.1403,1.968145,11.7946,1.5559370000000001,11.7186,1.4678010000000001C11.2339,0.844264,10.29155,0.844264,9.80678,1.4678010000000001C9.73085,1.5559370000000001,9.38508,1.968145,8.89966,2.5905199999999997C8.46848,3.14104,7.82712,3.98308,7.18305,4.93224C7.00678,4.69088,6.84678,4.47664,6.71254,4.29901C6.29763,3.75664,6.01153,3.40545,5.9722,3.35934C5.79913,3.10259,5.42121,3.10259,5.24814,3.35934C5.20881,3.40545,4.92271,3.75392,4.5078,4.29901C4.14576,4.7763100000000005,3.59932,5.51936,3.05559,6.34242C2.52636,7.12913,2.05288,7.95194,1.638644,8.80482C1.214237,9.7011,1,10.43738,1,10.99467C1,13.5032,3.04881,15.5466,5.61017,15.6442C5.98332,15.6298,6.35361,15.5729,6.7139,15.4747C7.84802,16.4163,9.26363,16.9531,10.73695,17.0001L10.78847,17.0001C14.2678,16.8646,16.9959,14.1757,17,10.8645C17,10.09568,16.7288,9.15872,16.162,7.99668ZM2.35593,10.99467C2.35593,10.83331,2.4061,10.35466,2.86441,9.38381C3.25195,8.5898,3.69414,7.82366,4.1878,7.0909C4.70983,6.29903,5.23729,5.58309,5.58712,5.12207L5.61017,5.09224L5.63322,5.12207C5.83661,5.39326,6.10237,5.74716,6.38983,6.15395C6.01677,6.75045,5.67418,7.36548,5.36339,7.99668C4.796609999999999,9.15872,4.52542,10.09568,4.52542,10.8645C4.52667,12.0913,4.90851,13.2876,5.61831,14.2883L5.61017,14.2883C3.78373,14.192,2.35593,12.7547,2.35593,10.99467Z" fill="url(#master_svg1_4_00183)" fill-opacity="1"/></g><g><path d="M7.0283203125,9.759377875L7.0283203125,13.058391875L8.0506903125,13.058391875L8.0506903125,11.838041875L8.6093403125,11.838041875C9.0161203125,11.838041875,9.3266203125,11.744481875,9.525950312500001,11.557361875C9.7334403125,11.352101874999999,9.8430303125,11.067761875,9.826960312499999,10.776341875C9.8456903125,10.499421875,9.7473003125,10.227371875,9.5557803125,10.026501875C9.3713703125,9.850226875,9.0947603125,9.763446875,8.7259503125,9.763446875L7.0283203125,9.759377875ZM8.8357803125,10.800741875C8.8384003125,10.902081875,8.7944303125,10.999021875,8.7164603125,11.063801875C8.5935703125,11.143511875,8.4473603125,11.179351875,8.3015403125,11.165491875L8.0506903125,11.165491875L8.0506903125,10.429211875L8.3408603125,10.429211875C8.4797803125,10.413041875,8.6195003125,10.451991875000001,8.7300203125,10.537691875C8.7991703125,10.607611875,8.837280312499999,10.702411875,8.8357803125,10.800741875ZM14.347640312500001,13.058391875L14.347640312500001,8.982421875L13.0825603125,8.982421875L13.0825603125,10.408871874999999L11.7062903125,10.408871874999999L11.7062903125,8.982421875L10.4466203125,8.982421875L10.4466203125,13.058391875L11.7062903125,13.058391875L11.7062903125,11.409561875L13.0825603125,11.409561875L13.0825603125,13.058391875L14.347640312500001,13.058391875Z" fill="url(#master_svg2_4_00183)" fill-opacity="1"/></g></g></g></svg>