<svg xmlns="http://www.w3.org/2000/svg" xmlns:xlink="http://www.w3.org/1999/xlink" fill="none" version="1.1" width="40" height="39.99979782104492" viewBox="0 0 40 39.99979782104492"><defs><clipPath id="master_svg0_357_78434"><rect x="0" y="0" width="40" height="39.99979782104492" rx="0"/></clipPath><linearGradient x1="0.8483489751815796" y1="-0.10424499958753586" x2="-0.05564130745334219" y2="0.9523971267100936" id="master_svg1_235_84228"><stop offset="0%" stop-color="#35A1A8" stop-opacity="1"/><stop offset="100%" stop-color="#92F8FF" stop-opacity="1"/></linearGradient><linearGradient x1="0.5" y1="1" x2="0.5" y2="0" id="master_svg2_246_44379"><stop offset="0%" stop-color="#EFFEFF" stop-opacity="1"/><stop offset="100%" stop-color="#63F6FF" stop-opacity="1"/></linearGradient><linearGradient x1="0.5" y1="1" x2="0.5" y2="0" id="master_svg3_246_44379"><stop offset="0%" stop-color="#EFFEFF" stop-opacity="1"/><stop offset="100%" stop-color="#63F6FF" stop-opacity="1"/></linearGradient><linearGradient x1="0.5" y1="1" x2="0.5" y2="0" id="master_svg4_246_44379"><stop offset="0%" stop-color="#EFFEFF" stop-opacity="1"/><stop offset="100%" stop-color="#63F6FF" stop-opacity="1"/></linearGradient></defs><g clip-path="url(#master_svg0_357_78434)"><g><path d="M5.88236328125,0.88818359375L1.37255828125,3.33916359375Q1.28070428125,3.33934359375,1.27524728125,3.42592359375C1.26703628125,3.42966359375,1.25887328125,3.43347359375,1.25076028125,3.43736359375C1.16134948125,3.43796359375,1.07867764175,3.44529359375,1.0786133188097,3.53524359375L1.07861328125,3.53534359375L1.25897828125,3.43732359375L1.27469128125,3.43730359375L1.27490228125,3.43719359375L1.27490228125,3.43720359375L1.3622832812499999,3.38971359375C1.41524728125,3.36972359375,1.46985328125,3.35275359375,1.52574428125,3.33916359375L1.56863728125,3.33916359375L1.59680028125,3.32385359375L1.5971222812499999,3.32379359375L1.56884728125,3.33916359375L1.66688728125,3.33916359375L1.72835028125,3.30576359375L1.7300732812500002,3.30561359375L1.66699228125,3.33916359375L1.96083028125,3.33916359375L2.01158228125,3.31158359375L2.01166828125,3.31159359375L1.96093728125,3.33916359375L2.05897528125,3.33916359375L2.08730328125,3.32377359375L2.08737328125,3.32378359375L2.0590822812500003,3.33916359375L2.08783328125,3.32387359375C2.11088328125,3.32830359375,2.13396328125,3.33339359375,2.15704328125,3.33916359375L6.66347328125,0.89001946375L6.66692328125,0.88818359375L6.56888328125,0.88818359375L6.56867328125,0.88829773375L6.56856328125,0.88829810875L6.56877328125,0.88818359375L6.47074328125,0.88818359375L6.46901328125,0.88912265575L6.46890328125,0.88912422875L6.47063328125,0.88818359375L6.27483328125,0.88818359375L6.25899328125,0.89660889375C6.21999328125,0.89907689375,6.18135328125,0.90226769375,6.14318328125,0.90639329375L6.17669328125,0.88818359375L6.07865328125,0.88818359375L6.01058328125,0.92517899375L6.01026328125,0.92523529375L6.07844328125,0.88818359375L5.88236328125,0.88818359375ZM1.27510728125,3.42845359375L1.27510128125,3.42856359375L1.25897828125,3.43732359375L1.25878328125,3.43732359375L1.27510728125,3.42845359375ZM6.66703328125,0.88818359375L2.1572232812500003,3.33916359375L28.03961328125,7.16269359375L28.04001328125,7.16244359375C28.18791328125,7.17481359375,28.33271328125,7.20422359375,28.47291328125,7.24872359375Q28.48591328125,7.25562359375,28.50291328125,7.25850359375C28.57141328125,7.28140359375,28.63871328125,7.30792359375,28.70471328125,7.33781359375L28.72551328125,7.35859359375L28.73661328125,7.35256359375L28.73671328125,7.35263359375L28.72561328125,7.35869359375Q28.74151328125,7.35869359375,28.75481328125,7.36127359375C28.76971328125,7.36849359375,28.78461328125,7.37588359375,28.79931328125,7.38345359375Q28.82361328125,7.40796359375,28.82361328125,7.45673359375L28.87931328125,7.42645359375C28.88851328125,7.43159359375,28.89761328125,7.43680359375,28.90661328125,7.44208359375L28.92131328125,7.45673359375L28.92161328125,7.45656359375L29.01941328125,7.55439359375L29.05411328125,7.53553359375C29.07671328125,7.55101359375,29.09901328125,7.56690359375,29.12101328125,7.58319359375C29.13101328125,7.62158359375,29.16221328125,7.63872359375,29.20291328125,7.64636359375C29.21531328125,7.65635359375,29.22761328125,7.66646359375,29.23991328125,7.67670359375L29.41191328125,7.84872359375L29.41161328125,7.84893359375C29.60771328125,8.04501359375,29.80381328125,8.33912359375,29.90181328125,8.535203593750001L29.90181328125,8.53518359375C29.90191328125,8.58412359375,29.92641328125,8.63307359375,29.95091328125,8.68202359375C29.97541328125,8.73104359375,29.99991328125,8.78006359375,29.99991328125,8.82908359375L30.03301328125,8.81108359375L30.03311328125,8.811393593750001L30.00001328125,8.829403593750001C30.00001328125,8.87841359375,30.02451328125,8.90292359375,30.04901328125,8.92743359375C30.06421328125,8.94267359375,30.07951328125,8.95791359375,30.08881328125,8.97903359375C30.09141328125,8.98788359375,30.09401328125,8.99674359375,30.09661328125,9.00562359375C30.09751328125,9.01177359375,30.09801328125,9.01837359375,30.09801328125,9.02547359375L30.09811328125,9.02541359375L30.09811328125,9.12344359375L30.09811328125,9.22127359375L30.09811328125,9.31952359375L30.16021328125,9.28580359375L30.16021328125,9.28589359375L30.09811328125,9.31963359375Q30.14511328125,9.36661359375,30.14711328125,9.39107359375L30.09811328125,9.41767359375Q30.13731328125,9.41767359375,30.14521328125,9.40198359375Q30.14761328125,9.39724359375,30.14711328125,9.39107359375L30.17401328125,9.37645359375C30.18771328125,9.47877359375,30.19521328125,9.58233359375,30.19631328125,9.68659359375L30.19631328125,9.71151359375L30.19641328125,9.71143359375L30.19801328125,9.71052359375L34.60821328125,7.26044359375C34.60821328125,7.24631359375,34.60801328125,7.23218359375,34.60781328125,7.21805359375L34.70611328125,7.16249359375L34.70611328125,7.06445359375L34.60401328125,7.11993359375L34.60401328125,7.11982359375L34.70611328125,7.06434359375L34.70611328125,6.96630359375L34.59661328125,7.02580359375C34.59501328125,7.00911359375,34.59321328125,6.99244359375,34.59121328125,6.97579359375L34.60791328125,6.96669359375L34.60791328125,6.86865359375L34.57871328125,6.88456359375L34.57861328125,6.88446359375L34.60791328125,6.86854359375L34.60791328125,6.77050359375L34.59821328125,6.77557359375L34.60791328125,6.77029359375L34.60791328125,6.57422359375L34.60771328125,6.57435359375C34.50981328125,6.47645359375,34.50981328125,6.47641359375,34.50981328125,6.37841359375L34.45691328125,6.40718359375L34.45681328125,6.40686359375L34.50971328125,6.37810359375C34.50971328125,6.28006359375,34.41161328125,6.18202359375,34.41161328125,6.08398359375L34.41151328125,6.08406359375C34.21551328125,5.79003359375,34.11751328125,5.59399359375,33.92141328125,5.39795359375L33.92171328125,5.39773359375L33.76001328125,5.23607359375L33.82351328125,5.20155359375C33.72551328125,5.20155359375,33.72551328125,5.10351359375,33.62751328125,5.10351359375L33.54361328125,5.14909359375C33.52981328125,5.13864359375,33.51601328125,5.12834359375,33.50201328125,5.11819359375L33.52921328125,5.10341359375L33.43121328125,5.00537359375L33.43091328125,5.00554359375L33.33301328125,4.90771359375L33.30081328125,4.92525359375Q33.27681328125,4.90771359375,33.23541328125,4.90771359375L33.19631328125,4.92895359375L33.19611328125,4.92887359375L33.23531328125,4.90761359375Q33.23531328125,4.809573593750001,33.13721328125,4.809573593750001L33.13711328125,4.80961359375L33.039113281249996,4.809573593750001L32.99171328125,4.835333593750001L32.99161328125,4.83531359375L33.03901328125,4.809573593750001L32.940913281250005,4.809573593750001L32.93391328125,4.81324359375L32.933813281249996,4.81322359375L32.94081328125,4.809573593750001L32.92381328125,4.809573593750001C32.86961328125,4.79002359375,32.81451328125,4.77257359375,32.758713281249996,4.75734359375L32.84321328125,4.71142359375L32.74511328125,4.71142359375L32.69201328125,4.74029359375L32.691913281249995,4.74028359375L32.745013281249996,4.71142359375L32.64701328125,4.71142359375L32.64671328125,4.7116035937500005L6.66703328125,0.88818359375ZM13.79571328125,6.98221359375C13.73891328125,7.01600359375,13.68281328125,7.06553359375,13.63241328125,7.12600359375C13.62951328125,7.13816359375,13.62801328125,7.15052359375,13.62801328125,7.16287359375L13.58761328125,7.18480359375L13.58761328125,7.18488359375L13.62771328125,7.16308359375L13.62771328125,7.26112359375L13.52981328125,7.31217359375L13.52981328125,7.35878359375L13.48321328125,7.38309359375C13.45081328125,7.46908359375,13.43171328125,7.56108359375,13.43171328125,7.65307359375L8.942573281249999,10.09280359375L13.52971328125,7.65283359375L13.43171328125,20.98618359375L13.33471328125,21.03888359375L13.33471328125,21.03908359375L13.43171328125,20.98628359375L13.43171328125,21.08438359375L13.34201328125,21.13108359375L13.34231328125,21.13308359375L13.43171328125,21.08448359375L13.43171328125,21.18248359375L13.35581328125,21.22208359375L13.35611328125,21.22368359375L13.43171328125,21.18258359375L13.43171328125,21.28028359375L13.43171328125,21.37828359375L13.40061328125,21.39448359375C13.40581328125,21.40978359375,13.41121328125,21.42488359375,13.41701328125,21.43978359375L13.52981328125,21.37838359375L13.52981328125,21.47648359375L13.45071328125,21.51768359375L13.45141328125,21.51918359375L13.52981328125,21.47658359375C13.52981328125,21.57458359375,13.62781328125,21.57458359375,13.62781328125,21.67268359375L13.57211328125,21.70288359375C13.60101328125,21.73508359375,13.63241328125,21.76358359375,13.66651328125,21.78748359375L13.82371328125,21.70388359375L13.82371328125,12.45688359375C13.82381328125,12.16278359375,14.01981328125,11.86878359375,14.21591328125,11.77078359375L18.57111328125,9.40380359375C18.60881328125,9.35483359375,18.66721328125,9.31990359375,18.72571328125,9.31982359375L18.72591328125,9.31982359375L18.69751328125,9.33524359375C18.64071328125,9.36903359375,18.58471328125,9.41856359375,18.53431328125,9.47903359375C18.53141328125,9.49119359375,18.52981328125,9.50355359375,18.52981328125,9.51590359375L18.48951328125,9.53782359375L18.48921328125,9.53816359375L18.52981328125,9.51611359375L18.52981328125,9.61415359375L18.52961328125,9.61425359375L18.52961328125,9.71181359375L18.36441328125,9.79799359375C18.34471328125,9.86558359375,18.33351328125,9.93584359375,18.33351328125,10.00610359375L13.84441328125,12.44578359375L18.43161328125,10.00586359375L18.43161328125,19.83968359375L18.82371328125,19.62658359375L18.82371328125,10.10381359375C18.82381328125,9.91484359375,18.86431328125,9.72590359375,18.97131328125,9.58898359375L18.92191328125,9.61368359375L18.97191328125,9.58810359375C19.03141328125,9.51239359375,19.11121328125,9.45266359375,19.21591328125,9.41777359375L23.57111328125,7.05078359375C23.60881328125,7.00180359375,23.66721328125,6.96688359375,23.72571328125,6.96679359375L23.72591328125,6.96679359375L23.69751328125,6.98221359375C23.64071328125,7.01601359375,23.58471328125,7.06554359375,23.53431328125,7.12600359375C23.53141328125,7.13816359375,23.52981328125,7.15052359375,23.52981328125,7.16287359375L23.48951328125,7.18480359375C23.46861328125,7.21468359375,23.44921328125,7.24646359375,23.43171328125,7.27971359375L23.43171328125,7.31080359375L23.52971328125,7.26074359375L23.43171328125,7.35878359375L23.38511328125,7.38309359375C23.35271328125,7.46901359375,23.33361328125,7.56092359375,23.33351328125,7.65283359375L23.33351328125,7.65307359375L23.33351328125,17.35868359375L23.31011328125,17.37088359375L19.92541328125,19.21048359375C19.85041328125,19.27748359375,19.77721328125,19.34658359375,19.70611328125,19.41768359375L18.43161328125,20.11038359375L18.43161328125,20.88818359375L18.33351328125,20.94038359375L18.33351328125,20.98618359375L18.33341328125,20.98628359375L18.23901328125,21.03558359375C18.23831328125,21.03658359375,18.23771328125,21.03768359375,18.23701328125,21.03868359375L18.33341328125,20.98628359375C18.13731328125,21.37848359375,17.94121328125,21.77068359375,17.74511328125,22.06478359375L17.65961328125,22.10938359375C17.65201328125,22.12368359375,17.64701328125,22.14078359375,17.64701328125,22.16288359375L17.46601328125,22.26128359375C17.43011328125,22.29658359375,17.39251328125,22.32918359375,17.35311328125,22.35878359375L12.99801328125,24.72568359375L12.99791328125,24.72578359375L17.35291328125,22.35888359375L17.35291328125,22.35898359375L17.35311328125,22.35888359375L17.35291328125,22.35938359375Q17.35281328125,22.42308359375,17.31121328125,22.48678359375C17.28701328125,22.56228359375,17.26341328125,22.63798359375,17.24061328125,22.71388359375L17.35281328125,22.65278359375C17.25481328125,22.84888359375,17.25481328125,23.14298359375,17.15681328125,23.33908359375L17.14931328125,23.34318359375C17.12601328125,23.50508359375,17.05911328125,23.66708359375,17.05911328125,23.82898359375L16.95101328125,23.89008359375C16.94421328125,23.92558359375,16.93761328125,23.96108359375,16.931213281250002,23.99668359375L17.05901328125,23.92728359375C17.05901328125,24.12328359375,16.96101328125,24.31938359375,16.96101328125,24.51548359375L16.96041328125,24.51578359375C16.95811328125,24.67668359375,16.94441328125,24.82608359375,16.86281328125,24.90768359375L16.80231328125,24.94058359375C16.79911328125,24.97488359375,16.79611328125,25.00928359375,16.79331328125,25.04368359375L16.86281328125,25.00588359375L16.86281328125,25.49608359375L16.76351328125,25.54998359375L16.76351328125,25.55008359375L16.86281328125,25.49608359375L16.86281328125,25.98628359375L16.757613281250002,26.04348359375C16.757913281249998,26.07578359375,16.75841328125,26.10808359375,16.759113281250002,26.14038359375L16.86281328125,26.08398359375L16.86281328125,27.16248359375L16.829113281250002,27.18078359375L16.829113281250002,27.18098359375L16.86281328125,27.16258359375C16.86281328125,27.35868359375,16.96091328125,27.55478359375,16.96091328125,27.84888359375L16.92831328125,27.86658359375L16.928413281250002,27.86678359375L16.96101328125,27.84908359375L16.96101328125,28.04518359375L12.73531328125,30.34178359375L12.82081328125,30.35438359375L17.05911328125,28.14308359375L17.06701328125,28.17468359375C17.90111328125,27.35428359375,18.81331328125,26.64088359375,19.80371328125,26.08378359375L24.11991328125,23.73808359375C22.54721328125,24.61508359375,21.32251328125,25.84718359375,20.09781328125,27.26028359375L17.23591328125,28.85018359375L17.24021328125,28.86728359375L20.19621328125,27.26078359375L20.19591328125,27.26108359375L20.19651328125,27.26078359375L20.17221328125,27.28498359375C19.79591328125,27.66908359375,19.59991328125,28.05518359375,19.21581328125,28.53528359375L15.21791328125,30.70798359375L18.28931328125,31.16118359375L18.43161328125,31.08398359375C18.43161328125,31.11558359375,18.42141328125,31.14708359375,18.40761328125,31.17868359375L18.43151328125,31.18218359375L18.39801328125,31.19958359375C18.36961328125,31.25908359375,18.33351328125,31.31858359375,18.33351328125,31.37808359375L18.33271328125,31.37858359375C18.23531328125,31.47678359375,18.23511328125,31.67228359375,18.13721328125,31.77008359375L18.13011328125,31.77398359375L18.12991328125,31.77438359375L18.13711328125,31.77048359375C18.13711328125,31.86858359375,18.03911328125,32.06458359375,18.03911328125,32.16268359375L18.03901328125,32.16268359375C18.03891328125,32.26078359375,17.94091328125,32.45678359375,17.94091328125,32.55478359375L17.87961328125,32.58808359375L17.87961328125,32.58828359375L17.94131328125,32.55468359375C17.94131328125,32.65268359375,17.84331328125,32.84878359375,17.84331328125,32.94688359375L17.84321328125,32.94688359375C17.84321328125,33.04498359375,17.84311328125,33.24098359375,17.74511328125,33.33888359375L17.74511328125,33.73098359375L17.68771328125,33.76218359375L17.68771328125,33.76268359375L17.74531328125,33.73148359375L17.74531328125,34.22168359375L17.65531328125,34.27058359375C17.64971328125,34.41628359375,17.64701328125,34.56318359375,17.64701328125,34.71148359375L13.15751328125,37.15138359375L13.13721328125,37.16288359375L13.13721328125,36.67268359375L13.14771328125,36.66698359375C13.19521328125,35.58008359375,13.41021328125,34.55758359375,13.92151328125,33.53508359375L7.84326328125,32.65278359375L12.42621328125,30.31258359375C12.40211328125,30.12648359375,12.38201328125,29.94208359375,12.36581328125,29.75918359375C12.35801328125,29.70718359375,12.35301328125,29.65788359375,12.35301328125,29.61358359375L12.35361328125,29.61328359375L12.35361328125,29.61308359375L12.35301328125,29.61348359375L12.35301328125,29.60578359375C12.29821328125,28.89728359375,12.30111328125,28.21148359375,12.35301328125,27.54418359375L12.35301328125,27.45688359375L12.36041328125,27.45278359375C12.36341328125,27.41838359375,12.36641328125,27.38398359375,12.36961328125,27.34968359375L12.35301328125,27.35868359375C12.35301328125,27.27638359375,12.35301328125,27.12488359375,12.41101328125,26.96238359375C12.45251328125,26.62178359375,12.50641328125,26.28578359375,12.57161328125,25.95388359375C12.57781328125,25.91268359375,12.58571328125,25.87218359375,12.59581328125,25.83318359375C12.65371328125,25.55108359375,12.71981328125,25.27168359375,12.79311328125,24.99488359375C12.78051328125,25.00198359375,12.76481328125,25.00598359375,12.74511328125,25.00598359375L12.79781328125,24.97728359375C12.81261328125,24.92158359375,12.82771328125,24.86598359375,12.84311328125,24.81048359375L12.84311328125,24.80988359375L12.84351328125,24.80968359375L12.84341328125,24.80968359375L12.84341328125,24.80968359375L12.84321328125,24.80968359375L12.84371328125,24.80938359375C12.91441328125,24.75628359375,12.97881328125,24.69368359375,13.03901328125,24.62318359375C13.03921328125,24.61998359375,13.03931328125,24.61678359375,13.03931328125,24.61358359375L13.05361328125,24.60578359375C13.31951328125,24.28568359375,13.50811328125,23.81248359375,13.82361328125,23.33918359375L13.82371328125,23.33908359375L13.82371328125,22.18128359375L9.80371328125,24.31958359375L12.78181328125,22.70108359375L11.94671328125,23.12748359375L9.70556328125,24.31958359375L11.15761328125,23.53048359375L9.80412328125,24.22158359375C9.74970328125,24.27608359375,9.69528328125,24.30028359375,9.62409328125,24.31098359375L9.60791328125,24.31958359375L9.62361328125,24.31108359375C9.56665328125,24.31968359375,9.49896328125,24.31968359375,9.41196328125,24.31968359375C9.01981328125,24.22158359375,8.82373328125,23.82948359375,8.82373328125,23.43728359375L8.92187328125,23.38398359375L8.92187328125,21.44338359375L4.80420328125,23.63358359375L8.78786328125,21.46858359375L4.90205328125,23.53548359375C4.84778328125,23.58978359375,4.7935032812500005,23.61398359375,4.72259328125,23.62478359375L4.70605328125,23.63358359375L4.72210328125,23.62488359375C4.66503328125,23.63348359375,4.59717328125,23.63348359375,4.509903281250001,23.63348359375C4.37488328125,23.59978359375,4.23987328125,23.53118359375,4.12086328125,23.43568359375L4.11767328125,23.43728359375L4.12079328125,23.43558359375C3.89416328125,23.25378359375,3.72558328125,22.97448359375,3.72558328125,22.65308359375L3.82324328125,22.60008359375L3.82324328125,14.02528359375L3.82776328125,14.02298359375C3.83770328125,13.91638359375,3.86347328125,13.82638359375,3.89990328125,13.75038359375C3.86507328125,13.77948359375,3.84765328125,13.77788359375,3.84765328125,13.76748359375C3.84765328125,13.75628359375,3.86825328125,13.73478359375,3.90944328125,13.73128359375C3.93866328125,13.67498359375,3.97386328125,13.62678359375,4.01272328125,13.58548359375L3.92138328125,13.63308359375L4.01662328125,13.58138359375C4.022933281249999,13.57478359375,4.0293332812500005,13.56838359375,4.03582328125,13.56208359375C4.067663281250001,13.49268359375,4.14151328125,13.43688359375,4.2154032812499995,13.43678359375L8.57067328125,11.06978359375C8.608293281249999,11.02088359375,8.66673328125,10.98588359375,8.72520328125,10.98588359375L8.725413281249999,10.98588359375L8.69704328125,11.00128359375C8.640243281250001,11.03508359375,8.58423328125,11.08458359375,8.53381328125,11.14508359375C8.53089328125,11.15718359375,8.52933328125,11.16958359375,8.52933328125,11.18188359375L8.48899328125,11.20388359375L8.48888328125,11.20398359375L8.529133281250001,11.18208359375L8.529133281250001,11.28018359375L8.40951328125,11.34258359375C8.36230328125,11.44488359375,8.33304328125,11.55848359375,8.33304328125,11.67208359375L8.32159328125,11.67838359375L8.33304328125,11.67238359375L8.33304328125,20.29978359375L8.25080328125,20.34268359375C8.25695328125,20.37188359375,8.264863281250001,20.40118359375,8.274403281249999,20.43058359375L8.33353328125,20.39848359375L8.33353328125,20.49608359375L8.33353328125,20.57408359375C8.34307328125,20.59318359375,8.35320328125,20.61218359375,8.36391328125,20.63108359375L8.431683281249999,20.59428359375C8.431683281249999,20.69228359375,8.52972328125,20.79028359375,8.627753281250001,20.88838359375L8.58030328125,20.91418359375L8.58040328125,20.91428359375L8.62748328125,20.88868359375L8.72530328125,20.98648359375L8.72562328125,20.98628359375L8.823663281249999,20.98628359375L8.725413281249999,21.03858359375C8.78858328125,21.08458359375,8.85474328125,21.12258359375,8.92187328125,21.15018359375L8.92187328125,10.10381359375C8.921923281249999,9.96346359375,8.96661328125,9.82311359375,9.034633281249999,9.70409359375L9.020023281250001,9.71172359375L9.03490328125,9.70363359375C9.06176328125,9.65669359375,9.09225328125,9.61307359375,9.12506328125,9.57409359375C9.13478328125,9.54945359375,9.15417328125,9.53267359375,9.17930328125,9.51591359375C9.22255328125,9.47418359375,9.26829328125,9.44064359375,9.31403328125,9.41777359375L13.66931328125,7.05078359375C13.70691328125,7.00180359375,13.76541328125,6.96688359375,13.82381328125,6.96679359375L13.82401328125,6.96679359375L13.79571328125,6.98221359375ZM15.23681328125,30.18228359375C15.17721328125,30.25888359375,15.12551328125,30.33668359375,15.07491328125,30.41758359375C15.02421328125,30.49478359375,14.97191328125,30.57668359375,14.91621328125,30.66348359375L14.19211328125,30.55668359375L15.50201328125,29.85988359375C15.49341328125,29.87138359375,15.48551328125,29.88288359375,15.47781328125,29.89428359375C15.39161328125,29.98178359375,15.31361328125,30.07718359375,15.23681328125,30.18228359375ZM24.11991328125,23.73808359375C24.18381328125,23.70238359375,24.24831328125,23.66728359375,24.31351328125,23.63278359375L24.11991328125,23.73808359375ZM18.40861328125,9.67951359375L18.50721328125,9.62596359375L18.40991328125,9.67670359375C18.40951328125,9.67763359375,18.40911328125,9.67857359375,18.40861328125,9.67951359375ZM30.19631328125,9.71172359375L34.70611328125,7.26074359375L34.70611328125,15.69208359375L32.530513281249995,16.87448359375C34.01621328125,16.76858359375,35.44701328125,16.82988359375,36.91511328125,16.96598359375C36.93041328125,16.96618359375,36.94571328125,16.96618359375,36.96101328125,16.96618359375L36.95491328125,16.96968359375C37.53731328125,17.02418359375,38.12561328125,17.09038359375,38.72571328125,17.16238359375C39.31401328125,17.26038359375,39.70611328125,17.45648359375,39.90221328125,17.94668359375L39.80371328125,18.00238359375L39.80371328125,18.04478359375L38.82681328125,18.55448359375L35.39241328125,20.49568359375C35.38431328125,20.47548359375,35.37591328125,20.45578359375,35.36721328125,20.43658359375C35.36441328125,20.44658359375,35.33991328125,20.44378359375,35.29391328125,20.39778359375C35.32651328125,20.39778359375,35.34831328125,20.40858359375,35.35921328125,20.41948359375C35.35211328125,20.40438359375,35.34481328125,20.38968359375,35.33721328125,20.37518359375L35.29391328125,20.39778359375L35.33681328125,20.37448359375L35.33681328125,20.37428359375L35.29421328125,20.39748359375C35.29421328125,20.29938359375,35.19621328125,20.20138359375,35.09811328125,20.10328359375L35.12381328125,20.08938359375C35.08931328125,20.05668359375,35.05271328125,20.02648359375,35.01391328125,19.99858359375L35.00001328125,20.00568359375L35.01351328125,19.99828359375C34.95801328125,19.95828359375,34.89811328125,19.92298359375,34.83371328125,19.89158359375L34.80371328125,19.90748359375L34.83341328125,19.89138359375C34.76581328125,19.85848359375,34.69341328125,19.82988359375,34.61611328125,19.80498359375L34.60791328125,19.80938359375L34.61601328125,19.80498359375C34.49461328125,19.76578359375,34.36131328125,19.73558359375,34.21591328125,19.71138359375C33.79171328125,19.64348359375,33.37341328125,19.58448359375,32.95881328125,19.53418359375C32.81551328125,19.52228359375,32.67901328125,19.51548359375,32.54931328125,19.51548359375L32.59251328125,19.49198359375L32.590013281249995,19.49168359375L32.54931328125,19.51518359375C32.340313281250005,19.48538359375,32.14051328125,19.45548359375,31.94701328125,19.42848359375C30.55271328125,19.30648359375,29.18361328125,19.28668359375,27.75951328125,19.36898359375C27.65341328125,19.38158359375,27.55051328125,19.39728359375,27.45161328125,19.41708359375L27.45121328125,19.41728359375L27.14161328125,19.41728359375L26.96101328125,19.51548359375C25.53621328125,19.56628359375,24.16421328125,19.72288359375,22.84511328125,20.03988359375C22.78121328125,20.05948359375,22.71641328125,20.08028359375,22.65041328125,20.10228359375L22.64751328125,20.10378359375C22.57991328125,20.11508359375,22.51231328125,20.12768359375,22.44471328125,20.14148359375C22.07751328125,20.23978359375,21.71441328125,20.35118359375,21.35551328125,20.47678359375C21.19791328125,20.54148359375,21.04041328125,20.61328359375,20.88281328125,20.69208359375L21.12921328125,20.55818359375L21.12651328125,20.55908359375L20.88261328125,20.69168359375C20.55511328125,20.82268359375,20.18381328125,20.95368359375,19.82731328125,21.11398359375C19.65511328125,21.19798359375,19.48401328125,21.28608359375,19.31401328125,21.37818359375L19.62451328125,21.20938359375L19.62041328125,21.21138359375L23.82381328125,18.92698359375C24.30921328125,18.63578359375,24.79461328125,18.44068359375,25.37521328125,18.24648359375C25.82361328125,18.07588359375,26.27871328125,17.92458359375,26.74041328125,17.79178359375L27.15391328125,17.65398359375L27.15681328125,17.65238359375C27.74501328125,17.55438359375,28.23521328125,17.35828359375,28.82341328125,17.26028359375L28.65251328125,17.35318359375L28.65381328125,17.35288359375L28.82381328125,17.26048359375C29.28131328125,17.18428359375,29.73881328125,17.10798359375,30.19631328125,17.07788359375L30.19631328125,9.71172359375ZM19.62041328125,21.21138359375C19.51541328125,21.26348359375,19.41271328125,21.31878359375,19.31401328125,21.37798359375L19.62041328125,21.21138359375ZM39.90191328125,18.04488359375L35.39241328125,20.49568359375L35.39211328125,20.49588359375L35.39211328125,20.49588359375L35.39211328125,20.59398359375L35.41791328125,20.57988359375L35.41791328125,20.57998359375L35.39211328125,20.59408359375L35.39211328125,20.69208359375L35.43931328125,20.66638359375L35.43941328125,20.66648359375L35.39211328125,20.69218359375L35.43961328125,20.66738359375C35.44601328125,20.69718359375,35.45141328125,20.72648359375,35.45571328125,20.75528359375L35.39211328125,20.78988359375L35.45591328125,20.75658359375C35.46051328125,20.78748359375,35.46381328125,20.81788359375,35.46601328125,20.84778359375L35.39211328125,20.88798359375L35.46611328125,20.84938359375C35.46851328125,20.88158359375,35.46941328125,20.91328359375,35.46901328125,20.94438359375L35.39211328125,20.98618359375L35.46901328125,20.94598359375C35.46851328125,20.97998359375,35.46641328125,21.01318359375,35.46281328125,21.04588359375L35.39211328125,21.08428359375L35.46261328125,21.04748359375C35.45851328125,21.08358359375,35.45261328125,21.11898359375,35.44491328125,21.15368359375L35.39211328125,21.18238359375L35.44461328125,21.15498359375C35.43601328125,21.19388359375,35.42511328125,21.23188359375,35.41201328125,21.26918359375L35.39211328125,21.28008359375L35.41191328125,21.26978359375C35.38911328125,21.33488359375,35.35991328125,21.39788359375,35.32501328125,21.45948359375L35.29391328125,21.47638359375L35.32471328125,21.45998359375C35.30261328125,21.49888359375,35.27821328125,21.53718359375,35.25161328125,21.57498359375C35.20201328125,21.57718359375,35.19691328125,21.58868359375,35.19631328125,21.64948359375C35.13851328125,21.72318359375,35.07281328125,21.79558359375,35.00031328125,21.86808359375L34.99971328125,21.86848359375L34.70561328125,22.16258359375L34.77441328125,22.12518359375L34.77431328125,22.12528359375L34.70601328125,22.16238359375C34.50991328125,22.35848359375,34.41191328125,22.55458359375,34.21581328125,22.84868359375L34.25391328125,22.82798359375L34.25361328125,22.82848359375L34.21601328125,22.84888359375L34.12001328125,23.04088359375C33.89171328125,23.41748359375,33.69881328125,23.80878359375,33.53581328125,24.20928359375L33.33381328125,24.61328359375L33.33331328125,24.61358359375C33.33331328125,24.67858359375,33.32851328125,24.73888359375,33.32001328125,24.79538359375C33.28071328125,24.91368359375,33.24371328125,25.03258359375,33.20891328125,25.15178359375C33.18611328125,25.20208359375,33.16171328125,25.25078359375,33.13731328125,25.29958359375L33.13721328125,25.29988359375L33.13731328125,25.29978359375C33.03931328125,25.69188359375,32.941313281250004,25.98588359375,32.84321328125,26.18198359375L32.974313281250005,26.11068359375C32.967013281250004,26.14728359375,32.95981328125,26.18388359375,32.95271328125,26.22048359375L32.84311328125,26.28008359375C32.71781328125,26.78158359375,32.59881328125,27.30228359375,32.481313281249996,27.83238359375L32.450913281249996,27.84888359375C32.25481328125,28.82928359375,32.058813281249996,29.80968359375,31.76461328125,30.88818359375L31.79881328125,30.86958359375L31.79871328125,30.86998359375L31.76471328125,30.88848359375C31.66671328125,31.37828359375,31.47091328125,31.86818359375,31.37281328125,32.45588359375L31.37261328125,32.456383593750004L31.37261328125,32.45668359375Q31.27491328125,32.554583593749996,31.27491328125,32.65238359375L31.30911328125,32.63388359375L31.30901328125,32.63398359375L31.27471328125,32.65268359375C31.20141328125,32.83598359375,31.12801328125,33.03308359375,31.05471328125,33.23368359375C30.90121328125,33.57758359375,30.73861328125,33.93738359375,30.62411328125,34.29878359375L30.62331328125,34.29998359375L30.58811328125,34.31918359375C30.49001328125,34.51518359375,30.39201328125,34.71128359375,30.29391328125,34.80938359375L30.37981328125,34.76268359375L30.37961328125,34.76298359375L30.29431328125,34.80938359375C30.19621328125,35.10348359375,30.00021328125,35.29958359375,29.70601328125,35.59368359375L29.82531328125,35.52888359375C29.58941328125,35.81758359375,29.33851328125,36.08328359375,29.07591328125,36.32778359375C28.58591328125,36.76558359375,28.06761328125,37.13238359375,27.54931328125,37.45628359375L27.55421328125,37.45358359375L27.54931328125,37.45648359375L32.05911328125,35.00548359375C32.06311328125,35.00368359375,32.067213281250005,35.00178359375,32.071213281249996,34.99998359375C32.17111328125,34.95518359375,32.268413281250005,34.90658359375,32.36361328125,34.85458359375C33.49141328125,34.25498359375,34.37761328125,33.31758359375,35.09831328125,31.96628359375L35.01811328125,32.009883593750004L35.01841328125,32.009483593750005L35.09821328125,31.96608359375C35.19611328125,31.86818359375,35.19621328125,31.86808359375,35.19621328125,31.77038359375L35.19631328125,31.77028359375C35.20931328125,31.70558359375,35.22561328125,31.63918359375,35.24471328125,31.57148359375C35.43101328125,31.10558359375,35.67501328125,30.58198359375,35.83451328125,30.14298359375Q35.88271328125,30.07418359375,35.88271328125,30.00538359375L35.88251328125,30.00548359375L35.88251328125,30.00538359375C35.98061328125,29.51538359375,36.17651328125,28.92748359375,36.27451328125,28.43748359375L36.19721328125,28.47948359375L36.19731328125,28.47908359375L36.27441328125,28.43718359375C36.46651328125,27.47668359375,36.75271328125,26.42208359375,36.94871328125,25.45778359375L37.05911328125,25.39768359375C37.15391328125,24.92398359375,37.24861328125,24.45018359375,37.34341328125,23.88788359375L37.45121328125,23.82928359375C37.68931328125,22.87668359375,37.96361328125,21.92418359375,38.40581328125,21.03748359375L38.41361328125,21.02178359375C38.41961328125,21.00998359375,38.42551328125,20.99808359375,38.43151328125,20.98628359375L38.43171328125,20.98618359375L38.43711328125,20.97538359375C38.71761328125,20.42468359375,39.06451328125,19.90018359375,39.50971328125,19.41778359375L39.50981328125,19.41778359375L39.51001328125,19.41748359375L39.70591328125,19.22168359375L39.70611328125,19.22158359375L39.80411328125,19.12358359375L39.74941328125,19.15328359375C39.76951328125,19.12748359375,39.78841328125,19.10158359375,39.80611328125,19.07538359375L39.90221328125,19.02528359375L39.90221328125,18.92728359375L39.88741328125,18.93528359375L39.88771328125,18.93448359375L39.90191328125,18.92718359375L39.90191328125,18.90368359375C39.99901328125,18.68178359375,40.00991328125,18.42278359375,39.90191328125,18.04488359375L39.90191328125,18.04498359375L39.90191328125,18.04488359375ZM22.79561328125,17.63938359375C22.76741328125,17.65488359375,22.73881328125,17.66998359375,22.70941328125,17.68438359375L22.79561328125,17.63938359375ZM20.02921328125,19.11998359375C20.06931328125,19.08578359375,20.10981328125,19.05228359375,20.15071328125,19.01928359375L21.74151328125,18.18938359375L20.02921328125,19.11998359375ZM8.68469328125,21.00758359375L8.68544328125,21.00818359375L8.71560328125,20.99178359375L8.68469328125,21.00758359375ZM13.37541328125,21.30998359375L13.41401328125,21.28988359375L13.37561328125,21.31078359375L13.37541328125,21.30998359375ZM21.34001328125,28.06098359375C22.25651328125,27.60018359375,23.10511328125,27.17348359375,24.21601328125,27.35858359375C24.31401328125,27.35858359375,24.51011328125,27.35858359375,24.60811328125,27.26058359375L29.11791328125,24.80958359375L29.01961328125,24.80958359375L28.87781328125,24.88658359375Q28.87451328125,24.88748359375,28.87121328125,24.88838359375L29.01941328125,24.80958359375L28.82381328125,24.80958359375L28.66181328125,24.89758359375C28.60771328125,24.88968359375,28.55431328125,24.88318359375,28.50141328125,24.87798359375L28.62741328125,24.80958359375L28.33351328125,24.80958359375L28.23421328125,24.86358359375L28.23401328125,24.86358359375L28.33331328125,24.80958359375L28.13721328125,24.80958359375L28.02981328125,24.86798359375L28.02961328125,24.86798359375L28.13701328125,24.80958359375L27.64701328125,24.80958359375C27.54901328125,24.80968359375,27.45101328125,24.90758359375,27.35311328125,24.90758359375L27.06091328125,25.06638359375C26.96531328125,25.09918359375,26.87061328125,25.13518359375,26.77631328125,25.17358359375L27.11801328125,24.98378359375C27.17301328125,24.96488359375,27.22011328125,24.94248359375,27.25491328125,24.90768359375L27.11801328125,24.98378359375C27.01781328125,25.01808359375,26.89121328125,25.04048359375,26.76471328125,25.10378359375L26.65141328125,25.16538359375C26.32971328125,25.27208359375,26.00811328125,25.43288359375,25.68651328125,25.59368359375L21.71091328125,27.75438359375C21.50671328125,27.84218359375,21.32861328125,27.94338359375,21.17671328125,28.04468359375L21.71091328125,27.75438359375C21.85781328125,27.69128359375,22.01831328125,27.63508359375,22.19231328125,27.59098359375L21.17671328125,28.14288359375C21.23141328125,28.11558359375,21.28581328125,28.08818359375,21.34001328125,28.06098359375ZM28.90371328125,24.81918359375L28.73771328125,24.90748359375L28.74141328125,24.90738359375L28.90371328125,24.81918359375L28.90371328125,24.81918359375ZM7.14662328125,32.69458359375L6.86279328125,32.84878359375L6.86279328125,32.84878359375Q6.86282328125,32.75078359375,6.96083328125,32.75078359375L6.96103328125,32.75068359375L6.96093328125,32.75068359375L7.06855328125,32.69218359375L7.06843328125,32.69228359375L7.13928328125,32.65378359375L7.13915328125,32.65378359375L11.47071328125,30.29968359375L11.48621328125,30.29968359375L11.66651328125,30.20168359375L11.76461328125,30.20168359375L11.61081328125,30.28528359375L11.61101328125,30.28518359375L11.76471328125,30.20168359375L11.86271328125,30.20168359375L11.77831328125,30.24758359375C11.81771328125,30.24188359375,11.85731328125,30.23828359375,11.89681328125,30.23648359375L11.96101328125,30.20168359375L12.05901328125,30.20168359375L11.99561328125,30.23618359375L11.99571328125,30.23618359375L12.05911328125,30.20168359375L12.25481328125,30.20168359375L12.16111328125,30.25258359375L12.16111328125,30.25258359375L12.25491328125,30.20168359375L12.35291328125,30.20168359375L12.23161328125,30.26618359375C12.27351328125,30.27548359375,12.31411328125,30.28678359375,12.35301328125,30.29978359375L7.84318328125,32.65268359375C7.81981328125,32.646883593750005,7.79678328125,32.64168359375,7.77408328125,32.637183593749995L7.74511328125,32.65268359375L7.77363328125,32.637183593749995L7.77355328125,32.63708359375L7.74501328125,32.65268359375L7.54931328125,32.65268359375L7.61595328125,32.61638359375L7.61586328125,32.61638359375L7.54921328125,32.65268359375L7.45117328125,32.65268359375L7.52126328125,32.61458359375C7.48190328125,32.61548359375,7.44346328125,32.61868359375,7.40578328125,32.62388359375L7.35292328125,32.65268359375L7.26848328125,32.65268359375C7.22717328125,32.664183593749996,7.18663328125,32.678283593749995,7.14662328125,32.69458359375ZM7.13915328125,32.65378359375L7.06855328125,32.69218359375C7.08701328125,32.67438359375,7.10722328125,32.658183593749996,7.13915328125,32.65378359375ZM21.07761328125,35.00638359375C21.10151328125,34.96908359375,21.12471328125,34.92938359375,21.14741328125,34.88758359375Q21.16831328125,34.86988359375,21.17401328125,34.83698359375C21.18291328125,34.81958359375,21.19181328125,34.80188359375,21.20051328125,34.78388359375Q21.27031328125,34.70348359375,21.27411328125,34.62298359375C21.38331328125,34.37068359375,21.48511328125,34.07938359375,21.59931328125,33.79548359375Q21.66631328125,33.71458359375,21.66641328125,33.63368359375L21.66661328125,33.63328359375L21.66641328125,33.63338359375L21.66641328125,33.63328359375L17.15661328125,36.08428359375L17.15661328125,36.08458359375C17.13371328125,36.13808359375,17.11141328125,36.19218359375,17.08951328125,36.24648359375Q17.07551328125,36.26348359375,17.05861328125,36.28038359375L17.08081328125,36.26828359375L17.08061328125,36.26868359375L17.05881328125,36.28058359375C17.01501328125,36.41168359375,16.971313281249998,36.54278359375,16.92761328125,36.66528359375C16.88431328125,36.77878359375,16.84141328125,36.88978359375,16.797713281249997,36.99518359375C16.78671328125,37.01948359375,16.77571328125,37.04268359375,16.76481328125,37.06458359375L16.76451328125,37.06478359375Q16.666513281249998,37.16278359375,16.666513281249998,37.26078359375L16.68221328125,37.25228359375L16.68211328125,37.25248359375L16.66641328125,37.26108359375L16.56831328125,37.35908359375L16.65041328125,37.31448359375C16.62381328125,37.36498359375,16.59641328125,37.41258359375,16.56811328125,37.45688359375Q16.47071328125,37.45718359375,16.47071328125,37.55488359375L16.47051328125,37.55498359375L16.27471328125,37.75078359375L16.27441328125,37.75108359375L16.277313281250002,37.74948359375C16.28511328125,37.74558359375,16.292713281250002,37.74138359375,16.30031328125,37.73698359375L20.78421328125,35.30008359375L20.78441328125,35.29988359375C20.89531328125,35.24428359375,20.99061328125,35.14178359375,21.07681328125,35.00768359375L21.07851328125,35.00588359375L21.07761328125,35.00638359375Z" fill-rule="evenodd" fill="url(#master_svg1_235_84228)" fill-opacity="1"/></g><g><g><path d="M6.17626953125,34.02486609375C6.17626953125,33.04447209375,6.96058353125,32.45623809375,7.84293953125,32.65231339375L13.92136953125,33.53466809375C13.33312953125,34.71113609375,13.13704953125,35.88760609375,13.13704953125,37.16211609375L7.84293953125,36.37780609375C6.86254353125,36.27976609375,6.17626953125,35.29937609375,6.17626953125,34.51505609375L6.17626953125,34.02486609375Z" fill="url(#master_svg2_246_44379)" fill-opacity="1"/></g><g><path d="M35.391909375,20.49590265625C35.587909374999995,21.18217265625,35.391909375,21.47629265625,34.999709374999995,21.86844265625C33.823209375000005,23.14295265625,33.333009375,24.711582656250002,32.940909375000004,26.28021265625C32.352609375,28.24099265625,31.960509375,30.49587265625,31.372209375,32.45667265625C31.176209375,33.04487265625,30.784009375,33.82927265625,30.587909375000002,34.41747265625C28.921309375,37.45667265625,26.274209374999998,38.53507265625,23.038919375,38.437072656249995C22.646769374999998,38.437072656249995,22.254609375,38.437072656249995,21.862449375,38.339072656249996C20.685979375,38.142972656249995,19.509509375,37.75077265625,18.529119375,37.16257265625C17.940879375,36.86847265625,17.548729375,36.378272656250005,17.254609375,36.18217265625C16.862449375,36.966472656250005,16.666379374999998,37.94687265625,16.078139375,37.848872656249995C15.980099375,37.848872656249995,15.980099375,37.848872656249995,15.882059375,37.848872656249995C15.489903375,37.75077265625,15.097746375,37.35867265625,14.999707375,37.06457265625C14.999707375,36.86847265625,14.803629375,36.672372656250005,14.803629375,36.378272656250005C14.999707375,35.00567265625,15.391865375,34.41747265625,15.587943375,34.025272656249996C16.960489375,31.378272656249997,18.823239375,29.61357265625,21.274219375,28.04491265625C22.254609375,27.55472265625,23.136959375,27.06452265625,24.313439375,27.26060265625C24.901709375,27.358642656249998,25.293809375000002,26.770412656250002,25.293809375000002,26.18217265625C25.293809375000002,25.59393265625,24.705609375,25.10374265625,24.313439375,25.00570265625C23.529119375,25.10374265625,22.842849375,25.00570265625,22.058529375,25.29981265625C19.411469375,25.88805265625,17.548729375,27.750802656250002,15.784019375,29.71157265625C15.391867375,30.10377265625,15.195788375,30.49587265625,14.803632375,30.986072656250002C14.411475375,29.12334265625,14.607553855,27.456682656250003,15.195788375,25.88805265625C15.980099375,23.92726265625,17.254609375,22.75079265625,18.823239375,21.67236265625C21.274219375,20.20177665625,24.117359375,19.61354165625,27.156609375000002,19.41746365625C29.607509375,19.12334765625,31.862409375,19.31942445625,34.313409375,19.61354365625C34.803609375,19.80962265625,35.195809374999996,20.00570165625,35.391909375,20.49590265625Z" fill="url(#master_svg3_246_44379)" fill-opacity="1"/></g><g><path d="M28.0392,7.16282171875C29.2157,7.35890171875,30.098,8.53537171875,30.098,9.71184171875L30.098,18.143211718750003C28.6275,18.143211718750003,27.0588,18.143211718750003,25.5882,18.33931171875C23.5294,18.43731171875,21.7647,18.82951171875,20.2941,19.41771171875L20.2941,10.39811171875C20.2941,10.005961718750001,19.902,9.51576171875,19.5098,9.41772171875C19.1176,9.319681718750001,18.7255,9.71184171875,18.7255,10.10400171875L18.7255,19.71181171875C18.1373,20.00591171875,17.549,20.39811171875,16.8627,20.69221171875C16.2745,20.98631171875,15.6863,21.37851171875,15.1961,21.86871171875L15.1961,12.65302171875C15.1961,12.26086171875,15,11.77066171875,14.6078,11.77066171875C14.2157,11.67262171875,13.8235,12.06478171875,13.8235,12.45694171875L13.8235,23.33931171875C13.4314,23.92751171875,13.2353,24.51581171875,12.8431,24.80991171875C12.2549,26.57461171875,12.0588,28.43731171875,12.451,30.49611171875L12.6471,31.37851171875L2.05882,29.80991171875C0.980392,29.61381171875,0,28.43731171875,0,27.26081171875L0,5.30007171875C0,4.02556371875,0.980392,3.14321071875,2.05882,3.33928961875L28.0392,7.16282171875ZM10.3922,23.63341171875L10.3922,10.30007171875C10.3922,9.90792171875,10,9.41772171875,9.60784,9.319681718750001C9.31373,9.319681718750001,8.92157,9.61380171875,8.92157,10.103991718749999L8.92157,23.43731171875C8.92157,23.82951171875,9.11765,24.31971171875,9.5098,24.31971171875C9.90196,24.41771171875,10.2941,24.02561171875,10.2941,23.63341171875L10.3922,23.63341171875ZM5.29412,22.84911171875L5.29412,14.22161171875C5.29412,13.82951171875,4.90196,13.33931171875,4.5098,13.24125171875C4.11765,13.14321171875,3.72549,13.53541171875,3.72549,13.92751171875L3.72549,22.55501171875C3.72549,22.94711171875,4.11765,23.43731171875,4.5098,23.53541171875C4.90196,23.63341171875,5.29412,23.33931171875,5.29412,22.84911171875Z" fill="url(#master_svg4_246_44379)" fill-opacity="1"/></g></g></g></svg>