<svg xmlns="http://www.w3.org/2000/svg" xmlns:xlink="http://www.w3.org/1999/xlink" fill="none" version="1.1" width="39.999977111816406" height="40" viewBox="0 0 39.999977111816406 40"><defs><clipPath id="master_svg0_357_76477"><rect x="0" y="0" width="39.999977111816406" height="40" rx="0"/></clipPath><linearGradient x1="0.8483489751815796" y1="-0.10424499958753586" x2="0.023168590990939215" y2="1.017050164336879" id="master_svg1_235_84228"><stop offset="0%" stop-color="#35A1A8" stop-opacity="1"/><stop offset="100%" stop-color="#92F8FF" stop-opacity="1"/></linearGradient><linearGradient x1="0.8483489751815796" y1="-0.10424499958753586" x2="-0.2556188417552425" y2="0.5983576652714833" id="master_svg2_235_84228"><stop offset="0%" stop-color="#35A1A8" stop-opacity="1"/><stop offset="100%" stop-color="#92F8FF" stop-opacity="1"/></linearGradient><linearGradient x1="0.8483489751815796" y1="-0.10424499958753586" x2="-0.19535743878555434" y2="0.13016152185159469" id="master_svg3_235_84228"><stop offset="0%" stop-color="#35A1A8" stop-opacity="1"/><stop offset="100%" stop-color="#92F8FF" stop-opacity="1"/></linearGradient><linearGradient x1="0.8483489751815796" y1="-0.10424499958753586" x2="-0.20781469609593975" y2="0.15572527549382387" id="master_svg4_235_84228"><stop offset="0%" stop-color="#35A1A8" stop-opacity="1"/><stop offset="100%" stop-color="#92F8FF" stop-opacity="1"/></linearGradient><mask id="master_svg5_357_76495" style="mask-type:alpha" maskUnits="objectBoundingBox"><g><g><path d="M4.23583984375,3.03414703125L8.18745984375,0.88652103125C8.70288984375,0.71471103125,9.218319843749999,0.54290173125,9.81965984375,0.62880663125L5.78212984375,2.77642703125C5.2666998437500006,2.69052703125,4.66536384375,2.77642703125,4.23583984375,3.03414703125Z" fill="url(#master_svg4_235_84228)" fill-opacity="1"/></g></g></mask><linearGradient x1="0.8483489751815796" y1="-0.10424499958753586" x2="-0.25631736815073497" y2="0.30058837986503295" id="master_svg6_235_84228"><stop offset="0%" stop-color="#35A1A8" stop-opacity="1"/><stop offset="100%" stop-color="#92F8FF" stop-opacity="1"/></linearGradient><linearGradient x1="0.8483489751815796" y1="-0.10424499958753586" x2="-0.25631738971339835" y2="0.30058847948693357" id="master_svg7_235_84228"><stop offset="0%" stop-color="#35A1A8" stop-opacity="1"/><stop offset="100%" stop-color="#92F8FF" stop-opacity="1"/></linearGradient><linearGradient x1="0.8483489751815796" y1="-0.10424499958753586" x2="-0.25631741127605345" y2="0.3005885791088654" id="master_svg8_235_84228"><stop offset="0%" stop-color="#35A1A8" stop-opacity="1"/><stop offset="100%" stop-color="#92F8FF" stop-opacity="1"/></linearGradient><linearGradient x1="0.8483489751815796" y1="-0.10424499958753586" x2="-0.252636060057677" y2="0.28450451194559345" id="master_svg9_235_84228"><stop offset="0%" stop-color="#35A1A8" stop-opacity="1"/><stop offset="100%" stop-color="#92F8FF" stop-opacity="1"/></linearGradient><linearGradient x1="0.8483489751815796" y1="-0.10424499958753586" x2="-0.25263603633229725" y2="0.2845044136577286" id="master_svga_235_84228"><stop offset="0%" stop-color="#35A1A8" stop-opacity="1"/><stop offset="100%" stop-color="#92F8FF" stop-opacity="1"/></linearGradient><linearGradient x1="0.8483489751815796" y1="-0.10424499958753586" x2="-0.252636060057677" y2="0.28450451194559345" id="master_svgb_235_84228"><stop offset="0%" stop-color="#35A1A8" stop-opacity="1"/><stop offset="100%" stop-color="#92F8FF" stop-opacity="1"/></linearGradient><linearGradient x1="0.8483489751815796" y1="-0.10424499958753586" x2="-0.25263603633229725" y2="0.2845044136577286" id="master_svgc_235_84228"><stop offset="0%" stop-color="#35A1A8" stop-opacity="1"/><stop offset="100%" stop-color="#92F8FF" stop-opacity="1"/></linearGradient><linearGradient x1="0.8483489751815796" y1="-0.10424499958753586" x2="-0.25678155827755883" y2="0.30274957630193333" id="master_svgd_235_84228"><stop offset="0%" stop-color="#35A1A8" stop-opacity="1"/><stop offset="100%" stop-color="#92F8FF" stop-opacity="1"/></linearGradient><linearGradient x1="0.8483489751815796" y1="-0.10424499958753586" x2="-0.2436941777749829" y2="0.25111699470787285" id="master_svge_235_84228"><stop offset="0%" stop-color="#35A1A8" stop-opacity="1"/><stop offset="100%" stop-color="#92F8FF" stop-opacity="1"/></linearGradient><linearGradient x1="0.8483489751815796" y1="-0.10424499958753586" x2="0.19780065310796818" y2="1.106298442888778" id="master_svgf_235_84228"><stop offset="0%" stop-color="#35A1A8" stop-opacity="1"/><stop offset="100%" stop-color="#92F8FF" stop-opacity="1"/></linearGradient><linearGradient x1="0.8483489751815796" y1="-0.10424499958753586" x2="-0.2599548555847231" y2="0.31853186824415314" id="master_svgg_235_84228"><stop offset="0%" stop-color="#35A1A8" stop-opacity="1"/><stop offset="100%" stop-color="#92F8FF" stop-opacity="1"/></linearGradient><linearGradient x1="0.8483489751815796" y1="-0.10424499958753586" x2="0.7385148769864615" y2="1.0691289551711327" id="master_svgh_235_84228"><stop offset="0%" stop-color="#35A1A8" stop-opacity="1"/><stop offset="100%" stop-color="#92F8FF" stop-opacity="1"/></linearGradient><linearGradient x1="0.8483489751815796" y1="-0.10424499958753586" x2="0.23660475825311406" y2="1.118385402723137" id="master_svgi_235_84228"><stop offset="0%" stop-color="#35A1A8" stop-opacity="1"/><stop offset="100%" stop-color="#92F8FF" stop-opacity="1"/></linearGradient><linearGradient x1="0.6566339135169983" y1="0.6947014331817627" x2="0.4824560561697611" y2="0.35133278814789537" id="master_svgj_357_78312"><stop offset="0%" stop-color="#35A1A8" stop-opacity="1"/><stop offset="100%" stop-color="#92F8FF" stop-opacity="1"/></linearGradient><linearGradient x1="0.8483489751815796" y1="-0.10424499958753586" x2="-0.2634790529457269" y2="0.5569456389499621" id="master_svgk_235_84228"><stop offset="0%" stop-color="#35A1A8" stop-opacity="1"/><stop offset="100%" stop-color="#92F8FF" stop-opacity="1"/></linearGradient><linearGradient x1="0.8483489751815796" y1="-0.10424499958753586" x2="-0.25034176134984293" y2="0.27527657142400697" id="master_svgl_235_84228"><stop offset="0%" stop-color="#35A1A8" stop-opacity="1"/><stop offset="100%" stop-color="#92F8FF" stop-opacity="1"/></linearGradient><linearGradient x1="0.8483489751815796" y1="-0.10424499958753586" x2="-0.05599555590431436" y2="-0.056304986628979314" id="master_svgm_235_84228"><stop offset="0%" stop-color="#35A1A8" stop-opacity="1"/><stop offset="100%" stop-color="#92F8FF" stop-opacity="1"/></linearGradient><linearGradient x1="0.8483489751815796" y1="-0.10424499958753586" x2="0.8313578307569371" y2="1.0126473433719838" id="master_svgn_235_84228"><stop offset="0%" stop-color="#35A1A8" stop-opacity="1"/><stop offset="100%" stop-color="#92F8FF" stop-opacity="1"/></linearGradient><linearGradient x1="0.28655120730400085" y1="0.1462971270084381" x2="0.7171859262870605" y2="0.7815100569847361" id="master_svgo_357_77777"><stop offset="0%" stop-color="#35A1A8" stop-opacity="1"/><stop offset="100%" stop-color="#3FAAB1" stop-opacity="1"/></linearGradient><linearGradient x1="0.5" y1="1" x2="0.5" y2="0" id="master_svgp_246_44379"><stop offset="0%" stop-color="#EFFEFF" stop-opacity="1"/><stop offset="100%" stop-color="#63F6FF" stop-opacity="1"/></linearGradient></defs><g clip-path="url(#master_svg0_357_76477)"><g><g><g><path d="M8.101635217666626,18.497150220031738L12.053255217666626,16.34953022003174L12.053255217666626,18.23944022003174L8.101635217666626,20.38706022003174L8.101635217666626,18.497150220031738Z" fill="url(#master_svg1_235_84228)" fill-opacity="1"/></g></g><g><g><path d="M8.101635217666626,20.38659933959961L12.053255217666626,18.23897933959961L19.526935217666626,24.080509339599608L15.489455217666626,26.22812933959961L8.101635217666626,20.38659933959961Z" fill="url(#master_svg2_235_84228)" fill-opacity="1"/></g></g><g><g><path d="M16.004902839660645,28.97721873352051L19.956522839660643,26.915498733520508L21.588722839660644,27.087307733520507L17.637092839660646,29.23492873352051L16.004902839660645,28.97721873352051Z" fill="url(#master_svg3_235_84228)" fill-opacity="1"/></g></g><g><g mask="url(#master_svg5_357_76495)"><g><g><path d="M4.23583984375,3.0343375058460236L8.18745984375,0.8867123058460236C8.27336984375,0.8008075058460236,8.359269843749999,0.8008075058460236,8.445179843750001,0.8008075058460236L4.49355484375,2.862527505846024C4.40764984375,2.9484275058460234,4.32174464375,2.9484275058460234,4.23583984375,3.0343375058460236Z" fill="url(#master_svg6_235_84228)" fill-opacity="1"/></g><g><path d="M4.493591099977493,2.862661004214287L8.445211099977493,0.7150358042142868C8.531121099977494,0.7150358042142868,8.617021099977492,0.6291310042142868,8.702931099977494,0.6291310042142868L4.751306099977493,2.7767510042142867C4.665401099977493,2.862661004214287,4.579495899977493,2.862661004214287,4.493591099977493,2.862661004214287Z" fill="url(#master_svg7_235_84228)" fill-opacity="1"/></g><g><path d="M4.751342356204987,2.7765862794208527L8.702962356204987,0.6289610794208527C8.788872356204987,0.6289610794208527,8.874772356204986,0.6289610794208527,8.960682356204988,0.5430562794208527L5.009057356204987,2.7765862794208527C4.923152356204986,2.7765862794208527,4.837247356204987,2.7765862794208527,4.751342356204987,2.7765862794208527Z" fill="url(#master_svg8_235_84228)" fill-opacity="1"/></g><g><path d="M5.009093642234802,2.7767510042142867L8.960713642234802,0.6291310042142868C9.046623642234803,0.6291310042142868,9.046623642234803,0.6291310042142868,9.132523642234801,0.6291310042142868L5.180903642234802,2.7767510042142867Q5.094998642234803,2.7767510042142867,5.009093642234802,2.7767510042142867Z" fill="url(#master_svg9_235_84228)" fill-opacity="1"/></g><g><path d="M5.1807701587677,2.7767510042142867L9.1323901587677,0.6291310042142868C9.2183001587677,0.6291310042142868,9.2183001587677,0.6291310042142868,9.3042001587677,0.6291310042142868L5.3525801587677,2.7767510042142867C5.2666751587677005,2.7767510042142867,5.2666751587677005,2.7767510042142867,5.1807701587677,2.7767510042142867Z" fill="url(#master_svga_235_84228)" fill-opacity="1"/></g><g><path d="M5.352446675300598,2.7767510042142867L9.304066675300598,0.6291310042142868C9.389976675300598,0.6291310042142868,9.389976675300598,0.6291310042142868,9.475876675300597,0.6291310042142868L5.524256675300598,2.7767510042142867C5.4383516753005985,2.7767510042142867,5.4383516753005985,2.7767510042142867,5.352446675300598,2.7767510042142867Z" fill="url(#master_svgb_235_84228)" fill-opacity="1"/></g><g><path d="M5.524596095085144,2.7767510042142867L9.476216095085144,0.6291310042142868Q9.562126095085144,0.6291310042142868,9.648026095085143,0.6291310042142868L5.696406095085144,2.7767510042142867C5.610500895085144,2.7767510042142867,5.610500895085144,2.7767510042142867,5.524596095085144,2.7767510042142867Z" fill="url(#master_svgc_235_84228)" fill-opacity="1"/></g><g><path d="M5.696272611618042,2.7767510042142867L9.647892611618042,0.6291310042142868L9.733802611618042,0.6291310042142868L5.782177411618042,2.7767510042142867L5.696272611618042,2.7767510042142867Z" fill="url(#master_svgd_235_84228)" fill-opacity="1"/></g></g></g></g><g><g><path d="M10.249247074127197,19.699633849487306L14.200867074127197,17.552013849487306L19.5269670741272,15.060773849487305L15.489447074127197,17.122493849487306L10.249247074127197,19.699633849487306Z" fill="url(#master_svge_235_84228)" fill-opacity="1"/></g></g><g><g><path d="M20.557876586914062,24.338678465576173L24.50949658691406,22.276958465576172L24.50949658691406,24.85410846557617L20.557876586914062,27.00172846557617L20.557876586914062,24.338678465576173Z" fill="url(#master_svgf_235_84228)" fill-opacity="1"/></g></g><g><g><path d="M15.489455217666626,14.373366461486818L19.526935217666626,12.311646461486816L12.053255217666626,16.349176461486817L8.101635217666626,18.496796461486817L15.489455217666626,14.373366461486818Z" fill="url(#master_svgg_235_84228)" fill-opacity="1"/></g></g><g><g><path d="M18.410242839660643,12.913172520751953L22.361862839660645,10.765552520751953L19.956522839660643,26.91565252075195L16.004902839660645,28.977352520751953L18.410242839660643,12.913172520751953Z" fill="url(#master_svgh_235_84228)" fill-opacity="1"/></g></g><g><g><path d="M20.557876586914062,15.146918095703125L24.50949658691406,12.999298095703125L24.50949658691406,15.748258095703125L20.557876586914062,17.895878095703125L20.557876586914062,15.146918095703125Z" fill="url(#master_svgi_235_84228)" fill-opacity="1"/></g></g><g><g><g><path d="M35.76296605407715,36.966654276123045L31.81134605407715,39.11427427612305C32.67039405407715,38.684754276123044,33.18582605407715,37.739804276123046,33.18582605407715,36.62303427612305L37.22175605407715,34.470684896123046C37.307666054077146,35.67335427612305,36.62201605407715,36.53713427612305,35.76296605407715,36.966654276123045Z" fill="url(#master_svgj_357_78312)" fill-opacity="1"/></g></g></g><g><g><path d="M20.557876586914062,17.895633496398926L24.50949658691406,15.748013496398926L29.835596586914065,19.871443496398925L25.79806658691406,22.019063496398925L20.557876586914062,17.895633496398926Z" fill="url(#master_svgk_235_84228)" fill-opacity="1"/></g></g><g><g><path d="M20.557876586914062,27.001846467285155L24.50949658691406,24.854226467285155L31.89727658691406,21.160316467285156L27.94569658691406,23.222036467285157L20.557876586914062,27.001846467285155Z" fill="url(#master_svgl_235_84228)" fill-opacity="1"/></g></g><g><g><path d="M5.781874299049377,2.776278056259155L9.819404299049378,0.6286580562591553L34.30227429904937,4.236658056259156L30.264774299049378,6.384278056259156L5.781874299049377,2.776278056259155Z" fill="url(#master_svgm_235_84228)" fill-opacity="1"/></g></g><g><g><path d="M33.272171352783204,9.99206839630127L37.22379785278321,7.9303483963012695L37.22379785278321,34.47494839630127L33.1862678527832,36.62254839630127L33.272171352783204,9.99206839630127Z" fill="url(#master_svgn_235_84228)" fill-opacity="1"/></g></g><g><g><g><path d="M30.264930725097656,6.384357489700317L34.216550725097655,4.236737489700317C35.84875072509766,4.4944524897003175,37.223220725097654,6.126647489700318,37.223220725097654,7.930647489700317L33.271600725097656,10.078267489700316C33.271600725097656,8.274267489700318,31.897120725097658,6.642077489700317,30.264930725097656,6.384357489700317Z" fill="url(#master_svgo_357_77777)" fill-opacity="1"/></g></g></g></g><g><g><path d="M30.264990625,6.38442921875C31.897090625,6.64213921875,33.271590625,8.274329218750001,33.271590625,10.07833921875L33.185690625,36.62289921875C33.185690625,38.42689921875,31.811190625,39.62959921875,30.178990625,39.37189921875L5.782060625,35.76389921875C4.063960625,35.50619921875,2.775390625,33.87399921875,2.775390625,32.06999921875L2.861295425,5.52537921875C2.861295425,3.72137621875,4.235770625,2.51870821875,5.867960625,2.77642301875L30.264990625,6.38442921875ZM27.945490625,23.22179921875L27.945490625,21.33189921875L20.557690625,15.06079921875L20.557690625,17.80979921875L25.797890625,21.93319921875L20.471790625,24.25259921875L20.471790625,26.91569921875L27.945490625,23.22179921875ZM15.489290625,17.12249921875L15.489290625,14.37359921875L8.101490625,18.49699921875L8.101490625,20.38689921875L15.489290625,26.22839921875L15.489290625,23.65129921875L10.249110625,19.69969921875L15.489290625,17.12249921875ZM17.636890625,29.23509921875L19.956390625,13.17089921875L18.324190625,12.91319921875L16.004690625000002,28.97739921875L17.636890625,29.23509921875Z" fill="url(#master_svgp_246_44379)" fill-opacity="1"/></g></g></g></svg>