<svg xmlns="http://www.w3.org/2000/svg" xmlns:xlink="http://www.w3.org/1999/xlink" fill="none" version="1.1" width="40" height="40" viewBox="0 0 40 40"><defs><clipPath id="master_svg0_357_76744"><rect x="1.5" y="3.20849609375" width="36.843040466308594" height="34.27959060668945" rx="0"/></clipPath><linearGradient x1="0.8483489751815796" y1="-0.10424499958753586" x2="-0.13161116507151632" y2="0.8672407782792684" id="master_svg1_235_84228"><stop offset="0%" stop-color="#35A1A8" stop-opacity="1"/><stop offset="100%" stop-color="#92F8FF" stop-opacity="1"/></linearGradient><linearGradient x1="0.5" y1="1" x2="0.5" y2="0" id="master_svg2_246_44379"><stop offset="0%" stop-color="#EFFEFF" stop-opacity="1"/><stop offset="100%" stop-color="#63F6FF" stop-opacity="1"/></linearGradient></defs><g><g clip-path="url(#master_svg0_357_76744)"><g><g><path d="M24.7842,3.43796809375L24.9577,3.34133009375C24.8252,3.34133009375,24.6927,3.47419709375,24.5602,3.47419709375L20.8494,5.46719609375Q20.7216,5.46724609375,20.7169,5.59052609375L20.6991,5.60012609375C20.6534,5.60023609375,20.6249,5.60123609375,20.5993,5.610306093749999C20.5603,5.62410609375,20.5279,5.6565660937499995,20.4517,5.73293609375L20.6685,5.616546093749999L20.6734,5.61418609375C20.6768,5.61256609375,20.6803,5.61093609375,20.6837,5.60932609375C20.6895,5.6065960937499995,20.6953,5.60389609375,20.7011,5.60120609375L20.7035,5.60012609375L20.7168,5.60011609375L20.7169,5.59400609375C21.3541,5.3049060937500006,22.1935,5.218366093749999,23.2348,5.33436609375L24.5636,5.33436609375C24.6275,5.33553609375,24.6598,5.36784609375,24.676,5.384156093750001C24.6821,5.39019609375,24.6859,5.39403609375,24.6883,5.39328609375C24.6926,5.39198609375,24.6926,5.37661609375,24.6926,5.3343260937500006Q24.8252,5.46722609375,24.9577,5.46722609375Q24.9577,5.60009609375,25.0902,5.60009609375Q25.2227,5.73296609375,25.3553,5.73296609375Q25.4878,5.86582609375,25.6203,5.86582609375C25.917,5.98481609375,26.2137,6.13043609375,26.4985,6.290766093749999C26.4164,6.309596093750001,26.3382,6.34189609375,26.2829,6.3972760937499995L26.0284,6.53401609375C25.948,6.54160609375,25.8676,6.564196093750001,25.7872,6.63142609375C25.7758,6.64102609375,25.7643,6.65153609375,25.7528,6.663046093749999L23.4843,7.88139609375C23.8067,7.52399609375,24.1551,7.21228609375,24.5295,6.93472609375C24.5333,6.93194609375,24.537,6.92917609375,24.5408,6.92640609375C24.7998,6.73507609375,25.0713,6.55999609375,25.3552,6.39735609375C25.2867,6.431626093749999,25.2194,6.4678660937500005,25.1529,6.50600609375L25.1529,6.50600609375L21.6444,8.390296093749999C20.9939,8.66982609375,20.4086,9.14531609375,19.8884,9.725176093750001C19.8888,9.44300609375,19.8597,9.16102609375,19.8011,8.85132609375L19.9215,8.78892609375C19.7889,8.12459609375,19.5239,7.59312609375,19.1263,7.06165609375C18.8257,6.65986609375,18.3736,6.33401609375,17.8846,6.0266860937499995L17.9335,5.9986960937500005C17.8009,5.9986960937500005,17.8009,5.86582609375,17.6684,5.86582609375L17.6446,5.87860609375C17.5645,5.8299160937500005,17.484,5.78145609375,17.403399999999998,5.73299609375L13.63,7.77229609375L13.5602,7.72599609375L9.84939,9.71899609375Q9.98189,9.71899609375,10.1144,9.85181609375L10.90952,9.851826093749999C11.17458,9.98469609375,11.17458,9.98469609375,11.30711,9.98469609375L11.5722,9.98466609375C11.7047,10.11752609375,11.7047,10.11752609375,11.8372,10.11752609375C11.9698,10.11757609375,12.1023,10.11757609375,12.1024,10.250376093749999C12.2349,10.25040609375,12.3674,10.25045609375,12.4999,10.38327609375L15.1632,8.89988609375C15.2044,8.95131609375,15.2443,9.00298609375,15.2829,9.05464609375L14.7969,9.103886093749999L12.4999,10.38327609375C12.6325,10.38324609375,13.03,10.649026093749999,13.1625,10.649026093749999C13.2951,10.781856093750001,13.4277,10.78186609375,13.5602,10.914706093749999C13.6926,11.047616093750001,13.8252,11.18047609375,13.9577,11.18047609375L15.895,10.13997609375C15.9376,10.25224609375,15.9236,10.06145609375,15.9565,10.18099609375L13.8655,11.21787609375C13.969,11.29565609375,14.4246,11.60684609375,14.5199,11.69473609375L14.4878,11.71196609375C14.5571,11.78157609375,14.6629,11.85116609375,14.7669,11.93983609375C14.8385,12.01567609375,14.9093,12.09461609375,14.9802,12.17665609375C14.9936,12.19796609375,15.0063,12.22020609375,15.0179,12.24345609375C15.0591,12.28477609375,15.1004,12.32612609375,15.1411,12.36746609375C15.3119,12.57421609375,15.4874,12.79859609375,15.6805,13.04060609375L16.1806,12.77206609375C16.2175,12.81956609375,16.2545,12.86774609375,16.2914,12.91666609375L15.8132,13.17347609375C15.7913,13.23939609375,15.7657,13.30529609375,15.7372,13.37059609375C15.7365,13.37209609375,15.7359,13.37359609375,15.7352,13.37499609375Q15.7341,13.37769609375,15.7329,13.38039609375Q15.71,13.40979609375,15.6807,13.43919609375C15.6807,13.45969609375,15.6807,13.47709609375,15.6802,13.49219609375C15.6521,13.54849609375,15.622,13.60399609375,15.5903,13.65839609375C15.5883,13.66189609375,15.5862,13.66529609375,15.5842,13.66869609375C15.5735,13.67959609375,15.5616,13.69159609375,15.5483,13.70489609375Q15.5481,13.71849609375,15.5467,13.73069609375C15.535,13.74949609375,15.5232,13.76809609375,15.5112,13.78649609375L15.4156,13.83779609375C15.4156,13.89239609375,15.3933,13.94689609375,15.3578,13.99219609375L15.1504,14.10359609375C15.0753,14.17889609375,15.0428,14.25419609375,15.0046,14.30529609375L14.8854,14.36929609375C14.9779,14.36929609375,15.0705,14.30449609375,15.163,14.22019609375L15.1705,14.21619609375Q15.1689,14.21779609375,15.1674,14.21929609375Q15.159,14.22789609375,15.1505,14.23639609375L16.657400000000003,13.42709609375C16.9944,13.92229609375,17.3315,14.49069609375,17.6685,15.16649609375L18.3666,14.79159609375C18.3375,14.94099609375,18.3323,15.10369609375,18.3313,15.29919609375L18.3311,15.30999609375C18.331,15.33139609375,18.3305,15.35269609375,18.3297,15.37409609375C18.3151,15.74669609375,18.1993,16.119396093749998,18.1986,16.49199609375L18.1986,16.49509609375L18.1986,16.49509609375L18.1986,17.45699609375L5.21081,15.56509609375L1.5,17.558096093750002L16.8143,19.91539609375L16.8143,19.91539609375L18.1344,19.23029609375L18.1344,19.44869609375L17.0059,20.08259609375C16.9281,20.16049609375,16.896,20.23849609375,16.8827,20.34329609375L16.8733,20.34829609375L16.8812,20.35619609375C16.8733,20.42719609375,16.8733,20.51059609375,16.8733,20.61399609375C17.0059,20.74689609375,17.0059,20.87979609375,17.1384,21.01259609375C17.270899999999997,21.14549609375,17.6685,21.27839609375,17.9336,21.27839609375C18.1986,21.27839609375,18.4637,21.27839609375,18.5962,21.14549609375L20.1714,20.29949609375L34.6322,22.47419609375C34.6161,22.70099609375,34.596,22.92589609375,34.5717,23.14899609375C34.5645,23.18039609375,34.5565,23.21249609375,34.5476,23.24559609375L34.4998,23.27129609375C34.4998,23.66989609375,34.444,23.93569609375,34.3114,24.20139609375L34.3731,24.16829609375C34.3646,24.21739609375,34.3558,24.26629609375,34.3469,24.31519609375L34.3113,24.33429609375C34.3113,24.60009609375,34.1173,24.86569609375,33.9848,25.26429609375L34.095,25.20509609375C34.084,25.24959609375,34.0729,25.29399609375,34.0615,25.33839609375C34.051,25.37909609375,34.0404,25.41979609375,34.0296,25.46049609375C33.9562,25.64239609375,33.8929,25.84919609375,33.866,26.02819609375C33.8653,26.03059609375,33.8645,26.03299609375,33.8638,26.03539609375C33.8445,26.09719609375,33.8249,26.15899609375,33.8047,26.22079609375L28.9335,26.32729609375L20.9818,22.87269609375L13.03,23.93569609375L9.31924,25.92869609375L17.271,24.73289609375L25.2227,28.32029609375L31.4515,28.18739609375L32.9093,28.85169609375C32.8275,28.93379609375,32.7962,29.01579609375,32.7842,29.09779609375C32.7656,29.13379609375,32.7469,29.16959609375,32.728,29.20539609375L32.6443,29.25029609375C32.5118,29.64889609375,32.246700000000004,30.04749609375,31.9817,30.31319609375C31.7167,30.84469609375,31.4516,31.24329609375,31.0541,31.64179609375C29.8614,33.23599609375,28.2714,34.43169609375,26.6813,35.36169609375L26.6813,35.36169609375C26.7065,35.34919609375,26.7324,35.33609609375,26.7583,35.32279609375C26.9396,35.23039609375,27.1183,35.13359609375,27.2945,35.032396093749995L30.3913,33.36919609375C32.751999999999995,32.123596093749995,34.8797,30.06049609375,36.3376,27.39899609375C36.3533,27.37029609375,36.369,27.34149609375,36.3845,27.31269609375L36.4876,27.25729609375C36.4876,27.12449609375,36.6201,26.99169609375,36.6201,26.85879609375L36.863,26.32719609375L37.0177,25.79579609375C37.1503,25.66289609375,37.1503,25.39729609375,37.2827,25.26429609375C37.4153,24.86569609375,37.5478,24.59999609375,37.6803,24.20139609375C37.8129,23.93569609375,37.8129,23.53709609375,37.9455,23.27129609375L37.8583,23.31809609375C37.8925,23.18839609375,37.9253,23.05789609375,37.9567,22.92679609375L37.9577,22.92269609375C38.0213,22.73769609375,38.0689,22.54289609375,38.0768,22.38559609375C38.1573,21.99239609375,38.2236,21.59489609375,38.273,21.19589609375C38.3431,20.91079609375,38.3431,20.69599609375,38.343,20.48119609375L22.4396,18.08959609375L22.2812,18.17459609375C22.2625,18.091696093750002,22.2302,18.012496093750002,22.1746,17.95669609375L22.1744,17.952996093750002L22.1744,17.823796093749998L22.1544,17.83459609375L22.1537,17.83209609375C22.1165,17.68269609375,21.9095,17.45839609375,21.9094,17.15949609375L20.7166,17.87129609375L20.5769,17.952996093750002L21.9094,17.15949609375L21.9094,14.57079609375L22.042,14.50209609375L22.042,13.70489609375L22.0322,13.71009609375C22.0351,13.66259609375,22.0372,13.61719609375,22.0386,13.57379609375L22.0419,13.57209609375L22.0419,13.43919609375C22.0419,13.17345609375,22.1744,12.77488609375,22.1744,12.50915609375L22.1566,12.51874609375C22.1621,12.47209609375,22.1666,12.42544609375,22.1697,12.37878609375L22.1744,12.37627609375L22.1744,12.25429609375L22.1744,12.24339609375C22.307,11.84479609375,22.307,11.44619609375,22.4395,11.04759609375C22.4395,10.90530609375,22.4564,10.76301609375,22.4841,10.62676609375C22.5226,10.54559609375,22.5721,10.46441609375,22.5721,10.38324609375L22.5414,10.39974609375C22.5883,10.24330609375,22.6464,10.10121609375,22.7046,9.98469609375L22.7782,9.837096093749999Q22.8371,9.80757609375,22.8371,9.71899609375L23.0433,9.305596093750001Q23.1021,9.27606609375,23.1021,9.18749609375L19.9638,10.87304609375C19.9526,10.858426093750001,19.9415,10.84386609375,19.9303,10.82937609375L23.2348,9.054626093749999L22.9697,8.52316609375C23.0453,8.41703609375,23.1227,8.31434609375,23.2018,8.21491609375C23.4227,8.15468609375,23.645,8.124576093750001,23.8974,8.124576093750001L25.2227,8.124576093750001L27.0776,7.12832609375L27.4757,6.92876609375C27.9935,7.31809609375,28.3849,7.70741609375,28.7733,8.096756093749999L25.7528,9.71899609375C25.6203,9.71899609375,25.4878,9.85179609375,25.3553,9.98462609375C25.0902,10.11752609375,24.8251,10.383266093749999,24.5601,10.64899609375L23.765,11.44614609375C23.6409,11.69472609375,23.4011,11.82703609375,23.0454,12.06044609375L22.7046,12.24344609375L22.7077,12.24342609375Q22.7807,12.24256609375,22.8537,12.20140609375C22.9366,12.16247609375,23.0194,12.11057609375,23.1022,12.11057609375L26.5669,10.24976609375Q26.69,10.24095609375,26.813,10.11757609375L26.6452,10.207686093749999C26.6674,10.18804609375,26.6805,10.15939609375,26.6805,10.11756609375C26.9455,9.85184609375,27.2105,9.718976093750001,27.4756,9.45328609375L28.2709,8.65599609375C28.4593,8.46705609375,28.6478,8.345286093750001,28.8362,8.19515609375C28.957,8.436376093749999,29.0778,8.66780609375,29.1986,8.788896093750001L29.2701,8.75307609375C29.2854,8.79066609375,29.2976,8.82738609375,29.3069,8.863556093749999L29.1986,8.92174609375C29.1986,9.09067609375,29.1986,9.20591609375,29.1646,9.267456093749999L29.0661,9.32034609375C29.1144,9.32034609375,29.145,9.30271609375,29.1646,9.267456093749999L32.7769,7.32734609375C32.874300000000005,7.32734609375,32.971599999999995,7.25563609375,32.963899999999995,7.1122260937499995L33.307,6.92876609375C33.307,6.66302609375,33.042,6.3972960937500005,32.7769,5.9986960937500005C32.3793,5.60009609375,31.9817,5.20149609375,31.4516,4.80289609375C30.9215,4.40429609375,30.2588,4.00569609375,29.5962,3.73996309375C29.4637,3.73996309375,29.4637,3.60709609375,29.3311,3.60709609375C29.1986,3.47422909375,29.1986,3.47422909375,29.0661,3.47422909375C29.0661,3.34136309375,29.0661,3.34136309375,28.9336,3.34136309375C28.801,3.20849609375,28.801,3.20849609375,28.6685,3.20849609375L26.9456,3.20849609375C26.9004,3.20875545575,26.856,3.20888922975,26.8119,3.20909200275L26.8119,3.20909200275L25.8855,3.20849609375L25.4878,3.20849609375L25.3171,3.30011209375C25.247,3.31219209375,25.1787,3.32586409375,25.112,3.34134009375L25.0901,3.34136309375L25.0727,3.35072309375C24.9726,3.37530909375,24.8764,3.40414609375,24.7842,3.43796809375ZM26.5669,10.24976609375Q26.5574,10.25044609375,26.548,10.25044609375L23.2171,11.97770609375L26.4331,10.25043609375C26.4921,10.250316093750001,26.55,10.24901609375,26.5949,10.23475609375L26.5669,10.24976609375ZM26.6832,35.36079609375L27.2945,35.032396093749995C27.4913,34.91949609375,27.6849,34.80119609375,27.8753,34.67769609375L26.6813,35.36169609375L26.6813,35.36169609375L26.6832,35.36079609375ZM14.5186,8.25984609375L11.30711,9.98469609375L14.4561,8.18069609375C14.4623,8.18565609375,14.4684,8.19062609375,14.4746,8.19562609375C14.4831,8.21211609375,14.4878,8.23242609375,14.4878,8.257456093750001C14.4981,8.25749609375,14.5084,8.258296093750001,14.5186,8.25984609375ZM10.77876,9.85085609375L10.77703,9.851826093749999L14.1809,8.023686093750001L10.77876,9.85085609375ZM10.11631,9.85078609375L13.8252,7.85882609375L13.9066,7.88964609375L13.9154,7.88502609375C13.8511,7.85049609375,13.7948,7.80171609375,13.7277,7.77229609375L13.6926,7.81179609375L10.11631,9.85078609375ZM15.5482,5.1288360937499995L15.4157,5.06866609375L14.6205,5.06866609375L14.9744,5.5808560937500005C15.0684,5.53033609375,15.4157,5.34049609375,15.6806,5.20149609375L15.5482,5.1288360937499995ZM3.09028,24.20139609375L6.80109,22.20839609375L13.03,23.93569609375L9.31924,25.92869609375L3.09028,24.20139609375ZM12.8623,5.38531609375C12.7857,5.4093360937499995,12.7091,5.43649609375,12.6326,5.46719609375L12.4999,5.46719609375L12.4999,5.46719609375C12.1058,5.598996093749999,11.8421,5.73061609375,11.5795,5.8622260937499995C11.5771,5.86342609375,11.5747,5.86462609375,11.5723,5.86582609375L7.86153,7.85880609375C8.25908,7.72593609375,8.52413,7.59308609375,8.92168,7.46022609375C8.95315,7.46015609375,8.98444,7.45272609375,9.015740000000001,7.44138609375C9.64703,7.31508609375,10.27832,7.194496093750001,10.90962,7.194496093750001L11.04224,7.194496093750001L11.5723,7.1945260937499995L11.7048,7.194496093750001L11.8373,7.194496093750001L11.9831,7.194496093750001C12.2393,7.19453609375,12.3674,7.196736093749999,12.3674,7.32736609375L12.5993,7.194496093750001L12.6148,7.194496093750001L12.3674,7.32736609375L12.765,7.32732609375C12.8975,7.46019609375,12.8975,7.46019609375,13.03,7.46019609375L13.1252,7.40564609375Q13.1267,7.40660609375,13.1282,7.40754609375L13.03,7.46019609375L13.1626,7.46024609375Q13.29,7.58797609375,13.4174,7.59288609375L13.4277,7.59309609375Q13.4926,7.65819609375,13.5603,7.81179609375L14.3083,7.40566609375L17.403399999999998,5.73299609375L16.0783,5.3343260937500006L16.0554,5.31235609375L16.0783,5.24236609375L16.078200000000002,5.20149609375L15.6806,5.20149609375L14.0933,6.05400609375L14.9744,5.5808560937500005L14.6205,5.06866609375L13.9578,5.06866609375L13.7105,5.20149609375L13.5602,5.20149609375C13.3635,5.20149609375,13.2398,5.27461609375,13.135,5.312366093750001C13.1049,5.319106093749999,13.0748,5.3262560937500005,13.0447,5.33383609375C13.0398,5.3341860937500005,13.0349,5.33436609375,13.03,5.33436609375C12.9741,5.3343260937500006,12.9182,5.3579760937500005,12.8623,5.38531609375Z" fill-rule="evenodd" fill="url(#master_svg1_235_84228)" fill-opacity="1"/></g><g><path d="M16.0781,12.642190156249999C16.2107,11.97786015625,16.2107,11.44639015625,16.0781,10.782060156250001C15.9456,10.117730156250001,15.6806,9.586260156249999,15.4155,9.05479015625C15.0179,8.523330156250001,14.3553,8.12473015625,13.6926,7.72613015625C13.5601,7.72613015625,13.5601,7.59326015625,13.4276,7.59326015625C13.4276,7.46039015625,13.4276,7.46039015625,13.295,7.46039015625C13.1625,7.32753015625,13.1625,7.32753015625,13.03,7.32753015625C12.8975,7.19466015625,12.8975,7.19466015625,12.7649,7.19466015625L12.3673,7.19466015625L12.1023,7.19466015625L11.04205,7.19466015625C10.3794,7.19466015625,9.71676,7.19466015625,9.054120000000001,7.46039015625C8.39147,7.72613015625,7.86135,7.9918601562500005,7.33124,8.25759015625C6.80112,8.523330156250001,6.40354,8.92193015625,6.00595,9.45339015625C5.74089,9.85199015625,5.60836,10.117730156250001,5.60836,10.383460156249999C5.60836,10.64919015625,5.74089,10.91493015625,6.00595,10.91493015625L8.39147,10.91493015625C8.78906,11.047790156249999,9.31917,11.18066015625,9.71676,11.579260156250001L10.51193,12.376460156250001C10.90952,12.642190156249999,11.17458,12.90792015625,11.43964,13.173660156250001C11.7047,13.43939015625,11.9698,13.70512015625,12.2348,13.83799015625C12.4999,14.10372015625,12.7649,14.23659015625,13.1625,14.36946015625C13.295,14.36946015625,13.4276,14.50232015625,13.6926,14.50232015625L14.4878,14.50232015625C14.7529,14.50232015625,15.0179,14.36946015625,15.1504,14.23659015625C15.4155,13.97086015625,15.6806,13.70512015625,15.8131,13.173660156250001C16.078200000000002,13.70512015625,16.3432,14.10372015625,16.6083,14.63519015625C16.8733,15.03379015625,17.1384,15.69816015625,17.403399999999998,16.362460156250002L17.403399999999998,19.15266015625C17.403399999999998,19.41836015625,17.403399999999998,19.68416015625,17.270899999999997,19.816960156249998C17.1384,19.94986015625,17.1384,20.08276015625,17.1384,20.21556015625L17.270899999999997,20.48136015625C17.403399999999998,20.61416015625,17.536,20.74706015625,17.801,20.74706015625C18.0661,20.87996015625,18.1986,20.87996015625,18.3311,20.74706015625L18.4637,20.48136015625C18.4637,20.34846015625,18.4637,20.08276015625,18.3311,19.94986015625C18.3311,19.816960156249998,18.1986,19.551260156250002,18.1986,19.15266015625L18.1986,16.62816015625C18.3311,16.09676015625,18.3311,15.69816015625,18.3311,15.43236015625C18.3311,15.03379015625,18.4637,14.63519015625,18.4637,14.23659015625C18.5962,13.83799015625,18.5962,13.43939015625,18.7287,13.04079015625C18.7287,12.82136015625,18.7689,12.60194015625,18.805,12.404670156249999C18.8345,12.24360015625,18.8613,12.09731015625,18.8613,11.97786015625L19.2588,11.18066015625C19.5239,11.579260156250001,19.789,11.844990156249999,20.054,12.11072015625L20.8492,12.50933015625L22.042,12.50933015625C22.4395,12.376460156250001,22.7046,12.24359015625,22.9697,12.11072015625C23.2347,11.844990156249999,23.4998,11.71213015625,23.7648,11.44639015625L24.56,10.64919015625C24.8251,10.383460156249999,25.0901,10.25059015625,25.3552,9.98486015625C25.7528,9.71913015625,26.1504,9.45339015625,26.6805,9.45339015625L28.9335,9.45339015625C29.1985,9.45339015625,29.331,9.320530156250001,29.331,9.05479015625C29.331,8.95888015625,29.2965,8.84567015625,29.2586,8.72139015625C29.1915,8.50134015625,29.1138,8.24660015625,29.1985,7.9918601562500005C28.8009,7.59326015625,28.4033,7.19466015625,27.8732,6.79606015625C27.3431,6.39746015625,26.6805,5.99886015625,26.0178,5.73312715625C25.8853,5.73312715625,25.8853,5.60026015625,25.7528,5.60026015625C25.6202,5.46739315625,25.6202,5.46739315625,25.4877,5.46739315625C25.4877,5.33452715625,25.4877,5.33452715625,25.3552,5.33452715625C25.2227,5.20166015625,25.2227,5.20166015625,25.0901,5.20166015625L23.6323,5.20166015625Q21.8432,5.201659997861,20.8492,5.60026015625C20.054,5.99886015625,19.5239,6.39746015625,19.2588,6.92893015625C18.8613,7.46039015625,18.7287,8.12473015625,18.7287,8.78906015625Q18.7287,9.78556015625,19.1263,10.782060156250001C18.9938,10.91493015625,18.8613,11.18066015625,18.7287,11.44639015625C18.5962,11.579260156250001,18.4637,11.97786015625,18.3311,12.24359015625C17.9336,13.173660156250001,17.801,14.23659015625,17.6685,15.16666015625C17.1384,14.10372015625,16.6083,13.30652015625,16.0781,12.642190156249999ZM19.2588,10.51632015625C20.054,9.45339015625,20.8492,8.65619015625,21.9094,8.25759015625C21.9094,8.12473015625,22.042,8.12473015625,22.5721,8.12473015625L23.8974,8.12473015625C23.3672,8.12473015625,22.9697,8.25759015625,22.4395,8.523330156250001C21.9094,8.78906015625,21.5118,9.05479015625,20.9817,9.45339015625C20.4516,9.85199015625,20.054,10.383460156249999,19.5239,11.047790156249999L19.2588,10.51632015625ZM15.8131,12.50933015625L15.6806,13.04079015625C15.1504,12.376460156250001,14.7529,11.844990156249999,14.2227,11.44639015625C13.6926,10.91493015625,13.1625,10.64919015625,12.6324,10.383460156249999C12.1023,10.117730156250001,11.5722,9.98486015625,11.04205,9.85199015625L11.9698,9.85199015625C12.0298,9.85199015625,12.0627,9.85199015625,12.0683,9.86438015625C12.075,9.87931015625,12.0422,9.91223015625,11.9698,9.98486015625L12.6324,9.98486015625Q12.6324,10.117730156250001,12.7649,10.117730156250001C13.8252,10.64919015625,14.8854,11.44639015625,15.8131,12.50933015625ZM18.8613,20.61416015625C18.8613,20.481260156250002,18.8613,20.34846015625,18.7288,20.08266015625L34.6322,22.47426015625C34.4997,24.33446015625,33.9696,26.19456015625,33.3069,27.78896015625L31.4515,26.85886015625L25.2227,27.12466015625L17.4035,23.53726015625L9.451740000000001,24.73306015625L2.56023,22.74006015625C2.030116,21.01276015625,1.632529,19.28546015625,1.5,17.55826015625L17.0059,19.816960156249998C16.8734,19.94986015625,16.8734,20.08266015625,16.8734,20.34846015625C16.8734,20.61416015625,16.8734,20.61416015625,17.1384,20.74706015625C17.270899999999997,20.87986015625,17.6685,21.01276015625,17.9336,21.01276015625C18.1986,21.01276015625,18.4637,21.01276015625,18.5962,20.87986015625C18.7288,21.01276015625,18.8613,20.74706015625,18.8613,20.61416015625ZM32.9093,28.85196015625C29.9937,34.56516015625,24.2949,37.62116015625,18.0661,36.69106015625C11.7047,35.76096015625,5.87339,30.84496015625,3.09028,24.06876015625L9.31914,25.79596015625L17.270899999999997,24.60016015625L25.2226,28.18756015625L31.4515,28.05476015625L32.9093,28.85196015625Z" fill-rule="evenodd" fill="url(#master_svg2_246_44379)" fill-opacity="1"/></g></g></g></g></svg>