<svg xmlns="http://www.w3.org/2000/svg" xmlns:xlink="http://www.w3.org/1999/xlink" fill="none" version="1.1" width="40" height="40.00022506713867" viewBox="0 0 40 40.00022506713867"><defs><clipPath id="master_svg0_357_76861"><rect x="0" y="0" width="40" height="40.00022506713867" rx="0"/></clipPath><linearGradient x1="0.8483489751815796" y1="-0.10424499958753586" x2="0.01615618925789596" y2="1.0120444249075637" id="master_svg1_235_84228"><stop offset="0%" stop-color="#35A1A8" stop-opacity="1"/><stop offset="100%" stop-color="#92F8FF" stop-opacity="1"/></linearGradient><mask id="master_svg2_357_76867" style="mask-type:alpha" maskUnits="objectBoundingBox"><g><g><path d="M5.73355640625,25.81860203860998L10.18229640625,23.40080203860998C9.50531640625,24.754772038609982,8.92504640625,26.108732038609983,8.24805640625,27.462702038609983L3.79931640625,29.880502038609983C4.47629940625,28.526532038609982,5.05656640625,27.172562038609982,5.73355640625,25.81860203860998Z" fill="url(#master_svg1_235_84228)" fill-opacity="1"/></g></g></mask><linearGradient x1="0.8483489751815796" y1="-0.10424499958753586" x2="0.01615618925789596" y2="1.0120444249075637" id="master_svg3_235_84228"><stop offset="0%" stop-color="#35A1A8" stop-opacity="1"/><stop offset="100%" stop-color="#92F8FF" stop-opacity="1"/></linearGradient><linearGradient x1="0.8483489751815796" y1="-0.10424499958753586" x2="-0.1728328980165292" y2="0.8061308075625526" id="master_svg4_235_84228"><stop offset="0%" stop-color="#35A1A8" stop-opacity="1"/><stop offset="100%" stop-color="#92F8FF" stop-opacity="1"/></linearGradient><linearGradient x1="0.8483489751815796" y1="-0.10424499958753586" x2="-0.13530205612394683" y2="0.8623039083107842" id="master_svg5_235_84228"><stop offset="0%" stop-color="#35A1A8" stop-opacity="1"/><stop offset="100%" stop-color="#92F8FF" stop-opacity="1"/></linearGradient><linearGradient x1="0.8483489751815796" y1="-0.10424499958753586" x2="-0.08123898057126464" y2="0.9267516766887737" id="master_svg6_235_84228"><stop offset="0%" stop-color="#35A1A8" stop-opacity="1"/><stop offset="100%" stop-color="#92F8FF" stop-opacity="1"/></linearGradient><mask id="master_svg7_357_76885" style="mask-type:alpha" maskUnits="objectBoundingBox"><g><g><path d="M12.30974292755127,27.462740374791622L16.75849292755127,25.044940374791622C17.33876292755127,26.205480374791623,17.91903292755127,27.269310374791623,18.59601292755127,28.429850374791624L14.14726292755127,30.847650374791623C13.470282927551269,29.687110374791622,12.89001392755127,28.623280374791623,12.30974292755127,27.462740374791622Z" fill="url(#master_svg6_235_84228)" fill-opacity="1"/></g></g></mask><linearGradient x1="0.8483489751815796" y1="-0.10424499958753586" x2="-0.08123898057126464" y2="0.9267516766887737" id="master_svg8_235_84228"><stop offset="0%" stop-color="#35A1A8" stop-opacity="1"/><stop offset="100%" stop-color="#92F8FF" stop-opacity="1"/></linearGradient><linearGradient x1="0.8483489751815796" y1="-0.10424499958753586" x2="-0.2606558167686956" y2="0.5734589675185828" id="master_svg9_235_84228"><stop offset="0%" stop-color="#35A1A8" stop-opacity="1"/><stop offset="100%" stop-color="#92F8FF" stop-opacity="1"/></linearGradient><linearGradient x1="0.8483489751815796" y1="-0.10424499958753586" x2="-0.2677184431144426" y2="0.37011232071339706" id="master_svga_235_84228"><stop offset="0%" stop-color="#35A1A8" stop-opacity="1"/><stop offset="100%" stop-color="#92F8FF" stop-opacity="1"/></linearGradient><mask id="master_svgb_357_76897" style="mask-type:alpha" maskUnits="objectBoundingBox"><g><g><path d="M14.921051979064941,32.008390856969356L19.369791979064942,29.590590856969357C19.56322197906494,29.977437856969356,19.95007197906494,30.170861856969356,20.336911979064944,30.267574856969357L15.88816997906494,32.68537085696936C15.501322979064941,32.588660856969355,15.114475979064942,32.298520856969354,14.921051979064941,32.008390856969356Z" fill="url(#master_svga_235_84228)" fill-opacity="1"/></g></g></mask><linearGradient x1="0.8483489751815796" y1="-0.10424499958753586" x2="-0.2677184431144426" y2="0.37011232071339706" id="master_svgc_235_84228"><stop offset="0%" stop-color="#35A1A8" stop-opacity="1"/><stop offset="100%" stop-color="#92F8FF" stop-opacity="1"/></linearGradient><linearGradient x1="0.8483489751815796" y1="-0.10424499958753586" x2="-0.26580032299549816" y2="0.3546143699893859" id="master_svgd_235_84228"><stop offset="0%" stop-color="#35A1A8" stop-opacity="1"/><stop offset="100%" stop-color="#92F8FF" stop-opacity="1"/></linearGradient><linearGradient x1="0.8483489751815796" y1="-0.10424499958753586" x2="-0.263448476432358" y2="0.3386167568010682" id="master_svge_235_84228"><stop offset="0%" stop-color="#35A1A8" stop-opacity="1"/><stop offset="100%" stop-color="#92F8FF" stop-opacity="1"/></linearGradient><linearGradient x1="0.8483489751815796" y1="-0.10424499958753586" x2="-0.26344826274015315" y2="0.33861541195628986" id="master_svgf_235_84228"><stop offset="0%" stop-color="#35A1A8" stop-opacity="1"/><stop offset="100%" stop-color="#92F8FF" stop-opacity="1"/></linearGradient><linearGradient x1="0.8483489751815796" y1="-0.10424499958753586" x2="-0.25678162376973407" y2="0.30274988359870225" id="master_svgg_235_84228"><stop offset="0%" stop-color="#35A1A8" stop-opacity="1"/><stop offset="100%" stop-color="#92F8FF" stop-opacity="1"/></linearGradient><linearGradient x1="0.8483489751815796" y1="-0.10424499958753586" x2="-0.25678162376973407" y2="0.30274988359870225" id="master_svgh_235_84228"><stop offset="0%" stop-color="#35A1A8" stop-opacity="1"/><stop offset="100%" stop-color="#92F8FF" stop-opacity="1"/></linearGradient><linearGradient x1="0.8483489751815796" y1="-0.10424499958753586" x2="-0.25678158427202974" y2="0.3027496982708795" id="master_svgi_235_84228"><stop offset="0%" stop-color="#35A1A8" stop-opacity="1"/><stop offset="100%" stop-color="#92F8FF" stop-opacity="1"/></linearGradient><linearGradient x1="0.8483489751815796" y1="-0.10424499958753586" x2="-0.25678158427202974" y2="0.3027496982708795" id="master_svgj_235_84228"><stop offset="0%" stop-color="#35A1A8" stop-opacity="1"/><stop offset="100%" stop-color="#92F8FF" stop-opacity="1"/></linearGradient><linearGradient x1="0.8483489751815796" y1="-0.10424499958753586" x2="-0.25678158427202974" y2="0.3027496982708795" id="master_svgk_235_84228"><stop offset="0%" stop-color="#35A1A8" stop-opacity="1"/><stop offset="100%" stop-color="#92F8FF" stop-opacity="1"/></linearGradient><linearGradient x1="0.8483489751815796" y1="-0.10424499958753586" x2="-0.25678158427202974" y2="0.3027496982708795" id="master_svgl_235_84228"><stop offset="0%" stop-color="#35A1A8" stop-opacity="1"/><stop offset="100%" stop-color="#92F8FF" stop-opacity="1"/></linearGradient><linearGradient x1="0.8483489751815796" y1="-0.10424499958753586" x2="-0.2619471114261854" y2="0.329554205526708" id="master_svgm_235_84228"><stop offset="0%" stop-color="#35A1A8" stop-opacity="1"/><stop offset="100%" stop-color="#92F8FF" stop-opacity="1"/></linearGradient><linearGradient x1="0.8483489751815796" y1="-0.10424499958753586" x2="-0.2606224802664402" y2="0.32211437558310463" id="master_svgn_235_84228"><stop offset="0%" stop-color="#35A1A8" stop-opacity="1"/><stop offset="100%" stop-color="#92F8FF" stop-opacity="1"/></linearGradient><linearGradient x1="0.8483489751815796" y1="-0.10424499958753586" x2="0.04621562304372205" y2="1.0326085045250724" id="master_svgo_235_84228"><stop offset="0%" stop-color="#35A1A8" stop-opacity="1"/><stop offset="100%" stop-color="#92F8FF" stop-opacity="1"/></linearGradient><mask id="master_svgp_357_76933" style="mask-type:alpha" maskUnits="objectBoundingBox"><g><g><path d="M9.021673676605225,18.952787829625606L13.470423676605225,16.534987829625607C13.470423676605225,16.631700029625605,13.276993676605224,16.921834829625606,13.083573676605225,17.308681829625606C12.890153676605225,17.695527829625608,12.600013676605226,18.275797829625606,12.309883676605224,18.952787829625606C12.019743676605223,19.629767829625607,11.632893676605224,20.306747829625607,11.246053676605225,21.080447829625605L6.797303676605225,23.49823782962561C7.184150676605225,22.724547829625607,7.4742866766052245,21.95084782962561,7.861133676605225,21.370577829625606C8.151273676605225,20.693597829625606,8.441403676605225,20.210037829625605,8.634833676605226,19.72647782962561C8.924963676605225,19.339627829625606,9.021673676605225,19.049497829625608,9.021673676605225,18.952787829625606Z" fill="url(#master_svgo_235_84228)" fill-opacity="1"/></g></g></mask><linearGradient x1="0.8483489751815796" y1="-0.10424499958753586" x2="0.04621562304372205" y2="1.0326085045250724" id="master_svgq_235_84228"><stop offset="0%" stop-color="#35A1A8" stop-opacity="1"/><stop offset="100%" stop-color="#92F8FF" stop-opacity="1"/></linearGradient><linearGradient x1="0.8483489751815796" y1="-0.10424499958753586" x2="-0.22996469460145283" y2="0.20941328691146455" id="master_svgr_235_84228"><stop offset="0%" stop-color="#35A1A8" stop-opacity="1"/><stop offset="100%" stop-color="#92F8FF" stop-opacity="1"/></linearGradient><mask id="master_svgs_357_76939" style="mask-type:alpha" maskUnits="objectBoundingBox"><g><g><path d="M21.836901896057128,30.01580371707678L16.497301896057127,32.91776371707678C16.26513989605713,33.03383371707678,16.03298489605713,33.03383371707678,15.80082689605713,33.03383371707678C15.684747896057129,33.03383371707678,15.568670896057128,33.03383371707678,15.452591896057129,32.91776371707678L20.79219189605713,30.01580371707678C20.90827189605713,30.01580371707678,21.02435189605713,30.131882717076778,21.14043189605713,30.131882717076778C21.37259189605713,30.131882717076778,21.604741896057128,30.131882717076778,21.836901896057128,30.01580371707678Z" fill="url(#master_svgr_235_84228)" fill-opacity="1"/></g></g></mask><linearGradient x1="0.8483489751815796" y1="-0.10424499958753586" x2="-0.2299646781026966" y2="0.20941324165317787" id="master_svgt_235_84228"><stop offset="0%" stop-color="#35A1A8" stop-opacity="1"/><stop offset="100%" stop-color="#92F8FF" stop-opacity="1"/></linearGradient><linearGradient x1="0.8483489751815796" y1="-0.10424499958753586" x2="-0.25678162376973407" y2="0.30274988359870225" id="master_svgu_235_84228"><stop offset="0%" stop-color="#35A1A8" stop-opacity="1"/><stop offset="100%" stop-color="#92F8FF" stop-opacity="1"/></linearGradient><linearGradient x1="0.8483489751815796" y1="-0.10424499958753586" x2="-0.25678162376973407" y2="0.30274988359870225" id="master_svgv_235_84228"><stop offset="0%" stop-color="#35A1A8" stop-opacity="1"/><stop offset="100%" stop-color="#92F8FF" stop-opacity="1"/></linearGradient><linearGradient x1="0.8483489751815796" y1="-0.10424499958753586" x2="-0.25678158427202974" y2="0.3027496982708795" id="master_svgw_235_84228"><stop offset="0%" stop-color="#35A1A8" stop-opacity="1"/><stop offset="100%" stop-color="#92F8FF" stop-opacity="1"/></linearGradient><linearGradient x1="0.8483489751815796" y1="-0.10424499958753586" x2="-0.2619470777668826" y2="0.3295540103465867" id="master_svgx_235_84228"><stop offset="0%" stop-color="#35A1A8" stop-opacity="1"/><stop offset="100%" stop-color="#92F8FF" stop-opacity="1"/></linearGradient><linearGradient x1="0.8483489751815796" y1="-0.10424499958753586" x2="-0.25678158427202974" y2="0.3027496982708795" id="master_svgy_235_84228"><stop offset="0%" stop-color="#35A1A8" stop-opacity="1"/><stop offset="100%" stop-color="#92F8FF" stop-opacity="1"/></linearGradient><linearGradient x1="0.8483489751815796" y1="-0.10424499958753586" x2="-0.25678158427202974" y2="0.3027496982708795" id="master_svgz_235_84228"><stop offset="0%" stop-color="#35A1A8" stop-opacity="1"/><stop offset="100%" stop-color="#92F8FF" stop-opacity="1"/></linearGradient><linearGradient x1="0.8483489751815796" y1="-0.10424499958753586" x2="-0.25678158427202974" y2="0.3027496982708795" id="master_svg10_235_84228"><stop offset="0%" stop-color="#35A1A8" stop-opacity="1"/><stop offset="100%" stop-color="#92F8FF" stop-opacity="1"/></linearGradient><linearGradient x1="0.8483489751815796" y1="-0.10424499958753586" x2="-0.25678158427202974" y2="0.3027496982708795" id="master_svg11_235_84228"><stop offset="0%" stop-color="#35A1A8" stop-opacity="1"/><stop offset="100%" stop-color="#92F8FF" stop-opacity="1"/></linearGradient><linearGradient x1="0.8483489751815796" y1="-0.10424499958753586" x2="-0.25678158427202974" y2="0.3027496982708795" id="master_svg12_235_84228"><stop offset="0%" stop-color="#35A1A8" stop-opacity="1"/><stop offset="100%" stop-color="#92F8FF" stop-opacity="1"/></linearGradient><linearGradient x1="0.8483489751815796" y1="-0.10424499958753586" x2="-0.25678158427202974" y2="0.3027496982708795" id="master_svg13_235_84228"><stop offset="0%" stop-color="#35A1A8" stop-opacity="1"/><stop offset="100%" stop-color="#92F8FF" stop-opacity="1"/></linearGradient><linearGradient x1="0.8483489751815796" y1="-0.10424499958753586" x2="-0.25678158427202974" y2="0.3027496982708795" id="master_svg14_235_84228"><stop offset="0%" stop-color="#35A1A8" stop-opacity="1"/><stop offset="100%" stop-color="#92F8FF" stop-opacity="1"/></linearGradient><linearGradient x1="0.8483489751815796" y1="-0.10424499958753586" x2="-0.26065569763504903" y2="0.5734596171854088" id="master_svg15_235_84228"><stop offset="0%" stop-color="#35A1A8" stop-opacity="1"/><stop offset="100%" stop-color="#92F8FF" stop-opacity="1"/></linearGradient><mask id="master_svg16_357_77008" style="mask-type:alpha" maskUnits="objectBoundingBox"><g><g><path d="M9.89220567678833,17.791995478856563L14.340951676788329,15.374195478856564C14.24424167678833,15.374195478856564,14.14753167678833,15.470907678856564,14.14753167678833,15.567619478856564C13.85739167678833,15.857754478856563,13.66397167678833,16.147891478856565,13.56725167678833,16.534735478856565L9.11851167678833,18.952535478856564C9.21522387678833,18.565685478856565,9.50535867678833,18.275555478856564,9.69878267678833,17.985415478856563C9.69878167678833,17.888705478856565,9.79549367678833,17.888705478856565,9.89220567678833,17.791995478856563Z" fill="url(#master_svg15_235_84228)" fill-opacity="1"/></g></g></mask><linearGradient x1="0.8483489751815796" y1="-0.10424499958753586" x2="-0.26771846406526145" y2="0.37011250711740395" id="master_svg17_235_84228"><stop offset="0%" stop-color="#35A1A8" stop-opacity="1"/><stop offset="100%" stop-color="#92F8FF" stop-opacity="1"/></linearGradient><linearGradient x1="0.8483489751815796" y1="-0.10424499958753586" x2="-0.26974626908024657" y2="0.3909808029161017" id="master_svg18_235_84228"><stop offset="0%" stop-color="#35A1A8" stop-opacity="1"/><stop offset="100%" stop-color="#92F8FF" stop-opacity="1"/></linearGradient><linearGradient x1="0.8483489751815796" y1="-0.10424499958753586" x2="-0.268294316468658" y2="0.3754191942233671" id="master_svg19_235_84228"><stop offset="0%" stop-color="#35A1A8" stop-opacity="1"/><stop offset="100%" stop-color="#92F8FF" stop-opacity="1"/></linearGradient><linearGradient x1="0.8483489751815796" y1="-0.10424499958753586" x2="-0.268294316468658" y2="0.3754191942233671" id="master_svg1a_235_84228"><stop offset="0%" stop-color="#35A1A8" stop-opacity="1"/><stop offset="100%" stop-color="#92F8FF" stop-opacity="1"/></linearGradient><linearGradient x1="0.8483489751815796" y1="-0.10424499958753586" x2="-0.2634483767096393" y2="0.33861612920667883" id="master_svg1b_235_84228"><stop offset="0%" stop-color="#35A1A8" stop-opacity="1"/><stop offset="100%" stop-color="#92F8FF" stop-opacity="1"/></linearGradient><linearGradient x1="0.8483489751815796" y1="-0.10424499958753586" x2="-0.268294316468658" y2="0.3754191942233671" id="master_svg1c_235_84228"><stop offset="0%" stop-color="#35A1A8" stop-opacity="1"/><stop offset="100%" stop-color="#92F8FF" stop-opacity="1"/></linearGradient><mask id="master_svg1d_357_77018" style="mask-type:alpha" maskUnits="objectBoundingBox"><g><g><path d="M17.14577986236572,17.501483118688107L12.697032062365723,19.919279118688106Q12.697032062365723,19.822569118688108,12.600319862365723,19.725859118688106L17.049069862365723,17.308059118688107Q17.14577986236572,17.404771318688105,17.14577986236572,17.501483118688107Z" fill="url(#master_svg1c_235_84228)" fill-opacity="1"/></g></g></mask><linearGradient x1="0.8483489751815796" y1="-0.10424499958753586" x2="-0.268294316468658" y2="0.3754191942233671" id="master_svg1e_235_84228"><stop offset="0%" stop-color="#35A1A8" stop-opacity="1"/><stop offset="100%" stop-color="#92F8FF" stop-opacity="1"/></linearGradient><linearGradient x1="0.8483489751815796" y1="-0.10424499958753586" x2="-0.26062244414536545" y2="0.3221141788991998" id="master_svg1f_235_84228"><stop offset="0%" stop-color="#35A1A8" stop-opacity="1"/><stop offset="100%" stop-color="#92F8FF" stop-opacity="1"/></linearGradient><linearGradient x1="0.8483489751815796" y1="-0.10424499958753586" x2="-0.26062244414536545" y2="0.3221141788991998" id="master_svg1g_235_84228"><stop offset="0%" stop-color="#35A1A8" stop-opacity="1"/><stop offset="100%" stop-color="#92F8FF" stop-opacity="1"/></linearGradient><linearGradient x1="0.8483489751815796" y1="-0.10424499958753586" x2="-0.26062244414536545" y2="0.3221141788991998" id="master_svg1h_235_84228"><stop offset="0%" stop-color="#35A1A8" stop-opacity="1"/><stop offset="100%" stop-color="#92F8FF" stop-opacity="1"/></linearGradient><linearGradient x1="0.8483489751815796" y1="-0.10424499958753586" x2="-0.26062244414536545" y2="0.3221141788991998" id="master_svg1i_235_84228"><stop offset="0%" stop-color="#35A1A8" stop-opacity="1"/><stop offset="100%" stop-color="#92F8FF" stop-opacity="1"/></linearGradient><linearGradient x1="0.8483489751815796" y1="-0.10424499958753586" x2="-0.26062244414536545" y2="0.3221141788991998" id="master_svg1j_235_84228"><stop offset="0%" stop-color="#35A1A8" stop-opacity="1"/><stop offset="100%" stop-color="#92F8FF" stop-opacity="1"/></linearGradient><linearGradient x1="0.8483489751815796" y1="-0.10424499958753586" x2="-0.26062244414536545" y2="0.3221141788991998" id="master_svg1k_235_84228"><stop offset="0%" stop-color="#35A1A8" stop-opacity="1"/><stop offset="100%" stop-color="#92F8FF" stop-opacity="1"/></linearGradient><linearGradient x1="0.8483489751815796" y1="-0.10424499958753586" x2="-0.26062244414536545" y2="0.3221141788991998" id="master_svg1l_235_84228"><stop offset="0%" stop-color="#35A1A8" stop-opacity="1"/><stop offset="100%" stop-color="#92F8FF" stop-opacity="1"/></linearGradient><linearGradient x1="0.8483489751815796" y1="-0.10424499958753586" x2="-0.26062244414536545" y2="0.3221141788991998" id="master_svg1m_235_84228"><stop offset="0%" stop-color="#35A1A8" stop-opacity="1"/><stop offset="100%" stop-color="#92F8FF" stop-opacity="1"/></linearGradient><linearGradient x1="0.8483489751815796" y1="-0.10424499958753586" x2="-0.26062244414536545" y2="0.3221141788991998" id="master_svg1n_235_84228"><stop offset="0%" stop-color="#35A1A8" stop-opacity="1"/><stop offset="100%" stop-color="#92F8FF" stop-opacity="1"/></linearGradient><linearGradient x1="0.8483489751815796" y1="-0.10424499958753586" x2="-0.26062244414536545" y2="0.3221141788991998" id="master_svg1o_235_84228"><stop offset="0%" stop-color="#35A1A8" stop-opacity="1"/><stop offset="100%" stop-color="#92F8FF" stop-opacity="1"/></linearGradient><linearGradient x1="0.8483489751815796" y1="-0.10424499958753586" x2="-0.26062244414536545" y2="0.3221141788991998" id="master_svg1p_235_84228"><stop offset="0%" stop-color="#35A1A8" stop-opacity="1"/><stop offset="100%" stop-color="#92F8FF" stop-opacity="1"/></linearGradient><linearGradient x1="0.8483489751815796" y1="-0.10424499958753586" x2="-0.26062244414536545" y2="0.3221141788991998" id="master_svg1q_235_84228"><stop offset="0%" stop-color="#35A1A8" stop-opacity="1"/><stop offset="100%" stop-color="#92F8FF" stop-opacity="1"/></linearGradient><linearGradient x1="0.8483489751815796" y1="-0.10424499958753586" x2="-0.26062244414536545" y2="0.3221141788991998" id="master_svg1r_235_84228"><stop offset="0%" stop-color="#35A1A8" stop-opacity="1"/><stop offset="100%" stop-color="#92F8FF" stop-opacity="1"/></linearGradient><linearGradient x1="0.8483489751815796" y1="-0.10424499958753586" x2="-0.26062244414536545" y2="0.3221141788991998" id="master_svg1s_235_84228"><stop offset="0%" stop-color="#35A1A8" stop-opacity="1"/><stop offset="100%" stop-color="#92F8FF" stop-opacity="1"/></linearGradient><linearGradient x1="0.8483489751815796" y1="-0.10424499958753586" x2="-0.26062244414536545" y2="0.3221141788991998" id="master_svg1t_235_84228"><stop offset="0%" stop-color="#35A1A8" stop-opacity="1"/><stop offset="100%" stop-color="#92F8FF" stop-opacity="1"/></linearGradient><linearGradient x1="0.8483489751815796" y1="-0.10424499958753586" x2="-0.26062244414536545" y2="0.3221141788991998" id="master_svg1u_235_84228"><stop offset="0%" stop-color="#35A1A8" stop-opacity="1"/><stop offset="100%" stop-color="#92F8FF" stop-opacity="1"/></linearGradient><linearGradient x1="0.8483489751815796" y1="-0.10424499958753586" x2="-0.26062244414536545" y2="0.3221141788991998" id="master_svg1v_235_84228"><stop offset="0%" stop-color="#35A1A8" stop-opacity="1"/><stop offset="100%" stop-color="#92F8FF" stop-opacity="1"/></linearGradient><linearGradient x1="0.8483489751815796" y1="-0.10424499958753586" x2="0.2911954353766483" y2="1.1313098833822541" id="master_svg1w_235_84228"><stop offset="0%" stop-color="#35A1A8" stop-opacity="1"/><stop offset="100%" stop-color="#92F8FF" stop-opacity="1"/></linearGradient><linearGradient x1="0.8483489751815796" y1="-0.10424499958753586" x2="-0.2529914486198854" y2="0.28598387606572384" id="master_svg1x_235_84228"><stop offset="0%" stop-color="#35A1A8" stop-opacity="1"/><stop offset="100%" stop-color="#92F8FF" stop-opacity="1"/></linearGradient><linearGradient x1="0.8483489751815796" y1="-0.10424499958753586" x2="-0.2720074119868631" y2="0.45757355104557285" id="master_svg1y_235_84228"><stop offset="0%" stop-color="#35A1A8" stop-opacity="1"/><stop offset="100%" stop-color="#92F8FF" stop-opacity="1"/></linearGradient><linearGradient x1="0.8483489751815796" y1="-0.10424499958753586" x2="-0.11777473869830342" y2="0.010779928917987847" id="master_svg1z_235_84228"><stop offset="0%" stop-color="#35A1A8" stop-opacity="1"/><stop offset="100%" stop-color="#92F8FF" stop-opacity="1"/></linearGradient><linearGradient x1="0.8483489751815796" y1="-0.10424499958753586" x2="-0.2507443411398582" y2="0.2768575442762925" id="master_svg20_235_84228"><stop offset="0%" stop-color="#35A1A8" stop-opacity="1"/><stop offset="100%" stop-color="#92F8FF" stop-opacity="1"/></linearGradient><linearGradient x1="0.8483489751815796" y1="-0.10424499958753586" x2="-0.22305735086277648" y2="0.19125677229547866" id="master_svg21_235_84228"><stop offset="0%" stop-color="#35A1A8" stop-opacity="1"/><stop offset="100%" stop-color="#92F8FF" stop-opacity="1"/></linearGradient><linearGradient x1="0.8483489751815796" y1="-0.10424499958753586" x2="-0.23525982073608037" y2="0.22447283664056117" id="master_svg22_235_84228"><stop offset="0%" stop-color="#35A1A8" stop-opacity="1"/><stop offset="100%" stop-color="#92F8FF" stop-opacity="1"/></linearGradient><linearGradient x1="0.8483489751815796" y1="-0.10424499958753586" x2="-0.22064984405441637" y2="0.1852659391131577" id="master_svg23_235_84228"><stop offset="0%" stop-color="#35A1A8" stop-opacity="1"/><stop offset="100%" stop-color="#92F8FF" stop-opacity="1"/></linearGradient><linearGradient x1="0.8483489751815796" y1="-0.10424499958753586" x2="-0.22530689337982832" y2="0.19700465098988662" id="master_svg24_235_84228"><stop offset="0%" stop-color="#35A1A8" stop-opacity="1"/><stop offset="100%" stop-color="#92F8FF" stop-opacity="1"/></linearGradient><linearGradient x1="0.8483489751815796" y1="-0.10424499958753586" x2="-0.21490476330270478" y2="0.17157881801820907" id="master_svg25_235_84228"><stop offset="0%" stop-color="#35A1A8" stop-opacity="1"/><stop offset="100%" stop-color="#92F8FF" stop-opacity="1"/></linearGradient><linearGradient x1="0.8483489751815796" y1="-0.10424499958753586" x2="-0.2299648452443275" y2="0.20941370014539262" id="master_svg26_235_84228"><stop offset="0%" stop-color="#35A1A8" stop-opacity="1"/><stop offset="100%" stop-color="#92F8FF" stop-opacity="1"/></linearGradient><linearGradient x1="0.8483489751815796" y1="-0.10424499958753586" x2="-0.23918792078369844" y2="0.23642167537034098" id="master_svg27_235_84228"><stop offset="0%" stop-color="#35A1A8" stop-opacity="1"/><stop offset="100%" stop-color="#92F8FF" stop-opacity="1"/></linearGradient><linearGradient x1="0.8483489751815796" y1="-0.10424499958753586" x2="0.5407952702438529" y2="1.134290527293288" id="master_svg28_235_84228"><stop offset="0%" stop-color="#35A1A8" stop-opacity="1"/><stop offset="100%" stop-color="#92F8FF" stop-opacity="1"/></linearGradient><linearGradient x1="0.8483489751815796" y1="-0.10424499958753586" x2="-0.2526360618496599" y2="0.28450451936929866" id="master_svg29_235_84228"><stop offset="0%" stop-color="#35A1A8" stop-opacity="1"/><stop offset="100%" stop-color="#92F8FF" stop-opacity="1"/></linearGradient><linearGradient x1="0.8483489751815796" y1="-0.10424499958753586" x2="-0.23494274794812767" y2="0.22353909396030291" id="master_svg2a_235_84228"><stop offset="0%" stop-color="#35A1A8" stop-opacity="1"/><stop offset="100%" stop-color="#92F8FF" stop-opacity="1"/></linearGradient><linearGradient x1="0.8483489751815796" y1="-0.10424499958753586" x2="-0.23935656124627425" y2="0.23695145171858278" id="master_svg2b_235_84228"><stop offset="0%" stop-color="#35A1A8" stop-opacity="1"/><stop offset="100%" stop-color="#92F8FF" stop-opacity="1"/></linearGradient><linearGradient x1="0.8483489751815796" y1="-0.10424499958753586" x2="-0.24777312997881673" y2="0.26553263478919276" id="master_svg2c_235_84228"><stop offset="0%" stop-color="#35A1A8" stop-opacity="1"/><stop offset="100%" stop-color="#92F8FF" stop-opacity="1"/></linearGradient><linearGradient x1="0.8483489751815796" y1="-0.10424499958753586" x2="-0.24777312997881673" y2="0.26553263478919276" id="master_svg2d_235_84228"><stop offset="0%" stop-color="#35A1A8" stop-opacity="1"/><stop offset="100%" stop-color="#92F8FF" stop-opacity="1"/></linearGradient><linearGradient x1="0.8483489751815796" y1="-0.10424499958753586" x2="-0.25509902439736626" y2="0.29506798933500156" id="master_svg2e_235_84228"><stop offset="0%" stop-color="#35A1A8" stop-opacity="1"/><stop offset="100%" stop-color="#92F8FF" stop-opacity="1"/></linearGradient><linearGradient x1="0.8483489751815796" y1="-0.10424499958753586" x2="-0.25509902439736626" y2="0.29506798933500156" id="master_svg2f_235_84228"><stop offset="0%" stop-color="#35A1A8" stop-opacity="1"/><stop offset="100%" stop-color="#92F8FF" stop-opacity="1"/></linearGradient><linearGradient x1="0.8483489751815796" y1="-0.10424499958753586" x2="-0.26122758454703826" y2="0.32545507492965164" id="master_svg2g_235_84228"><stop offset="0%" stop-color="#35A1A8" stop-opacity="1"/><stop offset="100%" stop-color="#92F8FF" stop-opacity="1"/></linearGradient><linearGradient x1="0.8483489751815796" y1="-0.10424499958753586" x2="-0.26722284933193236" y2="0.3658228038287783" id="master_svg2h_235_84228"><stop offset="0%" stop-color="#35A1A8" stop-opacity="1"/><stop offset="100%" stop-color="#92F8FF" stop-opacity="1"/></linearGradient><linearGradient x1="0.8483489751815796" y1="-0.10424499958753586" x2="-0.2690705888439592" y2="0.38326701575976363" id="master_svg2i_235_84228"><stop offset="0%" stop-color="#35A1A8" stop-opacity="1"/><stop offset="100%" stop-color="#92F8FF" stop-opacity="1"/></linearGradient><linearGradient x1="0.8483489751815796" y1="-0.10424499958753586" x2="-0.2709585551156158" y2="0.4084655269092381" id="master_svg2j_235_84228"><stop offset="0%" stop-color="#35A1A8" stop-opacity="1"/><stop offset="100%" stop-color="#92F8FF" stop-opacity="1"/></linearGradient><linearGradient x1="0.8483489751815796" y1="-0.10424499958753586" x2="-0.2691335563533749" y2="0.5118087672337561" id="master_svg2k_235_84228"><stop offset="0%" stop-color="#35A1A8" stop-opacity="1"/><stop offset="100%" stop-color="#92F8FF" stop-opacity="1"/></linearGradient><linearGradient x1="0.8483489751815796" y1="-0.10424499958753586" x2="-0.025387470674014992" y2="0.9795327422405247" id="master_svg2l_235_84228"><stop offset="0%" stop-color="#35A1A8" stop-opacity="1"/><stop offset="100%" stop-color="#92F8FF" stop-opacity="1"/></linearGradient><linearGradient x1="0.8483489751815796" y1="-0.10424499958753586" x2="-0.14874400319616443" y2="0.8435132589741006" id="master_svg2m_235_84228"><stop offset="0%" stop-color="#35A1A8" stop-opacity="1"/><stop offset="100%" stop-color="#92F8FF" stop-opacity="1"/></linearGradient><linearGradient x1="0.8483489751815796" y1="-0.10424499958753586" x2="-0.19240838759804652" y2="0.7712794308209028" id="master_svg2n_235_84228"><stop offset="0%" stop-color="#35A1A8" stop-opacity="1"/><stop offset="100%" stop-color="#92F8FF" stop-opacity="1"/></linearGradient><linearGradient x1="0.8483489751815796" y1="-0.10424499958753586" x2="-0.2136314119672845" y2="0.7271030097685641" id="master_svg2o_235_84228"><stop offset="0%" stop-color="#35A1A8" stop-opacity="1"/><stop offset="100%" stop-color="#92F8FF" stop-opacity="1"/></linearGradient><linearGradient x1="0.8483489751815796" y1="-0.10424499958753586" x2="-0.23027336134674053" y2="0.68549329034331" id="master_svg2p_235_84228"><stop offset="0%" stop-color="#35A1A8" stop-opacity="1"/><stop offset="100%" stop-color="#92F8FF" stop-opacity="1"/></linearGradient><linearGradient x1="0.8483489751815796" y1="-0.10424499958753586" x2="-0.22014576112539633" y2="0.7117234169753577" id="master_svg2q_235_84228"><stop offset="0%" stop-color="#35A1A8" stop-opacity="1"/><stop offset="100%" stop-color="#92F8FF" stop-opacity="1"/></linearGradient><linearGradient x1="0.8483489751815796" y1="-0.10424499958753586" x2="-0.23343059332751823" y2="0.6766105504019875" id="master_svg2r_235_84228"><stop offset="0%" stop-color="#35A1A8" stop-opacity="1"/><stop offset="100%" stop-color="#92F8FF" stop-opacity="1"/></linearGradient><linearGradient x1="0.8483489751815796" y1="-0.10424499958753586" x2="-0.22347960589859456" y2="0.7034306764492053" id="master_svg2s_235_84228"><stop offset="0%" stop-color="#35A1A8" stop-opacity="1"/><stop offset="100%" stop-color="#92F8FF" stop-opacity="1"/></linearGradient><linearGradient x1="0.8483489751815796" y1="-0.10424499958753586" x2="-0.2085815056981052" y2="0.7383651998742424" id="master_svg2t_235_84228"><stop offset="0%" stop-color="#35A1A8" stop-opacity="1"/><stop offset="100%" stop-color="#92F8FF" stop-opacity="1"/></linearGradient><linearGradient x1="0.8483489751815796" y1="-0.10424499958753586" x2="-0.23343059332751823" y2="0.6766105504019875" id="master_svg2u_235_84228"><stop offset="0%" stop-color="#35A1A8" stop-opacity="1"/><stop offset="100%" stop-color="#92F8FF" stop-opacity="1"/></linearGradient><linearGradient x1="0.8483489751815796" y1="-0.10424499958753586" x2="-0.23343059332751823" y2="0.6766105504019875" id="master_svg2v_235_84228"><stop offset="0%" stop-color="#35A1A8" stop-opacity="1"/><stop offset="100%" stop-color="#92F8FF" stop-opacity="1"/></linearGradient><linearGradient x1="0.8483489751815796" y1="-0.10424499958753586" x2="-0.2518924820329538" y2="0.6143007656627075" id="master_svg2w_235_84228"><stop offset="0%" stop-color="#35A1A8" stop-opacity="1"/><stop offset="100%" stop-color="#92F8FF" stop-opacity="1"/></linearGradient><linearGradient x1="0.8483489751815796" y1="-0.10424499958753586" x2="-0.2518924820329538" y2="0.6143007656627075" id="master_svg2x_235_84228"><stop offset="0%" stop-color="#35A1A8" stop-opacity="1"/><stop offset="100%" stop-color="#92F8FF" stop-opacity="1"/></linearGradient><linearGradient x1="0.8483489751815796" y1="-0.10424499958753586" x2="-0.2576481413011879" y2="0.5888780442912136" id="master_svg2y_235_84228"><stop offset="0%" stop-color="#35A1A8" stop-opacity="1"/><stop offset="100%" stop-color="#92F8FF" stop-opacity="1"/></linearGradient><linearGradient x1="0.8483489751815796" y1="-0.10424499958753586" x2="-0.24925368906631604" y2="0.6246760906579498" id="master_svg2z_235_84228"><stop offset="0%" stop-color="#35A1A8" stop-opacity="1"/><stop offset="100%" stop-color="#92F8FF" stop-opacity="1"/></linearGradient><linearGradient x1="0.8483489751815796" y1="-0.10424499958753586" x2="-0.2553241037676616" y2="0.5996830173764214" id="master_svg30_235_84228"><stop offset="0%" stop-color="#35A1A8" stop-opacity="1"/><stop offset="100%" stop-color="#92F8FF" stop-opacity="1"/></linearGradient><linearGradient x1="0.8483489751815796" y1="-0.10424499958753586" x2="-0.25293383487429677" y2="0.6100119208267305" id="master_svg31_235_84228"><stop offset="0%" stop-color="#35A1A8" stop-opacity="1"/><stop offset="100%" stop-color="#92F8FF" stop-opacity="1"/></linearGradient><linearGradient x1="0.8483489751815796" y1="-0.10424499958753586" x2="-0.2560583022637269" y2="0.5963584831911561" id="master_svg32_235_84228"><stop offset="0%" stop-color="#35A1A8" stop-opacity="1"/><stop offset="100%" stop-color="#92F8FF" stop-opacity="1"/></linearGradient><linearGradient x1="0.8483489751815796" y1="-0.10424499958753586" x2="-0.2567002397252289" y2="0.5933864566445406" id="master_svg33_235_84228"><stop offset="0%" stop-color="#35A1A8" stop-opacity="1"/><stop offset="100%" stop-color="#92F8FF" stop-opacity="1"/></linearGradient><linearGradient x1="0.8483489751815796" y1="-0.10424499958753586" x2="-0.2607867433659176" y2="0.5727428788654124" id="master_svg34_235_84228"><stop offset="0%" stop-color="#35A1A8" stop-opacity="1"/><stop offset="100%" stop-color="#92F8FF" stop-opacity="1"/></linearGradient><linearGradient x1="0.5" y1="1" x2="0.5" y2="0" id="master_svg35_246_44379"><stop offset="0%" stop-color="#EFFEFF" stop-opacity="1"/><stop offset="100%" stop-color="#63F6FF" stop-opacity="1"/></linearGradient></defs><g clip-path="url(#master_svg0_357_76861)"><g><g><g mask="url(#master_svg2_357_76867)"><g><g><path d="M5.73355640625,25.81860203860998L10.18229640625,23.40080203860998C9.50531640625,24.754772038609982,8.92504640625,26.108732038609983,8.24805640625,27.462702038609983L3.79931640625,29.880502038609983C4.47629940625,28.526532038609982,5.05656640625,27.172562038609982,5.73355640625,25.81860203860998Z" fill="url(#master_svg3_235_84228)" fill-opacity="1"/></g></g></g></g><g><g><path d="M6.894195333518982,23.49781625797033L11.342945333518982,21.176736257970333L10.182395333518983,23.401106257970334L5.733655333518982,25.818906257970333L6.894195333518982,23.49781625797033Z" fill="url(#master_svg4_235_84228)" fill-opacity="1"/></g></g><g><g><path d="M10.859225749969482,24.755331469762325L15.404685749969483,22.337531469762325L16.75864574996948,25.045461469762326L12.309905749969483,27.463261469762326L10.859225749969482,24.755331469762325Z" fill="url(#master_svg5_235_84228)" fill-opacity="1"/></g></g><g><g mask="url(#master_svg7_357_76885)"><g><g><path d="M12.30974292755127,27.462740374791622L16.75849292755127,25.044940374791622C17.33876292755127,26.205480374791623,17.91903292755127,27.269310374791623,18.59601292755127,28.429850374791624L14.14726292755127,30.847650374791623C13.470282927551269,29.687110374791622,12.89001392755127,28.623280374791623,12.30974292755127,27.462740374791622Z" fill="url(#master_svg8_235_84228)" fill-opacity="1"/></g></g></g></g><g><g><path d="M14.147506713867188,30.8480686676383L18.596256713867188,28.430268667638302L19.369946713867186,29.590808667638303L14.921201713867188,32.0086086676383L14.147506713867188,30.8480686676383Z" fill="url(#master_svg9_235_84228)" fill-opacity="1"/></g></g><g><g mask="url(#master_svgb_357_76897)"><g><path d="M14.921051979064941,32.008390856969356L19.369791979064942,29.590590856969357C19.56322197906494,29.977437856969356,19.95007197906494,30.170861856969356,20.336911979064944,30.267574856969357L15.88816997906494,32.68537085696936C15.501322979064941,32.588660856969355,15.114475979064942,32.298520856969354,14.921051979064941,32.008390856969356Z" fill="url(#master_svgc_235_84228)" fill-opacity="1"/></g><g><g><path d="M14.921051979064941,32.008390856969356L19.369791979064942,29.590590856969357C19.46651197906494,29.687303056969355,19.46651197906494,29.784014856969357,19.56322197906494,29.784014856969357L15.114475979064942,32.20181085696936Q15.017763279064942,32.10510085696936,14.921051979064941,32.008390856969356Z" fill="url(#master_svgd_235_84228)" fill-opacity="1"/></g><g><path d="M15.114675179123878,32.202014071929455L19.56342517912388,29.784214071929455L19.660135179123877,29.880926271929454L15.21138737912388,32.298724071929456L15.114675179123878,32.202014071929455Z" fill="url(#master_svge_235_84228)" fill-opacity="1"/></g><g><path d="M15.211250096559525,32.29858897446394L19.660000096559525,29.88078897446394L19.756710096559523,29.97750117446394L15.307962296559525,32.39529897446394L15.211250096559525,32.29858897446394Z" fill="url(#master_svgf_235_84228)" fill-opacity="1"/></g><g><path d="M15.307824969291687,32.39563728688955L19.756564969291688,29.977837286889553Q19.853284969291686,29.977837286889553,19.853284969291686,30.074549486889552L15.307824969291687,32.39563728688955Q15.404537169291688,32.39563728688955,15.307824969291687,32.39563728688955Z" fill="url(#master_svgg_235_84228)" fill-opacity="1"/></g><g><path d="M15.4048732817173,32.49221218942404L19.8536132817173,30.074412189424038Q19.9503332817173,30.074412189424038,19.9503332817173,30.171124389424037L15.4048732817173,32.49221218942404Z" fill="url(#master_svgh_235_84228)" fill-opacity="1"/></g><g><path d="M15.501448214054108,32.49221218942404L19.950198214054108,30.074412189424038L20.046908214054106,30.074412189424038L15.501448214054108,32.49221218942404Z" fill="url(#master_svgi_235_84228)" fill-opacity="1"/></g><g><path d="M15.501448214054108,32.58926053165197L19.950198214054108,30.171460531651974Q19.950198214054108,30.171460531651974,20.046908214054106,30.171460531651974L15.501448214054108,32.58926053165197C15.598160414054108,32.58926053165197,15.598160414054108,32.58926053165197,15.501448214054108,32.58926053165197Z" fill="url(#master_svgj_235_84228)" fill-opacity="1"/></g><g><path d="M15.598496496677399,32.58926053165197L20.0472464966774,30.171460531651974Q20.0472464966774,30.171460531651974,20.143956496677397,30.171460531651974L15.598496496677399,32.58926053165197Q15.6952086966774,32.58926053165197,15.598496496677399,32.58926053165197Z" fill="url(#master_svgk_235_84228)" fill-opacity="1"/></g><g><path d="M15.694597959518433,32.58926053165197L20.143347959518433,30.171460531651974Q20.143347959518433,30.171460531651974,20.24005795951843,30.171460531651974L15.694597959518433,32.58926053165197Z" fill="url(#master_svgl_235_84228)" fill-opacity="1"/></g><g><path d="M15.791646301746368,32.58926053165197L20.24038630174637,30.171460531651974Q20.24038630174637,30.171460531651974,20.337106301746367,30.171460531651974L15.791646301746368,32.58926053165197C15.791646301746368,32.685970531651975,15.791646301746368,32.685970531651975,15.791646301746368,32.58926053165197Z" fill="url(#master_svgm_235_84228)" fill-opacity="1"/></g><g><path d="M15.791646301746368,32.68583543418646L20.24038630174637,30.26803543418646L15.791646301746368,32.68583543418646C15.888358501746369,32.68583543418646,15.888358501746369,32.68583543418646,15.791646301746368,32.68583543418646Z" fill="url(#master_svgn_235_84228)" fill-opacity="1"/></g></g></g></g><g><g mask="url(#master_svgp_357_76933)"><g><g><path d="M9.021673676605225,18.952787829625606L13.470423676605225,16.534987829625607C13.470423676605225,16.631700029625605,13.276993676605224,16.921834829625606,13.083573676605225,17.308681829625606C12.890153676605225,17.695527829625608,12.600013676605226,18.275797829625606,12.309883676605224,18.952787829625606C12.019743676605223,19.629767829625607,11.632893676605224,20.306747829625607,11.246053676605225,21.080447829625605L6.797303676605225,23.49823782962561C7.184150676605225,22.724547829625607,7.4742866766052245,21.95084782962561,7.861133676605225,21.370577829625606C8.151273676605225,20.693597829625606,8.441403676605225,20.210037829625605,8.634833676605226,19.72647782962561C8.924963676605225,19.339627829625606,9.021673676605225,19.049497829625608,9.021673676605225,18.952787829625606Z" fill="url(#master_svgq_235_84228)" fill-opacity="1"/></g></g></g></g><g><g mask="url(#master_svgs_357_76939)"><g><path d="M21.30432405986786,30.267655931413174L16.85558105986786,32.68545593141317C16.66215705986786,32.782165931413175,16.46873405986786,32.782165931413175,16.27531005986786,32.782165931413175C16.17859805986786,32.782165931413175,16.081886259867858,32.782165931413175,15.985174059867859,32.68545593141317L20.43391405986786,30.267655931413174C20.530634059867857,30.267655931413174,20.62734405986786,30.364368131413173,20.72405405986786,30.364368131413173C20.91748405986786,30.364368131413173,21.11090405986786,30.364368131413173,21.30432405986786,30.267655931413174Z" fill="url(#master_svgt_235_84228)" fill-opacity="1"/></g><g><g><path d="M15.88822191953659,32.68545593141317L20.33697191953659,30.267655931413174Q20.33697191953659,30.267655931413174,20.43368191953659,30.267655931413174L15.88822191953659,32.68545593141317Z" fill="url(#master_svgu_235_84228)" fill-opacity="1"/></g><g><path d="M15.88822191953659,32.68545593141317L20.33696191953659,30.267655931413174L20.43368191953659,30.267655931413174L16.08164591953659,32.68545593141317C15.984933219536591,32.68545593141317,15.984933219536591,32.68545593141317,15.88822191953659,32.68545593141317Z" fill="url(#master_svgv_235_84228)" fill-opacity="1"/></g><g><path d="M16.082318529486656,32.68545593141317L20.531068529486657,30.267655931413174L20.627778529486655,30.267655931413174L16.179030729486655,32.68545593141317Q16.082318529486656,32.68545593141317,16.082318529486656,32.68545593141317Z" fill="url(#master_svgw_235_84228)" fill-opacity="1"/></g><g><path d="M16.178420037031174,32.68545593141317L20.627170037031174,30.267655931413174L20.723880037031172,30.267655931413174L16.178420037031174,32.68545593141317C16.275132237031173,32.782165931413175,16.178420037031174,32.782165931413175,16.178420037031174,32.68545593141317Z" fill="url(#master_svgx_235_84228)" fill-opacity="1"/></g><g><path d="M16.275468319654465,32.78250424383879L20.724218319654465,30.364704243838787L20.820928319654463,30.364704243838787L16.275468319654465,32.78250424383879Z" fill="url(#master_svgy_235_84228)" fill-opacity="1"/></g><g><path d="M16.37204322218895,32.78250424383879L20.82079322218895,30.364704243838787L20.917503222188948,30.364704243838787L16.37204322218895,32.78250424383879Z" fill="url(#master_svgz_235_84228)" fill-opacity="1"/></g><g><path d="M16.37204322218895,32.78250424383879L20.82079322218895,30.364704243838787L20.917503222188948,30.364704243838787L16.37204322218895,32.78250424383879C16.46875542218895,32.78250424383879,16.46875542218895,32.78250424383879,16.37204322218895,32.78250424383879Z" fill="url(#master_svg10_235_84228)" fill-opacity="1"/></g><g><path d="M16.468618154525757,32.78250424383879L20.917368154525757,30.364704243838787Q20.917368154525757,30.364704243838787,21.014078154525755,30.364704243838787L16.468618154525757,32.78250424383879Q16.565330354525756,32.78250424383879,16.468618154525757,32.78250424383879Z" fill="url(#master_svg11_235_84228)" fill-opacity="1"/></g><g><path d="M16.56519305706024,32.78250424383879L21.013943057060242,30.364704243838787L21.11065305706024,30.364704243838787L16.56519305706024,32.78250424383879C16.56519305706024,32.68578424383879,16.56519305706024,32.68578424383879,16.56519305706024,32.78250424383879Z" fill="url(#master_svg12_235_84228)" fill-opacity="1"/></g><g><path d="M16.661767899990082,32.68545593141317L21.110517899990082,30.267655931413174L21.20722789999008,30.267655931413174L16.661767899990082,32.68545593141317Z" fill="url(#master_svg13_235_84228)" fill-opacity="1"/></g><g><path d="M16.758342802524567,32.68545593141317L21.207092802524567,30.267655931413174L21.303802802524565,30.267655931413174L16.758342802524567,32.68545593141317Z" fill="url(#master_svg14_235_84228)" fill-opacity="1"/></g></g></g></g><g><g mask="url(#master_svg16_357_77008)"><g><g><path d="M9.89208706850767,17.791995478856563L14.340832068507671,15.374195478856564C14.244122068507671,15.374195478856564,14.147412068507672,15.470907678856564,14.147412068507672,15.567619478856564L14.050692068507672,15.664332478856563L9.601952068507671,18.082125478856565L9.698664268507672,17.985415478856563C9.69866246850767,17.888705478856565,9.79537506850767,17.888705478856565,9.89208706850767,17.791995478856563Z" fill="url(#master_svg17_235_84228)" fill-opacity="1"/></g><g><path d="M9.505177951013088,18.082193596351146L13.953923951013088,15.664393596351147C13.857213951013089,15.761105796351147,13.857213951013089,15.857817596351147,13.760493951013089,15.954528596351146L9.311753951013088,18.372323596351148C9.408466151013089,18.275613596351146,9.505177951013088,18.178903596351148,9.505177951013088,18.082193596351146Z" fill="url(#master_svg18_235_84228)" fill-opacity="1"/></g><g><path d="M9.311891233577443,18.371918333756923L13.760639033577442,15.954118333756924Q13.760639033577442,16.050830533756923,13.663929033577443,16.147542333756924L9.215179033577442,18.565338333756923Q9.311891233577443,18.468628333756925,9.311891233577443,18.371918333756923Z" fill="url(#master_svg19_235_84228)" fill-opacity="1"/></g><g><path d="M9.215316338493539,18.662116421449184L13.664064138493538,16.244316421449184C13.664064138493538,16.341028621449183,13.567354138493538,16.341028621449183,13.567354138493538,16.437740421449185L9.118604138493538,18.855536421449184Q9.118605060809537,18.758826421449186,9.215316338493539,18.662116421449184Z" fill="url(#master_svg1a_235_84228)" fill-opacity="1"/></g><g><path d="M9.118268933518506,18.855739666211605L13.567015833518505,16.437939666211605Q13.567015833518505,16.534651866211604,13.470305833518506,16.534651866211604L9.021555833518505,18.952449666211606Q9.118268933518506,18.952449666211606,9.118268933518506,18.855739666211605Z" fill="url(#master_svg1b_235_84228)" fill-opacity="1"/></g></g></g></g><g><g mask="url(#master_svg1d_357_77018)"><g><g><path d="M12.600319862365723,19.725859118688106L17.049069862365723,17.308059118688107C17.049069862365723,17.404771318688105,17.14577986236572,17.404771318688105,17.14577986236572,17.501483118688107L12.697032062365723,19.919279118688106Q12.697032062365723,19.822569118688108,12.600319862365723,19.725859118688106Z" fill="url(#master_svg1e_235_84228)" fill-opacity="1"/></g><g><path d="M12.696894764900208,19.82290743111372L17.145644764900208,17.40510743111372L12.696894764900208,19.82290743111372Z" fill="url(#master_svg1f_235_84228)" fill-opacity="1"/></g><g><path d="M12.696894764900208,19.919482333648205L17.145644764900208,17.501682333648205L12.696894764900208,19.919482333648205Z" fill="url(#master_svg1g_235_84228)" fill-opacity="1"/></g><g><path d="M12.696894764900208,19.919482333648205L17.145644764900208,17.501682333648205L12.696894764900208,19.919482333648205Z" fill="url(#master_svg1h_235_84228)" fill-opacity="1"/></g><g><path d="M12.696894764900208,19.919482333648205L17.145644764900208,17.501682333648205L12.696894764900208,19.919482333648205Z" fill="url(#master_svg1i_235_84228)" fill-opacity="1"/></g><g><path d="M12.696894764900208,19.919482333648205L17.145644764900208,17.501682333648205L12.696894764900208,19.919482333648205Z" fill="url(#master_svg1j_235_84228)" fill-opacity="1"/></g><g><path d="M12.696894764900208,19.919482333648205L17.145644764900208,17.501682333648205L12.696894764900208,19.919482333648205Z" fill="url(#master_svg1k_235_84228)" fill-opacity="1"/></g><g><path d="M12.696894764900208,19.919482333648205L17.145644764900208,17.501682333648205L12.696894764900208,19.919482333648205Z" fill="url(#master_svg1l_235_84228)" fill-opacity="1"/></g><g><path d="M12.696894764900208,19.919482333648205L17.145644764900208,17.501682333648205L12.696894764900208,19.919482333648205Z" fill="url(#master_svg1m_235_84228)" fill-opacity="1"/></g><g><path d="M12.696894764900208,19.919482333648205L17.145644764900208,17.501682333648205L12.696894764900208,19.919482333648205Z" fill="url(#master_svg1n_235_84228)" fill-opacity="1"/></g><g><path d="M12.696894764900208,19.919482333648205L17.145644764900208,17.501682333648205L12.696894764900208,19.919482333648205Z" fill="url(#master_svg1o_235_84228)" fill-opacity="1"/></g><g><path d="M12.696894764900208,19.919482333648205L17.145644764900208,17.501682333648205L12.696894764900208,19.919482333648205Z" fill="url(#master_svg1p_235_84228)" fill-opacity="1"/></g><g><path d="M12.696894764900208,19.919482333648205L17.145644764900208,17.501682333648205L12.696894764900208,19.919482333648205Z" fill="url(#master_svg1q_235_84228)" fill-opacity="1"/></g><g><path d="M12.696894764900208,19.919482333648205L17.145644764900208,17.501682333648205L12.696894764900208,19.919482333648205Z" fill="url(#master_svg1r_235_84228)" fill-opacity="1"/></g><g><path d="M12.696894764900208,19.919482333648205L17.145644764900208,17.501682333648205L12.696894764900208,19.919482333648205Z" fill="url(#master_svg1s_235_84228)" fill-opacity="1"/></g><g><path d="M12.696894764900208,19.919482333648205L17.145644764900208,17.501682333648205L12.696894764900208,19.919482333648205Z" fill="url(#master_svg1t_235_84228)" fill-opacity="1"/></g><g><path d="M12.696894764900208,19.919482333648205L17.145644764900208,17.501682333648205L12.696894764900208,19.919482333648205Z" fill="url(#master_svg1u_235_84228)" fill-opacity="1"/></g><g><path d="M12.696894764900208,19.919482333648205L17.145644764900208,17.501682333648205L12.696894764900208,19.919482333648205Z" fill="url(#master_svg1v_235_84228)" fill-opacity="1"/></g></g></g></g><g><g><path d="M20.530391740722656,16.53510232089758L25.07584174072266,14.11730232089758L20.433681740722655,23.691772320897577L15.888221740722656,26.10960232089758L20.530391740722656,16.53510232089758Z" fill="url(#master_svg1w_235_84228)" fill-opacity="1"/></g></g><g><g><path d="M16.17841911315918,14.213466816442013L20.723879113159178,11.892386816442013L25.075909113159177,14.116756816442013L20.53044911315918,16.534556816442013L16.17841911315918,14.213466816442013Z" fill="url(#master_svg1x_235_84228)" fill-opacity="1"/></g></g><g><g><path d="M23.819198608398438,18.759163333165645L28.364658608398436,16.341363333165646L32.23312860839844,19.146003333165645L27.687668608398436,21.563803333165644L23.819198608398438,18.759163333165645Z" fill="url(#master_svg1y_235_84228)" fill-opacity="1"/></g></g><g><g><g><path d="M8.732116222381592,4.05880518008709L13.180866222381592,1.6410051800870895C13.95455622238159,1.2541551800870896,14.728256222381592,0.8673121800870895,15.598656222381592,0.6738881800870895C17.62960622238159,-0.0030948299129104615,19.950716222381594,-0.19651881991291045,22.175016222381593,0.19032918008708954L17.72631622238159,2.6081251800870895C15.50194622238159,2.3179851800870894,13.180856222381593,2.4147051800870893,11.149916222381592,3.0916851800870897C10.279506222381592,3.2851051800870894,9.409100222381593,3.6719551800870893,8.732116222381592,4.05880518008709Z" fill="url(#master_svg1z_235_84228)" fill-opacity="1"/></g><g><g><path d="M8.732116222381592,4.058958465306759L13.180866222381592,1.6411614653067588C13.664426222381593,1.3510254653067588,14.147976222381592,1.157602465306759,14.728256222381592,0.9641784653067589L10.279506222381592,3.2852584653067587C9.699235222381592,3.5753984653067588,9.215675222381591,3.768818465306759,8.732116222381592,4.058958465306759Z" fill="url(#master_svg20_235_84228)" fill-opacity="1"/></g><g><path d="M10.279208183288574,3.2854705129408837L14.727958183288575,0.9643895129408837C15.018088183288574,0.8676775129408836,15.308228183288573,0.7709665129408836,15.598358183288575,0.6742545129408837C15.888498183288574,0.5775423129408837,16.081918183288575,0.48083051294088364,16.372058183288573,0.48083051294088364L11.923308183288574,2.898630512940884C11.633168183288575,2.9953405129408837,11.439748183288573,2.9953405129408837,11.149613183288574,3.0920505129408835C10.762767183288574,3.0920505129408835,10.472631183288573,3.188760512940884,10.279208183288574,3.2854705129408837Z" fill="url(#master_svg21_235_84228)" fill-opacity="1"/></g><g><path d="M11.826773643493652,2.801987507812977L16.275523643493653,0.38419350781297684C16.662363643493652,0.2874815078129769,17.04921364349365,0.19076940781297685,17.436063643493654,0.09405750781297684L12.987313643493652,2.511857507812977C12.600467643493653,2.608567507812977,12.213620643493652,2.7052775078129767,11.826773643493652,2.801987507812977Z" fill="url(#master_svg22_235_84228)" fill-opacity="1"/></g><g><path d="M13.083667755126953,2.608567507812977L17.532417755126954,0.19076940781297685C17.919257755126953,0.09405750781297684,18.209397755126954,0.09405750781297684,18.596247755126953,0.09405750781297684L14.147497755126953,2.4151375078129766C13.760651755126954,2.4151375078129766,13.373803755126954,2.511857507812977,13.083667755126953,2.608567507812977Z" fill="url(#master_svg23_235_84228)" fill-opacity="1"/></g><g><path d="M14.147411823272705,2.4144708978629112L18.596161823272706,-0.003327202137088772C18.886291823272707,-0.003327202137088772,19.273141823272706,-0.003327202137088772,19.563271823272707,-0.10003910213708878L15.114530823272705,2.4144708978629112C14.824394823272705,2.4144708978629112,14.437547823272705,2.4144708978629112,14.147411823272705,2.4144708978629112Z" fill="url(#master_svg24_235_84228)" fill-opacity="1"/></g><g><path d="M15.114581108093262,2.4147145208597185L19.563331108093262,-0.0030854791402816772C19.853461108093263,-0.0030854791402816772,20.240311108093263,-0.0030854791402816772,20.530441108093264,-0.0030854791402816772L16.081700108093262,2.4147145208597185C15.791564108093262,2.4147145208597185,15.404717108093262,2.317994520859718,15.114581108093262,2.4147145208597185Z" fill="url(#master_svg25_235_84228)" fill-opacity="1"/></g><g><path d="M16.082223415374756,2.4147145208597185L20.530973415374756,-0.0030854791402816772C20.821103415374758,-0.0030854791402816772,21.111243415374755,-0.0030854791402816772,21.401373415374756,0.09362642085971833L16.952629415374755,2.5114245208597183C16.662494415374756,2.4147145208597185,16.372358415374755,2.4147145208597185,16.082223415374756,2.4147145208597185Z" fill="url(#master_svg26_235_84228)" fill-opacity="1"/></g><g><path d="M16.95234441757202,2.4147145208597185L21.401094417572022,-0.0030854791402816772C21.59451441757202,-0.0030854791402816772,21.884654417572023,0.09362642085971833,22.078074417572022,0.09362642085971833L17.629328417572022,2.5114245208597183C17.43590341757202,2.5114245208597183,17.242481417572023,2.5114245208597183,16.95234441757202,2.4147145208597185Z" fill="url(#master_svg27_235_84228)" fill-opacity="1"/></g></g></g></g><g><g><g><path d="M31.265336767578127,35.877332432699205L26.816566767578124,38.295132432699205C27.880436767578125,37.714832432699204,28.944236767578126,37.037832432699204,29.814636767578126,36.1674324326992C31.362036767578125,34.7167324326992,32.61923676757812,32.879232432699204,33.489636767578126,30.751532432699204C34.360136767578126,28.623932432699203,34.843636767578126,26.302832432699205,34.843636767578126,23.691632432699205C34.843636767578126,21.177132432699203,34.360136767578126,18.662632432699205,33.489636767578126,16.244832432699205C32.61923676757812,13.923732432699204,31.362036767578125,11.699332432699203,29.814636767578126,9.765112432699203C28.267236767578126,7.830872432699204,26.429716767578125,6.186772432699203,24.398766767578124,5.026222432699203C22.271106767578125,3.7689724326992033,20.046736767578125,2.8985624326992037,17.628936767578125,2.6084324326992037L22.077686767578125,0.1906324326992035C24.495476767578126,0.5774794326992034,26.719846767578126,1.3511724326992034,28.847536767578127,2.6084324326992037C30.878436767578123,3.8656824326992036,32.71593676757813,5.509782432699203,34.263336767578124,7.347312432699203C35.81073676757812,9.281542432699203,37.06803676757812,11.505932432699204,37.938436767578125,13.827032432699204C38.80883676757813,16.244832432699205,39.292436767578124,18.759332432699203,39.292436767578124,21.273832432699205C39.292436767578124,23.885032432699205,38.80883676757813,26.206132432699203,37.938436767578125,28.333832432699204C37.06803676757812,30.364732432699203,35.81073676757812,32.202232432699205,34.263336767578124,33.7496324326992C33.39293676757812,34.523332432699206,32.32913676757813,35.297032432699204,31.265336767578127,35.877332432699205Z" fill="url(#master_svg28_235_84228)" fill-opacity="1"/></g><g><g><path d="M17.725890763103962,2.511857522714138L22.174630763103963,0.09405752271413803C22.27135076310396,0.09405752271413803,22.27135076310396,0.09405752271413803,22.368060763103962,0.09405752271413803L17.919314763103962,2.511857522714138Q17.82260116310396,2.511857522714138,17.725890763103962,2.511857522714138Z" fill="url(#master_svg29_235_84228)" fill-opacity="1"/></g><g><path d="M17.9195139631629,2.6084324326992037L22.3682639631629,0.1906324326992035C22.6583939631629,0.2873443326992035,23.0452439631629,0.2873443326992035,23.3353739631629,0.38405643269920353L18.8866329631629,2.8018524326992034C18.4997849631629,2.7051424326992035,18.2096509631629,2.6084324326992037,17.9195139631629,2.6084324326992037Z" fill="url(#master_svg2a_235_84228)" fill-opacity="1"/></g><g><path d="M18.886683233082294,2.7054807525753977L23.335433233082295,0.2876807525753975C23.625563233082296,0.3843926525753975,23.915703233082294,0.3843926525753975,24.205833233082295,0.48110475257539753L19.757089233082294,2.8989007525753974C19.466954233082294,2.8989007525753974,19.176820233082296,2.8021907525753975,18.886683233082294,2.7054807525753977Z" fill="url(#master_svg2b_235_84228)" fill-opacity="1"/></g><g><path d="M19.75680411607027,2.9952054750800134L24.20555411607027,0.5774054750800133C24.495684116070272,0.6741173750800132,24.78582411607027,0.7708294750800133,25.07595411607027,0.8675414750800132L20.62721011607027,3.2853354750800134C20.33707511607027,3.0919154750800133,20.046941116070272,3.0919154750800133,19.75680411607027,2.9952054750800134Z" fill="url(#master_svg2c_235_84228)" fill-opacity="1"/></g><g><path d="M20.627398379147053,3.188355280148983L25.076148379147053,0.770555280148983C25.366278379147055,0.867267180148983,25.656418379147052,0.963979280148983,25.946548379147053,1.060691280148983L21.497804379147052,3.478485280148983C21.20766837914705,3.381775280148983,20.917533379147052,3.285065280148983,20.627398379147053,3.188355280148983Z" fill="url(#master_svg2d_235_84228)" fill-opacity="1"/></g><g><path d="M21.49751938134432,3.4785534274458887L25.94626938134432,1.0607534274458885C26.23639938134432,1.1574653274458886,26.526539381344318,1.2541774274458886,26.81666938134432,1.4476004274458885L22.271213381344317,3.8653934274458885C21.981078381344318,3.7686834274458887,21.787654381344318,3.6719734274458884,21.49751938134432,3.4785534274458887Z" fill="url(#master_svg2e_235_84228)" fill-opacity="1"/></g><g><path d="M22.271538861095905,3.865326536881924L26.720288861095906,1.4475265368819237C27.010418861095907,1.5442384368819237,27.300558861095904,1.7376625368819236,27.590688861095906,1.8343735368819236L23.141944861095904,4.252166536881924C22.851809861095905,4.155456536881924,22.561675861095907,3.9620365368819237,22.271538861095905,3.865326536881924Z" fill="url(#master_svg2f_235_84228)" fill-opacity="1"/></g><g><path d="M23.14165986329317,4.2524278097319606L27.59040986329317,1.9313478097319603C27.880539863293173,2.12477180973196,28.17067986329317,2.2214838097319602,28.46080986329317,2.4149068097319604L24.01206586329317,4.832707809731961C23.72193086329317,4.6392778097319605,23.431796863293172,4.44585780973196,23.14165986329317,4.2524278097319606Z" fill="url(#master_svg2g_235_84228)" fill-opacity="1"/></g><g><path d="M24.01178038865328,4.7354474198698995L28.46053038865328,2.3176474198698997C28.557240388653277,2.4143592198698998,28.75066038865328,2.5110714198698996,28.847370388653278,2.5110714198698996C29.13751038865328,2.8012064198699,29.42764038865328,2.8979184198698995,29.62107038865328,3.0913424198698998L25.17232038865328,5.5091374198699C24.97889738865328,5.3157174198699,24.688762388653277,5.2190074198699,24.49533738865328,5.0255774198699C24.301915388653278,4.928867419869899,24.205203388653278,4.832157419869899,24.01178038865328,4.7354474198698995Z" fill="url(#master_svg2h_235_84228)" fill-opacity="1"/></g><g><path d="M25.173046238720417,5.413220398919583L29.621796238720417,3.0921403989195824C30.008636238720417,3.3822763989195823,30.298776238720418,3.5756993989195824,30.685626238720417,3.8658353989195824L26.236876238720416,6.283630398919582C25.850030238720418,5.993500398919583,25.46318323872042,5.703360398919582,25.173046238720417,5.413220398919583Z" fill="url(#master_svg2i_235_84228)" fill-opacity="1"/></g><g><path d="M26.23631728440523,6.186293118493557L30.685067284405232,3.865213118493557C31.07190728440523,4.155349118493557,31.555467284405232,4.542196118493557,31.94231728440523,4.832332118493557L27.49357728440523,7.250133118493557C27.01001128440523,6.863283118493557,26.62316428440523,6.573143118493557,26.23631728440523,6.186293118493557Z" fill="url(#master_svg2j_235_84228)" fill-opacity="1"/></g><g><path d="M27.39663565903902,7.25065566419363L31.94209565903902,4.83285566419363C32.52236565903902,5.31641466419363,33.00592565903902,5.7999746641936305,33.48948565903902,6.38024566419363L29.040735659039022,8.79804566419363C28.46046565903902,8.217775664193631,27.97690565903902,7.734215664193631,27.39663565903902,7.25065566419363Z" fill="url(#master_svg2k_235_84228)" fill-opacity="1"/></g><g><path d="M29.041249878704548,8.798221601235866L33.48999987870455,6.3804216012358665C33.78012987870455,6.670557601235867,34.07025987870455,7.057404601235866,34.36039987870455,7.347540601235867C35.52094987870455,8.701501601235867,36.391349878704546,10.248891601235867,37.16504987870455,11.893001601235866L32.71629987870455,14.310791601235866C31.94260987870455,12.666691601235867,30.975489878704547,11.216011601235866,29.91166187870455,9.765331601235866C29.621520878704548,9.475201601235867,29.33138687870455,9.088351601235868,29.041249878704548,8.798221601235866Z" fill="url(#master_svg2l_235_84228)" fill-opacity="1"/></g><g><path d="M32.71630347520113,14.31056548475027L37.16504347520113,11.89276548475027C37.45518347520113,12.56974848475027,37.74531347520113,13.15001548475027,37.93874347520113,13.82700548475027C37.93874347520113,13.923715484750272,37.93874347520113,13.923715484750272,38.03545347520113,14.020425484750271L33.58670747520113,16.43822548475027C33.58670747520113,16.34151548475027,33.58670747520113,16.34151548475027,33.48999747520113,16.24479548475027C33.29657347520113,15.567815484750271,33.00643847520113,14.890835484750271,32.71630347520113,14.31056548475027Z" fill="url(#master_svg2m_235_84228)" fill-opacity="1"/></g><g><path d="M33.586424477398396,16.43805457471609L38.035164477398396,14.020254574716091C38.228594477398396,14.50381357471609,38.42201447739839,15.08408457471609,38.51872447739839,15.567644574716091L34.069983477398395,17.98544457471609C33.97327347739839,17.405174574716092,33.779848477398396,16.92161457471609,33.586424477398396,16.43805457471609Z" fill="url(#master_svg2n_235_84228)" fill-opacity="1"/></g><g><path d="M34.07024539262056,17.889045251595974L38.518985392620564,15.471245251595974C38.615695392620566,15.858092251595973,38.712415392620564,16.341651251595973,38.809125392620565,16.728495251595973L34.36038039262056,19.146295251595973C34.36038339262056,18.759445251595974,34.16695949262056,18.372605251595974,34.07024539262056,17.889045251595974Z" fill="url(#master_svg2o_235_84228)" fill-opacity="1"/></g><g><path d="M34.36044467240572,19.242513192880153L38.80918467240572,16.824713192880154C38.90589467240572,17.211560192880153,39.00261467240572,17.598407192880153,39.00261467240572,17.985253192880155L34.65057967240572,20.306343192880153C34.55386567240572,19.919493192880154,34.45715507240572,19.629353192880153,34.36044467240572,19.242513192880153Z" fill="url(#master_svg2p_235_84228)" fill-opacity="1"/></g><g><path d="M34.650169022381306,20.30625869153738L39.09890902238131,17.88845869153738C39.19561902238131,18.27530569153738,39.19561902238131,18.56544269153738,39.19561902238131,18.95228869153738L34.746879422381305,21.37008869153738C34.746879422381305,21.079948691537382,34.650169022381306,20.69309869153738,34.650169022381306,20.30625869153738Z" fill="url(#master_svg2q_235_84228)" fill-opacity="1"/></g><g><path d="M34.7467438057065,21.370002282845974L39.1954838057065,18.952202282845974C39.1954838057065,19.242337282845973,39.2921938057065,19.629186282845975,39.2921938057065,19.919321282845974L34.8434542057065,22.337122282845975C34.8434579057065,22.046982282845974,34.8434579057065,21.756842282845973,34.7467438057065,21.370002282845974Z" fill="url(#master_svg2r_235_84228)" fill-opacity="1"/></g><g><path d="M34.843791611492634,22.434693826425075L39.292531611492635,20.016893826425076C39.292531611492635,20.307028826425075,39.292531611492635,20.693877826425076,39.292531611492635,20.984012826425076L34.843791611492634,23.401813826425077C34.843791611492634,23.014963826425074,34.843791611492634,22.724823826425077,34.843791611492634,22.434693826425075Z" fill="url(#master_svg2s_235_84228)" fill-opacity="1"/></g><g><path d="M34.843791611492634,23.30481482862234L39.292531611492635,20.88701482862234C39.292531611492635,20.98372702862234,39.292531611492635,21.08043882862234,39.292531611492635,21.17714982862234C39.292531611492635,21.46728482862234,39.292531611492635,21.75742082862234,39.292531611492635,21.95084482862234L34.843791611492634,24.36864482862234C34.843791611492634,24.078504828622343,34.843791611492634,23.88508482862234,34.843791611492634,23.594944828622342Q34.843791611492634,23.49823482862234,34.843791611492634,23.30481482862234Z" fill="url(#master_svg2t_235_84228)" fill-opacity="1"/></g><g><path d="M34.8434542057065,24.46513320325613L39.2921938057065,22.04733320325613C39.2921938057065,22.33746820325613,39.2921938057065,22.72431720325613,39.1954838057065,23.01445220325613L34.7467438057065,25.43225320325613C34.8434542057065,25.14211320325613,34.8434542057065,24.75526320325613,34.8434542057065,24.46513320325613Z" fill="url(#master_svg2u_235_84228)" fill-opacity="1"/></g><g><path d="M34.8434542057065,25.4327769410491L39.2921938057065,23.0149769410491C39.2921938057065,23.3051119410491,39.1954838057065,23.5952489410491,39.1954838057065,23.9820959410491L34.7467438057065,26.3998969410491C34.7467401164465,26.013046941049097,34.7467401164465,25.7229069410491,34.8434542057065,25.4327769410491Z" fill="url(#master_svg2v_235_84228)" fill-opacity="1"/></g><g><path d="M34.650443455730915,26.39947272657156L39.099189455730915,23.98167272657156C39.099189455730915,24.27180772657156,39.002479455730914,24.56194472657156,38.905759455730916,24.85207872657156L34.457019455730915,27.26987272657156C34.650443455730915,26.97974272657156,34.650443455730915,26.68960272657156,34.650443455730915,26.39947272657156Z" fill="url(#master_svg2w_235_84228)" fill-opacity="1"/></g><g><path d="M34.55386867240572,27.269593728768825L39.00261467240572,24.851793728768826C38.90590467240572,25.141928728768825,38.90590467240572,25.432065728768826,38.80918467240572,25.722199728768825L34.36044467240572,28.139993728768825C34.45715877240572,27.849863728768824,34.45715877240572,27.559723728768827,34.55386867240572,27.269593728768825Z" fill="url(#master_svg2x_235_84228)" fill-opacity="1"/></g><g><path d="M34.36038439262057,28.14018775342703L38.809125392620565,25.72238775342703C38.712415392620564,26.012522753427028,38.61570539262056,26.30265975342703,38.51899539262057,26.592793753427028L34.07024539262056,29.01058775342703C34.16695949262056,28.720457753427027,34.263669392620564,28.43031775342703,34.36038439262057,28.14018775342703Z" fill="url(#master_svg2y_235_84228)" fill-opacity="1"/></g><g><path d="M34.07018302018404,29.010308755624294L38.51892802018404,26.592508755624294C38.42221802018404,26.882643755624294,38.32549802018404,27.172780755624295,38.22878802018404,27.462914755624293L33.78004802018404,29.977428755624295C33.87676212018404,29.687288755624294,33.97347202018404,29.397148755624293,34.07018302018404,29.010308755624294Z" fill="url(#master_svg2z_235_84228)" fill-opacity="1"/></g><g><path d="M33.780119910748006,29.977952493417263L38.228864910748,27.560152493417263C38.13215491074801,27.850287493417262,38.035434910748,28.043711493417263,37.93872491074801,28.333846493417262Q37.93872491074801,28.430558493417262,37.842014910748006,28.527271493417263L33.393274910748005,30.945072493417264Q33.393274910748005,30.848352493417263,33.489985310748004,30.751642493417265C33.586695910748006,30.461512493417263,33.683409910748004,30.171372493417262,33.780119910748006,29.977952493417263Z" fill="url(#master_svg30_235_84228)" fill-opacity="1"/></g><g><path d="M33.393486017986774,30.944648278939724L37.84222701798677,28.526848278939724C37.648807017986776,28.913695278939723,37.552097017986775,29.203832278939725,37.358667017986775,29.590678278939723L32.909927017986774,32.00847827893973C33.103348017986775,31.621628278939724,33.296772017986775,31.331498278939723,33.393486017986774,30.944648278939724Z" fill="url(#master_svg31_235_84228)" fill-opacity="1"/></g><g><path d="M32.90946655997896,32.00839187024832L37.35821255997896,29.590591870248318C37.16478255997896,29.977438870248317,36.87465255997896,30.364285870248317,36.68122255997896,30.75113187024832L32.23248255997896,33.168931870248315C32.42590655997896,32.78208187024832,32.71604155997896,32.39524187024832,32.90946655997896,32.00839187024832Z" fill="url(#master_svg32_235_84228)" fill-opacity="1"/></g><g><path d="M32.23243279832125,33.169658197152614L36.68117279832125,30.751858197152615C36.391042798321244,31.235417197152614,36.00419279832125,31.718977197152615,35.71406279832125,32.10582819715261L31.265312798321247,34.523618197152615C31.55544979832125,34.136778197152616,31.942298798321247,33.65321819715261,32.23243279832125,33.169658197152614Z" fill="url(#master_svg33_235_84228)" fill-opacity="1"/></g><g><path d="M31.265462982952595,34.52359916089773L35.71420298295259,32.10579916089773C35.230642982952595,32.68606916089773,34.84379298295259,33.169629160897735,34.263522982952594,33.65318916089773C33.3931229829526,34.52359916089773,32.329292982952595,35.20057916089773,31.265462982952595,35.78084916089773L26.816712982952595,38.19864916089773C27.880542982952594,37.61837916089773,28.944372982952594,36.94138916089773,29.814782982952593,36.070979160897735C30.298342982952594,35.587429160897734,30.781902982952595,35.10386916089773,31.265462982952595,34.52359916089773Z" fill="url(#master_svg34_235_84228)" fill-opacity="1"/></g></g></g></g></g><g><path d="M17.72591015625,2.511635875C20.14371015625,2.898483875,22.36811015625,3.6721818749999997,24.49571015625,4.929431875000001C26.52671015625,6.186681875,28.36421015625,7.830791875,29.91161015625,9.668311875C31.45901015625,11.602551875,32.71621015625,13.826921875,33.58661015625,16.148021874999998C34.45711015625,18.565821875,34.94061015625,21.080321875,34.94061015625,23.594821875C34.94061015625,26.206021875,34.45711015625,28.527121875,33.58661015625,30.654821875C32.71621015625,32.685721875,31.45901015625,34.523221875,29.91161015625,36.070621875C28.36421015625,37.521321875,26.52671015625,38.585121875,24.49571015625,39.262121875C22.36811015625,39.939121875,20.14371015625,40.035821875,17.91931015625,39.745721875L17.82261015625,39.745721875C15.79171015625,39.455521875,13.76071015625,38.778621875,11.92321015625,37.714721875C10.08567015625,36.747621875,8.34486015625,35.393621875,6.89418015625,33.846321875L11.05281015625,24.852121875L12.50351015625,27.560021875C13.08371015625,28.720521875,13.66401015625,29.784421875,14.34101015625,30.944921875L15.11471015625,32.105421875000005C15.30811015625,32.492321875,15.61581015625,32.589021875,16.00261015625,32.685721875C16.09931015625,32.685721875,16.30781015625,32.767621875,16.404510156249998,32.767621875C16.79141015625,32.864321875,17.08361015625,32.431321874999995,17.27701015625,32.237921875C17.47041015625,31.947721875,17.60331015625,31.894721875,17.89341015625,31.507921875C17.99011015625,31.411221875,18.14541015625,31.121221875,18.33891015625,30.734321875C18.53231015625,30.347521875,18.78971015625,29.977821875,19.07991015625,29.397521875C19.37001015625,28.817221875,19.66011015625,28.140321875,20.04701015625,27.366621875C20.43381015625,26.592921875,20.82071015625,25.819221875,21.11081015625,25.045521875L24.01221015625,18.952621875L27.88061015625,21.757321875L26.13981015625,9.088041875L16.17851015625,14.213721875L20.53051015625,16.438121875L15.88841015625,26.109321875C15.21141015625,24.755321875,14.53441015625,23.594821875,14.05081015625,22.627721875C13.85741015625,22.240821875,13.66401015625,21.854021875,13.37391015625,21.370421875C13.18041015625,21.080321875,12.98701015625,20.693421875,12.89031015625,20.403321875L12.60021015625,19.726321875Q12.69691015625,19.823021875,12.69691015625,19.919721875C12.31001015625,19.242821875,11.92321015625,18.759221875,11.53631015625,18.275621875C11.24621015625,17.985521875,11.05281015625,17.792121875,10.85941015625,17.792121875C10.27910015625,17.695421875,9.89225015625,17.792121875,9.60211015625,18.082221875000002C9.31198015625,18.372421875,9.11855015625,18.662521875,9.02184015625,19.049321875C9.02184015625,19.146121875,8.82842015625,19.436221875,8.63500015625,19.823021875C8.44157015625,20.209921875,8.15144015625,20.790221875,7.86130015625,21.467121875C7.57116015625,22.144121875,7.18432015625,22.821121875,6.79747015625,23.594821875L5.63693015625,25.915921875C4.95994015625,27.269821875,4.3796701562500004,28.623821875,3.70269015625,29.977821875C2.63886015625,28.333721875,1.86516015625,26.496221875,1.38160515625,24.561921875C0.80133415625,22.627721875,0.60791015625,20.596721875,0.60791015625,18.662521875C0.60791015625,16.051321875,1.09146915625,13.730221875,1.96188015625,11.602551875C2.83228015625,9.474891875,4.08954015625,7.734071875,5.63693015625,6.186681875C7.18432015625,4.736011875,9.02184015625,3.6721818749999997,11.05281015625,2.995194875C13.18041015625,2.318212375,15.40481015625,2.221500875,17.72591015625,2.511635875Z" fill="url(#master_svg35_246_44379)" fill-opacity="1"/></g></g></svg>