<svg xmlns="http://www.w3.org/2000/svg" xmlns:xlink="http://www.w3.org/1999/xlink" fill="none" version="1.1" width="40" height="40" viewBox="0 0 40 40"><defs><clipPath id="master_svg0_357_76247"><rect x="0" y="0" width="40" height="40" rx="0"/></clipPath><linearGradient x1="0.8483489751815796" y1="-0.10424499958753586" x2="0.01942743725805186" y2="1.014395881151084" id="master_svg1_235_84228"><stop offset="0%" stop-color="#35A1A8" stop-opacity="1"/><stop offset="100%" stop-color="#92F8FF" stop-opacity="1"/></linearGradient><linearGradient x1="0.5" y1="1" x2="0.5" y2="0" id="master_svg2_246_44379"><stop offset="0%" stop-color="#EFFEFF" stop-opacity="1"/><stop offset="100%" stop-color="#63F6FF" stop-opacity="1"/></linearGradient></defs><g clip-path="url(#master_svg0_357_76247)"><g><path d="M7.91095046875,8L2.66748046875,11.2L17.378380468750002,3.2L22.62178046875,0L7.91095046875,8ZM22.62188046875,0L17.378380468750002,3.2L32.089280468750005,15.68L32.08938046875,15.6799L32.08938046875,32.1595L37.33278046875,28.9595L37.33278046875,12.4795L37.33238046875,12.4797L22.62188046875,0ZM13.73708046875,12.6914L13.73708046875,12.6401L13.72528046875,12.6474C13.62578046875,12.2593,13.65858046875,11.8477,13.88228046875,11.52Q13.90748046875,11.4648,13.93268046875,11.4143L14.02878046875,11.36Q14.02878046875,11.2,14.17438046875,11.04L14.17268046875,11.0411L14.17358046875,11.04L13.84698046875,11.2394L13.88308046875,11.1997L12.27134046875,12.1833L11.56098046875,11.6416L7.23693046875,13.1932L6.95459046875,15.7393L16.30888046875,23.0033L16.50438046875,22.8818L16.50438046875,32.7947L14.27418046875,32.5025L18.512880468749998,35.2971L20.41348046875,32.4237L23.20478046875,30.7203L23.20448046875,30.7203L23.20458046875,30.7202L23.05888046875,30.7202L23.04638046875,30.7279L23.04548046875,30.728L23.05858046875,30.7202L22.91288046875,30.7202L22.66828046875,30.8695C22.36338046875,30.8044,22.07488046875,30.4541,21.95378046875,30.0951L27.07558046875,22.3518L26.27448046875,19.0074L31.06958046875,16.1602L25.90888046875,18.9344L23.54308046875,19.8369L23.53858046875,19.8397L23.49588046875,19.8397L21.89348046875,20.8176L21.89348046875,19.52L21.87338046875,19.532L20.48078046875,18.4449L22.91318046875,16.9604L22.62188046875,17.1204L20.46798046875,18.4349L20.43448046875,18.4088L16.305180468750002,15.2597L14.31968046875,13.6001L14.21378046875,13.6647L14.21358046875,13.6645L14.31928046875,13.6L14.31918046875,13.6L14.31928046875,13.5999L14.17368046875,13.4399L14.15938046875,13.4486C14.11138046875,13.3967,14.06608046875,13.3413,14.02408046875,13.2831L14.02838046875,13.2804L14.02208046875,13.2803C13.95488046875,13.1872,13.89588046875,13.0869,13.84638046875,12.982L13.88278046875,12.9598Q13.85558046875,12.9598,13.83348046875,12.9542C13.79488046875,12.869,13.76248046875,12.7809,13.73708046875,12.6914ZM16.66598046875,32.704L16.51168046875,32.7957L16.64738046875,32.8135L16.66598046875,32.704Z" fill-rule="evenodd" fill="url(#master_svg1_235_84228)" fill-opacity="1"/></g><g><path d="M17.37828046875,3.2001953125L32.08918046875,15.6801953125L32.08918046875,32.0001953125L17.37828046875,40.0001953125L2.66748046875,27.5201953125L2.66748046875,11.2001953125L17.37828046875,3.2001953125ZM25.68048046875,19.3601953125C26.26308046875,19.0401953125,26.55438046875,18.080195312500003,26.11748046875,17.2801953125C25.82618046875,16.8001953125,25.38918046875,16.4801953125,24.95228046875,16.320195312499997C24.66098046875,16.320195312499997,24.51528046875,16.320195312499997,24.36958046875,16.4801953125L17.669680468750002,20.0001953125L17.378380468750002,20.3201953125L17.08698046875,20.0001953125L10.38703046875,14.4001953125C10.09573046875,14.2401953125,9.95008046875,14.0801953125,9.658780468749999,14.0801953125C9.22182046875,13.9201953125,8.78486046875,14.2401953125,8.493560468750001,14.5601953125C8.20226046875,15.2001953125,8.347910468750001,16.1601953125,8.93052046875,16.8001953125L15.77618046875,22.4001953125C15.92178046875,22.5601953125,16.21308046875,22.7201953125,16.35878046875,22.7201953125Q16.35878046875,22.7201953125,16.50438046875,22.7201953125L16.50438046875,32.8001953125C16.50438046875,33.2801953125,16.941380468749998,33.9201953125,17.37828046875,33.9201953125C17.81528046875,33.9201953125,18.25228046875,33.6001953125,18.25228046875,32.960195312500005L18.25228046875,22.8801953125Q18.25228046875,22.8801953125,18.39788046875,22.8801953125C18.68918046875,22.8801953125,18.83488046875,22.8801953125,18.98048046875,22.7201953125L25.68048046875,19.3601953125Z" fill="url(#master_svg2_246_44379)" fill-opacity="1"/></g></g></svg>