<svg xmlns="http://www.w3.org/2000/svg" xmlns:xlink="http://www.w3.org/1999/xlink" fill="none" version="1.1" width="40" height="40" viewBox="0 0 40 40"><defs><clipPath id="master_svg0_357_75796"><rect x="0" y="0" width="40" height="40" rx="0"/></clipPath><linearGradient x1="0.8483489751815796" y1="-0.10424499958753586" x2="0.20195774376680264" y2="1.1077130626501586" id="master_svg1_235_84228"><stop offset="0%" stop-color="#35A1A8" stop-opacity="1"/><stop offset="100%" stop-color="#92F8FF" stop-opacity="1"/></linearGradient><linearGradient x1="0.5" y1="1" x2="0.5" y2="0" id="master_svg2_246_44379"><stop offset="0%" stop-color="#EFFEFF" stop-opacity="1"/><stop offset="100%" stop-color="#63F6FF" stop-opacity="1"/></linearGradient></defs><g clip-path="url(#master_svg0_357_75796)"><g></g><g><path d="M9.89177109375,0.32296491308283803C9.796911093750001,0.35725591308283805,9.695091093750001,0.3843179130828381,9.63113109375,0.4506519130828381L5.05721309375,3.028792913082838C4.86515009375,3.040682913082838,4.76338609375,3.146232913082838,4.66162109375,3.251772913082838L4.66403660375,3.250412913082838Q4.66282835375,3.251242913082838,4.66162109375,3.252082913082838L5.04605809375,3.035382913082838C5.05112309375,3.033092913082838,5.05619709375,3.030812913082838,5.06127909375,3.028552913082838C5.07182809375,3.027982913082838,5.08264709375,3.027682913082838,5.09375209375,3.027682913082838L5.1797020937500005,2.979232913082838C5.23889509375,2.956212913082838,5.29912309375,2.935152913082838,5.3602760937500005,2.916002913082838C5.37946709375,2.915382913082838,5.39865709375,2.915382913082838,5.41784809375,2.915382913082838L5.47947909375,2.881382913082838C5.60396109375,2.847962913082838,5.7318510937500005,2.822012913082838,5.86228109375,2.803072913082838L6.38953109375,2.803072913082838L6.44108109375,2.774632913082838L6.39062109375,2.803072913082838L6.92957109375,2.803072913082838L6.94752109375,2.792952913082838L6.94762109375,2.792962913082838L6.92969109375,2.803072913082838L7.0319410937499995,2.803072913082838C7.034071093750001,2.803342913082838,7.0362110937499995,2.803622913082838,7.038341093750001,2.803902913082838L7.040861093749999,2.802512913082838L21.73092109375,5.001462913082838L5.80078109375,5.001462913082838L5.80078109375,35.00143291308284L29.65862109375,35.00143291308284L29.65862109375,28.95203291308284L29.93982109375,28.796832913082838L29.88672109375,28.796832913082838C29.95552109375,28.766832913082837,30.00972109375,28.725732913082837,30.04932109375,28.684532913082837L29.85012109375,28.796832913082838L29.84562109375,28.796832913082838L30.04922109375,28.684532913082837L29.94122109375,28.684532913082837L29.74192109375,28.796832913082838L29.65862109375,28.796832913082838L29.65862109375,21.116932913082838L30.15742109375,20.84183291308284C30.07892109375,20.882432913082837,30.00042109375,20.92313291308284,29.91682109375,20.95313291308284L29.84742109375,20.95313291308284L30.04922109375,20.84183291308284L29.94122109375,20.84183291308284L29.74372109375,20.95313291308284L29.65862109375,20.95313291308284L29.65862109375,13.374032913082837L30.15742109375,13.109832913082839C30.08892109375,13.109832913082839,30.02052109375,13.121132913082839,29.94872109375,13.132932913082838C29.92542109375,13.136732913082838,29.90182109375,13.140632913082838,29.87762109375,13.144132913082839L29.93982109375,13.109832913082839L29.84652109375,13.109832913082839L30.04922109375,12.998032913082838L29.94122109375,12.998032913082838L29.74282109375,13.109832913082839L29.65862109375,13.109832913082839L29.65862109375,6.601852913082838Q29.69172109375,6.612382913082838,29.72482109375,6.612382913082838L29.72572109375,6.611872913082838C29.83362109375,6.7232229130828385,29.94112109375,6.723452913082838,29.94112109375,6.8352729130828385L30.01202109375,6.795332913082838L30.01222109375,6.795512913082838L29.93992109375,6.836272913082838C30.04802109375,6.836272913082838,30.15602109375,6.948322913082838,30.26402109375,7.060362913082838L30.31972109375,7.028972913082838L30.32022109375,7.029352913082838L30.26512109375,7.060392913082838Q30.42722109375,7.060392913082838,30.58922109375,7.396532913082838L30.67862109375,7.346142913082838C30.74072109375,7.405662913082838,30.80172109375,7.466622913082838,30.86152109375,7.528962913082838C30.92172109375,7.606032913082838,30.97132109375,7.681202913082838,31.02102109375,7.732702913082838L31.02122109375,7.732552913082838C31.45322109375,8.180682913082839,31.77732109375,8.740792913082839,31.99332109375,9.300902913082838L32.04942109375,9.269282913082838L32.04952109375,9.269622913082838L31.99362109375,9.301122913082837C32.10172109375,9.525212913082838,32.209721093750005,9.637252913082838,32.209721093750005,9.861342913082838L32.277321093750004,9.823262913082837C32.332121093750004,9.976332913082839,32.38122109375,10.131632913082838,32.42422109375,10.288732913082837C32.425021093750004,10.296332913082837,32.42542109375,10.303532913082838,32.42542109375,10.310332913082839L32.42622109375,10.309832913082838C32.42622109375,10.409532913082838,32.42652109375,10.509132913082839,32.502921093750004,10.608732913082838C32.52842109375,10.725732913082838,32.55052109375,10.843432913082838,32.56922109375,10.961732913082837L32.53372109375,10.981832913082838C32.53372109375,11.045332913082838,32.568421093750004,11.108832913082837,32.59852109375,11.172432913082838C32.624221093749995,11.383932913082838,32.638621093750004,11.597232913082838,32.64112109375,11.811132913082838L32.64112109375,28.127732913082838Q31.94212109375,28.021432913082837,31.14532109375,27.96433291308284L30.47022109375,37.79223291308284L30.82632109375,39.24613291308284C30.71602109375,39.33583291308284,30.60312109375,39.41823291308284,30.48952109375,39.487232913082835L30.37252109375,39.55313291308284C30.37702109375,39.550832913082836,30.38152109375,39.54853291308284,30.38602109375,39.546132913082836L30.37252109375,39.55373291308284C30.43932109375,39.51903291308284,30.50502109375,39.48203291308284,30.56952109375,39.442732913082835L32.53192109375,38.33663291308284L35.26532109375,36.821132913082835Q37.06002109375,36.00003291308284,37.49822109375,33.84053291308284L37.50292109375,33.837832913082835L37.50292109375,33.81723291308284Q37.65992109375,33.02743291308284,37.63682109375,32.059832913082836Q37.63222109375,31.870632913082837,37.61062109375,31.690132913082838L37.61062109375,9.188472913082839L32.67812109375,11.857532913082839L32.68962109375,11.851032913082838L37.61062109375,9.188212913082838L37.61062109375,9.077272913082838L37.61102109375,9.077042913082838C37.61102109375,9.040042913082837,37.61072109375,9.003072913082837,37.61002109375,8.966142913082837L37.61062109375,8.965792913082838L37.61062109375,8.516602913082838L37.58702109375,8.529932913082838C37.57772109375,8.424312913082838,37.56582109375,8.319172913082838,37.55132109375,8.214632913082838L37.61122109375,8.180862913082837C37.56652109375,8.134512913082839,37.54032109375,8.088172913082838,37.52502109375,8.041832913082837C37.51862109375,8.003442913082838,37.51182109375,7.965142913082838,37.50482109375,7.926932913082838C37.50322109375,7.899512913082838,37.50322109375,7.872122913082838,37.50322109375,7.844722913082838L37.49042109375,7.851922913082838L37.49032109375,7.851532913082838L37.50382109375,7.843942913082838C37.50382109375,7.792262913082838,37.48082109375,7.740572913082838,37.45602109375,7.688882913082838C37.40972109375,7.482292913082838,37.35342109375,7.278842913082838,37.28772109375,7.079372913082838C37.28722109375,7.072982913082838,37.28692109375,7.066852913082838,37.28692109375,7.061032913082838L37.28252109375,7.063512913082838C36.60502109375,5.022522913082838,34.95012109375,3.403542913082838,32.98162109375,3.140772913082838L32.98832109375,3.1369629130828383L12.11563109375,0.00097671308283806L12.11386109375,0.001953213082838058L12.109471093749999,0.001953213082838058C11.80062109375,-0.03749218691716194,11.49180109375,-0.03408344691716194,11.187961093750001,0.001953213082838058L10.81961109375,0.001953213082838058L10.64478109375,0.10049391308283806C10.58025109375,0.11611491308283806,10.516101093749999,0.13299191308283806,10.45237109375,0.15102191308283805L10.535241093749999,0.10327391308283806C10.59386109375,0.09055391308283806,10.65247109375,0.06274571308283806,10.71109109375,0.001953213082838058L10.535241093749999,0.10327391308283806C10.485821093750001,0.11399791308283805,10.43641109375,0.11399791308283805,10.38699109375,0.11399791308283805L10.29948109375,0.16332291308283806C10.21193109375,0.19344991308283807,10.121761093749999,0.22630291308283806,10.06326109375,0.22630291308283806L9.89177109375,0.32296491308283803ZM30.56952109375,39.442732913082835L30.47562109375,39.49563291308284C30.48022109375,39.492832913082836,30.48492109375,39.490032913082835,30.48952109375,39.487232913082835L30.58032109375,39.43603291308284C30.57672109375,39.43833291308284,30.57312109375,39.44053291308284,30.56952109375,39.442732913082835ZM29.65862109375,20.99003291308284L29.65862109375,20.990432913082838L29.69672109375,20.969032913082838L29.65862109375,20.99003291308284ZM29.69672109375,28.812732913082836L29.65862109375,28.833732913082837L29.65862109375,28.83423291308284L29.69672109375,28.812732913082836ZM5.04605809375,3.035382913082838Q5.04466909375,3.036012913082838,5.04328209375,3.036642913082838L5.05721309375,3.028792913082838L5.05782309375,3.028752913082838L5.04605809375,3.035382913082838ZM6.66582109375,2.769782913082838L6.6629010937499995,2.771392913082838L6.66576109375,2.769782913082838L6.66582109375,2.769782913082838ZM29.69672109375,13.125732913082839L29.65862109375,13.147232913082838L29.65862109375,13.146732913082838L29.69672109375,13.125732913082839Z" fill-rule="evenodd" fill="url(#master_svg1_235_84228)" fill-opacity="1"/></g><g><g><path d="M27.996378125,5.93775265625C30.589178125,6.2738826562500005,32.641778125,8.96296265625,32.641778125,11.87612265625L32.641778125,35.40552265625C32.641778125,38.31872265625,30.589178125,40.33552265625,27.996378125,39.88732265625L7.037988125,36.75002265625C4.445198125,36.41392265625,2.392578125,33.72482265625,2.392578125,30.81172265625L2.392578125,7.28229265625C2.392578125,4.48117265625,4.553238125,2.35231765625,7.037988125,2.80049745625L27.996378125,5.93775265625ZM24.539278125,15.90972265625C25.187478125,16.021822656250002,25.727678125,15.46152265625,25.727678125,14.78932265625C25.727678125,14.00502265625,25.187478125,13.44472265625,24.539278125,13.33272265625L15.248478125,11.87612265625C14.600278125,11.76408265625,14.060078125,12.32430265625,14.060078125,12.99662265625C14.060078125,13.66882265625,14.600278125,14.34112265625,15.248478125,14.45312265625L24.539278125,15.90972265625ZM24.431278125,31.59602265625C25.079478125,31.70802265625,25.619678125,31.14782265625,25.619678125,30.47552265625C25.619678125,29.69122265625,25.079478125,29.13102265625,24.431278125,29.01902265625L15.140478125,27.56242265625C14.492278125,27.45032265625,13.952078125,28.01062265625,13.952078125,28.68282265625C13.952078125,29.35512265625,14.492278125,30.02742265625,15.140478125,30.13942265625L24.431278125,31.59602265625ZM24.431278125,23.75292265625C25.079478125,23.86492265625,25.619678125,23.30472265625,25.619678125,22.63242265625C25.619678125,21.84812265625,25.079478125,21.28792265625,24.431278125,21.17582265625L15.140478125,19.71922265625C14.492278125,19.60722265625,13.952078125,20.16742265625,13.952078125,20.83972265625C13.952078125,21.51202265625,14.492278125,22.18422265625,15.140478125,22.29632265625L24.431278125,23.75292265625ZM10.603068125,13.78092265625C11.251268125,13.89292265625,11.791438125,13.33272265625,11.791438125,12.66044265625C11.791438125,11.87612265625,11.251268125,11.31590265625,10.603068125,11.20386265625C9.954878125,11.09181265625,9.414708125,11.53999265625,9.414708125,12.32430265625C9.414708125,12.99662265625,9.954878125,13.66882265625,10.603068125,13.78092265625ZM10.495038125,29.46712265625C11.143238125,29.57922265625,11.683398125,29.01902265625,11.683398125,28.34672265625C11.683398125,27.56242265625,11.143238125,27.00222265625,10.495038125,26.89012265625C9.846848125000001,26.77812265625,9.306678125000001,27.33832265625,9.306678125000001,28.01062265625C9.414708125,28.68282265625,9.846848125000001,29.35512265625,10.495038125,29.46712265625ZM10.495038125,21.62402265625C11.143238125,21.73602265625,11.683398125,21.17582265625,11.683398125,20.50362265625C11.683398125,19.71922265625,11.143238125,19.15902265625,10.495038125,19.04702265625C9.846848125000001,18.93492265625,9.306678125000001,19.49512265625,9.306678125000001,20.16742265625C9.414708125,20.83972265625,9.846848125000001,21.51202265625,10.495038125,21.62402265625Z" fill="url(#master_svg2_246_44379)" fill-opacity="1"/></g></g></g></svg>