<svg xmlns="http://www.w3.org/2000/svg" xmlns:xlink="http://www.w3.org/1999/xlink" fill="none" version="1.1" width="40" height="40" viewBox="0 0 40 40"><defs><clipPath id="master_svg0_357_76750"><rect x="3.35205078125" y="2.55029296875" width="33.1587028503418" height="34.981807708740234" rx="0"/></clipPath><linearGradient x1="0.8483489751815796" y1="-0.10424499958753586" x2="-0.13282546490610148" y2="0.8656265919106776" id="master_svg1_235_84228"><stop offset="0%" stop-color="#35A1A8" stop-opacity="1"/><stop offset="100%" stop-color="#92F8FF" stop-opacity="1"/></linearGradient><linearGradient x1="0.5" y1="1" x2="0.5" y2="0" id="master_svg2_246_44379"><stop offset="0%" stop-color="#EFFEFF" stop-opacity="1"/><stop offset="100%" stop-color="#63F6FF" stop-opacity="1"/></linearGradient></defs><g><g clip-path="url(#master_svg0_357_76750)"><g><g><g><g><path d="M17.581671874999998,4.60805296875L4.022884875,10.64413296875L7.781761875,8.58638296875L3.888671875,10.64411296875L7.6475518749999996,8.586362968749999L7.781761875,8.58638296875L20.119671875,3.2186749687500003L21.340571875,2.55029296875L21.877571875,2.55029296875C22.146071875,2.55029296875,22.280271875,2.68747696875,22.414471875,2.82465996875L35.973371875,12.83909296875L36.107571875,12.83909296875L36.026571875,12.88189296875C36.527671875,13.30559296875,36.765271875,14.09219296875,36.376071875,14.62239296875Q36.376171875,14.75959296875,36.241971875,14.75959296875C36.241871875,14.84439296875,36.190571875,14.87679296875,36.119671875,14.92159296875C36.075971875,14.94919296875,36.024671875,14.98159296875,35.973371875,15.03399296875L32.214471875,17.09169296875L32.482971875000004,16.81739296875L32.617271875,16.68019296875C32.776671875000005,16.354292968750002,32.794071875,15.93169296875,32.669471875,15.55609296875L32.617271875,15.58269296875L32.617271875,15.44549296875C32.617171875,15.43549296875,32.616471875,15.42539296875,32.615071875,15.41529296875C32.575871875000004,15.32719296875,32.528271875,15.24289296875,32.472171875,15.16459296875C32.433871875,15.12109296875,32.391271875,15.07749296875,32.348671875,15.03399296875L32.359771875,15.02799296875C32.345571875000005,15.01289296875,32.330971875,14.99829296875,32.315971875,14.98389296875L32.214471875,15.03399296875L32.312371875,14.98039296875C32.281371875000005,14.95099296875,32.248771875,14.92309296875,32.214471875,14.89679296875L18.720971875,5.01104296875L18.655671875,4.88241296875C18.521371875,4.74523296875,18.252871875,4.74523296875,18.118671875,4.60804296875L17.581671874999998,4.60805296875ZM7.781761875,15.58279296875L4.022884875,17.64049296875L8.050261875,15.85709296875L11.809141875,13.79939296875L7.781761875,15.58279296875ZM36.430971875,20.84239296875L36.425171875,20.84239296875L36.424871875,20.83939296875L36.430971875,20.84239296875ZM36.429971875,20.97999296875L36.435371875,20.97129296875L36.435471875,20.97389296875L36.429971875,20.97999296875ZM36.030071875,27.00729296875L36.032571875,27.00999296875L36.107471875,26.96909296875L36.030071875,27.00729296875ZM36.424871875,27.83579296875L36.510371875,27.79209296875L36.425171875,27.83869296875L36.424871875,27.83579296875ZM36.435371875,27.96759296875L36.435471875,27.97029296875L36.509471875,27.92979296875L36.435371875,27.96759296875ZM35.701671875,29.16329296875L31.987171875,31.03019296875L32.229371875,30.79339296875L32.290671875,30.73149296875L32.290671875,30.73149296875L36.241871875,28.61519296875L36.142271875,28.77379296875C36.031571875,28.93959296875,35.879771875,29.07379296875,35.701671875,29.16329296875M31.811771875,16.81739296875L28.052871875,18.87509296875L31.241171875,21.26429296875C28.130071875,22.66289296875,24.936771875,24.06139296875,21.743371875,25.45999296875C21.686671875,25.41499296875,21.629971875,25.36999296875,21.573271875,25.32499296875C18.001171875,22.49339296875,14.301071875,19.79259296875,10.600891875,17.09179296875L6.842011875,19.14949296875C7.927611875,19.94189296875,9.013221875,20.73429296875,10.095581875,21.52999296875L7.6475518749999996,22.57909296875L3.888902545,24.63669296875L8.050291875,22.85349296875L10.254411874999999,21.64679296875C12.866001875,23.56809296875,15.457771875,25.50959296875,17.984371875,27.51769296875C18.689271875,27.20909296875,19.394071875,26.90039296875,20.097971875,26.59169296875C23.148171875,25.25419296875,26.181871875,23.91659296875,29.126871875,22.57909296875L31.362471875,21.35529296875L32.004871875,21.89319296875C32.064771875000005,21.92989296875,32.120271875,21.96979296875,32.171571875,22.01259296875C32.342871875,22.15569296875,32.465871875000005,22.32819296875,32.541871875,22.51369296875L32.541871875,22.57909296875L32.562871875,22.56839296875C32.695171875,22.94009296875,32.643471875,23.35529296875,32.407671875,23.67659296875C32.407671875,23.80019296875,32.264971875,23.92379296875,32.123571874999996,24.04749296875L31.811771875,23.81379296875L27.775971875,25.87149296875L31.868671875,28.87279296875C32.047471875,28.98239296875,32.188071875,29.11139296875,32.290671875,29.25469296875C32.311871875,29.29649296875,32.335271875000004,29.33819296875,32.368671875000004,29.37989296875C32.396671874999996,29.43199296875,32.420071875000005,29.48559296875,32.438971875,29.54049296875C32.452571875000004,29.58019296875,32.463671875,29.61959296875,32.472471875,29.65949296875L32.405771875,29.69589296875L32.472771875,29.66159296875C32.539871875,29.97029296875,32.376571874999996,30.45039296875,32.175171875000004,30.79339296875L36.241871875,28.61519296875C36.354171875,28.46219296875,36.414271875,28.28779296875,36.430971875,28.10699296875L36.510371875,28.06639296875L36.510371875,27.65489296875L36.402971875,27.71369296875C36.395271875,27.67969296875,36.386371875,27.64589296875,36.376171875,27.61229296875L36.376171875,27.38049296875C36.241871875,27.24339296875,36.241871875,27.10619296875,36.107471875,26.96909296875L36.019171875,26.87859296875L36.107571875,26.83179296875L35.973371875,26.83179296875L35.893471875,26.87559296875C35.890971875,26.87349296875,35.888571875,26.87139296875,35.886071875,26.86939296875C35.883671875000005,26.86729296875,35.881171875,26.86529296875,35.878771875,26.86329296875C35.865671875000004,26.85249296875,35.852571874999995,26.84199296875,35.839171875000005,26.83179296875L32.139171875,24.05909296875C32.325271875,23.97059296875,32.435871875000004,23.94759296875,32.470871875,23.87429296875L35.839171875000005,22.03039296875C35.973371875,22.03039296875,36.107671875,21.89319296875,36.241871875,21.75599296875L36.165871875,21.79759296875L36.167971875,21.79519296875L36.241871875,21.75599296875Q36.305471875,21.70239296875,36.305471875,21.62959296875L36.305471875,21.57279296875L36.305471875,21.52039296875C36.377371875,21.39279296875,36.417771875,21.25369296875,36.430971875,21.11069296875L36.430971875,21.11669296875L36.430971875,20.70519296875L36.402971875,20.71729296875C36.395371875,20.68339296875,36.386371875,20.64949296875,36.376171875,20.61599296875L36.376171875,20.38419296875C36.241871875,20.24699296875,36.241871875,20.10979296875,36.107571875,19.97259296875L36.062871875,19.99709296875Q36.036571875,19.97739296875,35.994771875,19.97359296875C35.977771875,19.95619296875,35.960271875,19.93919296875,35.942471875,19.92269296875L35.928671875,19.87919296875L35.839271875,19.87919296875L35.893471875,19.87919296875C35.875671874999995,19.86409296875,35.857571875000005,19.84949296875,35.839171875000005,19.83539296875L31.811771875,16.81739296875Z" fill-rule="evenodd" fill="url(#master_svg1_235_84228)" fill-opacity="1"/></g><g><g><path d="M32.617192187499995,16.680322217941285C32.4829921875,16.817522217941285,32.3486921875,16.954722217941285,32.0802921875,17.091922217941285L28.0528921875,18.87532221794128L32.0802921875,21.893322217941286C32.617192187499995,22.304922217941286,32.8856921875,23.128022217941282,32.4829921875,23.676722217941283C32.3486921875,23.813922217941283,32.2144921875,24.088322217941283,31.9459921875,24.088322217941283L27.9185921875,25.871622217941283L31.9459921875,28.889722217941284C32.4829921875,29.301222217941284,32.7514921875,30.124322217941284,32.3486921875,30.673122217941284C32.2144921875,30.810222217941284,32.0802921875,31.084622217941284,31.8117921875,31.084622217941284L18.252892187500002,37.120722217941285C17.8501921875,37.257922217941285,17.5816921875,37.257922217941285,17.1789921875,36.983522217941285L3.8886401875,26.831922217941283C3.3516570875,26.420422217941283,3.0831651875,25.597322217941283,3.4859031875,25.048522217941283C3.6201481875,24.911422217941283,3.7543941875,24.774222217941283,4.0228861875,24.637022217941283L8.0502621875,22.853622217941282L4.0228861875,19.835622217941285C3.4859031875,19.424022217941285,3.2174112875,18.60092221794128,3.6201481875,18.052222217941285C3.6201481875,17.777822217941285,3.7543941875,17.640622217941285,4.0228861875,17.640622217941285L8.0502621875,15.857222217941285L4.0228861875,12.839222217941284C3.6201481875,12.564852217941285,3.3516570875,12.153302217941285,3.3516570875,11.604572217941284C3.3516570875,11.193022217941284,3.6201481875,10.781472217941285,4.0228861875,10.644282217941285L17.5816921875,4.608210217941284C17.7159921875,4.471026317941284,17.984492187500003,4.471026317941284,18.118692187500002,4.608210217941284C18.252892187500002,4.608210217941284,18.5213921875,4.7453932179412845,18.6556921875,4.882577217941284L32.2144921875,14.897022217941284C32.7514921875,15.308522217941285,32.8856921875,16.131622217941285,32.617192187499995,16.680322217941285ZM29.2610921875,22.579222217941282L25.7706921875,19.972722217941282L18.6556921875,23.128022217941282C18.5213921875,23.128022217941282,18.3871921875,23.265122217941283,18.252892187500002,23.265122217941283L18.118692187500002,23.128022217941282L17.984492187500003,23.128022217941282L17.8501921875,23.128022217941282C17.7159921875,23.128022217941282,17.5816921875,22.990822217941282,17.4474921875,22.990822217941282L10.3324321875,17.640622217941285L6.842042187500001,19.149622217941285C10.6009321875,21.893322217941286,14.3597921875,24.637022217941283,17.984492187500003,27.517822217941283C21.7432921875,25.871622217941283,25.5021921875,24.225422217941283,29.2610921875,22.579222217941282Z" fill="url(#master_svg2_246_44379)" fill-opacity="1"/></g></g></g></g></g></g></g></svg>