<svg xmlns="http://www.w3.org/2000/svg" xmlns:xlink="http://www.w3.org/1999/xlink" fill="none" version="1.1" width="40" height="39.99995040893555" viewBox="0 0 40 39.99995040893555"><defs><clipPath id="master_svg0_357_76669"><rect x="0" y="0" width="40" height="39.99995040893555" rx="0"/></clipPath><linearGradient x1="0.8483489751815796" y1="-0.10424499958753586" x2="-0.27047338577274355" y2="0.49507477484099127" id="master_svg1_235_84228"><stop offset="0%" stop-color="#35A1A8" stop-opacity="1"/><stop offset="100%" stop-color="#92F8FF" stop-opacity="1"/></linearGradient><mask id="master_svg2_357_76675" style="mask-type:alpha" maskUnits="objectBoundingBox"><g><g><path d="M7.65925328125,35.15039584375L3.70361328125,37.30020484375C3.96159028125,37.12821484375,4.21956628125,36.87024484375,4.30555928125,36.52627484375L8.261203281250001,34.37646484375C8.175213281249999,34.72043484375,8.003223281250001,34.97841084375,7.65925328125,35.15039584375Z" fill="url(#master_svg1_235_84228)" fill-opacity="1"/></g></g></mask><linearGradient x1="0.8483489751815796" y1="-0.10424499958753586" x2="-0.2637597266109738" y2="0.3405939151056663" id="master_svg3_235_84228"><stop offset="0%" stop-color="#35A1A8" stop-opacity="1"/><stop offset="100%" stop-color="#92F8FF" stop-opacity="1"/></linearGradient><linearGradient x1="0.8483489751815796" y1="-0.10424499958753586" x2="-0.25874483805919063" y2="0.31228824784748355" id="master_svg4_235_84228"><stop offset="0%" stop-color="#35A1A8" stop-opacity="1"/><stop offset="100%" stop-color="#92F8FF" stop-opacity="1"/></linearGradient><linearGradient x1="0.8483489751815796" y1="-0.10424499958753586" x2="-0.2606224808869518" y2="0.3221143789618732" id="master_svg5_235_84228"><stop offset="0%" stop-color="#35A1A8" stop-opacity="1"/><stop offset="100%" stop-color="#92F8FF" stop-opacity="1"/></linearGradient><linearGradient x1="0.8483489751815796" y1="-0.10424499958753586" x2="-0.2606224808869518" y2="0.3221143789618732" id="master_svg6_235_84228"><stop offset="0%" stop-color="#35A1A8" stop-opacity="1"/><stop offset="100%" stop-color="#92F8FF" stop-opacity="1"/></linearGradient><linearGradient x1="0.8483489751815796" y1="-0.10424499958753586" x2="-0.2634483091721272" y2="0.33861570416858455" id="master_svg7_235_84228"><stop offset="0%" stop-color="#35A1A8" stop-opacity="1"/><stop offset="100%" stop-color="#92F8FF" stop-opacity="1"/></linearGradient><linearGradient x1="0.8483489751815796" y1="-0.10424499958753586" x2="-0.2634483091721272" y2="0.33861570416858455" id="master_svg8_235_84228"><stop offset="0%" stop-color="#35A1A8" stop-opacity="1"/><stop offset="100%" stop-color="#92F8FF" stop-opacity="1"/></linearGradient><linearGradient x1="0.8483489751815796" y1="-0.10424499958753586" x2="-0.26520348646040914" y2="0.3503005582860591" id="master_svg9_235_84228"><stop offset="0%" stop-color="#35A1A8" stop-opacity="1"/><stop offset="100%" stop-color="#92F8FF" stop-opacity="1"/></linearGradient><linearGradient x1="0.8483489751815796" y1="-0.10424499958753586" x2="0.6396008085884891" y2="1.109961143655324" id="master_svga_235_84228"><stop offset="0%" stop-color="#35A1A8" stop-opacity="1"/><stop offset="100%" stop-color="#92F8FF" stop-opacity="1"/></linearGradient><linearGradient x1="0.8483489751815796" y1="-0.10424499958753586" x2="-0.24792179855906663" y2="0.2660813703106848" id="master_svgb_235_84228"><stop offset="0%" stop-color="#35A1A8" stop-opacity="1"/><stop offset="100%" stop-color="#92F8FF" stop-opacity="1"/></linearGradient><linearGradient x1="0.8483489751815796" y1="-0.10424499958753586" x2="-0.26062251135481834" y2="0.32211454486358304" id="master_svgc_235_84228"><stop offset="0%" stop-color="#35A1A8" stop-opacity="1"/><stop offset="100%" stop-color="#92F8FF" stop-opacity="1"/></linearGradient><mask id="master_svgd_357_76783" style="mask-type:alpha" maskUnits="objectBoundingBox"><g><g><path d="M33.973218125,31.36669921875L30.017578125,33.51650921875L33.973218125,31.36669921875Z" fill="url(#master_svgc_235_84228)" fill-opacity="1"/></g></g></mask><linearGradient x1="0.8483489751815796" y1="-0.10424499958753586" x2="-0.26062251135481834" y2="0.32211454486358304" id="master_svge_235_84228"><stop offset="0%" stop-color="#35A1A8" stop-opacity="1"/><stop offset="100%" stop-color="#92F8FF" stop-opacity="1"/></linearGradient><linearGradient x1="0.8483489751815796" y1="-0.10424499958753586" x2="-0.25901855436795124" y2="0.3136742285598588" id="master_svgf_235_84228"><stop offset="0%" stop-color="#35A1A8" stop-opacity="1"/><stop offset="100%" stop-color="#92F8FF" stop-opacity="1"/></linearGradient><linearGradient x1="0.8483489751815796" y1="-0.10424499958753586" x2="-0.17773512484476886" y2="0.09792311866614622" id="master_svgg_235_84228"><stop offset="0%" stop-color="#35A1A8" stop-opacity="1"/><stop offset="100%" stop-color="#92F8FF" stop-opacity="1"/></linearGradient><mask id="master_svgh_357_76793" style="mask-type:alpha" maskUnits="objectBoundingBox"><g><g><path d="M8.86328125,6.1710998437499995L12.90491125,4.02129684375C13.162891250000001,3.93530484375,13.592851249999999,3.76332084375,14.194801250000001,3.67732784375C15.22670125,3.50534374375,16.34460125,3.50534374375,17.462501250000003,3.67732784375C20.21428125,4.10728884375,23.05198125,5.5691598437500005,25.88978125,8.40689984375C27.35158125,9.95475984375,29.50138125,10.98666984375,32.08118125,11.58860984375C32.76908125,11.76059984375,33.37108125,11.84658984375,34.05898125,11.93257984375C34.91888125,12.10456984375,35.77888125,12.10456984375,36.38078125,12.10456984375L32.42518125,14.25433984375C31.82318125,14.25433984375,30.96328125,14.16833984375,30.10338125,14.08233984375C29.50138125,13.99643984375,28.81348125,13.91043984375,28.12558125,13.73843984375C25.54578125,13.13646984375,23.39598125,12.10456984375,21.93408125,10.55670984375C19.18238125,7.63296984375,16.25861125,6.25709984375,13.50686125,5.82712984375C12.38896125,5.655149843749999,11.271061249999999,5.655149843749999,10.239151249999999,5.82712984375C9.63721125,5.91312984375,9.20725025,5.99911984375,8.86328125,6.1710998437499995Z" fill="url(#master_svgg_235_84228)" fill-opacity="1"/></g></g></mask><linearGradient x1="0.8483489751815796" y1="-0.10424499958753586" x2="-0.25200031804773515" y2="0.2818929138099907" id="master_svgi_235_84228"><stop offset="0%" stop-color="#35A1A8" stop-opacity="1"/><stop offset="100%" stop-color="#92F8FF" stop-opacity="1"/></linearGradient><linearGradient x1="0.8483489751815796" y1="-0.10424499958753586" x2="-0.24369410635882602" y2="0.251116752298547" id="master_svgj_235_84228"><stop offset="0%" stop-color="#35A1A8" stop-opacity="1"/><stop offset="100%" stop-color="#92F8FF" stop-opacity="1"/></linearGradient><linearGradient x1="0.8483489751815796" y1="-0.10424499958753586" x2="-0.229964868615268" y2="0.20941376425513902" id="master_svgk_235_84228"><stop offset="0%" stop-color="#35A1A8" stop-opacity="1"/><stop offset="100%" stop-color="#92F8FF" stop-opacity="1"/></linearGradient><linearGradient x1="0.8483489751815796" y1="-0.10424499958753586" x2="-0.21972029669267726" y2="0.182994964968486" id="master_svgl_235_84228"><stop offset="0%" stop-color="#35A1A8" stop-opacity="1"/><stop offset="100%" stop-color="#92F8FF" stop-opacity="1"/></linearGradient><linearGradient x1="0.8483489751815796" y1="-0.10424499958753586" x2="-0.2197203502736146" y2="0.18299509521677126" id="master_svgm_235_84228"><stop offset="0%" stop-color="#35A1A8" stop-opacity="1"/><stop offset="100%" stop-color="#92F8FF" stop-opacity="1"/></linearGradient><linearGradient x1="0.8483489751815796" y1="-0.10424499958753586" x2="-0.22996492019736162" y2="0.20941390575207874" id="master_svgn_235_84228"><stop offset="0%" stop-color="#35A1A8" stop-opacity="1"/><stop offset="100%" stop-color="#92F8FF" stop-opacity="1"/></linearGradient><linearGradient x1="0.8483489751815796" y1="-0.10424499958753586" x2="-0.23918794712340763" y2="0.2364217580012009" id="master_svgo_235_84228"><stop offset="0%" stop-color="#35A1A8" stop-opacity="1"/><stop offset="100%" stop-color="#92F8FF" stop-opacity="1"/></linearGradient><linearGradient x1="0.8483489751815796" y1="-0.10424499958753586" x2="-0.23918799761035342" y2="0.23642191638496868" id="master_svgp_235_84228"><stop offset="0%" stop-color="#35A1A8" stop-opacity="1"/><stop offset="100%" stop-color="#92F8FF" stop-opacity="1"/></linearGradient><linearGradient x1="0.8483489751815796" y1="-0.10424499958753586" x2="-0.24792175242226475" y2="0.266081199744031" id="master_svgq_235_84228"><stop offset="0%" stop-color="#35A1A8" stop-opacity="1"/><stop offset="100%" stop-color="#92F8FF" stop-opacity="1"/></linearGradient><linearGradient x1="0.8483489751815796" y1="-0.10424499958753586" x2="-0.24792179855906663" y2="0.2660813703106848" id="master_svgr_235_84228"><stop offset="0%" stop-color="#35A1A8" stop-opacity="1"/><stop offset="100%" stop-color="#92F8FF" stop-opacity="1"/></linearGradient><linearGradient x1="0.8483489751815796" y1="-0.10424499958753586" x2="-0.2554788294088547" y2="0.2967662187186837" id="master_svgs_235_84228"><stop offset="0%" stop-color="#35A1A8" stop-opacity="1"/><stop offset="100%" stop-color="#92F8FF" stop-opacity="1"/></linearGradient><linearGradient x1="0.8483489751815796" y1="-0.10424499958753586" x2="-0.2517148938042952" y2="0.2807344632025991" id="master_svgt_235_84228"><stop offset="0%" stop-color="#35A1A8" stop-opacity="1"/><stop offset="100%" stop-color="#92F8FF" stop-opacity="1"/></linearGradient><linearGradient x1="0.8483489751815796" y1="-0.10424499958753586" x2="-0.2517148938042952" y2="0.2807344632025991" id="master_svgu_235_84228"><stop offset="0%" stop-color="#35A1A8" stop-opacity="1"/><stop offset="100%" stop-color="#92F8FF" stop-opacity="1"/></linearGradient><linearGradient x1="0.8483489751815796" y1="-0.10424499958753586" x2="-0.2612275791518509" y2="0.3254550447238125" id="master_svgv_235_84228"><stop offset="0%" stop-color="#35A1A8" stop-opacity="1"/><stop offset="100%" stop-color="#92F8FF" stop-opacity="1"/></linearGradient><linearGradient x1="0.8483489751815796" y1="-0.10424499958753586" x2="-0.2660629701039985" y2="0.35657852597068185" id="master_svgw_235_84228"><stop offset="0%" stop-color="#35A1A8" stop-opacity="1"/><stop offset="100%" stop-color="#92F8FF" stop-opacity="1"/></linearGradient><linearGradient x1="0.8483489751815796" y1="-0.10424499958753586" x2="-0.267718424157384" y2="0.3701121520487003" id="master_svgx_235_84228"><stop offset="0%" stop-color="#35A1A8" stop-opacity="1"/><stop offset="100%" stop-color="#92F8FF" stop-opacity="1"/></linearGradient><linearGradient x1="0.8483489751815796" y1="-0.10424499958753586" x2="-0.27095857924105193" y2="0.4084659524265952" id="master_svgy_235_84228"><stop offset="0%" stop-color="#35A1A8" stop-opacity="1"/><stop offset="100%" stop-color="#92F8FF" stop-opacity="1"/></linearGradient><linearGradient x1="0.8483489751815796" y1="-0.10424499958753586" x2="-0.2645896427117922" y2="0.5496970636994831" id="master_svgz_235_84228"><stop offset="0%" stop-color="#35A1A8" stop-opacity="1"/><stop offset="100%" stop-color="#92F8FF" stop-opacity="1"/></linearGradient><linearGradient x1="0.8483489751815796" y1="-0.10424499958753586" x2="-0.2687305109910094" y2="0.3797165609390445" id="master_svg10_235_84228"><stop offset="0%" stop-color="#35A1A8" stop-opacity="1"/><stop offset="100%" stop-color="#92F8FF" stop-opacity="1"/></linearGradient><linearGradient x1="0.8483489751815796" y1="-0.10424499958753586" x2="-0.26462978561917405" y2="0.3463298566633036" id="master_svg11_235_84228"><stop offset="0%" stop-color="#35A1A8" stop-opacity="1"/><stop offset="100%" stop-color="#92F8FF" stop-opacity="1"/></linearGradient><linearGradient x1="0.8483489751815796" y1="-0.10424499958753586" x2="-0.26462978561917405" y2="0.3463298566633036" id="master_svg12_235_84228"><stop offset="0%" stop-color="#35A1A8" stop-opacity="1"/><stop offset="100%" stop-color="#92F8FF" stop-opacity="1"/></linearGradient><linearGradient x1="0.8483489751815796" y1="-0.10424499958753586" x2="-0.26174032187176427" y2="0.3283612884967887" id="master_svg13_235_84228"><stop offset="0%" stop-color="#35A1A8" stop-opacity="1"/><stop offset="100%" stop-color="#92F8FF" stop-opacity="1"/></linearGradient><linearGradient x1="0.8483489751815796" y1="-0.10424499958753586" x2="-0.26174032187176427" y2="0.3283612884967887" id="master_svg14_235_84228"><stop offset="0%" stop-color="#35A1A8" stop-opacity="1"/><stop offset="100%" stop-color="#92F8FF" stop-opacity="1"/></linearGradient><linearGradient x1="0.8483489751815796" y1="-0.10424499958753586" x2="-0.25171480818540953" y2="0.28073411697919026" id="master_svg15_235_84228"><stop offset="0%" stop-color="#35A1A8" stop-opacity="1"/><stop offset="100%" stop-color="#92F8FF" stop-opacity="1"/></linearGradient><linearGradient x1="0.8483489751815796" y1="-0.10424499958753586" x2="-0.2550989502418143" y2="0.2950676596968469" id="master_svg16_235_84228"><stop offset="0%" stop-color="#35A1A8" stop-opacity="1"/><stop offset="100%" stop-color="#92F8FF" stop-opacity="1"/></linearGradient><linearGradient x1="0.8483489751815796" y1="-0.10424499958753586" x2="-0.23951295894169083" y2="0.2374440807676267" id="master_svg17_235_84228"><stop offset="0%" stop-color="#35A1A8" stop-opacity="1"/><stop offset="100%" stop-color="#92F8FF" stop-opacity="1"/></linearGradient><linearGradient x1="0.8483489751815796" y1="-0.10424499958753586" x2="-0.2352600659974331" y2="0.2244735605916195" id="master_svg18_235_84228"><stop offset="0%" stop-color="#35A1A8" stop-opacity="1"/><stop offset="100%" stop-color="#92F8FF" stop-opacity="1"/></linearGradient><linearGradient x1="0.8483489751815796" y1="-0.10424499958753586" x2="-0.22663864387257016" y2="0.20048000907852537" id="master_svg19_235_84228"><stop offset="0%" stop-color="#35A1A8" stop-opacity="1"/><stop offset="100%" stop-color="#92F8FF" stop-opacity="1"/></linearGradient><linearGradient x1="0.8483489751815796" y1="-0.10424499958753586" x2="-0.21704090141858706" y2="0.17657310363481304" id="master_svg1a_235_84228"><stop offset="0%" stop-color="#35A1A8" stop-opacity="1"/><stop offset="100%" stop-color="#92F8FF" stop-opacity="1"/></linearGradient><linearGradient x1="0.8483489751815796" y1="-0.10424499958753586" x2="-0.21601297628350677" y2="0.17415636145435442" id="master_svg1b_235_84228"><stop offset="0%" stop-color="#35A1A8" stop-opacity="1"/><stop offset="100%" stop-color="#92F8FF" stop-opacity="1"/></linearGradient><linearGradient x1="0.8483489751815796" y1="-0.10424499958753586" x2="-0.24369413204252746" y2="0.25111683947722385" id="master_svg1c_235_84228"><stop offset="0%" stop-color="#35A1A8" stop-opacity="1"/><stop offset="100%" stop-color="#92F8FF" stop-opacity="1"/></linearGradient><linearGradient x1="0.8483489751815796" y1="-0.10424499958753586" x2="-0.15926551310975604" y2="0.06792879803187879" id="master_svg1d_235_84228"><stop offset="0%" stop-color="#35A1A8" stop-opacity="1"/><stop offset="100%" stop-color="#92F8FF" stop-opacity="1"/></linearGradient><linearGradient x1="0.8483489751815796" y1="-0.10424499958753586" x2="0.7221045608939777" y2="1.0771635417827041" id="master_svg1e_235_84228"><stop offset="0%" stop-color="#35A1A8" stop-opacity="1"/><stop offset="100%" stop-color="#92F8FF" stop-opacity="1"/></linearGradient><linearGradient x1="0.5" y1="1" x2="0.5" y2="0" id="master_svg1f_246_44379"><stop offset="0%" stop-color="#EFFEFF" stop-opacity="1"/><stop offset="100%" stop-color="#63F6FF" stop-opacity="1"/></linearGradient></defs><g clip-path="url(#master_svg0_357_76669)"><g><g><g mask="url(#master_svg2_357_76675)"><g><g><path d="M4.3056640625,36.44026301675797L8.261304062499999,34.290453016757965L8.261304062499999,34.376443916757964L4.3056640625,36.44026301675797Q4.3056640625,36.52625301675796,4.3056640625,36.44026301675797Z" fill="url(#master_svg3_235_84228)" fill-opacity="1"/></g><g><path d="M4.3056060586486815,36.52620051675797L8.261249958648682,34.376390516757965L8.261249958648682,34.462381416757964L4.3056060586486815,36.52620051675797Q4.219613858648682,36.52620051675797,4.3056060586486815,36.52620051675797Z" fill="url(#master_svg4_235_84228)" fill-opacity="1"/></g><g><path d="M4.219781756401062,36.61262629800797L8.175421756401061,34.462816298007965L8.175421756401061,34.548807198007964L4.219781756401062,36.61262629800797Z" fill="url(#master_svg5_235_84228)" fill-opacity="1"/></g><g><path d="M4.219781756401062,36.69812421375275L8.175421756401061,34.54831421375275L8.175421756401061,34.634305113752745L4.219781756401062,36.69812421375275Z" fill="url(#master_svg6_235_84228)" fill-opacity="1"/></g><g><path d="M4.2197811625,36.78401301675797L8.1754190625,34.634203016757965Q8.1754190625,34.720193916757964,8.089429062499999,34.720193916757964L4.1337890625,36.87000301675796C4.133788857479,36.78401301675797,4.133788857479,36.78401301675797,4.2197811625,36.78401301675797Z" fill="url(#master_svg7_235_84228)" fill-opacity="1"/></g><g><path d="M4.13335558125,36.87043879800797L8.08899328125,34.720628798007965L8.003003281249999,34.806619698007964L4.04736328125,36.95642879800796Q4.047363486271,36.87043879800797,4.13335558125,36.87043879800797Z" fill="url(#master_svg8_235_84228)" fill-opacity="1"/></g><g><path d="M4.04758228125,36.956431551513674L8.003223281250001,34.80662155151367C7.91723328125,34.89261245151367,7.83124328125,35.06459755151367,7.65925328125,35.06459755151367L3.70361328125,37.214401551513674C3.87559728125,37.12841155151367,3.96158928125,37.04242155151367,4.04758228125,36.956431551513674Z" fill="url(#master_svg9_235_84228)" fill-opacity="1"/></g></g></g></g><g><g><path d="M7.0574140624999995,24.22939984375L11.099054062499999,22.07958984375L8.261304062499999,34.37648984375L4.3056640625,36.44028984375L7.0574140624999995,24.22939984375Z" fill="url(#master_svga_235_84228)" fill-opacity="1"/></g></g><g><g><path d="M8.34716796875,6.343274375L12.302807968749999,4.279461375L12.904757968750001,4.021484375L8.86312196875,6.171294375L8.34716796875,6.343274375Z" fill="url(#master_svgb_235_84228)" fill-opacity="1"/></g></g><g><g mask="url(#master_svgd_357_76783)"><g><g><path d="M30.017578125,33.51650921875L33.973218125,31.36669921875L30.017578125,33.51650921875Z" fill="url(#master_svge_235_84228)" fill-opacity="1"/></g></g></g></g><g><g><path d="M30.447539125,33.25869671875L34.489168125,31.10888671875L34.059208125,31.36686271875L30.017578125,33.51666671875L30.447539125,33.25869671875Z" fill="url(#master_svgf_235_84228)" fill-opacity="1"/></g></g><g><g mask="url(#master_svgh_357_76793)"><g><g><path d="M8.86328125,6.170997691848278L12.90491125,4.021191691848278C12.99091125,4.021191691848278,13.162891250000001,3.9351998918482782,13.334881249999999,3.849207691848278L9.37923425,5.9990176918482785C9.20725025,6.085007691848277,9.03526525,6.085007691848277,8.86328125,6.170997691848278Z" fill="url(#master_svgi_235_84228)" fill-opacity="1"/></g><g><path d="M9.379449725151062,5.999073965051174L13.335089725151061,3.8492679650511743C13.507079725151062,3.7632761650511743,13.765049725151062,3.7632761650511743,14.023029725151062,3.677283965051174L10.067387725151063,5.827093965051175C9.809410725151062,5.9130839650511735,9.551434725151061,5.9130839650511735,9.379449725151062,5.999073965051174Z" fill="url(#master_svgj_235_84228)" fill-opacity="1"/></g><g><path d="M10.066930890083313,5.8271464650511735L14.022570890083312,3.6773386650511743L14.108560890083313,3.6773386650511743C14.366540890083314,3.6773386650511743,14.538530890083312,3.591346465051174,14.796500890083312,3.591346465051174L10.840860890083313,5.741156465051175C10.582884890083314,5.741156465051175,10.410899890083313,5.8271464650511735,10.152923390083313,5.8271464650511735Q10.152923390083313,5.8271464650511735,10.066930890083313,5.8271464650511735Z" fill="url(#master_svgk_235_84228)" fill-opacity="1"/></g><g><path d="M10.92724609375,5.741156465051175L14.882886093749999,3.591346465051174C15.140866093749999,3.591346465051174,15.398846093749999,3.591346465051174,15.656816093749999,3.591346465051174L11.70117709375,5.741156465051175C11.35720709375,5.741156465051175,11.09923009375,5.741156465051175,10.92724609375,5.741156465051175Z" fill="url(#master_svgl_235_84228)" fill-opacity="1"/></g><g><path d="M11.615234375,5.741156465051175L15.656874375000001,3.591346465051174C15.914844375000001,3.591346465051174,16.086834375,3.591346465051174,16.344804375,3.591346465051174L12.389164375,5.741156465051175C12.131188375,5.741156465051175,11.873211375,5.655156465051174,11.615234375,5.741156465051175Z" fill="url(#master_svgm_235_84228)" fill-opacity="1"/></g><g><path d="M12.302734375,5.741156465051175L16.344364374999998,3.591346465051174C16.602344375,3.591346465051174,16.774334375,3.591346465051174,17.032304375,3.6773386650511743L13.076663375,5.8271464650511735C12.732695375,5.741156465051175,12.560711375,5.741156465051175,12.302734375,5.741156465051175Z" fill="url(#master_svgn_235_84228)" fill-opacity="1"/></g><g><path d="M12.99072265625,5.741156465051175L16.94636265625,3.591346465051174C17.11835265625,3.591346465051174,17.29033265625,3.591346465051174,17.46232265625,3.6773386650511743L17.54831265625,3.6773386650511743L13.59266865625,5.8271464650511735L13.50667665625,5.8271464650511735C13.33469165625,5.8271464650511735,13.16270665625,5.741156465051175,12.99072265625,5.741156465051175Z" fill="url(#master_svgo_235_84228)" fill-opacity="1"/></g><g><path d="M13.59326171875,5.827093965051175L17.54890171875,3.677283965051174C17.72089171875,3.677283965051174,17.97886171875,3.7632761650511743,18.15085171875,3.7632761650511743L14.19520671875,5.9130839650511735C14.02322271875,5.9130839650511735,13.85123871875,5.9130839650511735,13.59326171875,5.827093965051175Z" fill="url(#master_svgp_235_84228)" fill-opacity="1"/></g><g><path d="M14.19482421875,5.913519746301175L18.15046421875,3.763709746301174C18.32245421875,3.763709746301174,18.58042421875,3.8497019463011743,18.75241421875,3.9356937463011743L14.79677021875,6.085499746301174C14.62478521875,6.085499746301174,14.45280121875,5.9995097463011735,14.19482421875,5.913519746301175Z" fill="url(#master_svgq_235_84228)" fill-opacity="1"/></g><g><path d="M14.796875,6.084906465051175L18.752515,3.935096465051174C18.924505,4.021088765051174,19.182475,4.021088765051174,19.354465,4.107080465051174L15.39882,6.256886465051174C15.226836,6.1708964650511735,15.054852,6.1708964650511735,14.796875,6.084906465051175Z" fill="url(#master_svgr_235_84228)" fill-opacity="1"/></g><g><path d="M15.39892578125,6.257325059411526L19.35456578125,4.107515059411526C19.52655578125,4.193507359411526,19.78452578125,4.279499059411526,19.95651578125,4.365492059411526L16.00087178125,6.5152950594115255C15.82888678125,6.429305059411526,15.65690378125,6.343315059411525,15.39892578125,6.257325059411526Z" fill="url(#master_svgs_235_84228)" fill-opacity="1"/></g><g><path d="M16.000414848327637,6.515082246301175L19.956054848327636,4.365272246301174C20.214034848327636,4.451264446301174,20.472004848327636,4.537256246301174,20.643994848327637,4.6232492463011745L16.68835184832764,6.773052246301174C16.430375848327635,6.687062246301174,16.258390848327636,6.6010722463011735,16.000414848327637,6.515082246301175Z" fill="url(#master_svgt_235_84228)" fill-opacity="1"/></g><g><path d="M16.68896484375,6.772894746301175L20.64460484375,4.623084746301174C20.90258484375,4.709077046301174,21.07456484375,4.795069746301174,21.33254484375,4.967053746301175L17.29091084375,7.030864746301174C17.11892584375,6.944874746301174,16.86094984375,6.8588847463011735,16.68896484375,6.772894746301175Z" fill="url(#master_svgu_235_84228)" fill-opacity="1"/></g><g><path d="M17.290613174438477,7.030707246301175L21.246253174438475,4.880897246301174C21.504233174438475,5.052882246301174,21.762203174438476,5.224866246301175,22.020183174438476,5.310858246301174L18.064543174438477,7.460667246301174C17.806567174438477,7.288677246301174,17.548589174438476,7.202687246301174,17.290613174438477,7.030707246301175Z" fill="url(#master_svgv_235_84228)" fill-opacity="1"/></g><g><path d="M18.064453125,7.460974818704129L22.020093125,5.311164818704128C22.278073125,5.483148818704128,22.536053125,5.655133818704129,22.794023125,5.827117818704128L18.838383125,7.976924818704129C18.494414125,7.804934818704128,18.236438125,7.632954818704128,18.064453125,7.460974818704129Z" fill="url(#master_svgw_235_84228)" fill-opacity="1"/></g><g><path d="M18.75244140625,7.976996308801175L22.70808140625,5.827186308801174C22.96606140625,5.999171308801174,23.31003140625,6.257147308801174,23.568001406249998,6.429132308801174L19.61236340625,8.578936308801174C19.35438740625,8.320956308801174,19.09641140625,8.148976308801174,18.75244140625,7.976996308801175Z" fill="url(#master_svgx_235_84228)" fill-opacity="1"/></g><g><path d="M19.6982421875,8.578522092339993L23.6538821875,6.4287120923399925C23.9978521875,6.686689092339993,24.3418221875,7.030658092339992,24.7717821875,7.288634092339993L20.8161421875,9.438442092339992C20.3861811875,9.180462092339992,20.0422111875,8.836492092339991,19.6982421875,8.578522092339993Z" fill="url(#master_svgy_235_84228)" fill-opacity="1"/></g><g><path d="M20.73046875,9.438422090051175L24.68610875,7.288612090051174C25.03007875,7.632581090051175,25.46003875,7.976550090051174,25.80400875,8.406512090051175C25.97599875,8.578492090051174,26.14797875,8.750482090051174,26.23396875,8.836472090051174L22.36431875,10.986282090051175C22.19233875,10.814292090051174,22.02034875,10.728302090051175,21.93435875,10.556312090051174C21.50439875,10.212352090051175,21.16042975,9.782382090051174,20.73046875,9.438422090051175Z" fill="url(#master_svgz_235_84228)" fill-opacity="1"/></g><g><path d="M22.3642578125,10.986713773248196L26.3198978125,8.836903773248196C26.4918878125,9.008887773248196,26.6638678125,9.094880773248196,26.8358578125,9.266864773248196L22.8802118125,11.416673773248196C22.7082268125,11.330673773248195,22.5362428125,11.158693773248196,22.3642578125,10.986713773248196Z" fill="url(#master_svg10_235_84228)" fill-opacity="1"/></g><g><path d="M22.8798828125,11.416937715051175L26.8355228125,9.267127715051174C27.0075128125,9.353119815051175,27.1794928125,9.525104715051175,27.3514828125,9.611096715051174L23.3958368125,11.760897715051174C23.2238518125,11.674907715051173,23.0518658125,11.588917715051174,22.8798828125,11.416937715051175Z" fill="url(#master_svg11_235_84228)" fill-opacity="1"/></g><g><path d="M23.39599609375,11.846625215051175L27.35163609375,9.696815215051174C27.52362609375,9.782807315051175,27.69560609375,9.954792215051175,27.86759609375,10.040784215051174L23.99794109375,12.190585215051174C23.73996509375,12.018605215051174,23.56797909375,11.932615215051174,23.39599609375,11.846625215051175Z" fill="url(#master_svg12_235_84228)" fill-opacity="1"/></g><g><path d="M23.998126983642578,12.190363770959378L27.953766983642577,10.040553770959377C28.125756983642578,10.126545870959378,28.29773698364258,10.298530770959378,28.55571698364258,10.384522770959377L24.60007298364258,12.534323770959377C24.34209598364258,12.362343770959377,24.170111983642578,12.276353770959377,23.998126983642578,12.190363770959378Z" fill="url(#master_svg13_235_84228)" fill-opacity="1"/></g><g><path d="M24.51416015625,12.448224908349514L28.46980015625,10.298414908349514C28.64179015625,10.384407008349514,28.89976015625,10.470398908349514,29.07175015625,10.642383908349514L25.11610615625,12.792184908349514C24.94412115625,12.706194908349513,24.77213615625,12.620204908349514,24.51416015625,12.448224908349514Z" fill="url(#master_svg14_235_84228)" fill-opacity="1"/></g><g><path d="M25.20166015625,12.792425996301175L29.15730015625,10.642615996301174C29.41528015625,10.728608596301175,29.58726015625,10.814599996301174,29.84524015625,10.900592996301175L25.88959915625,13.050395996301173C25.63162115625,12.964405996301174,25.37364515625,12.878415996301174,25.20166015625,12.792425996301175Z" fill="url(#master_svg15_235_84228)" fill-opacity="1"/></g><g><path d="M25.88970375061035,13.050726777551175L29.84534375061035,10.900916777551174C30.10332375061035,10.986909377551175,30.36129375061035,11.072900777551174,30.61927375061035,11.158893777551175L26.66363375061035,13.394686777551174C26.405657750610352,13.308696777551173,26.14767975061035,13.136716777551174,25.88970375061035,13.050726777551175Z" fill="url(#master_svg16_235_84228)" fill-opacity="1"/></g><g><path d="M26.66357421875,13.39445961141348L30.61921421875,11.244649611413479C30.96318421875,11.33064221141348,31.22116421875,11.416634611413478,31.56513421875,11.50262661141348L27.60948921875,13.652429611413478C27.26552021875,13.566439611413479,27.00754321875,13.480449611413478,26.66357421875,13.39445961141348Z" fill="url(#master_svg17_235_84228)" fill-opacity="1"/></g><g><path d="M27.609375,13.652767068383694L31.565015,11.502957068383694C31.737005,11.588949668383695,31.908985,11.588949668383695,32.080965,11.588949668383695C32.252955,11.588949668383695,32.424935,11.674942068383693,32.596925,11.674942068383693L28.641285,13.910737068383693C28.469295,13.910737068383693,28.297312,13.824747068383694,28.125327,13.824747068383694C27.953344,13.738757068383693,27.781358,13.652767068383694,27.609375,13.652767068383694Z" fill="url(#master_svg18_235_84228)" fill-opacity="1"/></g><g><path d="M28.6416015625,13.91062820577383L32.5972415625,11.76081820577383C33.0272015625,11.846810805773831,33.3711715625,11.93280220577383,33.801131562500004,12.01879520577383L29.8454915625,14.16859820577383C29.4155325625,13.99661820577383,28.9855715625,13.99661820577383,28.6416015625,13.91062820577383Z" fill="url(#master_svg19_235_84228)" fill-opacity="1"/></g><g><path d="M29.75927734375,14.08238685750723L33.71491734375,11.932576857507229C33.80090734375,11.932576857507229,33.886907343749996,11.932576857507229,33.97289734375,11.932576857507229C34.31686734375,12.01856945750723,34.57483734375,12.01856945750723,34.918807343750004,12.01856945750723L30.96316734375,14.254366857507229C30.70519334375,14.254366857507229,30.36122334375,14.168376857507228,30.01725634375,14.168376857507228C29.93126234375,14.08238685750723,29.84527154375,14.08238685750723,29.75927734375,14.08238685750723Z" fill="url(#master_svg1a_235_84228)" fill-opacity="1"/></g><g><path d="M30.96337890625,14.254340058801175L34.91901890625,12.104530058801174C35.26298890625,12.104530058801174,35.60695890625,12.190522658801175,35.95092890625,12.190522658801175L31.99528890625,14.340330058801174C31.65131590625,14.340330058801174,31.30734890625,14.254340058801175,30.96337890625,14.254340058801175Z" fill="url(#master_svg1b_235_84228)" fill-opacity="1"/></g><g><path d="M31.9951171875,14.340247994897366L35.9507571875,12.190437994897366C36.122747187499996,12.190437994897366,36.2087371875,12.190437994897366,36.2947271875,12.190437994897366L32.3390871875,14.340247994897366C32.2530931875,14.340247994897366,32.0811080875,14.340247994897366,31.9951171875,14.340247994897366Z" fill="url(#master_svg1c_235_84228)" fill-opacity="1"/></g></g></g></g><g><g><path d="M32.3388671875,14.3402396875L36.3805071875,12.1904296875L38.2723271875,12.2764222875L34.2306971875,14.3402396875L32.3388671875,14.3402396875Z" fill="url(#master_svg1d_235_84228)" fill-opacity="1"/></g></g><g><g><path d="M34.230925625,14.3401771875L38.272555625,12.2763671875L34.488895625,31.1086671875L30.447265625,33.2584671875L34.230925625,14.3401771875Z" fill="url(#master_svg1e_235_84228)" fill-opacity="1"/></g></g></g><g><path d="M32.33953203125,14.3404621875L34.23133203125,14.3404621875L30.44773203125,33.258742187500005L30.01773203125,33.5167421875C29.75973203125,33.6887421875,29.41583203125,33.774742187499996,29.07183203125,33.8607421875C28.38383203125,34.0326421875,27.52393203125,34.0326421875,26.75003203125,33.946642187500004C23.99823203125,33.5167421875,20.64453203125,31.6249421875,16.688932031249998,27.4972421875C16.08703203125,26.8953421875,15.48503203125,26.3793421875,14.79713203125,25.9494421875C13.42123203125,25.0035421875,11.95933203125,24.4875421875,10.49749203125,24.2295421875C9.55158203125,24.0575421875,8.605662031249999,24.0575421875,7.65975203125,24.2295421875L7.40177203125,24.2295421875L7.05780203125,24.2295421875L4.30605203125,36.4404421875C4.13407203125,37.0424421875,3.61812203125,37.3863421875,3.01617203125,37.3003421875C2.93018203125,37.3003421875,2.84419203125,37.2143421875,2.6722040312499997,37.2143421875C2.07025803125,36.9564421875,1.64029673125,36.2684421875,1.72628903125,35.6665421875L1.72628903125,35.408542187500004L7.65975203125,9.3529121875L8.34769203125,6.3431841875L8.86364203125,6.1711991875C9.12162203125,6.0852071875,9.55158203125,5.9132231875,10.15353203125,5.8272301875C11.18543203125,5.6552460875,12.30333203125,5.6552460875,13.42123203125,5.8272301875C16.173032031250003,6.2571921875,19.01073203125,7.7190621875000005,21.84843203125,10.5568021875C23.31033203125,12.1046621875,25.46013203125,13.1365721875,28.03993203125,13.7385121875C28.72783203125,13.9105021875,29.32983203125,13.9964921875,30.01773203125,14.0824821875C30.96363203125,14.2544721875,31.73753203125,14.3404621875,32.33953203125,14.3404621875Z" fill="url(#master_svg1f_246_44379)" fill-opacity="1"/></g></g></svg>