<svg xmlns="http://www.w3.org/2000/svg" xmlns:xlink="http://www.w3.org/1999/xlink" fill="none" version="1.1" width="389" height="40" viewBox="0 0 389 40"><defs><filter id="master_svg0_457_81490" filterUnits="objectBoundingBox" color-interpolation-filters="sRGB" x="0" y="0" width="1" height="1"><feFlood flood-opacity="0" result="BackgroundImageFix"/><feBlend mode="normal" in="SourceGraphic" in2="BackgroundImageFix" result="shape"/><feColorMatrix in="SourceAlpha" type="matrix" result="hardAlpha" values="0 0 0 0 0 0 0 0 0 0 0 0 0 0 0 0 0 0 127 0"/><feOffset dy="0" dx="0"/><feGaussianBlur stdDeviation="0.5"/><feComposite in2="hardAlpha" operator="arithmetic" k2="-1" k3="1"/><feColorMatrix type="matrix" values="0 0 0 0 0.42352941632270813 0 0 0 0 0.7803921699523926 0 0 0 0 1 0 0 0 0.5600000023841858 0"/><feBlend mode="normal" in2="shape" result="effect1_innerShadow"/></filter></defs><g><g><g><g><g><path d="M18.3008,1.525430054321289L18.9453,3.634810054321289Q16.2305,4.103560054321289,12.9688,4.279340054321289L12.9688,5.724650054321289L19.4727,5.724650054321289L19.4727,7.755900054321289L17.3438,7.755900054321289L17.3438,11.388740054321289L14.8047,11.388740054321289L14.8047,7.755900054321289L12.9004,7.755900054321289Q12.6562,10.14844005432129,11.543,11.681640054321289Q10.5664,10.841840054321288,9.54102,10.236340054321289Q9.54102,10.36334005432129,9.55078,10.490240054321289L6.875,10.636740054321288L6.875,11.56454005432129L4.47266,11.56454005432129L4.47266,10.753940054321289L0.410156,10.959040054321289L0.292969,8.966840054321288L4.47266,8.83988005432129L4.47266,7.892620054321289L0.878906,7.892620054321289L0.878906,5.9590200543212895Q1.25977,5.255900054321289,1.60156,4.572310054321289L0.429688,4.572310054321289L0.429688,2.5996500543212893L2.51953,2.5996500543212893Q2.80273,1.9355900543212892,3.04688,1.2910600543212891L5.44922,1.4473100543212891Q5.23438,2.033240054321289,4.99023,2.5996500543212893L9.64844,2.5996500543212893L9.64844,4.572310054321289L4.02344,4.572310054321289Q3.64258,5.285200054321289,3.20312,5.978560054321289L4.47266,5.978560054321289L4.47266,4.826210054321289L6.875,4.826210054321289L6.875,5.978560054321289L9.25781,5.978560054321289L9.25781,7.892620054321289L6.875,7.892620054321289L6.875,8.74223005432129L9.57031,8.61527005432129Q9.54102,9.30863005432129,9.54102,10.04104005432129Q10.5078,8.507850054321288,10.5078,5.626990054321289L10.5078,2.2871500543212893Q14.9609,2.209020054321289,18.3008,1.525430054321289ZM2.53906,20.627040054321288L2.53906,11.935540054321288L17.4414,11.935540054321288L17.4414,20.627040054321288L14.8438,20.627040054321288L14.8438,19.86524005432129L5.13672,19.86524005432129L5.13672,20.627040054321288L2.53906,20.627040054321288ZM14.8438,13.927740054321289L5.13672,13.927740054321289L5.13672,14.98244005432129L14.8438,14.98244005432129L14.8438,13.927740054321289ZM5.13672,17.87304005432129L14.8438,17.87304005432129L14.8438,16.81844005432129L5.13672,16.81844005432129L5.13672,17.87304005432129ZM36.9531,14.22074005432129Q38.7695,14.904340054321288,39.6875,15.19734005432129Q39.2578,17.58014005432129,38.877,18.50294005432129Q38.4961,19.425840054321288,37.7002,19.811540054321288Q36.9043,20.197340054321288,35.625,20.197340054321288L33.2422,20.197340054321288Q30.0781,20.197340054321288,30.0781,17.34574005432129L30.0781,12.17974005432129Q28.6328,17.287140054321288,22.6758,20.607440054321287Q21.6797,19.61134005432129,20.332,18.40044005432129Q26.6406,14.962940054321288,27.5684,10.72464005432129L20.5078,10.72464005432129L20.5078,8.166060054321289L28.0469,8.166060054321289Q28.2227,6.779340054321289,28.291,5.060590054321289L21.7578,5.060590054321289L21.7578,2.501990054321289L38.2812,2.501990054321289L38.2812,5.060590054321289L31.2109,5.060590054321289Q31.1133,6.710980054321289,30.918,8.166060054321289L39.4922,8.166060054321289L39.4922,10.72464005432129L30.459,10.72464005432129Q30.3125,11.388740054321289,30.127,11.994140054321289L32.9102,11.994140054321289L32.9102,16.29104005432129Q32.9102,17.67774005432129,34.3359,17.67774005432129L34.9414,17.67774005432129Q35.4395,17.67774005432129,35.9033,17.51174005432129Q36.3672,17.34574005432129,36.5723,16.52544005432129Q36.7773,15.705140054321289,36.9531,14.22074005432129ZM40.7422,5.216840054321289L42.2656,5.216840054321289Q41.748,4.171920054321289,40.8789,2.990270054321289L42.6367,1.896520054321289Q43.2422,2.619180054321289,44.2773,4.162150054321289L42.5195,5.216840054321289L44.707,5.216840054321289L44.707,1.3887100543212891L47.1875,1.3887100543212891L47.1875,5.216840054321289L49.2383,5.216840054321289L47.6172,4.162150054321289Q48.5938,2.970740054321289,49.2578,1.837930054321289L51.0938,2.931680054321289Q50.4395,4.044960054321289,49.4727,5.216840054321289L50.6055,5.216840054321289L50.6055,7.2090200543212895L47.1875,7.2090200543212895L47.1875,8.576210054321288L47.8516,7.6777700543212895Q49.0723,8.332070054321289,50.166,8.966840054321288Q51.7676,5.998090054321289,52.9297,1.2910600543212891L55.6055,1.5449600543212891Q55.2148,3.058630054321289,54.7754,4.435590054321289L59.668,4.435590054321289L59.668,6.818400054321289L58.877,6.818400054321289Q58.457,11.994140054321289,56.6797,15.324240054321288Q57.9297,16.77934005432129,59.7461,17.83404005432129Q59.043,18.634840054321288,58.0469,20.43164005432129Q56.3379,19.28914005432129,55.0879,17.65824005432129Q53.4766,19.55274005432129,51.3477,20.724640054321288Q50.5566,19.60164005432129,49.5996,18.61524005432129L48.9062,19.76764005432129Q47.7344,19.09384005432129,46.3477,18.40044005432129Q44.209,19.82624005432129,41.2305,20.43164005432129Q40.8789,19.357440054321287,40.1953,18.02934005432129Q42.2363,17.814540054321288,43.7891,17.20904005432129Q42.4414,16.613340054321288,40.9375,15.998040054321288Q41.6016,15.03124005432129,42.1289,14.06454005432129L40.5273,14.06454005432129L40.5273,12.07234005432129L43.0957,12.07234005432129Q43.418,11.30084005432129,43.6523,10.529340054321288L44.707,10.62704005432129L44.707,8.75199005432129Q43.2617,10.275440054321288,41.0742,11.584040054321289Q40.6641,10.275440054321288,40.1562,9.24027005432129Q42.0996,8.488320054321289,43.6621,7.2090200543212895L40.7422,7.2090200543212895L40.7422,5.216840054321289ZM53.7305,7.375040054321289Q54.1211,10.62704005432129,55.0977,12.81454005432129Q56.2598,10.25594005432129,56.4844,6.818400054321289L53.9453,6.818400054321289Q53.8477,7.101600054321289,53.7305,7.375040054321289ZM47.1875,11.076240054321289L46.2012,11.076240054321289Q45.9766,11.55474005432129,45.7031,12.07234005432129L50.2539,12.07234005432129L50.2539,13.888740054321289Q49.4922,15.480540054321288,48.3496,16.710940054321288L50.293,17.482440054321287L49.9023,18.11724005432129Q52.0605,16.99414005432129,53.584,15.20704005432129Q52.627,13.244140054321289,52.1191,10.812540054321289Q51.7773,11.427740054321289,51.4258,11.994140054321289Q50.9766,11.212940054321288,50.3809,10.382840054321289L49.8047,11.25204005432129Q48.5938,10.431640054321289,47.1875,9.591840054321288L47.1875,11.076240054321289ZM44.0625,15.080140054321289L46.0938,15.841840054321288Q46.9727,15.080140054321289,47.5391,14.06454005432129L44.6387,14.06454005432129L44.0625,15.080140054321289ZM79.668,12.013740054321289L75.2148,12.013740054321289L75.2148,13.654340054321288L78.4961,13.654340054321288L78.4961,20.66604005432129L76.1914,20.66604005432129L76.1914,19.689540054321288L71.8359,19.689540054321288L71.8359,20.66604005432129L69.5312,20.66604005432129L69.5312,13.654340054321288L72.7539,13.654340054321288L72.7539,12.013740054321289L69.3359,12.013740054321289Q68.9844,17.36524005432129,66.8359,20.509840054321288Q66.0156,19.43554005432129,65.0781,18.51764005432129Q67.0312,15.09964005432129,67.0312,9.24027005432129L67.0312,2.111370054321289L78.8477,2.111370054321289L78.8477,8.22465005432129L75.2148,8.22465005432129L75.2148,9.962930054321289L79.668,9.962930054321289L79.668,12.013740054321289ZM60.5273,5.041060054321289L62.3828,5.041060054321289L62.3828,1.584020054321289L64.7461,1.584020054321289L64.7461,5.041060054321289L66.4258,5.041060054321289L66.4258,7.541060054321289L64.7461,7.541060054321289L64.7461,10.275440054321288Q65.5859,10.09964005432129,66.5234,9.86527005432129Q66.4258,11.427740054321289,66.4453,12.404340054321288Q65.5859,12.619140054321289,64.7461,12.834040054321289L64.7461,18.18554005432129Q64.7461,20.35354005432129,62.9688,20.412140054321288Q61.9336,20.509840054321288,60.9766,20.47074005432129Q60.7812,19.31844005432129,60.4102,17.93164005432129Q61.0547,17.95124005432129,61.7188,17.97074005432129Q62.3828,17.99024005432129,62.3828,17.03324005432129L62.3828,13.43954005432129Q61.4453,13.69344005432129,60.5078,13.927740054321289L60.293,11.23244005432129Q61.1719,11.056640054321289,62.3828,10.802740054321289L62.3828,7.541060054321289L60.5273,7.541060054321289L60.5273,5.041060054321289ZM76.4453,6.173870054321289L76.4453,4.162150054321289L69.4141,4.162150054321289L69.4141,6.173870054321289L76.4453,6.173870054321289ZM76.1914,15.705140054321289L71.8359,15.705140054321289L71.8359,17.63874005432129L76.1914,17.63874005432129L76.1914,15.705140054321289ZM72.7539,9.962930054321289L72.7539,8.22465005432129L69.4141,8.22465005432129L69.4141,9.962930054321289L72.7539,9.962930054321289Z" fill="#B7E3FF" fill-opacity="1"/></g></g></g></g><g filter="url(#master_svg0_457_81490)"><g><rect x="0" y="32" width="63.16666793823242" height="8" rx="0" fill="#00B7FF" fill-opacity="0.20000000298023224"/><rect x="0.5" y="32.5" width="62.16666793823242" height="7" rx="0" fill-opacity="0" stroke-opacity="0.5" stroke="#1470CC" fill="none" stroke-width="1"/></g><g><rect x="65.16667175292969" y="32" width="63.16666793823242" height="8" rx="0" fill="#00B7FF" fill-opacity="0.20000000298023224"/><rect x="65.66667175292969" y="32.5" width="62.16666793823242" height="7" rx="0" fill-opacity="0" stroke-opacity="0.5" stroke="#1470CC" fill="none" stroke-width="1"/></g><g><rect x="130.33334350585938" y="32" width="63.16666793823242" height="8" rx="0" fill="#00B7FF" fill-opacity="0.20000000298023224"/><rect x="130.83334350585938" y="32.5" width="62.16666793823242" height="7" rx="0" fill-opacity="0" stroke-opacity="0.5" stroke="#1470CC" fill="none" stroke-width="1"/></g><g><rect x="195.50001525878906" y="32" width="63.16666793823242" height="8" rx="0" fill="#00B7FF" fill-opacity="0.20000000298023224"/><rect x="196.00001525878906" y="32.5" width="62.16666793823242" height="7" rx="0" fill-opacity="0" stroke-opacity="0.5" stroke="#1470CC" fill="none" stroke-width="1"/></g><g><rect x="260.66668701171875" y="32" width="63.16666793823242" height="8" rx="0" fill="#00B7FF" fill-opacity="0.20000000298023224"/><rect x="261.16668701171875" y="32.5" width="62.16666793823242" height="7" rx="0" fill-opacity="0" stroke-opacity="0.5" stroke="#1470CC" fill="none" stroke-width="1"/></g><g><rect x="325.8333740234375" y="32" width="63.16666793823242" height="8" rx="0" fill="#00B7FF" fill-opacity="0.20000000298023224"/><rect x="326.3333740234375" y="32.5" width="62.16666793823242" height="7" rx="0" fill-opacity="0" stroke-opacity="0.5" stroke="#1470CC" fill="none" stroke-width="1"/></g></g></g></svg>