<svg xmlns="http://www.w3.org/2000/svg" xmlns:xlink="http://www.w3.org/1999/xlink" fill="none" version="1.1" width="16" height="16" viewBox="0 0 16 16"><g><g><path d="M3,14C2.734893,13.9996,2.480747,13.8942,2.293288,13.7067C2.105829,13.5193,2.000357171,13.2651,2,13L2,3C2.000357171,2.734893,2.105829,2.480747,2.293288,2.293288C2.480747,2.105829,2.734893,2.000357171,3,2L7.5,2L7.5,3L3,3L3,13L13,13L13,8.5L14,8.5L14,13C13.9996,13.2651,13.8942,13.5193,13.7067,13.7067C13.5193,13.8942,13.2651,13.9996,13,14L3,14ZM9,2L9,3L12.293,3L8,7.293L8.707,8L13,3.707L13,7L14,7L14,2.5C14,2.223858,13.7761,2,13.5,2L9,2Z" fill-rule="evenodd" fill="#FFFFFF" fill-opacity="0.8999999761581421"/></g></g></svg>