<svg xmlns="http://www.w3.org/2000/svg" xmlns:xlink="http://www.w3.org/1999/xlink" fill="none" version="1.1" width="389" height="39" viewBox="0 0 389 39"><defs><filter id="master_svg0_442_72688" filterUnits="objectBoundingBox" color-interpolation-filters="sRGB" x="0" y="0" width="1" height="1"><feFlood flood-opacity="0" result="BackgroundImageFix"/><feBlend mode="normal" in="SourceGraphic" in2="BackgroundImageFix" result="shape"/><feColorMatrix in="SourceAlpha" type="matrix" result="hardAlpha" values="0 0 0 0 0 0 0 0 0 0 0 0 0 0 0 0 0 0 127 0"/><feOffset dy="0" dx="0"/><feGaussianBlur stdDeviation="0.5"/><feComposite in2="hardAlpha" operator="arithmetic" k2="-1" k3="1"/><feColorMatrix type="matrix" values="0 0 0 0 0.42352941632270813 0 0 0 0 0.7803921699523926 0 0 0 0 1 0 0 0 0.5600000023841858 0"/><feBlend mode="normal" in2="shape" result="effect1_innerShadow"/></filter></defs><g><g><g><g><g><path d="M11.7578,18L8.16406,18L2.69531,2.88281L6.16211,2.88281L9.67773,13.6641Q9.93164,14.4355,10.0195,15.1191L10.0586,15.1191Q10.1172,14.5527,10.4395,13.6152L13.9355,2.88281L17.3047,2.88281L11.7578,18ZM21.0352,5.64648L25.5664,5.64648Q24.1211,4.41602,22.6172,3.22461L24.082,1.60352Q25.8203,2.79492,27.5977,4.18164Q27.5781,4.2207,26.1719,5.64648L28.6328,5.64648L28.6328,1.42773L31.2891,1.42773L31.2891,5.64648L33.9258,5.64648L32.6172,4.33789Q34.1016,3.14648,35.957,1.56445L37.6953,3.22461Q36.0547,4.57227,34.6484,5.64648L38.9648,5.64648L38.9648,7.95117L32.2656,7.95117Q35.8398,9.2207,38.8281,10.373L37.7344,12.5801Q35.1367,11.3691,31.2891,9.70898L31.2891,11.3105L28.6328,11.3105L28.6328,9.49414Q26.3672,11.3887,22.5391,12.541Q22.0117,11.3691,21.25,10.1582Q24.9609,9.41602,27.0508,7.95117L21.0352,7.95117L21.0352,5.64648ZM20.7031,12.9902L28.4961,12.9902Q28.5742,12.4629,28.5938,11.8574L31.2695,11.8574Q31.2109,12.4629,31.1328,12.9902L39.3164,12.9902L39.3164,15.373L32.5391,15.373Q34.9609,17.7949,39.4922,18.2832Q38.3203,19.8848,37.7539,20.7832Q32.5195,19.6504,30.0781,15.7051Q28.9062,19.123,22.168,20.7246Q21.2109,19.2207,20.5273,18.3418Q25.7617,17.5801,27.5586,15.373L20.7031,15.373L20.7031,12.9902Z" fill="#FF9B00" fill-opacity="1"/></g></g></g></g><g filter="url(#master_svg0_442_72688)"><g><rect x="0" y="31" width="63.16666793823242" height="8" rx="0" fill="#FF9B00" fill-opacity="0.6000000238418579"/><rect x="0.5" y="31.5" width="62.16666793823242" height="7" rx="0" fill-opacity="0" stroke-opacity="1" stroke="#FF9B00" fill="none" stroke-width="1"/></g><g><rect x="65.16667175292969" y="31" width="63.16666793823242" height="8" rx="0" fill="#FF9B00" fill-opacity="0.6000000238418579"/><rect x="65.66667175292969" y="31.5" width="62.16666793823242" height="7" rx="0" fill-opacity="0" stroke-opacity="1" stroke="#FF9B00" fill="none" stroke-width="1"/></g><g><rect x="130.33334350585938" y="31" width="63.16666793823242" height="8" rx="0" fill="#FF9B00" fill-opacity="0.6000000238418579"/><rect x="130.83334350585938" y="31.5" width="62.16666793823242" height="7" rx="0" fill-opacity="0" stroke-opacity="1" stroke="#FF9B00" fill="none" stroke-width="1"/></g><g><rect x="195.50001525878906" y="31" width="63.16666793823242" height="8" rx="0" fill="#FF9B00" fill-opacity="0.6000000238418579"/><rect x="196.00001525878906" y="31.5" width="62.16666793823242" height="7" rx="0" fill-opacity="0" stroke-opacity="1" stroke="#FF9B00" fill="none" stroke-width="1"/></g><g><rect x="260.66668701171875" y="31" width="63.16666793823242" height="8" rx="0" fill="#FF9B00" fill-opacity="0.6000000238418579"/><rect x="261.16668701171875" y="31.5" width="62.16666793823242" height="7" rx="0" fill-opacity="0" stroke-opacity="1" stroke="#FF9B00" fill="none" stroke-width="1"/></g><g><rect x="325.8333740234375" y="31" width="63.16666793823242" height="8" rx="0" fill="#00B7FF" fill-opacity="0.20000000298023224"/><rect x="326.3333740234375" y="31.5" width="62.16666793823242" height="7" rx="0" fill-opacity="0" stroke-opacity="0.5" stroke="#1470CC" fill="none" stroke-width="1"/></g></g></g></svg>