<svg xmlns="http://www.w3.org/2000/svg" xmlns:xlink="http://www.w3.org/1999/xlink" fill="none" version="1.1" width="18" height="18" viewBox="0 0 18 18"><g><rect x="0" y="0" width="18" height="18" rx="9" fill="#FFFF00" fill-opacity="0.10000000149011612"/><rect x="0.5" y="0.5" width="17" height="17" rx="8.5" fill-opacity="0" stroke-opacity="1" stroke="#FFFF00" fill="none" stroke-width="1"/><g><path d="M11.81836,13.5L9.66211,13.5L6.878909999999999,4.42969L8.92969,4.42969L10.57031,10.77539Q10.705079999999999,11.28516,10.77539,12.14648L10.798829999999999,12.14648Q10.82227,11.61914,11.02734,10.75195L12.63867,4.42969L14.6543,4.42969L11.81836,13.5ZM4.11328,6.02344L3.480469,6.02344L3.480469,4.42969L6.621090000000001,4.42969L6.621090000000001,6.02344L5.98828,6.02344L5.98828,11.90625L6.621090000000001,11.90625L6.621090000000001,13.5L3.480469,13.5L3.480469,11.90625L4.11328,11.90625L4.11328,6.02344Z" fill="#FFFF00" fill-opacity="1"/></g></g></svg>