<svg xmlns="http://www.w3.org/2000/svg" xmlns:xlink="http://www.w3.org/1999/xlink" fill="none" version="1.1" width="18" height="18" viewBox="0 0 18 18"><g><rect x="0" y="0" width="18" height="18" rx="9" fill="#FF0000" fill-opacity="0.10000000149011612"/><rect x="0.5" y="0.5" width="17" height="17" rx="8.5" fill-opacity="0" stroke-opacity="1" stroke="#FF0000" fill="none" stroke-width="1"/><g><path d="M7.54688,9.13477L9.222660000000001,9.13477Q9.16406,9.544920000000001,9.08203,9.93164L14.0742,9.93164Q14.0625,10.07227,13.9219,12.7324Q13.8047,14.877,11.40234,14.9121Q10.42969,14.959,9.28125,14.9238Q9.14062,14.0098,8.90625,13.2832Q10.10156,13.377,10.910160000000001,13.377Q12.12891,13.3652,12.22266,12.49805Q12.26953,12.07617,12.29297,11.33789L8.74219,11.33789Q7.81641,14.1387,4.24219,15.1699Q3.726562,14.4551,3.140625,13.7168Q6.01172,13.0254,6.9375,11.33789L3.960938,11.33789L3.960938,9.93164L7.41797,9.93164Q7.5,9.544920000000001,7.54688,9.13477ZM3.105469,8.20898Q9.51562,7.54102,11.98828,6.169919999999999Q11.26172,5.701169999999999,10.58203,5.30273L11.36719,4.18945Q13.0195,5.06836,14.8125,6.205080000000001L13.9453,7.44727Q13.1016,6.88477,12.32812,6.38086L12.90234,7.3418Q9.86719,8.91211,3.703125,9.69727Q3.375,8.74805,3.105469,8.20898ZM6.46875,4.13086L7.55859,5.267580000000001Q5.85938,6.60352,4.13672,7.76367Q3.867188,7.38867,3.175781,6.49805Q5.13281,5.24414,6.46875,4.13086ZM8.191410000000001,3.5800799999999997L9.878910000000001,3.5800799999999997L9.878910000000001,6.93164L8.191410000000001,6.93164L8.191410000000001,3.5800799999999997Z" fill="#FF0000" fill-opacity="1"/></g></g></svg>