<svg xmlns="http://www.w3.org/2000/svg" xmlns:xlink="http://www.w3.org/1999/xlink" fill="none" version="1.1" width="33" height="32.9794921875" viewBox="0 0 33 32.9794921875"><defs><filter id="master_svg0_1479_116599/1326_110442" filterUnits="objectBoundingBox" color-interpolation-filters="sRGB" x="-0.6666661721692397" y="-0.6674254531528554" width="2.3333323443384795" height="2.334850906305711"><feFlood flood-opacity="0" result="BackgroundImageFix"/><feColorMatrix in="SourceAlpha" type="matrix" values="0 0 0 0 0 0 0 0 0 0 0 0 0 0 0 0 0 0 127 0"/><feMorphology radius="2" operator="dilate" in="SourceAlpha" result="effect1_dropShadow"/><feOffset dy="0" dx="0"/><feGaussianBlur stdDeviation="2.5"/><feColorMatrix type="matrix" values="0 0 0 0 1 0 0 0 0 0.9372549057006836 0 0 0 0 0.7882353067398071 0 0 0 1 0"/><feBlend mode="normal" in2="BackgroundImageFix" result="effect1_dropShadow"/><feBlend mode="normal" in="SourceGraphic" in2="effect1_dropShadow" result="shape"/></filter></defs><g><g filter="url(#master_svg0_1479_116599/1326_110442)"><path d="M25.1457,15.92276C24.213,14.82084,23.1616,13.62646,22.048299999999998,12.36206C20.9242,11.08538,19.7619,9.7655,18.7008,8.51403C17.3545,7.18005,15.92439,7.160632,14.69048,8.465246C13.67107,9.60946,12.50908,10.83178,11.38524,12.013919999999999C10.25422,13.20368,9.08479,14.43365,8.051067,15.59404C7.33633,16.407249999999998,7.4703933,17.06139,7.614192,17.37878C7.840024,17.8781,8.353187,18.1765,8.71888,18.1765C8.71888,18.1765,10.312899999999999,18.1765,10.312899999999999,18.1765C10.312899999999999,18.1765,10.312899999999999,23.5933,10.312899999999999,23.5933C10.312899999999999,24.5043,10.9622,25.4795,11.928889999999999,25.4795C11.928889999999999,25.4795,15.018930000000001,25.4795,15.018930000000001,25.4795C15.018930000000001,25.4795,15.018930000000001,20.0928,15.018930000000001,20.0928C15.018930000000001,20.0928,18.398400000000002,20.0928,18.398400000000002,20.0928C18.398400000000002,20.0928,18.398400000000002,25.4795,18.398400000000002,25.4795C18.398400000000002,25.4795,21.5109,25.4795,21.5109,25.4795C22.1112,25.4795,23.1271,24.9935,23.1271,23.1717C23.1271,23.1717,23.1271,18.1765,23.1271,18.1765C23.1271,18.1765,24.2944,18.1765,24.2944,18.1765C24.7519,18.1765,25.1489,17.9342,25.3568,17.528100000000002C25.6032,17.04687,25.5309,16.45465,25.1457,15.92276Z" fill="#FFFFFF" fill-opacity="1"/></g></g></svg>