<svg xmlns="http://www.w3.org/2000/svg" xmlns:xlink="http://www.w3.org/1999/xlink" fill="none" version="1.1" width="20" height="20" viewBox="0 0 20 20"><g><g><path d="M18.6457,9.42276C17.713,8.32084,16.6616,7.12646,15.5483,5.86206C14.4242,4.58538,13.2619,3.2655,12.2008,2.01403C10.8545,0.68005,9.42439,0.660632,8.19048,1.965246C7.17107,3.10946,6.00908,4.33178,4.88524,5.51392C3.75422,6.70368,2.58479,7.93365,1.551067,9.09404C0.83633,9.90725,0.9703933,10.56139,1.114192,10.87878C1.340024,11.3781,1.8531870000000001,11.6765,2.21888,11.6765C2.21888,11.6765,3.8129,11.6765,3.8129,11.6765C3.8129,11.6765,3.8129,17.0933,3.8129,17.0933C3.8129,18.0043,4.4622,18.9795,5.42889,18.9795C5.42889,18.9795,8.518930000000001,18.9795,8.518930000000001,18.9795C8.518930000000001,18.9795,8.518930000000001,13.5928,8.518930000000001,13.5928C8.518930000000001,13.5928,11.8984,13.5928,11.8984,13.5928C11.8984,13.5928,11.8984,18.9795,11.8984,18.9795C11.8984,18.9795,15.0109,18.9795,15.0109,18.9795C15.6112,18.9795,16.6271,18.4935,16.6271,16.6717C16.6271,16.6717,16.6271,11.6765,16.6271,11.6765C16.6271,11.6765,17.7944,11.6765,17.7944,11.6765C18.2519,11.6765,18.6489,11.4342,18.8568,11.0281C19.1032,10.54687,19.0309,9.95465,18.6457,9.42276Z" fill="#FFFFFF" fill-opacity="1"/></g></g></svg>