<svg xmlns="http://www.w3.org/2000/svg" xmlns:xlink="http://www.w3.org/1999/xlink" fill="none" version="1.1" width="16" height="16" viewBox="0 0 16 16"><defs><clipPath id="master_svg0_1479_147905/1331_126086"><rect x="0" y="0" width="16" height="16" rx="0"/></clipPath></defs><g clip-path="url(#master_svg0_1479_147905/1331_126086)"><g><path d="M13.844434561157227,3.93868390625L11.502334561157227,3.93868390625L11.502334561157227,2.37976890625C11.502334561157227,2.00296890625,11.199414561157226,1.60400390625,10.334984561157226,1.60400390625L5.658234561157227,1.60400390625C4.793804561157227,1.60400390625,4.490894561157226,2.00296890625,4.490894561157226,2.37976890625L4.490894561157226,3.93868390625L2.1562055611572264,3.93868390625C1.8311225611572266,3.93868390625,1.5725345611572266,4.19727390625,1.5725345611572266,4.52236390625C1.5725345611572266,4.84744390625,1.8311225611572266,5.1060339062499995,2.1562055611572264,5.1060339062499995L13.851834561157226,5.1060339062499995C14.176834561157227,5.1060339062499995,14.435434561157226,4.84744390625,14.435434561157226,4.52236390625C14.435434561157226,4.19727390625,14.169534561157226,3.93868390625,13.844434561157227,3.93868390625ZM5.658234561157227,6.86443390625C5.658234561157227,6.53934390625,5.9168245611572265,6.28076390625,6.241904561157226,6.28076390625C6.566984561157226,6.28076390625,6.825574561157227,6.53934390625,6.825574561157227,6.86443390625L6.825574561157227,10.71370390625C6.825574561157227,11.03878390625,6.566984561157226,11.29737390625,6.241904561157226,11.29737390625C5.9168245611572265,11.29737390625,5.658234561157227,11.03878390625,5.658234561157227,10.71370390625L5.658234561157227,6.86443390625ZM9.167644561157227,6.86443390625C9.167644561157227,6.53934390625,9.426234561157226,6.28076390625,9.751314561157226,6.28076390625C10.076404561157226,6.28076390625,10.334984561157226,6.53934390625,10.334984561157226,6.86443390625L10.334984561157226,10.71370390625C10.334984561157226,11.03878390625,10.076404561157226,11.29737390625,9.751314561157226,11.29737390625C9.426234561157226,11.29737390625,9.167644561157227,11.03878390625,9.167644561157227,10.71370390625L9.167644561157227,6.86443390625ZM9.751314561157226,6.00000390625L2.732484561157227,6.00000390625L2.732484561157227,13.29220390625C2.732484561157227,13.66900390625,2.9171945611572268,14.00150390625,3.1905645611572266,14.21570390625C3.3900445611572265,14.37090390625,3.6338545611572264,14.45950390625,3.8998345611572267,14.45950390625L12.086034561157227,14.45950390625C12.351934561157227,14.45950390625,12.595834561157227,14.36350390625,12.795234561157226,14.21570390625C13.076034561157227,14.00150390625,13.253334561157226,13.66900390625,13.253334561157226,13.29220390625L13.253334561157226,6.00000390625L9.751314561157226,6.00000390625Z" fill="#FFFFFF" fill-opacity="0.8999999761581421"/></g></g></svg>