<svg xmlns="http://www.w3.org/2000/svg" xmlns:xlink="http://www.w3.org/1999/xlink" fill="none" version="1.1" width="16" height="16" viewBox="0 0 16 16"><defs><clipPath id="master_svg0_1479_147905/1331_126082"><rect x="0" y="0" width="16" height="16" rx="0"/></clipPath></defs><g clip-path="url(#master_svg0_1479_147905/1331_126082)"><g><path d="M9.44951885131836,0.9880370781250001L0.9879908513183594,9.457370078125C0.9876658513183594,9.457700078125,0.9875188513183594,9.457850078125,0.9871938513183593,9.458170078125C0.5973237513183594,9.848380078125,0.5969812513183593,10.479960078125,0.9877218513183594,10.870580078125C0.9887518513183593,10.871580078125,0.9895798513183593,10.872480078125,0.9906108513183594,10.873480078125L5.13620885131836,15.011280078125C5.137068851318359,15.012080078125,5.1377388513183595,15.012780078125,5.13859885131836,15.013680078125C5.528438851318359,15.402280078125,6.158488851318359,15.401280078125,6.548948851318359,15.015180078125C6.550828851318359,15.013280078125,6.55249885131836,15.011580078125,6.554368851318359,15.009780078125L15.01402885131836,6.550050078125C15.40472885131836,6.159420078125,15.40472885131836,5.526610078125,15.01402885131836,5.135990078125L10.86402885131836,0.987549078125C10.47353885131836,0.597026778125,9.840958851318359,0.596923878125,9.45030885131836,0.9872400781249999C9.44998885131836,0.987565078125,9.44983885131836,0.987712078125,9.44951885131836,0.9880370781250001M5.53206885131836,11.706980078125L3.0616088513183595,9.235250078125C2.8907488513183592,9.064300078125,2.8918388513183593,8.786890078125,3.0640488513183595,8.617290078125C3.2344388513183593,8.449480078125,3.508288851318359,8.450520078124999,3.6773988513183595,8.619630078124999L6.148468851318359,11.090680078125C6.317908851318359,11.260180078125,6.31877885131836,11.534580078125,6.150418851318359,11.705080078125C5.98051885131836,11.877180078125,5.703008851318359,11.877980078125,5.53206885131836,11.706980078125M6.76362885131836,9.235350078125L4.913438851318359,7.383990078125C4.742428851318359,7.212870078125,4.743528851318359,6.935210078125,4.91588885131836,6.765450078125C5.0862188513183595,6.597700078125,5.35988885131836,6.598480078125,5.529258851318359,6.767200078125L7.3835388513183595,8.614460078125C7.555568851318359,8.785830078125,7.555658851318359,9.064350078125,7.383738851318359,9.235840078125C7.21231885131836,9.406830078125,6.9347788513183595,9.406610078125,6.76362885131836,9.235350078125M9.84983885131836,8.618630078125001L6.763118851318359,5.531920078125C6.5919188513183595,5.360710078125,6.5919188513183595,5.083140078125,6.763118851318359,4.911930078125C6.9344488513183595,4.740600078125,7.212278851318359,4.740750078125,7.383428851318359,4.912260078125L10.466888851318359,8.002220078125C10.63765885131836,8.173350078125,10.63662885131836,8.450720078125,10.46460885131836,8.620580078125C10.29399885131836,8.789040078125,10.01937885131836,8.788170078125,9.84983885131836,8.618630078125001M8.61640885131836,3.061770078125C8.78770885131836,2.890470078125,9.065428851318359,2.890470078125,9.23671885131836,3.061770078125L11.088328851318359,4.913330078125C11.259628851318359,5.084620078125,11.25952885131836,5.362350078125,11.088328851318359,5.533640078125C10.91702885131836,5.704940078125,10.63926885131836,5.704940078125,10.467968851318359,5.533640078125L8.61640885131836,3.682080078125C8.445118851318359,3.510790078125,8.445118851318359,3.233060078125,8.61640885131836,3.061770078125" fill="#FFFFFF" fill-opacity="1"/></g></g></svg>