<svg xmlns="http://www.w3.org/2000/svg" xmlns:xlink="http://www.w3.org/1999/xlink" fill="none" version="1.1" width="16" height="16" viewBox="0 0 16 16"><defs><clipPath id="master_svg0_1331_126118"><rect x="0" y="0" width="16" height="16" rx="0"/></clipPath></defs><g clip-path="url(#master_svg0_1331_126118)"><g><path d="M9.0002346875,11.494865625L9.0002346875,6.002765625C9.0002346875,5.362715625,10.0000946875,5.362715625,10.0000946875,6.002765625L10.0000946875,11.494865625C10.0001146875,12.134965625,9.0002346875,12.134965625,9.0002346875,11.494865625ZM5.9996746875,11.494865625L5.9996746875,6.002765625C5.9996746875,5.362715625,7.0000146875,5.362715625,7.0000146875,6.002765625L7.0000146875,11.494865625C7.0000146875,12.134965625,5.9996746875,12.134965625,5.9996746875,11.494865625ZM14.5009546875,3.506265625L12.0007546875,3.506265625L12.0007546875,2.507345625C12.0007546875,1.680302625,11.3284546875,1.009765625,10.5160146875,1.009765625L5.4997046875,1.009765625C4.6713546875,1.009765625,3.9994646875,1.680318625,3.9994646875,2.507345625L3.9994646875,3.506265625L1.4992846874999999,3.506265625C0.8583116875,3.506265625,0.8583116875,4.504305625000001,1.4992846874999999,4.504305625000001L14.5009546875,4.504305625000001C15.1414546875,4.504305625000001,15.1414546875,3.506265625,14.5009546875,3.506265625ZM4.9998046875,2.507305625C4.9998046875,2.242065625,5.2340646875,2.007792625,5.4997046875,2.007792625L10.5160046875,2.007792625C10.7816446875,2.007792625,11.0004446875,2.2107256250000002,11.0004446875,2.507305625L11.0004446875,3.506245625L4.9998046875,3.506245625L4.9998046875,2.507305625ZM11.5004546875,14.989865625L4.4993646875,14.989865625C3.6714946875,14.989865625,2.9995946875,14.319365625,2.9995946875,13.492365625L2.9995946875,6.002765625C2.9995946875,5.706165625,3.2338646875,5.503265625,3.4994946875,5.503265625C3.7652046875,5.503265625,3.9994446875,5.706165625,3.9994446875,6.002765625L3.9994446875,13.492365625C3.9994446875,13.757065625,4.2341846875,13.991365625,4.4993446875,13.991365625L11.5004546875,13.991365625C11.7660546875,13.991365625,12.0007546875,13.757065625,12.0007546875,13.492365625L12.0007546875,6.018225625C12.0007546875,5.362735625,13.0006546875,5.362735625,13.0006546875,6.018225625L13.0006546875,13.492365625C13.0006546875,14.319365625,12.3287546875,14.989865625,11.5004546875,14.989865625Z" fill="#000000" fill-opacity="0.6000000238418579" style="mix-blend-mode:passthrough"/></g></g></svg>