<svg xmlns="http://www.w3.org/2000/svg" xmlns:xlink="http://www.w3.org/1999/xlink" fill="none" version="1.1" width="30.71630859375" height="29.644775390625" viewBox="0 0 30.71630859375 29.644775390625"><defs><filter id="master_svg0_1331_127391" filterUnits="objectBoundingBox" color-interpolation-filters="sRGB" x="-0.7635381670416928" y="-0.8194067721776667" width="2.5270763340833855" height="2.6388135443553336"><feFlood flood-opacity="0" result="BackgroundImageFix"/><feColorMatrix in="SourceAlpha" type="matrix" values="0 0 0 0 0 0 0 0 0 0 0 0 0 0 0 0 0 0 127 0"/><feMorphology radius="2" operator="dilate" in="SourceAlpha" result="effect1_dropShadow"/><feOffset dy="0" dx="0"/><feGaussianBlur stdDeviation="2.5"/><feColorMatrix type="matrix" values="0 0 0 0 1 0 0 0 0 0.9372549057006836 0 0 0 0 0.7882353067398071 0 0 0 1 0"/><feBlend mode="normal" in2="BackgroundImageFix" result="effect1_dropShadow"/><feBlend mode="normal" in="SourceGraphic" in2="effect1_dropShadow" result="shape"/></filter></defs><g><g filter="url(#master_svg0_1331_127391)"><path d="M14.465183814697266,14.8488C14.417323814697266,14.90917,14.375883814697266,15.24671,14.375883814697266,15.42638C14.375883814697266,15.96859,14.814873814697265,16.37578,15.357803814697267,16.37578C15.900013814697266,16.37578,16.340073814697266,15.98502,16.340073814697266,15.44281C16.340073814697266,15.26314,16.279703814697264,14.855229999999999,16.195403814697265,14.855229999999999L14.465183814697266,14.8488ZM17.266973814697266,14.85952C17.308403814697265,14.85952,17.323053814697268,15.25564,17.323053814697268,15.42638C17.323053814697268,16.51152,16.443293814697263,17.35841,15.358153814697266,17.35841C14.273373814697266,17.35841,13.393613814697265,16.52795,13.393613814697265,15.443159999999999C13.393613814697265,15.27207,13.375403814697265,14.84487,13.416123814697265,14.84487L7.500003814697266,14.82237L7.500003814697266,20.272C7.500003814697266,21.357100000000003,8.379402814697265,22.1447,9.464183814697266,22.1447L21.252103814697264,22.1447C22.337303814697265,22.1447,23.216303814697266,21.357100000000003,23.216303814697266,20.272L23.216303814697266,14.88916L17.266973814697266,14.85952ZM21.252103814697264,9.64313L18.215703814697264,9.64313L18.215703814697264,8.484055C18.215703814697264,7.941843,17.865303814697263,7.5,17.322693814697267,7.5L13.393613814697265,7.5C12.850693814697266,7.5,12.500643814697266,7.941843,12.500643814697266,8.484055L12.500643814697266,9.64313L9.464183814697266,9.64313C8.379402814697265,9.64313,7.500003814697266,10.34644,7.500003814697266,11.43122L7.500003814697266,13.86975L23.216303814697266,13.929400000000001L23.216303814697266,11.43158C23.216303814697266,10.34644,22.337303814697265,9.64313,21.252103814697264,9.64313ZM17.144103814697267,9.64313L13.215023814697265,9.64313L13.215023814697265,8.97555C13.215023814697265,8.70444,13.613293814697265,8.57157,13.884753814697266,8.57157L16.831563814697265,8.57157C17.102663814697266,8.57157,17.144103814697267,8.70444,17.144103814697267,8.97555L17.144103814697267,9.64313Z" fill="#FFFFFF" fill-opacity="1"/></g></g></svg>