<svg xmlns="http://www.w3.org/2000/svg" xmlns:xlink="http://www.w3.org/1999/xlink" fill="none" version="1.1" width="16" height="16" viewBox="0 0 16 16"><defs><clipPath id="master_svg0_1479_147905/1331_126094"><rect x="0" y="0" width="16" height="16" rx="0"/></clipPath></defs><g clip-path="url(#master_svg0_1479_147905/1331_126094)"><g><path d="M12.23890062713623,10.356547734375L8.49898062713623,15.248877734375C8.24357062713623,15.631077734375,7.681710627136231,15.631077734375,7.42630062713623,15.248877734375L3.6501406271362304,10.356547734375C2.71193362713623,9.243137734375,2.1983784271362303,7.833437734375,2.2005649941362306,6.377447734375C2.1521982271362305,3.129367734375,4.750690627136231,0.459420334375,7.998880627136231,0.419677734375C11.247080627136231,0.459421034375,13.84560062713623,3.129367734375,13.797200627136231,6.377447734375C13.802500627136231,7.846967734375,13.259800627136231,9.265677734375,12.275100627136231,10.356547734375L12.23890062713623,10.356547734375ZM7.998880627136231,3.391317734375C6.37363062713623,3.415157734375,5.075530627136231,4.752197734375,5.0997206271362305,6.377447734375C5.07956062713623,7.999887734375,6.37650062713623,9.332477734375,7.998880627136231,9.356337734375C9.62298062713623,9.336457734375,10.92222062713623,8.001487734375,10.898040627136231,6.377447734375C10.92223062713623,4.752197734375,9.624140627136232,3.415157734375,7.998880627136231,3.391317734375Z" fill="#FFFFFF" fill-opacity="0.8999999761581421"/></g></g></svg>