<svg xmlns="http://www.w3.org/2000/svg" xmlns:xlink="http://www.w3.org/1999/xlink" fill="none" version="1.1" width="30" height="30" viewBox="0 0 30 30"><defs><filter id="master_svg0_1326_110435" filterUnits="objectBoundingBox" color-interpolation-filters="sRGB" x="-0.8" y="-0.8" width="2.6" height="2.6"><feFlood flood-opacity="0" result="BackgroundImageFix"/><feColorMatrix in="SourceAlpha" type="matrix" values="0 0 0 0 0 0 0 0 0 0 0 0 0 0 0 0 0 0 127 0"/><feMorphology radius="2" operator="dilate" in="SourceAlpha" result="effect1_dropShadow"/><feOffset dy="0" dx="0"/><feGaussianBlur stdDeviation="2.5"/><feColorMatrix type="matrix" values="0 0 0 0 1 0 0 0 0 0.9372549057006836 0 0 0 0 0.7882353067398071 0 0 0 1 0"/><feBlend mode="normal" in2="BackgroundImageFix" result="effect1_dropShadow"/><feBlend mode="normal" in="SourceGraphic" in2="effect1_dropShadow" result="shape"/></filter></defs><g><g filter="url(#master_svg0_1326_110435)"><path d="M20.583399999999997,11.36753L18.6269,11.36753L18.6269,9.41159C18.6269,8.356002,17.7706,7.5,16.71473,7.5L9.41216,7.5C8.356256,7.5044351,7.5,8.360438,7.5,9.41603L7.5,16.720869999999998C7.5,17.7765,8.356256,18.6325,9.41216,18.6325L11.36868,18.6325L11.36868,20.5884C11.36868,21.644,12.22493,22.5,13.28083,22.5L20.5878,22.5C21.643700000000003,22.5,22.5,21.644,22.5,20.5884L22.5,13.279119999999999C22.4956,12.22354,21.6393,11.36753,20.583399999999997,11.36753ZM21.244500000000002,20.584C21.244500000000002,20.947699999999998,20.947200000000002,21.244799999999998,20.583399999999997,21.244799999999998L13.276399999999999,21.244799999999998C12.912600000000001,21.244799999999998,12.61535,20.947699999999998,12.61535,20.584L12.61535,18.628L16.71917,18.628C17.775100000000002,18.628,18.6313,17.772,18.6313,16.71644L18.6313,12.61384L20.5878,12.61384C20.9516,12.61384,21.2489,12.911,21.2489,13.27469L21.2489,20.584L21.244500000000002,20.584Z" fill="#FFFFFF" fill-opacity="1"/></g></g></svg>