<svg xmlns="http://www.w3.org/2000/svg" xmlns:xlink="http://www.w3.org/1999/xlink" fill="none" version="1.1" width="20" height="20" viewBox="0 0 20 20"><g><g><path d="M15.5834,6.36753L13.6269,6.36753L13.6269,4.41159C13.6269,3.356002,12.7706,2.5,11.71473,2.5L4.41216,2.5C3.356256,2.5044351,2.5,3.3604380000000003,2.5,4.41603L2.5,11.72087C2.5,12.7765,3.356256,13.6325,4.41216,13.6325L6.3686799999999995,13.6325L6.3686799999999995,15.5884C6.3686799999999995,16.644,7.22493,17.5,8.28083,17.5L15.5878,17.5C16.643700000000003,17.5,17.5,16.644,17.5,15.5884L17.5,8.279119999999999C17.4956,7.22354,16.6393,6.36753,15.5834,6.36753ZM16.244500000000002,15.584C16.244500000000002,15.9477,15.9472,16.244799999999998,15.5834,16.244799999999998L8.276399999999999,16.244799999999998C7.9126,16.244799999999998,7.61535,15.9477,7.61535,15.584L7.61535,13.628L11.71917,13.628C12.7751,13.628,13.6313,12.772,13.6313,11.71644L13.6313,7.61384L15.5878,7.61384C15.9516,7.61384,16.2489,7.911,16.2489,8.27469L16.2489,15.584L16.244500000000002,15.584Z" fill="#FFFFFF" fill-opacity="1"/></g></g></svg>