<svg xmlns="http://www.w3.org/2000/svg" xmlns:xlink="http://www.w3.org/1999/xlink" fill="none" version="1.1" width="20" height="20" viewBox="0 0 20 20"><g><g><path d="M9.107029517822266,9.799239453125C9.059169517822266,9.859609453125,9.017729517822266,10.197149453125,9.017729517822266,10.376819453125C9.017729517822266,10.919029453125,9.456719517822265,11.326219453125,9.999649517822267,11.326219453125C10.541859517822266,11.326219453125,10.981919517822266,10.935459453125,10.981919517822266,10.393249453125C10.981919517822266,10.213579453125,10.921549517822266,9.805669453124999,10.837249517822265,9.805669453124999L9.107029517822266,9.799239453125ZM11.908819517822266,9.809959453125C11.950249517822266,9.809959453125,11.964899517822266,10.206079453125,11.964899517822266,10.376819453125C11.964899517822266,11.461959453125,11.085139517822265,12.308849453125,9.999999517822266,12.308849453125C8.915219517822266,12.308849453125,8.035459517822265,11.478389453125,8.035459517822265,10.393599453124999C8.035459517822265,10.222509453125,8.017249517822265,9.795309453125,8.057969517822265,9.795309453125L2.1418495178222656,9.772809453125L2.1418495178222656,15.222439453125C2.1418495178222656,16.307539453125003,3.021248517822266,17.095139453125,4.106029517822265,17.095139453125L15.893949517822266,17.095139453125C16.979149517822265,17.095139453125,17.858149517822266,16.307539453125003,17.858149517822266,15.222439453125L17.858149517822266,9.839599453125L11.908819517822266,9.809959453125ZM15.893949517822266,4.593569453125L12.857549517822266,4.593569453125L12.857549517822266,3.434494453125C12.857549517822266,2.892282453125,12.507149517822265,2.450439453125,11.964539517822265,2.450439453125L8.035459517822265,2.450439453125C7.492539517822266,2.450439453125,7.142489517822265,2.892282453125,7.142489517822265,3.434494453125L7.142489517822265,4.593569453125L4.106029517822265,4.593569453125C3.021248517822266,4.593569453125,2.1418495178222656,5.296879453124999,2.1418495178222656,6.381659453125L2.1418495178222656,8.820189453125L17.858149517822266,8.879839453125001L17.858149517822266,6.382019453125C17.858149517822266,5.296879453124999,16.979149517822265,4.593569453125,15.893949517822266,4.593569453125ZM11.785949517822266,4.593569453125L7.856869517822266,4.593569453125L7.856869517822266,3.925989453125C7.856869517822266,3.654879453125,8.255139517822265,3.522009453125,8.526599517822266,3.522009453125L11.473409517822265,3.522009453125C11.744509517822266,3.522009453125,11.785949517822266,3.654879453125,11.785949517822266,3.925989453125L11.785949517822266,4.593569453125Z" fill="#FFFFFF" fill-opacity="1"/></g></g></svg>