<svg xmlns="http://www.w3.org/2000/svg" xmlns:xlink="http://www.w3.org/1999/xlink" fill="none" version="1.1" width="19.655517578125" height="20.201583862304688" viewBox="0 0 19.655517578125 20.201583862304688"><defs><clipPath id="master_svg0_1775_27467"><rect x="0" y="0" width="19.655517578125" height="20.201583862304688" rx="0"/></clipPath><linearGradient x1="0.5" y1="0" x2="0.5" y2="1" id="master_svg1_1702_31635"><stop offset="0%" stop-color="#F9FFFF" stop-opacity="1"/><stop offset="100%" stop-color="#00FFFF" stop-opacity="1"/></linearGradient><linearGradient x1="0.5" y1="0" x2="0.5" y2="1" id="master_svg2_1702_31635"><stop offset="0%" stop-color="#F9FFFF" stop-opacity="1"/><stop offset="100%" stop-color="#00FFFF" stop-opacity="1"/></linearGradient></defs><g clip-path="url(#master_svg0_1775_27467)"><g><path d="M9.77075421875,0L9.86314421875,0C10.396804218749999,0.00828667,10.93047421875,0.0763718,11.446484218750001,0.218813C12.25863421875,0.439642,13.02589421875,0.831804,13.68922421875,1.3617C14.76612421875,2.21657,15.56262421875,3.43808,15.91582421875,4.78925C16.18122421875,5.7953,16.20562421875,6.86697,15.98902421875,7.88511C15.82232421875,8.6719,15.50872421875,9.42442,15.07362421875,10.0936C14.89182421875,10.3653,14.70312421875,10.6354,14.47042421875,10.8636C13.00018421875,12.3843,11.52471421875,13.8995,10.05076421875,15.4161C9.92982421875,15.5485,9.70472421875,15.5454,9.586834218749999,15.4103C8.13162421875,13.9122,6.67511421875,12.4157,5.22208421875,10.9153C5.12882421875,10.817,5.02923421875,10.7243,4.94686421875,10.6159C4.36112421875,9.88556,3.93227721875,9.0224,3.70456021875,8.10527C3.46594821875,7.15029,3.44415721875,6.13976,3.63744421875,5.17447C3.87104421875,3.99821,4.43499621875,2.89496,5.23995421875,2.02553C5.859254218749999,1.35364,6.61933421875,0.81971,7.454364218749999,0.473013C8.188284218749999,0.165958,8.97908421875,0.0103024,9.77075421875,0ZM9.44715421875,3.55543C8.729794218750001,3.65487,8.06080421875,4.06674,7.63479421875,4.66786C7.29834421875,5.13505,7.11159421875,5.71333,7.10984421875,6.29474C7.1033142187500005,6.85779,7.26957421875,7.42106,7.57922421875,7.88556C7.92134421875,8.40426,8.43823421875,8.79911,9.02179421875,8.98209C9.591844218750001,9.1644,10.22095421875,9.14469,10.77924421875,8.92722C11.46805421875,8.66361,12.03963421875,8.09765,12.32270421875,7.40068C12.64455421875,6.62822,12.59792421875,5.70639,12.19936421875,4.97268C11.90997421875,4.43113,11.440384218750001,3.99306,10.88645421875,3.75207C10.436034218749999,3.55297,9.93244421875,3.48757,9.44715421875,3.55543Z" fill="url(#master_svg1_1702_31635)" fill-opacity="1"/></g><g><path d="M3.8089858203125,14.622001462402343C4.7263958203125,14.289862462402343,5.6812758203125,14.077769462402344,6.6424758203125,13.933311462402344C7.3990658203125,14.738688462402344,8.1569558203125,15.543171462402343,8.912665820312501,16.349441462402343C9.0898358203125,16.578551462402345,9.3463158203125,16.744061462402342,9.6289458203125,16.790871462402343C9.9697558203125,16.853131462402345,10.3347558203125,16.744741462402345,10.5901458203125,16.504421462402345C11.3877158203125,15.643051462402344,12.1985158203125,14.794231462402344,12.9985158203125,13.934880012402344C13.8172158203125,14.052014462402344,14.6291158203125,14.229168462402344,15.4192158203125,14.479785462402344C16.0819158203125,14.693895462402343,16.7352158203125,14.958841462402344,17.3240158203125,15.341601462402345C17.6537158203125,15.559291462402344,17.9673158203125,15.817081462402344,18.1945158203125,16.148771462402344C18.3678158203125,16.401401462402344,18.4796158203125,16.708681462402343,18.4595158203125,17.021111462402345C18.4417158203125,17.381241462402343,18.2597158203125,17.710251462402343,18.0278158203125,17.972061462402344C17.6158158203125,18.432081462402344,17.074915820312498,18.744071462402346,16.527115820312503,19.00140146240234C15.4513158203125,19.489421462402344,14.2972158203125,19.768251462402343,13.1386158203125,19.952581462402343C12.3064158203125,20.078891462402343,11.4666158203125,20.163551462402346,10.6254458203125,20.180571462402344L10.7058558203125,20.201631462402343L9.4105958203125,20.201631462402343C9.2308158203125,20.185721462402345,9.0501758203125,20.191101462402344,8.8701758203125,20.180571462402344C7.4857958203125,20.121001462402344,6.1011858203125,19.946981462402345,4.7595158203125,19.584601462402343C4.0513058203125,19.388861462402343,3.3513758203125,19.144511462402342,2.7013558203125,18.792221462402345C2.3245858203125,18.585051462402344,1.9608918203124999,18.341161462402344,1.6634438203125,18.023131462402343C1.4538148203125,17.797821462402343,1.2788322203125,17.527041462402345,1.2119338203125,17.219321462402345C1.1498293203125,16.938021462402343,1.1925398203125,16.63813146240234,1.3174028203125001,16.381021462402344C1.4899878203124999,16.019991462402345,1.7822058203125,15.736451462402343,2.0938168203125,15.501061462402344C2.6144058203125002,15.114281462402344,3.2069058203125,14.843954462402344,3.8089858203125,14.622001462402343Z" fill="url(#master_svg2_1702_31635)" fill-opacity="1"/></g></g></svg>