<svg xmlns="http://www.w3.org/2000/svg" xmlns:xlink="http://www.w3.org/1999/xlink" fill="none" version="1.1" width="40.078125" height="52.37841796875" viewBox="0 0 40.078125 52.37841796875"><defs><radialGradient cx="0" cy="0" r="1" gradientUnits="userSpaceOnUse" id="master_svg0_626_47560" gradientTransform="translate(78.41182708740234 6.853842735290527) rotate(180) scale(25.83451271057129 9.766168725262144)"><stop offset="0%" stop-color="#9EE1C3" stop-opacity="1"/><stop offset="100%" stop-color="#A6FF9E" stop-opacity="0"/></radialGradient><radialGradient cx="0" cy="0" r="1" gradientUnits="userSpaceOnUse" id="master_svg1_626_47358" gradientTransform="translate(57.87300491333008 26.18876075744629) rotate(90) scale(25.83451271057129 25.341372793011484)"><stop offset="0%" stop-color="#A1E5B6" stop-opacity="1"/><stop offset="100%" stop-color="#A1E5B6" stop-opacity="0"/></radialGradient><filter id="master_svg2_672_76870" filterUnits="objectBoundingBox" color-interpolation-filters="sRGB" x="-2.7518496383915694" y="-2.3257109532131537" width="6.503699276783139" height="6.814277383032884"><feFlood flood-opacity="0" result="BackgroundImageFix"/><feColorMatrix in="SourceAlpha" type="matrix" values="0 0 0 0 0 0 0 0 0 0 0 0 0 0 0 0 0 0 127 0"/><feOffset dy="4" dx="0"/><feGaussianBlur stdDeviation="5"/><feColorMatrix type="matrix" values="0 0 0 0 0.3273000121116638 0 0 0 0 0.18855240941047668 0 0 0 0 0 0 0 0 1 0"/><feBlend mode="normal" in2="BackgroundImageFix" result="effect1_dropShadow"/><feBlend mode="normal" in="SourceGraphic" in2="effect1_dropShadow" result="shape"/></filter></defs><g transform="matrix(-1,0,0,1,79.15625,0)"><g transform="matrix(0,1,-1,0,52.931562423706055,-52.223066329956055)"><path d="M78.69481437683106,13.852048046875Q91.68911437683106,13.728048046875,104.60141437683106,0.7063050468750001L103.89131437683105,0.002191046874999991Q91.26851437683106,12.732048046875,78.68531437683106,12.852048046875Q65.86181437683105,12.974448046875,52.93144437683105,0.001278046874999994L52.223174376831054,0.707218046875Q65.45071437683106,13.978348046875,78.69481437683106,13.852048046875Z" fill-rule="evenodd" fill="url(#master_svg0_626_47560)" fill-opacity="1"/></g><g><path d="M47.93907356252832,26.223448046875C47.93913459752832,21.717448046875,51.23113631652832,13.593348046875,64.51394631652832,0.354248046875L67.80774631652832,0.930028046875Q56.03527631652832,12.663848046875,55.17182631652832,24.369148046875L52.27067631652832,25.627648046875L52.27072631652832,27.743148046875L55.26174631652832,29.040748046875Q56.52132631652832,40.255948046875,67.80524631652833,51.444948046875L64.51394631652832,52.023248046875C51.22985631652832,38.850848046875,47.93900871252832,30.729348046875,47.93907356252832,26.223448046875Z" fill-rule="evenodd" fill="url(#master_svg1_626_47358)" fill-opacity="1"/></g><g transform="matrix(0,-1,1,0,22.95767593383789,83.59661865234375)" filter="url(#master_svg2_672_76870)"><path d="M53.27714729309082,37.19909135925293L60.54498729309082,37.19909135925293L57.560467293090824,30.31947135925293L56.26164729309082,30.31949934315293L53.27714729309082,37.19909135925293Z" fill="#FFF2B1" fill-opacity="1"/></g></g></svg>