<svg xmlns="http://www.w3.org/2000/svg" xmlns:xlink="http://www.w3.org/1999/xlink" fill="none" version="1.1" width="36" height="36" viewBox="0 0 36 36"><defs><clipPath id="master_svg0_761_65932"><rect x="0" y="0" width="36" height="36" rx="0"/></clipPath></defs><g clip-path="url(#master_svg0_761_65932)"><g><path d="M28.159415625,4.73583984375L28.046515625,4.73583984375L28.046515625,6.54286984375C28.030715625,7.96985984375,26.877615625,9.122639843750001,25.450615625,9.13880984375L10.551365624999999,9.13880984375C9.124375624999999,9.12298984375,7.9716056250000005,7.96985984375,7.955425625,6.54286984375L7.955425625,4.73583984375L7.842575625,4.73583984375C5.852035625,4.74849594375,4.241171725,6.35899984375,4.228515625,8.34989984375L4.228515625,30.13373984375C4.241171725,32.12433984375,5.851675625,33.735139843750005,7.842575625,33.74783984375L28.159415625,33.74783984375C30.149915625,33.735139843750005,31.760815625,32.12463984375,31.773115625,30.13373984375L31.773115625,8.46063984375C31.807915625,6.43845984375,30.197015625,4.77099574375,28.174815625,4.73619103475C28.169915625,4.735839486122,28.164615625,4.735839486122,28.159415625,4.73583984375ZM19.806615625,22.34353984375L10.663865625,22.34353984375C10.164995625,22.34283984375,9.761055625000001,21.93743984375,9.761755625,21.43853984375C9.762455625000001,20.94073984375,10.166055625,20.53753984375,10.663865625,20.53643984375L19.806615625,20.53643984375C20.298415625,20.52903984375,20.702715625,20.92173984375,20.710115625,21.41363984375L20.710115625,21.43993984375C20.677415625,21.92473984375,20.291415625,22.31083984375,19.806615625,22.34353984375ZM25.223815625,17.94293984375L10.663865625,17.94293984375C10.164995625,17.942239843750002,9.761055625000001,17.536939843749998,9.761755625,17.03803984375C9.762455625000001,16.54023984375,10.166055625,16.13703984375,10.663865625,16.135939843750002L25.223815625,16.135939843750002C25.722715625,16.13663984375,26.126615625,16.54203984375,26.125915625,17.04083984375C26.124915625,17.53873984375,25.721615625,17.94193984375,25.223815625,17.94293984375Z" fill="#2D955A" fill-opacity="0.6000000238418579"/></g><g><path d="M11.227185625,7.33182140625L24.771865625,7.33182140625C25.576165625,7.31740140625,26.224865625,6.66877140625,26.239265625,5.86439140625L26.239265625,3.7198614062499997C26.224865625,2.91548840625,25.576165625,2.26685560625,24.771865625,2.25244140625L11.227185625,2.25244140625C10.422812625,2.26685540625,9.774180125,2.91548840625,9.759765625,3.7198614062499997L9.759765625,5.86439140625C9.773828225,6.66912140625,10.422812625,7.31775140625,11.227185625,7.33182140625Z" fill="#2D955A" fill-opacity="0.6000000238418579"/></g></g></svg>