<svg xmlns="http://www.w3.org/2000/svg" xmlns:xlink="http://www.w3.org/1999/xlink" fill="none" version="1.1" width="14" height="14" viewBox="0 0 14 14"><defs><clipPath id="master_svg0_3_00878"><rect x="0" y="0" width="14" height="14" rx="0"/></clipPath></defs><g clip-path="url(#master_svg0_3_00878)"><g><path d="M7.000088046875,1.75C7.385088046875,1.75,7.765428046875,1.7873242,8.137588046874999,1.860838C8.454818046875001,1.922205,8.661738046875,2.229751,8.599048046875,2.546729C8.536368046875001,2.86371,8.227958046874999,3.06934,7.911248046875,3.00534C5.146128046875,2.455152,2.528338046875,4.46369,2.343898046875,7.27697C2.159446046875,10.09025,4.492578046875,12.4234,7.305868046875,12.2389C10.119148046875,12.0545,12.127648046875,9.4367,11.577448046875,6.67159C11.515048046875,6.35533,11.720848046875,6.04833,12.037148046875,5.98597C12.353448046875,5.92362,12.660348046875,6.12953,12.722548046875,6.44584C12.796048046875,6.818,12.833448046875,7.19834,12.833448046875,7.58334C12.833448046875,10.80509,10.221838046875,13.4167,7.000088046875,13.4167C3.778338046875,13.4167,1.166748046875,10.80509,1.166748046875,7.58334C1.166748046875,4.36159,3.778338046875,1.75,7.000088046875,1.75Z" fill="#FFFFFF" fill-opacity="1"/></g><g><path d="M6.999911953125,4.66664640625C7.322301953125001,4.6663264062500005,7.583821953125,4.9275864062500006,7.583821953125,5.24997640625C7.583821953125,5.57237640625,7.322301953125001,5.83363640625,6.999911953125,5.83331640625C6.046771953125,5.83337640625,5.268961953125,6.59618640625,5.250351953125,7.54914640625C5.231741953125,8.50210640625,5.979171953125,9.29470640625,6.931581953125,9.33197640625C7.884001953125,9.36924640625,8.691081953125,8.63747640625,8.747001953125,7.68597640625L8.749911953125,7.58330640625C8.751451953124999,7.26222640625,9.012161953125,7.00275640625,9.333241953125,7.00275640625C9.654321953124999,7.00275640625,9.915041953125,7.26222640625,9.916571953125,7.58330640625C9.916581953125,9.19413640625,8.610741953125,10.49997640625,6.999911953125,10.49997640625C5.389081953125,10.49998640625,4.083251953125,9.19414640625,4.083251953125,7.58331640625C4.083249449725,5.97248640625,5.389081953125,4.66665640625,6.999911953125,4.66664640625ZM13.124911953125,3.08289640625L11.691661953125,2.92364640625L11.532411953125,1.49039340625C11.511351953125,1.30093840625,11.383551953125,1.14033000625,11.203671953125,1.07725840625C11.023781953124999,1.01418680625,10.823671953125,1.05982090625,10.688911953125,1.19464340625L8.658911953125,3.22522640625C8.515561953125001,3.36863640625,8.473981953125,3.58488640625,8.553911953124999,3.77122640625L9.162321953125,5.19281640625C9.212671953125,5.30976640625,9.306011953125001,5.40289640625,9.423071953125,5.45298640625L10.844661953125,6.06256640625C11.030851953125001,6.14223640625,11.246771953125,6.10066640625,11.390071953125,5.95756640625L13.421251953125,3.92639640625C13.556111953125,3.79155640625,13.601681953125,3.59132640625,13.538471953125,3.41140640625C13.475261953125,3.23148640625,13.314471953125,3.10375640625,13.124911953125,3.08289640625ZM11.990321953125001,3.95497640625L10.925751953125001,5.017816406250001L9.995321953125,4.61939640625L9.596911953125,3.68897640625L10.660911953125,2.62497640625L10.750161953125,3.42765640625C10.775961953125,3.65774640625,10.957571953125,3.83935640625,11.187661953125,3.86515640625L11.990341953125,3.95439640625L11.990321953125001,3.95497640625Z" fill="#FFFFFF" fill-opacity="1"/></g><g><path d="M9.120451796874999,4.817138671875L9.818131796875,5.515388671875L7.723952796875,7.6095686718749995C7.531135796875,7.802218671875,7.218649796875,7.8020886718749995,7.025995796875,7.609268671875C6.833341896875,7.4164586718750005,6.833473796875,7.103968671875,7.026289796875,6.911318671875L9.120451796874999,4.817138671875Z" fill="#FFFFFF" fill-opacity="1"/></g></g></svg>