<svg xmlns="http://www.w3.org/2000/svg" xmlns:xlink="http://www.w3.org/1999/xlink" fill="none" version="1.1" width="18" height="18" viewBox="0 0 18 18"><defs><clipPath id="master_svg0_5_18895"><rect x="0" y="0" width="18" height="18" rx="0"/></clipPath></defs><g clip-path="url(#master_svg0_5_18895)"><g><g><path d="M16.162,7.99668C15.9532,7.56548,15.6997,7.09768,15.4095,6.60683C15.2187,6.28483,14.8032,6.17826,14.481,6.36872C14.1588,6.55918,14.0519,6.97466,14.242,7.29701C14.5132,7.75532,14.7492,8.189219999999999,14.9431,8.589220000000001C15.522,9.78381,15.6441,10.49161,15.6441,10.86314C15.6441,13.4394,13.499,15.5303,10.76271,15.6442C8.026440000000001,15.5303,5.88136,13.434,5.88136,10.8645C5.88136,10.48619,6.00339,9.77974,6.58237,8.589220000000001C7.07051,7.61695,7.62599,6.67997,8.24475,5.78513C8.88746,4.83461,9.54237,3.98308,9.96814,3.42443C10.34237,2.94442,10.62712,2.59459,10.76271,2.4373C10.8983,2.59459,11.1831,2.94442,11.5573,3.42443C11.9315,3.90443,12.3058,4.403420000000001,12.6556,4.88885C12.8744,5.19252,13.2978,5.2615,13.6017,5.04296C13.9056,4.82442,13.9749,4.40102,13.7566,4.09698C13.3896,3.58747,13.0125,3.08522,12.6258,2.5905199999999997C12.1403,1.968145,11.7946,1.5559370000000001,11.7186,1.4678010000000001C11.2339,0.844264,10.29155,0.844264,9.80678,1.4678010000000001C9.73085,1.5559370000000001,9.38508,1.968145,8.89966,2.5905199999999997C8.46848,3.14104,7.82712,3.98308,7.18305,4.93224C7.00678,4.69088,6.84678,4.47664,6.71254,4.29901C6.29763,3.75664,6.01153,3.40545,5.9722,3.35934C5.79913,3.10259,5.42121,3.10259,5.24814,3.35934C5.20881,3.40545,4.92271,3.75392,4.5078,4.29901C4.14576,4.7763100000000005,3.59932,5.51936,3.05559,6.34242C2.52636,7.12913,2.05288,7.95194,1.638644,8.80482C1.214237,9.7011,1,10.43738,1,10.99467C1,13.5032,3.04881,15.5466,5.61017,15.6442C5.98332,15.6298,6.35361,15.5729,6.7139,15.4747C7.84802,16.4163,9.26363,16.9531,10.73695,17.0001L10.78847,17.0001C14.2678,16.8646,16.9959,14.1757,17,10.8645C17,10.09568,16.7288,9.15872,16.162,7.99668ZM2.35593,10.99467C2.35593,10.83331,2.4061,10.35466,2.86441,9.38381C3.25195,8.5898,3.69414,7.82366,4.1878,7.0909C4.70983,6.29903,5.23729,5.58309,5.58712,5.12207L5.61017,5.09224L5.63322,5.12207C5.83661,5.39326,6.10237,5.74716,6.38983,6.15395C6.01677,6.75045,5.67418,7.36548,5.36339,7.99668C4.796609999999999,9.15872,4.52542,10.09568,4.52542,10.8645C4.52667,12.0913,4.90851,13.2876,5.61831,14.2883L5.61017,14.2883C3.78373,14.192,2.35593,12.7547,2.35593,10.99467Z" fill="#B7E3FF" fill-opacity="1"/><path d="M15.3028,15.2299Q17.1469,13.4097,17.15,10.86468L17.15,10.8645Q17.15,9.6801,16.2969,7.93092Q15.9814,7.27945,15.5386,6.5305Q15.3638,6.23545,15.0318,6.1503Q14.6997,6.06515,14.4047,6.2396Q14.1096,6.41404,14.0241,6.74601Q13.9387,7.07798,14.1128,7.37322Q14.5226,8.065719999999999,14.8081,8.65465Q15.4941,10.07003,15.4941,10.86314Q15.4941,12.7305,14.1246,14.0698Q12.7552,15.4091,10.76271,15.4941Q8.77138,15.4092,7.40084,14.068Q6.03135,12.7278,6.03136,10.8645Q6.03136,10.06522,6.71727,8.65483Q7.44482,7.20571,8.368120000000001,5.87044Q8.96978,4.98066,10.00623,3.62185Q10.05991,3.55147,10.08744,3.51535Q10.51221,2.9705399999999997,10.76271,2.66961Q11.0134,2.97077,11.439,3.51666Q12.0049,4.2425,12.5339,4.97655Q12.7343,5.25467,13.0726,5.30978Q13.411,5.3649,13.6893,5.16474Q13.9676,4.96458,14.023,4.62627Q14.0784,4.28797,13.8785,4.0095Q13.326,3.24261,12.7439,2.4981299999999997Q12.1689,1.7608350000000002,11.8347,1.37269Q11.4265,0.850148,10.76271,0.850149Q10.0989,0.850149,9.69072,1.372698Q9.3565,1.760893,8.78138,2.4982699999999998Q7.89788,3.62627,7.17866,4.6727Q7.00767,4.44074,6.83221,4.2085799999999995Q6.304,3.51809,6.09157,3.26816Q5.91772,3.01678,5.61017,3.01678Q5.30263,3.01678,5.12878,3.26815Q4.89257,3.54587,4.38844,4.2081599999999995Q3.5928,5.2571,2.93044,6.25974Q2.13043,7.44894,1.503717,8.73929Q0.85,10.11981,0.85,10.99467Q0.85,12.934,2.2382400000000002,14.3293Q3.62036,15.7185,5.60446,15.7941L5.61021,15.7943L5.61597,15.7941Q6.15566,15.7732,6.678,15.6394Q8.44634,17.0771,10.73216,17.1501L10.73456,17.1502L10.7914,17.1502L10.79432,17.15Q13.463,17.046,15.3028,15.2299ZM16.85,10.86431L16.85,10.8645Q16.847,13.2842,15.0921,15.0164Q13.3361,16.7498,10.78556,16.8502L10.73936,16.8502Q8.51904,16.7785,6.80972,15.3593L6.74971,15.3095L6.67446,15.33Q6.15158,15.4725,5.61013,15.4941Q3.74775,15.4212,2.45091,14.1177Q1.15,12.8102,1.15,10.99467Q1.15,10.18725,1.773571,8.87035Q2.39109,7.59894,3.18075,6.4251Q3.83772,5.43062,4.62715,4.38987Q5.13186,3.72682,5.36226,3.45669L5.36777,3.45023L5.37252,3.44319Q5.45773,3.31678,5.61017,3.31678Q5.76261,3.31678,5.84783,3.44319L5.85257,3.45023L5.85808,3.45669Q6.06399,3.6981,6.59287,4.38945Q6.83159,4.70533,7.06192,5.02071L7.18756,5.19274L7.30717,5.01646Q8.066130000000001,3.89799,9.01794,2.68277Q9.59064,1.948484,9.92042,1.565707L9.92288,1.562848L9.9252,1.559868Q10.24374,1.150149,10.76271,1.150149Q11.2817,1.150148,11.6002,1.559868L11.6025,1.562848L11.605,1.565707Q11.9348,1.948447,12.5076,2.6829099999999997Q13.086,3.42275,13.6348,4.18446Q13.7623,4.36205,13.7269,4.57779Q13.6916,4.79354,13.5141,4.92119Q13.3366,5.04883,13.1209,5.01369Q12.9051,4.978540000000001,12.7773,4.80115Q12.245,4.06251,11.6756,3.3322Q11.1398,2.64504,10.87632,2.33936L10.76271,2.20757L10.6491,2.33936Q10.3856,2.6450199999999997,9.84883,3.33351Q9.82288,3.36756,9.7677,3.4399Q8.72605,4.80553,8.121369999999999,5.69982Q7.18613,7.05235,6.44748,8.523620000000001Q5.73136,9.99613,5.73136,10.8645Q5.73136,12.854,7.19102,14.2824Q8.646,15.7062,10.75647,15.7941L10.76271,15.7943L10.76895,15.7941Q12.8805,15.7062,14.3344,14.2843Q15.7941,12.8567,15.7941,10.86314Q15.7941,10.00116,15.078,8.52379Q14.7871,7.92364,14.3712,7.22079Q14.2602,7.03251,14.3146,6.8208Q14.3691,6.60909,14.5573,6.49784Q14.7455,6.38659,14.9573,6.4409Q15.169,6.4952,15.2804,6.68317Q15.7168,7.42141,16.0272,8.062429999999999Q16.849899999999998,9.74923,16.85,10.86431ZM3.19152,13.3709Q4.17312,14.3627,5.60227,14.4381L5.60622,14.4383L5.90861,14.4383L5.74065,14.2015Q4.67729,12.7023,4.67542,10.8645Q4.67542,9.74935,5.49796,8.062940000000001Q5.96108,7.12238,6.51701,6.23348L6.56992,6.14888L6.51233,6.06738Q6.22893,5.66633,5.7645,5.04711Q5.76381,5.04619,5.75191,5.03036L5.61017,4.84692L5.46763,5.0314Q4.6919900000000005,6.05357,4.06339,7.0071Q3.31619,8.1162,2.7287600000000003,9.31977Q2.20593,10.42731,2.20593,10.99467Q2.20593,12.375,3.19152,13.3709ZM5.31809,14.111Q4.20005,13.9635,3.40475,13.1599Q2.50593,12.2516,2.50593,10.99467Q2.50593,10.49456,3.00005,9.44784Q3.57665,8.26653,4.3122,7.17471Q4.89742,6.28701,5.60972,5.34094Q5.96861,5.82119,6.20977,6.15943Q5.67655,7.02112,5.22882,7.93041Q4.37542,9.68008,4.37542,10.8645Q4.3772199999999994,12.6377,5.31809,14.111Z" fill-rule="evenodd" fill="#B7E3FF" fill-opacity="1"/></g><g><path d="M7.0284423828125,9.759377875L7.0284423828125,13.058391875L8.0508123828125,13.058391875L8.0508123828125,11.838041875L8.6094623828125,11.838041875C9.0162423828125,11.838041875,9.3267423828125,11.744481875,9.526072382812501,11.557361875C9.7335623828125,11.352101874999999,9.8431523828125,11.067761875,9.827082382812499,10.776341875C9.8458123828125,10.499421875,9.7474223828125,10.227371875,9.5559023828125,10.026501875C9.3714923828125,9.850226875,9.0948823828125,9.763446875,8.7260723828125,9.763446875L7.0284423828125,9.759377875ZM8.8359023828125,10.800741875C8.8385223828125,10.902081875,8.7945523828125,10.999021875,8.7165823828125,11.063801875C8.5936923828125,11.143511875,8.4474823828125,11.179351875,8.3016623828125,11.165491875L8.0508123828125,11.165491875L8.0508123828125,10.429211875L8.3409823828125,10.429211875C8.4799023828125,10.413041875,8.6196223828125,10.451991875000001,8.7301423828125,10.537691875C8.7992923828125,10.607611875,8.837402382812499,10.702411875,8.8359023828125,10.800741875ZM14.347762382812501,13.058391875L14.347762382812501,8.982421875L13.0826823828125,8.982421875L13.0826823828125,10.408871874999999L11.7064123828125,10.408871874999999L11.7064123828125,8.982421875L10.4467423828125,8.982421875L10.4467423828125,13.058391875L11.7064123828125,13.058391875L11.7064123828125,11.409561875L13.0826823828125,11.409561875L13.0826823828125,13.058391875L14.347762382812501,13.058391875Z" fill="#B7E3FF" fill-opacity="1"/><path d="M12.9326823828125,11.559561875L12.9326823828125,13.208391875L13.0826823828125,13.208391875L14.4977623828125,13.208391875L14.4977623828125,8.832421875L12.9326823828125,8.832421875L12.9326823828125,10.258871875L11.8564123828125,10.258871875L11.8564123828125,8.832421875L10.2967423828125,8.832421875L10.2967423828125,13.208391875L11.8564123828125,13.208391875L11.8564123828125,11.559561875L12.9326823828125,11.559561875ZM13.2326823828125,12.908391875L13.2326823828125,11.259561875L11.5564123828125,11.259561875L11.5564123828125,12.908391875L10.5967423828125,12.908391875L10.5967423828125,9.132421875L11.5564123828125,9.132421875L11.5564123828125,10.558871875L13.2326823828125,10.558871875L13.2326823828125,9.132421875L14.197762382812499,9.132421875L14.197762382812499,12.908391875L13.2326823828125,12.908391875ZM8.7264323828125,9.613446875L8.7260723828125,9.613446875L6.8784423828125,9.609017875L6.8784423828125,13.208391875L8.2008123828125,13.208391875L8.2008123828125,11.988041875L8.6094623828125,11.988041875Q9.2864623828125,11.988041875,9.628732382812501,11.666721875L9.6301623828125,11.665381875L9.6315623828125,11.664001875Q10.0025623828125,11.296981875,9.9773323828125,10.777261875Q10.0074023828125,10.282671875,9.6644623828125,9.922990875L9.6620623828125,9.920472875L9.6595423828125,9.918069875Q9.3409623828125,9.613535875,8.7264323828125,9.613446875ZM7.1784423828125,9.909737875L8.7257123828125,9.913446875L8.7260723828125,9.913446875Q9.2179223828125,9.913446875,9.4497823828125,10.132581875Q9.7022423828125,10.399261875,9.6774323828125,10.766221875L9.6768023828125,10.775401875L9.6773123828125,10.784591875Q9.6988023828125,11.174441875,9.4219923828125,11.449321874999999Q9.1661723828125,11.688041875,8.6094623828125,11.688041875L7.9008153828125,11.688041875L7.9008153828125,12.908391875L7.1784423828125,12.908391875L7.1784423828125,9.909737875ZM8.9859223828125,10.799951875Q8.9881123828125,10.585221875,8.8367823828125,10.432211875L8.8298523828125,10.425201874999999L8.8220523828125,10.419151875Q8.6048423828125,10.250721875,8.3327423828125,10.279211875L7.9008153828125,10.279211875L7.9008153828125,11.315491875L8.2948823828125,11.315491875Q8.5677623828125,11.339131875,8.7982123828125,11.189641875L8.805632382812501,11.184821875L8.8124323828125,11.179171875Q8.990692382812501,11.031081875,8.9859223828125,10.799951875ZM8.6299923828125,10.650001875000001Q8.5090623828125,10.560661875000001,8.3583323828125,10.578211875000001L8.3496823828125,10.579211875L8.2008123828125,10.579211875L8.2008123828125,11.015491875L8.3087723828125,11.015491875L8.3158523828125,11.016161875Q8.4842923828125,11.032171875,8.626952382812501,10.943041875Q8.6881123828125,10.888201875,8.6859523828125,10.804621875L8.6858723828125,10.801531875L8.6859223828125,10.798441875Q8.6872323828125,10.712451875,8.6299923828125,10.650001875000001Z" fill-rule="evenodd" fill="#B7E3FF" fill-opacity="1"/></g></g></g></svg>