<svg xmlns="http://www.w3.org/2000/svg" xmlns:xlink="http://www.w3.org/1999/xlink" fill="none" version="1.1" width="129.2963104248047" height="57.60285186767578" viewBox="0 0 129.2963104248047 57.60285186767578"><defs><linearGradient x1="0.5503860116004944" y1="1.0703589916229248" x2="0.5503860116004944" y2="0.3667660057544708" id="master_svg0_386_38142"><stop offset="0%" stop-color="#00FFEA" stop-opacity="1"/><stop offset="100%" stop-color="#00FFEA" stop-opacity="0.07450980693101883"/></linearGradient></defs><g style="opacity:0.6000000238418579;mix-blend-mode:passthrough"><path d="M89.498,2.16998Q77.6315,0,64.6481,0Q51.6646,7.15256e-7,39.7983,2.16975Q28.2975,4.27268,19.4005,8.11904Q10.3897,12.0146,5.39029,17.1249Q-0.0000038147,22.6348,0,28.8014Q9.53674e-7,34.9681,5.39029,40.4779Q10.3897,45.5882,19.4005,49.4838Q28.2974,53.3301,39.7983,55.4331Q51.6645,57.6028,64.6481,57.6029Q77.6315,57.6028,89.498,55.4329Q100.999,53.3298,109.896,49.4832Q118.907,45.5875,123.906,40.4772Q129.296,34.9675,129.296,28.8014Q129.296,22.6354,123.906,17.1256Q118.907,12.0154,109.896,8.11966Q100.999,4.27308,89.498,2.16998ZM40.3379,5.12082Q51.9366,3,64.6481,3Q77.3595,3,88.9584,5.12105Q100.122,7.16258,108.705,10.8733Q117.175,14.5349,121.762,19.2236Q126.296,23.8588,126.296,28.8014Q126.296,33.7441,121.762,38.3793Q117.175,43.0679,108.705,46.7295Q100.122,50.4403,88.9583,52.4818Q77.3594,54.6028,64.6481,54.6029Q51.9366,54.6028,40.3379,52.482Q29.1737,50.4406,20.591,46.7301Q12.1216,43.0686,7.53475,38.38Q3,33.7447,3,28.8014Q3,23.8582,7.53475,19.2229Q12.1217,14.5342,20.591,10.8727Q29.1737,7.16219,40.3379,5.12082Z" fill-rule="evenodd" fill="url(#master_svg0_386_38142)" fill-opacity="1"/></g></svg>