<svg xmlns="http://www.w3.org/2000/svg" xmlns:xlink="http://www.w3.org/1999/xlink" fill="none" version="1.1" width="14" height="14" viewBox="0 0 14 14"><defs><linearGradient x1="0.5" y1="0" x2="0.5" y2="1" id="master_svg0_2_13307"><stop offset="0%" stop-color="#55B5FF" stop-opacity="1"/><stop offset="100%" stop-color="#0073CB" stop-opacity="1"/></linearGradient></defs><g transform="matrix(1,-7.297247250903638e-10,-1.198815713365775e-9,1,0,0)"><g><rect x="0" y="0" width="14" height="14" rx="2" fill="url(#master_svg0_2_13307)" fill-opacity="1"/></g><g><path d="M4.48102,9.05989C4.48098,9.05985,4.48107,9.05993,4.48102,9.05989C4.48102,9.05989,2.625,7.20387,2.625,7.20387C2.625,7.20387,3.88044,5.98443,3.88044,5.98443C3.88044,5.98443,5.720470000000001,7.82446,5.720470000000001,7.82446C5.720470000000001,7.82446,10.058060000000001,3.5,10.058060000000001,3.5C10.058060000000001,3.5,11.28706,4.72899,11.28706,4.72899C11.28706,4.72899,6.94946,9.05345,6.94946,9.05345C6.94946,9.05345,6.95603,9.06002,6.95603,9.06002C6.95603,9.06002,6.93776,9.077770000000001,6.93776,9.077770000000001C6.8999,9.11453,6.8608,9.14926,6.82059,9.181930000000001C6.82059,9.181930000000001,6.32887,9.67216,6.32887,9.67216C5.987,10.01299,5.43371,10.01257,5.09237,9.671230000000001C5.09237,9.671230000000001,4.48102,9.05989,4.48102,9.05989C4.48102,9.05989,4.48102,9.05989,4.48102,9.05989Z" fill="#FFFFFF" fill-opacity="0.8999999761581421"/></g></g></svg>