<svg xmlns="http://www.w3.org/2000/svg" xmlns:xlink="http://www.w3.org/1999/xlink" fill="none" version="1.1" width="389" height="39" viewBox="0 0 389 39"><defs><filter id="master_svg0_442_72817" filterUnits="objectBoundingBox" color-interpolation-filters="sRGB" x="0" y="0" width="1" height="1"><feFlood flood-opacity="0" result="BackgroundImageFix"/><feBlend mode="normal" in="SourceGraphic" in2="BackgroundImageFix" result="shape"/><feColorMatrix in="SourceAlpha" type="matrix" result="hardAlpha" values="0 0 0 0 0 0 0 0 0 0 0 0 0 0 0 0 0 0 127 0"/><feOffset dy="0" dx="0"/><feGaussianBlur stdDeviation="0.5"/><feComposite in2="hardAlpha" operator="arithmetic" k2="-1" k3="1"/><feColorMatrix type="matrix" values="0 0 0 0 0.42352941632270813 0 0 0 0 0.7803921699523926 0 0 0 0 1 0 0 0 0.5600000023841858 0"/><feBlend mode="normal" in2="shape" result="effect1_innerShadow"/></filter></defs><g><g><g><g><g><path d="M7.57812,10.7246L10.3711,10.7246Q10.2734,11.4082,10.1367,12.0527L18.457,12.0527Q18.4375,12.2871,18.2031,16.7207Q18.0078,20.2949,14.0039,20.3535Q12.3828,20.4316,10.4688,20.373Q10.2344,18.8496,9.84375,17.6387Q11.8359,17.7949,13.1836,17.7949Q15.2148,17.7754,15.3711,16.3301Q15.4492,15.627,15.4883,14.3965L9.57031,14.3965Q8.02734,19.0645,2.07031,20.7832Q1.21094,19.5918,0.234375,18.3613Q5.01953,17.209,6.5625,14.3965L1.60156,14.3965L1.60156,12.0527L7.36328,12.0527Q7.5,11.4082,7.57812,10.7246ZM0.175781,9.18164Q10.8594,8.06836,14.9805,5.7832Q13.7695,5.00195,12.6367,4.33789L13.9453,2.48242Q16.6992,3.94727,19.6875,5.8418L18.2422,7.91211Q16.8359,6.97461,15.5469,6.13477L16.5039,7.73633Q11.4453,10.3535,1.17188,11.6621Q0.625,10.0801,0.175781,9.18164ZM5.78125,2.38477L7.59766,4.2793Q4.76562,6.50586,1.89453,8.43945Q1.44531,7.81445,0.292969,6.33008Q3.55469,4.24023,5.78125,2.38477ZM8.65234,1.4668L11.4648,1.4668L11.4648,7.05273L8.65234,7.05273L8.65234,1.4668ZM31.7578,18L28.1641,18L22.6953,2.88281L26.1621,2.88281L29.6777,13.6641Q29.9316,14.4355,30.0195,15.1191L30.0586,15.1191Q30.1172,14.5527,30.4395,13.6152L33.9355,2.88281L37.3047,2.88281L31.7578,18ZM41.0352,5.64648L45.5664,5.64648Q44.1211,4.41602,42.6172,3.22461L44.082,1.60352Q45.8203,2.79492,47.5977,4.18164Q47.5781,4.2207,46.1719,5.64648L48.6328,5.64648L48.6328,1.42773L51.2891,1.42773L51.2891,5.64648L53.9258,5.64648L52.6172,4.33789Q54.1016,3.14648,55.957,1.56445L57.6953,3.22461Q56.0547,4.57227,54.6484,5.64648L58.9648,5.64648L58.9648,7.95117L52.2656,7.95117Q55.8398,9.2207,58.8281,10.373L57.7344,12.5801Q55.1367,11.3691,51.2891,9.70898L51.2891,11.3105L48.6328,11.3105L48.6328,9.49414Q46.3672,11.3887,42.5391,12.541Q42.0117,11.3691,41.25,10.1582Q44.9609,9.41602,47.0508,7.95117L41.0352,7.95117L41.0352,5.64648ZM40.7031,12.9902L48.4961,12.9902Q48.5742,12.4629,48.5938,11.8574L51.2695,11.8574Q51.2109,12.4629,51.1328,12.9902L59.3164,12.9902L59.3164,15.373L52.5391,15.373Q54.9609,17.7949,59.4922,18.2832Q58.3203,19.8848,57.7539,20.7832Q52.5195,19.6504,50.0781,15.7051Q48.9062,19.123,42.168,20.7246Q41.2109,19.2207,40.5273,18.3418Q45.7617,17.5801,47.5586,15.373L40.7031,15.373L40.7031,12.9902Z" fill="#FF0000" fill-opacity="1"/></g></g></g></g><g filter="url(#master_svg0_442_72817)"><g><rect x="0" y="31" width="63.16666793823242" height="8" rx="0" fill="#FF0000" fill-opacity="0.6000000238418579"/><rect x="0.5" y="31.5" width="62.16666793823242" height="7" rx="0" fill-opacity="0" stroke-opacity="1" stroke="#FF0000" fill="none" stroke-width="1"/></g><g><rect x="65.16667175292969" y="31" width="63.16666793823242" height="8" rx="0" fill="#FF0000" fill-opacity="0.6000000238418579"/><rect x="65.66667175292969" y="31.5" width="62.16666793823242" height="7" rx="0" fill-opacity="0" stroke-opacity="1" stroke="#FF0000" fill="none" stroke-width="1"/></g><g><rect x="130.33334350585938" y="31" width="63.16666793823242" height="8" rx="0" fill="#FF0000" fill-opacity="0.6000000238418579"/><rect x="130.83334350585938" y="31.5" width="62.16666793823242" height="7" rx="0" fill-opacity="0" stroke-opacity="1" stroke="#FF0000" fill="none" stroke-width="1"/></g><g><rect x="195.50001525878906" y="31" width="63.16666793823242" height="8" rx="0" fill="#FF0000" fill-opacity="0.6000000238418579"/><rect x="196.00001525878906" y="31.5" width="62.16666793823242" height="7" rx="0" fill-opacity="0" stroke-opacity="1" stroke="#FF0000" fill="none" stroke-width="1"/></g><g><rect x="260.66668701171875" y="31" width="63.16666793823242" height="8" rx="0" fill="#FF0000" fill-opacity="0.6000000238418579"/><rect x="261.16668701171875" y="31.5" width="62.16666793823242" height="7" rx="0" fill-opacity="0" stroke-opacity="1" stroke="#FF0000" fill="none" stroke-width="1"/></g><g><rect x="325.8333740234375" y="31" width="63.16666793823242" height="8" rx="0" fill="#FF0000" fill-opacity="0.6000000238418579"/><rect x="326.3333740234375" y="31.5" width="62.16666793823242" height="7" rx="0" fill-opacity="0" stroke-opacity="1" stroke="#FF0000" fill="none" stroke-width="1"/></g></g></g></svg>