<svg xmlns="http://www.w3.org/2000/svg" xmlns:xlink="http://www.w3.org/1999/xlink" fill="none" version="1.1" width="418.4365234375" height="108.5452880859375" viewBox="0 0 418.4365234375 108.5452880859375"><defs><linearGradient x1="0.5" y1="0" x2="0.5" y2="1" id="master_svg0_6_10151"><stop offset="4.285714402794838%" stop-color="#98CAFF" stop-opacity="0.5899999737739563"/><stop offset="100%" stop-color="#0262BB" stop-opacity="0"/></linearGradient><radialGradient cx="0" cy="0" r="1" gradientUnits="userSpaceOnUse" id="master_svg1_6_10152" gradientTransform="translate(213.4365234375 12.860799059271812) rotate(90) scale(14.675985172390938 79.17307790368795)"><stop offset="8.571428805589676%" stop-color="#60CDFF" stop-opacity="0.3400000035762787"/><stop offset="100%" stop-color="#53C9FF" stop-opacity="0"/></radialGradient><linearGradient x1="0.5" y1="0" x2="0.5" y2="1" id="master_svg2_6_10226"><stop offset="2.142857201397419%" stop-color="#98CDFF" stop-opacity="1"/><stop offset="100%" stop-color="#204466" stop-opacity="0"/></linearGradient><filter id="master_svg3_497_71241" filterUnits="objectBoundingBox" color-interpolation-filters="sRGB" x="-1.6742893069208122" y="-1.565525988311288" width="4.3485786138416245" height="4.131051976622576"><feFlood flood-opacity="0" result="BackgroundImageFix"/><feBlend mode="normal" in="SourceGraphic" in2="BackgroundImageFix" result="shape"/><feGaussianBlur stdDeviation="10" result="effect1_foregroundBlur"/></filter><linearGradient x1="0.5" y1="0" x2="0.5" y2="1" id="master_svg4_497_70890"><stop offset="0%" stop-color="#458BFF" stop-opacity="1"/><stop offset="100%" stop-color="#63C3FF" stop-opacity="1"/></linearGradient><linearGradient x1="0.5" y1="0" x2="0.5" y2="1" id="master_svg5_497_70890"><stop offset="0%" stop-color="#458BFF" stop-opacity="1"/><stop offset="100%" stop-color="#63C3FF" stop-opacity="1"/></linearGradient><linearGradient x1="0.5" y1="0" x2="0.5" y2="1" id="master_svg6_497_70890"><stop offset="0%" stop-color="#458BFF" stop-opacity="1"/><stop offset="100%" stop-color="#63C3FF" stop-opacity="1"/></linearGradient><linearGradient x1="0.5" y1="0" x2="0.5" y2="1" id="master_svg7_497_71521"><stop offset="0%" stop-color="#00DDFF" stop-opacity="1"/><stop offset="100%" stop-color="#458BFF" stop-opacity="1"/></linearGradient><filter id="master_svg8_497_71239" filterUnits="objectBoundingBox" color-interpolation-filters="sRGB" x="-0.27754793343461565" y="-0.2513778230108749" width="1.5550958668692312" height="1.5027556460217497"><feFlood flood-opacity="0" result="BackgroundImageFix"/><feColorMatrix in="SourceAlpha" type="matrix" values="0 0 0 0 0 0 0 0 0 0 0 0 0 0 0 0 0 0 127 0"/><feOffset dy="0" dx="0"/><feGaussianBlur stdDeviation="3"/><feColorMatrix type="matrix" values="0 0 0 0 0.06194690242409706 0 0 0 0 0.8436577916145325 0 0 0 0 1 0 0 0 0.30000001192092896 0"/><feBlend mode="normal" in2="BackgroundImageFix" result="effect1_dropShadow"/><feBlend mode="normal" in="SourceGraphic" in2="effect1_dropShadow" result="shape"/></filter><linearGradient x1="0.5" y1="0" x2="0.5" y2="1" id="master_svg9_497_70792"><stop offset="0%" stop-color="#FFFFFF" stop-opacity="1"/><stop offset="12.857143580913544%" stop-color="#60D7FF" stop-opacity="1"/><stop offset="93.57143044471741%" stop-color="#55FFF4" stop-opacity="1"/><stop offset="99.70012903213501%" stop-color="#FFFFFF" stop-opacity="1"/></linearGradient><clipPath id="master_svga_497_69308"><rect x="38.4365234375" y="33.3292236328125" width="36" height="36" rx="0"/></clipPath><linearGradient x1="0.5" y1="0" x2="0.5" y2="1" id="master_svgb_497_71449"><stop offset="0%" stop-color="#FFFFFF" stop-opacity="1"/><stop offset="100%" stop-color="#0E9AFF" stop-opacity="1"/></linearGradient><linearGradient x1="0.5" y1="0" x2="0.5" y2="1" id="master_svgc_497_71449"><stop offset="0%" stop-color="#FFFFFF" stop-opacity="1"/><stop offset="100%" stop-color="#0E9AFF" stop-opacity="1"/></linearGradient><linearGradient x1="0.5" y1="0" x2="0.5" y2="1" id="master_svgd_497_70196"><stop offset="0%" stop-color="#24FF24" stop-opacity="0.15000000596046448"/><stop offset="100%" stop-color="#6FFF6F" stop-opacity="0"/></linearGradient></defs><g><rect x="8.4365234375" y="9.3292236328125" width="410" height="76" rx="10" fill="url(#master_svg0_6_10151)" fill-opacity="0.30000001192092896"/><rect x="8.4365234375" y="9.3292236328125" width="410" height="76" rx="10" fill="url(#master_svg1_6_10152)" fill-opacity="0.800000011920929"/><rect x="8.9365234375" y="9.8292236328125" width="409" height="75" rx="9.5" stroke="url(#master_svg2_6_10226)" fill-opacity="0" fill="none" stroke-width="1"/><g><g><g><g><g transform="matrix(0.9428828954696655,-0.33312442898750305,0.33525988459587097,0.942125678062439,-13.30426781779687,15.448142645600058)" filter="url(#master_svg3_497_71241)"><ellipse cx="50.28966045379639" cy="58.991294860839844" rx="11.945366859436035" ry="12.775259017944336" fill="#00B7FF" fill-opacity="0.6000000238418579"/></g><g transform="matrix(0.9428828954696655,-0.33312442898750305,0.33525988459587097,0.942125678062439,-7.122444311904076,17.099682578704176)"><path d="M55.283693969116214,32.232243939819334Q59.96763396911621,34.790223939819334,63.22973396911621,39.33395393981934L64.0420339691162,38.75072393981934Q60.64703396911621,34.021843939819334,55.76299396911621,31.354593939819335Q51.29674396911621,28.915516939819337,46.299516569116214,28.628376939819336L46.24215136911621,29.626730939819335Q51.014843969116214,29.900968939819336,55.283693969116214,32.232243939819334ZM69.2788339691162,55.373453939819335Q69.2788339691162,47.254653939819335,65.2146339691162,40.52895393981934L64.3588339691162,41.046153939819334Q68.2788339691162,47.533353939819335,68.2788339691162,55.373453939819335L69.2788339691162,55.373453939819335ZM64.5934339691162,69.30465393981933Q61.75033396911621,74.20175393981933,57.290633969116215,77.27825393981934L57.85853396911621,78.10135393981933Q62.50263396911621,74.89765393981934,65.45823396911621,69.80675393981934Q68.47773396911622,64.60585393981933,69.11803396911621,58.47325393981934L68.1234339691162,58.36945393981934Q67.50543396911621,64.28905393981933,64.5934339691162,69.30465393981933ZM55.07941396911621,78.62485393981933Q50.99210396911621,80.80195393981933,46.44773896911621,81.10735393981933L46.51478796911621,82.10515393981933Q51.27303396911621,81.78535393981934,55.549543969116215,79.50745393981933L55.07941396911621,78.62485393981933Z" fill-rule="evenodd" fill="url(#master_svg4_497_70890)" fill-opacity="1"/></g><g transform="matrix(0.9428828358650208,-0.33312445878982544,0.33525988459587097,0.942125678062439,-16.416819144180664,12.61277709810318)"><path d="M28.01098108291626,62.70252806640625Q28.01098108291626,67.61456806640625,29.56984108291626,72.16866806640625L30.51594108291626,71.84486806640625Q29.01098108291626,67.44816806640625,29.01098108291626,62.70252806640625Q29.01098108291626,58.18787806640625,30.37633108291626,53.97905506640625L29.42513508291626,53.67048306640625Q28.01098108291626,58.02973806640625,28.01098108291626,62.70252806640625Z" fill-rule="evenodd" fill="url(#master_svg5_497_70890)" fill-opacity="1"/></g><g transform="matrix(0.9428828954696655,-0.33312445878982544,0.33525991439819336,0.942125678062439,-10.943291563144612,10.270432481746752)"><path d="M29.1577634375,44.1668351852417Q25.8064534375,47.8736851852417,23.9695034375,52.677585185241696L24.9035434375,53.0346851852417Q26.6736834375,48.4055851852417,29.8995534375,44.8374751852417Q36.7100234375,37.3043851852417,46.3301234375,37.3043851852417L46.3301234375,36.3043851852417Q36.266023437499996,36.3043851852417,29.1577634375,44.1668351852417Z" fill-rule="evenodd" fill="url(#master_svg6_497_70890)" fill-opacity="1"/></g><g transform="matrix(0.9428828954696655,-0.33312445878982544,0.33525991439819336,0.9421256184577942,-21.777767320852718,16.339198281644826)"><path d="M43.2531945123291,78.21920193359375Q40.2154845123291,74.85919193359375,38.5455645123291,70.49214193359376L34.8094045123291,71.92082193359374Q36.7465646123291,76.98671193359375,40.2860345123291,80.90173193359375Q47.8409845123291,89.25818193359375,58.570984512329105,89.25818193359375L58.570984512329105,85.25818193359375Q49.616984512329104,85.25818193359375,43.2531945123291,78.21920193359375Z" fill-rule="evenodd" fill="url(#master_svg7_497_71521)" fill-opacity="1"/></g><g transform="matrix(0.9428828954696655,-0.33312442898750305,0.33525988459587097,0.942125678062439,-10.285119162544134,11.950435640995153)" filter="url(#master_svg8_497_71239)"><path d="M51.28387843170166,83.46904244842528Q51.81457843170166,83.46904244842528,52.34457843170166,83.4403424484253Q52.87467843170166,83.4115424484253,53.40277843170166,83.35414244842529Q53.93087843170166,83.2966424484253,54.45587843170166,83.2107424484253Q54.980778431701665,83.1247424484253,55.501278431701664,83.0104424484253Q56.02177843170166,82.8961424484253,56.536578431701656,82.7537424484253Q57.051378431701664,82.61134244842529,57.55917843170166,82.4412424484253Q58.06707843170166,82.2711424484253,58.56667843170166,82.0738424484253Q59.066378431701665,81.8764424484253,59.556678431701656,81.6521424484253Q60.04697843170166,81.42794244842528,60.52667843170166,81.1774424484253Q61.00647843170166,80.9269424484253,61.474478431701655,80.65064244842529Q61.94247843170166,80.3744424484253,62.39767843170166,80.07324244842529Q62.85287843170166,79.7720424484253,63.294078431701664,79.4464424484253Q63.73537843170166,79.1209424484253,64.16157843170166,78.77194244842529Q64.58787843170165,78.42284244842529,64.99807843170166,78.0511424484253Q65.40837843170166,77.67944244842529,65.80157843170166,77.28594244842529Q66.19477843170165,76.8924424484253,66.56997843170166,76.4781424484253Q66.94527843170167,76.06384244842529,67.30167843170166,75.6296424484253Q67.65807843170165,75.1955424484253,67.99467843170166,74.7425424484253Q68.33137843170167,74.2896424484253,68.64747843170166,73.8190424484253Q68.96367843170165,73.34834244842529,69.25847843170166,72.86124244842529Q69.55327843170167,72.37404244842529,69.82617843170166,71.87144244842528Q70.09897843170165,71.36884244842528,70.34917843170166,70.8521424484253Q70.59927843170166,70.3353424484253,70.82617843170166,69.80564244842529Q71.05307843170166,69.2759424484253,71.25617843170167,68.73464244842529Q71.45927843170166,68.19334244842528,71.63807843170166,67.6416424484253Q71.81687843170167,67.08994244842529,71.97087843170166,66.5292424484253Q72.12497843170166,65.9685424484253,72.25387843170165,65.4001424484253Q72.38287843170167,64.83174244842529,72.48637843170167,64.2571424484253Q72.58987843170166,63.68244244842529,72.66777843170166,63.10284244842529Q72.74567843170166,62.52324244842529,72.79767843170166,61.94014244842529Q72.84967843170166,61.35704244842529,72.87567843170166,60.77174244842529Q72.90177843170166,60.18654244842529,72.90177843170166,59.60064244842529Q72.90177843170166,59.01464244842529,72.87567843170166,58.42944244842529Q72.84967843170166,57.84424244842529,72.79767843170166,57.26104244842529Q72.74567843170166,56.67794244842529,72.66777843170166,56.09834244842529Q72.58987843170166,55.51874244842529,72.48637843170167,54.94404244842529Q72.38287843170167,54.36944244842529,72.25387843170165,53.80104244842529Q72.12497843170166,53.232642448425295,71.97087843170166,52.6719424484253Q71.81687843170167,52.111242448425294,71.63807843170166,51.55954244842529Q71.45927843170166,51.00784244842529,71.25617843170167,50.466542448425294Q71.05307843170166,49.925242448425294,70.82617843170166,49.39554244842529Q70.59927843170166,48.86584244842529,70.34917843170166,48.349042448425294Q70.09897843170165,47.832342448425294,69.82617843170166,47.32974244842529Q69.55327843170167,46.82714244842529,69.25847843170166,46.33994244842529Q68.96367843170165,45.85284244842529,68.64747843170166,45.382172448425294Q68.33137843170167,44.911542448425294,67.99467843170166,44.45861244842529Q67.65807843170165,44.005672448425294,67.30167843170166,43.57152244842529Q66.94527843170167,43.137372448425296,66.56997843170166,42.72305244842529Q66.19477843170165,42.308732448425296,65.80157843170166,41.91524244842529Q65.40837843170166,41.52174244842529,64.99807843170166,41.15003244842529Q64.58787843170165,40.7783124484253,64.16157843170166,40.429272448425294Q63.73537843170166,40.08023244842529,63.294078431701664,39.75470244842529Q62.85287843170166,39.42917244842529,62.39767843170166,39.127942448425294Q61.94247843170166,38.82671244842529,61.474478431701655,38.55050244842529Q61.00647843170166,38.27429244842529,60.52667843170166,38.02377244842529Q60.04697843170166,37.773252448425296,59.556678431701656,37.54902244842529Q59.066378431701665,37.32479244842529,58.56667843170166,37.12739244842529Q58.06707843170166,36.93000244842529,57.55917843170166,36.75991244842529Q57.051378431701664,36.58982144842529,56.536578431701656,36.44745044842529Q56.02177843170166,36.30507844842529,55.501278431701664,36.190768448425295Q54.980778431701665,36.076457448425295,54.45587843170166,35.99048244842529Q53.93087843170166,35.90450744842529,53.40277843170166,35.847075448425294Q52.87467843170166,35.78964364842529,52.34457843170166,35.760893048425295Q51.81457843170166,35.73214244842529,51.28387843170166,35.73214244842529Q50.753178431701656,35.73214244842529,50.22307843170166,35.760893048425295Q49.693078431701664,35.78964364842529,49.164978431701655,35.847075448425294Q48.63677843170166,35.90450744842529,48.11187843170166,35.99048244842529Q47.58687843170166,36.076457448425295,47.066378431701665,36.190768448425295Q46.545978431701656,36.30507844842529,46.03117843170166,36.44745044842529Q45.51637843170166,36.58982144842529,45.00847843170166,36.75991244842529Q44.50067843170166,36.93000244842529,44.00097843170166,37.12739244842529Q43.50137843170166,37.32479244842529,43.01107843170166,37.54902244842529Q42.52077843170166,37.773252448425296,42.04097843170166,38.02377244842529Q41.56127843170166,38.27429244842529,41.09327843170166,38.55050244842529Q40.62527843170166,38.82671244842529,40.17007843170166,39.127942448425294Q39.71487843170166,39.42917244842529,39.27360843170166,39.75470244842529Q38.832358431701664,40.08023244842529,38.40610843170166,40.429272448425294Q37.97984843170166,40.7783124484253,37.56962843170166,41.15003244842529Q37.15939843170166,41.52174244842529,36.76617843170166,41.91524244842529Q36.37296843170166,42.308732448425296,35.99770843170166,42.72305244842529Q35.62245843170166,43.137372448425296,35.26606843170166,43.57152244842529Q34.90967843170166,44.005672448425294,34.57300843170166,44.45861244842529Q34.23634843170166,44.911542448425294,33.92021843170166,45.382172448425294Q33.60408843170166,45.85284244842529,33.30924843170166,46.340042448425294Q33.01441843170166,46.82714244842529,32.74158843170166,47.32974244842529Q32.46875843170166,47.832342448425294,32.21858843170166,48.349042448425294Q31.96842843170166,48.86584244842529,31.74152843170166,49.39554244842529Q31.51462843170166,49.925242448425294,31.31153843170166,50.466542448425294Q31.10845843170166,51.00784244842529,30.92966843170166,51.55954244842529Q30.75088843170166,52.111242448425294,30.596837431701662,52.6719424484253Q30.44278643170166,53.232642448425295,30.31383943170166,53.80104244842529Q30.18489243170166,54.36944244842529,30.08136043170166,54.94404244842529Q29.97782743170166,55.51874244842529,29.89995943170166,56.09834244842529Q29.82209143170166,56.67794244842529,29.77007443170166,57.26104244842529Q29.71805783170166,57.84424244842529,29.69201813170166,58.42944244842529Q29.66597843170166,59.01464244842529,29.66597843170166,59.60064244842529Q29.66597843170166,60.18654244842529,29.69201813170166,60.77174244842529Q29.71805783170166,61.35704244842529,29.77007443170166,61.94014244842529Q29.82209143170166,62.52324244842529,29.89995943170166,63.10284244842529Q29.97782743170166,63.68244244842529,30.08136043170166,64.2571424484253Q30.18489243170166,64.83174244842529,30.31383943170166,65.4001424484253Q30.44278643170166,65.9685424484253,30.596837431701662,66.5292424484253Q30.75088843170166,67.08994244842529,30.92966843170166,67.6416424484253Q31.10845843170166,68.19334244842528,31.31153843170166,68.73464244842529Q31.51462843170166,69.2759424484253,31.74152843170166,69.80564244842529Q31.96842843170166,70.3353424484253,32.21858843170166,70.8521424484253Q32.46875843170166,71.36884244842528,32.74158843170166,71.87144244842528Q33.01441843170166,72.37404244842529,33.30924843170166,72.86124244842529Q33.60408843170166,73.34834244842529,33.92021843170166,73.8190424484253Q34.23634843170166,74.2896424484253,34.57300843170166,74.7425424484253Q34.90967843170166,75.1955424484253,35.26606843170166,75.6296424484253Q35.62245843170166,76.06384244842529,35.99770843170166,76.4781424484253Q36.37296843170166,76.8924424484253,36.76617843170166,77.28594244842529Q37.15939843170166,77.67944244842529,37.56961843170166,78.0511424484253Q37.97984843170166,78.42284244842529,38.40610843170166,78.77194244842529Q38.832358431701664,79.1209424484253,39.27360843170166,79.4464424484253Q39.71487843170166,79.7720424484253,40.17007843170166,80.07324244842529Q40.62527843170166,80.3744424484253,41.09327843170166,80.65074244842529Q41.56127843170166,80.9269424484253,42.04097843170166,81.1774424484253Q42.52077843170166,81.42794244842528,43.01107843170166,81.6521424484253Q43.50137843170166,81.8764424484253,44.00097843170166,82.07374244842529Q44.50067843170166,82.2711424484253,45.00847843170166,82.4412424484253Q45.51637843170166,82.61134244842529,46.03117843170166,82.7537424484253Q46.545978431701656,82.8961424484253,47.066378431701665,83.0104424484253Q47.58687843170166,83.1247424484253,48.11187843170166,83.2107424484253Q48.63677843170166,83.2966424484253,49.164978431701655,83.35414244842529Q49.693078431701664,83.4115424484253,50.22307843170166,83.4403424484253Q50.753178431701656,83.46904244842528,51.28387843170166,83.46904244842528ZM65.82887843170167,43.394352448425295Q71.90177843170166,50.0995424484253,71.90177843170166,59.60064244842529Q71.90177843170166,69.1016424484253,65.82887843170167,75.8068424484253Q59.79477843170166,82.46904244842528,51.28387843170166,82.46904244842528Q42.772878431701656,82.46904244842528,36.73889843170166,75.8068424484253Q30.66597843170166,69.1016424484253,30.66597843170166,59.60064244842529Q30.66597843170166,50.0995424484253,36.73889843170166,43.394352448425295Q42.772878431701656,36.73214244842529,51.28387843170166,36.73214244842529Q59.79477843170166,36.73214244842529,65.82887843170167,43.394352448425295Z" fill-rule="evenodd" fill="url(#master_svg9_497_70792)" fill-opacity="1"/></g></g><g clip-path="url(#master_svga_497_69308)"><g><path d="M61.02457328125,41.3426513671875Q59.41924328125,43.4224713671875,57.95361328125,45.6472713671875C59.74083328125,48.4730813671875,61.43579328125,51.7180513671875,61.43579328125,53.8980513671875C61.43579328125,55.2476513671875,61.14055328125,56.5234513671875,60.63180328125,57.643751367187505C60.75833328125,57.6569513671875,60.90068328125,57.6569513671875,61.04039328125,57.6569513671875C64.11135328125,57.6569513671875,66.58921328125,54.9313513671875,66.58921328125,51.5703513671875Q66.58921328125,48.2200213671875,61.02457328125,41.3426513671875Z" fill="url(#master_svgb_497_71449)" fill-opacity="1" style="mix-blend-mode:passthrough"/></g><g><path d="M53.0717290234375,40.5255126953125Q60.5105490234375,49.6224126953125,60.507949023437504,54.0667126953125C60.507949023437504,58.5137126953125,57.1865490234375,62.119812695312504,53.0690890234375,62.119812695312504C48.9542690234375,62.119812695312504,45.6302490234375,58.5137126953125,45.6302490234375,54.0667126953125C45.6302490234375,53.2838126953125,45.7383260234375,52.4983126953125,45.9465710234375,51.7444126953125Q46.8770890234375,48.4256626953125,53.0717290234375,40.5255126953125ZM49.1203390234375,53.4842126953125C48.8040190234375,53.471012695312496,48.5245990234375,53.7267126953125,48.5140590234375,54.0852126953125C48.4982390234375,54.1405126953125,48.2478190234375,60.2851126953125,54.1234990234375,60.6831126953125L54.1630390234375,60.6831126953125C54.4793690234375,60.6963126953125,54.7455990234375,60.4116126953125,54.7455990234375,60.0689126953125C54.7587790234375,59.7263126953125,54.5083590234375,59.4416126953125,54.1946790234375,59.4284126953125C49.4524790234375,59.1015126953125,49.6449090234375,54.3541126953125,49.6580890234375,54.1563126953125C49.6739090234375,53.8084126953125,49.4392990234375,53.5105126953125,49.1203390234375,53.4842126953125Z" fill="url(#master_svgc_497_71449)" fill-opacity="1" style="mix-blend-mode:passthrough"/></g></g></g><g><g><path d="M99.4002734375,31.8964736328125L109.8580234375,31.8964736328125L109.8580234375,33.0692236328125L99.4002734375,33.0692236328125L99.4002734375,31.8964736328125ZM100.9667734375,35.2907236328125L105.4075234375,35.2907236328125L105.4075234375,41.108223632812496L100.9667734375,41.108223632812496L100.9667734375,40.020023632812496L104.2945234375,40.020023632812496L104.2945234375,36.3887236328125L100.9667734375,36.3887236328125L100.9667734375,35.2907236328125ZM100.3612734375,35.2907236328125L101.4652734375,35.2907236328125L101.4652734375,42.2297236328125L100.3612734375,42.2297236328125L100.3612734375,35.2907236328125ZM107.4073234375,32.3237236328125L108.60152343749999,32.3237236328125L108.60152343749999,43.8690236328125Q108.60152343749999,44.5292236328125,108.4088234375,44.8632236328125Q108.2163234375,45.1974236328125,107.7423234375,45.3587236328125Q107.2780234375,45.5099236328125,106.4088234375,45.539723632812496Q105.5398234375,45.5697236328125,104.2055234375,45.5697236328125Q104.1772734375,45.3935236328125,104.10152343749999,45.1649236328125Q104.02577343749999,44.9365236328125,103.9247734375,44.7062236328125Q103.8237734375,44.4762236328125,103.7257734375,44.3027236328125Q104.4350234375,44.3312236328125,105.0883234375,44.3375236328125Q105.7415234375,44.3437236328125,106.2260234375,44.3387236328125Q106.7105234375,44.3337236328125,106.9088234375,44.3337236328125Q107.1870234375,44.3177236328125,107.2970234375,44.2169236328125Q107.4073234375,44.115923632812496,107.4073234375,43.8502236328125L107.4073234375,32.3237236328125ZM95.6997734375,31.9712236328125L96.3837734375,31.1172236328125Q96.8805234375,31.370473632812498,97.4502734375,31.6812236328125Q98.0200234375,31.9917236328125,98.5430234375,32.2877236328125Q99.0662734375,32.5837236328125,99.4120234375,32.8139736328125L98.69702343750001,33.7917236328125Q98.3637734375,33.5454736328125,97.8467734375,33.2304736328125Q97.3300234375,32.9152236328125,96.7665234375,32.5792236328125Q96.2030234375,32.2432236328125,95.6997734375,31.9712236328125ZM94.9470234375,36.3507236328125L95.6095234375,35.4719736328125Q96.0867734375,35.6932236328125,96.6432734375,35.9927236328125Q97.1997734375,36.2922236328125,97.7207734375,36.5789736328125Q98.2417734375,36.8654736328125,98.5740234375,37.099223632812496L97.9125234375,38.0884736328125Q97.5827734375,37.8584736328125,97.0710234375,37.5544736328125Q96.5595234375,37.2504736328125,95.9980234375,36.9254736328125Q95.4367734375,36.6004736328125,94.9470234375,36.3507236328125ZM95.4215234375,44.5834236328125Q95.8632734375,43.9719236328125,96.3930234375,43.1152236328125Q96.9230234375,42.2582236328125,97.4670234375,41.2962236328125Q98.0110234375,40.3339236328125,98.4712734375,39.425423632812496L99.3440234375,40.2162236328125Q98.9280234375,41.0580236328125,98.4297734375,41.9774236328125Q97.9317734375,42.8969236328125,97.4207734375,43.773023632812496Q96.90977343750001,44.6487236328125,96.4332734375,45.3999236328125L95.4215234375,44.5834236328125ZM116.1223234375,31.4804736328125L123.9682234375,31.4804736328125L123.9682234375,32.5124736328125L116.1223234375,32.5124736328125L116.1223234375,31.4804736328125ZM117.7783234375,33.9999736328125L118.3310234375,33.1924736328125Q119.0948234375,33.4402236328125,119.9443234375,33.8047236328125Q120.7938234375,34.1689736328125,121.5662234375,34.5552236328125Q122.3390234375,34.9412236328125,122.8468234375,35.2834736328125L122.2530234375,36.2049736328125Q121.7737234375,35.8467236328125,121.0185234375,35.4464736328125Q120.26332343749999,35.0459736328125,119.4137234375,34.6612236328125Q118.56432343750001,34.2762236328125,117.7783234375,33.9999736328125ZM116.0995234375,35.5752236328125L124.4202234375,35.5752236328125L124.4202234375,36.6447236328125L117.2373234375,36.6447236328125L117.2373234375,45.599023632812504L116.0995234375,45.599023632812504L116.0995234375,35.5752236328125ZM116.7665234375,38.3244736328125L124.4415234375,38.3244736328125L124.4415234375,39.3787236328125L116.7665234375,39.3787236328125L116.7665234375,38.3244736328125ZM116.7665234375,41.1387236328125L124.4415234375,41.1387236328125L124.4415234375,42.1955236328125L116.7665234375,42.1955236328125L116.7665234375,41.1387236328125ZM123.8585234375,35.5752236328125L125.02752343750001,35.5752236328125L125.02752343750001,44.3154236328125Q125.02752343750001,44.7462236328125,124.9225234375,45.0055236328125Q124.8178234375,45.2650236328125,124.5125234375,45.4102236328125Q124.2173234375,45.5489236328125,123.7495234375,45.5787236328125Q123.28182343750001,45.6087236328125,122.58402343750001,45.6087236328125Q122.5555234375,45.3852236328125,122.4495234375,45.0700236328125Q122.3437234375,44.7547236328125,122.2173234375,44.5402236328125Q122.69702343750001,44.556223632812504,123.09002343750001,44.556223632812504Q123.4833234375,44.556223632812504,123.6053234375,44.5464236328125Q123.8585234375,44.5464236328125,123.8585234375,44.3030236328125L123.8585234375,35.5752236328125ZM119.9175234375,36.0847236328125L121.0618234375,36.0847236328125L121.0618234375,45.4959236328125L119.9175234375,45.4959236328125L119.9175234375,36.0847236328125ZM123.5080234375,31.4804736328125L123.7947234375,31.4804736328125L124.0377234375,31.4174736328125L124.8230234375,31.9757236328125Q124.3208234375,32.5569736328125,123.6518234375,33.1207236328125Q122.98302343750001,33.6844736328125,122.2455234375,34.1729736328125Q121.5083234375,34.6614736328125,120.7768234375,35.0287236328125Q120.6565234375,34.8489736328125,120.4500234375,34.6267236328125Q120.2435234375,34.4044736328125,120.0885234375,34.2657236328125Q120.7293234375,33.9554736328125,121.3833234375,33.5234736328125Q122.0375234375,33.0914736328125,122.5990234375,32.6177236328125Q123.1608234375,32.143973632812504,123.5080234375,31.7112236328125L123.5080234375,31.4804736328125ZM111.8227234375,31.9482236328125L112.5333234375,31.1012236328125Q113.0167234375,31.3544736328125,113.5808234375,31.6779736328125Q114.14482343750001,32.0014736328125,114.6653234375,32.3122236328125Q115.1860234375,32.6227236328125,115.5310234375,32.8662236328125L114.8052234375,33.8397236328125Q114.4692234375,33.573973632812496,113.9580234375,33.2412236328125Q113.44702343750001,32.9082236328125,112.88282343750001,32.5642236328125Q112.3187234375,32.2202236328125,111.8227234375,31.9482236328125ZM111.0422234375,36.2404736328125L111.7430234375,35.3649736328125Q112.22652343749999,35.5924736328125,112.8003234375,35.8902236328125Q113.3740234375,36.1879736328125,113.9013234375,36.4809736328125Q114.4285234375,36.7739736328125,114.77702343749999,37.0077236328125L114.0675234375,37.993473632812496Q113.7315234375,37.7632236328125,113.2105234375,37.4529736328125Q112.6895234375,37.1427236328125,112.1188234375,36.8197236328125Q111.5480234375,36.4964736328125,111.0422234375,36.2404736328125ZM111.4535234375,44.5659236328125Q111.8633234375,43.9382236328125,112.3593234375,43.0722236328125Q112.8553234375,42.2059236328125,113.3672234375,41.2457236328125Q113.8793234375,40.2852236328125,114.3078234375,39.3705236328125L115.1965234375,40.1049236328125Q114.8063234375,40.943223632812504,114.34002343750001,41.8690236328125Q113.8740234375,42.7947236328125,113.3917234375,43.6817236328125Q112.90972343749999,44.5687236328125,112.4652234375,45.3102236328125L111.4535234375,44.5659236328125ZM127.5683234375,34.9904736328125L132.08772343750002,34.9904736328125L132.08772343750002,36.2004736328125L127.5683234375,36.2004736328125L127.5683234375,34.9904736328125ZM133.8310234375,30.9224736328125L135.1007234375,30.9224736328125L135.1007234375,43.968223632812496Q135.1007234375,44.5672236328125,134.9495234375,44.8849236328125Q134.7985234375,45.2027236328125,134.43002343749998,45.3665236328125Q134.0715234375,45.5242236328125,133.45832343749998,45.5774236328125Q132.84532343749999,45.6310236328125,131.9250234375,45.6310236328125Q131.8965234375,45.4484236328125,131.8190234375,45.2107236328125Q131.7415234375,44.9730236328125,131.6533234375,44.730223632812496Q131.5652234375,44.487723632812504,131.4612234375,44.3112236328125Q132.1562234375,44.3334236328125,132.7207234375,44.3364236328125Q133.28532343749998,44.3397236328125,133.4762234375,44.3299236328125Q133.66472343750002,44.3202236328125,133.74772343749999,44.2499236328125Q133.8310234375,44.1797236328125,133.8310234375,43.9717236328125L133.8310234375,30.9224736328125ZM131.6950234375,34.9904736328125L131.9443234375,34.9904736328125L132.1653234375,34.9397236328125L132.9557234375,35.2459736328125Q132.5710234375,37.343223632812496,131.8370234375,39.0349736328125Q131.10302343749998,40.7267236328125,130.1355234375,41.9822236328125Q129.16802343749998,43.2374236328125,128.02852343749998,44.0429236328125Q127.9340234375,43.898023632812496,127.75902343749999,43.7167236328125Q127.58432343749999,43.5355236328125,127.39682343749999,43.3667236328125Q127.20932343749999,43.197923632812504,127.0580234375,43.1100236328125Q128.1787234375,42.3775236328125,129.1070234375,41.2402236328125Q130.03532343749998,40.1027236328125,130.7013234375,38.5952236328125Q131.3673234375,37.0877236328125,131.6950234375,35.2654736328125L131.6950234375,34.9904736328125ZM135.0155234375,34.5569736328125Q135.5130234375,35.8519736328125,136.2350234375,37.1084736328125Q136.9570234375,38.3649736328125,137.86082343750002,39.4649236328125Q138.7648234375,40.5647236328125,139.8225234375,41.4357236328125Q140.8802234375,42.3067236328125,142.0395234375,42.8472236328125Q141.9043234375,42.9702236328125,141.7340234375,43.1640236328125Q141.5640234375,43.3574236328125,141.4062234375,43.5607236328125Q141.2488234375,43.7637236328125,141.1448234375,43.9400236328125Q139.9665234375,43.313923632812504,138.9118234375,42.3597236328125Q137.8572234375,41.4055236328125,136.9565234375,40.2049236328125Q136.0558234375,39.0042236328125,135.3338234375,37.633473632812496Q134.6118234375,36.2624736328125,134.0795234375,34.8132236328125L135.0155234375,34.5569736328125ZM139.5025234375,33.9032236328125L140.5985234375,34.6717236328125Q140.0340234375,35.3117236328125,139.3725234375,36.0099736328125Q138.7110234375,36.7082236328125,138.0460234375,37.3459736328125Q137.3813234375,37.9834736328125,136.80252343749999,38.4607236328125L135.9743234375,37.808973632812496Q136.5370234375,37.3094736328125,137.1862234375,36.6322236328125Q137.83582343749998,35.9547236328125,138.4500234375,35.2392236328125Q139.0643234375,34.5237236328125,139.5025234375,33.9032236328125ZM145.5963234375,34.3249736328125L157.6430234375,34.3249736328125L157.6430234375,35.4042236328125L145.5963234375,35.4042236328125L145.5963234375,34.3249736328125ZM151.09352343749998,32.3362236328125L152.3597234375,32.4027236328125Q152.2985234375,33.2002236328125,152.19722343749999,34.0974736328125Q152.0960234375,34.9944736328125,151.98832343750001,35.8357236328125Q151.8808234375,36.6769736328125,151.7653234375,37.3044736328125L150.6087234375,37.3044736328125Q150.7020234375,36.6609736328125,150.7955234375,35.8037236328125Q150.8893234375,34.9464736328125,150.96702343750002,34.0302236328125Q151.0447234375,33.1139736328125,151.09352343749998,32.3362236328125ZM151.9373234375,43.2202236328125L152.7920234375,42.4947236328125Q153.5900234375,42.789723632812496,154.4715234375,43.1830236328125Q155.3533234375,43.5762236328125,156.1575234375,43.9724236328125Q156.9620234375,44.368723632812504,157.5220234375,44.6930236328125L156.6708234375,45.506723632812495Q156.12952343749998,45.1637236328125,155.3250234375,44.7482236328125Q154.52082343749998,44.3329236328125,153.6377234375,43.9272236328125Q152.7550234375,43.5215236328125,151.9373234375,43.2202236328125ZM155.73582343750002,30.9647236328125L156.6850234375,31.9264736328125Q155.5522234375,32.175223632812504,154.1390234375,32.3699736328125Q152.7260234375,32.5647236328125,151.1678234375,32.7119736328125Q149.6095234375,32.8589736328125,148.0317234375,32.9549736328125Q146.45402343749998,33.0509736328125,144.9757234375,33.0989736328125Q144.9475234375,32.8782236328125,144.8575234375,32.5742236328125Q144.76752343750002,32.2699736328125,144.6793234375,32.0679736328125Q146.1255234375,32.0102236328125,147.6720234375,31.9112236328125Q149.2187234375,31.8119736328125,150.7093234375,31.6777236328125Q152.19982343750002,31.5434736328125,153.4930234375,31.3612236328125Q154.7865234375,31.1789736328125,155.73582343750002,30.9647236328125ZM144.6793234375,32.0679736328125L145.8548234375,32.0679736328125L145.8548234375,36.542723632812496Q145.8548234375,37.5082236328125,145.7925234375,38.6634736328125Q145.7303234375,39.8187236328125,145.5480234375,41.0092236328125Q145.3657234375,42.1997236328125,145.0075234375,43.3344236328125Q144.64922343749998,44.4692236328125,144.0607234375,45.4195236328125Q143.95402343749998,45.315223632812504,143.7585234375,45.1955236328125Q143.5630234375,45.0757236328125,143.3662234375,44.965223632812496Q143.1695234375,44.855023632812504,143.0180234375,44.8077236328125Q143.5940234375,43.9082236328125,143.92672343750002,42.852223632812496Q144.25972343749999,41.7962236328125,144.4215234375,40.6909236328125Q144.58332343749998,39.585523632812496,144.6313234375,38.5202236328125Q144.6793234375,37.4547236328125,144.6793234375,36.542723632812496L144.6793234375,32.0679736328125ZM151.1082234375,38.7589736328125L152.3460234375,38.7589736328125L152.3460234375,40.2197236328125Q152.3460234375,40.7032236328125,152.2423234375,41.2539236328125Q152.1388234375,41.804523632812504,151.8177234375,42.3792236328125Q151.4967234375,42.9540236328125,150.8688234375,43.5207236328125Q150.2407234375,44.087223632812496,149.2060234375,44.6107236328125Q148.1712234375,45.1342236328125,146.62272343749999,45.5955236328125Q146.5505234375,45.456523632812505,146.4150234375,45.2894236328125Q146.2798234375,45.1227236328125,146.1240234375,44.9540236328125Q145.9682234375,44.7852236328125,145.8265234375,44.6684236328125Q147.3118234375,44.2864236328125,148.2815234375,43.8337236328125Q149.2515234375,43.3810236328125,149.8260234375,42.9044236328125Q150.4007234375,42.4277236328125,150.6745234375,41.9525236328125Q150.9482234375,41.4769236328125,151.0283234375,41.0257236328125Q151.1082234375,40.5742236328125,151.1082234375,40.1947236328125L151.1082234375,38.7589736328125ZM147.0848234375,36.9769736328125L156.4200234375,36.9769736328125L156.4200234375,42.5632236328125L155.1660234375,42.5632236328125L155.1660234375,38.0997236328125L148.2885234375,38.0997236328125L148.2885234375,42.5010236328125L147.0848234375,42.5010236328125L147.0848234375,36.9769736328125Z" fill="#FFFFFF" fill-opacity="1"/></g><g><g><path d="M94.4365234375 61.3292236328125C94.4365234375 56.910945634166154 98.01824543885365 53.3292236328125 102.4365234375 53.3292236328125L150.4365234375 53.3292236328125C154.85480143614635 53.3292236328125 158.4365234375 56.910945634166154 158.4365234375 61.3292236328125L158.4365234375 81.3292236328125C158.4365234375 81.3292236328125 158.4365234375 81.3292236328125 158.4365234375 81.3292236328125L94.4365234375 81.3292236328125C94.4365234375 81.3292236328125 94.4365234375 81.3292236328125 94.4365234375 81.3292236328125Z" fill="url(#master_svgd_497_70196)" fill-opacity="1"/><g><path d="M104.0888634375,74.1417236328125L105.8701134375,74.1417236328125L105.8701134375,62.3761036328125L104.0888634375,62.3761036328125L104.0888634375,59.1886036328125L124.7842234375,59.1886036328125L124.7842234375,62.3761036328125L123.0029234375,62.3761036328125L123.0029234375,74.1417236328125L124.7842234375,74.1417236328125L124.7842234375,77.3292236328125L104.0888634375,77.3292236328125L104.0888634375,74.1417236328125ZM116.1943234375,74.1417236328125L119.4990234375,74.1417236328125L119.4990234375,62.3761036328125L116.1943234375,62.3761036328125L116.1943234375,74.1417236328125ZM112.6787234375,62.3761036328125L109.3740234375,62.3761036328125L109.3740234375,74.1417236328125L112.6787234375,74.1417236328125L112.6787234375,62.3761036328125ZM127.6787234375,62.5050036328125L133.1162234375,62.5050036328125Q131.3818234375,61.0284436328125,129.5771234375,59.5987536328125L131.3349234375,57.6534426328125Q133.4209234375,59.0831336328125,135.5537234375,60.7471936328125Q135.5303234375,60.7940636328125,133.8427234375,62.5050036328125L136.7959234375,62.5050036328125L136.7959234375,57.4425046328125L139.9834234375,57.4425046328125L139.9834234375,62.5050036328125L143.1474234375,62.5050036328125L141.5771234375,60.9346936328125Q143.3584234375,59.5050036328125,145.5849234375,57.6065676328125L147.6709234375,59.5987536328125Q145.7021234375,61.2159436328125,144.0146234375,62.5050036328125L149.1943234375,62.5050036328125L149.1943234375,65.2706336328125L141.1553234375,65.2706336328125Q145.4443234375,66.7940636328125,149.0303234375,68.1769236328125L147.7177234375,70.8253236328125Q144.6006234375,69.3722236328125,139.9834234375,67.3800236328125L139.9834234375,69.3019236328125L136.7959234375,69.3019236328125L136.7959234375,67.1221936328125Q134.0771234375,69.3956236328125,129.4834234375,70.7784236328125Q128.8506234375,69.3722236328125,127.9365234375,67.9190236328125Q132.3896234375,67.0284436328125,134.8974234375,65.2706336328125L127.6787234375,65.2706336328125L127.6787234375,62.5050036328125ZM127.2803234375,71.3175236328125L136.6318234375,71.3175236328125Q136.7256234375,70.6847236328125,136.7490234375,69.9581236328125L139.9599234375,69.9581236328125Q139.8896234375,70.6847236328125,139.7959234375,71.3175236328125L149.6162234375,71.3175236328125L149.6162234375,74.1769236328125L141.4834234375,74.1769236328125Q144.3896234375,77.0831236328125,149.8271234375,77.6690236328125Q148.4209234375,79.5909236328125,147.7412234375,80.6690236328125Q141.4599234375,79.3097236328125,138.5303234375,74.5753236328125Q137.1240234375,78.6769236328125,129.0381234375,80.5987236328125Q127.8896234375,78.7940236328125,127.0693234375,77.7394236328125Q133.3506234375,76.8253236328125,135.5068234375,74.1769236328125L127.2803234375,74.1769236328125L127.2803234375,71.3175236328125Z" fill="#00FF00" fill-opacity="1"/></g></g></g></g></g><g><g><g><g><path d="M314.8349634375,35.7423136328125L315.9423834375,35.7423136328125L315.9423834375,37.9366436328125Q316.5302734375,39.5362536328125,317.2890634375,40.9102736328125Q318.7998234375,39.6524636328125,320.3037234375,37.9024636328125L321.2197234375,38.7227736328125Q319.6201234375,40.3975836328125,317.8427734375,41.8468036328125Q319.6474234375,44.7042236328125,322.2588234375,46.4884236328125Q321.6845234375,47.0626236328125,321.3291234375,47.5138236328125Q317.7334034375,44.6837236328125,315.9423834375,40.5069536328125L315.9423834375,46.8985236328125Q315.9423834375,48.9356236328125,313.9873034375,48.9356236328125Q313.3857434375,48.9356236328125,312.2099634375,48.9220236328125Q312.1416034375,48.4161236328125,311.9912134375,47.6915236328125Q313.0849634375,47.8009236328125,313.7685534375,47.8009236328125Q314.8349634375,47.8009236328125,314.8349634375,46.7755236328125L314.8349634375,35.7423136328125ZM308.9970704375,40.1173136328125L308.9970704375,39.0782436328125L313.7138634375,39.0782436328125L313.7138634375,40.0762936328125Q312.5517534375,44.5606236328125,309.4755834375,47.7599236328125Q309.0107424375,47.2267236328125,308.6416014375,46.9259236328125Q311.7314434375,43.6720236328125,312.6201134375,40.1173136328125L308.9970704375,40.1173136328125ZM326.4560234375,41.5802036328125L330.0927234375,41.5802036328125L330.0927234375,39.9942636328125L325.6084234375,39.9942636328125L325.6084234375,39.0372336328125L330.0927234375,39.0372336328125L330.0927234375,37.5469936328125L331.1865234375,37.5469936328125L331.1865234375,39.0372336328125L335.8349234375,39.0372336328125L335.8349234375,39.9942636328125L331.1865234375,39.9942636328125L331.1865234375,41.5802036328125L334.8642234375,41.5802036328125L334.8642234375,46.3927236328125L333.7978234375,46.3927236328125L333.7978234375,42.5372336328125L327.5224234375,42.5372336328125L327.5224234375,46.3927236328125L326.4560234375,46.3927236328125L326.4560234375,41.5802036328125ZM323.9951234375,36.5352736328125Q330.6260234375,36.5079336328125,335.5342234375,35.9610636328125L335.9170234375,37.0274636328125Q330.7763234375,37.3966036328125,325.0888234375,37.4923136328125L325.0888234375,41.6895736328125Q325.0888234375,46.9396236328125,323.3252234375,49.2364236328125Q322.9150234375,48.7579236328125,322.5049234375,48.3478236328125Q323.9951234375,46.5157236328125,323.9951234375,41.7852736328125L323.9951234375,36.5352736328125ZM331.1865234375,43.2481736328125Q331.2138234375,45.0255236328125,331.0088234375,45.8185236328125Q333.5107234375,46.9122236328125,336.1357234375,48.2110236328125L335.5478234375,49.2228236328125Q332.9228234375,47.7735236328125,330.6670234375,46.7345236328125Q329.6006234375,48.5528236328125,325.3760234375,49.2638236328125Q325.1435234375,48.8263236328125,324.7881234375,48.2657236328125Q329.0400234375,47.6095236328125,329.7646234375,46.1603236328125Q330.1474234375,45.5313236328125,330.1201234375,43.2481736328125L331.1865234375,43.2481736328125ZM338.5010234375,36.3575436328125L348.3994234375,36.3575436328125L348.3994234375,49.0177236328125L347.2373234375,49.0177236328125L347.2373234375,47.9923236328125L339.6631234375,47.9923236328125L339.6631234375,49.0177236328125L338.5010234375,49.0177236328125L338.5010234375,36.3575436328125ZM339.6631234375,44.3966236328125L339.6631234375,46.9806236328125L347.2373234375,46.9806236328125L347.2373234375,44.3966236328125L339.6631234375,44.3966236328125ZM339.6631234375,40.8829336328125L339.6631234375,43.4396236328125L347.2373234375,43.4396236328125L347.2373234375,40.8829336328125L339.6631234375,40.8829336328125ZM339.6631234375,37.3692636328125L339.6631234375,39.9259036328125L347.2373234375,39.9259036328125L347.2373234375,37.3692636328125L339.6631234375,37.3692636328125ZM350.6006234375,44.2462236328125Q352.1181234375,41.9083236328125,352.6787234375,39.3516836328125L350.6963234375,39.3516836328125L350.6963234375,38.4219936328125L352.7744234375,38.4219936328125L352.7744234375,35.7423136328125L353.7314234375,35.7423136328125L353.7314234375,38.4219936328125L355.5908234375,38.4219936328125L355.5908234375,39.3516836328125L353.7314234375,39.3516836328125L353.7314234375,41.7716036328125L354.3193234375,41.1563736328125Q355.1943234375,41.9083236328125,355.8642234375,42.6055936328125L355.1396234375,43.3575236328125Q354.4834234375,42.6124236328125,353.7314234375,41.8536336328125L353.7314234375,49.0724236328125L352.7744234375,49.0724236328125L352.7744234375,41.6690636328125Q352.0498234375,44.0206236328125,351.0517234375,45.4493236328125Q350.8603234375,44.8614236328125,350.6006234375,44.2462236328125ZM355.5771234375,40.5548136328125L364.1084234375,40.5548136328125L364.1084234375,41.5118436328125L360.3349234375,41.5118436328125L360.3349234375,47.2267236328125Q360.3349234375,48.9356236328125,358.7627234375,48.9356236328125Q358.0244234375,48.9493236328125,356.9443234375,48.9220236328125Q356.8760234375,48.4298236328125,356.7529234375,47.7872236328125Q357.6963234375,47.8966236328125,358.4756234375,47.8966236328125Q359.2959234375,47.8966236328125,359.2959234375,46.8849236328125L359.2959234375,41.5118436328125L355.5771234375,41.5118436328125L355.5771234375,40.5548136328125ZM356.2060234375,36.5489536328125L363.4795234375,36.5489536328125L363.4795234375,37.5059836328125L356.2060234375,37.5059836328125L356.2060234375,36.5489536328125ZM361.2373234375,43.2755136328125L362.2080234375,42.8106736328125Q363.5068234375,45.2989236328125,364.3681234375,47.1720236328125L363.2744234375,47.6505236328125Q362.3857234375,45.5313236328125,361.2373234375,43.2755136328125ZM356.8486234375,42.8106736328125L357.8740234375,43.2208236328125Q356.7529234375,45.7228236328125,355.6455234375,47.6642236328125Q355.22172343750003,47.4181236328125,354.6474234375,47.1856236328125Q355.7412234375,45.4220236328125,356.8486234375,42.8106736328125Z" fill="#FFFFFF" fill-opacity="1"/></g></g><g><g><path d="M371.5380834375,45.20426368713379L372.7255834375,45.20426368713379L372.7255834375,37.36051368713379L371.5380834375,37.36051368713379L371.5380834375,35.23551368713379L385.3349234375,35.23551368713379L385.3349234375,37.36051368713379L384.1474234375,37.36051368713379L384.1474234375,45.20426368713379L385.3349234375,45.20426368713379L385.3349234375,47.32926368713379L371.5380834375,47.32926368713379L371.5380834375,45.20426368713379ZM379.6084034375,45.20426368713379L381.8115234375,45.20426368713379L381.8115234375,37.36051368713379L379.6084034375,37.36051368713379L379.6084034375,45.20426368713379ZM377.2646434375,37.36051368713379L375.0615234375,37.36051368713379L375.0615234375,45.20426368713379L377.2646434375,45.20426368713379L377.2646434375,37.36051368713379ZM387.2646234375,37.44645368713379L390.8896234375,37.44645368713379Q389.7334234375,36.46207368713379,388.5303234375,35.50895368713379L389.7021234375,34.21207568713379Q391.0927234375,35.16520368713379,392.5146234375,36.27457368713379Q392.4990234375,36.30582368713379,391.3740234375,37.44645368713379L393.3427234375,37.44645368713379L393.3427234375,34.07145168713379L395.4677234375,34.07145168713379L395.4677234375,37.44645368713379L397.5771234375,37.44645368713379L396.5303234375,36.39957368713379Q397.7177234375,35.44645368713379,399.2021234375,34.18082568713379L400.5927234375,35.50895368713379Q399.2803234375,36.58707368713379,398.1553234375,37.44645368713379L401.6084234375,37.44645368713379L401.6084234375,39.29020368713379L396.2490234375,39.29020368713379Q399.1084234375,40.30582368713379,401.4990234375,41.22770368713379L400.6240234375,42.99332368713379Q398.5459234375,42.02457368713379,395.4677234375,40.69645368713379L395.4677234375,41.97770368713379L393.3427234375,41.97770368713379L393.3427234375,40.52457368713379Q391.5303234375,42.04020368713379,388.4677234375,42.96207368713379Q388.0459234375,42.02457368713379,387.4365234375,41.05582368713379Q390.4053234375,40.46207368713379,392.0771234375,39.29020368713379L387.2646234375,39.29020368713379L387.2646234375,37.44645368713379ZM386.9990234375,43.32145368713379L393.2334234375,43.32145368713379Q393.2959234375,42.89957368713379,393.3115234375,42.41520368713379L395.4521234375,42.41520368713379Q395.4053234375,42.89957368713379,395.3427234375,43.32145368713379L401.8896234375,43.32145368713379L401.8896234375,45.22766368713379L396.4677234375,45.22766368713379Q398.4053234375,47.16516368713379,402.0303234375,47.55586368713379Q401.0927234375,48.83706368713379,400.6396234375,49.555863687133794Q396.4521234375,48.64956368713379,394.4990234375,45.49336368713379Q393.5615234375,48.22766368713379,388.1709234375,49.508963687133786Q387.4053234375,48.30586368713379,386.8584234375,47.60266368713379Q391.0459234375,46.99336368713379,392.4834234375,45.22766368713379L386.9990234375,45.22766368713379L386.9990234375,43.32145368713379Z" fill="#00FF00" fill-opacity="1"/></g></g></g><g><g><g><path d="M308.7919924375,70.1407436328125L314.8623034375,70.1407436328125L314.8623034375,67.0509036328125L309.9130834375,67.0509036328125L309.9130834375,66.0118436328125L314.8623034375,66.0118436328125L314.8623034375,63.6192636328125L316.0517534375,63.6192636328125L316.0517534375,66.0118436328125L321.0967234375,66.0118436328125L321.0967234375,67.0509036328125L316.0517534375,67.0509036328125L316.0517534375,70.1407436328125L322.1767234375,70.1407436328125L322.1767234375,71.1798136328125L315.4091834375,71.1798136328125Q313.9189434375,73.2647236328125,312.0595734375,75.3907236328125Q313.6113234375,75.3497236328125,318.9433234375,75.1788236328125Q318.0341834375,73.9620236328125,317.0224634375,72.6974236328125L317.8837934375,72.0958236328125Q319.7295234375,74.2696236328125,321.4385234375,76.53922363281251L320.4267234375,77.22282363281249Q320.0303234375,76.6554236328125,319.6064234375,76.07432363281251Q315.0195334375,76.2247236328125,311.6630834375,76.4845236328125Q311.2666034375,76.52552363281251,310.4873034375,76.7032236328125L309.8994134375,75.5685236328125Q310.5830034375,75.3360236328125,311.0341834375,74.8849236328125Q312.5039034375,73.3194236328125,313.9189434375,71.1798136328125L308.7919924375,71.1798136328125L308.7919924375,70.1407436328125ZM322.6963234375,72.5333236328125L324.8974234375,72.5333236328125L324.8974234375,68.6231736328125L329.7373234375,68.6231736328125L329.7373234375,66.1895736328125L325.7177234375,66.1895736328125Q324.7949234375,67.8507036328125,323.6533234375,69.2520736328125Q323.2978234375,68.8692636328125,322.8056234375,68.4864536328125Q324.7470234375,66.2989536328125,325.7177234375,63.5782436328125L326.8388234375,63.8927036328125Q326.5517234375,64.5694536328125,326.2373234375,65.2052036328125L335.6435234375,65.2052036328125L335.6435234375,66.1895736328125L330.8447234375,66.1895736328125L330.8447234375,68.6231736328125L335.4111234375,68.6231736328125L335.4111234375,69.5802036328125L330.8447234375,69.5802036328125L330.8447234375,72.5333236328125L336.2588234375,72.5333236328125L336.2588234375,73.5177236328125L330.8447234375,73.5177236328125L330.8447234375,77.20912363281249L329.7373234375,77.20912363281249L329.7373234375,73.5177236328125L322.6963234375,73.5177236328125L322.6963234375,72.5333236328125ZM325.9775234375,72.5333236328125L329.7373234375,72.5333236328125L329.7373234375,69.5802036328125L325.9775234375,69.5802036328125L325.9775234375,72.5333236328125ZM338.6513234375,77.0177236328125L337.5986234375,77.0177236328125L337.5986234375,64.4805936328125L349.2470234375,64.4805936328125L349.2470234375,75.43172363281249Q349.2470234375,76.94932363281251,347.6474234375,76.94932363281251Q346.6494234375,76.94932363281251,345.3779234375,76.8946236328125Q345.3095234375,76.4161236328125,345.1865234375,75.8009236328125Q346.5400234375,75.9239236328125,347.4287234375,75.9239236328125Q348.1943234375,75.9239236328125,348.1943234375,75.1583236328125L348.1943234375,65.4923136328125L338.6513234375,65.4923136328125L338.6513234375,77.0177236328125ZM340.5381234375,69.7169236328125L346.2939234375,69.7169236328125L346.2939234375,74.0235236328125L341.5498234375,74.0235236328125L341.5498234375,74.7345236328125L340.5381234375,74.7345236328125L340.5381234375,69.7169236328125ZM345.2822234375,70.70129363281251L341.5498234375,70.70129363281251L341.5498234375,73.03922363281251L345.2822234375,73.03922363281251L345.2822234375,70.70129363281251ZM339.4170234375,67.1602736328125L347.4287234375,67.1602736328125L347.4287234375,68.1446536328125L339.4170234375,68.1446536328125L339.4170234375,67.1602736328125ZM358.6806234375,64.2481736328125L363.5205234375,64.2481736328125L363.5205234375,75.3360236328125Q363.5205234375,76.94932363281251,361.9892234375,76.94932363281251Q361.2236234375,76.94932363281251,360.4853234375,76.9083236328125Q360.4306234375,76.4571236328125,360.3213234375,75.8556236328125Q361.3193234375,75.9513236328125,361.7568234375,75.9513236328125Q362.5088234375,75.9513236328125,362.5088234375,75.19932363281251L362.5088234375,72.3282236328125L359.5830234375,72.3282236328125Q359.4326234375,75.3224236328125,357.7646234375,77.3048236328125Q357.3955234375,76.9220236328125,356.9443234375,76.53922363281251Q358.0517234375,75.2677236328125,358.3525234375,73.90052363281251Q358.6806234375,72.58802363281251,358.6806234375,69.3341036328125L358.6806234375,64.2481736328125ZM350.7099234375,72.83412363281249L351.9951234375,72.83412363281249L351.9951234375,66.5177036328125L350.8740234375,66.5177036328125L350.8740234375,65.5880136328125L351.9951234375,65.5880136328125L351.9951234375,63.9200436328125L353.0068234375,63.9200436328125L353.0068234375,65.5880136328125L355.8506234375,65.5880136328125L355.8506234375,63.8653536328125L356.8623234375,63.8653536328125L356.8623234375,65.5880136328125L357.9697234375,65.5880136328125L357.9697234375,66.5177036328125L356.8623234375,66.5177036328125L356.8623234375,72.83412363281249L357.9560234375,72.83412363281249L357.9560234375,73.7638236328125L350.7099234375,73.7638236328125L350.7099234375,72.83412363281249ZM359.64452343749997,71.4259236328125L362.5088234375,71.4259236328125L362.5088234375,68.7462136328125L359.6924234375,68.7462136328125Q359.7060234375,70.5098836328125,359.64452343749997,71.4259236328125ZM362.5088234375,65.1778536328125L359.6924234375,65.1778536328125L359.6924234375,67.8438736328125L362.5088234375,67.8438736328125L362.5088234375,65.1778536328125ZM353.0068234375,72.83412363281249L355.8506234375,72.83412363281249L355.8506234375,71.3028536328125L353.0068234375,71.3028536328125L353.0068234375,72.83412363281249ZM353.0068234375,70.4278536328125L355.8506234375,70.4278536328125L355.8506234375,68.9102736328125L353.0068234375,68.9102736328125L353.0068234375,70.4278536328125ZM353.0068234375,68.0352736328125L355.8506234375,68.0352736328125L355.8506234375,66.5177036328125L353.0068234375,66.5177036328125L353.0068234375,68.0352736328125ZM353.0068234375,74.0235236328125L353.8408234375,74.6798236328125Q352.4599234375,76.1700236328125,351.3252234375,77.18172363281249Q351.0381234375,76.8536236328125,350.6006234375,76.4571236328125Q351.8994234375,75.3497236328125,353.0068234375,74.0235236328125ZM354.7978234375,74.6661236328125L355.4541234375,73.9962236328125Q356.4111234375,74.7071236328125,357.2588234375,75.43172363281249L356.53422343750003,76.2110236328125Q355.7685234375,75.44542363281249,354.7978234375,74.6661236328125Z" fill="#FFFFFF" fill-opacity="1"/></g></g><g><g><path d="M371.5380834375,73.20426368713379L372.7255834375,73.20426368713379L372.7255834375,65.36051368713379L371.5380834375,65.36051368713379L371.5380834375,63.23551368713379L385.3349234375,63.23551368713379L385.3349234375,65.36051368713379L384.1474234375,65.36051368713379L384.1474234375,73.20426368713379L385.3349234375,73.20426368713379L385.3349234375,75.32926368713379L371.5380834375,75.32926368713379L371.5380834375,73.20426368713379ZM379.6084034375,73.20426368713379L381.8115234375,73.20426368713379L381.8115234375,65.36051368713379L379.6084034375,65.36051368713379L379.6084034375,73.20426368713379ZM377.2646434375,65.36051368713379L375.0615234375,65.36051368713379L375.0615234375,73.20426368713379L377.2646434375,73.20426368713379L377.2646434375,65.36051368713379ZM387.2646234375,65.44645368713378L390.8896234375,65.44645368713378Q389.7334234375,64.4620736871338,388.5303234375,63.50895368713379L389.7021234375,62.21207568713379Q391.0927234375,63.16520368713379,392.5146234375,64.2745736871338Q392.4990234375,64.3058236871338,391.3740234375,65.44645368713378L393.3427234375,65.44645368713378L393.3427234375,62.07145168713379L395.4677234375,62.07145168713379L395.4677234375,65.44645368713378L397.5771234375,65.44645368713378L396.5303234375,64.3995736871338Q397.7177234375,63.44645368713379,399.2021234375,62.18082568713379L400.5927234375,63.50895368713379Q399.2803234375,64.5870736871338,398.1553234375,65.44645368713378L401.6084234375,65.44645368713378L401.6084234375,67.29020368713378L396.2490234375,67.29020368713378Q399.1084234375,68.3058236871338,401.4990234375,69.22770368713378L400.6240234375,70.9933236871338Q398.5459234375,70.0245736871338,395.4677234375,68.69645368713378L395.4677234375,69.97770368713378L393.3427234375,69.97770368713378L393.3427234375,68.5245736871338Q391.5303234375,70.04020368713378,388.4677234375,70.9620736871338Q388.0459234375,70.0245736871338,387.4365234375,69.0558236871338Q390.4053234375,68.4620736871338,392.0771234375,67.29020368713378L387.2646234375,67.29020368713378L387.2646234375,65.44645368713378ZM386.9990234375,71.32145368713378L393.2334234375,71.32145368713378Q393.2959234375,70.8995736871338,393.3115234375,70.41520368713378L395.4521234375,70.41520368713378Q395.4053234375,70.8995736871338,395.3427234375,71.32145368713378L401.8896234375,71.32145368713378L401.8896234375,73.22766368713378L396.4677234375,73.22766368713378Q398.4053234375,75.16516368713378,402.0303234375,75.5558636871338Q401.0927234375,76.83706368713379,400.6396234375,77.5558636871338Q396.4521234375,76.64956368713379,394.4990234375,73.4933636871338Q393.5615234375,76.22766368713378,388.1709234375,77.50896368713379Q387.4053234375,76.3058636871338,386.8584234375,75.60266368713378Q391.0459234375,74.9933636871338,392.4834234375,73.22766368713378L386.9990234375,73.22766368713378L386.9990234375,71.32145368713378Z" fill="#00FF00" fill-opacity="1"/></g></g></g></g></g></g></svg>