<svg xmlns="http://www.w3.org/2000/svg" xmlns:xlink="http://www.w3.org/1999/xlink" fill="none" version="1.1" width="16" height="16" viewBox="0 0 16 16"><defs><clipPath id="master_svg0_441_025437/302_58683"><rect x="0" y="16" width="16" height="16" rx="0"/></clipPath></defs><g transform="matrix(1,0,0,-1,0,32)" clip-path="url(#master_svg0_441_025437/302_58683)"><g><path d="M8.268284062500001,16.11619L13.6934640625,22.33298C13.7813640625,22.43334,13.8023640625,22.57585,13.7472640625,22.69732C13.6921640625,22.8188,13.5710640625,22.89678,13.4376640625,22.89669L10.7709940625,22.89669C10.6014140625,22.895229999999998,10.4573640625,23.02042,10.4351640625,23.18854C10.2352640625,24.6358,9.0278940625,31.0365,3.3108340624999997,31.984C3.1571670625,32.0137,3.0031090625,31.9345,2.9377040625,31.7924C2.8722980625,31.650199999999998,2.9124620625,31.4817,3.0349800625,31.3843C4.0144740625,30.6167,5.2938140625,29.1295,5.6536340625,26.482799999999997C5.7917640625,25.40767,5.8585440625,24.32452,5.8535240625,23.24052C5.8535740625,23.0515,5.7026740625,22.89704,5.5137040625000004,22.892699999999998L2.5832130625,22.892699999999998C2.4498080625,22.892780000000002,2.3286922625,22.814799999999998,2.2735539625,22.69333C2.2184155625,22.57185,2.2394545825,22.42935,2.3273448625,22.32899L7.7565440625,16.11619C7.8919440625,15.9612699,8.132874062500001,15.9612699,8.268284062500001,16.11619Z" fill="#04EA00" fill-opacity="1" style="mix-blend-mode:passthrough"/></g></g></svg>