<svg xmlns="http://www.w3.org/2000/svg" xmlns:xlink="http://www.w3.org/1999/xlink" fill="none" version="1.1" width="16" height="16" viewBox="0 0 16 16"><defs><clipPath id="master_svg0_457_68811"><rect x="0" y="0" width="16" height="16" rx="0"/></clipPath><filter id="master_svg1_457_68814" filterUnits="objectBoundingBox" color-interpolation-filters="sRGB" x="0" y="0" width="1" height="1"><feFlood flood-opacity="0" result="BackgroundImageFix"/><feBlend mode="normal" in="SourceGraphic" in2="BackgroundImageFix" result="shape"/><feColorMatrix in="SourceAlpha" type="matrix" result="hardAlpha" values="0 0 0 0 0 0 0 0 0 0 0 0 0 0 0 0 0 0 127 0"/><feOffset dy="0" dx="0"/><feGaussianBlur stdDeviation="2"/><feComposite in2="hardAlpha" operator="arithmetic" k2="-1" k3="1"/><feColorMatrix type="matrix" values="0 0 0 0 0.003921568859368563 0 0 0 0 0.686274528503418 0 0 0 0 1 0 0 0 1 0"/><feBlend mode="normal" in2="shape" result="effect1_innerShadow"/></filter><linearGradient x1="0.5" y1="0" x2="0.5" y2="1" id="master_svg2_457_69912"><stop offset="0%" stop-color="#00B7FF" stop-opacity="0.550000011920929"/><stop offset="100%" stop-color="#0095FF" stop-opacity="1"/></linearGradient><linearGradient x1="0.5" y1="0" x2="0.5" y2="1" id="master_svg3_457_69874"><stop offset="0%" stop-color="#B6E0FF" stop-opacity="0"/><stop offset="100%" stop-color="#72BEF4" stop-opacity="1"/></linearGradient></defs><g clip-path="url(#master_svg0_457_68811)"><g filter="url(#master_svg1_457_68814)"><path d="M7.999,0C3.58832,0,0,3.58832,0,7.999C0,12.4117,3.58832,16,7.999,16C12.4097,16,15.998,12.4117,15.998,7.999C15.998,3.59032,12.4097,2.04037e-7,7.999,0Z" fill="url(#master_svg2_457_69912)" fill-opacity="0.009999999776482582"/><path d="M7.999,0C3.58832,0,0,3.58832,0,7.999C0,12.4117,3.58832,16,7.999,16C12.4097,16,15.998,12.4117,15.998,7.999C15.998,3.59032,12.4097,0,7.999,0ZM7.999,1Q5.1052,1,3.0526,3.0526Q1,5.1052,1,7.999Q1,10.8942,3.05266,12.9472Q5.1051,15,7.999,15Q10.8929,15,12.9453,12.9472Q14.998,10.8942,14.998,7.999Q14.998,5.10631,12.9453,3.05329Q10.8924,0.999999,7.999,1Z" fill-rule="evenodd" fill="url(#master_svg3_457_69874)" fill-opacity="1"/></g><g><path d="M7.682650000000001,11.924050000000001C7.61767,12.026810000000001,7.466559999999999,12.0253,7.40611,11.91952C7.01926,11.24555,5.80128,9.35662,4,8.78843L4.79486,8.27162C5.5549599999999995,7.777480000000001,6.5795200000000005,7.996589999999999,7.0540199999999995,8.76879Q7.39705,9.3264,7.53909,9.88099Q9.364550000000001,5.770682,11.90176,5Q11.109919999999999,6.80884,12.26594,8.11446C12.26292,8.11446,9.630510000000001,8.84737,7.682650000000001,11.924050000000001Z" fill="#FFFFFF" fill-opacity="1"/></g></g></svg>