<svg xmlns="http://www.w3.org/2000/svg" xmlns:xlink="http://www.w3.org/1999/xlink" fill="none" version="1.1" width="36" height="36" viewBox="0 0 36 36"><defs><filter id="master_svg0_488_18637/5_5918" filterUnits="objectBoundingBox" color-interpolation-filters="sRGB" x="-3.115526282933634" y="-0.6244649851503045" width="7.231052565867268" height="2.2489299703006087"><feFlood flood-opacity="0" result="BackgroundImageFix"/><feColorMatrix in="SourceAlpha" type="matrix" values="0 0 0 0 0 0 0 0 0 0 0 0 0 0 0 0 0 0 127 0"/><feOffset dy="0" dx="0"/><feGaussianBlur stdDeviation="1.5"/><feColorMatrix type="matrix" values="0 0 0 0 0 0 0 0 0 0.7490196228027344 0 0 0 0 1 0 0 0 1 0"/><feBlend mode="normal" in2="BackgroundImageFix" result="effect1_dropShadow"/><feBlend mode="normal" in="SourceGraphic" in2="effect1_dropShadow" result="shape"/></filter></defs><g><g style="opacity:0.6000000238418579;"><rect x="0.25" y="0.25" width="35.5" height="35.5" rx="0" fill-opacity="0" stroke-opacity="0.6000000238418579" stroke="#46DC87" fill="none" stroke-width="0.5"/></g><g><rect x="5" y="5" width="26" height="26" rx="0" fill="#2D955A" fill-opacity="0.15000000596046448"/><rect x="5.25" y="5.25" width="25.5" height="25.5" rx="0" fill-opacity="0" stroke-opacity="1" stroke="#46DC87" fill="none" stroke-width="0.5"/></g><g><g><path d="M20.627702343750002,10.1717325859375C20.42520234375,9.8189245859375,20.03990234375,9.5999727665175,19.62170234375,9.5999755859375L16.37819234375,9.5999984937375C15.95997234375,9.6000013131375,15.57473234375,9.8189505859375,15.37220234375,10.1717505859375L8.54372734375,22.0665755859375C8.34702714375,22.4091755859375,8.35241044375,22.8264755859375,8.55789034375,23.1642755859375L10.19281234375,25.8521755859375C10.39921234375,26.1914755859375,10.77665234375,26.3999755859375,11.184652343749999,26.3999755859375L24.81500234375,26.3999755859375C25.22300234375,26.3999755859375,25.60040234375,26.1914755859375,25.80680234375,25.8521755859375L27.44190234375,23.1642755859375C27.64740234375,22.8264755859375,27.65280234375,22.4091755859375,27.45610234375,22.0664755859375L20.627702343750002,10.1717325859375Z" fill-rule="evenodd" fill="#2D955A" fill-opacity="0.5"/><path d="M20.627702343750002,10.1717325859375C20.42520234375,9.8189245859375,20.03990234375,9.5999727665175,19.62170234375,9.5999755859375L16.37819234375,9.5999984937375C15.95997234375,9.6000013131375,15.57473234375,9.8189505859375,15.37220234375,10.1717505859375L8.54372734375,22.0665755859375C8.34702714375,22.4091755859375,8.35241044375,22.8264755859375,8.55789034375,23.1642755859375L10.19281234375,25.8521755859375C10.39921234375,26.1914755859375,10.77665234375,26.3999755859375,11.184652343749999,26.3999755859375L24.81500234375,26.3999755859375C25.22300234375,26.3999755859375,25.60040234375,26.1914755859375,25.80680234375,25.8521755859375L27.44190234375,23.1642755859375C27.64740234375,22.8264755859375,27.65280234375,22.4091755859375,27.45610234375,22.0664755859375L20.627702343750002,10.1717325859375ZM20.10740234375,10.4704495859375Q19.95210234375,10.1999735859375,19.62170234375,10.1999755859375L16.37819234375,10.1999985859375Q16.04782234375,10.2000005859375,15.892552343750001,10.4704695859375L9.06408034375,22.3652755859375Q8.92331034375,22.6104755859375,9.07050934375,22.852475585937498L10.705432343750001,25.5403755859375Q10.863332343749999,25.7999755859375,11.184652343749999,25.7999755859375L24.81500234375,25.7999755859375Q25.13630234375,25.7999755859375,25.29420234375,25.5403755859375L26.92930234375,22.852475585937498Q27.07650234375,22.6104755859375,26.93570234375,22.3651755859375L20.10740234375,10.4704495859375Z" fill-rule="evenodd" fill="#46DC87" fill-opacity="1"/></g><g filter="url(#master_svg0_488_18637/5_5918)"><path d="M17.423939375,19.441028710937502C17.474959375,19.7193187109375,17.717502375,19.9214387109375,18.000433375,19.9214387109375C18.283359375,19.9214387109375,18.525909375,19.7193187109375,18.576929375,19.441028710937502L18.961259375,14.1565017109375C18.960139375,13.6263157109375,18.530619375,13.1967913509375,18.000433375,13.1956787109375C17.437383375,13.2095638109375,16.999930175,13.6907617109375,17.039610345,14.2525787109375L17.423939375,19.441028710937502ZM18.000433375,20.8822587109375C17.469785375,20.8822587109375,17.039610345,21.3124287109375,17.039610345,21.843078710937498C17.039610345,22.3737287109375,17.469785375,22.8038987109375,18.000433375,22.8038987109375C18.531079375,22.8038987109375,18.961259375,22.3737287109375,18.961259375,21.843078710937498C18.994109375,21.2994087109375,18.544109375,20.8494087109375,18.000433375,20.8822587109375Z" fill="#FFFFFF" fill-opacity="1"/></g></g></g></svg>