<svg xmlns="http://www.w3.org/2000/svg" xmlns:xlink="http://www.w3.org/1999/xlink" fill="none" version="1.1" width="36" height="36.5" viewBox="0 0 36 36.5"><defs><radialGradient cx="0" cy="0" r="1" gradientUnits="userSpaceOnUse" id="master_svg0_5_5585" gradientTransform="translate(18 18.5) rotate(90) scale(29.06815266609192 29.06815266609192)"><stop offset="0%" stop-color="#FF0000" stop-opacity="1"/><stop offset="100%" stop-color="#CC0A0A" stop-opacity="0"/></radialGradient><radialGradient cx="0" cy="0" r="1" gradientUnits="userSpaceOnUse" id="master_svg1_5_5597" gradientTransform="translate(17.999902725219727 17.999975204467773) rotate(90) scale(22.336022888545813 25.526885474796472)"><stop offset="0%" stop-color="#FF0000" stop-opacity="0.5299999713897705"/><stop offset="99.99995827674866%" stop-color="#CC0A0A" stop-opacity="0"/></radialGradient><filter id="master_svg2_488_18650/5_5589" filterUnits="objectBoundingBox" color-interpolation-filters="sRGB" x="-3.115526282933634" y="-0.6244649851503045" width="7.231052565867268" height="2.2489299703006087"><feFlood flood-opacity="0" result="BackgroundImageFix"/><feColorMatrix in="SourceAlpha" type="matrix" values="0 0 0 0 0 0 0 0 0 0 0 0 0 0 0 0 0 0 127 0"/><feOffset dy="0" dx="0"/><feGaussianBlur stdDeviation="1.5"/><feColorMatrix type="matrix" values="0 0 0 0 0.7584999799728394 0 0 0 0 0 0 0 0 0 0 0 0 0 1 0"/><feBlend mode="normal" in2="BackgroundImageFix" result="effect1_dropShadow"/><feBlend mode="normal" in="SourceGraphic" in2="effect1_dropShadow" result="shape"/></filter></defs><g><g><g style="opacity:0.6000000238418579;"><rect x="0.25" y="0.75" width="35.5" height="35.5" rx="0" fill-opacity="0" stroke-opacity="0.6000000238418579" stroke="#FF2B2B" fill="none" stroke-width="0.5"/></g><g><rect x="5" y="5.5" width="26" height="26" rx="0" fill="url(#master_svg0_5_5585)" fill-opacity="0.30000001192092896"/><rect x="5.25" y="5.75" width="25.5" height="25.5" rx="0" fill-opacity="0" stroke-opacity="1" stroke="#FF2B2B" fill="none" stroke-width="0.5"/></g><g><g><path d="M20.627702343750002,10.1717325859375C20.42520234375,9.8189245859375,20.03990234375,9.5999727665175,19.62170234375,9.5999755859375L16.37819234375,9.5999984937375C15.95997234375,9.6000013131375,15.57473234375,9.8189505859375,15.37220234375,10.1717505859375L8.54372734375,22.0665755859375C8.34702714375,22.4091755859375,8.35241044375,22.8264755859375,8.55789034375,23.1642755859375L10.19281234375,25.8521755859375C10.39921234375,26.1914755859375,10.77665234375,26.3999755859375,11.184652343749999,26.3999755859375L24.81500234375,26.3999755859375C25.22300234375,26.3999755859375,25.60040234375,26.1914755859375,25.80680234375,25.8521755859375L27.44190234375,23.1642755859375C27.64740234375,22.8264755859375,27.65280234375,22.4091755859375,27.45610234375,22.0664755859375L20.627702343750002,10.1717325859375Z" fill-rule="evenodd" fill="url(#master_svg1_5_5597)" fill-opacity="1"/><path d="M20.627702343750002,10.1717325859375C20.42520234375,9.8189245859375,20.03990234375,9.5999727665175,19.62170234375,9.5999755859375L16.37819234375,9.5999984937375C15.95997234375,9.6000013131375,15.57473234375,9.8189505859375,15.37220234375,10.1717505859375L8.54372734375,22.0665755859375C8.34702714375,22.4091755859375,8.35241044375,22.8264755859375,8.55789034375,23.1642755859375L10.19281234375,25.8521755859375C10.39921234375,26.1914755859375,10.77665234375,26.3999755859375,11.184652343749999,26.3999755859375L24.81500234375,26.3999755859375C25.22300234375,26.3999755859375,25.60040234375,26.1914755859375,25.80680234375,25.8521755859375L27.44190234375,23.1642755859375C27.64740234375,22.8264755859375,27.65280234375,22.4091755859375,27.45610234375,22.0664755859375L20.627702343750002,10.1717325859375ZM20.10740234375,10.4704495859375Q19.95210234375,10.1999735859375,19.62170234375,10.1999755859375L16.37819234375,10.1999985859375Q16.04782234375,10.2000005859375,15.892552343750001,10.4704695859375L9.06408034375,22.3652755859375Q8.92331034375,22.6104755859375,9.07050934375,22.852475585937498L10.705432343750001,25.5403755859375Q10.863332343749999,25.7999755859375,11.184652343749999,25.7999755859375L24.81500234375,25.7999755859375Q25.13630234375,25.7999755859375,25.29420234375,25.5403755859375L26.92930234375,22.852475585937498Q27.07650234375,22.6104755859375,26.93570234375,22.3651755859375L20.10740234375,10.4704495859375Z" fill-rule="evenodd" fill="#FF2B2B" fill-opacity="1"/></g><g filter="url(#master_svg2_488_18650/5_5589)"><path d="M17.423939375,19.391224023437502C17.474959375,19.6695140234375,17.717502375,19.8716340234375,18.000433375,19.8716340234375C18.283359375,19.8716340234375,18.525909375,19.6695140234375,18.576929375,19.391224023437502L18.961259375,14.1066970234375C18.960139375,13.5765110234375,18.530619375,13.1469866634375,18.000433375,13.1458740234375C17.437383375,13.1597591234375,16.999930175,13.6409570234375,17.039610345,14.2027740234375L17.423939375,19.391224023437502ZM18.000433375,20.8324540234375C17.469785375,20.8324540234375,17.039610345,21.2626240234375,17.039610345,21.793274023437498C17.039610345,22.3239240234375,17.469785375,22.7540940234375,18.000433375,22.7540940234375C18.531079375,22.7540940234375,18.961259375,22.3239240234375,18.961259375,21.793274023437498C18.994109375,21.2496040234375,18.544109375,20.7996040234375,18.000433375,20.8324540234375Z" fill="#FFFFFF" fill-opacity="1"/></g></g></g></g></svg>