<svg xmlns="http://www.w3.org/2000/svg" xmlns:xlink="http://www.w3.org/1999/xlink" fill="none" version="1.1" width="16" height="16" viewBox="0 0 16 16"><defs><filter id="master_svg0_488_18760/5_6357/5_5455" filterUnits="objectBoundingBox" color-interpolation-filters="sRGB" x="0" y="0" width="1" height="1"><feFlood flood-opacity="0" result="BackgroundImageFix"/><feBlend mode="normal" in="SourceGraphic" in2="BackgroundImageFix" result="shape"/><feGaussianBlur in="BackgroundImageFix" stdDeviation="5"/><feComposite in2="SourceAlpha" operator="in" result="effect1_foregroundBlur"/><feBlend mode="normal" in="SourceGraphic" in2="effect1_foregroundBlur" result="shape"/></filter></defs><g><g filter="url(#master_svg0_488_18760/5_6357/5_5455)"><ellipse cx="8.000027179718018" cy="8.000027179718018" rx="7.111111164093018" ry="7.111111164093018" fill="#2D955A" fill-opacity="1"/></g><g><path d="M5.714111328125,6.35L6.686755328125,6.35C6.686755328125,5.575,7.246021328125,5,7.999821328125,5C8.729311328125,5,9.312891328125,5.6,9.312891328125,6.35C9.312891328125,6.975,8.899521328125001,7.3375,8.048461328125,8.0375L7.963351328125,8.1125C7.683711328125,8.35,7.513501328125,8.7125,7.513501328125,9.1L7.513501328125,10.0125L8.486151328125,10.0125L8.486151328125,9.1C8.486151328125,9.025,8.522621328125,8.9375,8.571251328125,8.9L8.656361328125,8.825C9.531741328125,8.1125,10.285541328125,7.4875,10.285541328125,6.35C10.285541328125,5.05,9.264261328125,4,7.999821328125,4C6.723231328125,4,5.714111328125,5.0375,5.714111328125,6.35ZM7.513501328125,12L8.486151328125,12L8.486151328125,11L7.513501328125,11L7.513501328125,12Z" fill="#FFFFFF" fill-opacity="1"/></g></g></svg>