<svg xmlns="http://www.w3.org/2000/svg" xmlns:xlink="http://www.w3.org/1999/xlink" fill="none" version="1.1" width="389" height="40" viewBox="0 0 389 40"><defs><filter id="master_svg0_457_81038" filterUnits="objectBoundingBox" color-interpolation-filters="sRGB" x="0" y="0" width="1" height="1"><feFlood flood-opacity="0" result="BackgroundImageFix"/><feBlend mode="normal" in="SourceGraphic" in2="BackgroundImageFix" result="shape"/><feColorMatrix in="SourceAlpha" type="matrix" result="hardAlpha" values="0 0 0 0 0 0 0 0 0 0 0 0 0 0 0 0 0 0 127 0"/><feOffset dy="0" dx="0"/><feGaussianBlur stdDeviation="0.5"/><feComposite in2="hardAlpha" operator="arithmetic" k2="-1" k3="1"/><feColorMatrix type="matrix" values="0 0 0 0 0.42352941632270813 0 0 0 0 0.7803921699523926 0 0 0 0 1 0 0 0 0.5600000023841858 0"/><feBlend mode="normal" in2="shape" result="effect1_innerShadow"/></filter></defs><g><g><g><g><g><path d="M0.390625,17.46294005432129L0.332031,15.00204005432129L3.94531,14.84574005432129L3.94531,13.06844005432129L0.46875,13.06844005432129L0.46875,10.392640054321289Q0.966797,8.888710054321288,1.5918,6.095740054321289L0.332031,6.095740054321289L0.332031,3.791060054321289L2.08984,3.791060054321289L2.57812,1.369180054321289L5.05859,1.5449600543212891L4.54102,3.791060054321289L8.18359,3.791060054321289L8.18359,6.095740054321289L3.99414,6.095740054321289Q3.35938,8.69340005432129,2.79297,10.763740054321289L3.94531,10.763740054321289L3.94531,7.2090200543212895L6.28906,7.2090200543212895L6.28906,10.763740054321289L7.94922,10.763740054321289L7.94922,13.06844005432129L6.28906,13.06844005432129L6.28906,14.748040054321288L8.18359,14.66994005432129Q8.125,15.900440054321288,8.14453,16.974640054321288L6.28906,17.072340054321288L6.28906,20.64654005432129L3.94531,20.64654005432129L3.94531,17.21884005432129L0.390625,17.46294005432129ZM18.1641,2.248090054321289L18.1641,4.376990054321289Q17.1973,5.880900054321289,15.8691,7.179730054321289Q17.7051,8.12699005432129,19.8242,9.31840005432129L18.2812,11.54494005432129Q16.1035,10.070340054321289,13.916,8.810590054321288Q11.7676,10.36334005432129,8.94531,11.525440054321288Q8.26172,10.334040054321289,7.42188,9.16215005432129Q12.3438,7.443400054321289,14.9219,4.630900054321289L8.61328,4.630900054321289L8.61328,2.248090054321289L18.1641,2.248090054321289ZM7.73438,17.67774005432129L12.3242,17.67774005432129L12.3242,14.22074005432129L8.67188,14.22074005432129L8.67188,11.837940054321288L18.7891,11.837940054321288L18.7891,14.22074005432129L15.0586,14.22074005432129L15.0586,17.67774005432129L19.6875,17.67774005432129L19.6875,20.06054005432129L7.73438,20.06054005432129L7.73438,17.67774005432129ZM37.6758,12.69734005432129L37.6758,14.806640054321289Q36.1133,16.60354005432129,34.5508,17.697340054321288Q36.6992,18.107440054321287,39.707,18.20514005432129Q39.1211,19.33794005432129,38.5547,20.56844005432129Q34.2383,20.04104005432129,31.6211,19.10354005432129Q28.8281,20.04104005432129,24.668,20.724640054321288Q24.1797,19.63094005432129,23.3984,18.55664005432129Q26.5625,18.40044005432129,29.0234,17.75594005432129Q27.4023,16.58404005432129,26.0547,14.806640054321289L24.8047,14.806640054321289L24.8047,12.69734005432129L37.6758,12.69734005432129ZM24.1406,10.25594005432129Q24.1797,17.58014005432129,22.1875,20.76374005432129Q21.1133,19.72854005432129,20.0586,18.92774005432129Q21.7188,15.82234005432129,21.6406,9.904340054321288L21.6406,3.087930054321289L29.4141,3.087930054321289Q29.1992,2.521520054321289,28.8477,1.720740054321289L32.0898,1.251990054321289Q32.4414,2.150430054321289,32.793,3.087930054321289L39.5508,3.087930054321289L39.5508,5.275430054321289L24.1406,5.275430054321289L24.1406,10.25594005432129ZM24.5703,6.486370054321289L26.6992,6.486370054321289L26.6992,5.666060054321289L29.1992,5.666060054321289L29.1992,6.486370054321289L34.043,6.486370054321289L34.043,5.666060054321289L36.543,5.666060054321289L36.543,6.486370054321289L39.1992,6.486370054321289L39.1992,8.59574005432129L36.543,8.59574005432129L36.543,11.779340054321288L26.6992,11.779340054321288L26.6992,8.59574005432129L24.5703,8.59574005432129L24.5703,6.486370054321289ZM31.7383,16.81844005432129Q33.5156,15.998040054321288,34.7656,14.806640054321289L28.8281,14.806640054321289Q30.0781,16.05664005432129,31.7383,16.81844005432129ZM34.043,9.78715005432129L34.043,8.59574005432129L29.1992,8.59574005432129L29.1992,9.78715005432129L34.043,9.78715005432129ZM42.207,1.505900054321289Q43.8477,2.677770054321289,45.5859,4.103560054321289L43.9258,6.017620054321289Q42.6172,4.767620054321289,40.6445,3.283240054321289L42.207,1.505900054321289ZM46.7383,2.2871500543212893L58.6719,2.2871500543212893L58.6719,4.591840054321289L46.7383,4.591840054321289L46.7383,2.2871500543212893ZM41.582,6.525430054321289Q42.8906,7.287150054321289,45.2148,8.90824005432129L43.6328,11.03714005432129Q42.3438,9.92387005432129,40.0781,8.53715005432129L41.582,6.525430054321289ZM45.5078,7.013710054321289L59.7266,7.013710054321289L59.7266,9.357460054321288L50.7617,9.357460054321288L50.2734,11.427740054321289L58.4766,11.427740054321289Q58.3496,13.59574005432129,58.1885,15.51954005432129Q58.0273,17.44344005432129,57.8076,18.11234005432129Q57.5879,18.781240054321287,57.168,19.235440054321288Q56.748,19.689540054321288,55.9229,19.92384005432129Q55.0977,20.15824005432129,53.7305,20.15824005432129Q52.2656,20.15824005432129,50.1172,20.06054005432129Q49.9023,18.83014005432129,49.6094,17.44344005432129Q52.6172,17.697340054321288,53.5547,17.697340054321288Q54.5801,17.697340054321288,54.9512,17.42384005432129Q55.3223,17.15044005432129,55.4297,16.45214005432129Q55.5371,15.753940054321289,55.6641,13.73244005432129L47.0703,13.73244005432129L48.0762,9.357460054321288L45.5078,9.357460054321288L45.5078,7.013710054321289ZM42.7539,11.955140054321289Q43.9062,12.521540054321289,45.3125,12.97074005432129Q43.7891,17.75594005432129,43.125,20.37304005432129Q41.7383,19.84574005432129,40.4688,19.45514005432129Q41.7383,16.05664005432129,42.7539,11.955140054321289ZM66.6797,5.6465200543212895L66.6797,3.419960054321289L69.1016,3.419960054321289Q69.1406,2.560590054321289,69.1406,1.4668400543212892L71.7383,1.4668400543212892Q71.7383,2.482460054321289,71.6992,3.419960054321289L76.1328,3.419960054321289L76.1328,8.43949005432129Q76.1328,9.22074005432129,76.6602,9.22074005432129L76.8555,9.22074005432129Q77.3828,9.22074005432129,77.4805,8.43949005432129Q77.6367,7.345740054321289,77.6953,6.212930054321289Q78.75,6.681680054321289,79.8828,7.033240054321289Q79.707,8.45902005432129,79.4922,9.53324005432129Q79.1016,11.525440054321288,77.0898,11.525440054321288L75.957,11.525440054321288Q73.5547,11.525440054321288,73.5547,8.84965005432129L73.5547,5.6465200543212895L71.5039,5.6465200543212895Q71.0352,9.044960054321288,68.6523,10.998040054321288L71.3086,10.998040054321288L71.3086,12.560540054321288L79.4141,12.560540054321288L79.4141,14.78714005432129L72.6758,14.78714005432129Q75.2344,16.759840054321288,79.707,17.912140054321288Q79.0039,19.12304005432129,78.4766,20.45124005432129Q74.0625,18.849640054321288,71.3086,16.17384005432129L71.3086,20.724640054321288L68.6523,20.724640054321288L68.6523,16.17384005432129Q66.0156,18.59574005432129,61.5039,20.45124005432129Q60.9375,19.33794005432129,60.2344,18.20514005432129Q64.5508,16.759840054321288,67.207,14.78714005432129L60.625,14.78714005432129L60.625,12.560540054321288L68.6523,12.560540054321288L68.6523,11.017640054321289Q68.0469,11.50594005432129,67.3047,12.013740054321289Q66.4258,10.97854005432129,65.4102,10.04104005432129Q68.5547,8.22465005432129,68.9062,5.6465200543212895L66.6797,5.6465200543212895ZM65.1172,7.072310054321289Q65.6055,8.009810054321289,66.2695,9.025430054321289Q63.8867,10.60744005432129,61.5039,12.306640054321289L60.2734,10.080140054321289Q62.5195,8.810590054321288,65.1172,7.072310054321289ZM62.5195,1.193400054321289Q64.4141,2.052770054321289,66.3281,3.087930054321289L65.0195,4.904340054321289Q63.2227,3.810590054321289,61.25,2.814490054321289L62.5195,1.193400054321289ZM61.3086,4.064490054321289Q63.0078,4.884810054321289,64.8438,5.900430054321289L63.5547,7.755900054321289Q61.8945,6.759810054321289,60.0586,5.8027700543212895L61.3086,4.064490054321289Z" fill="#FFFF00" fill-opacity="1"/></g></g></g></g><g filter="url(#master_svg0_457_81038)"><g><rect x="0" y="32" width="63.16666793823242" height="8" rx="0" fill="#FFFF00" fill-opacity="0.6000000238418579"/><rect x="0.5" y="32.5" width="62.16666793823242" height="7" rx="0" fill-opacity="0" stroke-opacity="1" stroke="#FFFF00" fill="none" stroke-width="1"/></g><g><rect x="65.16667175292969" y="32" width="63.16666793823242" height="8" rx="0" fill="#FFFF00" fill-opacity="0.6000000238418579"/><rect x="65.66667175292969" y="32.5" width="62.16666793823242" height="7" rx="0" fill-opacity="0" stroke-opacity="1" stroke="#FFFF00" fill="none" stroke-width="1"/></g><g><rect x="130.33334350585938" y="32" width="63.16666793823242" height="8" rx="0" fill="#FFFF00" fill-opacity="0.6000000238418579"/><rect x="130.83334350585938" y="32.5" width="62.16666793823242" height="7" rx="0" fill-opacity="0" stroke-opacity="1" stroke="#FFFF00" fill="none" stroke-width="1"/></g><g><rect x="195.50001525878906" y="32" width="63.16666793823242" height="8" rx="0" fill="#FFFF00" fill-opacity="0.6000000238418579"/><rect x="196.00001525878906" y="32.5" width="62.16666793823242" height="7" rx="0" fill-opacity="0" stroke-opacity="1" stroke="#FFFF00" fill="none" stroke-width="1"/></g><g><rect x="260.66668701171875" y="32" width="63.16666793823242" height="8" rx="0" fill="#00B7FF" fill-opacity="0.20000000298023224"/><rect x="261.16668701171875" y="32.5" width="62.16666793823242" height="7" rx="0" fill-opacity="0" stroke-opacity="0.5" stroke="#1470CC" fill="none" stroke-width="1"/></g><g><rect x="325.8333740234375" y="32" width="63.16666793823242" height="8" rx="0" fill="#00B7FF" fill-opacity="0.20000000298023224"/><rect x="326.3333740234375" y="32.5" width="62.16666793823242" height="7" rx="0" fill-opacity="0" stroke-opacity="0.5" stroke="#1470CC" fill="none" stroke-width="1"/></g></g></g></svg>