<svg xmlns="http://www.w3.org/2000/svg" xmlns:xlink="http://www.w3.org/1999/xlink" fill="none" version="1.1" width="389" height="40" viewBox="0 0 389 40"><defs><filter id="master_svg0_457_80971" filterUnits="objectBoundingBox" color-interpolation-filters="sRGB" x="0" y="0" width="1" height="1"><feFlood flood-opacity="0" result="BackgroundImageFix"/><feBlend mode="normal" in="SourceGraphic" in2="BackgroundImageFix" result="shape"/><feColorMatrix in="SourceAlpha" type="matrix" result="hardAlpha" values="0 0 0 0 0 0 0 0 0 0 0 0 0 0 0 0 0 0 127 0"/><feOffset dy="0" dx="0"/><feGaussianBlur stdDeviation="0.5"/><feComposite in2="hardAlpha" operator="arithmetic" k2="-1" k3="1"/><feColorMatrix type="matrix" values="0 0 0 0 0.42352941632270813 0 0 0 0 0.7803921699523926 0 0 0 0 1 0 0 0 0.5600000023841858 0"/><feBlend mode="normal" in2="shape" result="effect1_innerShadow"/></filter></defs><g><g><g><g><g><path d="M7.89062,1.6230900543212892L11.2109,1.271520054321289Q11.6309,2.355510054321289,11.9336,3.205120054321289L17.8516,3.205120054321289L17.8516,12.48244005432129L17.2363,12.48244005432129L18.8867,14.709040054321289L15.2246,16.48634005432129Q17.168,17.335940054321288,19.7266,17.83404005432129Q18.8281,19.08404005432129,17.9688,20.47074005432129Q12.6367,19.10354005432129,9.79492,15.900440054321288Q9.74609,17.56054005432129,9.74609,18.61524005432129Q4.20898,19.84574005432129,2.85156,20.66604005432129L1.23047,18.30274005432129Q2.10938,17.44344005432129,2.10938,15.744140054321289L2.10938,3.205120054321289L8.60352,3.205120054321289L7.89062,1.6230900543212892ZM15.1562,5.353560054321289L4.84375,5.353560054321289L4.84375,6.837930054321289L15.1562,6.837930054321289L15.1562,5.353560054321289ZM15.1562,10.334040054321289L15.1562,8.83012005432129L4.84375,8.83012005432129L4.84375,10.334040054321289L15.1562,10.334040054321289ZM4.84375,16.89654005432129L9.62891,15.71484005432129Q8.41797,14.31844005432129,7.49023,12.48244005432129L4.84375,12.48244005432129L4.84375,16.89654005432129ZM12.7344,15.070340054321289Q14.8828,13.820340054321289,17.0117,12.48244005432129L10.3418,12.48244005432129Q11.3574,14.00594005432129,12.7344,15.070340054321289ZM20.3125,4.845740054321289L22.6074,4.845740054321289Q22.8613,3.166060054321289,23.0859,1.2910600543212891L25.8008,1.5449600543212891L25.2539,4.845740054321289L29.1016,4.845740054321289Q28.9355,11.486340054321289,27.0117,15.19734005432129L29.7656,17.54104005432129L27.8125,19.63094005432129Q26.6992,18.47854005432129,25.5664,17.37504005432129Q24.1016,19.162140054321288,22.0508,20.43164005432129Q21.1523,19.22074005432129,20.293,18.26374005432129Q22.2461,17.121140054321287,23.6133,15.50984005432129Q22.2754,14.25984005432129,20.918,13.048840054321289Q21.6309,10.578140054321288,22.2168,7.287150054321289L20.3125,7.287150054321289L20.3125,4.845740054321289ZM23.7109,12.38484005432129L24.9609,13.449240054321288Q26.1035,11.056640054321289,26.3867,7.287150054321289L24.8047,7.287150054321289Q24.2871,9.93363005432129,23.7109,12.38484005432129ZM29.1406,9.70902005432129L33.3203,9.70902005432129L33.3203,7.853560054321289L36.0352,4.787150054321289L29.8242,4.787150054321289L29.8242,2.228560054321289L39.4141,2.228560054321289L39.4141,5.001990054321289L36.0938,8.83012005432129L36.0938,9.70902005432129L39.7461,9.70902005432129L39.7461,12.34574005432129L36.0938,12.34574005432129L36.0938,17.169940054321287Q36.0938,17.814540054321288,35.8301,18.62504005432129Q35.5664,19.43554005432129,34.8828,19.958040054321287Q34.1992,20.48054005432129,32.6562,20.50494005432129Q31.1133,20.52934005432129,30.2734,20.52934005432129Q30.0977,19.162140054321288,29.7852,17.89264005432129Q31.3867,18.058640054321287,32.0996,18.058640054321287Q33.3203,18.058640054321287,33.3203,16.36914005432129L33.3203,12.34574005432129L29.1406,12.34574005432129L29.1406,9.70902005432129Z" fill="#00FF00" fill-opacity="1"/></g></g></g></g><g filter="url(#master_svg0_457_80971)"><g><rect x="0" y="32" width="63.16666793823242" height="8" rx="0" fill="#00FF00" fill-opacity="0.6000000238418579"/><rect x="0.5" y="32.5" width="62.16666793823242" height="7" rx="0" fill-opacity="0" stroke-opacity="1" stroke="#00FF00" fill="none" stroke-width="1"/></g><g><rect x="65.16667175292969" y="32" width="63.16666793823242" height="8" rx="0" fill="#00FF00" fill-opacity="0.6000000238418579"/><rect x="65.66667175292969" y="32.5" width="62.16666793823242" height="7" rx="0" fill-opacity="0" stroke-opacity="1" stroke="#00FF00" fill="none" stroke-width="1"/></g><g><rect x="130.33334350585938" y="32" width="63.16666793823242" height="8" rx="0" fill="#00FF00" fill-opacity="0.6000000238418579"/><rect x="130.83334350585938" y="32.5" width="62.16666793823242" height="7" rx="0" fill-opacity="0" stroke-opacity="1" stroke="#00FF00" fill="none" stroke-width="1"/></g><g><rect x="195.50001525878906" y="32" width="63.16666793823242" height="8" rx="0" fill="#00B7FF" fill-opacity="0.20000000298023224"/><rect x="196.00001525878906" y="32.5" width="62.16666793823242" height="7" rx="0" fill-opacity="0" stroke-opacity="0.5" stroke="#1470CC" fill="none" stroke-width="1"/></g><g><rect x="260.66668701171875" y="32" width="63.16666793823242" height="8" rx="0" fill="#00B7FF" fill-opacity="0.20000000298023224"/><rect x="261.16668701171875" y="32.5" width="62.16666793823242" height="7" rx="0" fill-opacity="0" stroke-opacity="0.5" stroke="#1470CC" fill="none" stroke-width="1"/></g><g><rect x="325.8333740234375" y="32" width="63.16666793823242" height="8" rx="0" fill="#00B7FF" fill-opacity="0.20000000298023224"/><rect x="326.3333740234375" y="32.5" width="62.16666793823242" height="7" rx="0" fill-opacity="0" stroke-opacity="0.5" stroke="#1470CC" fill="none" stroke-width="1"/></g></g></g></svg>