<svg xmlns="http://www.w3.org/2000/svg" xmlns:xlink="http://www.w3.org/1999/xlink" fill="none" version="1.1" width="400" height="40" viewBox="0 0 400 40"><defs><linearGradient x1="1" y1="0.5" x2="0" y2="0.5" id="master_svg0_251_44717"><stop offset="0%" stop-color="#00CAD8" stop-opacity="0"/><stop offset="52.85714268684387%" stop-color="#00CAD8" stop-opacity="0.15000000596046448"/><stop offset="100%" stop-color="#00CAD8" stop-opacity="0"/></linearGradient></defs><g><rect x="0" y="0" width="400" height="40" rx="0" fill="url(#master_svg0_251_44717)" fill-opacity="1"/><g><g style="opacity:0;"><path d="M15.5,17.05469L20.875,17.05469L20.875,23.6328L16.6875,23.6328L16.6875,24.9922L15.5,24.9922L15.5,17.05469ZM14.90625,13.67969L25.7812,13.67969L25.7812,14.83594L24.2031,14.83594L24.2031,25.960900000000002Q24.2031,27.8203,22.2188,27.8203Q21.4375,27.8203,19.76562,27.8047Q19.6875,27.0859,19.51562,26.3828Q21.0469,26.5078,21.8906,26.5078Q22.9375,26.5078,22.9375,25.476599999999998L22.9375,14.83594L14.90625,14.83594L14.90625,13.67969ZM19.6875,18.16406L16.6875,18.16406L16.6875,22.523400000000002L19.6875,22.523400000000002L19.6875,18.16406ZM12.6875,21.5703Q13.4375,21.898400000000002,13.95312,22.0547Q13.34375,24.3828,12.25,28.0703L10.890625,27.5859Q11.92188,24.851599999999998,12.6875,21.5703ZM11.73438,13.16406Q12.8125,13.89844,14.51562,15.27344Q14.01562,15.83594,13.625,16.25781Q12.4375,15.14844,10.984375,14.05469L11.73438,13.16406ZM11,17.27344Q12.4375,18.32031,13.71875,19.39844Q13.23438,19.91406,12.84375,20.38281Q11.15625,18.86719,10.21875,18.16406L11,17.27344ZM31.5312,17.10156L34.75,17.10156L35.0547,15.74219L30.6406,15.74219L30.6406,14.71094L33.5781,14.71094Q33.210899999999995,14.1875,32.4375,13.25781L33.3438,12.58594Q34.1562,13.46094,34.7344,14.17969L34.023399999999995,14.71094L36.898399999999995,14.71094Q37.5781,13.77344,38.2656,12.63281L39.4531,13.24219Q38.9531,13.88281,38.2578,14.71094L41.5781,14.71094L41.5781,15.74219L36.3203,15.74219L35.9219,17.10156L40.4375,17.10156L40.4375,25.6172L39.2812,25.6172L39.2812,25.039099999999998L32.6875,25.039099999999998L32.6875,25.6172L31.5312,25.6172L31.5312,17.10156ZM32.7188,26.5703L36.5,26.6172L41.7969,26.4922Q41.5312,27.1016,41.2812,27.6953L36.0781,27.7422L32.6094,27.6797Q29.9844,27.6641,28.7188,25.8828Q28.2656,26.2422,26.8906,27.8828L26.2188,26.5547Q27.2344,25.648400000000002,28.1875,24.8281L28.1875,19.39844L26.375,19.39844L26.375,18.25781L29.375,18.25781L29.375,25.0938Q30.5078,26.5,32.7188,26.5703ZM32.6875,24.085900000000002L39.2812,24.085900000000002L39.2812,22.6797L32.6875,22.6797L32.6875,24.085900000000002ZM32.6875,21.7578L39.2812,21.7578L39.2812,20.36719L32.6875,20.36719L32.6875,21.7578ZM39.2812,18.05469L32.6875,18.05469L32.6875,19.44531L39.2812,19.44531L39.2812,18.05469ZM27.75,13.05469Q28.8281,14.30469,29.875,15.77344L28.7812,16.52344Q27.7344,14.89844,26.7969,13.74219L27.75,13.05469ZM42.3281,26.3828L44.1562,26.3828L44.1562,21.351599999999998L55.8438,21.351599999999998L55.8438,26.3828L57.7031,26.3828L57.7031,27.5078L42.3281,27.5078L42.3281,26.3828ZM48.4219,18.39844Q50.4062,15.92969,51.5625,12.60156L52.75,12.96094Q52.3438,14.00781,51.9062,14.94531L57.5625,14.94531L57.5625,16.03906L51.3672,16.03906Q50.4453,17.78906,49.3906,19.13281Q48.9219,18.75781,48.4219,18.39844ZM48.1406,12.75781L48.1406,20.85156L46.9531,20.85156L46.9531,12.75781L48.1406,12.75781ZM54.6562,22.4453L52.3125,22.4453L52.3125,26.3828L54.6562,26.3828L54.6562,22.4453ZM45.3438,26.3828L47.6719,26.3828L47.6719,22.4453L45.3438,22.4453L45.3438,26.3828ZM48.8281,26.3828L51.1562,26.3828L51.1562,22.4453L48.8281,22.4453L48.8281,26.3828ZM43.5625,13.66406L44.7344,13.66406L44.7344,20.13281L43.5625,20.13281L43.5625,13.66406ZM51.8438,17.72656L52.6406,16.89844Q54.4062,18.17969,56,19.57031L55.125,20.52344Q53.4219,18.92969,51.8438,17.72656ZM60.1875,21.6172Q60.9375,22.0078,61.4219,22.1953Q60.375,26.101599999999998,59.9062,27.9609L58.625,27.3672Q59.5469,24.7578,60.1875,21.6172ZM59.5938,13.08594Q60.5469,13.88281,61.9688,15.24219Q61.4531,15.74219,61.0312,16.17969Q59.8906,14.91406,58.7812,13.86719L59.5938,13.08594ZM58.8906,17.10156Q60.2031,18.16406,61.375,19.21094Q60.9688,19.63281,60.4688,20.19531Q59.0625,18.80469,58.125,17.96094L58.8906,17.10156ZM71.9375,12.78906L73.0781,12.78906L73.0781,26.085900000000002Q73.0781,27.8828,71.3438,27.8828Q70.5938,27.8828,69.5625,27.8516Q69.5,27.2734,69.3438,26.5703Q70.3438,26.6797,71.0469,26.6797Q71.9375,26.6797,71.9375,25.789099999999998L71.9375,12.78906ZM70.5938,24.414099999999998L69.5,24.414099999999998L69.5,14.05469L70.5938,14.05469L70.5938,24.414099999999998ZM62.2656,13.64844L68.1562,13.64844L68.1562,23.523400000000002L67.0312,23.523400000000002L67.0312,14.74219L63.3906,14.74219L63.3906,23.523400000000002L62.2656,23.523400000000002L62.2656,13.64844ZM64.7031,16.08594L65.8438,16.08594L65.8438,19.96094Q65.8438,22.335900000000002,65.4062,23.773400000000002Q67.4375,25.335900000000002,68.9375,26.585900000000002L68.0938,27.5391Q66.8438,26.351599999999998,65,24.8203Q64.0312,26.7422,61.5156,28.2109Q61.1719,27.7109,60.75,27.2109Q63.0781,25.8672,63.9375,24.226599999999998Q64.7031,22.8047,64.7031,19.99219L64.7031,16.08594ZM84.4375,12.74219L85.6875,12.92969Q85.3594,14.44531,84.9219,15.75781L89.7031,15.75781L89.7031,16.82031L88.7188,16.82031Q88.3281,21.414099999999998,86.7188,24.1172Q87.9844,25.835900000000002,89.9375,26.9297Q89.4375,27.6172,89.0938,28.1641Q87.1875,26.9297,85.9219,25.226599999999998Q84.4844,27.0078,82.5,28.3203Q82.1562,27.8672,81.6094,27.3359Q83.7969,25.898400000000002,85.1562,24.0703Q83.8906,21.8828,83.4844,19.02344Q83.1562,19.60156,82.7969,20.10156Q82.4844,19.64844,82.0156,19.10156Q83.8281,16.49219,84.4375,12.74219ZM74.375,21.7578L76.75,21.7578Q77.0938,21.164099999999998,77.4219,20.53906L78.5469,20.89844Q78.2969,21.335900000000002,78.0469,21.7578L81.875,21.7578L81.875,22.773400000000002Q81.2812,24.3047,80.0781,25.460900000000002Q80.9375,25.8672,81.8281,26.273400000000002L81.1406,27.3516Q80.1719,26.8047,79.125,26.2578Q77.3594,27.5234,74.6719,28.2578Q74.4219,27.7578,74.1406,27.1641Q76.4219,26.648400000000002,78,25.6797Q76.6562,24.9922,75.1875,24.273400000000002Q75.6875,23.5547,76.1562,22.789099999999998L74.375,22.789099999999998L74.375,21.7578ZM74.5469,16.38281L78.1406,16.38281L78.1406,12.88281L79.2969,12.88281L79.2969,16.38281L82.2969,16.38281L82.2969,17.41406L79.2969,17.41406L79.2969,18.36719L79.7656,17.83594Q81.2188,18.89844,82.2031,19.71094L81.4531,20.58594Q80.5938,19.77344,79.2969,18.75781L79.2969,20.53906L78.1406,20.53906L78.1406,18.35156Q76.7188,19.83594,74.8281,20.96094Q74.5312,20.50781,74.1562,20.00781Q76.125,18.94531,77.7656,17.41406L74.5469,17.41406L74.5469,16.38281ZM87.4688,16.82031L84.5469,16.82031Q84.4688,17.02344,84.375,17.21094Q84.6562,20.52344,85.9375,22.8828Q87.1875,20.60156,87.4688,16.82031ZM76.7188,23.914099999999998Q77.8281,24.414099999999998,79,24.960900000000002Q80.0781,24.039099999999998,80.6875,22.789099999999998L77.4375,22.789099999999998Q77.0781,23.3672,76.7188,23.914099999999998ZM81.5938,13.27344L82.5625,13.91406Q81.7031,15.03906,80.8438,15.99219Q80.4844,15.67969,80,15.33594Q80.8125,14.38281,81.5938,13.27344ZM74.9531,13.96094L75.8438,13.35156Q76.5469,14.21094,77.2969,15.19531L76.3281,15.88281Q75.6406,14.86719,74.9531,13.96094ZM97.25,22.664099999999998L100.4688,22.664099999999998L100.4688,20.67969L96.8281,20.67969Q96.6562,25.4844,94.6094,28.1016Q94.2344,27.6172,93.7656,27.1172Q95.7188,24.710900000000002,95.7188,19.72656L95.7188,13.63281L104.9375,13.63281L104.9375,18.16406L103.8125,18.16406L103.8125,17.67969L96.8438,17.67969L96.8438,19.61719L100.4688,19.61719L100.4688,17.97656L101.5938,17.97656L101.5938,19.61719L105.7188,19.61719L105.7188,20.67969L101.5938,20.67969L101.5938,22.664099999999998L104.8438,22.664099999999998L104.8438,27.9453L103.7188,27.9453L103.7188,27.0391L98.375,27.0391L98.375,27.9453L97.25,27.9453L97.25,22.664099999999998ZM90.25,21.085900000000002Q91.3594,20.78125,92.4062,20.46875L92.4062,16.89844L90.4375,16.89844L90.4375,15.77344L92.4062,15.77344L92.4062,12.78906L93.5625,12.78906L93.5625,15.77344L95.2656,15.77344L95.2656,16.89844L93.5625,16.89844L93.5625,20.10938Q94.3047,19.875,95.0156,19.63281Q95.0312,20.33594,95.1094,20.85156Q94.3047,21.1094,93.5625,21.3594L93.5625,26.085900000000002Q93.5625,27.8516,92.0156,27.8828Q91.5312,27.8984,90.5781,27.8672Q90.5156,27.2422,90.3906,26.5703Q91.25,26.664099999999998,91.7031,26.664099999999998Q92.4062,26.664099999999998,92.4062,25.8672L92.4062,21.7422Q91.3359,22.101599999999998,90.4062,22.4297L90.25,21.085900000000002ZM103.8125,14.66406L96.8438,14.66406L96.8438,16.64844L103.8125,16.64844L103.8125,14.66406ZM103.7188,23.6953L98.375,23.6953L98.375,26.023400000000002L103.7188,26.023400000000002L103.7188,23.6953Z" fill="#FFFFFF" fill-opacity="1"/></g></g><g><g style="opacity:0;"><path d="M335.66667,17.05208Q335.66667,16.07292,335.04688,15.51042Q334.43229,14.94792,333.36979,14.94792Q332.61979,14.94792,331.85417,15.33333Q331.08854,15.71354,330.42188,16.42708L330.42188,14.9375Q331.01562,14.32292,331.77083,13.99479Q332.52604,13.66667,333.54167,13.66667Q335.18229,13.66667,336.18229,14.54688Q337.18229,15.42708,337.18229,16.932290000000002Q337.18229,18.27083,336.56771,19.25Q335.95833,20.22917,334.47396,21.255200000000002Q332.95833,22.307299999999998,332.44271,22.7604Q331.93229,23.2135,331.72917,23.630200000000002Q331.52604,24.0469,331.52604,24.6406L337.54167,24.6406L337.54167,26L329.932292,26L329.932292,25.3958Q329.932292,24.349,330.21875,23.619799999999998Q330.50521,22.8854,331.16146,22.192700000000002Q331.81771,21.5,333.20833,20.526040000000002Q334.63021,19.526040000000002,335.14583,18.77083Q335.66667,18.01562,335.66667,17.05208ZM339.4531,23.5833Q340.6979,24.7344,342.2604,24.7344Q343.5104,24.7344,344.2396,24.1354Q344.9688,23.5312,344.9688,22.5208Q344.9688,20.26562,341.6823,20.26562L340.6719,20.26562L340.6719,19L341.6354,19Q344.5469,19,344.5469,16.89062Q344.5469,14.94271,342.3229,14.94271Q341.0469,14.94271,339.9219,15.75L339.9219,14.30208Q341.1094,13.66667,342.6927,13.66667Q344.2396,13.66667,345.1771,14.46354Q346.1146,15.26042,346.1146,16.53125Q346.1146,18.869790000000002,343.6927,19.54167L343.6927,19.57292Q345.0052,19.713540000000002,345.7656,20.48958Q346.5312,21.2604,346.5312,22.4167Q346.5312,24.026,345.3542,25.0156Q344.1823,26,342.2292,26Q340.5104,26,339.4531,25.1719L339.4531,23.5833ZM354.3333,17.05208Q354.3333,16.07292,353.7135,15.51042Q353.099,14.94792,352.0365,14.94792Q351.2865,14.94792,350.5208,15.33333Q349.7552,15.71354,349.0885,16.42708L349.0885,14.9375Q349.6823,14.32292,350.4375,13.99479Q351.1927,13.66667,352.2083,13.66667Q353.849,13.66667,354.849,14.54688Q355.849,15.42708,355.849,16.932290000000002Q355.849,18.27083,355.2344,19.25Q354.625,20.22917,353.1406,21.255200000000002Q351.625,22.307299999999998,351.1094,22.7604Q350.599,23.2135,350.3958,23.630200000000002Q350.1927,24.0469,350.1927,24.6406L356.2083,24.6406L356.2083,26L348.599,26L348.599,25.3958Q348.599,24.349,348.8854,23.619799999999998Q349.1719,22.8854,349.8281,22.192700000000002Q350.4844,21.5,351.875,20.526040000000002Q353.2969,19.526040000000002,353.8125,18.77083Q354.3333,18.01562,354.3333,17.05208ZM364.2656,13.66667L364.2656,21.6667L366.0781,21.6667L366.0781,22.932299999999998L364.2656,22.932299999999998L364.2656,26L362.7812,26L362.7812,22.932299999999998L357.1354,22.932299999999998L357.1354,21.7344Q358.6458,20.036459999999998,360.1667,17.82812Q361.6927,15.61458,362.6823,13.66667L364.2656,13.66667ZM358.8542,21.6667L362.7812,21.6667L362.7812,15.89583Q361.9688,17.35938,361.0365,18.73438Q360.1094,20.10417,358.8542,21.6667Z" fill="#FFFFFF" fill-opacity="1"/></g></g></g></svg>