<svg xmlns="http://www.w3.org/2000/svg" xmlns:xlink="http://www.w3.org/1999/xlink" fill="none" version="1.1" width="16" height="16" viewBox="0 0 16 16"><g style="mix-blend-mode:passthrough"><g style="mix-blend-mode:passthrough"><path d="M14,3L10.5,3L10.5,1.8C10.5,1.358172,10.14183,1,9.7,1L6.3,1C5.858169999999999,1,5.5,1.358173,5.5,1.800001L5.5,3L2,3L2,4L3,4L3,14C3,14.5523,3.44772,15,4,15L12,15C12.5523,15,13,14.5523,13,14L13,4L14,4L14,3ZM9.5,3L6.5,3L6.5,2L9.5,2L9.5,3ZM4,14L4,4L12,4L12,14L4,14ZM6,6L6,12L7,12L7,6L6,6ZM9,12L9,6L10,6L10,12L9,12Z" fill-rule="evenodd" fill="#FFFFFF" fill-opacity="1"/></g></g></svg>