<svg xmlns="http://www.w3.org/2000/svg" xmlns:xlink="http://www.w3.org/1999/xlink" fill="none" version="1.1" width="16" height="16" viewBox="0 0 16 16"><g style="mix-blend-mode:passthrough"><g style="mix-blend-mode:passthrough"><path d="M7.34998,8.64998C7.34998,8.64998,7.34998,12.5,7.34998,12.5C7.34998,12.5,8.64998,12.5,8.64998,12.5C8.64998,12.5,8.64998,8.64998,8.64998,8.64998C8.64998,8.64998,12.5,8.64998,12.5,8.64998C12.5,8.64998,12.5,7.34998,12.5,7.34998C12.5,7.34998,8.64998,7.34998,8.64998,7.34998C8.64998,7.34998,8.64998,3.5,8.64998,3.5C8.64998,3.5,7.34998,3.5,7.34998,3.5C7.34998,3.5,7.34998,7.34998,7.34998,7.34998C7.34998,7.34998,3.5,7.34998,3.5,7.34998C3.5,7.34998,3.5,8.64998,3.5,8.64998C3.5,8.64998,7.34998,8.64998,7.34998,8.64998C7.34998,8.64998,7.34998,8.64998,7.34998,8.64998Z" fill="#FFFFFF" fill-opacity="1"/></g></g></svg>