<svg xmlns="http://www.w3.org/2000/svg" xmlns:xlink="http://www.w3.org/1999/xlink" fill="none" version="1.1" width="16" height="16" viewBox="0 0 16 16"><g style="mix-blend-mode:passthrough"><g style="mix-blend-mode:passthrough"><path d="M11.652820234375,3.3137791796875C10.683970234375,2.3449451796875,9.369980234375,1.8006591796875,7.999830234375,1.8006591796875C6.629700234375,1.8006591796875,5.315680234375,2.3449451796875,4.346850234375,3.3137791796875C3.378024234375,4.282609179687499,2.833740234375,5.5966391796875,2.833740234375,6.9667691796875C2.855646134375,7.9589691796875,3.127314234375,8.9296391796875,3.623635234375,9.7890191796875C4.0838202343750005,10.6069691796875,4.647430234375,11.3622491796875,5.300550234375001,12.0362591796875C6.032360234375,12.8084591796875,6.840890234375,13.5041591796875,7.713630234375,14.1125591796875C7.798470234375,14.1690591796875,7.898140234375,14.1992591796875,8.000090234375001,14.1992591796875C8.102010234375001,14.1992591796875,8.201720234375,14.1690591796875,8.286550234375,14.1125591796875C9.159250234375001,13.5041591796875,9.967800234375,12.8084591796875,10.699630234375,12.0362591796875C11.352720234375,11.3622491796875,11.916340234375,10.6069691796875,12.376540234375,9.7890191796875C12.872640234375,8.9295791796875,13.144140234375,7.9589191796875,13.165940234375,6.9667691796875C13.165940234375,5.5966391796875,12.621620234375,4.282609179687499,11.652820234375,3.3137791796875ZM12.132700234375,6.9667691796875C12.132700234375,9.7636991796875,8.981380234374999,12.3209591796875,7.999830234375,13.0477591796875C7.018270234375,12.3204591796875,3.866960234375,9.763189179687501,3.866960234375,6.9667691796875C3.865460234375,6.4238091796875,3.971680234375,5.8859391796875,4.179440234375,5.3842991796875C4.387210234375,4.8826591796875,4.692410234375,4.4271991796875,5.077370234375,4.0442991796875C5.655360234374999,3.4662791796875,6.391780234375,3.0726291796875,7.193510234375,2.9131491796875C7.995220234375,2.7536721796875,8.826250234375,2.8355091796875,9.581420234374999,3.1483391796875C10.336660234375,3.4611591796875,10.982110234375,3.9909091796875,11.436210234375,4.6705791796875005C11.890360234375,5.3502591796875,12.132750234375,6.1493391796875,12.132700234375,6.9667691796875ZM6.851780234375,8.6849691796875C7.191600234375,8.912019179687501,7.591120234375,9.0332191796875,7.999830234375,9.0332191796875C8.547900234375,9.0332191796875,9.073500234375,8.815519179687499,9.461000234375,8.4279491796875C9.848560234375,8.0404391796875,10.066260234375001,7.5148391796875,10.066260234375001,6.9667691796875C10.066260234375001,6.5580691796875,9.945070234374999,6.1585391796875,9.718020234375,5.8187191796875C9.490970234375,5.4788891796875,9.168190234375,5.2140291796875005,8.790600234374999,5.057619179687499C8.413010234375001,4.9012191796875,7.997530234375,4.8602991796875,7.596690234375,4.9400291796874995C7.195840234375,5.019769179687501,6.827630234375,5.2165791796875,6.538640234375,5.5055691796875C6.249640234375001,5.7945691796875,6.052830234375,6.1627791796875,5.973100234375,6.5636291796875C5.893370234375,6.9644791796875,5.934290234375,7.3799591796875,6.090690234375,7.7575491796875C6.247090234374999,8.1351391796875,6.511950234375,8.4579191796875,6.851780234375,8.6849691796875ZM7.425800234375,6.1076791796875C7.595720234375,5.9941491796875,7.795480234375,5.9335491796875,7.999830234375,5.9335491796875C8.273840234375001,5.9335491796875,8.536640234375,6.0424091796875,8.730420234375,6.2361691796875C8.924200234375,6.4299391796875,9.033050234375,6.6927491796875,9.033050234375,6.9667691796875C9.033050234375,7.1711391796875,8.972450234375,7.3708591796875,8.858900234375,7.5407791796875C8.745400234375001,7.7106891796875,8.584010234375,7.8431491796875,8.395240234374999,7.9213691796875C8.206420234374999,7.9995291796875,7.998680234375,8.0199891796875,7.798260234375,7.9801591796875C7.597830234375,7.9402691796875,7.413730234375,7.8418591796875,7.269230234375,7.6973591796875C7.124730234375,7.5528691796875,7.026330234375,7.3687491796875,6.986460234375,7.1683491796875C6.946600234375,6.9679091796875,6.967060234375,6.7601691796875,7.045260234375,6.5713791796875C7.123460234375,6.3825791796875,7.255890234375,6.2212091796875,7.425800234375,6.1076791796875Z" fill-rule="evenodd" fill="#FFFFFF" fill-opacity="1"/></g></g></svg>