<svg xmlns="http://www.w3.org/2000/svg" xmlns:xlink="http://www.w3.org/1999/xlink" fill="none" version="1.1" width="26.87744140625" height="26.759765625" viewBox="0 0 26.87744140625 26.759765625"><defs><radialGradient cx="0" cy="0" r="1" gradientUnits="userSpaceOnUse" id="master_svg0_5_3771" gradientTransform="translate(36.33133125305176 13.3798828125) rotate(90) scale(12 10.647737503051758)"><stop offset="0%" stop-color="#00BFFF" stop-opacity="1"/><stop offset="94.00148391723633%" stop-color="#00BFFF" stop-opacity="0"/></radialGradient><filter id="master_svg1_488_20076" filterUnits="objectBoundingBox" color-interpolation-filters="sRGB" x="-2.211805713023818" y="-2.2569445416009395" width="5.423611426047636" height="5.513889083201879"><feFlood flood-opacity="0" result="BackgroundImageFix"/><feColorMatrix in="SourceAlpha" type="matrix" values="0 0 0 0 0 0 0 0 0 0 0 0 0 0 0 0 0 0 127 0"/><feMorphology radius="3" operator="dilate" in="SourceAlpha" result="effect1_dropShadow"/><feOffset dy="0" dx="0"/><feGaussianBlur stdDeviation="2.5"/><feColorMatrix type="matrix" values="0 0 0 0 0 0 0 0 0 0.6509804129600525 0 0 0 0 1 0 0 0 0.7400000095367432 0"/><feBlend mode="normal" in2="BackgroundImageFix" result="effect1_dropShadow"/><feBlend mode="normal" in="SourceGraphic" in2="effect1_dropShadow" result="shape"/></filter></defs><g><g><path d="M25.73499375,13.379882801771164Q25.73499375,13.662682801771163,25.72049375,13.945182801771164Q25.70599375,14.227582801771163,25.67709375,14.509082801771164Q25.64809375,14.790482801771164,25.60479375,15.070182801771164Q25.56149375,15.349982801771164,25.50389375,15.627282801771164Q25.44629375,15.904682801771164,25.37459375,16.178982801771163Q25.30279375,16.453382801771163,25.21709375,16.723982801771164Q25.13139375,16.994582801771166,25.03199375,17.260882801771164Q24.93249375,17.527082801771165,24.81959375,17.788382801771164Q24.70659375,18.049682801771166,24.58039375,18.305282801771163Q24.45409375,18.560982801771164,24.31499375,18.810382801771166Q24.17579375,19.059782801771163,24.02399375,19.302382801771163Q23.87229375,19.544882801771163,23.70829375,19.780082801771165Q23.54429375,20.015182801771164,23.36839375,20.242382801771164Q23.19249375,20.469482801771164,23.00529375,20.688082801771163Q22.81799375,20.906682801771165,22.61969375,21.116282801771163Q22.42149375,21.325782801771165,22.21269375,21.525782801771165Q22.00399375,21.725682801771164,21.78519375,21.915682801771165Q21.56649375,22.105582801771163,21.33829375,22.284982801771164Q21.11009375,22.464382801771166,20.87299375,22.632782801771164Q20.63579375,22.801282801771166,20.39039375,22.958382801771165Q20.14489375,23.115482801771165,19.89169375,23.260882801771164Q19.63849375,23.406282801771162,19.37809375,23.539582801771164Q19.11779375,23.672882801771163,18.85089375,23.793882801771165Q18.58399375,23.914782801771164,18.31129375,24.022982801771164Q18.03859375,24.131182801771164,17.76059375,24.226482801771162Q17.48269375,24.321782801771164,17.20019375,24.403882801771164Q16.91759375,24.485882801771165,16.631293749999998,24.554682801771165Q16.34489375,24.623382801771164,16.05539375,24.678482801771164Q15.76579375,24.733682801771163,15.47379375,24.775182801771162Q15.18179375,24.816682801771165,14.88799375,24.844382801771165Q14.59419375,24.872082801771164,14.29939375,24.885982801771164Q14.00449375,24.899882801771163,13.70929375,24.899882801771163Q13.41409375,24.899882801771163,13.11919375,24.885982801771164Q12.82429375,24.872082801771164,12.53059375,24.844382801771165Q12.23679375,24.816682801771165,11.94469375,24.775182801771162Q11.65271375,24.733682801771163,11.36317375,24.678482801771164Q11.07363375,24.623382801771164,10.78727375,24.554682801771165Q10.50090375,24.485882801771165,10.21840375,24.403782801771165Q9.93590375,24.321782801771164,9.657943750000001,24.226482801771162Q9.379983750000001,24.131182801771164,9.10724375,24.022982801771164Q8.83450375,23.914782801771164,8.567633749999999,23.793882801771165Q8.30076375,23.672882801771163,8.04040375,23.539582801771164Q7.78005375,23.406282801771162,7.52683375,23.260882801771164Q7.27362375,23.115482801771165,7.02816375,22.958382801771165Q6.78270375,22.801282801771166,6.54558375,22.632782801771164Q6.30846375,22.464382801771166,6.08026375,22.284982801771164Q5.85206375,22.105582801771163,5.633323750000001,21.915682801771165Q5.41458375,21.725682801771164,5.20583375,21.525782801771165Q4.99708375,21.325782801771165,4.79883375,21.116282801771163Q4.600573750000001,20.906682801771165,4.413293749999999,20.688082801771163Q4.22601375,20.469482801771164,4.05015375,20.242382801771164Q3.87429375,20.015182801771164,3.71028375,19.780082801771165Q3.54627375,19.544882801771163,3.39450375,19.302382801771163Q3.24273375,19.059782801771163,3.10357375,18.810382801771166Q2.96440375,18.560982801771164,2.83818375,18.305282801771163Q2.71196375,18.049682801771166,2.59899375,17.788382801771164Q2.48602075,17.527082801771165,2.38656575,17.260882801771164Q2.28711175,16.994582801771166,2.20141575,16.723982801771164Q2.1157197500000002,16.453382801771163,2.04398875,16.178982801771163Q1.9722567500000001,15.904682801771164,1.9146637499999999,15.627282801771164Q1.85707075,15.349982801771164,1.81375375,15.070182801771164Q1.77043665,14.790482801771164,1.74150065,14.509082801771164Q1.71256465,14.227582801771163,1.69807925,13.945182801771164Q1.68359375,13.662682801771163,1.68359375,13.379882801771164Q1.68359375,13.097082801771164,1.69807925,12.814582801771165Q1.71256465,12.532182801771164,1.74150065,12.250682801771164Q1.77043665,11.969282801771165,1.81375375,11.689542801771164Q1.85707075,11.409802801771164,1.9146637499999999,11.132442801771164Q1.9722567500000001,10.855072801771163,2.04398875,10.580752801771164Q2.1157197500000002,10.306422801771165,2.20141575,10.035802801771164Q2.28711175,9.765182801771164,2.38656575,9.498912801771164Q2.48602075,9.232642801771163,2.59899375,8.971372801771164Q2.71196375,8.710092801771165,2.83818375,8.454442801771165Q2.96440375,8.198802801771164,3.10357375,7.949392801771164Q3.24273375,7.699982801771164,3.39450375,7.457422801771164Q3.54627375,7.214852801771164,3.71028375,6.979712801771164Q3.87429375,6.744572801771164,4.05015375,6.517422801771164Q4.22601375,6.290282801771164,4.413293749999999,6.071672801771164Q4.600573750000001,5.853062801771165,4.79883375,5.643522801771164Q4.99708375,5.4339828017711636,5.20583375,5.234012801771164Q5.41458375,5.0340428017711645,5.633323750000001,4.844122801771164Q5.85206375,4.654212801771164,6.08026375,4.474802801771164Q6.30846375,4.295392801771164,6.54558375,4.126932801771163Q6.78270375,3.958472801771164,7.02816375,3.8013528017711637Q7.27362375,3.644232801771164,7.52683375,3.498852801771164Q7.78005375,3.3534628017711636,8.04040375,3.220152801771164Q8.30076375,3.086842801771164,8.567633749999999,2.965922801771164Q8.83450375,2.845013801771164,9.10724375,2.736790801771164Q9.379983750000001,2.628567801771164,9.657943750000001,2.533294801771164Q9.93590375,2.438022801771164,10.21840375,2.355929801771164Q10.50090375,2.273837801771164,10.78727375,2.205122801771164Q11.07363375,2.136407801771164,11.36317375,2.0812368017711638Q11.65271375,2.026064801771164,11.94469375,1.984569801771164Q12.23679375,1.9430740017711639,12.53059375,1.9153547017711638Q12.82429375,1.887635501771164,13.11919375,1.873759101771164Q13.41409375,1.859882801771164,13.70929375,1.859882801771164Q14.00449375,1.859882801771164,14.29939375,1.873759101771164Q14.59419375,1.887635501771164,14.88799375,1.9153547017711638Q15.18179375,1.9430740017711639,15.47379375,1.984569801771164Q15.76579375,2.026064801771164,16.05539375,2.0812368017711638Q16.34489375,2.136407801771164,16.631293749999998,2.205122801771164Q16.91759375,2.273837801771164,17.20019375,2.355929801771164Q17.48269375,2.438022801771164,17.76059375,2.533294801771164Q18.03859375,2.628567801771164,18.31129375,2.736790801771164Q18.58399375,2.845013801771164,18.85089375,2.965922801771164Q19.11779375,3.086842801771164,19.37809375,3.220152801771164Q19.63849375,3.3534628017711636,19.89169375,3.498852801771164Q20.14489375,3.644232801771164,20.39039375,3.8013528017711637Q20.63579375,3.958472801771164,20.87299375,4.126932801771163Q21.11009375,4.295392801771164,21.33829375,4.474802801771164Q21.56649375,4.654212801771164,21.78519375,4.844122801771164Q22.00399375,5.0340428017711645,22.21269375,5.234012801771164Q22.42149375,5.4339828017711636,22.61969375,5.643522801771164Q22.81799375,5.853062801771165,23.00529375,6.071672801771164Q23.19249375,6.290282801771164,23.36839375,6.517422801771164Q23.54429375,6.744572801771164,23.70829375,6.979712801771164Q23.87229375,7.214852801771164,24.02399375,7.457422801771164Q24.17579375,7.699982801771164,24.31499375,7.949392801771164Q24.45409375,8.198802801771164,24.58039375,8.454442801771165Q24.70659375,8.710092801771165,24.81959375,8.971372801771164Q24.93249375,9.232642801771163,25.03199375,9.498912801771164Q25.13139375,9.765182801771164,25.21709375,10.035802801771164Q25.30279375,10.306422801771165,25.37459375,10.580752801771164Q25.44629375,10.855072801771163,25.50389375,11.132442801771164Q25.56149375,11.409802801771164,25.60479375,11.689542801771164Q25.64809375,11.969282801771165,25.67709375,12.250682801771164Q25.70599375,12.532182801771164,25.72049375,12.814582801771165Q25.73499375,13.097082801771164,25.73499375,13.379882801771164Z" fill="#023965" fill-opacity="1"/></g><g transform="matrix(-1,0,0,1,51.3671875,0)"><path d="M25.68359375,13.3798828125Q25.68359375,15.6687828125,26.56311775,17.7969828125Q27.51809375,20.1077828125,29.35259375,21.8651828125Q31.18708375,23.6224828125,33.59931375,24.5373828125Q35.59600375,25.2945828125,37.72819375,25.3712828125C37.99309375,25.3807828125,38.21039375,25.1649828125,38.21039375,24.8998828125C38.21039375,24.6347828125,37.99899375,24.4209828125,37.73409375,24.4106828125Q35.78979375,24.3355828125,33.96819375,23.6447828125Q31.74895375,22.8030828125,30.06121375,21.1863828125Q28.37347375,19.5695828125,27.49489375,17.4436828125Q26.68573375,15.4856828125,26.68573375,13.3798828125Q26.68573375,11.2740728125,27.49489375,9.3161128125Q28.37347375,7.1901928125,30.06121375,5.5734228125Q31.74895375,3.9566528125,33.96819375,3.1150228125Q36.01209375,2.3398828125,38.21029375,2.3398828125Q40.40859375,2.3398828125,42.45249375,3.1150228125Q44.67169375,3.9566528125,46.35949375,5.5734228125Q48.047193750000005,7.1901928125,48.92579375,9.3161128125Q49.73499375,11.2740628125,49.73499375,13.3798828125Q49.73499375,15.4856828125,48.92579375,17.4436828125Q48.047193750000005,19.5695828125,46.35949375,21.1863828125Q44.848993750000005,22.6333828125,42.91269375,23.4594828125C42.66239375,23.5662828125,42.53839375,23.8526828125,42.64239375,24.1041828125C42.742093749999995,24.3454828125,43.019093749999996,24.4633828125,43.25979375,24.3620828125Q45.402193749999995,23.4610828125,47.06809375,21.8651828125Q48.90259375,20.1077828125,49.85759375,17.7969828125Q50.73709375,15.6687828125,50.73709375,13.3798828125Q50.73709375,11.0909528125,49.85759375,8.9627428125Q48.90259375,6.6519628125,47.06809375,4.8946028125000005Q45.23359375,3.1372428125000003,42.82139375,2.2224228125Q40.59979375,1.3798828125,38.21029375,1.3798828125Q35.82099375,1.3798828125,33.59931375,2.2224228125Q31.18709375,3.1372428125000003,29.35259375,4.8946028125000005Q27.51809375,6.6519628125,26.56311775,8.9627428125Q25.68359375,11.0909528125,25.68359375,13.3798828125Z" fill="url(#master_svg0_5_3771)" fill-opacity="1"/></g><g filter="url(#master_svg1_488_20076)"><ellipse cx="13.43869423866272" cy="13.379882574081421" rx="2.9387753009796143" ry="2.879999876022339" fill="#FFFFFF" fill-opacity="1"/></g></g></svg>