<svg xmlns="http://www.w3.org/2000/svg" xmlns:xlink="http://www.w3.org/1999/xlink" fill="none" version="1.1" width="29.4453125" height="18.60693359375" viewBox="0 0 29.4453125 18.60693359375"><defs><filter id="master_svg0_488_22941/5_5812" filterUnits="objectBoundingBox" color-interpolation-filters="sRGB" x="0" y="0" width="1" height="1"><feFlood flood-opacity="0" result="BackgroundImageFix"/><feBlend mode="normal" in="SourceGraphic" in2="BackgroundImageFix" result="shape"/><feColorMatrix in="SourceAlpha" type="matrix" result="hardAlpha" values="0 0 0 0 0 0 0 0 0 0 0 0 0 0 0 0 0 0 127 0"/><feOffset dy="0" dx="0"/><feGaussianBlur stdDeviation="0.5"/><feComposite in2="hardAlpha" operator="arithmetic" k2="-1" k3="1"/><feColorMatrix type="matrix" values="0 0 0 0 1 0 0 0 0 0.7783185243606567 0 0 0 0 0.2610619366168976 0 0 0 0.800000011920929 0"/><feBlend mode="normal" in2="shape" result="effect1_innerShadow"/><feColorMatrix in="SourceAlpha" type="matrix" result="hardAlpha" values="0 0 0 0 0 0 0 0 0 0 0 0 0 0 0 0 0 0 127 0"/><feOffset dy="0" dx="0"/><feGaussianBlur stdDeviation="1.5"/><feComposite in2="hardAlpha" operator="arithmetic" k2="-1" k3="1"/><feColorMatrix type="matrix" values="0 0 0 0 1 0 0 0 0 0.7764706015586853 0 0 0 0 0.26274511218070984 0 0 0 0.6000000238418579 0"/><feBlend mode="normal" in2="effect1_innerShadow" result="effect2_innerShadow"/><feGaussianBlur in="BackgroundImageFix" stdDeviation="1"/><feComposite in2="SourceAlpha" operator="in" result="effect3_foregroundBlur"/><feBlend mode="normal" in="SourceGraphic" in2="effect3_foregroundBlur" result="shape"/></filter><linearGradient x1="0.3730773627758026" y1="0" x2="0.38614339646490164" y2="0.9148845590359336" id="master_svg1_488_28682"><stop offset="0%" stop-color="#CD8F00" stop-opacity="0.009999999776482582"/><stop offset="100%" stop-color="#CD8F00" stop-opacity="0.41999998688697815"/></linearGradient><linearGradient x1="0.5" y1="0" x2="0.5" y2="1" id="master_svg2_488_28683"><stop offset="1.4285714365541935%" stop-color="#FFE7A4" stop-opacity="1"/><stop offset="8.584871888160706%" stop-color="#FFE079" stop-opacity="0"/></linearGradient><radialGradient cx="0" cy="0" r="1" gradientUnits="userSpaceOnUse" id="master_svg3_5_2601" gradientTransform="translate(28.25146484375 17.588134765625) rotate(83.07044381480652) scale(14.865732436362482 22.178218935856012)"><stop offset="0%" stop-color="#FFFC61" stop-opacity="1"/><stop offset="100%" stop-color="#FFB300" stop-opacity="0"/></radialGradient><radialGradient cx="0" cy="0" r="1" gradientUnits="userSpaceOnUse" id="master_svg4_5_2602" gradientTransform="translate(3.80517578125 1.2021484375) rotate(82.60154567578894) scale(12.260161304000391 18.29096162957473)"><stop offset="0%" stop-color="#FFFFFF" stop-opacity="1"/><stop offset="100%" stop-color="#FFF200" stop-opacity="0"/></radialGradient></defs><g transform="matrix(1,0,-0.13917310535907745,0.9902681112289429,0.00006795561785111204,0.000004751898813992739)"><g filter="url(#master_svg0_488_22941/5_5812)"><path d="M4.774494375,0.0005584399375C3.609653375,0.0005864449375,2.691298875,0.9921162109375,2.780399375,2.1535462109375L3.9857943750000002,17.8658662109375C4.025764375,18.3869662109375,4.4602643749999995,18.7894662109375,4.982884374999999,18.7893662109375L27.285934375,18.7888662109375C28.450834375,18.7888662109375,29.369234375,17.7972662109375,29.280034375,16.6357662109375L28.073834375,0.9234792109375C28.033834375,0.4024082109375,27.599334375,0.00000970293749999999,27.076734375,0.0000222669375L4.774494375,0.0005584399375Z" fill="url(#master_svg1_488_28682)" fill-opacity="1"/><path d="M4.774494375,0.0005584399375C3.609653375,0.0005864449375,2.691298875,0.9921162109375,2.780399375,2.1535462109375L3.9857943750000002,17.8658662109375C4.025764375,18.3869662109375,4.4602643749999995,18.7894662109375,4.982884374999999,18.7893662109375L27.285934375,18.7888662109375C28.450834375,18.7888662109375,29.369234375,17.7972662109375,29.280034375,16.6357662109375L28.073834375,0.9234792109375C28.033834375,0.4024082109375,27.599334375,0.00000970293749999999,27.076734375,0.0000222669375L4.774494375,0.0005584399375Z" fill="url(#master_svg2_488_28683)" fill-opacity="0.30000001192092896"/></g><g><path d="M5.98831578125,1.2021484375C4.81476578125,1.2021484375,3.89340528125,2.2078684375,3.99596378125,3.3769284375L5.24267578125,17.5881484375L26.06837578125,17.5875484375C27.24187578125,17.5875484375,28.16327578125,16.5818484375,28.06067578125,15.4127484375L26.81397578125,1.2021484375L5.98831578125,1.2021484375ZM26.06837578125,17.0875484375L5.70073578125,17.0881484375L4.49405078125,3.3332384375Q4.43636178125,2.6756384375,4.88227578125,2.1888944375Q5.32818578125,1.7021484375,5.98831578125,1.7021484375L26.35587578125,1.7021484375L27.56257578125,15.4564484375Q27.62027578125,16.1140484375,27.17437578125,16.600848437499998Q26.72847578125,17.0875484375,26.06837578125,17.0875484375Z" fill-rule="evenodd" fill="url(#master_svg3_5_2601)" fill-opacity="1"/><path d="M5.98831578125,1.2021484375C4.81476578125,1.2021484375,3.89340528125,2.2078684375,3.99596378125,3.3769284375L5.24267578125,17.5881484375L26.06837578125,17.5875484375C27.24187578125,17.5875484375,28.16327578125,16.5818484375,28.06067578125,15.4127484375L26.81397578125,1.2021484375L5.98831578125,1.2021484375ZM26.06837578125,17.0875484375L5.70073578125,17.0881484375L4.49405078125,3.3332384375Q4.43636178125,2.6756384375,4.88227578125,2.1888944375Q5.32818578125,1.7021484375,5.98831578125,1.7021484375L26.35587578125,1.7021484375L27.56257578125,15.4564484375Q27.62027578125,16.1140484375,27.17437578125,16.600848437499998Q26.72847578125,17.0875484375,26.06837578125,17.0875484375Z" fill-rule="evenodd" fill="url(#master_svg4_5_2602)" fill-opacity="1"/></g></g></svg>