<svg xmlns="http://www.w3.org/2000/svg" xmlns:xlink="http://www.w3.org/1999/xlink" fill="none" version="1.1" width="13.999866485595703" height="16.998600006103516" viewBox="0 0 13.999866485595703 16.998600006103516"><defs><clipPath id="master_svg0_488_18873/5_5683"><rect x="0" y="0" width="13.999866485595703" height="16.998600006103516" rx="0"/></clipPath></defs><g clip-path="url(#master_svg0_488_18873/5_5683)"><g><path d="" fill="#46DC87" fill-opacity="1"/></g><g><path d="M6.76191890625,16.398961035156248C6.79349890625,16.430561035156252,6.83098890625,16.45566103515625,6.87224890625,16.47276103515625C6.91351890625,16.489861035156252,6.95774890625,16.49866103515625,7.00241890625,16.49866103515625C7.04708890625,16.49866103515625,7.09131890625,16.489861035156252,7.13257890625,16.47276103515625C7.17384890625,16.45566103515625,7.21133890625,16.430561035156252,7.24291890625,16.398961035156248C7.24291890625,16.398961035156248,12.07182890625,11.56406103515625,12.08482890625,11.54506103515625C12.91702890625,10.57276103515625,13.45292890625,9.38238103515625,13.62922890625,8.11487103515625C13.80542890625,6.84736103515625,13.61462890625,5.55589103515625,13.07942890625,4.39350103515625C12.54412890625,3.23112103515625,11.68682890625,2.24656103515625,10.60912890625,1.55650103515625C9.53140890625,0.86643903515625,8.27844890625,0.49980945315625,6.99874890625,0.50006116467925C5.71903890625,0.50031287615625,4.46622890625,0.86743503515625,3.38878890625,1.55792103515625C2.31134890625,2.24840103515625,1.45444890625,3.23330103515625,0.91963690625,4.39590103515625C0.38482530625,5.55849103515625,0.19452490625000002,6.85004103515625,0.37128970625,8.11748103515625C0.5480539062500001,9.38492103515625,1.0844719062500001,10.57516103515625,1.91696890625,11.54706103515625C1.93196890625,11.56606103515625,6.76191890625,16.398961035156248,6.76191890625,16.398961035156248C6.76191890625,16.398961035156248,6.76191890625,16.398961035156248,6.76191890625,16.398961035156248C6.76191890625,16.398961035156248,6.76191890625,16.398961035156248,6.76191890625,16.398961035156248ZM7.00091890625,4.1380910351562505C7.37859890625,4.1380910351562505,7.75257890625,4.21248103515625,8.10149890625,4.357011035156249C8.45042890625,4.50154103515625,8.76747890625,4.71338103515625,9.03453890625,4.98044103515625C9.30159890625,5.24750103515625,9.51343890625,5.56454103515625,9.65796890625,5.91347103515625C9.80249890625,6.26240103515625,9.87688890625,6.63638103515625,9.87688890625,7.01406103515625C9.87688890625,7.39174103515625,9.80249890625,7.76572103515625,9.65796890625,8.11464103515625C9.51343890625,8.46357103515625,9.30159890625,8.78062103515625,9.03453890625,9.04768103515625C8.76747890625,9.31474103515625,8.45042890625,9.52658103515625,8.10149890625,9.67111103515625C7.75257890625,9.81564103515625,7.37859890625,9.89003103515625,7.00091890625,9.89003103515625C6.62323890625,9.89003103515625,6.24925890625,9.81564103515625,5.90032890625,9.67111103515625C5.55139890625,9.52658103515625,5.23435890625,9.31474103515625,4.96729890625,9.04768103515625C4.70023890625,8.78062103515625,4.48839890625,8.46357103515625,4.34386890625,8.11464103515625C4.19933890625,7.76572103515625,4.12494890625,7.39174103515625,4.12494890625,7.01406103515625C4.12494890625,6.63638103515625,4.19933890625,6.26240103515625,4.34386890625,5.91347103515625C4.48839890625,5.56454103515625,4.70023890625,5.24750103515625,4.96729890625,4.98044103515625C5.23435890625,4.71338103515625,5.55139890625,4.50154103515625,5.90032890625,4.357011035156249C6.24925890625,4.21248103515625,6.62323890625,4.1380910351562505,7.00091890625,4.1380910351562505C7.00091890625,4.1380910351562505,7.00091890625,4.1380910351562505,7.00091890625,4.1380910351562505Z" fill="#46DC87" fill-opacity="1"/></g></g></svg>