<svg xmlns="http://www.w3.org/2000/svg" xmlns:xlink="http://www.w3.org/1999/xlink" fill="none" version="1.1" width="42" height="42" viewBox="0 0 42 42"><defs><linearGradient x1="0.5" y1="0" x2="0.5" y2="1" id="master_svg0_488_25368"><stop offset="2.142857201397419%" stop-color="#1BFFB7" stop-opacity="0.7099999785423279"/><stop offset="16.428571939468384%" stop-color="#00FFA6" stop-opacity="0.46000000834465027"/><stop offset="100%" stop-color="#00936A" stop-opacity="0.20000000298023224"/></linearGradient><filter id="master_svg1_488_19234" filterUnits="objectBoundingBox" color-interpolation-filters="sRGB" x="0" y="0" width="1" height="1"><feFlood flood-opacity="0" result="BackgroundImageFix"/><feBlend mode="normal" in="SourceGraphic" in2="BackgroundImageFix" result="shape"/><feColorMatrix in="SourceAlpha" type="matrix" result="hardAlpha" values="0 0 0 0 0 0 0 0 0 0 0 0 0 0 0 0 0 0 127 0"/><feOffset dy="0" dx="0"/><feGaussianBlur stdDeviation="4"/><feComposite in2="hardAlpha" operator="arithmetic" k2="-1" k3="1"/><feColorMatrix type="matrix" values="0 0 0 0 0 0 0 0 0 0.7450980544090271 0 0 0 0 0.5339869260787964 0 0 0 0.30000001192092896 0"/><feBlend mode="normal" in2="shape" result="effect1_innerShadow"/></filter><linearGradient x1="0.5" y1="0" x2="0.5" y2="1" id="master_svg2_488_25339"><stop offset="0.7142857182770967%" stop-color="#4AFFA8" stop-opacity="1"/><stop offset="8.584871888160706%" stop-color="#79FFE9" stop-opacity="0"/></linearGradient></defs><g><g><rect x="0" y="0" width="42" height="42" rx="0" fill="url(#master_svg0_488_25368)" fill-opacity="1"/><path d="M42,0L0,0L0,1L42,1L42,0ZM42,41L0,41L0,42L42,42L42,41Z" fill-rule="evenodd" fill="#79FFD5" fill-opacity="0.30000001192092896"/></g><g filter="url(#master_svg1_488_19234)"><rect x="5.25" y="5.25" width="31.5" height="31.5" rx="0" fill="#005037" fill-opacity="0.10000000149011612"/><rect x="5.25" y="5.25" width="31.5" height="31.5" rx="0" fill="url(#master_svg2_488_25339)" fill-opacity="0.30000001192092896"/><rect x="5.5" y="5.5" width="31" height="31" rx="0" fill-opacity="0" stroke-opacity="0.30000001192092896" stroke="#79FFD5" fill="none" stroke-width="0.5"/></g><g><g><g><path d="M30.1875,15.21307C30.0576,13.78125,28.7591,12.58807,27.1358,12.58807L24.9282,12.58807L24.9282,12.468751C24.863300000000002,12.110797,24.538600000000002,11.81250113791,24.0841,11.81250113791C23.6296,11.81250113791,23.240099999999998,12.170456,23.240099999999998,12.588069L18.75994,12.588069L18.75994,12.46875C18.69501,12.110795,18.370359999999998,11.8125,17.915860000000002,11.8125C17.46135,11.8125,17.07177,12.170455,17.07177,12.588068L14.864180000000001,12.588068C13.17601,12.588068,11.8125,13.840910000000001,11.8125,15.33239L11.8125,27.443199999999997C11.8125,28.9943,13.17602,30.1875,14.864180000000001,30.1875L27.006,30.1875C28.6941,30.1875,30.0576,28.9347,30.0576,27.443199999999997L30.0576,15.39205L30.1875,15.21307ZM28.4993,27.443199999999997C28.4993,28.1591,27.85,28.696,27.1358,28.696L14.99403,28.696C14.21488,28.696,13.63051,28.1591,13.63051,27.443199999999997L13.63051,15.39205L13.63051,15.27273C13.69545,14.61648,14.27981,14.13921,14.99403,14.13921L17.20163,14.13921L17.20163,14.25852C17.26656,14.61648,17.59121,14.91477,17.98078,14.91477C18.43528,14.91477,18.82486,14.55682,18.82486,14.13921L23.305,14.13921L23.305,14.25853C23.3699,14.61648,23.6946,14.91478,24.1491,14.91478C24.6036,14.91478,24.9932,14.55682,24.9932,14.13921L27.200699999999998,14.13921C27.9799,14.13921,28.5643,14.67614,28.5643,15.39205L28.5643,27.443199999999997L28.4993,27.443199999999997ZM18.370359999999998,20.34375L23.7595,20.34375L23.889400000000002,20.34375C24.2789,20.28409,24.6036,19.985799999999998,24.6036,19.568179999999998C24.6036,19.150570000000002,24.214,18.79261,23.7595,18.79261L18.370359999999998,18.79261L18.2405,18.79261C17.850920000000002,18.85227,17.52628,19.150570000000002,17.52628,19.568179999999998C17.59121,19.985799999999998,17.915860000000002,20.34375,18.370359999999998,20.34375ZM21.09739,21.65625L18.370359999999998,21.65625L18.2405,21.65625C17.850920000000002,21.71591,17.52628,22.014200000000002,17.52628,22.431800000000003C17.52628,22.8494,17.915860000000002,23.2074,18.370359999999998,23.2074L21.09739,23.2074L21.227249999999998,23.2074C21.61683,23.1477,21.941499999999998,22.8494,21.941499999999998,22.431800000000003C21.941499999999998,22.014200000000002,21.55189,21.65625,21.09739,21.65625ZM23.8244,21.65625L23.240099999999998,21.65625L23.1102,21.65625C22.720599999999997,21.71591,22.396,22.014200000000002,22.396,22.431800000000003C22.396,22.8494,22.785600000000002,23.2074,23.240099999999998,23.2074L23.8244,23.2074L23.9543,23.2074C24.343899999999998,23.1477,24.6685,22.8494,24.6685,22.431800000000003C24.6036,22.014200000000002,24.2789,21.65625,23.8244,21.65625Z" fill="#FFFFFF" fill-opacity="1"/></g></g></g></g></svg>