<?xml version="1.0" standalone="no"?><!DOCTYPE svg PUBLIC "-//W3C//DTD SVG 1.1//EN" "http://www.w3.org/Graphics/SVG/1.1/DTD/svg11.dtd"><svg t="1764852817759" class="icon" viewBox="0 0 1024 1024" version="1.1" xmlns="http://www.w3.org/2000/svg" p-id="16002" xmlns:xlink="http://www.w3.org/1999/xlink" width="200" height="200"><path d="M899.102171 391.059026c0 71.532278-60.516266 126.550795-126.550796 126.550795-71.532278 0-126.550795-55.018517-126.550795-126.550795v-22.01151c10.995498-99.041537 115.555298-209.099085 121.053046-214.596834h10.995498c0 10.995498 126.571309 132.048544 121.053047 236.608344zM739.544368 721.211158c0 148.562305-126.571309 275.1131-275.133615 275.1131-148.562305 0-269.615352-121.053046-269.615351-269.615352 0-11.016012 0-27.509259 5.497749-44.023019 27.509259-214.596834 247.603842-445.707429 258.619853-456.702927 0-5.497749 5.497749-5.497749 10.995498-5.497749 5.518263 0 5.518263 0 11.016012 5.497749S745.042117 490.100562 739.544368 721.211158zM359.871468 242.496721c0 71.532278-60.53678 126.550795-126.57131 126.550795-71.532278 0-126.550795-55.018517-126.550795-126.550795v-22.01151C117.765375 126.941423 222.30466 16.883875 227.802409 11.386126h11.016012c5.497749 5.497749 126.550795 126.550795 121.053047 231.110595z" fill="#64B6F8" p-id="16003"></path></svg>