<?xml version="1.0" standalone="no"?><!DOCTYPE svg PUBLIC "-//W3C//DTD SVG 1.1//EN" "http://www.w3.org/Graphics/SVG/1.1/DTD/svg11.dtd"><svg t="1738839367040" class="icon" viewBox="0 0 1024 1024" version="1.1" xmlns="http://www.w3.org/2000/svg" p-id="2574" xmlns:xlink="http://www.w3.org/1999/xlink" width="200" height="200"><path d="M314.296 569.362L263.603 758.94c-5.074 9.979 0 24.94 10.138 29.926 5.069 4.992 10.138 4.992 20.28 4.992h10.138l187.561-49.889h5.074l501.852-493.875c15.217-14.971 25.354-34.929 25.354-59.868 0-24.945-10.138-49.884-30.418-69.842l-45.629-44.902c-20.275-19.948-45.624-29.926-70.968-29.926-20.275 0-40.55 9.979-55.762 24.94L314.296 569.362c0-4.987 0-4.987 0 0m633.657-369.157l-50.688 49.889-81.111-79.821 50.698-49.889c10.132-9.979 25.339-4.987 30.413 0l45.629 44.897c5.059 4.992 10.138 9.979 10.138 19.958 0 4.987 0 9.979-5.079 14.966M405.545 574.359l359.921-354.196 81.106 79.816L486.651 654.18l-81.106-79.821zM339.64 719.025l25.349-94.781 70.968 69.842-96.317 24.939zM983.439 394.76c-20.28 0-35.487 14.966-35.487 34.924v458.962c0 24.945-20.275 44.897-45.624 44.897H111.529c-25.354 0-45.624-19.953-45.624-44.897V140.342c0-24.945 20.27-44.902 45.624-44.902h506.926c20.275 0 35.482-14.961 35.482-34.918s-15.206-34.918-35.482-34.918h-512C45.624 25.603 0 75.482 0 130.363v763.264c0 59.873 50.693 104.77 106.455 104.77h800.947c60.831 0 106.46-49.889 106.46-104.771V429.683c0-19.958-15.216-34.923-30.423-34.923" fill="" p-id="2575"></path></svg>