<?xml version="1.0" standalone="no"?><!DOCTYPE svg PUBLIC "-//W3C//DTD SVG 1.1//EN" "http://www.w3.org/Graphics/SVG/1.1/DTD/svg11.dtd"><svg t="1752747795787" class="icon" viewBox="0 0 1024 1024" version="1.1" xmlns="http://www.w3.org/2000/svg" p-id="2524" xmlns:xlink="http://www.w3.org/1999/xlink" width="128" height="128"><path d="M213.312 53.312C172.16 53.312 138.688 86.784 138.688 128v768c0 41.216 33.408 74.688 74.624 74.688h597.376c41.216 0 74.624-33.472 74.624-74.688V128c0-41.216-33.408-74.688-74.624-74.688H213.312zM202.688 128c0-5.888 4.736-10.688 10.624-10.688h597.376c5.888 0 10.624 4.8 10.624 10.688v768a10.688 10.688 0 0 1-10.624 10.688H213.312A10.688 10.688 0 0 1 202.688 896V128z m160 309.312a32 32 0 0 0 0 64h298.624a32 32 0 1 0 0-64H362.688z m-32-96a32 32 0 0 1 32-32h298.624a32 32 0 1 1 0 64H362.688a32 32 0 0 1-32-32z m32 224a32 32 0 0 0 0 64H512a32 32 0 1 0 0-64H362.688z" p-id="2525" fill="#00ffff"></path></svg>