<svg xmlns="http://www.w3.org/2000/svg" xmlns:xlink="http://www.w3.org/1999/xlink" fill="none" version="1.1" width="32" height="32" viewBox="0 0 32 32"><defs><radialGradient cx="0" cy="0" r="1" gradientUnits="userSpaceOnUse" id="master_svg0_1_0329" gradientTransform="translate(2.0485458374023438 32) rotate(98.1239173467939) scale(22.60081289247802 22.60081289247802)"><stop offset="0%" stop-color="#1BA8FF" stop-opacity="1"/><stop offset="100%" stop-color="#001C78" stop-opacity="0"/></radialGradient><radialGradient cx="0" cy="0" r="1" gradientUnits="userSpaceOnUse" id="master_svg1_1_0330" gradientTransform="translate(6.58056640625 3.7451171875) rotate(56.070028996172184) scale(24.437589722153476 24.437589722153476)"><stop offset="0%" stop-color="#8ED9FF" stop-opacity="1"/><stop offset="100%" stop-color="#000B6C" stop-opacity="0"/></radialGradient><radialGradient cx="0" cy="0" r="1" gradientUnits="userSpaceOnUse" id="master_svg2_1_0333" gradientTransform="translate(31.16988754272461 3.481212854385376) rotate(94.05338493195609) scale(18.732870015588603 18.732870015588603)"><stop offset="0%" stop-color="#9CF2FF" stop-opacity="1"/><stop offset="100%" stop-color="#00DDFF" stop-opacity="0"/></radialGradient><radialGradient cx="0" cy="0" r="1" gradientUnits="userSpaceOnUse" id="master_svg3_1_0334" gradientTransform="translate(1.28125 28.87803840637207) rotate(90.97799264247828) scale(19.824751147344667 19.824751147344667)"><stop offset="0%" stop-color="#00DDFF" stop-opacity="1"/><stop offset="100%" stop-color="#00DDFF" stop-opacity="0"/></radialGradient><clipPath id="master_svg4_542_84026"><rect x="7" y="7" width="18" height="18" rx="0"/></clipPath></defs><g><rect x="0" y="0" width="32" height="32" rx="16" fill="url(#master_svg0_1_0329)" fill-opacity="0.800000011920929"/><rect x="0" y="0" width="32" height="32" rx="16" fill="url(#master_svg1_1_0330)" fill-opacity="1"/><rect x="0" y="0" width="32" height="32" rx="16" fill="#0095FF" fill-opacity="0.44999998807907104"/><rect x="0.5" y="0.5" width="31" height="31" rx="15.5" stroke="url(#master_svg2_1_0333)" fill-opacity="0" fill="none" stroke-width="1"/><rect x="0.5" y="0.5" width="31" height="31" rx="15.5" stroke="url(#master_svg3_1_0334)" fill-opacity="0" fill="none" stroke-width="1"/><g clip-path="url(#master_svg4_542_84026)"><g><path d="M13.90469,11.503515243530273L18.121679999999998,11.503515243530273L18.121679999999998,21.639015243530274L13.90469,21.639015243530274L13.90469,11.503515243530273ZM12.36836,14.424995243530272L8.1513672,14.424995243530272L8.1513672,21.639015243530274L12.36836,21.639015243530274L12.36836,14.424995243530272ZM11.42441,20.521095243530276L9.095313,20.521095243530276L9.095313,15.542965243530274L11.42441,15.542965243530274L11.42441,20.521095243530276ZM8.125,22.748215243530275L23.8662,22.748215243530275L23.8662,23.87501524353027L8.125,23.87501524353027L8.125,22.748215243530275Z" fill="#FFFFFF" fill-opacity="1" style="mix-blend-mode:passthrough"/></g><g><path d="M19.658008575439453,8.125L23.874998575439452,8.125L23.874998575439452,21.6391L19.658008575439453,21.6391L19.658008575439453,8.125Z" fill="#C2EAFF" fill-opacity="1" style="mix-blend-mode:passthrough"/></g></g></g></svg>