<svg xmlns="http://www.w3.org/2000/svg" xmlns:xlink="http://www.w3.org/1999/xlink" fill="none" version="1.1" width="410" height="188" viewBox="0 0 410 188"><defs><linearGradient x1="0.5" y1="0" x2="0.5" y2="1" id="master_svg0_6_10151"><stop offset="4.285714402794838%" stop-color="#98CAFF" stop-opacity="0.5899999737739563"/><stop offset="100%" stop-color="#0262BB" stop-opacity="0"/></linearGradient><radialGradient cx="0" cy="0" r="1" gradientUnits="userSpaceOnUse" id="master_svg1_6_10152" gradientTransform="translate(205 8.736002370715141) rotate(90) scale(36.30375279486179 79.17307790368795)"><stop offset="8.571428805589676%" stop-color="#60CDFF" stop-opacity="0.3400000035762787"/><stop offset="100%" stop-color="#53C9FF" stop-opacity="0"/></radialGradient><linearGradient x1="0.5" y1="0" x2="0.5" y2="1" id="master_svg2_6_10226"><stop offset="2.142857201397419%" stop-color="#98CDFF" stop-opacity="1"/><stop offset="100%" stop-color="#204466" stop-opacity="0"/></linearGradient><clipPath id="master_svg3_600_71381"><rect x="309" y="144" width="85" height="32" rx="4"/></clipPath></defs><g><rect x="0" y="0" width="410" height="188" rx="10" fill="url(#master_svg0_6_10151)" fill-opacity="0.30000001192092896"/><rect x="0" y="0" width="410" height="188" rx="10" fill="url(#master_svg1_6_10152)" fill-opacity="0.800000011920929"/><rect x="0.5" y="0.5" width="409" height="187" rx="9.5" stroke="url(#master_svg2_6_10226)" fill-opacity="0" fill="none" stroke-width="1"/><g></g><g style="opacity:0;" clip-path="url(#master_svg3_600_71381)"><rect x="309" y="144" width="85" height="32" rx="4" fill="#0073CB" fill-opacity="1"/><g><path d="M321.673437,159.41504L325.2418,159.41504L325.2418,155.43652L322.275,155.43652L322.275,154.356445L334.5387,154.356445L334.5387,155.43652L331.7496,155.43652L331.7496,159.41504L335.1266,159.41504L335.1266,160.49512L331.7496,160.49512L331.7496,166.7295L330.62852,166.7295L330.62852,160.49512L326.35605,160.49512Q326.3082,162.99707,325.63828,164.2139Q324.96836,165.5537,322.56211,166.9072Q322.20664,166.415,321.782812,165.9502Q323.87461,164.8838,324.57187,163.72168Q325.19394,162.78516,325.23496,160.49512L321.673437,160.49512L321.673437,159.41504ZM326.36289,159.41504L330.62852,159.41504L330.62852,155.43652L326.36289,155.43652L326.36289,159.41504ZM343.007,160.65918L349.5969,160.65918L349.5969,166.8115L348.5578,166.8115L348.5578,165.8545L344.0461,165.8545L344.0461,166.8252L343.007,166.8252L343.007,160.65918ZM342.5695,164.5146L341.7629,165.417Q341.0178,164.6582,340.2727,163.94043Q339.2609,165.4033,337.634,166.7021Q337.3469,166.2783,337.00509999999997,165.8135Q338.5705,164.6582,339.5207,163.22949Q338.5432,162.31348,337.5656,161.46582Q338.051,159.62695,338.4475,157.35059L337.0461,157.35059L337.0461,156.3252L338.6252,156.3252Q338.8439,154.944336,339.0422,153.413086L340.1496,153.577148Q339.924,155.06055,339.6984,156.3252L342.2414,156.3252L342.2414,157.33691Q341.9201,161.00098,340.8742,162.96289Q341.8039,163.77637,342.5695,164.5146ZM348.2297,155.19043Q349.6242,157.3916,350.6359,159.4834L349.5559,159.98926Q349.2687,159.33301,348.9611,158.69043Q346.801,158.82031,343.8,159.10059Q343.4172,159.1416,342.8293,159.33301L342.3234,158.34863Q342.802,158.06152,343.1437,157.58301Q344.2512,155.92871,345.3859,153.331055L346.5344,153.700195Q345.2902,156.0791,344.0598,158.02051Q346.7941,157.84961,348.5031,157.76758Q347.9494,156.68066,347.341,155.62793L348.2297,155.19043ZM348.5578,161.61621L344.0461,161.61621L344.0461,164.9248L348.5578,164.9248L348.5578,161.61621ZM341.1887,157.35059L339.5139,157.35059Q339.0832,159.61328,338.6594,161.11035Q339.4045,161.71191,340.0744,162.27246Q341.0041,160.36523,341.1887,157.35059ZM354.1687,159.40137L363.2605,159.40137Q363.1922,161.72559,363.0555,163.94043Q362.8914,166.4971,360.6355,166.4834Q359.5281,166.4971,358.2977,166.415Q358.2156,165.8408,358.1062,165.2529Q359.159,165.4033,360.4578,165.417Q361.825,165.4443,361.9617,163.81738Q362.0711,162.34082,362.1258,160.41309L357.9217,160.41309Q357.7576,162.69629,356.9715,164.0908Q355.93240000000003,165.9229,353.4852,166.9209Q353.1297,166.4561,352.7059,166.0049Q354.9754,165.1572,355.97339999999997,163.54395Q356.6912,162.32031,356.80060000000003,160.41309L354.1687,160.41309L354.1687,159.40137ZM359.8289,153.713867L360.8133,153.290039Q362.3172,156.9541,366.0906,158.77246Q365.4754,159.41504,365.202,159.81152Q361.4422,157.6377,359.8289,153.713867ZM352.3094,158.9502Q355.1258,156.9541,357.1219,153.508789L358.0926,154.0419922Q356.0145,157.67871,353.1023,159.87988Q352.8152,159.45605,352.3094,158.9502ZM373.6703,154.506836Q377.0473,154.452148,380.4242,153.9189453L380.7934,154.90332Q377.9086,155.32715,374.723,155.46387L374.723,158.5127L381.3949,158.5127L381.3949,159.51074L378.8246,159.51074L378.8246,166.7842L377.7719,166.7842L377.7719,159.51074L374.723,159.51074L374.723,160.03027Q374.723,164.4736,372.4672,166.8662Q372.1254,166.374,371.7562,165.9639Q373.6703,163.91309,373.6703,160.0166L373.6703,154.506836ZM367.7914,161.95801Q369.2133,159.87988,369.9379,157.15918L367.9828,157.15918L367.9828,156.21582L369.9652,156.21582L369.9652,153.495117L370.9633,153.495117L370.9633,156.21582L372.85,156.21582L372.85,157.15918L370.9633,157.15918L370.9633,158.71777L371.4691,158.32129Q372.7133,159.78418,373.2738,160.65918L372.4262,161.28809Q371.7836,160.27637,370.9633,159.18262L370.9633,166.7842L369.9652,166.7842L369.9652,159.75684Q369.26800000000003,161.80762,368.2699,163.1748Q368.1059,162.69629,367.7914,161.95801Z" fill="#FFFFFF" fill-opacity="1"/></g></g></g></svg>