<svg xmlns="http://www.w3.org/2000/svg" xmlns:xlink="http://www.w3.org/1999/xlink" fill="none" version="1.1" width="40.078125" height="52.37841796875" viewBox="0 0 40.078125 52.37841796875"><defs><radialGradient cx="0" cy="0" r="1" gradientUnits="userSpaceOnUse" id="master_svg0_626_47552" gradientTransform="translate(39.333702087402344 6.853842735290527) rotate(180) scale(25.83451271057129 9.766168725262144)"><stop offset="0%" stop-color="#9EE1C3" stop-opacity="1"/><stop offset="100%" stop-color="#A6FF9E" stop-opacity="0"/></radialGradient><radialGradient cx="0" cy="0" r="1" gradientUnits="userSpaceOnUse" id="master_svg1_626_47347" gradientTransform="translate(18.794538497924805 26.18876075744629) rotate(90) scale(25.83451271057129 25.341372793011484)"><stop offset="0%" stop-color="#A1E5B6" stop-opacity="1"/><stop offset="100%" stop-color="#A1E5B6" stop-opacity="0"/></radialGradient><filter id="master_svg2_672_76855" filterUnits="objectBoundingBox" color-interpolation-filters="sRGB" x="-2.7518496383915694" y="-2.3257109532131537" width="6.503699276783139" height="6.814277383032884"><feFlood flood-opacity="0" result="BackgroundImageFix"/><feColorMatrix in="SourceAlpha" type="matrix" values="0 0 0 0 0 0 0 0 0 0 0 0 0 0 0 0 0 0 127 0"/><feOffset dy="4" dx="0"/><feGaussianBlur stdDeviation="5"/><feColorMatrix type="matrix" values="0 0 0 0 0.3273000121116638 0 0 0 0 0.18855240941047668 0 0 0 0 0 0 0 0 1 0"/><feBlend mode="normal" in2="BackgroundImageFix" result="effect1_dropShadow"/><feBlend mode="normal" in="SourceGraphic" in2="effect1_dropShadow" result="shape"/></filter></defs><g><g transform="matrix(0,1,-1,0,13.853437423706055,-13.144941329956055)"><path d="M39.616689376831054,13.852048046875Q52.61098937683106,13.728048046875,65.52328937683106,0.7063050468750001L64.81318937683105,0.002191046874999991Q52.19038937683106,12.732048046875,39.60718937683106,12.852048046875Q26.783689376831056,12.974448046875,13.853319376831054,0.001278046874999994L13.145049376831055,0.707218046875Q26.372589376831055,13.978348046875,39.616689376831054,13.852048046875Z" fill-rule="evenodd" fill="url(#master_svg0_626_47552)" fill-opacity="1"/></g><g><path d="M8.860607147123046,26.223448046875C8.860668182123048,21.717448046875,12.152669901123048,13.593348046875,25.435479901123045,0.354248046875L28.729279901123046,0.930028046875Q16.956809901123044,12.663848046875,16.093359901123048,24.369148046875L13.192209901123046,25.627648046875L13.192259901123048,27.743148046875L16.183279901123047,29.040748046875Q17.442859901123047,40.255948046875,28.726779901123045,51.444948046875L25.435479901123045,52.023248046875C12.151389901123046,38.850848046875,8.860542297123047,30.729348046875,8.860607147123046,26.223448046875Z" fill-rule="evenodd" fill="url(#master_svg1_626_47347)" fill-opacity="1"/></g><g transform="matrix(0,-1,1,0,-16.120790481567383,44.51815223693848)" filter="url(#master_svg2_672_76855)"><path d="M14.198680877685547,37.19909135925293L21.466520877685547,37.19909135925293L18.482000877685547,30.31947135925293L17.183180877685547,30.31949934315293L14.198680877685547,37.19909135925293Z" fill="#FFF2B1" fill-opacity="1"/></g></g></svg>