<svg xmlns="http://www.w3.org/2000/svg" xmlns:xlink="http://www.w3.org/1999/xlink" fill="none" version="1.1" width="16" height="16" viewBox="0 0 16 16"><defs><clipPath id="master_svg0_103_54811"><rect x="0" y="0" width="16" height="16" rx="0"/></clipPath></defs><g clip-path="url(#master_svg0_103_54811)"><g><path d="M14,14.5C14.0143,14.2142,13.7862,13.9746,13.5,13.975L3.175,13.975C2.4846399999999997,13.975,1.925,13.4154,1.925,12.725Q1.925,11.475,3.175,11.475L14,11.475C14.5523,11.475,15,11.0273,15,10.475L15,2C15,1.447715,14.5523,1,14,1L3,1C1.89543,1,1,1.89543,1,3L1,13C1,14.1046,1.89543,15,3,15L13.5,15C13.7761,15,14,14.7761,14,14.5Z" fill="#C7FFDF" fill-opacity="1"/></g><g><path d="M8,2.1500244140625L8.925,4.0250244140625L11,4.3250244140625L9.5,5.8000244140625L9.85,7.8500244140625L8,6.8750244140625L6.15,7.8500244140625L6.5,5.8000244140625L5,4.3250244140625L7.075,4.0250244140625L8,2.1500244140625ZM12,9.5000244140625C12,9.7761644140625,11.77614,10.0000244140625,11.5,10.0000244140625L4.5,10.0000244140625C4.223857,10.0000244140625,4,9.7761644140625,4,9.5000244140625C4,9.2238844140625,4.223857,9.0000244140625,4.5,9.0000244140625L11.5,9.0000244140625C11.77614,9.0000244140625,12,9.2238844140625,12,9.5000244140625Z" fill="#234A35" fill-opacity="1"/></g></g></svg>