<svg xmlns="http://www.w3.org/2000/svg" xmlns:xlink="http://www.w3.org/1999/xlink" fill="none" version="1.1" width="16" height="16" viewBox="0 0 16 16"><g style="mix-blend-mode:passthrough"><g style="mix-blend-mode:passthrough"><path d="M13.2534,7.99868C13.2534,5.0736,10.89652,2.711336,8.000160000000001,2.711336C6.08692,2.711335,4.40906,3.7421100000000003,3.49045,5.28498L5.33676,5.28498L5.33676,6.24894L2.25,6.24894C1.973857,6.24894,1.75,6.02508,1.75,5.74894L1.75,2.642519L2.708705,2.642519L2.708705,4.72001C3.80336,2.93771,5.76382,1.75,8.000160000000001,1.75C11.4324,1.75,14.2148,4.54763,14.2148,7.99868L13.2534,7.99868ZM2.746874,7.99863L1.7855382,7.99863C1.7855363,11.44968,4.56792,14.2474,8.00015,14.2474C10.23629,14.2474,12.1966,13.0599,13.2913,11.27786L13.2913,13.3548L14.25,13.3548L14.25,10.24843C14.25,9.97228,14.0261,9.748429999999999,13.75,9.748429999999999L10.66324,9.748429999999999L10.66324,10.71239L12.5099,10.71239C11.59125,12.2553,9.91339,13.286,8.00015,13.286C5.10379,13.286,2.746873,10.92371,2.746874,7.99863Z" fill-rule="evenodd" fill="#FFFFFF" fill-opacity="1"/></g></g></svg>