<svg xmlns="http://www.w3.org/2000/svg" xmlns:xlink="http://www.w3.org/1999/xlink" fill="none" version="1.1" width="16" height="16.000152587890625" viewBox="0 0 16 16.000152587890625"><g><g><path d="M15.162,6.99668C14.9532,6.56548,14.6997,6.09768,14.4095,5.60683C14.2187,5.28483,13.8032,5.17826,13.481,5.36872C13.1588,5.55918,13.0519,5.97466,13.242,6.29701C13.5132,6.75532,13.7492,7.18922,13.9431,7.58922C14.522,8.78381,14.6441,9.49161,14.6441,9.86314C14.6441,12.4394,12.499,14.5303,9.76271,14.6442C7.02644,14.5303,4.88136,12.434,4.88136,9.8645C4.88136,9.48619,5.00339,8.77974,5.58237,7.58922C6.07051,6.61695,6.62599,5.67997,7.24475,4.78513C7.88746,3.83461,8.54237,2.98308,8.96814,2.42443C9.34237,1.94442,9.62712,1.59459,9.76271,1.4373C9.8983,1.59459,10.1831,1.94442,10.5573,2.42443C10.9315,2.90443,11.3058,3.40342,11.6556,3.88885C11.8744,4.19252,12.2978,4.2615,12.6017,4.04296C12.9056,3.82442,12.9749,3.40102,12.7566,3.09698C12.3896,2.58747,12.0125,2.08522,11.6258,1.59052C11.1403,0.968145,10.7946,0.555937,10.7186,0.467801C10.2339,-0.155736,9.29155,-0.155736,8.80678,0.467801C8.73085,0.555937,8.38508,0.968145,7.89966,1.59052C7.46848,2.14104,6.82712,2.98308,6.18305,3.93224C6.00678,3.69088,5.84678,3.47664,5.71254,3.29901C5.29763,2.75664,5.01153,2.40545,4.9722,2.35934C4.79913,2.10259,4.42121,2.10259,4.24814,2.35934C4.20881,2.40545,3.92271,2.75392,3.5078,3.29901C3.14576,3.77631,2.59932,4.51936,2.05559,5.34242C1.52636,6.12913,1.05288,6.95194,0.638644,7.80482C0.214237,8.7011,0,9.43738,0,9.99467C0,12.5032,2.04881,14.5466,4.61017,14.6442C4.98332,14.6298,5.35361,14.5729,5.7139,14.4747C6.84802,15.4163,8.26363,15.9531,9.73695,16.0001L9.78847,16.0001C13.2678,15.8646,15.9959,13.1757,16,9.8645C16,9.09568,15.7288,8.15872,15.162,6.99668ZM1.35593,9.99467C1.35593,9.83331,1.4061,9.35466,1.86441,8.38381C2.25195,7.5898,2.69414,6.82366,3.1878,6.0909C3.70983,5.29903,4.23729,4.58309,4.58712,4.12207L4.61017,4.09224L4.63322,4.12207C4.83661,4.39326,5.10237,4.74716,5.38983,5.15395C5.01677,5.75045,4.67418,6.36548,4.36339,6.99668C3.79661,8.15872,3.52542,9.09568,3.52542,9.8645C3.52667,11.0913,3.90851,12.2876,4.61831,13.2883L4.61017,13.2883C2.78373,13.192,1.35593,11.7547,1.35593,9.99467Z" fill="#D8FFE9" fill-opacity="1"/></g><g><path d="M6.0284423828125,8.759377875L6.0284423828125,12.058391875L7.0508123828125004,12.058391875L7.0508123828125004,10.838041875L7.6094623828125005,10.838041875C8.0162423828125,10.838041875,8.3267423828125,10.744481875,8.526072382812501,10.557361875C8.7335623828125,10.352101874999999,8.8431523828125,10.067761875,8.827082382812499,9.776341875C8.8458123828125,9.499421875,8.7474223828125,9.227371875,8.5559023828125,9.026501875C8.3714923828125,8.850226875,8.0948823828125,8.763446875,7.7260723828125,8.763446875L6.0284423828125,8.759377875ZM7.8359023828125,9.800741875C7.8385223828125,9.902081875,7.7945523828125,9.999021875,7.7165823828125,10.063801875C7.5936923828125,10.143511875,7.4474823828125,10.179351875,7.3016623828125,10.165491875L7.0508123828125004,10.165491875L7.0508123828125004,9.429211875L7.3409823828125,9.429211875C7.4799023828125,9.413041875,7.6196223828125,9.451991875000001,7.7301423828125,9.537691875C7.7992923828125,9.607611875,7.8374023828125,9.702411875,7.8359023828125,9.800741875ZM13.347762382812501,12.058391875L13.347762382812501,7.982421875L12.0826823828125,7.982421875L12.0826823828125,9.408871874999999L10.7064123828125,9.408871874999999L10.7064123828125,7.982421875L9.4467423828125,7.982421875L9.4467423828125,12.058391875L10.7064123828125,12.058391875L10.7064123828125,10.409561875L12.0826823828125,10.409561875L12.0826823828125,12.058391875L13.347762382812501,12.058391875Z" fill="#D8FFE9" fill-opacity="1"/></g></g></svg>