<svg xmlns="http://www.w3.org/2000/svg" xmlns:xlink="http://www.w3.org/1999/xlink" fill="none" version="1.1" width="16" height="2" viewBox="0 0 16 2"><defs><clipPath id="master_svg0_2671_168172"><rect x="16" y="0" width="16" height="2" rx="0"/></clipPath></defs><g transform="matrix(-1,0,0,1,32,0)" clip-path="url(#master_svg0_2671_168172)"><g><path d="M-120,81L-120,73L-118,73L-118,81L-120,81ZM-120,65L-120,57L-118,57L-118,65L-120,65ZM-120,49L-120,41L-118,41L-118,49L-120,49ZM-120,33L-120,25L-118,25L-118,33L-120,33ZM-120,17Q-120,12.64974,-117.9103899,8.8342013L-116.1562264,9.7948837Q-118,13.161533,-118,17L-120,17ZM-112.0590591,2.6148192999999997Q-108.354553,0.28190976,-103.984015,0.02850282000000004L-103.868249,2.0251495999999998Q-107.724606,2.2487440000000003,-110.9932871,4.3071938L-112.0590591,2.6148192999999997ZM-95.970783,0L-87.970783,0L-87.970783,2L-95.970783,2L-95.970783,0ZM-79.970783,0L-71.970783,0L-71.970783,2L-79.970783,2L-79.970783,0ZM-63.970783,0L-55.970783,0L-55.970783,2L-63.970783,2L-63.970783,0ZM-47.97077899999999,0L-39.970787,0L-39.970787,2L-47.97077899999999,2L-47.97077899999999,0ZM-31.970778999999993,0L-23.970778999999993,0L-23.970778999999993,2L-31.970778999999993,2L-31.970778999999993,0ZM-15.970780000000005,0L-7.970780000000005,0L-7.970780000000005,2L-15.970780000000005,2L-15.970780000000005,0ZM0.02921999999999514,0L8.029219999999995,0L8.029219999999995,2L0.02921999999999514,2L0.02921999999999514,0ZM16.02922000000001,0L24.02922000000001,0L24.02922000000001,2L16.02922000000001,2L16.02922000000001,0ZM32.029210000000006,0L40.02923999999999,0L40.02923999999999,2L32.029210000000006,2L32.029210000000006,0ZM48.02923999999999,0L56.02922000000001,0L56.02922000000001,2L48.02923999999999,2L48.02923999999999,0ZM64.02922000000001,0L72.02922000000001,0L72.02922000000001,2L64.02922000000001,2L64.02922000000001,0ZM80.02922000000001,0L88.02922000000001,0L88.02922000000001,2L80.02922000000001,2L80.02922000000001,0ZM96.02922000000001,0L104.02922000000001,0L104.02922000000001,2L96.02922000000001,2L96.02922000000001,0ZM112.02922000000001,0L120.02922000000001,0L120.02922000000001,2L112.02922000000001,2L112.02922000000001,0ZM128.0293,0.000025269999999966153Q132.38048,0.007524069999999994,136.19304,2.1045604L135.22917,3.8569677Q131.86514,2.006639,128.02585,2.0000223L128.0293,0.000025269999999966153ZM142.40186,7.9674397Q144.72757000000001,11.675644,144.97323999999998,16.045890999999997L142.97638,16.158141999999998Q142.75958000000003,12.302015,140.70752,9.0300951L142.40186,7.9674397ZM145,24.058432L145,32.058431999999996L143,32.058431999999996L143,24.058432L145,24.058432ZM145,40.058434L145,48.058434L143,48.058434L143,40.058434L145,40.058434ZM145,56.058434L145,64.058434L143,64.058434L143,56.058434L145,56.058434ZM145,72.058434L145,80.058434L143,80.058434L143,72.058434L145,72.058434ZM145,88.058434L145,96.058434L143,96.058434L143,88.058434L145,88.058434ZM143.36322,104.27813Q141.47833000000003,108.25703,137.89886,110.82072L136.73431,109.19475Q139.89263999999997,106.93269,141.55579,103.42189L143.36322,104.27813ZM129.95636,113.88707Q128.98143,114,128,114L121.91235,114L121.91235,112L128,112Q128.866,112,129.72623,111.90035L129.95636,113.88707ZM113.91235,114L105.91235,114L105.91235,112L113.91235,112L113.91235,114ZM97.91235,114L89.91235,114L89.91235,112L97.91235,112L97.91235,114ZM81.91235,114L73.91235,114L73.91235,112L81.91235,112L81.91235,114ZM65.91235,114L57.91235,114L57.91235,112L65.91235,112L65.91235,114ZM49.91235,114L41.91235,114L41.91235,112L49.91235,112L49.91235,114ZM33.91235,114L25.912350000000004,114L25.912350000000004,112L33.91235,112L33.91235,114ZM17.912350000000004,114L9.912350000000004,114L9.912350000000004,112L17.912350000000004,112L17.912350000000004,114ZM1.9123699999999957,114L-6.087630000000004,114L-6.087630000000004,112L1.9123699999999957,112L1.9123699999999957,114ZM-14.087649999999996,114L-22.087646000000007,114L-22.087646000000007,112L-14.087649999999996,112L-14.087649999999996,114ZM-30.087646000000007,114L-38.08764600000001,114L-38.08764600000001,112L-30.087646000000007,112L-30.087646000000007,114ZM-46.08764600000001,114L-54.08764600000001,114L-54.08764600000001,112L-46.08764600000001,112L-46.08764600000001,114ZM-62.087646,114L-70.087646,114L-70.087646,112L-62.087646,112L-62.087646,114ZM-78.087646,114L-86.087646,114L-86.087646,112L-78.087646,112L-78.087646,114ZM-94.087646,114L-102.087646,114L-102.087646,112L-94.087646,112L-94.087646,114ZM-110.3059521,112.35003Q-114.2817936,110.45769,-116.8390675,106.8732L-115.2109406,105.71164Q-112.9545183,108.87444,-109.4464245,110.54414L-110.3059521,112.35003ZM-119.89055747,98.925903Q-120,97.966064,-120,97L-120,89L-118,89L-118,97Q-118,97.852402,-117.9034328,98.699326L-119.89055747,98.925903Z" fill="#2666BB" fill-opacity="1"/></g></g></svg>