<svg xmlns="http://www.w3.org/2000/svg" xmlns:xlink="http://www.w3.org/1999/xlink" fill="none" version="1.1" width="200" height="80" viewBox="0 0 200 80"><defs><clipPath id="master_svg0_2671_167906"><rect x="0" y="0" width="200" height="80" rx="0"/></clipPath></defs><g clip-path="url(#master_svg0_2671_167906)"><g><path d="M18,102L18,94L20,94L20,102L18,102ZM18,86L18,78L20,78L20,86L18,86ZM18,70L18,62L20,62L20,70L18,70ZM18,54L18,46L20,46L20,54L18,54ZM18,38Q18,33.64974,20.0896101,29.8342013L21.8437736,30.7948837Q20,34.161533,20,38L18,38ZM25.9409409,23.6148193Q29.645447,21.28190976,34.015985,21.02850282L34.131751,23.0251496Q30.275394,23.248744,27.0067129,25.3071938L25.9409409,23.6148193ZM42.029217,21L50.029217,21L50.029217,23L42.029217,23L42.029217,21ZM58.029217,21L66.029217,21L66.029217,23L58.029217,23L58.029217,21ZM74.029217,21L82.029217,21L82.029217,23L74.029217,23L74.029217,21ZM90.029221,21L98.029213,21L98.029213,23L90.029221,23L90.029221,21ZM106.029221,21L114.029221,21L114.029221,23L106.029221,23L106.029221,21ZM122.02922,21L130.02922,21L130.02922,23L122.02922,23L122.02922,21ZM138.02922,21L146.02922,21L146.02922,23L138.02922,23L138.02922,21ZM154.02922,21L162.02922,21L162.02922,23L154.02922,23L154.02922,21ZM170.02921,21L178.02924,21L178.02924,23L170.02921,23L170.02921,21ZM186.02924,21L194.02922,21L194.02922,23L186.02924,23L186.02924,21ZM202.02922,21L210.02922,21L210.02922,23L202.02922,23L202.02922,21ZM218.02922,21L226.02922,21L226.02922,23L218.02922,23L218.02922,21ZM234.02922,21L242.02922,21L242.02922,23L234.02922,23L234.02922,21ZM250.02922,21L258.02922,21L258.02922,23L250.02922,23L250.02922,21ZM266.02930000000003,21.00002527Q270.38048000000003,21.00752407,274.19304,23.1045604L273.22917,24.8569677Q269.86514,23.006639,266.02585,23.0000223L266.02930000000003,21.00002527ZM280.40186,28.9674397Q282.72757,32.675644,282.97324,37.045891L280.97638,37.158142Q280.75958,33.302015,278.70752,30.0300951L280.40186,28.9674397ZM283,45.058431999999996L283,53.058431999999996L281,53.058431999999996L281,45.058431999999996L283,45.058431999999996ZM283,61.058434L283,69.058434L281,69.058434L281,61.058434L283,61.058434ZM283,77.058434L283,85.058434L281,85.058434L281,77.058434L283,77.058434ZM283,93.058434L283,101.058434L281,101.058434L281,93.058434L283,93.058434ZM283,109.058434L283,117.058434L281,117.058434L281,109.058434L283,109.058434ZM281.36322,125.27813Q279.47833,129.25703,275.89886,131.82072L274.73431,130.19475Q277.89264,127.93269,279.55579,124.42189L281.36322,125.27813ZM267.95636,134.88707Q266.98143,135,266,135L259.91235,135L259.91235,133L266,133Q266.866,133,267.72623,132.90035L267.95636,134.88707ZM251.91235,135L243.91235,135L243.91235,133L251.91235,133L251.91235,135ZM235.91235,135L227.91235,135L227.91235,133L235.91235,133L235.91235,135ZM219.91235,135L211.91235,135L211.91235,133L219.91235,133L219.91235,135ZM203.91235,135L195.91235,135L195.91235,133L203.91235,133L203.91235,135ZM187.91235,135L179.91235,135L179.91235,133L187.91235,133L187.91235,135ZM171.91235,135L163.91235,135L163.91235,133L171.91235,133L171.91235,135ZM155.91235,135L147.91235,135L147.91235,133L155.91235,133L155.91235,135ZM139.91237,135L131.91237,135L131.91237,133L139.91237,133L139.91237,135ZM123.91235,135L115.912354,135L115.912354,133L123.91235,133L123.91235,135ZM107.912354,135L99.912354,135L99.912354,133L107.912354,133L107.912354,135ZM91.912354,135L83.912354,135L83.912354,133L91.912354,133L91.912354,135ZM75.912354,135L67.912354,135L67.912354,133L75.912354,133L75.912354,135ZM59.912354,135L51.912354,135L51.912354,133L59.912354,133L59.912354,135ZM43.912354,135L35.912354,135L35.912354,133L43.912354,133L43.912354,135ZM27.6940479,133.35003Q23.7182064,131.45769,21.1609325,127.8732L22.7890594,126.71164Q25.0454817,129.87444,28.5535755,131.54414L27.6940479,133.35003ZM18.10944253,119.925903Q18,118.966064,18,118L18,110L20,110L20,118Q20,118.852402,20.0965672,119.699326L18.10944253,119.925903Z" fill="#2666BB" fill-opacity="1"/></g></g></svg>