<svg xmlns="http://www.w3.org/2000/svg" xmlns:xlink="http://www.w3.org/1999/xlink" fill="none" version="1.1" width="200" height="80" viewBox="0 0 200 80"><defs><clipPath id="master_svg0_2671_167909"><rect x="200" y="0" width="200" height="80" rx="0"/></clipPath></defs><g transform="matrix(-1,0,0,1,400,0)" clip-path="url(#master_svg0_2671_167909)"><g><path d="M218,102L218,94L220,94L220,102L218,102ZM218,86L218,78L220,78L220,86L218,86ZM218,70L218,62L220,62L220,70L218,70ZM218,54L218,46L220,46L220,54L218,54ZM218,38Q218,33.64974,220.0896101,29.8342013L221.8437736,30.7948837Q220,34.161533,220,38L218,38ZM225.9409409,23.6148193Q229.645447,21.28190976,234.015985,21.02850282L234.131751,23.0251496Q230.275394,23.248744,227.0067129,25.3071938L225.9409409,23.6148193ZM242.029217,21L250.029217,21L250.029217,23L242.029217,23L242.029217,21ZM258.029217,21L266.029217,21L266.029217,23L258.029217,23L258.029217,21ZM274.029217,21L282.029217,21L282.029217,23L274.029217,23L274.029217,21ZM290.029221,21L298.029213,21L298.029213,23L290.029221,23L290.029221,21ZM306.029221,21L314.029221,21L314.029221,23L306.029221,23L306.029221,21ZM322.02922,21L330.02922,21L330.02922,23L322.02922,23L322.02922,21ZM338.02922,21L346.02922,21L346.02922,23L338.02922,23L338.02922,21ZM354.02922,21L362.02922,21L362.02922,23L354.02922,23L354.02922,21ZM370.02921000000003,21L378.02923999999996,21L378.02923999999996,23L370.02921000000003,23L370.02921000000003,21ZM386.02923999999996,21L394.02922,21L394.02922,23L386.02923999999996,23L386.02923999999996,21ZM402.02922,21L410.02922,21L410.02922,23L402.02922,23L402.02922,21ZM418.02922,21L426.02922,21L426.02922,23L418.02922,23L418.02922,21ZM434.02922,21L442.02922,21L442.02922,23L434.02922,23L434.02922,21ZM450.02922,21L458.02922,21L458.02922,23L450.02922,23L450.02922,21ZM466.02930000000003,21.00002527Q470.38048000000003,21.00752407,474.19304,23.1045604L473.22917,24.8569677Q469.86514,23.006639,466.02585,23.0000223L466.02930000000003,21.00002527ZM480.40186,28.9674397Q482.72757,32.675644,482.97324,37.045891L480.97638,37.158142Q480.75958,33.302015,478.70752,30.0300951L480.40186,28.9674397ZM483,45.058431999999996L483,53.058431999999996L481,53.058431999999996L481,45.058431999999996L483,45.058431999999996ZM483,61.058434L483,69.058434L481,69.058434L481,61.058434L483,61.058434ZM483,77.058434L483,85.058434L481,85.058434L481,77.058434L483,77.058434ZM483,93.058434L483,101.058434L481,101.058434L481,93.058434L483,93.058434ZM483,109.058434L483,117.058434L481,117.058434L481,109.058434L483,109.058434ZM481.36322,125.27813Q479.47833,129.25703,475.89886,131.82072L474.73431,130.19475Q477.89264,127.93269,479.55579,124.42189L481.36322,125.27813ZM467.95636,134.88707Q466.98143,135,466,135L459.91235,135L459.91235,133L466,133Q466.866,133,467.72623,132.90035L467.95636,134.88707ZM451.91235,135L443.91235,135L443.91235,133L451.91235,133L451.91235,135ZM435.91235,135L427.91235,135L427.91235,133L435.91235,133L435.91235,135ZM419.91235,135L411.91235,135L411.91235,133L419.91235,133L419.91235,135ZM403.91235,135L395.91235,135L395.91235,133L403.91235,133L403.91235,135ZM387.91235,135L379.91235,135L379.91235,133L387.91235,133L387.91235,135ZM371.91235,135L363.91235,135L363.91235,133L371.91235,133L371.91235,135ZM355.91235,135L347.91235,135L347.91235,133L355.91235,133L355.91235,135ZM339.91237,135L331.91237,135L331.91237,133L339.91237,133L339.91237,135ZM323.91235,135L315.912354,135L315.912354,133L323.91235,133L323.91235,135ZM307.912354,135L299.912354,135L299.912354,133L307.912354,133L307.912354,135ZM291.912354,135L283.912354,135L283.912354,133L291.912354,133L291.912354,135ZM275.912354,135L267.912354,135L267.912354,133L275.912354,133L275.912354,135ZM259.912354,135L251.912354,135L251.912354,133L259.912354,133L259.912354,135ZM243.912354,135L235.912354,135L235.912354,133L243.912354,133L243.912354,135ZM227.6940479,133.35003Q223.71820639999999,131.45769,221.1609325,127.8732L222.7890594,126.71164Q225.0454817,129.87444,228.5535755,131.54414L227.6940479,133.35003ZM218.10944253,119.925903Q218,118.966064,218,118L218,110L220,110L220,118Q220,118.852402,220.0965672,119.699326L218.10944253,119.925903Z" fill="#2666BB" fill-opacity="1"/></g></g></svg>