<svg xmlns="http://www.w3.org/2000/svg" xmlns:xlink="http://www.w3.org/1999/xlink" fill="none" version="1.1" width="16" height="16" viewBox="0 0 16 16"><g><path d="M6.62222,6.73684C6.71111,6.73684,6.75556,6.69252,6.8,6.6482C6.84444,6.60388,6.88889,6.51524,6.88889,6.47091L6.88889,0.797784C6.88889,0.753463,6.88889,0.709141,6.84444,0.709141L6.75556,0.709141L4.8,2.65928L2.22222,0.0886427C2.17778,0.0443213,2.08889,0,2.04444,0C1.95556,0,1.86667,0.0443213,1.82222,0.0886427L0.0888889,1.81717C0.0444444,1.8615,0,1.95014,0,1.99446C0,2.0831,0.0444444,2.17175,0.0888889,2.21607L2.66667,4.74238L0.8,6.60388C0.755556,6.6482,0.755556,6.6482,0.8,6.69252C0.8,6.73684,0.844445,6.73684,0.888889,6.73684L6.62222,6.73684ZM6.62222,9.17452C6.71111,9.17452,6.75556,9.21884,6.8,9.26316C6.84444,9.30748,6.88889,9.39612,6.88889,9.44044L6.88889,15.1579C6.88889,15.2022,6.88889,15.2465,6.84444,15.2465L6.75556,15.2465L4.8,13.2964L2.22222,15.867C2.17778,15.9114,2.08889,15.9557,2.04444,15.9557C1.95556,15.9557,1.91111,15.9114,1.86667,15.867L0.133333,14.1385C0.0444444,14.0942,0,14.0055,0,13.9612C0,13.9169,0.0444444,13.8283,0.0888889,13.7839L2.66667,11.2133L0.8,9.3518C0.755556,9.30748,0.755556,9.30748,0.8,9.26316C0.8,9.21884,0.844445,9.21884,0.888889,9.21884L6.62222,9.17452ZM9.37778,6.73684C9.28889,6.73684,9.24445,6.69252,9.2,6.6482C9.15556,6.60388,9.11111,6.51524,9.11111,6.47091L9.11111,0.797784C9.11111,0.753463,9.11111,0.709141,9.15556,0.709141L9.24445,0.709141L11.2,2.65928L13.7778,0.0886427C13.8222,0.0443213,13.9111,0,13.9556,0C14.0444,0,14.0889,0.0443213,14.1333,0.0886427L15.8667,1.81717C15.9556,1.8615,16,1.95014,16,1.99446C16,2.0831,15.9556,2.12742,15.9111,2.17175L13.3333,4.74238L15.2,6.60388C15.2444,6.6482,15.2444,6.6482,15.2,6.69252C15.2,6.73684,15.1556,6.73684,15.1111,6.73684L9.37778,6.73684ZM9.37778,9.17452C9.28889,9.17452,9.24445,9.21884,9.2,9.26316C9.15556,9.30748,9.11111,9.39612,9.11111,9.44044L9.11111,15.1579C9.11111,15.2022,9.11111,15.2465,9.15556,15.2465L9.24445,15.2465L11.1556,13.3407L13.7333,15.9114C13.7778,15.9557,13.8667,16,13.9111,16C14,16,14.0444,15.9557,14.0889,15.9114L15.8222,14.1828C15.8667,14.1385,15.9111,14.0499,15.9111,14.0055C15.9111,13.9612,15.8667,13.8726,15.8222,13.8283L13.3333,11.2133L15.2,9.3518C15.2444,9.30748,15.2444,9.30748,15.2,9.26316C15.2,9.21884,15.1556,9.21884,15.1111,9.21884L9.37778,9.17452Z" fill="#FFFFFF" fill-opacity="1"/></g></svg>