<svg xmlns="http://www.w3.org/2000/svg" xmlns:xlink="http://www.w3.org/1999/xlink" fill="none" version="1.1" width="16" height="16" viewBox="0 0 16 16"><g><path d="M15.6,0L10.4333,0C10.1,0,10,0.3,10.2667,0.566667L11.9,2.2L8.9,5.2C8.73333,5.36667,8.73333,5.63333,8.9,5.83333L10.1333,7.06667C10.3,7.23333,10.5667,7.23333,10.7667,7.06667L13.8,4.03333L15.4333,5.66667C15.7,5.93333,16,5.83333,16,5.5L16,0.366667C16,0.166667,15.8,0,15.6,0ZM0.5,16L5.63333,16C5.96667,16,6.06667,15.6333,5.8,15.3667L4.16667,13.7L7.16667,10.6667C7.33333,10.5,7.33333,10.2,7.16667,10.0333L5.93333,8.8C5.76667,8.63333,5.5,8.63333,5.3,8.8L2.3,11.8L0.633334,10.1667C0.333333,9.9,0,10,0,10.3333L0,15.4667C0,15.7,0.266667,16,0.5,16ZM16,15.6L16,10.4333C16,10.1,15.7,10,15.4333,10.2667L13.8,11.9L10.8,8.9C10.6333,8.73333,10.3667,8.73333,10.1667,8.9L8.93333,10.1333C8.76667,10.3,8.76667,10.5667,8.93333,10.7667L11.9667,13.8L10.3333,15.4333C10.0667,15.7,10.1667,16,10.5,16L15.6333,16C15.8333,16,16,15.8,16,15.6ZM0,0.5L0,5.63333C0,5.96667,0.366667,6.06667,0.633333,5.8L2.3,4.16667L5.33333,7.16667C5.5,7.33333,5.8,7.33333,5.96667,7.16667L7.2,5.93333C7.36667,5.76667,7.36667,5.5,7.2,5.3L4.2,2.3L5.83333,0.633334C6.1,0.333333,6,0,5.66667,0L0.533333,0C0.3,0,0,0.266667,0,0.5Z" fill="#FFFFFF" fill-opacity="1"/></g></svg>