<svg xmlns="http://www.w3.org/2000/svg" xmlns:xlink="http://www.w3.org/1999/xlink" fill="none" version="1.1" width="107.78076171875" height="108.54541015625" viewBox="0 0 107.78076171875 108.54541015625"><defs><filter id="master_svg0_563_72681" filterUnits="objectBoundingBox" color-interpolation-filters="sRGB" x="-1.6742893069208122" y="-1.565525988311288" width="4.3485786138416245" height="4.131051976622576"><feFlood flood-opacity="0" result="BackgroundImageFix"/><feBlend mode="normal" in="SourceGraphic" in2="BackgroundImageFix" result="shape"/><feGaussianBlur stdDeviation="10" result="effect1_foregroundBlur"/></filter><linearGradient x1="0.5" y1="0" x2="0.5" y2="1" id="master_svg1_497_70890"><stop offset="0%" stop-color="#458BFF" stop-opacity="1"/><stop offset="100%" stop-color="#63C3FF" stop-opacity="1"/></linearGradient><linearGradient x1="0.5" y1="0" x2="0.5" y2="1" id="master_svg2_497_70890"><stop offset="0%" stop-color="#458BFF" stop-opacity="1"/><stop offset="100%" stop-color="#63C3FF" stop-opacity="1"/></linearGradient><linearGradient x1="0.5" y1="0" x2="0.5" y2="1" id="master_svg3_497_70890"><stop offset="0%" stop-color="#458BFF" stop-opacity="1"/><stop offset="100%" stop-color="#63C3FF" stop-opacity="1"/></linearGradient><linearGradient x1="0.5" y1="0" x2="0.5" y2="1" id="master_svg4_497_71521"><stop offset="0%" stop-color="#00DDFF" stop-opacity="1"/><stop offset="100%" stop-color="#458BFF" stop-opacity="1"/></linearGradient><filter id="master_svg5_563_72680" filterUnits="objectBoundingBox" color-interpolation-filters="sRGB" x="-0.27754793343461565" y="-0.2513778230108749" width="1.5550958668692312" height="1.5027556460217497"><feFlood flood-opacity="0" result="BackgroundImageFix"/><feColorMatrix in="SourceAlpha" type="matrix" values="0 0 0 0 0 0 0 0 0 0 0 0 0 0 0 0 0 0 127 0"/><feOffset dy="0" dx="0"/><feGaussianBlur stdDeviation="3"/><feColorMatrix type="matrix" values="0 0 0 0 0.06194690242409706 0 0 0 0 0.8436577916145325 0 0 0 0 1 0 0 0 0.30000001192092896 0"/><feBlend mode="normal" in2="BackgroundImageFix" result="effect1_dropShadow"/><feBlend mode="normal" in="SourceGraphic" in2="effect1_dropShadow" result="shape"/></filter><linearGradient x1="0.5" y1="0" x2="0.5" y2="1" id="master_svg6_497_70792"><stop offset="0%" stop-color="#FFFFFF" stop-opacity="1"/><stop offset="12.857143580913544%" stop-color="#60D7FF" stop-opacity="1"/><stop offset="93.57143044471741%" stop-color="#55FFF4" stop-opacity="1"/><stop offset="99.70012903213501%" stop-color="#FFFFFF" stop-opacity="1"/></linearGradient><clipPath id="master_svg7_563_72683"><rect x="38.4365234375" y="33.32928466796875" width="36" height="36" rx="0"/></clipPath><linearGradient x1="0.5" y1="0" x2="0.5" y2="1" id="master_svg8_497_71449"><stop offset="0%" stop-color="#FFFFFF" stop-opacity="1"/><stop offset="100%" stop-color="#0E9AFF" stop-opacity="1"/></linearGradient><linearGradient x1="0.5" y1="0" x2="0.5" y2="1" id="master_svg9_497_71449"><stop offset="0%" stop-color="#FFFFFF" stop-opacity="1"/><stop offset="100%" stop-color="#0E9AFF" stop-opacity="1"/></linearGradient></defs><g><g><g transform="matrix(0.9428828954696655,-0.33312442898750305,0.33525988459587097,0.942125678062439,-13.30428828043631,15.44814617796834)" filter="url(#master_svg0_563_72681)"><ellipse cx="50.28966045379639" cy="58.991355895996094" rx="11.945366859436035" ry="12.775259017944336" fill="#00B7FF" fill-opacity="0.6000000238418579"/></g><g transform="matrix(0.9428828954696655,-0.33312442898750305,0.33525988459587097,0.942125678062439,-7.122464774543516,17.099686111072458)"><path d="M55.283693969116214,32.232304974975584Q59.96763396911621,34.790284974975584,63.22973396911621,39.33401497497559L64.0420339691162,38.75078497497559Q60.64703396911621,34.021904974975584,55.76299396911621,31.354654974975585Q51.29674396911621,28.915577974975587,46.299516569116214,28.628437974975586L46.24215136911621,29.626791974975585Q51.014843969116214,29.901029974975586,55.283693969116214,32.232304974975584ZM69.2788339691162,55.373514974975585Q69.2788339691162,47.254714974975585,65.2146339691162,40.52901497497559L64.3588339691162,41.046214974975584Q68.2788339691162,47.533414974975585,68.2788339691162,55.373514974975585L69.2788339691162,55.373514974975585ZM64.5934339691162,69.30471497497558Q61.75033396911621,74.20181497497558,57.290633969116215,77.27831497497559L57.85853396911621,78.10141497497558Q62.50263396911621,74.89771497497559,65.45823396911621,69.8068149749756Q68.47773396911622,64.60591497497558,69.11803396911621,58.47331497497559L68.1234339691162,58.36951497497559Q67.50543396911621,64.28911497497558,64.5934339691162,69.30471497497558ZM55.07941396911621,78.62491497497558Q50.99210396911621,80.80201497497558,46.44773896911621,81.10741497497558L46.51478796911621,82.10521497497558Q51.27303396911621,81.7854149749756,55.549543969116215,79.50751497497558L55.07941396911621,78.62491497497558Z" fill-rule="evenodd" fill="url(#master_svg1_497_70890)" fill-opacity="1"/></g><g transform="matrix(0.9428828358650208,-0.33312445878982544,0.33525988459587097,0.942125678062439,-16.416839606820105,12.612780630471462)"><path d="M28.01098108291626,62.7025891015625Q28.01098108291626,67.6146291015625,29.56984108291626,72.1687291015625L30.51594108291626,71.8449291015625Q29.01098108291626,67.4482291015625,29.01098108291626,62.7025891015625Q29.01098108291626,58.1879391015625,30.37633108291626,53.9791161015625L29.42513508291626,53.6705441015625Q28.01098108291626,58.0297991015625,28.01098108291626,62.7025891015625Z" fill-rule="evenodd" fill="url(#master_svg2_497_70890)" fill-opacity="1"/></g><g transform="matrix(0.9428828954696655,-0.33312445878982544,0.33525991439819336,0.942125678062439,-10.943312025785872,10.270436014115035)"><path d="M29.1577634375,44.16689622039795Q25.8064534375,47.87374622039795,23.9695034375,52.677646220397946L24.9035434375,53.03474622039795Q26.6736834375,48.40564622039795,29.8995534375,44.83753622039795Q36.7100234375,37.30444622039795,46.3301234375,37.30444622039795L46.3301234375,36.30444622039795Q36.266023437499996,36.30444622039795,29.1577634375,44.16689622039795Z" fill-rule="evenodd" fill="url(#master_svg3_497_70890)" fill-opacity="1"/></g><g transform="matrix(0.9428828954696655,-0.33312445878982544,0.33525991439819336,0.9421256184577942,-21.777787783493977,16.339201814016747)"><path d="M43.2531945123291,78.21926296875Q40.2154845123291,74.85925296875,38.5455645123291,70.49220296875001L34.8094045123291,71.92088296874999Q36.7465646123291,76.98677296875,40.2860345123291,80.90179296875Q47.8409845123291,89.25824296875,58.570984512329105,89.25824296875L58.570984512329105,85.25824296875Q49.616984512329104,85.25824296875,43.2531945123291,78.21926296875Z" fill-rule="evenodd" fill="url(#master_svg4_497_71521)" fill-opacity="1"/></g><g transform="matrix(0.9428828954696655,-0.33312442898750305,0.33525988459587097,0.942125678062439,-10.285139625183575,11.950439173363435)" filter="url(#master_svg5_563_72680)"><path d="M51.28387843170166,83.46910348358153Q51.81457843170166,83.46910348358153,52.34457843170166,83.44040348358155Q52.87467843170166,83.41160348358154,53.40277843170166,83.35420348358154Q53.93087843170166,83.29670348358155,54.45587843170166,83.21080348358154Q54.980778431701665,83.12480348358154,55.501278431701664,83.01050348358154Q56.02177843170166,82.89620348358154,56.536578431701656,82.75380348358155Q57.051378431701664,82.61140348358154,57.55917843170166,82.44130348358155Q58.06707843170166,82.27120348358154,58.56667843170166,82.07390348358155Q59.066378431701665,81.87650348358154,59.556678431701656,81.65220348358154Q60.04697843170166,81.42800348358153,60.52667843170166,81.17750348358155Q61.00647843170166,80.92700348358154,61.474478431701655,80.65070348358154Q61.94247843170166,80.37450348358155,62.39767843170166,80.07330348358154Q62.85287843170166,79.77210348358155,63.294078431701664,79.44650348358155Q63.73537843170166,79.12100348358155,64.16157843170166,78.77200348358154Q64.58787843170165,78.42290348358154,64.99807843170166,78.05120348358155Q65.40837843170166,77.67950348358154,65.80157843170166,77.28600348358154Q66.19477843170165,76.89250348358155,66.56997843170166,76.47820348358155Q66.94527843170167,76.06390348358154,67.30167843170166,75.62970348358155Q67.65807843170165,75.19560348358155,67.99467843170166,74.74260348358155Q68.33137843170167,74.28970348358155,68.64747843170166,73.81910348358154Q68.96367843170165,73.34840348358154,69.25847843170166,72.86130348358154Q69.55327843170167,72.37410348358154,69.82617843170166,71.87150348358153Q70.09897843170165,71.36890348358153,70.34917843170166,70.85220348358155Q70.59927843170166,70.33540348358154,70.82617843170166,69.80570348358154Q71.05307843170166,69.27600348358155,71.25617843170167,68.73470348358154Q71.45927843170166,68.19340348358153,71.63807843170166,67.64170348358155Q71.81687843170167,67.09000348358154,71.97087843170166,66.52930348358154Q72.12497843170166,65.96860348358155,72.25387843170165,65.40020348358155Q72.38287843170167,64.83180348358154,72.48637843170167,64.25720348358155Q72.58987843170166,63.68250348358154,72.66777843170166,63.10290348358154Q72.74567843170166,62.52330348358154,72.79767843170166,61.94020348358154Q72.84967843170166,61.35710348358154,72.87567843170166,60.77180348358154Q72.90177843170166,60.18660348358154,72.90177843170166,59.60070348358154Q72.90177843170166,59.01470348358154,72.87567843170166,58.42950348358154Q72.84967843170166,57.84430348358154,72.79767843170166,57.26110348358154Q72.74567843170166,56.67800348358154,72.66777843170166,56.09840348358154Q72.58987843170166,55.51880348358154,72.48637843170167,54.94410348358154Q72.38287843170167,54.36950348358154,72.25387843170165,53.80110348358154Q72.12497843170166,53.232703483581545,71.97087843170166,52.67200348358155Q71.81687843170167,52.111303483581544,71.63807843170166,51.55960348358154Q71.45927843170166,51.00790348358154,71.25617843170167,50.466603483581544Q71.05307843170166,49.925303483581544,70.82617843170166,49.39560348358154Q70.59927843170166,48.86590348358154,70.34917843170166,48.349103483581544Q70.09897843170165,47.832403483581544,69.82617843170166,47.32980348358154Q69.55327843170167,46.82720348358154,69.25847843170166,46.34000348358154Q68.96367843170165,45.85290348358154,68.64747843170166,45.382233483581544Q68.33137843170167,44.911603483581544,67.99467843170166,44.45867348358154Q67.65807843170165,44.005733483581544,67.30167843170166,43.57158348358154Q66.94527843170167,43.137433483581546,66.56997843170166,42.72311348358154Q66.19477843170165,42.308793483581546,65.80157843170166,41.91530348358154Q65.40837843170166,41.52180348358154,64.99807843170166,41.15009348358154Q64.58787843170165,40.77837348358155,64.16157843170166,40.429333483581544Q63.73537843170166,40.08029348358154,63.294078431701664,39.75476348358154Q62.85287843170166,39.42923348358154,62.39767843170166,39.128003483581544Q61.94247843170166,38.82677348358154,61.474478431701655,38.55056348358154Q61.00647843170166,38.27435348358154,60.52667843170166,38.02383348358154Q60.04697843170166,37.773313483581546,59.556678431701656,37.54908348358154Q59.066378431701665,37.32485348358154,58.56667843170166,37.12745348358154Q58.06707843170166,36.93006348358154,57.55917843170166,36.75997348358154Q57.051378431701664,36.58988248358154,56.536578431701656,36.44751148358154Q56.02177843170166,36.30513948358154,55.501278431701664,36.190829483581545Q54.980778431701665,36.076518483581545,54.45587843170166,35.99054348358154Q53.93087843170166,35.90456848358154,53.40277843170166,35.847136483581544Q52.87467843170166,35.78970468358154,52.34457843170166,35.760954083581545Q51.81457843170166,35.73220348358154,51.28387843170166,35.73220348358154Q50.753178431701656,35.73220348358154,50.22307843170166,35.760954083581545Q49.693078431701664,35.78970468358154,49.164978431701655,35.847136483581544Q48.63677843170166,35.90456848358154,48.11187843170166,35.99054348358154Q47.58687843170166,36.076518483581545,47.066378431701665,36.190829483581545Q46.545978431701656,36.30513948358154,46.03117843170166,36.44751148358154Q45.51637843170166,36.58988248358154,45.00847843170166,36.75997348358154Q44.50067843170166,36.93006348358154,44.00097843170166,37.12745348358154Q43.50137843170166,37.32485348358154,43.01107843170166,37.54908348358154Q42.52077843170166,37.773313483581546,42.04097843170166,38.02383348358154Q41.56127843170166,38.27435348358154,41.09327843170166,38.55056348358154Q40.62527843170166,38.82677348358154,40.17007843170166,39.128003483581544Q39.71487843170166,39.42923348358154,39.27360843170166,39.75476348358154Q38.832358431701664,40.08029348358154,38.40610843170166,40.429333483581544Q37.97984843170166,40.77837348358155,37.56962843170166,41.15009348358154Q37.15939843170166,41.52180348358154,36.76617843170166,41.91530348358154Q36.37296843170166,42.308793483581546,35.99770843170166,42.72311348358154Q35.62245843170166,43.137433483581546,35.26606843170166,43.57158348358154Q34.90967843170166,44.005733483581544,34.57300843170166,44.45867348358154Q34.23634843170166,44.911603483581544,33.92021843170166,45.382233483581544Q33.60408843170166,45.85290348358154,33.30924843170166,46.340103483581544Q33.01441843170166,46.82720348358154,32.74158843170166,47.32980348358154Q32.46875843170166,47.832403483581544,32.21858843170166,48.349103483581544Q31.96842843170166,48.86590348358154,31.74152843170166,49.39560348358154Q31.51462843170166,49.925303483581544,31.31153843170166,50.466603483581544Q31.10845843170166,51.00790348358154,30.92966843170166,51.55960348358154Q30.75088843170166,52.111303483581544,30.596837431701662,52.67200348358155Q30.44278643170166,53.232703483581545,30.31383943170166,53.80110348358154Q30.18489243170166,54.36950348358154,30.08136043170166,54.94410348358154Q29.97782743170166,55.51880348358154,29.89995943170166,56.09840348358154Q29.82209143170166,56.67800348358154,29.77007443170166,57.26110348358154Q29.71805783170166,57.84430348358154,29.69201813170166,58.42950348358154Q29.66597843170166,59.01470348358154,29.66597843170166,59.60070348358154Q29.66597843170166,60.18660348358154,29.69201813170166,60.77180348358154Q29.71805783170166,61.35710348358154,29.77007443170166,61.94020348358154Q29.82209143170166,62.52330348358154,29.89995943170166,63.10290348358154Q29.97782743170166,63.68250348358154,30.08136043170166,64.25720348358155Q30.18489243170166,64.83180348358154,30.31383943170166,65.40020348358155Q30.44278643170166,65.96860348358155,30.596837431701662,66.52930348358154Q30.75088843170166,67.09000348358154,30.92966843170166,67.64170348358155Q31.10845843170166,68.19340348358153,31.31153843170166,68.73470348358154Q31.51462843170166,69.27600348358155,31.74152843170166,69.80570348358154Q31.96842843170166,70.33540348358154,32.21858843170166,70.85220348358155Q32.46875843170166,71.36890348358153,32.74158843170166,71.87150348358153Q33.01441843170166,72.37410348358154,33.30924843170166,72.86130348358154Q33.60408843170166,73.34840348358154,33.92021843170166,73.81910348358154Q34.23634843170166,74.28970348358155,34.57300843170166,74.74260348358155Q34.90967843170166,75.19560348358155,35.26606843170166,75.62970348358155Q35.62245843170166,76.06390348358154,35.99770843170166,76.47820348358155Q36.37296843170166,76.89250348358155,36.76617843170166,77.28600348358154Q37.15939843170166,77.67950348358154,37.56961843170166,78.05120348358155Q37.97984843170166,78.42290348358154,38.40610843170166,78.77200348358154Q38.832358431701664,79.12100348358155,39.27360843170166,79.44650348358155Q39.71487843170166,79.77210348358155,40.17007843170166,80.07330348358154Q40.62527843170166,80.37450348358155,41.09327843170166,80.65080348358154Q41.56127843170166,80.92700348358154,42.04097843170166,81.17750348358155Q42.52077843170166,81.42800348358153,43.01107843170166,81.65220348358154Q43.50137843170166,81.87650348358154,44.00097843170166,82.07380348358154Q44.50067843170166,82.27120348358154,45.00847843170166,82.44130348358155Q45.51637843170166,82.61140348358154,46.03117843170166,82.75380348358155Q46.545978431701656,82.89620348358154,47.066378431701665,83.01050348358154Q47.58687843170166,83.12480348358154,48.11187843170166,83.21080348358154Q48.63677843170166,83.29670348358155,49.164978431701655,83.35420348358154Q49.693078431701664,83.41160348358154,50.22307843170166,83.44040348358155Q50.753178431701656,83.46910348358153,51.28387843170166,83.46910348358153ZM65.82887843170167,43.394413483581545Q71.90177843170166,50.09960348358155,71.90177843170166,59.60070348358154Q71.90177843170166,69.10170348358155,65.82887843170167,75.80690348358155Q59.79477843170166,82.46910348358153,51.28387843170166,82.46910348358153Q42.772878431701656,82.46910348358153,36.73889843170166,75.80690348358155Q30.66597843170166,69.10170348358155,30.66597843170166,59.60070348358154Q30.66597843170166,50.09960348358155,36.73889843170166,43.394413483581545Q42.772878431701656,36.73220348358154,51.28387843170166,36.73220348358154Q59.79477843170166,36.73220348358154,65.82887843170167,43.394413483581545Z" fill-rule="evenodd" fill="url(#master_svg6_497_70792)" fill-opacity="1"/></g></g><g clip-path="url(#master_svg7_563_72683)"><g><path d="M61.02457328125,41.34271240234375Q59.41924328125,43.42253240234375,57.95361328125,45.64733240234375C59.74083328125,48.47314240234375,61.43579328125,51.71811240234375,61.43579328125,53.89811240234375C61.43579328125,55.24771240234375,61.14055328125,56.52351240234375,60.63180328125,57.643812402343755C60.75833328125,57.65701240234375,60.90068328125,57.65701240234375,61.04039328125,57.65701240234375C64.11135328125,57.65701240234375,66.58921328125,54.93141240234375,66.58921328125,51.57041240234375Q66.58921328125,48.22008240234375,61.02457328125,41.34271240234375Z" fill="url(#master_svg8_497_71449)" fill-opacity="1" style="mix-blend-mode:passthrough"/></g><g><path d="M53.0717290234375,40.52557373046875Q60.5105490234375,49.62247373046875,60.507949023437504,54.06677373046875C60.507949023437504,58.51377373046875,57.1865490234375,62.119873730468754,53.0690890234375,62.119873730468754C48.9542690234375,62.119873730468754,45.6302490234375,58.51377373046875,45.6302490234375,54.06677373046875C45.6302490234375,53.28387373046875,45.7383260234375,52.49837373046875,45.9465710234375,51.74447373046875Q46.8770890234375,48.42572373046875,53.0717290234375,40.52557373046875ZM49.1203390234375,53.48427373046875C48.8040190234375,53.471073730468746,48.5245990234375,53.72677373046875,48.5140590234375,54.08527373046875C48.4982390234375,54.14057373046875,48.2478190234375,60.28517373046875,54.1234990234375,60.68317373046875L54.1630390234375,60.68317373046875C54.4793690234375,60.69637373046875,54.7455990234375,60.41167373046875,54.7455990234375,60.06897373046875C54.7587790234375,59.72637373046875,54.5083590234375,59.44167373046875,54.1946790234375,59.42847373046875C49.4524790234375,59.10157373046875,49.6449090234375,54.35417373046875,49.6580890234375,54.15637373046875C49.6739090234375,53.80847373046875,49.4392990234375,53.51057373046875,49.1203390234375,53.48427373046875Z" fill="url(#master_svg9_497_71449)" fill-opacity="1" style="mix-blend-mode:passthrough"/></g></g></g></svg>