<svg xmlns="http://www.w3.org/2000/svg" xmlns:xlink="http://www.w3.org/1999/xlink" fill="none" version="1.1" width="36.81918144226074" height="44.63763618469238" viewBox="0 0 36.81918144226074 44.63763618469238"><defs><filter id="master_svg0_1_343" filterUnits="objectBoundingBox" color-interpolation-filters="sRGB" x="-8" y="-6" width="36.81918144226074" height="44.63763618469238"><feFlood flood-opacity="0" result="BackgroundImageFix"/><feColorMatrix in="SourceAlpha" type="matrix" values="0 0 0 0 0 0 0 0 0 0 0 0 0 0 0 0 0 0 127 0"/><feOffset dy="2" dx="0"/><feGaussianBlur stdDeviation="2"/><feColorMatrix type="matrix" values="0 0 0 0 0.21570000052452087 0 0 0 0 0.7529454827308655 0 0 0 0 1 0 0 0 0.4399999976158142 0"/><feBlend mode="normal" in2="BackgroundImageFix" result="effect1_dropShadow"/><feBlend mode="normal" in="SourceGraphic" in2="effect1_dropShadow" result="shape"/></filter><linearGradient x1="0.5" y1="0" x2="0.5" y2="1" id="master_svg1_1_159"><stop offset="0%" stop-color="#62FAFF" stop-opacity="1"/><stop offset="100%" stop-color="#35A9FF" stop-opacity="1"/></linearGradient></defs><g filter="url(#master_svg0_1_343)"><path d="M28.8192,16.1849Q28.8192,16.4845,28.8042,16.7541Q28.7892,17.023699999999998,28.7593,17.3232Q28.4897,19.8096,27.6659,22.1012Q26.8421,24.3928,25.584,26.5047Q24.3258,28.6165,22.6783,30.5637Q21.0307,32.5108,19.113500000000002,34.308099999999996Q18.843899999999998,34.6376,18.424599999999998,34.6376Q17.97523,34.6376,17.70563,34.308099999999996Q15.78847,32.5108,14.12593,30.5337Q12.46339,28.5566,11.19028,26.3998Q9.917159999999999,24.243,9.09338,21.9214Q8.2696,19.599899999999998,8.0299557,17.0836Q8.0299557,16.844,8.0149779,16.6343Q8,16.424599999999998,8,16.1849Q8,14.08804,8.82378,12.23078Q9.64756,10.373529999999999,11.05548,8.99557Q12.46339,7.61761,14.36558,6.808804Q16.267760000000003,6.000000111705,18.424599999999998,6Q20.581400000000002,5.999999888295,22.468600000000002,6.808804Q24.3558,7.61761,25.7637,8.99557Q27.1716,10.373529999999999,27.9954,12.23078Q28.8192,14.08804,28.8192,16.1849ZM18.424599999999998,20.858Q19.4131,20.858,20.2818,20.4836Q21.1505,20.109099999999998,21.794600000000003,19.4801Q22.4386,18.851,22.8131,17.9973Q23.1875,17.1435,23.1875,16.1849Q23.1875,15.22635,22.8131,14.37261Q22.4386,13.51888,21.794600000000003,12.88981Q21.1505,12.26074,20.2818,11.886289999999999Q19.4131,11.511849999999999,18.424599999999998,11.511849999999999Q17.436030000000002,11.51184,16.567320000000002,11.886289999999999Q15.69861,12.26074,15.03958,12.88981Q14.38056,13.51888,14.00611,14.37261Q13.63167,15.22635,13.63167,16.1849Q13.63167,17.1435,14.00611,17.9973Q14.38056,18.851,15.03958,19.4801Q15.69861,20.109099999999998,16.567320000000002,20.4836Q17.436030000000002,20.858,18.424599999999998,20.858Z" fill="url(#master_svg1_1_159)" fill-opacity="1"/></g></svg>