<svg xmlns="http://www.w3.org/2000/svg" xmlns:xlink="http://www.w3.org/1999/xlink" fill="none" version="1.1" width="389" height="40" viewBox="0 0 389 40"><defs><filter id="master_svg0_457_80904" filterUnits="objectBoundingBox" color-interpolation-filters="sRGB" x="0" y="0" width="1" height="1"><feFlood flood-opacity="0" result="BackgroundImageFix"/><feBlend mode="normal" in="SourceGraphic" in2="BackgroundImageFix" result="shape"/><feColorMatrix in="SourceAlpha" type="matrix" result="hardAlpha" values="0 0 0 0 0 0 0 0 0 0 0 0 0 0 0 0 0 0 127 0"/><feOffset dy="0" dx="0"/><feGaussianBlur stdDeviation="0.5"/><feComposite in2="hardAlpha" operator="arithmetic" k2="-1" k3="1"/><feColorMatrix type="matrix" values="0 0 0 0 0.42352941632270813 0 0 0 0 0.7803921699523926 0 0 0 0 1 0 0 0 0.5600000023841858 0"/><feBlend mode="normal" in2="shape" result="effect1_innerShadow"/></filter></defs><g><g><g><g><g><path d="M4.39453,1.330120054321289L7.08984,2.111370054321289Q6.19141,4.757850054321289,5,7.091840054321289L5,18.00004005432129Q8.52539,15.05084005432129,8.90625,8.947310054321289L5.70312,8.947310054321289L5.70312,6.388710054321289L8.95508,6.388710054321289Q9.00391,3.898480054321289,9.00391,1.427770054321289L11.6211,1.427770054321289Q11.6211,2.091840054321289,11.5625,6.388710054321289L19.3359,6.388710054321289L19.3359,8.947310054321289L15.0195,8.947310054321289L15.0195,16.52544005432129Q15.0195,17.44344005432129,15.7227,17.44344005432129L16.0938,17.44344005432129Q16.6504,17.44344005432129,16.7871,17.05764005432129Q16.9238,16.67194005432129,17.207,13.69344005432129Q18.3789,14.240240054321289,19.6484,14.709040054321289Q19.3457,17.09184005432129,19.1211,18.07324005432129Q18.8965,19.05474005432129,18.2178,19.46974005432129Q17.5391,19.884840054321288,16.5234,19.884840054321288L14.8633,19.884840054321288Q12.4023,19.884840054321288,12.4023,17.169940054321287L12.4023,8.947310054321289L11.582,8.947310054321289Q11.3574,16.51564005432129,6.85547,20.47074005432129Q5.85938,19.12304005432129,5,18.156240054321287L5,20.49024005432129L2.38281,20.49024005432129L2.38281,11.33984005432129Q1.70898,12.257840054321289,0.976562,13.10744005432129Q0.683594,11.427740054321289,0.253906,9.572310054321289Q2.63672,6.642620054321289,4.39453,1.330120054321289ZM14.7266,1.505900054321289Q16.6211,2.619180054321289,18.2227,3.927770054321289L16.5625,5.880900054321289Q15.6836,5.138710054321289,13.2227,3.244180054321289L14.7266,1.505900054321289Z" fill="#00CCFF" fill-opacity="1"/></g></g></g></g><g filter="url(#master_svg0_457_80904)"><g><rect x="0" y="32" width="63.16666793823242" height="8" rx="0" fill="#00CCFF" fill-opacity="0.6000000238418579"/><rect x="0.5" y="32.5" width="62.16666793823242" height="7" rx="0" fill-opacity="0" stroke-opacity="1" stroke="#00CCFF" fill="none" stroke-width="1"/></g><g><rect x="65.16667175292969" y="32" width="63.16666793823242" height="8" rx="0" fill="#00CCFF" fill-opacity="0.6000000238418579"/><rect x="65.66667175292969" y="32.5" width="62.16666793823242" height="7" rx="0" fill-opacity="0" stroke-opacity="1" stroke="#00CCFF" fill="none" stroke-width="1"/></g><g><rect x="130.33334350585938" y="32" width="63.16666793823242" height="8" rx="0" fill="#00B7FF" fill-opacity="0.20000000298023224"/><rect x="130.83334350585938" y="32.5" width="62.16666793823242" height="7" rx="0" fill-opacity="0" stroke-opacity="0.5" stroke="#1470CC" fill="none" stroke-width="1"/></g><g><rect x="195.50001525878906" y="32" width="63.16666793823242" height="8" rx="0" fill="#00B7FF" fill-opacity="0.20000000298023224"/><rect x="196.00001525878906" y="32.5" width="62.16666793823242" height="7" rx="0" fill-opacity="0" stroke-opacity="0.5" stroke="#1470CC" fill="none" stroke-width="1"/></g><g><rect x="260.66668701171875" y="32" width="63.16666793823242" height="8" rx="0" fill="#00B7FF" fill-opacity="0.20000000298023224"/><rect x="261.16668701171875" y="32.5" width="62.16666793823242" height="7" rx="0" fill-opacity="0" stroke-opacity="0.5" stroke="#1470CC" fill="none" stroke-width="1"/></g><g><rect x="325.8333740234375" y="32" width="63.16666793823242" height="8" rx="0" fill="#00B7FF" fill-opacity="0.20000000298023224"/><rect x="326.3333740234375" y="32.5" width="62.16666793823242" height="7" rx="0" fill-opacity="0" stroke-opacity="0.5" stroke="#1470CC" fill="none" stroke-width="1"/></g></g></g></svg>