<svg xmlns="http://www.w3.org/2000/svg" xmlns:xlink="http://www.w3.org/1999/xlink" fill="none" version="1.1" width="42.951171875" height="18" viewBox="0 0 42.951171875 18"><g><g transform="matrix(0,-1,1,0,-14.475830078125,14.475830078125)"><path d="M4.99183,14.676309078125C5.25914,14.409003678125,5.69252,14.409003678125,5.95983,14.676309078125C5.95983,14.676309078125,10.7512,19.467660078125,10.7512,19.467660078125C11.0185,19.734970078125002,11.0185,20.168350078125002,10.7512,20.435660078125C10.4839,20.702960078125,10.0505,20.702960078125,9.78319,20.435660078125C9.78319,20.435660078125,6.16031,16.812780078125,6.16031,16.812780078125C6.16031,16.812780078125,6.16031,24.743030078125003,6.16031,24.743030078125003C6.16031,25.121030078125003,5.85385,25.427530078125002,5.47583,25.427530078125002C5.09781,25.427530078125002,4.79135,25.121030078125003,4.79135,24.743030078125003C4.79135,24.743030078125003,4.79135,16.812780078125,4.79135,16.812780078125C4.79135,16.812780078125,1.16848,20.435660078125,1.16848,20.435660078125C0.901171,20.702960078125,0.467784,20.702960078125,0.200479,20.435660078125C-0.0668264,20.168350078125002,-0.0668264,19.734970078125002,0.200479,19.467660078125C0.200479,19.467660078125,4.99183,14.676309078125,4.99183,14.676309078125C4.99183,14.676309078125,4.99183,14.676309078125,4.99183,14.676309078125Z" fill-rule="evenodd" fill="#FFFFFF" fill-opacity="1"/></g><g><path d="M21.37744015625,9.5791L22.03369015625,8.86816Q23.48975015625,9.95508,24.809080156249998,10.9805Q25.99166015625,9.72266,26.613760156250002,8.15723L21.11768015625,8.15723Q21.10400015625,12.1084,19.18994015625,14.3232Q18.88916015625,13.9131,18.46533015625,13.4619Q20.07861015625,11.6025,20.07861015625,8.06152L20.07861015625,4.31543Q24.43994015625,4.26074,27.926260156250002,3.72754L28.30906015625,4.79395Q24.781740156250002,5.16309,21.11768015625,5.27246L21.11768015625,7.2002L27.73486015625,7.2002L27.73486015625,8.1709Q27.07176015625,10.1055,25.66356015625,11.6436Q27.08546015625,12.7715,28.30906015625,13.8447L27.488760156250002,14.7334Q26.176260156250002,13.5439,24.86377015625,12.4297Q23.26416015625,13.8584,20.92627015625,14.8975Q20.62549015625,14.4736,20.24268015625,14.0225Q22.48486015625,13.0518,24.02978015625,11.7256Q22.70361015625,10.6182,21.37744015625,9.5791ZM20.84424015625,15.417L24.26221015625,15.458L28.73286015625,15.3623Q28.58256015625,15.8135,28.350060156250002,16.4424L23.947750156250002,16.4287L20.58447015625,16.3877Q18.24658015625,16.3604,17.31689015625,14.8018Q16.75635015625,15.3213,15.67626915625,16.6338L15.11572215625,15.499Q16.32568015625,14.3301,16.86572015625,13.8242L16.86572015625,9.22363L15.23876915625,9.22363L15.23876915625,8.21191L17.91846015625,8.21191L17.91846015625,14.0635Q18.74561015625,15.3896,20.84424015625,15.417ZM16.82471015625,3.61816Q17.52197015625,4.46582,18.73877015625,6.20215L17.76807015625,6.88574Q16.66064015625,5.14941,15.94970715625,4.20605L16.82471015625,3.61816ZM29.990760156249998,4.17871L41.939960156249995,4.17871L41.939960156249995,16.7021L40.79146015625,16.7021L40.79146015625,15.8271L31.13916015625,15.8271L31.13916015625,16.7021L29.990760156249998,16.7021L29.990760156249998,4.17871ZM40.79146015625,5.19043L31.13916015625,5.19043L31.13916015625,14.8428L40.79146015625,14.8428L40.79146015625,5.19043ZM33.053260156250005,7.28223L38.863760156249995,7.28223L38.863760156249995,13.2568L37.79736015625,13.2568L37.79736015625,12.4912L34.11966015625,12.4912L34.11966015625,13.2568L33.053260156250005,13.2568L33.053260156250005,7.28223ZM37.79736015625,8.23926L34.11966015625,8.23926L34.11966015625,11.5342L37.79736015625,11.5342L37.79736015625,8.23926Z" fill="#FFFFFF" fill-opacity="1"/></g></g></svg>