<svg xmlns="http://www.w3.org/2000/svg" xmlns:xlink="http://www.w3.org/1999/xlink" fill="none" version="1.1" width="68.9765625" height="86.648193359375" viewBox="0 0 68.9765625 86.648193359375"><defs><linearGradient x1="0.6554771065711975" y1="0.3239276707172394" x2="0.34232442418526765" y2="0.6324494641022644" id="master_svg0_488_25966"><stop offset="0%" stop-color="#10B390" stop-opacity="0"/><stop offset="100%" stop-color="#10B390" stop-opacity="1"/></linearGradient><linearGradient x1="0.5" y1="-3.0616171314629196e-17" x2="0.5" y2="1" id="master_svg1_488_26065"><stop offset="6.428571790456772%" stop-color="#00893D" stop-opacity="1"/><stop offset="100%" stop-color="#00B688" stop-opacity="1"/></linearGradient><linearGradient x1="0.5" y1="-3.0616171314629196e-17" x2="0.5" y2="1" id="master_svg2_488_26065"><stop offset="6.428571790456772%" stop-color="#00893D" stop-opacity="1"/><stop offset="100%" stop-color="#00B688" stop-opacity="1"/></linearGradient><filter id="master_svg3_488_26461/488_26448" filterUnits="objectBoundingBox" color-interpolation-filters="sRGB" x="0" y="0" width="1" height="1"><feFlood flood-opacity="0" result="BackgroundImageFix"/><feBlend mode="normal" in="SourceGraphic" in2="BackgroundImageFix" result="shape"/><feColorMatrix in="SourceAlpha" type="matrix" result="hardAlpha" values="0 0 0 0 0 0 0 0 0 0 0 0 0 0 0 0 0 0 127 0"/><feOffset dy="0" dx="0"/><feGaussianBlur stdDeviation="2"/><feComposite in2="hardAlpha" operator="arithmetic" k2="-1" k3="1"/><feColorMatrix type="matrix" values="0 0 0 0 0.14166665077209473 0 0 0 0 1 0 0 0 0 0.8454999327659607 0 0 0 0.25 0"/><feBlend mode="normal" in2="shape" result="effect1_innerShadow"/></filter><linearGradient x1="0.34486788511276245" y1="0.6324214935302734" x2="0.6242276291319807" y2="0.37224619138933357" id="master_svg4_488_26297"><stop offset="0%" stop-color="#3FFFBC" stop-opacity="1"/><stop offset="100%" stop-color="#009059" stop-opacity="1"/></linearGradient><linearGradient x1="0.5" y1="1.7794183552848064e-14" x2="0.5" y2="0.9999998807907104" id="master_svg5_488_26438"><stop offset="11.822248250246048%" stop-color="#00C788" stop-opacity="0"/><stop offset="79.67939376831055%" stop-color="#00C164" stop-opacity="0.30000001192092896"/><stop offset="100%" stop-color="#3CFFC1" stop-opacity="0.4000000059604645"/></linearGradient><linearGradient x1="0" y1="0.5505809783935547" x2="0.23653435698532552" y2="0.07402498025879715" id="master_svg6_488_27095"><stop offset="0%" stop-color="#C0EACF" stop-opacity="1"/><stop offset="100%" stop-color="#00B241" stop-opacity="0.949999988079071"/></linearGradient></defs><g><g><g transform="matrix(0.6228137016296387,-0.7823701500892639,0.622813880443573,0.7823700308799744,-27.1838382482581,9.498853613087022)"><path d="M19.2755,78.87170862426757L0.938388,45.36165862426758L0,43.64680862426758L34.2748,63.87200862426758L54.7295,96.90080862426757L55.7878,98.60970862426757L54.0196,97.65380862426758L19.2755,78.87170862426757ZM20.0109,78.13250862426759L2.62194,46.35510862426758L33.5544,64.60800862426758L52.9613,95.94500862426759L20.0109,78.13250862426759Z" fill-rule="evenodd" fill="url(#master_svg0_488_25966)" fill-opacity="1"/></g><g><path d="M33.40576171875,49.30995749511719C33.40576171875,49.30995749511719,60.49996171875,40.40580749511719,60.49996171875,40.40580749511719C60.49996171875,40.40580749511719,60.49996171875,41.90580749511719,60.49996171875,41.90580749511719C60.49996171875,41.90580749511719,33.40576171875,51.938507495117186,33.40576171875,51.938507495117186C33.40576171875,51.938507495117186,33.40576171875,49.30995749511719,33.40576171875,49.30995749511719C33.40576171875,49.30995749511719,33.40576171875,49.30995749511719,33.40576171875,49.30995749511719Z" fill="url(#master_svg1_488_26065)" fill-opacity="1"/></g><g transform="matrix(-1,0,0,1,66.8115234375,0)"><path d="M33.40576171875,49.17351171875C33.40576171875,49.17351171875,58.81156171875,40.90576171875,58.81156171875,40.90576171875C58.81156171875,40.90576171875,58.81156171875,42.90576171875,58.81156171875,42.90576171875C58.81156171875,42.90576171875,33.40576171875,51.76056171875,33.40576171875,51.76056171875C33.40576171875,51.76056171875,33.40576171875,49.17351171875,33.40576171875,49.17351171875Z" fill="url(#master_svg2_488_26065)" fill-opacity="1"/></g><g transform="matrix(0.6228134632110596,-0.7823703289031982,0.6228137016296387,0.7823701500892639,-22.39781853859313,15.240270856374991)" filter="url(#master_svg3_488_26461/488_26448)"><path d="M8.10986328125,40.873779296875C8.10986328125,40.873779296875,34.11806328125,56.220479296875,34.11806328125,56.220479296875C34.11806328125,56.220479296875,50.44246328125,82.579179296875,50.44246328125,82.579179296875C50.44246328125,82.579179296875,22.73636328125,67.602179296875,22.73636328125,67.602179296875C22.73636328125,67.602179296875,8.10986328125,40.873779296875,8.10986328125,40.873779296875C8.10986328125,40.873779296875,8.10986328125,40.873779296875,8.10986328125,40.873779296875Z" fill="url(#master_svg4_488_26297)" fill-opacity="1"/></g><g><path d="M8.022913932800293,7.7643938064575195C8.022913932800293,7.7643938064575195,62.29851393280029,7.7643938064575195,62.29851393280029,7.7643938064575195C62.29851393280029,7.7643938064575195,58.76171393280029,40.64839380645752,58.76171393280029,40.64839380645752Q58.76171393280029,40.64839380645752,58.76171393280029,40.64839380645752L34.928813932800296,48.45429380645752Q11.559483932800294,40.64839380645752,11.559483932800294,40.64839380645752C11.559483932800294,40.64839380645752,8.022913932800293,7.7643938064575195,8.022913932800293,7.7643938064575195C8.022913932800293,7.7643938064575195,8.022913932800293,7.7643938064575195,8.022913932800293,7.7643938064575195Z" fill="url(#master_svg5_488_26438)" fill-opacity="1"/></g></g><g><g><path d="M28.76037359375,4.88232421875L26.05963359375,4.88232421875L26.05963359375,4.93364521875C25.94601359375,4.97650171875,25.84098359375,5.04627621875,25.75248359375,5.1396282187499995L25.73606359375,5.15762521875C25.41059359375,5.54225721875,25.40049359375,6.13528421875,25.71251359375,6.53317421875C25.85943359375,6.69855421875,25.97536359375,6.88613421875,26.05963359375,7.08658421875L26.05963359375,7.11267421875L26.07039359375,7.11267421875C26.32374359375,7.7389442187499995,26.27113359375,8.48544421875,25.89260359375,9.07124421875L25.86187359375,9.12767421875C25.54109359375,9.59420421875,25.30628359375,10.12534421875,25.17066359375,10.691284218749999C25.20341359375,10.68898421875,25.23711359375,10.68113421875,25.27291359375,10.68113421875C25.69864359375,10.70619421875,26.10018359375,10.88570421875,26.41851359375,11.18441421875L26.41851359375,11.54382421875L26.72197359375,11.54382421875C26.72328359375,11.54578421875,26.72458359375,11.54775421875,26.72589359375,11.54972421875C26.72620359375,11.54775421875,26.72652359375,11.54578421875,26.72684359375,11.54382421875L27.48814359375,11.54382421875C27.48945359375,11.54578421875,27.49076359375,11.54775421875,27.49206359375,11.54972421875C27.49238359375,11.54775421875,27.49270359375,11.54578421875,27.49302359375,11.54382421875L28.43712359375,11.54382421875C28.43843359375,11.54578421875,28.43973359375,11.54775421875,28.44103359375,11.54972421875C28.44135359375,11.54775421875,28.44167359375,11.54578421875,28.44199359375,11.54382421875L29.11926359375,11.54382421875L29.11926359375,9.98841421875C29.91292359375,8.51024421875,29.775623593749998,6.62787421875,28.76037359375,5.30651021875L28.76037359375,4.88232421875ZM34.60673359375,4.88232421875L31.90593359375,4.88232421875L31.90593359375,5.1883462187500005C31.55973359375,5.56357621875,31.55753359375,6.11679421875,31.90593359375,6.49467421875L31.90593359375,7.11267421875L32.34973359375,7.11267421875C32.62263359375,7.71838421875,32.55273359375,8.42958421875,32.11873359375,8.99069421875L31.469033593749998,9.976294218749999C31.15763359375,10.57794421875,31.01723359375,11.24238421875,31.06073359375,11.907544218750001C31.08993359375,13.41448421875,31.732733593749998,14.85642421875,32.86213359375,15.94812421875C32.88973359375,15.97752421875,32.91923359375,16.005124218749998,32.95033359375,16.03062421875L32.95033359375,16.209224218750002L31.27693359375,16.209224218750002L31.27693359375,16.57692421875C31.27393359375,16.580024218749998,31.270833593749998,16.58312421875,31.267833593749998,16.58622421875C31.252633593749998,16.45862421875,31.21053359375,16.352224218750003,31.13643359375,16.27272421875C31.13643359375,16.18412421875,30.91143359375,16.09082421875,30.29976359375,16.80932421875C30.75261359375,15.70912421875,31.00033359375,14.78552421875,31.10713359375,14.76821421875C29.481793593749998,13.34379421875,27.58822359375,12.245374218750001,25.53313359375,11.53493421875C25.14155359375,11.41878421875,24.77709359375,11.33044421875,24.46219359375,11.26854421875L24.46219359375,11.16162421875L23.70237359375,11.16162421875C23.611113593749998,11.15626421875,23.53522359375,11.156314218750001,23.47694359375,11.16162421875L22.75340359375,11.16162421875C22.66214359375,11.15626421875,22.58625359375,11.15630421875,22.527963593750002,11.16162421875L21.98723359375,11.16162421875C21.75005859375,11.14769421875,21.61669459375,11.170264218749999,21.62641459375,11.22692421875C20.73458359375,13.85402421875,20.61533759375,16.67472421875,21.28246359375,19.36532421875C21.58866159375,20.30732421875,22.09699359375,21.17372421875,22.77252359375,21.90582421875L22.77252359375,22.01342421875L25.42276359375,22.01342421875L25.42276359375,21.73612421875C26.04997359375,21.50212421875,26.64846359375,21.20032421875,27.20719359375,20.83652421875C27.24105359375,20.863124218750002,27.27500359375,20.88962421875,27.30905359375,20.91602421875C26.83809359375,21.37052421875,26.31425359375,21.76912421875,25.74837359375,22.10372421875C25.43929359375,22.29572421875,25.13809359375,22.45202421875,24.88304359375,22.58442421875C24.32727359375,22.87282421875,23.99071359375,23.04752421875,24.26945359375,23.22992421875C24.47173359375,23.27832421875,24.67644359375,23.31002421875,24.88153359375,23.32512421875L24.88153359375,23.33622421875L27.60104359375,23.33622421875L27.60104359375,23.26762421875C27.99893359375,23.19182421875,28.38522359375,23.05322421875,28.74410359375,22.85382421875C29.03250359375,22.71002421875,29.30279359375,22.53552421875,29.55036359375,22.33402421875C29.594503593749998,22.35582421875,29.63878359375,22.37732421875,29.683193593749998,22.39852421875C29.333823593749997,22.77832421875,28.98774359375,23.09702421875,28.69822359375,23.36362421875C28.62867359375,23.42762421875,28.562393593750002,23.48872421875,28.50011359375,23.54692421875L28.19299359375,23.54692421875L28.19299359375,23.84862421875C27.92668359375,24.13452421875,27.855193593750002,24.32522421875,28.13817359375,24.44742421875C28.156433593750002,24.45112421875,28.17470359375,24.45462421875,28.19299359375,24.45782421875L28.19299359375,24.49482421875L30.82122359375,24.49482421875L30.82122359375,24.44292421875C31.16793359375,24.36962421875,31.49673359375,24.21962421875,31.78093359375,24.00022421875L31.78093359375,24.88112421875L34.40913359375,24.88112421875L34.40913359375,24.80702421875C34.87293359375,24.61382421875,35.22143359375,24.07122421875,35.45803359375,23.52582421875C35.94143359375,23.79842421875,36.46643359375,23.98252421875,37.00783359375,24.07382421875L37.00783359375,24.13692421875L37.62073359375,24.13692421875C37.74343359375,24.14172421875,37.86653359375,24.14172421875,37.98973359375,24.13692421875L38.38693359375,24.13692421875C38.509633593749996,24.14172421875,38.632733593750004,24.14172421875,38.75583359375,24.13692421875L39.33593359375,24.13692421875C39.726933593750005,24.15202421875,40.12153359375,24.11932421875,40.51053359375,24.03722421875C41.20513359375,23.85902421875,41.316133593749996,23.72162421875,41.39563359375,23.55332421875C41.384633593749996,23.53342421875,41.09753359375,23.45962421875,40.70323359375,23.35832421875C40.36853359375,23.27242421875,39.95663359375,23.16662421875,39.57103359375,23.05702421875L39.57103359375,23.05612421875L39.567833593749995,23.05612421875C38.879033593749995,22.86042421875,38.27483359375,22.65282421875,38.34493359375,22.52502421875C38.99743359375,21.89662421875,39.596933593749995,21.21732421875,40.13743359375,20.49372421875C40.511333593749995,19.976424218749997,40.84263359375,19.43072421875,41.128033593750004,18.861624218750002C41.21973359375,18.68592421875,41.29333359375,18.50172421875,41.34773359375,18.311624218749998L41.49373359375,18.08962421875L38.67423359375,18.08962421875L37.842933593750004,19.35342421875L38.16023359375,19.35342421875C37.66723359375,19.83142421875,37.12743359375,20.36742421875,36.66323359375,20.82012421875C36.76293359375,20.52812421875,36.78273359375,20.29482421875,36.64163359375,20.201824218749998L36.64163359375,20.13962421875L34.75733359375,20.13962421875L34.75733359375,20.15462421875C34.71813359375,20.14792421875,34.541733593749996,20.17872421875,34.25683359375,20.44072421875C34.35683359375,20.26532421875,34.45003359375,20.09082421875,34.52973359375,19.92322421875L34.79993359375,19.92322421875L34.79993359375,18.65942421875L34.56013359375,18.65942421875C34.53963359375,18.65242421875,34.50563359375,18.64982421875,34.45773359375,18.65942421875L33.61123359375,18.65942421875C33.59063359375,18.65242421875,33.55663359375,18.64982421875,33.50873359375,18.65942421875L32.91563359375,18.65942421875L32.91563359375,18.70222421875C32.90103359375,18.69332421875,32.88533359375,18.68522421875,32.86853359375,18.67792421875C32.85883359375,18.63212421875,32.53423359375,18.56002421875,31.833333593749998,19.38962421875C32.22853359375,18.76332421875,32.61393359375,18.06422421875,32.82473359375,17.47302421875L33.16123359375,17.47302421875L33.16123359375,16.25282421875L33.52343359375,16.25282421875C33.53293359375,16.25342421875,33.54253359375,16.25392421875,33.55203359375,16.25422421875C33.586933593750004,16.25552421875,33.62163359375,16.255024218750002,33.656033593749996,16.25282421875L34.28963359375,16.25282421875C34.29913359375,16.25342421875,34.30863359375,16.25392421875,34.31823359375,16.25422421875C34.35303359375,16.25552421875,34.38783359375,16.255024218750002,34.42223359375,16.25282421875L35.23863359375,16.25282421875C35.24813359375,16.25342421875,35.25763359375,16.25392421875,35.26723359375,16.25422421875C35.30203359375,16.25552421875,35.33673359375,16.255024218750002,35.37123359375,16.25282421875L35.60203359375,16.25282421875L35.60203359375,16.21162421875C35.74333359375,16.16932421875,35.87353359375,16.09712421875,35.98123359375,15.99892421875L35.99923359375,15.98562421875C36.38423359375,15.60672421875,36.39823359375,15.02192421875,36.03173359375,14.62773421875C35.87513359375,14.48102421875,35.731633593750004,14.32456421875,35.60203359375,14.15988421875L35.60203359375,14.02246421875L35.498333593750004,14.02246421875C35.05083359375,13.40237421875,34.79193359375,12.67755421875,34.75743359375,11.924154218750001C34.76413359375,11.30604421875,34.98273359375,10.70550421875,35.38193359375,10.20829421875L35.74943359375,9.729894218750001L35.88393359375,9.42826421875C36.535333593749996,7.98804421875,36.22123359375,6.33105421875,35.078133593749996,5.17892421875C34.95073359375,5.05015821875,34.78663359375,4.95917391875,34.60673359375,4.91481471875L34.60673359375,4.88232421875ZM32.11613359375,23.80032421875C32.15613359375,23.73102421875,32.19913359375,23.65872421875,32.24453359375,23.58332421875C32.17283359375,23.65872421875,32.097833593749996,23.73112421875,32.01963359375,23.80032421875L32.11613359375,23.80032421875ZM40.97593359375,4.88232421875L38.27523359375,4.88232421875L38.27523359375,5.57421721875C38.255333593749995,5.6498012187499995,38.24413359375,5.72810621875,38.24203359375,5.80761321875C38.238233593749996,5.9098342187499995,38.249633593750005,6.01112421875,38.27523359375,6.1081942187500005L38.27523359375,7.11267421875L38.87173359375,7.11267421875C39.116633593749995,7.71727421875,39.05603359375,8.42845421875,38.670133593749995,8.99006421875L38.653033593749996,9.02213421875C38.04853359375,9.85596421875,37.72113359375,10.86914421875,37.719633593750004,11.91070421875C37.73913359375,13.26404421875,38.20273359375,14.56572421875,39.02723359375,15.60642421875L39.02723359375,16.25282421875L39.909733593750005,16.25282421875C39.92063359375,16.253624218749998,39.93143359375,16.25412421875,39.94233359375,16.25452421875C39.97103359375,16.25542421875,39.999633593750005,16.254824218750002,40.02793359375,16.25282421875L40.67593359375,16.25282421875C40.68673359375,16.253624218749998,40.69763359375,16.25412421875,40.708533593750005,16.25452421875C40.73723359375,16.25542421875,40.76573359375,16.254824218750002,40.794133593750004,16.25282421875L41.62493359375,16.25282421875C41.635733593750004,16.253624218749998,41.646633593749996,16.25412421875,41.65753359375,16.25452421875C41.894733593750004,16.26212421875,42.124333593749995,16.16772421875,42.29153359375,15.99382421875C42.296433593749995,15.98802421875,42.30273359375,15.98392421875,42.309733593749996,15.98172421875C42.649433593750004,15.60372421875,42.66053359375,15.02272421875,42.33543359375,14.63123421875C41.64353359375,13.90619421875,41.23953359375,12.93996421875,41.20303359375,11.92281421875L41.485633593749995,10.67194421875L41.63653359375,10.390174218750001L41.78423359375,10.180154218750001C42.84193359375,8.64970421875,42.71733359375,6.56362421875,41.485633593749995,5.17887621875C41.351233593749996,5.02634421875,41.17113359375,4.92685831875,40.97593359375,4.89505991875L40.97593359375,4.88232421875ZM24.548983593750002,15.27372421875C24.60421359375,15.02682421875,24.69305359375,14.80279421875,24.80600359375,14.61519421875C24.80755359375,14.61815421875,24.80910359375,14.62112421875,24.81063359375,14.62409421875C24.90008359375,14.77430421875,24.97432359375,14.93202421875,25.03269359375,15.09492421875C25.01084359375,15.08892421875,24.98847359375,15.08392421875,24.96568359375,15.08032421875C24.80811359375,15.06602421875,24.66199359375,15.14372421875,24.55376359375,15.27942421875C24.55218359375,15.27752421875,24.550583593749998,15.27562421875,24.548983593750002,15.27372421875ZM24.79252359375,16.90732421875C24.825823593750002,16.95882421875,24.86270359375,17.00742421875,24.90273359375,17.05302421875C24.98781359375,16.93452421875,25.05650359375,16.79422421875,25.10549359375,16.63592421875C25.05714359375,16.64662421875,25.00622359375,16.649724218750002,24.95348359375,16.64452421875C24.81811359375,16.62542421875,24.69545359375,16.564824218749997,24.60446359375,16.474424218750002C24.599853593749998,16.47972421875,24.59516359375,16.484924218750002,24.59039359375,16.489924218749998C24.64064359375,16.63542421875,24.70827359375,16.77562421875,24.79252359375,16.90732421875Z" fill-rule="evenodd" fill="url(#master_svg6_488_27095)" fill-opacity="1"/></g><g><path d="M42.60647000350952,16.254433212438226C42.84377000350952,16.262133212438226,43.07327000350952,16.167733212438225,43.24047000350952,15.993833212438226C43.24537000350952,15.988033212438225,43.25177000350952,15.983933212438226,43.25867000350952,15.981733212438225C43.59847000350952,15.603733212438225,43.60957000350952,15.022733212438226,43.284470003509526,14.631233212438225C42.59247000350952,13.906193212438225,42.188570003509525,12.939963212438226,42.15207000350952,11.922813212438225L42.43457000350952,10.671953212438225L42.58547000350952,10.390173212438226L42.73327000350952,10.180153212438226C43.79097000350952,8.649713212438225,43.666270003509524,6.563623212438226,42.43457000350952,5.178876212438226C42.27607000350952,4.998957212438226,42.05397000350952,4.892843282438226,41.81857000350952,4.884562867438226C41.583270003509526,4.876234592438226,41.35447000350952,4.966409712438225,41.18437000350952,5.134650212438226C41.01227000350952,5.314330212438226,40.91277000350952,5.554893212438226,40.90617000350952,5.807613212438226C40.896770003509516,6.061003212438226,40.98087000350952,6.308693212438226,41.14157000350952,6.500443212438226C41.78117000350952,7.172733212438226,41.86247000350952,8.221473212438227,41.334270003509516,8.990063212438226L41.31717000350952,9.022133212438225C40.71267000350952,9.855973212438226,40.38527000350952,10.869143212438225,40.38387000350952,11.910703212438225C40.40547000350952,13.419323212438226,40.97907000350952,14.863753212438226,41.98927000350952,15.954033212438226C42.145770003509526,16.138133212438227,42.369370003509516,16.247033212438225,42.60647000350952,16.254433212438226ZM29.390030003509523,11.549723212438225C29.452980003509523,11.159393212438225,29.58428000350952,10.786393212438226,29.77653000350952,10.451253212438225L29.89310000350952,10.284543212438226C30.904940003509523,8.725523212438226,30.78809000350952,6.5989432124382255,29.612910003509523,5.185864212438226C29.46140000350952,5.001924212438226,29.24885000350952,4.893274052438226,29.02362000350952,4.884610731438226C28.79830000350952,4.875899542438225,28.579480003509524,4.967845612438226,28.41662000350952,5.139628212438225L28.40020000350952,5.157625212438226C28.074730003509522,5.5422572124382254,28.06463000350952,6.1352832124382255,28.37665000350952,6.533183212438225C28.98648000350952,7.219593212438226,29.062350003509522,8.288773212438226,28.55674000350952,9.071243212438226L28.526010003509523,9.127673212438225C28.20523000350952,9.594203212438225,27.97042000350952,10.125343212438226,27.83480000350952,10.691283212438226C27.86755000350952,10.688993212438227,27.90125000350952,10.681143212438226,27.937050003509523,10.681143212438226C28.51529000350952,10.715173212438227,29.048900003509523,11.034133212438226,29.390030003509523,11.549723212438225ZM36.21617000350952,16.254233212438226C36.48237000350952,16.263833212438225,36.740970003509524,16.171433212438224,36.930170003509524,15.998933212438226L36.94827000350952,15.985533212438225C37.333270003509526,15.606733212438225,37.34717000350952,15.021933212438226,36.98067000350952,14.627733212438226C36.20687000350952,13.902653212438226,35.75287000350952,12.939343212438226,35.70647000350952,11.924153212438226C35.71317000350952,11.306043212438226,35.93177000350952,10.705503212438225,36.33097000350952,10.208293212438225L36.698370003509524,9.729893212438226L36.83297000350952,9.428263212438225C37.484370003509525,7.988043212438226,37.170170003509526,6.331053212438226,36.027170003509525,5.1789242124382255C35.849270003509524,4.999244212438226,35.60007000350952,4.893130462438226,35.33617000350952,4.884610731438226C35.07207000350952,4.876043132438226,34.81547000350952,4.965883212438226,34.624370003509526,5.133597212438226L34.60157000350952,5.155662212438226C34.22217000350952,5.533020212438226,34.211270003509526,6.1123632124382254,34.576370003509524,6.501443212438225C35.289170003509525,7.176563212438226,35.376070003509525,8.223823212438226,34.78287000350952,8.990693212438226L34.13317000350952,9.976303212438225C33.82177000350952,10.577943212438225,33.68137000350952,11.242393212438227,33.72487000350952,11.907553212438227C33.754070003509526,13.414483212438226,34.39687000350952,14.856423212438226,35.526270003509524,15.948133212438226C35.70017000350952,16.133633212438227,35.95017000350952,16.244533212438228,36.21617000350952,16.254233212438226ZM41.08647000350952,20.493733212438226C40.54587000350952,21.217333212438227,39.94637000350952,21.896633212438225,39.293870003509525,22.525033212438224C39.18437000350952,22.724533212438224,40.71867000350952,23.118533212438226,41.65227000350952,23.358333212438225C42.046470003509526,23.459633212438227,42.333670003509525,23.533433212438226,42.34457000350952,23.553333212438226C42.26507000350952,23.721633212438224,42.15417000350952,23.859033212438227,41.459570003509526,24.037233212438224C40.25637000350952,24.291033212438226,38.99967000350952,24.072833212438226,37.958270003509526,23.429033212438227C37.45387000350952,23.465633212438227,36.94747000350952,23.470033212438224,36.442370003509524,23.442233212438225C36.12417000350952,24.212033212438225,35.58307000350952,25.011633212438227,34.808870003509526,24.863133212438225C34.17577000350952,24.782733212438227,34.51247000350952,24.231333212438226,35.06937000350952,23.318933212438225L35.090070003509524,23.284933212438226C34.61377000350952,23.198433212438225,34.14397000350952,23.080133212438227,33.68397000350952,22.930933212438227C33.46856000350952,23.299333212438224,33.18732000350952,23.626833212438225,32.85381000350952,23.897533212438226C32.298170003509526,24.391033212438227,31.53636000350952,24.595333212438227,30.802310003509522,24.447433212438227C30.382430003509523,24.266033212438227,30.742960003509523,23.934033212438226,31.362360003509522,23.363633212438227C31.65189000350952,23.097033212438227,31.99796000350952,22.778333212438227,32.34733000350952,22.398533212438227C31.923540003509522,22.195933212438227,31.512040003509522,21.969333212438226,31.114900003509522,21.719933212438225C30.728440003509522,22.192833212438227,30.243750003509522,22.579333212438225,29.69310000350952,22.853733212438225C28.85555000350952,23.319133212438224,27.86869000350952,23.453733212438227,26.933590003509522,23.229933212438226C26.65484000350952,23.047533212438225,26.99142000350952,22.872833212438227,27.54718000350952,22.584433212438224C27.80223000350952,22.452033212438227,28.103430003509523,22.295733212438225,28.41251000350952,22.103733212438225C28.97839000350952,21.769133212438227,29.50223000350952,21.370533212438225,29.973190003509522,20.916033212438226C29.662550003509523,20.675533212438225,29.36006000350952,20.423233212438227,29.06575000350952,20.159433212438223C28.04251000350952,21.026333212438225,26.83416000350952,21.656933212438226,25.529780003509522,22.004833212438225C24.807750003509522,21.252233212438227,24.26671200350952,20.350133212438227,23.94660000350952,19.365333212438223C23.27947400350952,16.674733212438227,23.39872000350952,13.854023212438225,24.29055100350952,11.226923212438226C24.264892003509523,11.077353212438226,25.236240003509522,11.165373212438226,26.48212000350952,11.534933212438226C28.53721000350952,12.245373212438226,30.430780003509522,13.343793212438225,32.05614000350952,14.768213212438226C31.87236000350952,14.797983212438226,31.27187000350952,17.508933212438226,29.92742000350952,19.188233212438227L29.958730003509523,19.212433212438228C29.961360003509522,19.196933212438225,30.03553000350952,19.261933212438226,30.170260003509522,19.379833212438225C30.32264000350952,19.513233212438227,30.55247000350952,19.714433212438223,30.843860003509523,19.943833212438225C31.060380003509522,19.670033212438227,31.26191000350952,19.385133212438227,31.447750003509523,19.090333212438225C33.23256000350952,15.979133212438226,33.80057000350952,16.132033212438223,33.80057000350952,16.272733212438226C34.43807000350952,16.956733212438223,32.70479000350952,19.626033212438227,31.88581000350952,20.677333212438228C32.298790003509524,20.935833212438226,32.73499000350952,21.156633212438226,33.18880000350952,21.337233212438225C33.30087000350952,21.173433212438226,33.40279000350952,21.007433212438226,33.50255000350952,20.825933212438226C34.89737000350952,18.499833212438226,35.51927000350952,18.614233212438226,35.53267000350952,18.677933212438226C36.22467000350952,18.976133212438228,35.048570003509525,20.742533212438225,34.39467000350952,21.724633212438224L34.38097000350952,21.745333212438226C34.85437000350952,21.871733212438226,35.337970003509525,21.958833212438226,35.82627000350952,22.005833212438226L35.876670003509524,21.910233212438225C36.81787000350952,20.166033212438226,37.41727000350952,20.131933212438227,37.429570003509525,20.158333212438226C38.04007000350952,20.175833212438228,37.45087000350952,21.258133212438224,37.01277000350952,22.049933212438226C37.409870003509525,22.085333212438226,37.80937000350952,22.017533212438227,38.17127000350952,21.853033212438227C38.40767000350952,21.842033212438224,41.65457000350952,18.406333212438227,42.24277000350952,18.092833212438226C42.275870003509525,18.087333212438224,42.30787000350952,18.108133212438226,42.315670003509524,18.140233212438226C42.31857000350952,18.162133212438228,42.31857000350952,18.184233212438226,42.315670003509524,18.206133212438225C42.313170003509526,18.236533212438225,42.30827000350952,18.266633212438226,42.30107000350952,18.296333212438228C42.24627000350952,18.491833212438223,42.171170003509516,18.681233212438226,42.07697000350952,18.861633212438228C41.79157000350952,19.430733212438227,41.460370003509524,19.976433212438224,41.08647000350952,20.493733212438226ZM25.74151000350952,16.907333212438225C25.941080003509523,17.215933212438223,26.268900003509522,17.422733212438224,26.637890003509522,17.472633212438225C27.36500000350952,17.562733212438225,27.901580003509522,16.894133212438227,27.85237000350952,15.907633212438226C27.837000003509523,15.455633212438226,27.70727000350952,15.014533212438225,27.474770003509523,14.624093212438225C27.316080003509523,14.315183212438226,27.01846000350952,14.097643212438225,26.67145000350952,14.036863212438226C26.052960003509522,13.970853212438225,25.49512000350952,14.734133212438225,25.439020003509523,15.697533212438225C25.404600003509522,16.122233212438225,25.51068000350952,16.546533212438227,25.74151000350952,16.907333212438225ZM26.42582000350952,16.379633212438225C26.51668000350952,16.522033212438224,26.67303000350952,16.619433212438224,26.85144000350952,16.644533212438226C27.19065000350952,16.677933212438226,27.454420003509522,16.365433212438226,27.44226000350952,15.926633212438226C27.44121000350952,15.724033212438226,27.380750003509522,15.525333212438225,27.26706000350952,15.351333212438226C27.186390003509523,15.208433212438226,27.037180003509523,15.108233212438225,26.86365000350952,15.080333212438227C26.550050003509522,15.051933212438225,26.28178000350952,15.387633212438226,26.26732000350952,15.820533212438226C26.25732000350952,16.017133212438225,26.312610003509523,16.212133212438225,26.42582000350952,16.379633212438225Z" fill-rule="evenodd" fill="#FFFFFF" fill-opacity="1"/></g></g></g></svg>