<svg xmlns="http://www.w3.org/2000/svg" xmlns:xlink="http://www.w3.org/1999/xlink" fill="none" version="1.1" width="68.9765625" height="86.648193359375" viewBox="0 0 68.9765625 86.648193359375"><defs><linearGradient x1="0.6554771065711975" y1="0.3239276707172394" x2="0.34232442418526765" y2="0.6324494641022644" id="master_svg0_488_25966"><stop offset="0%" stop-color="#10B390" stop-opacity="0"/><stop offset="100%" stop-color="#10B390" stop-opacity="1"/></linearGradient><linearGradient x1="0.5" y1="-3.0616171314629196e-17" x2="0.5" y2="1" id="master_svg1_488_26065"><stop offset="6.428571790456772%" stop-color="#00893D" stop-opacity="1"/><stop offset="100%" stop-color="#00B688" stop-opacity="1"/></linearGradient><linearGradient x1="0.5" y1="-3.0616171314629196e-17" x2="0.5" y2="1" id="master_svg2_488_26065"><stop offset="6.428571790456772%" stop-color="#00893D" stop-opacity="1"/><stop offset="100%" stop-color="#00B688" stop-opacity="1"/></linearGradient><filter id="master_svg3_488_26521/488_26448" filterUnits="objectBoundingBox" color-interpolation-filters="sRGB" x="0" y="0" width="1" height="1"><feFlood flood-opacity="0" result="BackgroundImageFix"/><feBlend mode="normal" in="SourceGraphic" in2="BackgroundImageFix" result="shape"/><feColorMatrix in="SourceAlpha" type="matrix" result="hardAlpha" values="0 0 0 0 0 0 0 0 0 0 0 0 0 0 0 0 0 0 127 0"/><feOffset dy="0" dx="0"/><feGaussianBlur stdDeviation="2"/><feComposite in2="hardAlpha" operator="arithmetic" k2="-1" k3="1"/><feColorMatrix type="matrix" values="0 0 0 0 0.14166665077209473 0 0 0 0 1 0 0 0 0 0.8454999327659607 0 0 0 0.25 0"/><feBlend mode="normal" in2="shape" result="effect1_innerShadow"/></filter><linearGradient x1="0.34486788511276245" y1="0.6324214935302734" x2="0.6242276291319807" y2="0.37224619138933357" id="master_svg4_488_26297"><stop offset="0%" stop-color="#3FFFBC" stop-opacity="1"/><stop offset="100%" stop-color="#009059" stop-opacity="1"/></linearGradient><linearGradient x1="0.5" y1="1.7794183552848064e-14" x2="0.5" y2="0.9999998807907104" id="master_svg5_488_26438"><stop offset="11.822248250246048%" stop-color="#00C788" stop-opacity="0"/><stop offset="79.67939376831055%" stop-color="#00C164" stop-opacity="0.30000001192092896"/><stop offset="100%" stop-color="#3CFFC1" stop-opacity="0.4000000059604645"/></linearGradient><linearGradient x1="0" y1="0.5505809783935547" x2="0.1622622534682778" y2="0.04497805200596163" id="master_svg6_488_27095"><stop offset="0%" stop-color="#C0EACF" stop-opacity="1"/><stop offset="100%" stop-color="#00B241" stop-opacity="0.949999988079071"/></linearGradient></defs><g><g><g transform="matrix(0.6228137016296387,-0.7823701500892639,0.622813880443573,0.7823700308799744,-27.1838382482581,9.498853613087022)"><path d="M19.2755,78.87170862426757L0.938388,45.36165862426758L0,43.64680862426758L34.2748,63.87200862426758L54.7295,96.90080862426757L55.7878,98.60970862426757L54.0196,97.65380862426758L19.2755,78.87170862426757ZM20.0109,78.13250862426759L2.62194,46.35510862426758L33.5544,64.60800862426758L52.9613,95.94500862426759L20.0109,78.13250862426759Z" fill-rule="evenodd" fill="url(#master_svg0_488_25966)" fill-opacity="1"/></g><g><path d="M33.40576171875,49.30995749511719C33.40576171875,49.30995749511719,60.49996171875,40.40580749511719,60.49996171875,40.40580749511719C60.49996171875,40.40580749511719,60.49996171875,41.90580749511719,60.49996171875,41.90580749511719C60.49996171875,41.90580749511719,33.40576171875,51.938507495117186,33.40576171875,51.938507495117186C33.40576171875,51.938507495117186,33.40576171875,49.30995749511719,33.40576171875,49.30995749511719C33.40576171875,49.30995749511719,33.40576171875,49.30995749511719,33.40576171875,49.30995749511719Z" fill="url(#master_svg1_488_26065)" fill-opacity="1"/></g><g transform="matrix(-1,0,0,1,66.8115234375,0)"><path d="M33.40576171875,49.17351171875C33.40576171875,49.17351171875,58.81156171875,40.90576171875,58.81156171875,40.90576171875C58.81156171875,40.90576171875,58.81156171875,42.90576171875,58.81156171875,42.90576171875C58.81156171875,42.90576171875,33.40576171875,51.76056171875,33.40576171875,51.76056171875C33.40576171875,51.76056171875,33.40576171875,49.17351171875,33.40576171875,49.17351171875Z" fill="url(#master_svg2_488_26065)" fill-opacity="1"/></g><g transform="matrix(0.6228134632110596,-0.7823703289031982,0.6228137016296387,0.7823701500892639,-22.39781853859313,15.240270856374991)" filter="url(#master_svg3_488_26521/488_26448)"><path d="M8.10986328125,40.873779296875C8.10986328125,40.873779296875,34.11806328125,56.220479296875,34.11806328125,56.220479296875C34.11806328125,56.220479296875,50.44246328125,82.579179296875,50.44246328125,82.579179296875C50.44246328125,82.579179296875,22.73636328125,67.602179296875,22.73636328125,67.602179296875C22.73636328125,67.602179296875,8.10986328125,40.873779296875,8.10986328125,40.873779296875C8.10986328125,40.873779296875,8.10986328125,40.873779296875,8.10986328125,40.873779296875Z" fill="url(#master_svg4_488_26297)" fill-opacity="1"/></g><g><path d="M8.022913932800293,7.7643938064575195C8.022913932800293,7.7643938064575195,62.29851393280029,7.7643938064575195,62.29851393280029,7.7643938064575195C62.29851393280029,7.7643938064575195,58.76171393280029,40.64839380645752,58.76171393280029,40.64839380645752Q58.76171393280029,40.64839380645752,58.76171393280029,40.64839380645752L34.928813932800296,48.45429380645752Q11.559483932800294,40.64839380645752,11.559483932800294,40.64839380645752C11.559483932800294,40.64839380645752,8.022913932800293,7.7643938064575195,8.022913932800293,7.7643938064575195C8.022913932800293,7.7643938064575195,8.022913932800293,7.7643938064575195,8.022913932800293,7.7643938064575195Z" fill="url(#master_svg5_488_26438)" fill-opacity="1"/></g></g><g><g><path d="M31.73116,24.90576171875L31.731180000000002,24.90566171875L31.7312,24.90556171875L31.7312,24.90576171875L34.8489,24.90576171875L34.8489,23.22456171875L33.5225,23.22456171875C36.0774,20.73736171875,40.4624,16.03436171875,40.4624,12.90411171875C40.4624,9.60738171875,38.2851,6.77649171875,35.1759,5.55234271875L35.1759,4.91357421875L32.32898,4.91357421875L32.32898,4.92421441875C32.13144,4.91197880875,31.93211,4.90576171875,31.731180000000002,4.90576171875C26.90908,4.90576171875,23,8.48674171875,23,12.90411171875C23,17.31676171875,31.71383,24.92546171875,31.73116,24.90576171875ZM35.0065,12.90411171875C35.0065,14.56103171875,33.5399,15.90406171875,31.731180000000002,15.90346171875C29.92334,15.90296171875,28.45812,14.56022171875,28.45812,12.90411171875C28.45812,11.24800171875,29.92334,9.90530171875,31.731180000000002,9.90473171875C33.5399,9.90416171875,35.0065,11.247191718749999,35.0065,12.90411171875Z" fill-rule="evenodd" fill="url(#master_svg6_488_27095)" fill-opacity="1"/></g><g><path d="M34.838357734375,24.90566171875C34.838357734375,24.94066171875,26.107177734375,17.321161718749998,26.107177734375,12.90411171875C26.107177734375,8.48674171875,30.016257734375,4.90576171875,34.838357734375,4.90576171875C39.660477734375,4.90576171875,43.569577734375,8.48674171875,43.569577734375,12.90411171875C43.569577734375,17.321161718749998,34.838357734375,24.86966171875,34.838357734375,24.90566171875ZM34.838357734375,15.90346171875C36.647077734375,15.90406171875,38.113677734375,14.56103171875,38.113677734375,12.90411171875C38.113677734375,11.247191718749999,36.647077734375,9.90416171875,34.838357734375,9.90473171875C33.030517734374996,9.90530171875,31.565297734375,11.24800171875,31.565297734375,12.90411171875C31.565297734375,14.56022171875,33.030517734374996,15.90296171875,34.838357734375,15.90346171875Z" fill="#FFFFFF" fill-opacity="1"/></g></g></g></svg>