<svg data-v-5777743c="" xmlns="http://www.w3.org/2000/svg" width="1em" height="1em" viewBox="0 0 16 16" class="" style="font-size: 16px; transform: rotate(0deg);"><defs><clipPath id="mg-icon210a"><rect width="17" height="17" x="-.5" y="-.5" rx="0"></rect></clipPath></defs><g clip-path="url(#mg-icon210a)"><path fill="#ffffff" fill-opacity=".85" fill-rule="evenodd" d="M9.799 4.625q-.061.126-.14.242-.077.116-.171.22-.094.104-.2.195-.108.09-.227.164-.118.074-.246.131-.128.057-.263.096t-.273.058q-.139.02-.279.02t-.279-.02q-.138-.02-.273-.058-.135-.039-.263-.096t-.246-.131q-.119-.074-.226-.164-.107-.09-.201-.195-.094-.104-.172-.22-.078-.116-.139-.242-.15.065-.294.14-.144.076-.283.163-.138.086-.27.182t-.257.2q-.125.106-.241.22-.117.114-.225.236-.108.122-.207.252-.1.13-.189.266-.089.137-.168.28-.08.142-.148.29-.069.148-.127.3-.058.153-.104.309-.047.156-.082.316-.035.159-.059.32-.023.162-.035.324-.012.163-.012.326 0 .251.028.5.097.002.194.013.097.01.192.03.095.02.188.05.093.03.183.068.09.038.175.084.085.047.166.102.08.055.155.117.075.063.143.132.068.07.13.145.061.076.115.157.053.081.099.167.045.086.082.176.037.09.065.184.028.093.047.188.02.096.029.193.009.097.009.194 0 .273-.073.536t-.214.497q.295.233.626.414.33.181.686.305.356.123.727.186.371.062.748.062t.748-.062q.371-.063.727-.186.356-.124.686-.305.33-.18.626-.414-.14-.234-.214-.497-.073-.263-.073-.536 0-.097.01-.194.009-.097.028-.193.019-.095.047-.188.028-.094.065-.184.037-.09.082-.176.046-.086.1-.167.053-.081.114-.157.062-.076.13-.145.068-.07.143-.132.075-.062.155-.117.08-.055.166-.102.086-.046.175-.084.09-.039.183-.068.093-.03.188-.05.095-.02.192-.03.097-.011.194-.013.028-.249.028-.5 0-.163-.012-.326-.012-.162-.035-.324-.024-.161-.059-.32-.035-.16-.082-.316-.046-.156-.104-.309-.058-.152-.127-.3-.068-.148-.148-.29-.079-.143-.168-.28-.09-.136-.189-.266t-.207-.252q-.108-.122-.225-.236-.116-.114-.241-.22-.125-.104-.257-.2-.132-.096-.27-.182-.139-.087-.283-.162-.144-.076-.294-.141m3.651 4.864q.119.064.227.143.11.08.207.173.097.093.18.198.085.106.154.222.069.115.121.239.053.124.09.254.035.13.053.263.018.134.018.268 0 .098-.01.196t-.028.194q-.02.097-.048.19-.029.095-.066.186-.038.09-.084.177-.046.087-.101.168-.055.082-.117.158-.062.076-.132.145-.07.07-.145.132-.076.063-.158.117-.082.055-.168.101-.087.046-.178.084-.09.038-.184.066-.094.029-.19.048-.097.019-.195.029-.098.01-.196.01-.261 0-.513-.068-.253-.067-.48-.196-.367.304-.78.54-.414.236-.863.398-.448.161-.918.243-.47.082-.946.082-.477 0-.946-.082-.47-.082-.918-.243-.449-.162-.863-.398-.413-.236-.78-.54-.227.13-.48.196-.252.067-.513.067-.098 0-.196-.01t-.194-.028q-.097-.02-.19-.048-.095-.028-.185-.066-.091-.038-.178-.084-.086-.046-.168-.1-.082-.055-.158-.118-.076-.062-.145-.132-.07-.07-.132-.145-.062-.076-.117-.158-.055-.081-.1-.168-.047-.087-.085-.177-.037-.091-.066-.185-.028-.094-.048-.19-.019-.097-.028-.195-.01-.098-.01-.196 0-.134.018-.268.018-.133.054-.263.036-.13.089-.254.052-.124.121-.24.07-.115.153-.22.084-.106.181-.2.098-.092.207-.172.108-.079.227-.143-.05-.368-.05-.74 0-.206.015-.412.016-.205.047-.41.03-.203.076-.404t.107-.398q.061-.197.137-.39.075-.191.165-.377.09-.186.193-.364.103-.179.22-.349.116-.17.245-.331t.27-.312q.14-.151.291-.291.152-.14.313-.269.162-.128.332-.244.171-.115.35-.218.179-.103.365-.192.186-.089.378-.164.006-.094.02-.187.016-.093.039-.184.024-.092.056-.18.031-.09.072-.174.04-.086.088-.167.048-.081.103-.157.056-.077.118-.147.063-.071.131-.135.069-.065.144-.123.074-.058.154-.108.08-.05.163-.093.084-.043.172-.078.088-.035.178-.06.09-.027.183-.045.093-.017.187-.026.094-.01.188-.01t.188.01q.094.009.187.026.092.018.183.044.09.026.178.061t.172.078q.084.042.163.093.08.05.154.108.075.058.144.123.068.064.13.135.063.07.119.147.055.076.103.157.048.081.088.167.04.085.072.174.032.088.056.18.023.09.038.184.015.093.021.187.192.075.378.164.186.09.365.192.179.103.35.218.17.116.332.244.161.129.313.269.151.14.292.29.14.152.269.313.129.16.245.331.117.17.22.349.103.178.193.364.09.186.165.378.076.192.137.389.06.197.107.398.045.2.076.405.031.204.047.41.015.205.015.411 0 .372-.05.74M8 2.751q.098 0 .195.019.097.02.188.057.09.038.173.092.081.055.151.125.07.07.124.151.055.082.093.173.038.091.057.188Q9 3.652 9 3.75q0 .098-.02.195-.018.096-.056.187-.038.091-.093.173-.054.082-.124.152-.07.07-.151.124-.082.055-.173.093-.091.037-.188.057-.097.019-.195.019t-.195-.02q-.097-.019-.188-.056-.09-.038-.173-.093-.081-.054-.151-.124-.07-.07-.124-.152-.055-.082-.093-.173-.038-.09-.057-.187Q7 3.849 7 3.75q0-.099.02-.195.018-.097.056-.188.038-.09.093-.173.054-.082.124-.151.07-.07.151-.125.082-.054.173-.092.091-.038.188-.057.097-.02.195-.02m-4.5 7.498q.098 0 .195.02.097.019.188.056.09.038.173.093.081.054.151.124.07.07.124.152.055.082.093.173.038.09.057.187.019.097.019.195 0 .099-.02.195-.018.097-.056.188-.038.09-.093.173-.054.082-.124.151-.07.07-.151.125-.082.054-.173.092-.091.038-.188.057-.097.02-.195.02t-.195-.02q-.097-.02-.188-.057-.09-.038-.173-.092-.081-.055-.151-.125-.07-.07-.124-.151-.055-.082-.093-.173-.038-.091-.057-.188-.019-.096-.019-.195 0-.098.02-.195.018-.096.056-.187.038-.091.093-.173.054-.082.124-.152.07-.07.151-.124.082-.055.173-.093.091-.037.188-.057.097-.019.195-.019m9 0q.098 0 .195.02.097.019.188.056.09.038.173.093.081.054.151.124.07.07.124.152.055.082.093.173.038.09.057.187.019.097.019.195 0 .099-.02.195-.018.097-.056.188-.038.09-.093.173-.054.082-.124.151-.07.07-.151.125-.082.054-.173.092-.091.038-.188.057-.097.02-.195.02t-.195-.02q-.097-.02-.188-.057-.09-.038-.173-.092-.081-.055-.151-.125-.07-.07-.124-.151-.055-.082-.093-.173-.038-.091-.057-.188-.019-.096-.019-.195 0-.098.02-.195.018-.096.056-.187.038-.091.093-.173.054-.082.124-.152.07-.07.151-.124.082-.055.173-.093.091-.037.188-.057.097-.019.195-.019"></path></g></svg>