<svg xmlns="http://www.w3.org/2000/svg" xmlns:xlink="http://www.w3.org/1999/xlink" fill="none" version="1.1" width="20.9354248046875" height="17" viewBox="0 0 20.9354248046875 17"><defs><clipPath id="master_svg0_5_6939/5_5659"><rect x="0" y="0" width="20.9354248046875" height="17" rx="0"/></clipPath><filter id="master_svg1_5_6939/5_5660" filterUnits="objectBoundingBox" color-interpolation-filters="sRGB" x="-0.6666666666666666" y="-0.6666666666666666" width="2.3333333333333335" height="2.3333333333333335"><feFlood flood-opacity="0" result="BackgroundImageFix"/><feColorMatrix in="SourceAlpha" type="matrix" values="0 0 0 0 0 0 0 0 0 0 0 0 0 0 0 0 0 0 127 0"/><feOffset dy="0" dx="0"/><feGaussianBlur stdDeviation="2"/><feColorMatrix type="matrix" values="0 0 0 0 0 0 0 0 0 0 0 0 0 0 0 0 0 0 0.6499999761581421 0"/><feBlend mode="normal" in2="BackgroundImageFix" result="effect1_dropShadow"/><feBlend mode="normal" in="SourceGraphic" in2="effect1_dropShadow" result="shape"/></filter></defs><g clip-path="url(#master_svg0_5_6939/5_5659)"><g><path d="M4,10.4782L4,15Q4,15.0983,4.00963,15.196Q4.01926,15.2938,4.03843,15.3902Q4.0576,15.4865,4.08612,15.5806Q4.11464,15.6746,4.15224,15.7654Q4.18984,15.8561,4.23616,15.9428Q4.28247,16.0294,4.33706,16.1111Q4.39165,16.1928,4.45398,16.2688Q4.51631,16.3447,4.58579,16.4142Q4.65526,16.4837,4.73121,16.546Q4.80716,16.6084,4.88886,16.6629Q4.97055,16.7175,5.05721,16.7638Q5.14386,16.8102,5.23463,16.8478Q5.32541,16.8854,5.41943,16.9139Q5.51345,16.9424,5.60982,16.9616Q5.70618,16.9807,5.80397,16.9904Q5.90175,17,6,17L18.9355,17Q19.0337,17,19.1315,16.9904Q19.2293,16.9807,19.3257,16.9616Q19.422,16.9424,19.5161,16.9139Q19.6101,16.8854,19.7008,16.8478Q19.7916,16.8102,19.8783,16.7638Q19.9649,16.7175,20.0466,16.6629Q20.1283,16.6084,20.2043,16.546Q20.2802,16.4837,20.3497,16.4142Q20.4192,16.3447,20.4815,16.2688Q20.5438,16.1928,20.5984,16.1111Q20.653,16.0294,20.6993,15.9428Q20.7456,15.8561,20.7832,15.7654Q20.8208,15.6746,20.8494,15.5806Q20.8779,15.4865,20.8971,15.3902Q20.9162,15.2938,20.9259,15.196Q20.9355,15.0983,20.9355,15L20.9355,2Q20.9355,1.90175,20.9259,1.80397Q20.9162,1.70619,20.8971,1.60982Q20.8779,1.51345,20.8494,1.41943Q20.8208,1.32541,20.7832,1.23463Q20.7456,1.14386,20.6993,1.05721Q20.653,0.970554,20.5984,0.888859Q20.5438,0.807164,20.4815,0.731213Q20.4192,0.655262,20.3497,0.585786Q20.2802,0.516311,20.2043,0.453979Q20.1283,0.391648,20.0466,0.337061Q19.9649,0.282474,19.8783,0.236157Q19.7916,0.189841,19.7008,0.152241Q19.6101,0.114641,19.5161,0.0861193Q19.422,0.0575978,19.3257,0.0384294Q19.2293,0.0192611,19.1315,0.00963055Q19.0337,0,18.9355,0L6,0Q5.90175,0,5.80397,0.00963055Q5.70618,0.0192611,5.60982,0.0384294Q5.51345,0.0575978,5.41943,0.0861193Q5.32541,0.114641,5.23463,0.152241Q5.14386,0.189841,5.05721,0.236157Q4.97055,0.282474,4.88886,0.337061Q4.80716,0.391648,4.73121,0.453979Q4.65526,0.516311,4.58579,0.585786Q4.51631,0.655262,4.45398,0.731213Q4.39165,0.807164,4.33706,0.888859Q4.28247,0.970554,4.23616,1.05721Q4.18984,1.14386,4.15224,1.23463Q4.11464,1.32541,4.08612,1.41943Q4.0576,1.51345,4.03843,1.60982Q4.01926,1.70619,4.00963,1.80397Q4,1.90175,4,2L4,5.84181L0,8.16L4,10.4782Z" fill-rule="evenodd" fill="#0094FF" fill-opacity="1"/></g><g filter="url(#master_svg1_5_6939/5_5660)"><path d="M8.02880359375,3.98138427734375L11.06006359375,3.98138427734375Q11.31006359375,3.3524742773437497,11.61474359375,2.48138427734375L12.610843593750001,2.78607427734375Q12.31396359375,3.4462242773437497,12.03271359375,3.98138427734375L17.12258359375,3.98138427734375L17.12258359375,13.98138427734375L16.18506359375,13.98138427734375L16.18506359375,13.32518427734375L8.96630359375,13.32518427734375L8.96630359375,13.98138427734375L8.02880359375,13.98138427734375L8.02880359375,3.98138427734375ZM8.96630359375,12.48138427734375L16.18506359375,12.48138427734375L16.18506359375,10.56341427734375L8.96630359375,10.56341427734375L8.96630359375,12.48138427734375ZM8.96630359375,9.73138427734375L16.18506359375,9.73138427734375L16.18506359375,7.56341427734375L8.96630359375,7.56341427734375L8.96630359375,9.73138427734375ZM16.18506359375,4.82513427734375L8.96630359375,4.82513427734375L8.96630359375,6.73138427734375L16.18506359375,6.73138427734375L16.18506359375,4.82513427734375Z" fill="#FFFFFF" fill-opacity="1"/></g></g></svg>