<svg xmlns="http://www.w3.org/2000/svg" xmlns:xlink="http://www.w3.org/1999/xlink" fill="none" version="1.1" width="14" height="14" viewBox="0 0 14 14"><g><g><rect x="0" y="0" width="14" height="14" rx="2" fill="#175D33" fill-opacity="1"/><rect x="0.5" y="0.5" width="13" height="13" rx="1.5" fill-opacity="0" stroke-opacity="1" stroke="#5DBB85" fill="none" stroke-width="1"/></g><g><path d="M4.84088,8.76562C4.84084,8.76558,4.84092,8.76566,4.84088,8.76562C4.84088,8.76562,3.25,7.17474,3.25,7.17474C3.25,7.17474,4.32609,6.12951,4.32609,6.12951C4.32609,6.12951,5.9032599999999995,7.70668,5.9032599999999995,7.70668C5.9032599999999995,7.70668,9.6212,4,9.6212,4C9.6212,4,10.67462,5.05342,10.67462,5.05342C10.67462,5.05342,6.95668,8.760100000000001,6.95668,8.760100000000001C6.95668,8.760100000000001,6.96231,8.76573,6.96231,8.76573C6.96231,8.76573,6.94665,8.780940000000001,6.94665,8.780940000000001C6.9142,8.81246,6.88068,8.842220000000001,6.846220000000001,8.87022C6.846220000000001,8.87022,6.42474,9.29043,6.42474,9.29043C6.13172,9.58256,5.65746,9.58221,5.36489,9.28962C5.36489,9.28962,4.84088,8.76562,4.84088,8.76562C4.84088,8.76562,4.84088,8.76562,4.84088,8.76562Z" fill="#FFFFFF" fill-opacity="0.8999999761581421"/></g></g></svg>