<svg xmlns="http://www.w3.org/2000/svg" xmlns:xlink="http://www.w3.org/1999/xlink" fill="none" version="1.1" width="30" height="30" viewBox="0 0 30 30"><defs><radialGradient cx="0" cy="0" r="1" gradientUnits="userSpaceOnUse" id="master_svg0_88_16203" gradientTransform="translate(1.9205117225646973 30) rotate(98.1239173467939) scale(21.188262086698145 21.188262086698145)"><stop offset="0%" stop-color="#1BA8FF" stop-opacity="1"/><stop offset="100%" stop-color="#001C78" stop-opacity="0"/></radialGradient><radialGradient cx="0" cy="0" r="1" gradientUnits="userSpaceOnUse" id="master_svg1_88_16204" gradientTransform="translate(28.963347673416138 3.775983452796936) rotate(101.16546200166465) scale(11.440562811569494 11.440562811569494)"><stop offset="0%" stop-color="#1BA8FF" stop-opacity="0.25"/><stop offset="100%" stop-color="#1BA8FF" stop-opacity="0"/></radialGradient><radialGradient cx="0" cy="0" r="1" gradientUnits="userSpaceOnUse" id="master_svg2_88_16206" gradientTransform="translate(29.22176957130432 3.26363705098629) rotate(94.05338493195609) scale(17.562065639614314 17.562065639614314)"><stop offset="0%" stop-color="#9CF2FF" stop-opacity="1"/><stop offset="100%" stop-color="#00DDFF" stop-opacity="0"/></radialGradient><radialGradient cx="0" cy="0" r="1" gradientUnits="userSpaceOnUse" id="master_svg3_88_16207" gradientTransform="translate(1.201171875 27.073161005973816) rotate(90.97799264247828) scale(18.585704200635625 18.585704200635625)"><stop offset="0%" stop-color="#00DDFF" stop-opacity="1"/><stop offset="100%" stop-color="#00DDFF" stop-opacity="0"/></radialGradient><radialGradient cx="0" cy="0" r="1" gradientUnits="userSpaceOnUse" id="master_svg4_88_16208" gradientTransform="translate(29.22176957130432 3.26363705098629) rotate(94.05338493195609) scale(17.562065639614314 17.562065639614314)"><stop offset="0%" stop-color="#9CF2FF" stop-opacity="1"/><stop offset="100%" stop-color="#00DDFF" stop-opacity="0"/></radialGradient><radialGradient cx="0" cy="0" r="1" gradientUnits="userSpaceOnUse" id="master_svg5_88_16209" gradientTransform="translate(1.201171875 27.073161005973816) rotate(90.97799264247828) scale(18.585704200635625 18.585704200635625)"><stop offset="0%" stop-color="#00DDFF" stop-opacity="1"/><stop offset="100%" stop-color="#00DDFF" stop-opacity="0"/></radialGradient><filter id="master_svg6_88_16197" filterUnits="objectBoundingBox" color-interpolation-filters="sRGB" x="-0.7134731943360118" y="-0.7142857142857143" width="2.4269463886720235" height="2.4285714285714284"><feFlood flood-opacity="0" result="BackgroundImageFix"/><feColorMatrix in="SourceAlpha" type="matrix" values="0 0 0 0 0 0 0 0 0 0 0 0 0 0 0 0 0 0 127 0"/><feOffset dy="0" dx="0"/><feGaussianBlur stdDeviation="2.5"/><feColorMatrix type="matrix" values="0 0 0 0 0.2549019753932953 0 0 0 0 0.615686297416687 0 0 0 0 1 0 0 0 1 0"/><feBlend mode="normal" in2="BackgroundImageFix" result="effect1_dropShadow"/><feBlend mode="normal" in="SourceGraphic" in2="effect1_dropShadow" result="shape"/></filter></defs><g><g><rect x="0" y="0" width="30" height="30" rx="15" fill="#01213D" fill-opacity="0.800000011920929"/><rect x="0" y="0" width="30" height="30" rx="15" fill="url(#master_svg0_88_16203)" fill-opacity="0.800000011920929"/><rect x="0" y="0" width="30" height="30" rx="15" fill="url(#master_svg1_88_16204)" fill-opacity="1"/><rect x="0.5" y="0.5" width="29" height="29" rx="14.5" stroke="url(#master_svg2_88_16206)" fill-opacity="0" fill="none" stroke-width="1"/><rect x="0.5" y="0.5" width="29" height="29" rx="14.5" stroke="url(#master_svg3_88_16207)" fill-opacity="0" fill="none" stroke-width="1"/><rect x="0.5" y="0.5" width="29" height="29" rx="14.5" stroke="url(#master_svg4_88_16208)" fill-opacity="0" fill="none" stroke-width="1"/><rect x="0.5" y="0.5" width="29" height="29" rx="14.5" stroke="url(#master_svg5_88_16209)" fill-opacity="0" fill="none" stroke-width="1"/></g><g><g filter="url(#master_svg6_88_16197)"><path d="M21.7322405,14.558491199999999C21.0059815,13.700467100000001,20.187295499999998,12.7704477,19.3204095,11.7859061C18.4451155,10.7918026,17.540075299999998,9.764061,16.7138357,8.78958756C15.6655216,7.7508668,14.5519476,7.73574671,13.5911484,8.75160128C12.7973714,9.6425585,11.8925726,10.5943336,11.0174799,11.514822C10.1367967,12.441244099999999,9.2262048,13.398976300000001,8.42128295,14.3025289C7.86474374,14.9357457,7.969133865,15.4451003,8.081104584,15.6922402C8.25695157,16.0810423,8.65653265,16.3133955,8.9412843,16.3133955C8.9412843,16.3133955,10.1824887,16.3133955,10.1824887,16.3133955C10.1824887,16.3133955,10.1824887,20.531257,10.1824887,20.531257C10.1824887,21.240617999999998,10.6880744,21.999969999999998,11.4408002,21.999969999999998C11.4408002,21.999969999999998,13.8468995,21.999969999999998,13.8468995,21.999969999999998C13.8468995,21.999969999999998,13.8468995,17.805546800000002,13.8468995,17.805546800000002C13.8468995,17.805546800000002,16.4783678,17.805546800000002,16.4783678,17.805546800000002C16.4783678,17.805546800000002,16.4783678,21.999969999999998,16.4783678,21.999969999999998C16.4783678,21.999969999999998,18.9019555,21.999969999999998,18.9019555,21.999969999999998C19.3693885,21.999969999999998,20.1604305,21.621541,20.1604305,20.202972000000003C20.1604305,20.202972000000003,20.1604305,16.3133955,20.1604305,16.3133955C20.1604305,16.3133955,21.0693635,16.3133955,21.0693635,16.3133955C21.4256025,16.3133955,21.734731500000002,16.1247253,21.8966155,15.8085103C22.0884795,15.433794500000001,22.032182499999998,14.9726543,21.7322405,14.558491199999999Z" fill="#FFFFFF" fill-opacity="1"/></g></g></g></svg>