<svg xmlns="http://www.w3.org/2000/svg" xmlns:xlink="http://www.w3.org/1999/xlink" fill="none" version="1.1" width="14" height="22" viewBox="0 0 14 22"><defs><clipPath id="master_svg0_598_56741/5_5875"><rect x="0" y="2.78564453125" width="13.999866485595703" height="16.428348541259766" rx="0"/></clipPath></defs><g><g clip-path="url(#master_svg0_598_56741/5_5875)"><g><path d="M6.76191890625,18.899418798828123C6.79349890625,18.931018798828127,6.83098890625,18.956118798828125,6.87224890625,18.973218798828125C6.91351890625,18.990318798828127,6.95774890625,18.999118798828125,7.00241890625,18.999118798828125C7.04708890625,18.999118798828125,7.09131890625,18.990318798828127,7.13257890625,18.973218798828125C7.17384890625,18.956118798828125,7.21133890625,18.931018798828127,7.24291890625,18.899418798828123C7.24291890625,18.899418798828123,12.07182890625,14.064518798828125,12.08482890625,14.045518798828125C12.91702890625,13.073218798828124,13.45292890625,11.882838798828125,13.62922890625,10.615328798828125C13.80542890625,9.347818798828126,13.61462890625,8.056348798828125,13.07942890625,6.893958798828125C12.54412890625,5.731578798828124,11.68682890625,4.747018798828125,10.60912890625,4.056958798828125C9.53140890625,3.366896798828125,8.27844890625,3.000267216828125,6.99874890625,3.000518928351125C5.71903890625,3.000770639828125,4.46622890625,3.367892798828125,3.38878890625,4.058378798828125C2.31134890625,4.748858798828125,1.45444890625,5.733758798828125,0.91963690625,6.896358798828125C0.38482530625,8.058948798828126,0.19452490625000002,9.350498798828125,0.37128970625,10.617938798828124C0.5480539062500001,11.885378798828125,1.0844719062500001,13.075618798828126,1.91696890625,14.047518798828126C1.93196890625,14.066518798828126,6.76191890625,18.899418798828123,6.76191890625,18.899418798828123C6.76191890625,18.899418798828123,6.76191890625,18.899418798828123,6.76191890625,18.899418798828123C6.76191890625,18.899418798828123,6.76191890625,18.899418798828123,6.76191890625,18.899418798828123ZM7.00091890625,6.6385487988281255C7.37859890625,6.6385487988281255,7.75257890625,6.712938798828125,8.10149890625,6.857468798828124C8.45042890625,7.001998798828125,8.76747890625,7.213838798828125,9.03453890625,7.480898798828125C9.30159890625,7.747958798828125,9.51343890625,8.064998798828125,9.65796890625,8.413928798828124C9.80249890625,8.762858798828125,9.87688890625,9.136838798828126,9.87688890625,9.514518798828124C9.87688890625,9.892198798828126,9.80249890625,10.266178798828125,9.65796890625,10.615098798828125C9.51343890625,10.964028798828124,9.30159890625,11.281078798828124,9.03453890625,11.548138798828125C8.76747890625,11.815198798828124,8.45042890625,12.027038798828125,8.10149890625,12.171568798828124C7.75257890625,12.316098798828126,7.37859890625,12.390488798828125,7.00091890625,12.390488798828125C6.62323890625,12.390488798828125,6.24925890625,12.316098798828126,5.90032890625,12.171568798828124C5.55139890625,12.027038798828125,5.23435890625,11.815198798828124,4.96729890625,11.548138798828125C4.70023890625,11.281078798828124,4.48839890625,10.964028798828124,4.34386890625,10.615098798828125C4.19933890625,10.266178798828125,4.12494890625,9.892198798828126,4.12494890625,9.514518798828124C4.12494890625,9.136838798828126,4.19933890625,8.762858798828125,4.34386890625,8.413928798828124C4.48839890625,8.064998798828125,4.70023890625,7.747958798828125,4.96729890625,7.480898798828125C5.23435890625,7.213838798828125,5.55139890625,7.001998798828125,5.90032890625,6.857468798828124C6.24925890625,6.712938798828125,6.62323890625,6.6385487988281255,7.00091890625,6.6385487988281255C7.00091890625,6.6385487988281255,7.00091890625,6.6385487988281255,7.00091890625,6.6385487988281255Z" fill="#ABABAB" fill-opacity="1"/></g></g></g></svg>