<svg xmlns="http://www.w3.org/2000/svg" xmlns:xlink="http://www.w3.org/1999/xlink" fill="none" version="1.1" width="18" height="18" viewBox="0 0 18 18"><defs><clipPath id="master_svg0_425_26641"><rect x="0" y="0" width="18" height="18" rx="0"/></clipPath></defs><g clip-path="url(#master_svg0_425_26641)"><g><path d="M13.8611,1.5C15.0424,1.5,16,2.49824,16,3.72957L16,15.8909C16,16.3765,15.4808,16.6661,15.0931,16.3968L13.6865,15.4194L12.5778,16.286099999999998C12.3012,16.502299999999998,11.92099,16.502299999999998,11.64444,16.286099999999998L10.55556,15.4348L9.46667,16.286099999999998C9.19012,16.502299999999998,8.80988,16.502299999999998,8.53333,16.286099999999998L7.44444,15.4348L6.35556,16.286099999999998C6.07901,16.502299999999998,5.69877,16.502299999999998,5.422219999999999,16.286099999999998L4.3134999999999994,15.4194L2.9068899999999998,16.3968C2.519167,16.6664,2,16.3765,2,15.8909L2,3.72957C2,2.49824,2.957639,1.5,4.13889,1.5L13.8611,1.5ZM13.8611,2.7161299999999997L4.13889,2.7161299999999997C3.60195,2.7161299999999997,3.16667,3.16986,3.16667,3.72957L3.16667,14.7546L3.89525,14.2483C4.16967,14.0576,4.5296,14.0681,4.7933900000000005,14.2744L5.88889,15.1308L6.97778,14.2795C7.25432,14.0633,7.63457,14.0633,7.91111,14.2795L9,15.1308L10.08889,14.2795C10.36543,14.0633,10.74568,14.0633,11.02222,14.2795L12.1111,15.1308L13.2066,14.2744C13.4704,14.0681,13.8303,14.0576,14.1047,14.2483L14.8333,14.7546L14.8333,3.72957C14.8333,3.16986,14.3981,2.7161299999999997,13.8611,2.7161299999999997ZM9.97222,9.20215C10.29439,9.20215,10.55556,9.47439,10.55556,9.81022C10.55556,10.14604,10.29439,10.41828,9.97222,10.41828L6.08333,10.41828C5.76117,10.41828,5.5,10.14604,5.5,9.81022C5.5,9.47439,5.76117,9.20215,6.08333,9.20215L9.97222,9.20215ZM11.91667,5.95914C12.2388,5.95914,12.5,6.23138,12.5,6.56721C12.5,6.90303,12.2388,7.17527,11.91667,7.17527L6.08333,7.17527C5.76117,7.17527,5.5,6.90303,5.5,6.56721C5.5,6.23138,5.76117,5.95914,6.08333,5.95914L11.91667,5.95914Z" fill="#D8FFE9" fill-opacity="1"/><path d="M13.8611,1.35L4.13889,1.35Q3.18899,1.35,2.518231,2.049194Q1.85,2.7457599999999998,1.85,3.72957L1.85,15.8909Q1.85,16.3432,2.234957,16.558Q2.62484,16.7756,2.992482,16.52L4.308260000000001,15.6057L5.32984,16.4043Q5.88889,16.8414,6.44794,16.4043L7.44444,15.6252L8.44095,16.4043Q9,16.8414,9.55905,16.4043L10.55556,15.6252L11.55206,16.4043Q12.1111,16.8414,12.6702,16.4043L13.6917,15.6057L15.0075,16.52Q15.3752,16.775399999999998,15.765,16.5579Q16.15,16.3432,16.15,15.8909L16.15,3.72957Q16.15,2.7457599999999998,15.4818,2.049194Q14.811,1.35,13.8611,1.35ZM2.7347200000000003,2.256878Q3.31692,1.65,4.13889,1.65L13.8611,1.65Q14.6831,1.65,15.2653,2.256878Q15.85,2.86639,15.85,3.72957L15.85,15.8909Q15.85,16.167,15.6189,16.296Q15.3926,16.4222,15.1787,16.273600000000002L13.6813,15.2331L12.4854,16.1679Q12.1111,16.4605,11.73683,16.1679L10.55556,15.2444L9.374279999999999,16.1679Q9,16.4605,8.625720000000001,16.1679L7.44444,15.2444L6.26317,16.1679Q5.88889,16.4605,5.514609999999999,16.1679L4.31874,15.2331L2.821298,16.273600000000002Q2.607413,16.4223,2.381141,16.296Q2.15,16.167099999999998,2.15,15.8909L2.15,3.72957Q2.15,2.86639,2.7347200000000003,2.256878ZM14.9833,15.0415L14.9833,3.72957Q14.9833,3.24947,14.6568,2.9091199999999997Q14.3278,2.5661300000000002,13.8611,2.5661300000000002L4.13889,2.5661300000000002Q3.6722200000000003,2.5661300000000002,3.3431800000000003,2.9091199999999997Q3.01667,3.24947,3.01667,3.72957L3.01667,15.0415L3.98085,14.3715Q4.34792,14.1164,4.7009799999999995,14.3926L5.88889,15.3212L7.07016,14.3977Q7.44444,14.1051,7.81872,14.3977L9,15.3212L10.18128,14.3977Q10.55556,14.1051,10.92984,14.3977L12.1111,15.3212L13.299,14.3926Q13.6521,14.1164,14.0192,14.3715L14.9833,15.0415ZM14.4403,3.1168Q14.6833,3.37011,14.6833,3.72957L14.6833,14.4677L14.1903,14.1251Q13.6415,13.7438,13.1142,14.1562L12.1111,14.9404L11.11461,14.1613Q10.55556,13.7242,9.996500000000001,14.1613L9,14.9404L8.003499999999999,14.1613Q7.44444,13.7242,6.88539,14.1613L5.88888,14.9404L4.8858,14.1563Q4.3584700000000005,13.7438,3.80965,14.1251L3.3166700000000002,14.4677L3.3166700000000002,3.72957Q3.3166700000000002,3.37011,3.5596699999999997,3.1168Q3.80015,2.86613,4.13889,2.86613L13.8611,2.86613Q14.1999,2.86613,14.4403,3.1168ZM11.91667,5.80914L6.08333,5.80914Q5.77775,5.80914,5.562609999999999,6.0334Q5.35,6.25502,5.35,6.56721Q5.35,6.87939,5.562609999999999,7.10102Q5.77774,7.32527,6.08333,7.32527L11.91667,7.32527Q12.2223,7.32527,12.4374,7.10102Q12.65,6.87939,12.65,6.56721Q12.65,6.25502,12.4374,6.0334Q12.2223,5.80914,11.91667,5.80914ZM5.7791,6.24108Q5.905670000000001,6.10914,6.08333,6.10914L11.91667,6.10914Q12.0943,6.10914,12.2209,6.24108Q12.35,6.37565,12.35,6.56721Q12.35,6.75876,12.2209,6.89333Q12.0943,7.02527,11.91667,7.02527L6.08333,7.02527Q5.905670000000001,7.02527,5.7791,6.89333Q5.65,6.75876,5.65,6.56721Q5.65,6.37565,5.7791,6.24108ZM9.97222,9.052150000000001L6.08333,9.052150000000001Q5.77774,9.052150000000001,5.562609999999999,9.27641Q5.35,9.49803,5.35,9.81022Q5.35,10.12241,5.562609999999999,10.34403Q5.77775,10.56828,6.08333,10.56828L9.97222,10.56828Q10.27781,10.56828,10.49295,10.34403Q10.70555,10.12241,10.70556,9.81022Q10.70556,9.49803,10.49295,9.27641Q10.27781,9.05216,9.97222,9.052150000000001ZM5.7791,9.48409Q5.905670000000001,9.35215,6.08333,9.35215L9.97222,9.35215Q10.14988,9.35215,10.27646,9.48409Q10.40556,9.61867,10.40556,9.81022Q10.40556,10.00177,10.27646,10.13634Q10.14988,10.26828,9.97222,10.26828L6.08333,10.26828Q5.905670000000001,10.26828,5.7791,10.13634Q5.65,10.00177,5.65,9.81022Q5.65,9.61867,5.7791,9.48409Z" fill-rule="evenodd" fill="#D8FFE9" fill-opacity="1"/></g></g></svg>