<svg xmlns="http://www.w3.org/2000/svg" xmlns:xlink="http://www.w3.org/1999/xlink" fill="none" version="1.1" width="556.5548095703125" height="60.6217041015625" viewBox="0 0 556.5548095703125 60.6217041015625"><defs><linearGradient x1="1" y1="1" x2="0.6853246688842773" y2="1" id="master_svg0_230_025012"><stop offset="0%" stop-color="#0B8F46" stop-opacity="0.5"/><stop offset="100%" stop-color="#0B8F46" stop-opacity="0"/></linearGradient><radialGradient cx="0" cy="0" r="1" gradientUnits="userSpaceOnUse" id="master_svg1_38_03352" gradientTransform="translate(202.35839398950338 38.3331298828125) rotate(0) scale(202.59302202612162 5177.090912442244)"><stop offset="21.338850259780884%" stop-color="#11D668" stop-opacity="1"/><stop offset="100%" stop-color="#11D668" stop-opacity="0"/></radialGradient><filter id="master_svg2_1765_27598" filterUnits="objectBoundingBox" color-interpolation-filters="sRGB" x="-20" y="-16" width="52.94556140899658" height="52.9455509185791"><feFlood flood-opacity="0" result="BackgroundImageFix"/><feColorMatrix in="SourceAlpha" type="matrix" values="0 0 0 0 0 0 0 0 0 0 0 0 0 0 0 0 0 0 127 0"/><feOffset dy="4" dx="0"/><feGaussianBlur stdDeviation="5"/><feColorMatrix type="matrix" values="0 0 0 0 1 0 0 0 0 0.929411768913269 0 0 0 0 0.5843137502670288 0 0 0 1 0"/><feBlend mode="normal" in2="BackgroundImageFix" result="effect1_dropShadow"/><feBlend mode="normal" in="SourceGraphic" in2="effect1_dropShadow" result="shape"/></filter><linearGradient x1="0.06566903740167618" y1="0.1623382568359375" x2="0.05686083063483238" y2="0.827880859375" id="master_svg3_230_024986"><stop offset="43.57142746448517%" stop-color="#FFFFFF" stop-opacity="1"/><stop offset="99.9999463558197%" stop-color="#FFE594" stop-opacity="1"/></linearGradient><radialGradient cx="0" cy="0" r="1" gradientUnits="userSpaceOnUse" id="master_svg4_230_024125" gradientTransform="translate(61.201416015625 47.3243398300292) rotate(174.3214290800289) scale(291.5300177153956 -108.57749062138281)"><stop offset="0%" stop-color="#09783A" stop-opacity="0.4699999988079071"/><stop offset="100%" stop-color="#09783A" stop-opacity="0"/></radialGradient><radialGradient cx="0" cy="0" r="1" gradientUnits="userSpaceOnUse" id="master_svg5_230_024126" gradientTransform="translate(61.201416015625 46.881195068359375) rotate(90.28525550498551) scale(39.230192007625426 116.99928901392919)"><stop offset="0%" stop-color="#5BD390" stop-opacity="1"/><stop offset="100%" stop-color="#064823" stop-opacity="0"/></radialGradient><filter id="master_svg6_1765_27601" filterUnits="objectBoundingBox" color-interpolation-filters="sRGB" x="-12" y="-12" width="110" height="48"><feFlood flood-opacity="0" result="BackgroundImageFix"/><feColorMatrix in="SourceAlpha" type="matrix" values="0 0 0 0 0 0 0 0 0 0 0 0 0 0 0 0 0 0 127 0"/><feOffset dy="0" dx="0"/><feGaussianBlur stdDeviation="3"/><feColorMatrix type="matrix" values="0 0 0 0 0.06666667014360428 0 0 0 0 0.8392156958580017 0 0 0 0 0.40784314274787903 0 0 0 0.6200000047683716 0"/><feBlend mode="normal" in2="BackgroundImageFix" result="effect1_dropShadow"/><feBlend mode="normal" in="SourceGraphic" in2="effect1_dropShadow" result="shape"/></filter></defs><g><g style="opacity:0.5;"><path d="M60.762451171875,27.6514892578125L452.748451171875,27.6514892578125L452.885451171875,27.6514892578125C457.915451171875,27.6516892578125,463.093451171875,27.6517892578125,467.695451171875,25.6260892578125C476.973451171875,21.5417892578125,478.050451171875,13.5456792578125,495.762451171875,7.6514892578125L60.762451171875,7.9340542578125L60.762451171875,27.6514892578125Z" fill="url(#master_svg0_230_025012)" fill-opacity="0.6000000238418579"/></g><g><path d="M283.216416015625,39.0379418828125L404.952416015625,38.8331288828125L404.950416015625,37.8331308828125L283.12141601562496,38.0381008828125L283.075416015625,38.0468538828125Q278.630416015625,38.8935508828125,275.074416015625,40.9372898828125Q272.956416015625,42.1537998828125,269.60841601562504,44.9127498828125Q265.69041601562503,48.1418598828125,263.139416015625,49.321029882812496Q258.91641601562503,51.2735298828125,252.893416015625,51.2849298828125L252.450416015625,51.2843298828125L252.006416015625,51.2833298828125L61.201416015625,51.2833298828125L61.201416015625,52.2833298828125L252.003416015625,52.2833298828125L252.448416015625,52.2843298828125L252.894416015625,52.2849298828125Q259.13741601562504,52.2731298828125,263.559416015625,50.2287298828125Q266.226416015625,48.9954298828125,270.244416015625,45.6844898828125Q273.528416015625,42.9789398828125,275.572416015625,41.8043298828125Q278.96441601562503,39.854899882812504,283.216416015625,39.0379418828125Z" fill-rule="evenodd" fill="url(#master_svg1_38_03352)" fill-opacity="0.5"/></g><g transform="matrix(0.7084126472473145,0.7057985067367554,-0.7084126472473145,0.7057984471321106,22.697146390622947,-18.07381835135311)" filter="url(#master_svg2_1765_27598)"><rect x="33.2568359375" y="18.3507080078125" width="12.945561408996582" height="12.945550918579102" rx="0" fill="#D8D8D8" fill-opacity="1"/><rect x="33.2568359375" y="18.3507080078125" width="12.945561408996582" height="12.945550918579102" rx="0" fill="url(#master_svg3_230_024986)" fill-opacity="1"/></g><g><path d="M61.201416015625,36.6519876953125L279.677416015625,36.6519876953125C284.39541601562496,36.6519876953125,289.165416015625,36.4903876953125,293.715416015625,35.2412876953125C312.806416015625,30.0008876953125,311.912416015625,16.9524876953125,342.451416015625,7.5098876953125L61.201416015625,7.5098876953125L61.201416015625,36.6519876953125Z" fill="#064823" fill-opacity="0.501960813999176"/></g><g><path d="M61.201416015625,46.8811892578125L232.434416015625,46.8157892578125C237.140416015625,46.8139892578125,241.833416015625,46.6016892578125,246.417416015625,45.5362892578125C274.672416015625,38.9682892578125,271.689416015625,20.917689257812498,314.13741601562504,7.7932372578125L61.201416015625,7.6514892578125L61.201416015625,46.8811892578125Z" fill="url(#master_svg4_230_024125)" fill-opacity="1"/><path d="M61.201416015625,46.8811892578125L232.434416015625,46.8157892578125C237.140416015625,46.8139892578125,241.833416015625,46.6016892578125,246.417416015625,45.5362892578125C274.672416015625,38.9682892578125,271.689416015625,20.917689257812498,314.13741601562504,7.7932372578125L61.201416015625,7.6514892578125L61.201416015625,46.8811892578125Z" fill="url(#master_svg5_230_024126)" fill-opacity="1"/></g><g filter="url(#master_svg6_1765_27601)"><path d="M76.05322265625,20.1495392578125L91.99077265625,20.1495392578125L91.99077265625,23.0792192578125L76.05322265625,23.0792192578125L76.05322265625,20.1495392578125ZM74.64697265625,32.2198892578125L93.43607265625,32.2198892578125L93.43607265625,35.188589257812495L74.64697265625,35.188589257812495L74.64697265625,32.2198892578125ZM96.09267265625,33.4307892578125Q99.35447265625,33.001089257812495,102.34267265625,32.4541892578125Q102.26457265625,33.274489257812505,102.22557265625,34.0362892578125Q104.13957265625,30.403489257812502,104.43257265625,24.6417192578125Q104.47167265625,23.6846892578125,104.49117265625,21.4971892578125L103.10447265625,21.4971892578125L103.10447265625,19.0948492578125L113.57317265625,19.0948492578125L113.57317265625,21.3409392578125L112.06927265625,24.4268792578125L114.78417265625,24.4268792578125L114.78417265625,26.751089257812502Q114.08097265625,30.051889257812498,112.22557265625,32.590989257812495Q113.76847265625,33.9776892578125,115.54587265625,34.7002892578125Q114.43257265625,36.1846892578125,113.82707265625001,37.1807892578125Q111.99117265625,36.1065892578125,110.50677265625,34.524489257812505Q108.78807265625,36.1455892578125,106.44427265625,37.3955892578125Q105.64347265625,36.0674892578125,104.82317265625,35.0127892578125Q107.18647265625,33.9190892578125,108.80757265625,32.376089257812495Q107.47947265625001,30.3838892578125,106.54197265625001,27.8057892578125Q105.93647265625,33.9971892578125,103.04587265625,37.3565892578125Q102.20597265625,36.1065892578125,101.36617265625,35.2080892578125L96.56147265625,36.1065892578125L96.09267265625,33.4307892578125ZM98.86617265625,24.0167192578125Q99.58877265625,23.9971892578125,100.50677265625,23.9581292578125Q101.15127265625,22.8448492578125,101.89347265625,21.5167192578125L104.06147265625,22.7081292578125Q101.58097265625,26.8682892578125,99.94037265624999,28.9190892578125Q101.60057265625,28.7627892578125,102.94817265625,28.5479892578125Q102.79197265625,29.5830892578125,102.75287265624999,30.9112892578125Q99.02237265625,31.2823892578125,97.04977265625,31.7510892578125L96.40517265625,29.5440892578125Q97.53807265625,28.5674892578125,99.06147265625,26.2432892578125Q97.63567265625,26.3604892578125,96.75677265625,26.4776892578125L96.03417265625,24.2510992578125Q97.53807265625,22.3565692578125,99.33487265625,17.9620392578125L101.77627265625,18.9385992578125Q100.01847265625,22.1807892578125,98.86617265625,24.0167192578125ZM107.03017265625,22.883909257812498Q108.53417265625,27.8448892578125,110.40917265625,30.5401892578125Q111.56147265625,28.8604892578125,112.04977265625,26.7901892578125L109.19817265625,26.7901892578125L109.19817265625,24.4268792578125L110.56537265624999,21.4971892578125L107.04977265625,21.4971892578125Q107.04977265625,22.1807892578125,107.03017265625,22.883909257812498ZM117.79237265625,29.3291892578125Q119.29627265625,26.7217892578125,120.01897265625,24.0557892578125L117.92907265625,24.0557892578125L117.92907265625,21.4971892578125L120.17517265625,21.4971892578125L120.17517265625,18.0792192578125L122.57757265625,18.0792192578125L122.57757265625,21.4971892578125L124.45257265625,21.4971892578125L124.45257265625,24.0557892578125L122.57757265625,24.0557892578125L122.57757265625,26.3116892578125Q123.83727265625001,27.014789257812502,124.97987265625,27.688589257812502L123.76897265625,29.8955892578125Q123.35877265625,29.5440892578125,122.57757265625,29.0166892578125L122.57757265625,37.278489257812495L120.17517265625,37.278489257812495L120.17517265625,29.2315892578125Q119.43297265625,31.1455892578125,118.41737265625,32.903489257812495Q118.08537265625,30.8721892578125,117.79237265625,29.3291892578125ZM125.29237265625,19.0948492578125L136.32757265625,19.0948492578125L136.32757265625,21.6339092578125L125.29237265625,21.6339092578125L125.29237265625,19.0948492578125ZM124.51117265625,23.977659257812498L137.06967265625,23.977659257812498L137.06967265625,26.5166892578125L132.14787265625,26.5166892578125L132.14787265625,34.876089257812495Q132.14787265625,35.9209892578125,131.57167265625,36.4825892578125Q130.99547265625,37.0440892578125,129.91637265625,37.112389257812495Q128.83727265625,37.1807892578125,126.97207265624999,37.1807892578125Q126.69867265625,35.5987892578125,126.44467265624999,34.465989257812495Q127.47987265625,34.563589257812495,128.30017265625,34.563589257812495Q129.43297265625,34.563589257812495,129.43297265625,33.5088892578125L129.43297265625,26.5166892578125L124.51117265625,26.5166892578125L124.51117265625,23.977659257812498ZM126.07367265625,27.7471892578125L128.39787265625,28.4112892578125Q127.20647265625,32.2002892578125,125.95647265625,34.9541892578125Q124.72597265625001,34.3291892578125,123.65177265625,34.0166892578125Q124.94077265625,31.3799892578125,126.07367265625,27.7471892578125ZM134.99937265625,27.903489257812502Q136.22987265625,30.8526892578125,137.36267265625,34.0948892578125L134.96037265625,35.0127892578125Q133.82757265625,31.5557892578125,132.67517265625,28.7432892578125L134.99937265625,27.903489257812502ZM140.62487265625,18.7432892578125L148.28107265625,18.7432892578125L148.28107265625,26.3213892578125L140.62487265625,26.3213892578125L140.62487265625,18.7432892578125ZM146.01547265624998,20.5792192578125L142.89047265624998,20.5792192578125L142.89047265624998,21.7120392578125L146.01547265624998,21.7120392578125L146.01547265624998,20.5792192578125ZM146.01547265624998,24.4854692578125L146.01547265624998,23.352659257812498L142.89047265624998,23.352659257812498L142.89047265624998,24.4854692578125L146.01547265624998,24.4854692578125ZM149.39437265625,22.2589092578125L151.98227265625002,22.2589092578125Q152.11897265624998,21.4678992578125,152.21667265625,20.7354692578125L149.04277265625,20.7354692578125L149.04277265625,18.7823492578125L158.63267265625,18.7823492578125L158.63267265625,20.7354692578125L154.68737265625,20.7354692578125Q154.56037265625,21.5069592578125,154.41387265625002,22.2589092578125L158.04667265625,22.2589092578125L158.04667265625,30.461989257812498L155.82017265625,30.461989257812498L155.82017265625,24.2120392578125L151.62097265625,24.2120392578125L151.62097265625,30.4424892578125L149.39437265625,30.4424892578125L149.39437265625,22.2589092578125ZM140.68347265625,29.9932892578125L142.81237265625,29.9932892578125Q142.82207265625,31.1065892578125,142.77327265625001,32.0830892578125Q143.22247265625,32.503089257812505,143.71077265625001,32.8545892578125L143.71077265625001,29.1729892578125L139.78497265625,29.1729892578125L139.78497265625,27.2198892578125L148.73027265625,27.2198892578125L148.73027265625,29.1729892578125L146.11307265624998,29.1729892578125L146.11307265624998,30.4229892578125L148.43737265625,30.4229892578125L148.43737265625,32.336989257812505L146.11307265624998,32.336989257812505L146.11307265624998,34.0948892578125Q147.46077265625001,34.563589257812495,149.26737265625002,34.5928892578125Q148.58387265624998,33.5674892578125,147.83187265625,32.7471892578125Q149.98027265625,32.1612892578125,151.32797265624998,30.8672892578125Q152.67557265624998,29.5733892578125,152.67557265624998,26.8096892578125L152.67557265624998,25.051889257812498L154.78497265625,25.051889257812498L154.78497265625,26.926889257812498Q154.78497265625,28.538189257812498,154.43347265625,29.836989257812498Q157.04087265625,31.3702892578125,159.06237265625,32.8057892578125L157.56817265625,34.5733892578125L159.10137265625002,34.5440892578125Q158.65217265625,35.5987892578125,158.39827265625001,36.8096892578125Q154.06237265625,36.8096892578125,150.88367265624998,36.775489257812495Q147.70487265625002,36.7412892578125,146.64047265624998,36.5166892578125Q145.57597265625,36.2920892578125,144.52137265624998,35.7696892578125Q143.46667265625,35.2471892578125,142.51937265625,34.4463892578125Q142.19707265625,36.350689257812505,141.50377265625002,37.4932892578125Q140.80057265624998,36.614389257812505,139.58967265625,35.4815892578125Q140.70297265624998,33.7823892578125,140.68347265625,29.9932892578125ZM150.06817265625,34.6026892578125L157.30457265625,34.5733892578125Q155.48807265624998,33.0694892578125,153.55457265625,31.8096892578125Q152.37287265625,33.4991892578125,150.06817265625,34.6026892578125Z" fill="#FFFFFF" fill-opacity="0"/></g></g></svg>