<svg xmlns="http://www.w3.org/2000/svg" xmlns:xlink="http://www.w3.org/1999/xlink" fill="none" version="1.1" width="32" height="32" viewBox="0 0 32 32"><defs><clipPath id="master_svg0_375_008706"><rect x="0" y="0" width="32" height="32" rx="16"/></clipPath></defs><g clip-path="url(#master_svg0_375_008706)"><rect x="0" y="0" width="32" height="32" rx="16" fill="#31B929" fill-opacity="1"/><path d="M23.262379062500003,9.05903465C22.868087062500003,8.51688153,22.2273600625,8.171875,21.5373460625,8.171875L10.2999901625,8.171875C9.1171104325,8.171875,8.1806640625,9.108321310000001,8.1806640625,10.3404875L8.1806640625,22.662149C8.1806640625,23.746456000000002,9.0678237725,24.633615,10.1521301625,24.633615L15.130082162499999,24.633615L15.0807952625,24.436468L15.0807952625,23.992888L15.376515362500001,22.267857L15.4750881625,22.021422C15.5243754625,21.824277000000002,15.6229481625,21.676416,15.7708086625,21.528556000000002L20.7980470625,16.3534584L21.882353062500002,15.367725799999999C22.3752190625,14.9241457,23.0652320625,14.8748593,23.607386062499998,15.219865800000001L23.607386062499998,10.1926277C23.607386062499998,9.7490478,23.4595260625,9.3547546,23.262379062500003,9.05903465ZM12.3700294625,12.1148069L18.777294062499998,12.1148069C19.171587062500002,12.1148069,19.516594062499998,12.4598131,19.516594062499998,12.8541069C19.516594062499998,13.2483997,19.171587062500002,13.5934062,18.777294062499998,13.5934062L12.3700294625,13.5934062C11.975736362500001,13.5934062,11.6307296625,13.2483997,11.6307296625,12.8541069C11.6307296625,12.4598131,11.975736362500001,12.1148069,12.3700294625,12.1148069ZM12.3700294625,15.0720057L15.8200950625,15.0720057C16.2143888625,15.0720057,16.5593948625,15.4170122,16.5593948625,15.8113055C16.5593948625,16.2055988,16.2143888625,16.550604800000002,15.8200950625,16.550604800000002L12.3700294625,16.550604800000002C11.975736362500001,16.550604800000002,11.6307296625,16.2055988,11.6307296625,15.8113055C11.6307296625,15.4170122,11.975736362500001,15.0720057,12.3700294625,15.0720057ZM24.7409800625,18.226352C25.0366970625,17.930630700000002,25.0366970625,17.5363388,24.7409800625,17.240617800000003L23.705958062500002,16.2055988C23.4102390625,15.909878299999999,23.0159460625,15.909878299999999,22.7202250625,16.2055988L21.6359200625,17.2899046L23.6566710625,19.310658L24.7409800625,18.226352ZM16.5593948625,24.929335L18.481574062500002,24.584328L22.868087062500003,20.049957L20.8473330625,18.029204399999998L16.4608220625,22.514290000000003L16.1158146625,24.485756L16.1158146625,24.633615C16.1651010625,24.830763,16.3622474625,24.978621,16.5593948625,24.929335Z" fill-rule="evenodd" fill="#FFFFFF" fill-opacity="1" style="mix-blend-mode:passthrough"/></g></svg>