<svg xmlns="http://www.w3.org/2000/svg" xmlns:xlink="http://www.w3.org/1999/xlink" fill="none" version="1.1" width="32" height="32" viewBox="0 0 32 32"><g><rect x="0" y="0" width="32" height="32" rx="16" fill="#2F75FF" fill-opacity="1"/><path d="M11.301435946875,16.958368274999998C11.458355446875,16.958951974999998,11.565108346875,16.962451975,11.587858646874999,16.970035575L13.907244246874999,19.291754875000002C14.092165446875,19.472591875,14.321421146875,19.570594874999998,14.555925346875,19.570594874999998L17.638329046875,19.570594874999998C17.864667046875,19.570594874999998,18.087505046875002,19.479008874999998,18.268343046875,19.311005875L20.789566046875002,16.957785575000003L24.289644046875,16.957785575000003C24.865406046875,16.957785575000003,25.333250046875,17.533548375000002,25.333250046875,18.246981875L25.333250046875,23.428264875C25.333250046875,24.139363875,24.865406046875,24.717460875,24.289061046875,24.717460875L7.709771546875,24.717460875C7.134008556875,24.717460875,6.666748046875,24.139363875,6.666748046875,23.428264875L6.666748046875,18.246397875C6.666748046875,17.535881075,7.134008556875,16.957785575000003,7.709771546875,16.957785575000003L11.301435946875,16.958368274999998ZM22.472520046874997,14.195640075C22.730944046875,14.195640075,22.940365046875,14.453478775,22.940365046875,14.771402875C22.940365046875,15.089326374999999,22.730358046875,15.347165075,22.473104046875,15.347165075L21.111574046875,15.347165075C20.885237046874998,15.347165075,20.662397046875,15.438750774999999,20.481561046875,15.606754275L18.239178046875,17.698051475C18.058341046875,17.866055475,17.836084046875,17.957640675,17.609163046875,17.957640675L14.649844146875001,17.957640675L14.319670246874999,17.959974275C14.214543846875,17.957577675,14.114501446875,17.914253275,14.040830646875001,17.839221975L11.773362646875,15.625421475C11.602256746875,15.450804675,11.369129646874999,15.350803375,11.124681446875,15.347165075L9.403809046875,15.347165075C9.145970146875,15.347165075,8.935965046875,15.089326374999999,8.935965046875,14.771402875C8.935965046875,14.453478775,9.145969846875,14.195640075,9.403809046875,14.195640075L22.472520046874997,14.195640075ZM22.267182046875,11.144738175C22.634690046875,11.144738175,22.934530046875,11.512246375,22.934530046875,11.967256975L22.934530046875,11.990590775C22.934530046875,12.457851375,22.628858046875,12.836442975,22.250849046875,12.836442975L9.619647746875,12.836442975C9.241055746875,12.836442975,8.935382346875,12.457851375,8.935382346875,11.990590775C8.935382346875,11.522746775,9.241055946875,11.144738175,9.619647746875,11.144738175L22.267182046875,11.144738175ZM22.267182046875,8.20117215037965C22.634690046875,8.20117215037965,22.934530046875,8.568680435,22.934530046875,9.023690585L22.934530046875,9.047024425C22.934530046875,9.514868275,22.628858046875,9.892876775,22.250849046875,9.892876775L9.619647746875,9.892876775C9.241055746875,9.892876775,8.935382346875,9.514868275,8.935382346875,9.047024195C8.935382346875,8.579180275,9.241055946875,8.201171875,9.619647746875,8.201171875L22.267182046875,8.20117215037965Z" fill="#FFFFFF" fill-opacity="1"/></g></svg>