<svg xmlns="http://www.w3.org/2000/svg" xmlns:xlink="http://www.w3.org/1999/xlink" fill="none" version="1.1" width="14" height="14" viewBox="0 0 14 14"><defs><clipPath id="master_svg0_217_50035"><rect x="0" y="0" width="14" height="14" rx="0"/></clipPath></defs><g clip-path="url(#master_svg0_217_50035)"><g><path d="M7,10.8500467578125Q4.375,8.4000467578125,4.375,6.3000467578125C4.375,4.9000467578125,5.5125,3.6750488278125,7,3.6750488278125C8.4875,3.6750488278125,9.625,4.8125467578125,9.625,6.3000467578125Q9.625,8.4000467578125,7,10.8500467578125ZM7.0001999999999995,7.3499967578125C6.38769,7.3499967578125,5.9502,6.9124967578125,5.9502,6.2999967578125C5.9502,5.6874967578125,6.387700000000001,5.2499967578125,7.0001999999999995,5.2499967578125C7.6127,5.2499967578125,8.0502,5.6874967578125,8.0502,6.2999967578125C8.0502,6.9124967578125,7.6127,7.3499967578125,7.0001999999999995,7.3499967578125Z" fill-rule="evenodd" fill="#00FFFF" fill-opacity="1"/></g><g><path d="M7,14C10.866,14,14,10.866,14,7C14,3.13401,10.866,0,7,0C3.13401,0,0,3.13401,0,7C0,10.866,3.13401,14,7,14ZM7,1.16667C10.2217,1.16667,12.8333,3.77834,12.8333,7C12.8333,10.2217,10.2217,12.8333,7,12.8333C3.77834,12.8333,1.16667,10.2217,1.16667,7C1.16667,3.77834,3.77834,1.16667,7,1.16667Z" fill-rule="evenodd" fill="#00FFFF" fill-opacity="1"/></g></g></svg>