<svg xmlns="http://www.w3.org/2000/svg" xmlns:xlink="http://www.w3.org/1999/xlink" fill="none" version="1.1" width="12" height="12" viewBox="0 0 12 12"><g><path d="M11.7,0L7.825,0C7.575,0,7.5,0.225,7.7,0.425L8.925,1.65L6.675,3.9C6.55,4.025,6.55,4.225,6.675,4.375L7.6,5.3C7.725,5.425,7.925,5.425,8.075,5.3L10.35,3.025L11.575,4.25C11.775,4.45,12,4.375,12,4.125L12,0.275C12,0.125,11.85,0,11.7,0ZM0.375,12L4.225,12C4.475,12,4.55,11.725,4.35,11.525L3.125,10.275L5.375,8C5.5,7.875,5.5,7.65,5.375,7.525L4.45,6.6C4.325,6.475,4.125,6.475,3.975,6.6L1.725,8.85L0.475,7.625C0.25,7.425,0,7.5,0,7.75L0,11.6C0,11.775,0.2,12,0.375,12ZM12,11.7L12,7.825C12,7.575,11.775,7.5,11.575,7.7L10.35,8.925L8.1,6.675C7.975,6.55,7.775,6.55,7.625,6.675L6.7,7.6C6.575,7.725,6.575,7.925,6.7,8.075L8.975,10.35L7.75,11.575C7.55,11.775,7.625,12,7.875,12L11.725,12C11.875,12,12,11.85,12,11.7ZM0,0.375L0,4.225C0,4.475,0.275,4.55,0.475,4.35L1.725,3.125L4,5.375C4.125,5.5,4.35,5.5,4.475,5.375L5.4,4.45C5.525,4.325,5.525,4.125,5.4,3.975L3.15,1.725L4.375,0.475C4.575,0.25,4.5,0,4.25,0L0.4,0C0.225,0,0,0.2,0,0.375Z" fill="#FFFFFF" fill-opacity="1"/></g></svg>