<svg xmlns="http://www.w3.org/2000/svg" xmlns:xlink="http://www.w3.org/1999/xlink" fill="none" version="1.1" width="14" height="14" viewBox="0 0 14 14"><defs><clipPath id="master_svg0_217_50036"><rect x="0" y="0" width="14" height="14" rx="0"/></clipPath></defs><g clip-path="url(#master_svg0_217_50036)"><g><path d="M0.6621844584941864,9.6248791796875Q1.1804344584941864,10.8763091796875,2.1511244584941864,11.8470091796875Q3.1219744584941864,12.8179091796875,4.374034458494187,13.3367091796875Q5.626564458494187,13.8558091796875,6.9996244584941865,13.8558091796875L7.024864458494187,13.8558091796875L7.029684458494186,13.8542091796875Q8.374784458494187,13.8493091796875,9.622024458494186,13.3332091796875Q10.875734458494186,12.8155091796875,11.841734458494187,11.8519091796875Q12.012734458494187,11.6792091796875,12.012734458494187,11.4348091796875Q12.012734458494187,11.1904091796875,11.842434458494186,11.0185091796875L7.428204458494187,6.6058391796875Q7.4110344584941865,6.5886591796875,7.395954458494186,6.5773491796875Q7.234784458494186,6.4556591796875,7.035544458494186,6.4556591796875Q6.789944458494187,6.4556591796875,6.617874458494186,6.6277191796875Q6.460484458494187,6.7851091796875,6.446874458494187,7.0106391796875Q6.433304458494186,7.2353091796875,6.569284458494186,7.4096791796875Q6.5788044584941865,7.4224291796875,6.595994458494187,7.4396191796875L10.416234458494186,11.2583091796875L10.585534458494186,11.4305091796875Q9.838274458494187,12.0118091796875,8.894334458494187,12.3402091796875Q7.941414458494187,12.6716091796875,7.001184458494186,12.6716091796875Q4.938104458494187,12.6716091796875,3.3605344584941865,11.3507091796875Q1.8514044584941864,10.0864291796875,1.4481944584941864,8.1552791796875Q1.0456514584941865,6.2273191796875,1.9285844584941865,4.4614591796875Q2.6592844584941866,3.0093491796875,4.039974458494187,2.1646991796875Q5.404574458494187,1.3301291796875,6.9996244584941865,1.3301291796875Q7.649264458494186,1.3301291796875,8.305764458494187,1.4837791796875Q10.224634458494187,1.9369391796875,11.447434458494186,3.4825991796875Q12.672734458494187,5.0336391796875,12.672734458494187,7.0016591796875Q12.672734458494187,7.2472691796875,12.844834458494187,7.4193291796875Q13.016834458494186,7.5913991796875,13.262434458494186,7.5913991796875Q13.294534458494187,7.5913991796875,13.316634458494187,7.5891091796875Q13.540234458494186,7.5691791796875,13.698534458494187,7.3903991796875Q13.855334458494186,7.2132991796875,13.855334458494186,6.9844791796875Q13.851734458494187,5.6147391796875,13.334034458494186,4.3679691796875Q12.815734458494186,3.1196191796875,11.848034458494187,2.1530891796875Q10.877234458494186,1.1823091796875,9.625214458494186,0.6634551796875Q8.372684458494186,0.1444091796875,6.9996244584941865,0.1444091796875Q5.626314458494186,0.1444091796875,4.374844458494186,0.6626591796875Q3.123364458494186,1.1809191796875,2.1526844584941864,2.1515991796875Q1.1818244584941864,3.1224491796875,0.6629804584941864,4.3745091796875Q0.1439344584941864,5.6270391796875,0.1439344584941864,7.0000991796875Q0.1439344584941864,8.3733991796875,0.6621844584941864,9.6248791796875ZM6.999774458494186,13.7002091796875C5.209954458494186,13.7002091796875,3.5263244584941864,13.0021091796875,2.2612644584941863,11.7370091796875C0.9962064584941864,10.4719091796875,0.29964145849418644,8.7898891796875,0.29964145849418644,7.0000591796875C0.29964145849418644,5.2102391796875,0.9977674584941864,3.5266091796875,2.2628244584941863,2.2615491796875C3.1313044584941863,1.3930791796875,4.196304458494186,0.7925311796875,5.357794458494187,0.5013501796875C4.196244458494187,0.7925161796875,3.1311844584941864,1.3930791796875,2.2628244584941863,2.2615491796875C0.9976154584941864,3.5266491796875,0.29949045849418643,5.2102691796875,0.29964145849418644,7.0000591796875C0.29949045849418643,8.7899291796875,0.9960544584941864,10.4720091796875,2.2612644584941863,11.7370091796875C3.5261744584941863,13.0021091796875,5.209794458494186,13.7002091796875,6.999774458494186,13.7002091796875ZM7.0043144584941865,13.6987091796875C7.414504458494187,13.6987091796875,7.819984458494186,13.6615091796875,8.218384458494187,13.5879091796875C7.820034458494186,13.6615091796875,7.414604458494186,13.6986091796875,7.0043144584941865,13.6987091796875ZM6.927154458494186,6.6244991796875C6.852704458494187,6.6432091796875,6.784154458494187,6.6814391796875,6.7278744584941865,6.7377191796875C6.573254458494186,6.8923291796875,6.559194458494186,7.1437891796875,6.691954458494187,7.3140191796875C6.696634458494186,7.3202691796875,6.701324458494186,7.3249491796875,6.706004458494187,7.3296391796875L10.526134458494186,11.1482091796875L10.705734458494186,11.3310091796875C10.733934458494186,11.3591091796875,10.749534458494187,11.3997091796875,10.746434458494186,11.4403091796875C10.744834458494186,11.4809091796875,10.724534458494187,11.5199091796875,10.691734458494187,11.5449091796875C10.039404458494186,12.0553091796875,9.246334458494186,12.4350091796875,8.423654458494186,12.6439091796875C9.246384458494186,12.4350091796875,10.039524458494187,12.0553091796875,10.691734458494187,11.5449091796875C10.724634458494187,11.5199091796875,10.744934458494187,11.4809091796875,10.746434458494186,11.4403091796875C10.749634458494187,11.3996091796875,10.734034458494186,11.3590091796875,10.705734458494186,11.3310091796875L10.526134458494186,11.1482091796875L6.706004458494187,7.3296391796875C6.701474458494187,7.3249191796875,6.696784458494187,7.3202291796875,6.691954458494187,7.3140191796875C6.559344458494186,7.1437491796875,6.573404458494187,6.8922991796875,6.7278744584941865,6.7377191796875C6.784264458494186,6.6814391796875,6.852764458494186,6.6432191796875,6.927154458494186,6.6244991796875ZM13.364034458494187,7.4236091796875C13.343634458494186,7.4288191796875,13.322834458494187,7.4324191796875,13.301634458494187,7.4342391796875C13.287634458494187,7.4358091796875,13.276634458494186,7.4358091796875,13.262634458494187,7.4358091796875C13.145434458494186,7.4358091796875,13.036134458494187,7.3905091796875,12.954934458494186,7.3092991796875C12.873734458494186,7.2280791796875,12.828434458494186,7.1171991796875,12.828434458494186,7.0016191796875C12.828434458494186,5.6943891796875,12.380234458494186,4.4121491796875,11.569634458494187,3.3860491796875C10.759034458494186,2.3615091796875,9.611114458494187,1.6321491796875,8.341364458494187,1.3322791796875C7.900934458494186,1.2291991796875,7.451134458494186,1.1745391796875,6.999774458494186,1.1745391796875C6.520554458494186,1.1745391796875,6.045074458494186,1.2339091796875,5.583834458494186,1.3497091796875C6.045024458494186,1.2339291796875,6.520454458494187,1.1745791796875,6.999774458494186,1.1745391796875C7.450984458494187,1.1745791796875,7.900784458494186,1.2292391796875,8.341364458494187,1.3322791796875C9.610954458494186,1.6321791796875,10.758834458494187,2.3615491796875,11.569634458494187,3.3860491796875C12.380034458494187,4.4121891796875,12.828234458494187,5.6944291796875,12.828434458494186,7.0016191796875C12.828234458494187,7.1172291796875,12.873534458494186,7.2281191796875,12.954934458494186,7.3092991796875C13.036034458494186,7.3905491796875,13.145334458494187,7.4358391796875,13.262634458494187,7.4358091796875C13.276534458494186,7.4358391796875,13.287434458494186,7.4358391796875,13.301634458494187,7.4342391796875C13.322734458494187,7.4324491796875,13.343634458494186,7.4288391796875,13.364034458494187,7.4236091796875ZM3.2799744584941863,6.8484691796875Q3.2141544584941864,8.4330391796875,4.314944458494186,9.5769291796875Q5.415364458494186,10.7227091796875,6.9994344584941866,10.7227091796875Q7.253054458494186,10.7227091796875,7.436834458494187,10.5356091796875L7.439204458494187,10.5331091796875L7.441474458494186,10.5306091796875Q7.618994458494186,10.3334091796875,7.5897844584941865,10.0704791796875Q7.565434458494186,9.8529591796875,7.386844458494187,9.6978691796875Q7.2105844584941865,9.5447991796875,6.988044458494186,9.5432191796875Q5.913674458494186,9.5386491796875,5.1657044584941865,8.7586691796875Q4.421244458494186,7.9823391796875,4.462324458494186,6.9028091796875Q4.503484458494186,5.9242891796875,5.192434458494186,5.2239691796875Q5.885044458494186,4.5199291796875,6.859434458494186,4.4674391796875Q6.933084458494187,4.4629791796875,7.002554458494187,4.4629791796875Q8.053254458494187,4.4629791796875,8.797964458494187,5.2076991796875Q9.542674458494186,5.9524091796875,9.542674458494186,7.0030991796875Q9.542674458494186,7.2486991796875,9.714744458494186,7.4207691796875Q9.886814458494186,7.5928391796875,10.132414458494186,7.5928391796875Q10.162734458494187,7.5928391796875,10.183834458494186,7.5905091796875Q10.413034458494186,7.5704891796875,10.569334458494186,7.3951391796875Q10.725234458494187,7.2201391796875,10.723734458494187,6.9848791796875Q10.717634458494187,5.4519091796875,9.626464458494187,4.3647391796875Q8.535034458494186,3.2772591796875,7.000994458494186,3.2772591796875Q6.924214458494187,3.2772591796875,6.884914458494187,3.2789691796875Q5.428694458494187,3.3216791796875,4.383494458494186,4.3563791796875Q3.3386744584941863,5.3906991796875,3.2799744584941863,6.8484691796875ZM6.999584458494186,10.5671091796875C6.020334458494187,10.5671091796875,5.108244458494187,10.1782091796875,4.4272944584941865,9.4691491796875C3.7479144584941864,8.7632091796875,3.3949444584941864,7.8323791796875,3.4355544584941864,6.8546891796875C3.4364344584941864,6.8327091796875,3.4374744584941865,6.8107691796875,3.4386644584941863,6.7888891796875C3.4373744584941863,6.8107891796875,3.4362844584941863,6.8327291796875,3.4355544584941864,6.8546891796875C3.3947944584941863,7.8324191796875,3.7477644584941863,8.7632491796875,4.4272944584941865,9.4691491796875C5.108094458494186,10.1782091796875,6.020184458494186,10.5671091796875,6.999584458494186,10.5671091796875C7.035124458494186,10.5671091796875,7.070294458494186,10.5627091796875,7.104334458494186,10.5542091796875C7.070344458494186,10.5627091796875,7.035224458494186,10.5671091796875,6.999584458494186,10.5671091796875ZM6.920404458494186,4.3080991796875C6.922844458494186,4.3082391796875,6.925594458494186,4.3083991796875,6.928294458494187,4.3085691796875C6.942254458494187,4.3081391796875,6.956164458494186,4.3078391796875,6.970044458494186,4.3076491796875C6.955614458494186,4.3074191796875,6.941174458494187,4.3073091796875,6.926704458494187,4.3073091796875C6.906384458494187,4.3073091796875,6.9111044584941865,4.3075691796875,6.920404458494186,4.3080991796875ZM9.695774458494187,6.8871091796875C9.697404458494187,6.9255691796875,9.698234458494186,6.9642391796875,9.698234458494186,7.0030991796875C9.698234458494186,7.1186691796875,9.743524458494186,7.2295591796875,9.824734458494186,7.3107791796875C9.905954458494186,7.3919891796875,10.015274458494186,7.4372791796875,10.132414458494186,7.4372791796875C10.144934458494186,7.4372791796875,10.155834458494187,7.4372791796875,10.168334458494186,7.4357191796875C10.191234458494186,7.4338091796875,10.213534458494186,7.4300691796875,10.235334458494187,7.4246291796875C10.213634458494186,7.4300491796875,10.191334458494186,7.4337791796875,10.168334458494186,7.4357191796875C10.156034458494187,7.4372391796875,10.145034458494186,7.4372391796875,10.132414458494186,7.4372791796875C10.015424458494186,7.4372391796875,9.906104458494186,7.3919491796875,9.824734458494186,7.3107791796875C9.743674458494187,7.2295191796875,9.698384458494186,7.1186391796875,9.698234458494186,7.0030991796875C9.698384458494186,6.9642191796875,9.697504458494187,6.9255591796875,9.695774458494187,6.8871091796875ZM6.945234458494187,3.4330291796875C6.954564458494186,3.4331991796875,6.965224458494187,3.4335791796875,6.946454458494187,3.4343891796875C6.804894458494187,3.4384691796875,6.6676744584941865,3.4480491796875,6.534774458494186,3.4628791796875C6.652094458494187,3.4475091796875,6.771164458494186,3.4379191796875,6.891674458494187,3.4343791796875C6.9092744584941865,3.4336191796875,6.927244458494187,3.4332291796875,6.945234458494187,3.4330291796875Z" fill-rule="evenodd" fill="#00FFFF" fill-opacity="1"/></g></g></svg>