<svg xmlns="http://www.w3.org/2000/svg" xmlns:xlink="http://www.w3.org/1999/xlink" fill="none" version="1.1" width="42" height="42" viewBox="0 0 42 42"><defs><linearGradient x1="0.5" y1="0" x2="0.5" y2="1" id="master_svg0_9273_27164"><stop offset="0%" stop-color="#59ACFF" stop-opacity="0.7099999785423279"/><stop offset="13.698630034923553%" stop-color="#007BFF" stop-opacity="0.46000000834465027"/><stop offset="100%" stop-color="#002F9C" stop-opacity="0.20000000298023224"/></linearGradient><filter id="master_svg1_9273_27301" filterUnits="objectBoundingBox" color-interpolation-filters="sRGB" x="0" y="0" width="31.5" height="31.5"><feFlood flood-opacity="0" result="BackgroundImageFix"/><feBlend mode="normal" in="SourceGraphic" in2="BackgroundImageFix" result="shape"/><feColorMatrix in="SourceAlpha" type="matrix" result="hardAlpha" values="0 0 0 0 0 0 0 0 0 0 0 0 0 0 0 0 0 0 127 0"/><feOffset dy="0" dx="0"/><feGaussianBlur stdDeviation="4"/><feComposite in2="hardAlpha" operator="arithmetic" k2="-1" k3="1"/><feColorMatrix type="matrix" values="0 0 0 0 0 0 0 0 0 0.3607843220233917 0 0 0 0 0.7450980544090271 0 0 0 0.30000001192092896 0"/><feBlend mode="normal" in2="shape" result="effect1_innerShadow"/></filter><linearGradient x1="0.5" y1="0" x2="0.5" y2="1" id="master_svg2_9273_27157"><stop offset="0.7142857182770967%" stop-color="#79BEFF" stop-opacity="1"/><stop offset="8.584871888160706%" stop-color="#79BEFF" stop-opacity="0"/></linearGradient></defs><g style="mix-blend-mode:passthrough"><g style="mix-blend-mode:passthrough"><rect x="0" y="0" width="42" height="42" rx="0" fill="url(#master_svg0_9273_27164)" fill-opacity="1"/><path d="M42,0L0,0L0,1L42,1L42,0ZM42,41L0,41L0,42L42,42L42,41Z" fill-rule="evenodd" fill="#6FD6FF" fill-opacity="0.30000001192092896"/></g><g style="mix-blend-mode:passthrough" filter="url(#master_svg1_9273_27301)"><rect x="5.25" y="5.25" width="31.5" height="31.5" rx="0" fill="#002050" fill-opacity="0.10000000149011612"/><rect x="5.25" y="5.25" width="31.5" height="31.5" rx="0" fill="url(#master_svg2_9273_27157)" fill-opacity="0.30000001192092896"/><rect x="5.5" y="5.5" width="31" height="31" rx="0" fill-opacity="0" stroke-opacity="0.30000001192092896" stroke="#79BEFF" fill="none" stroke-width="0.5"/></g><g><g><g><path d="M21.00486,11.8125L26.241300000000003,16.43898C29.9068,19.75609,29.7322,25.517400000000002,25.8049,28.4853C23.01216,30.7549,18.99757,30.7549,16.117539999999998,28.4853C12.277507,25.4301,12.10296,19.66879,15.76845,16.43898L21.00486,11.8125ZM21.00302,13.94531L25.199199999999998,17.65276C28.1366,20.31092,27.9967,24.9277,24.8495,27.3061C22.61157,29.1248,19.39447,29.1248,17.08656,27.3061C14.009336,24.857799999999997,13.869462,20.24097,16.80681,17.65276L21.00302,13.94531Z" fill-rule="evenodd" fill="#FFFFFF" fill-opacity="1"/></g><g><path d="M21,18.375L21,26.25C23.205,26.25,24.9375,24.5175,24.9375,22.3125C24.9375,20.1075,23.205,18.374999279022,21,18.375Z" fill="#FFFFFF" fill-opacity="1"/></g></g></g></g></svg>