<svg xmlns="http://www.w3.org/2000/svg" xmlns:xlink="http://www.w3.org/1999/xlink" fill="none" version="1.1" width="16" height="16" viewBox="0 0 16 16"><g style="mix-blend-mode:passthrough"><g style="mix-blend-mode:passthrough" transform="matrix(1,0.0003452669770922512,0.0003452669770922512,1,-0.0013827327088566932,-0.0013827327088566932)"><path d="M7.99999177734375,8.91922177734375C7.99999177734375,8.91922177734375,11.075891777343749,11.995131777343751,11.075891777343749,11.995131777343751C11.075891777343749,11.995131777343751,11.995131777343751,11.075891777343749,11.995131777343751,11.075891777343749C11.995131777343751,11.075891777343749,8.91922177734375,7.99999177734375,8.91922177734375,7.99999177734375C8.91922177734375,7.99999177734375,11.995131777343751,4.92408677734375,11.995131777343751,4.92408677734375C11.995131777343751,4.92408677734375,11.075891777343749,4.00484841414375,11.075891777343749,4.00484841414375C11.075891777343749,4.00484841414375,7.99999177734375,7.08075177734375,7.99999177734375,7.08075177734375C7.99999177734375,7.08075177734375,4.92406077734375,4.00482177734375,4.92406077734375,4.00482177734375C4.92406077734375,4.00482177734375,4.00482177734375,4.92406077734375,4.00482177734375,4.92406077734375C4.00482177734375,4.92406077734375,7.08075177734375,7.99999177734375,7.08075177734375,7.99999177734375C7.08075177734375,7.99999177734375,4.00482177734375,11.07591177734375,4.00482177734375,11.07591177734375C4.00482177734375,11.07591177734375,4.92406077734375,11.99515177734375,4.92406077734375,11.99515177734375C4.92406077734375,11.99515177734375,7.99999177734375,8.91922177734375,7.99999177734375,8.91922177734375C7.99999177734375,8.91922177734375,7.99999177734375,8.91922177734375,7.99999177734375,8.91922177734375Z" fill="#FFFFFF" fill-opacity="1"/></g></g></svg>