<svg xmlns="http://www.w3.org/2000/svg" xmlns:xlink="http://www.w3.org/1999/xlink" fill="none" version="1.1" width="128" height="22" viewBox="0 0 128 22"><defs><linearGradient x1="1" y1="0.5" x2="0" y2="0.5" id="master_svg0_167_5003"><stop offset="0%" stop-color="#267ACE" stop-opacity="1"/><stop offset="100%" stop-color="#004CFF" stop-opacity="0"/></linearGradient><linearGradient x1="1" y1="0.5" x2="0" y2="0.5" id="master_svg1_183_6655"><stop offset="0%" stop-color="#005EFF" stop-opacity="0.8899999856948853"/><stop offset="18.992730975151062%" stop-color="#0084FF" stop-opacity="0.5099999904632568"/><stop offset="35.28219759464264%" stop-color="#004CFF" stop-opacity="0.10000000149011612"/></linearGradient><linearGradient x1="1" y1="0.5" x2="0" y2="0.5" id="master_svg2_167_5003"><stop offset="0%" stop-color="#267ACE" stop-opacity="1"/><stop offset="100%" stop-color="#004CFF" stop-opacity="0"/></linearGradient><linearGradient x1="1" y1="0.5" x2="0" y2="0.5" id="master_svg3_183_6652"><stop offset="0%" stop-color="#005EFF" stop-opacity="0.8899999856948853"/><stop offset="18.992730975151062%" stop-color="#0084FF" stop-opacity="0.5099999904632568"/><stop offset="41.428571939468384%" stop-color="#004CFF" stop-opacity="0.10000000149011612"/></linearGradient></defs><g style="mix-blend-mode:passthrough"><g style="mix-blend-mode:passthrough" transform="matrix(-1,0,0,1,14,0)"><rect x="7" y="0" width="7" height="22" rx="0" fill="url(#master_svg0_167_5003)" fill-opacity="1"/><path d="M14,0L13,0L13,22L14,22L14,0Z" fill-rule="evenodd" fill="#6FD6FF" fill-opacity="1"/></g><g style="mix-blend-mode:passthrough" transform="matrix(-1,0,0,1,256,0)"><rect x="128" y="0" width="118" height="22" rx="0" fill="url(#master_svg1_183_6655)" fill-opacity="0.30000001192092896"/></g><g style="mix-blend-mode:passthrough"><rect x="121" y="0" width="7" height="22" rx="0" fill="url(#master_svg2_167_5003)" fill-opacity="1"/><path d="M128,0L127,0L127,22L128,22L128,0Z" fill-rule="evenodd" fill="#6FD6FF" fill-opacity="1"/></g><g style="mix-blend-mode:passthrough"><rect x="0" y="0" width="118" height="22" rx="0" fill="url(#master_svg3_183_6652)" fill-opacity="0.30000001192092896"/></g></g></svg>